<?xml version="1.0" encoding="utf-8"?>
<svg version="1.2" baseProfile="tiny" style="shape-rendering:geometricPrecision; fill-rule:evenodd;" width="7.00mm" height="7.00mm" viewBox="-3.51 -3.51 7.02 7.02" xmlns="http://www.w3.org/2000/svg">
  <title>NMKINF46</title>
  <desc>use of sailboards permitted (E.20)</desc>
  <metadata>
    <iho:S100SVG xmlns:iho="http://www.iho.int/SVGMetadata">
      <iho:Description iho:publisher="IEHG" iho:creationDate="2015-07-29" iho:source="" iho:format="IENC signs, Europe, SVG" iho:version="0.1" />
    </iho:S100SVG>
  </metadata>
  <g>
    <polygon style="fill:#00A9FF;fill-opacity:1;stroke:#00A9FF;stroke-width:0.04" points="-3.50,3.50 -3.50,-3.50 3.50,-3.50 3.50,3.50 -3.50,3.50 " />
    <polyline style="fill:none;fill-opacity:1;stroke:#000000;stroke-width:0.04" points="-3.50,3.50 -3.50,-3.50 3.50,-3.50 3.50,3.50 -3.50,3.50 " />
    <g transform="matrix(0.03134315,0,0,0.03134315,-11.173293,-16.880163)">
      <path style="fill:#ffffff;fill-opacity:1;stroke:none" d="m 330.32,628.664 v -8.648 h 9.323 v -5.07 l -7.904,-21.697 -8.917,-4.461 -10.539,-2.839 -2.837,-3.447 -3.445,-8.922 -6.485,-7.3 -3.445,-8.72 2.312,-4.366 0.463,-2.847 -4.566,-2.98 -2.623,-5.137 0.115,-4.635 3.706,-4.519 3.706,-0.696 4.401,1.391 2.431,3.128 0.927,3.94 -0.811,5.33 -2.084,2.434 0.116,1.738 38.679,0.347 7.411,-4.403 8.918,-9.68 5.48,-5.949 13.075,-48.005 9.032,-36.152 10.886,21.668 8.454,26.651 6.948,26.419 3.424,19.083 1.621,16.802 -1.158,2.896 -7.875,9.502 -19.195,18.409 -18.181,14.253 -15.902,10.928 -1.042,2.202 h 4.401 v 5.562 h 9.38 v 7.79 z m 27.963,-70.391 -5.294,-4.966 7.477,-7.283 z m -8.712,50.802 -6.717,-23.985 -1.621,-2.086 -5.095,-2.897 -6.949,-3.36 -4.284,-2.086 -4.054,-7.3 -3.705,-6.373 2.547,-1.275 4.857,0.116 23.277,-1.043 7.99,7.532 -2.431,17.613 z" />
    </g>
  </g>
</svg>