<?xml version="1.0" encoding="UTF-8" standalone="no"?>
<svg
   xmlns:dc="http://purl.org/dc/elements/1.1/"
   xmlns:cc="http://creativecommons.org/ns#"
   xmlns:rdf="http://www.w3.org/1999/02/22-rdf-syntax-ns#"
   xmlns:svg="http://www.w3.org/2000/svg"
   xmlns="http://www.w3.org/2000/svg"
   xmlns:sodipodi="http://sodipodi.sourceforge.net/DTD/sodipodi-0.dtd"
   xmlns:inkscape="http://www.inkscape.org/namespaces/inkscape"
   viewBox="0 0 7.0358931 7.0358931"
   version="1.1"
   xml:space="preserve"
   id="svg21"
   sodipodi:docname="NMKINF46.svg"
   width="7mm"
   height="7mm"
   style="fill-rule:evenodd;stroke-linecap:round;stroke-linejoin:round"
   inkscape:version="0.92.4 (5da689c313, 2019-01-14)"><metadata
   id="metadata25"><rdf:RDF><cc:Work
       rdf:about=""><dc:format>image/svg+xml</dc:format><dc:type
         rdf:resource="http://purl.org/dc/dcmitype/StillImage" /><dc:title></dc:title></cc:Work></rdf:RDF></metadata><sodipodi:namedview
   pagecolor="#ffffff"
   bordercolor="#666666"
   borderopacity="1"
   objecttolerance="10"
   gridtolerance="10"
   guidetolerance="10"
   inkscape:pageopacity="0"
   inkscape:pageshadow="2"
   inkscape:window-width="1687"
   inkscape:window-height="530"
   id="namedview23"
   showgrid="false"
   units="mm"
   inkscape:zoom="8"
   inkscape:cx="57.11099"
   inkscape:cy="13.616639"
   inkscape:window-x="3864"
   inkscape:window-y="454"
   inkscape:window-maximized="0"
   inkscape:current-layer="svg21" />
<defs
   id="defs5">
<clipPath
   id="clipId0">
<path
   d="M 0,768 H 1024 V 0 H 0 Z"
   id="path2"
   inkscape:connector-curvature="0" />
</clipPath>
</defs>
<g
   clip-path="url(#clipId0)"
   id="g11"
   style="fill:#000000;stroke:#000000;stroke-width:0.25"
   transform="matrix(0.02662118,0,0,0.02662118,-5.9378515,-10.662354)">
<path
   d="m 223.191,664.753 v -264.1 H 487.29 v 264.1 z"
   id="path9"
   inkscape:connector-curvature="0"
   style="fill:#00a9ff;fill-opacity:1" />
</g><g
   clip-path="url(#clipId0)"
   id="g7"
   style="fill:none;stroke:#000000;stroke-width:0.1"
   transform="translate(0,-741.54328)" />

<g
   clip-path="url(#clipId0)"
   id="g15"
   style="fill:none;stroke:#000000;stroke-width:1.5084583;stroke-miterlimit:4;stroke-dasharray:none"
   transform="matrix(0.02662118,0,0,0.02662118,-5.9378515,-10.662354)">
<polyline
   points="223.191,664.753 223.191,400.653 487.29,400.653 487.29,664.753 223.191,664.753 "
   id="polyline13"
   style="stroke-width:1.5084583;stroke-miterlimit:4;stroke-dasharray:none" />
</g>

<g
   clip-path="url(#clipId0)"
   id="g19"
   style="fill:#000000;stroke:none;stroke-width:0;stroke-miterlimit:4;stroke-dasharray:none"
   transform="matrix(0.02662118,0,0,0.02662118,-5.9378515,-10.662354)">
<path
   d="m 330.32,628.664 v -8.648 h 9.323 v -5.07 l -7.904,-21.697 -8.917,-4.461 -10.539,-2.839 -2.837,-3.447 -3.445,-8.922 -6.485,-7.3 -3.445,-8.72 2.312,-4.366 0.463,-2.847 -4.566,-2.98 -2.623,-5.137 0.115,-4.635 3.706,-4.519 3.706,-0.696 4.401,1.391 2.431,3.128 0.927,3.94 -0.811,5.33 -2.084,2.434 0.116,1.738 38.679,0.347 7.411,-4.403 8.918,-9.68 5.48,-5.949 13.075,-48.005 9.032,-36.152 10.886,21.668 8.454,26.651 6.948,26.419 3.424,19.083 1.621,16.802 -1.158,2.896 -7.875,9.502 -19.195,18.409 -18.181,14.253 -15.902,10.928 -1.042,2.202 h 4.401 v 5.562 h 9.38 v 7.79 z m 27.963,-70.391 -5.294,-4.966 7.477,-7.283 z m -8.712,50.802 -6.717,-23.985 -1.621,-2.086 -5.095,-2.897 -6.949,-3.36 -4.284,-2.086 -4.054,-7.3 -3.705,-6.373 2.547,-1.275 4.857,0.116 23.277,-1.043 7.99,7.532 -2.431,17.613 z"
   id="path17"
   inkscape:connector-curvature="0"
   style="fill:#ffffff;fill-opacity:1;stroke-width:0;stroke-miterlimit:4;stroke-dasharray:none;stroke:none" />
</g></svg>