<?xml version="1.0" encoding="utf-8"?>
<svg version="1.2" baseProfile="tiny" style="shape-rendering:geometricPrecision; fill-rule:evenodd;" width="7.00mm" height="7.00mm" viewBox="-3.51 -3.51 7.02 7.02" xmlns="http://www.w3.org/2000/svg">
  <title>NMKPRH19</title>
  <desc>use of sail boards prohibited (A.17)</desc>
  <metadata>
    <iho:S100SVG xmlns:iho="http://www.iho.int/SVGMetadata">
      <iho:Description iho:publisher="IEHG" iho:creationDate="2015-07-29" iho:source="" iho:format="IENC signs, Europe, SVG" iho:version="0.1" />
    </iho:S100SVG>
  </metadata>
  <g>
    <polygon style="fill:#FF3939;fill-opacity:1;stroke:#000000;stroke-width:0.04" points="-3.50,3.50 -3.50,-3.50 3.50,-3.50 3.50,3.50 -3.50,3.50 " />
    <polygon style="fill:#FFFFFF;fill-opacity:1;stroke:#FFFFFF;stroke-width:0.04" points="2.51,1.82 2.51,-2.52 -1.78,-2.52 2.51,1.82 " />
    <polygon style="fill:#FFFFFF;fill-opacity:1;stroke:#FFFFFF;stroke-width:0.04" points="-2.54,-1.81 -2.54,2.54 1.82,2.54 -2.54,-1.81 " />
    <g transform="matrix(0.03134315,0,0,0.03134315,-11.173293,-16.880163)">
      <path
         style="fill:#000000;fill-opacity:1;stroke:none;stroke-width:0.82286823"
         d="m 333.91094,614.42846 v -7.11616 h 7.67161 v -4.17194 l -6.50396,-17.85378 -7.33751,-3.67081 -8.67221,-2.33612 -2.33448,-2.83643 -2.83478,-7.34163 -5.3363,-6.00694 -2.83478,-7.17541 1.90247,-3.59264 0.38099,-2.34271 -3.75722,-2.45215 -2.15838,-4.22707 0.0946,-3.81399 3.04955,-3.71855 3.04955,-0.57271 3.62144,1.14461 2.0004,2.57393 0.76279,3.2421 -0.66734,4.38589 -1.71486,2.00286 0.0954,1.43014 31.82772,0.28554 6.09828,-3.62309 7.33834,-7.96536 4.50932,-4.89525 10.759,-39.50179 7.43215,-29.74833 8.95774,17.82991 6.95653,21.93026 5.71729,21.73936 2.8175,15.70279 1.33387,13.82583 -0.95289,2.38303 -6.48008,7.81889 -15.79496,15.14819 -14.96057,11.72834 -13.08525,8.9923 -0.85743,1.81196 h 3.62145 v 4.57679 h 7.7185 v 6.41014 z m 23.00987,-57.92252 -4.35627,-4.08636 6.15259,-5.99295 z m -7.16883,41.80336 -5.5272,-19.7365 -1.33387,-1.7165 -4.19252,-2.38385 -5.71811,-2.76484 -3.52517,-1.7165 -3.3359,-6.00694 -3.04873,-5.24414 2.09584,-1.04915 3.99668,0.0954 19.1539,-0.85825 6.57472,6.19784 -2.0004,14.49318 z"/>
    </g>
  </g>
</svg>