<?xml version="1.0" encoding="UTF-8" standalone="no"?>
<svg
   xmlns:dc="http://purl.org/dc/elements/1.1/"
   xmlns:cc="http://creativecommons.org/ns#"
   xmlns:rdf="http://www.w3.org/1999/02/22-rdf-syntax-ns#"
   xmlns:svg="http://www.w3.org/2000/svg"
   xmlns="http://www.w3.org/2000/svg"
   xmlns:sodipodi="http://sodipodi.sourceforge.net/DTD/sodipodi-0.dtd"
   xmlns:inkscape="http://www.inkscape.org/namespaces/inkscape"
   viewBox="0 0 7.0200191 10.229171"
   version="1.1"
   xml:space="preserve"
   id="svg25"
   sodipodi:docname="NMKPRH08.svg"
   width="7mm"
   height="10.2mm"
   style="fill-rule:evenodd;stroke-linecap:round;stroke-linejoin:round"
   inkscape:version="0.92.4 (5da689c313, 2019-01-14)"><metadata
   id="metadata29"><rdf:RDF><cc:Work
       rdf:about=""><dc:format>image/svg+xml</dc:format><dc:type
         rdf:resource="http://purl.org/dc/dcmitype/StillImage" /><dc:title></dc:title></cc:Work></rdf:RDF></metadata><sodipodi:namedview
   pagecolor="#ffffff"
   bordercolor="#666666"
   borderopacity="1"
   objecttolerance="10"
   gridtolerance="10"
   guidetolerance="10"
   inkscape:pageopacity="0"
   inkscape:pageshadow="2"
   inkscape:window-width="1385"
   inkscape:window-height="708"
   id="namedview27"
   showgrid="false"
   units="mm"
   inkscape:zoom="11.313709"
   inkscape:cx="8.9313483"
   inkscape:cy="20.872786"
   inkscape:window-x="4523"
   inkscape:window-y="413"
   inkscape:window-maximized="0"
   inkscape:current-layer="g23" />
<defs
   id="defs5">
<clipPath
   id="clipId0">
<path
   d="M 0,768 H 1024 V 0 H 0 Z"
   id="path2"
   inkscape:connector-curvature="0" />
</clipPath>
</defs>
<g
   clip-path="url(#clipId0)"
   id="g7"
   style="fill:none;stroke:#000000;stroke-width:0.1"
   transform="matrix(0.99588231,0,0,0.99588231,0.01136382,-726.4276)" />
<g
   clip-path="url(#clipId0)"
   id="g11"
   style="fill:#ff3939;stroke:#ff3939;stroke-width:0.24795984;stroke-miterlimit:4;stroke-dasharray:none"
   transform="matrix(0.04796297,0,0,0.04796297,-12.409404,-12.775431)">
<polygon
   points="259.188,266.804 404.713,266.804 404.713,478.854 259.188,478.854 "
   id="polygon9"
   style="stroke-width:0.24795984;stroke-miterlimit:4;stroke-dasharray:none" />
</g>
<g
   clip-path="url(#clipId0)"
   id="g15"
   style="fill:none;stroke:#000000;stroke-width:0.83204299;stroke-miterlimit:4;stroke-dasharray:none"
   transform="matrix(0.04796297,0,0,0.04796297,-12.409404,-12.775431)">
<polyline
   points="259.188,478.854 259.188,266.804 404.713,266.804 404.713,478.854 259.188,478.854 "
   id="polyline13"
   style="stroke-width:0.83204299;stroke-miterlimit:4;stroke-dasharray:none" />
</g>
<g
   clip-path="url(#clipId0)"
   id="g23"
   style="fill:#000000;stroke:#000000;stroke-width:0.25;fill-opacity:0.93457943"
   transform="matrix(0.04796297,0,0,0.04796297,-12.409404,-12.775431)">
<path
   d="m 279.978,307.313 v 150.751 h 91.908 v 0 z"
   id="path17"
   inkscape:connector-curvature="0"
   style="fill:#ffffff;fill-opacity:1" />
<path
   d="M 383.924,438.679 V 287.593 h -91.601 v 0 z"
   id="path19"
   inkscape:connector-curvature="0"
   style="fill:#ffffff;fill-opacity:1" />
<path
   d="m 332.561,444.644 -1.569,-0.06 -1.488,-0.245 -1.382,-0.402 -1.259,-0.528 -1.135,-0.629 -1.096,-0.771 -1.058,-0.938 -0.988,-1.11 -0.881,-1.276 -0.735,-1.429 -0.554,-1.555 -0.346,-1.647 -0.117,-1.694 0.117,-1.695 0.346,-1.646 0.554,-1.556 0.735,-1.428 0.225,-0.326 -11.443,-0.086 -0.01,-10.114 13.017,-0.326 -0.167,-81.702 -0.526,0.065 -1.865,0.283 -1.852,0.333 -1.837,0.382 -1.822,0.431 -1.802,0.478 -1.783,0.524 -1.761,0.57 -1.737,0.614 -1.712,0.657 -1.686,0.698 -1.658,0.739 -1.628,0.777 -1.598,0.814 -1.566,0.85 -1.534,0.884 -1.5,0.916 -1.465,0.947 -1.431,0.976 -1.394,1.004 -1.358,1.029 0.754,-1.947 0.857,-1.936 0.958,-1.917 1.061,-1.89 1.164,-1.857 1.264,-1.814 1.362,-1.764 1.459,-1.706 1.55,-1.64 1.638,-1.567 1.72,-1.488 1.797,-1.402 1.866,-1.31 1.929,-1.213 1.984,-1.113 2.031,-1.008 2.069,-0.901 2.1,-0.792 2.122,-0.682 2.136,-0.572 2.141,-0.464 2.139,-0.355 2.129,-0.25 2.111,-0.148 2.088,-0.048 2.087,0.048 2.112,0.148 2.128,0.25 2.139,0.355 2.141,0.464 2.136,0.572 2.122,0.682 2.1,0.792 2.069,0.901 2.031,1.008 1.984,1.113 1.929,1.213 1.866,1.31 1.797,1.402 1.72,1.488 1.638,1.567 1.551,1.64 1.458,1.706 1.363,1.764 1.264,1.814 1.163,1.857 1.061,1.89 0.959,1.917 0.856,1.936 0.755,1.947 -1.359,-1.029 -1.394,-1.004 -1.431,-0.976 -1.465,-0.947 -1.5,-0.916 -1.534,-0.884 -1.566,-0.85 -1.598,-0.814 -1.628,-0.777 -1.658,-0.739 -1.686,-0.698 -1.712,-0.657 -1.737,-0.614 -1.761,-0.57 -1.782,-0.524 -1.803,-0.478 -1.821,-0.431 -1.838,-0.382 -1.852,-0.333 -1.865,-0.283 -0.396,-0.049 0.12,81.869 12.366,-0.163 0.326,10.746 -11.449,-0.086 0.583,0.999 0.598,1.408 0.404,1.406 0.226,1.371 0.071,1.313 -0.071,1.313 -0.226,1.371 -0.404,1.406 -0.598,1.408 -0.801,1.372 -1.004,1.294 -1.195,1.172 -1.361,1.011 -1.491,0.816 -1.58,0.599 -1.621,0.372 z m -0.189,-7.247 -0.644,-0.024 -0.61,-0.101 -0.566,-0.164 -0.517,-0.217 -0.465,-0.258 -0.45,-0.316 -0.434,-0.385 -0.405,-0.455 -0.361,-0.523 -0.301,-0.586 -0.228,-0.638 -0.141,-0.675 -0.049,-0.695 0.049,-0.695 0.141,-0.675 0.228,-0.638 0.301,-0.586 0.361,-0.523 0.405,-0.455 0.434,-0.385 0.45,-0.317 0.465,-0.257 0.517,-0.217 0.566,-0.165 0.61,-0.1 0.644,-0.025 0.663,0.061 0.664,0.153 0.648,0.246 0.612,0.335 0.558,0.414 0.49,0.481 0.412,0.53 0.328,0.563 0.246,0.578 0.165,0.576 0.093,0.562 0.029,0.539 -0.029,0.538 -0.093,0.563 -0.165,0.576 -0.246,0.577 -0.328,0.563 -0.412,0.531 -0.49,0.48 -0.558,0.415 -0.612,0.335 -0.648,0.245 -0.664,0.153 z"
   id="path21"
   inkscape:connector-curvature="0"
   style="fill:#000000;fill-opacity:0.93457943" />
</g>
</svg>