<?xml version="1.0" encoding="utf-8"?>
<svg version="1.2" baseProfile="tiny" style="shape-rendering:geometricPrecision; fill-rule:evenodd;" width="7.00mm" height="10.20mm" viewBox="-3.51 -5.11 7.02 10.22" xmlns="http://www.w3.org/2000/svg">
  <title>NMKPRH08</title>
  <desc>no anchoring or trailing of anchors, cables or chains on the side of the waterway on which the sign is placed (A.6)</desc>
  <metadata>
    <iho:S100SVG xmlns:iho="http://www.iho.int/SVGMetadata">
      <iho:Description iho:publisher="IEHG" iho:creationDate="2015-07-29" iho:source="" iho:format="IENC signs, Europe, SVG" iho:version="0.1" />
    </iho:S100SVG>
  </metadata>
  <g>
    <polygon style="fill:#FF3939;fill-opacity:1;stroke:#000000;stroke-width:0.04" points="-3.50,5.10 -3.50,-5.10 3.50,-5.10 3.50,5.10 -3.50,5.10 " />
    <polygon style="fill:#FFFFFF;fill-opacity:1;stroke:#FFFFFF;stroke-width:0.04" points="-2.50,-3.15 -2.50,4.10 1.92,4.10 -2.50,-3.15 " />
    <polygon style="fill:#FFFFFF;fill-opacity:1;stroke:#FFFFFF;stroke-width:0.04" points="2.50,3.17 2.50,-4.10 -1.91,-4.10 2.50,3.17 " />
    <g transform="matrix(0.02634552,0,0,0.02634552,-10.368044,-9.5035237)">
      <path style="fill:#000000;;fill-opacity:1;stroke:#000000;stroke-width:1"
   d="m 395.585,492.029 -3.181,-0.12 -3.018,-0.497 -2.801,-0.815 -2.552,-1.072 -2.302,-1.274 -2.222,-1.564 -2.147,-1.903 -2.003,-2.25 -1.785,-2.588 -1.491,-2.896 -1.125,-3.154 -0.7,-3.339 -0.239,-3.436 0.239,-3.436 0.7,-3.339 1.125,-3.154 1.491,-2.896 0.456,-0.661 -23.204,-0.174 -0.021,-20.51 26.396,-0.66 -0.339,-165.67 -1.067,0.132 -3.781,0.574 -3.756,0.675 -3.726,0.775 -3.692,0.873 -3.656,0.97 -3.615,1.063 -3.57,1.156 -3.523,1.245 -3.472,1.331 -3.418,1.416 -3.361,1.498 -3.302,1.575 -3.24,1.651 -3.176,1.724 -3.11,1.792 -3.041,1.858 -2.972,1.92 -2.901,1.98 -2.828,2.035 -2.754,2.087 1.531,-3.948 1.736,-3.925 1.944,-3.888 2.152,-3.833 2.358,-3.764 2.563,-3.679 2.763,-3.577 2.958,-3.459 3.144,-3.326 3.321,-3.178 3.489,-3.017 3.643,-2.843 3.784,-2.656 3.911,-2.461 4.023,-2.255 4.118,-2.044 4.196,-1.827 4.258,-1.606 4.303,-1.383 4.331,-1.161 4.341,-0.939 4.337,-0.722 4.317,-0.507 4.281,-0.299 4.233,-0.098 4.233,0.098 4.282,0.299 4.316,0.507 4.337,0.722 4.342,0.939 4.33,1.161 4.303,1.383 4.258,1.606 4.197,1.827 4.118,2.044 4.022,2.255 3.912,2.461 3.784,2.656 3.643,2.843 3.488,3.017 3.322,3.178 3.144,3.326 2.957,3.459 2.763,3.577 2.563,3.679 2.359,3.764 2.152,3.833 1.943,3.888 1.737,3.925 1.53,3.948 -2.754,-2.087 -2.828,-2.035 -2.9,-1.98 -2.972,-1.92 -3.042,-1.858 -3.109,-1.792 -3.176,-1.724 -3.24,-1.651 -3.302,-1.575 -3.362,-1.498 -3.418,-1.416 -3.472,-1.331 -3.522,-1.245 -3.571,-1.156 -3.614,-1.063 -3.656,-0.97 -3.693,-0.873 -3.726,-0.775 -3.755,-0.675 -3.781,-0.574 -0.803,-0.099 0.242,166.008 25.076,-0.33 0.66,21.79 -23.215,-0.174 1.182,2.025 1.212,2.855 0.819,2.85 0.459,2.781 0.143,2.662 -0.143,2.662 -0.459,2.781 -0.819,2.85 -1.212,2.855 -1.625,2.783 -2.036,2.623 -2.422,2.377 -2.759,2.05 -3.025,1.654 -3.204,1.215 -3.287,0.756 z m -0.383,-14.693 -1.304,-0.05 -1.238,-0.203 -1.149,-0.335 -1.046,-0.439 -0.944,-0.523 -0.912,-0.641 -0.88,-0.78 -0.821,-0.923 -0.732,-1.061 -0.612,-1.188 -0.461,-1.294 -0.287,-1.369 -0.098,-1.409 0.098,-1.409 0.287,-1.369 0.461,-1.294 0.612,-1.188 0.732,-1.061 0.821,-0.923 0.88,-0.78 0.912,-0.641 0.944,-0.523 1.046,-0.439 1.149,-0.335 1.238,-0.203 1.304,-0.05 1.344,0.124 1.348,0.31 1.314,0.498 1.24,0.679 1.132,0.84 0.993,0.975 0.835,1.076 0.667,1.141 0.497,1.171 0.336,1.169 0.188,1.14 0.059,1.092 -0.059,1.092 -0.188,1.14 -0.336,1.169 -0.497,1.171 -0.667,1.141 -0.835,1.076 -0.993,0.975 -1.132,0.84 -1.24,0.679 -1.314,0.498 -1.348,0.31 z"/>
    </g>
  </g>
</svg>