<?xml version="1.0" encoding="UTF-8" standalone="no"?>
<svg
   xmlns:dc="http://purl.org/dc/elements/1.1/"
   xmlns:cc="http://creativecommons.org/ns#"
   xmlns:rdf="http://www.w3.org/1999/02/22-rdf-syntax-ns#"
   xmlns:svg="http://www.w3.org/2000/svg"
   xmlns="http://www.w3.org/2000/svg"
   xmlns:sodipodi="http://sodipodi.sourceforge.net/DTD/sodipodi-0.dtd"
   xmlns:inkscape="http://www.inkscape.org/namespaces/inkscape"
   viewBox="0 0 7.0200191 7.0200191"
   version="1.1"
   xml:space="preserve"
   id="svg25"
   sodipodi:docname="NMKPRH19.svg"
   width="7mm"
   height="7mm"
   style="fill-rule:evenodd;stroke-linecap:round;stroke-linejoin:round"
   inkscape:version="0.92.4 (5da689c313, 2019-01-14)"><metadata
   id="metadata29"><rdf:RDF><cc:Work
       rdf:about=""><dc:format>image/svg+xml</dc:format><dc:type
         rdf:resource="http://purl.org/dc/dcmitype/StillImage" /><dc:title></dc:title></cc:Work></rdf:RDF></metadata><sodipodi:namedview
   pagecolor="#ffffff"
   bordercolor="#666666"
   borderopacity="1"
   objecttolerance="10"
   gridtolerance="10"
   guidetolerance="10"
   inkscape:pageopacity="0"
   inkscape:pageshadow="2"
   inkscape:window-width="1247"
   inkscape:window-height="674"
   id="namedview27"
   showgrid="false"
   units="mm"
   inkscape:zoom="16"
   inkscape:cx="15.341636"
   inkscape:cy="12.118101"
   inkscape:window-x="4535"
   inkscape:window-y="640"
   inkscape:window-maximized="0"
   inkscape:current-layer="g23" />
<defs
   id="defs5">
<clipPath
   id="clipId0">
<path
   d="M 0,768 H 1024 V 0 H 0 Z"
   id="path2"
   inkscape:connector-curvature="0" />
</clipPath>
</defs>
<g
   clip-path="url(#clipId0)"
   id="g7"
   style="fill:none;stroke:#000000;stroke-width:0.1"
   transform="translate(0,-741.54328)" />
<g
   clip-path="url(#clipId0)"
   id="g11"
   style="fill:#ff3939;stroke:#ff3939;stroke-width:0.25"
   transform="matrix(0.02660523,0,0,0.02660523,-6.2503274,-9.3878835)">
<polygon
   points="498.136,616.035 235.811,616.035 235.811,353.71 498.136,353.71 "
   id="polygon9" />
</g>
<g
   clip-path="url(#clipId0)"
   id="g15"
   style="fill:none;stroke:#000000;stroke-width:1.50595729;stroke-miterlimit:4;stroke-dasharray:none"
   transform="matrix(0.02660523,0,0,0.02660523,-6.2503274,-9.3878835)">
<polyline
   points="235.811,616.035 235.811,353.71 498.136,353.71 498.136,616.035 235.811,616.035 "
   id="polyline13"
   style="stroke-width:1.50595729;stroke-miterlimit:4;stroke-dasharray:none" />
</g>
<g
   clip-path="url(#clipId0)"
   id="g23"
   style="fill:#00ff00;stroke:#000000;stroke-width:0.25;fill-opacity:1"
   transform="matrix(0.02660523,0,0,0.02660523,-6.2503274,-9.3878835)">
<path
   d="M 461.145,552.891 V 390.399 H 300.371 v 0 z"
   id="path17"
   inkscape:connector-curvature="0"
   style="fill:#ffffff;fill-opacity:1" />
<path
   d="m 271.962,417.046 v 163.141 h 163.142 v 0 z"
   id="path19"
   inkscape:connector-curvature="0"
   style="fill:#ffffff;fill-opacity:1" />
<path
   d="m 342.22,580.187 v -8.589 h 9.26 v -5.036 l -7.85,-21.551 -8.858,-4.431 -10.467,-2.82 -2.818,-3.424 -3.422,-8.863 -6.442,-7.251 -3.422,-8.66 2.296,-4.337 0.461,-2.828 -4.536,-2.96 -2.605,-5.103 0.115,-4.604 3.681,-4.488 3.68,-0.691 4.371,1.381 2.416,3.108 0.92,3.913 -0.805,5.294 -2.07,2.417 0.115,1.727 38.419,0.345 7.362,-4.374 8.857,-9.615 5.443,-5.908 12.987,-47.683 8.972,-35.91 10.813,21.523 8.397,26.472 6.902,26.242 3.4,18.954 1.611,16.689 -1.151,2.877 -7.822,9.438 -19.065,18.286 -18.06,14.157 -15.795,10.854 -1.035,2.187 h 4.371 v 5.525 h 9.317 v 7.737 z m 27.775,-69.917 -5.259,-4.933 7.428,-7.234 z m -8.653,50.461 -6.672,-23.825 -1.61,-2.072 -5.061,-2.877 -6.902,-3.338 -4.256,-2.071 -4.026,-7.251 -3.681,-6.331 2.531,-1.266 4.824,0.115 23.12,-1.035 7.937,7.481 -2.415,17.494 z"
   id="path21"
   inkscape:connector-curvature="0"
   style="fill:#000000;fill-opacity:1" />
</g>
</svg>