<?xml version="1.0" encoding="UTF-8" standalone="no"?>
<svg
   xmlns:iho="http://www.iho.int/SVGMetadata"
   xmlns:dc="http://purl.org/dc/elements/1.1/"
   xmlns:cc="http://creativecommons.org/ns#"
   xmlns:rdf="http://www.w3.org/1999/02/22-rdf-syntax-ns#"
   xmlns:svg="http://www.w3.org/2000/svg"
   xmlns="http://www.w3.org/2000/svg"
   xmlns:sodipodi="http://sodipodi.sourceforge.net/DTD/sodipodi-0.dtd"
   xmlns:inkscape="http://www.inkscape.org/namespaces/inkscape"
   version="1.2"
   style="shape-rendering:geometricPrecision; fill-rule:evenodd;"
   width="1.70mm"
   height="5.52mm"
   viewBox="-0.61 -5.53 1.72 5.54"
   id="svg18"
   sodipodi:docname="TOPMA117.svg"
   inkscape:version="0.92.4 (5da689c313, 2019-01-14)">
  <defs
     id="defs22" />
  <sodipodi:namedview
     pagecolor="#ffffff"
     bordercolor="#666666"
     borderopacity="1"
     objecttolerance="10"
     gridtolerance="10"
     guidetolerance="10"
     inkscape:pageopacity="0"
     inkscape:pageshadow="2"
     inkscape:window-width="1294"
     inkscape:window-height="645"
     id="namedview20"
     showgrid="false"
     inkscape:zoom="45.247585"
     inkscape:cx="2.1046155"
     inkscape:cy="17.086842"
     inkscape:window-x="4866"
     inkscape:window-y="498"
     inkscape:window-maximized="0"
     inkscape:current-layer="g16" />
  <title
     id="title2">TOPMA117</title>
  <desc
     id="desc4">buoy top mark, red-green sphere</desc>
  <metadata
     id="metadata6">
    <iho:S100SVG>
      <iho:Description
         iho:publisher="IEHG"
         iho:creationDate="2015-07-29"
         iho:source=""
         iho:format="IENC signs, Europe, SVG"
         iho:version="0.1" />
    </iho:S100SVG>
    <rdf:RDF>
      <cc:Work
         rdf:about="">
        <dc:format>image/svg+xml</dc:format>
        <dc:type
           rdf:resource="http://purl.org/dc/dcmitype/StillImage" />
        <dc:title>TOPMA117</dc:title>
      </cc:Work>
    </rdf:RDF>
  </metadata>
  <g
     id="g16">
    <ellipse
       cx="0.25"
       cy="-4.67"
       rx="0.85"
       ry="0.85"
       style="fill:#000000;fill-opacity:1;stroke:#000000;stroke-width:0.03988671;stroke-miterlimit:4;stroke-dasharray:none"
       id="ellipse14" />
    <ellipse
       cx="0.25"
       cy="-4.67"
       rx="0.85"
       ry="0.85"
       style="fill:#FF3939;fill-opacity:1;stroke:none;stroke-width:0;stroke-miterlimit:4;stroke-dasharray:none"
       id="ellipse8" />
    <polygon
       style="fill:#49FF49;fill-opacity:1;stroke:none;stroke-width:0;stroke-miterlimit:4;stroke-dasharray:none"
       points="0.98,-4.24 -0.48,-5.10 -0.52,-5.03 -0.55,-4.95 -0.58,-4.87 -0.59,-4.79 -0.60,-4.71 -0.60,-4.62 -0.59,-4.54 -0.58,-4.46 -0.55,-4.38 -0.52,-4.31 -0.48,-4.23 -0.44,-4.17 -0.38,-4.10 -0.33,-4.04 -0.26,-3.99 -0.20,-3.94 -0.12,-3.90 -0.05,-3.87 0.03,-3.85 0.11,-3.83 0.19,-3.82 0.28,-3.82 0.36,-3.83 0.44,-3.84 0.52,-3.86 0.60,-3.89 0.67,-3.93 0.74,-3.97 0.80,-4.02 0.86,-4.08 0.92,-4.14 0.97,-4.21 0.98,-4.24 "
       id="polygon10" />
    <polyline
       style="fill:none;fill-opacity:1;stroke:#000000;stroke-width:0.04"
       points="0.00,-3.60 0.05,-3.84 "
       id="polyline12" />
  </g>
</svg>
