<?xml version="1.0" encoding="UTF-8"?>
<?xml-stylesheet type='text/css' href='S401Style.css'?>
<svg version="1.2" baseProfile="tiny" style="shape-rendering:geometricPrecision; fill-rule:evenodd;" width="15.50mm" height="14.45mm" viewBox="-7.61 -10.52 15.52 14.47" xmlns="http://www.w3.org/2000/svg">
  <title>BOYINL02M</title>
  <desc>river buoy left-hand side of the fairway (2.B of CEVNI) - off position - missing - text area -d</desc>
  <metadata />
  <g>
    <path class="fMIDGN sBLACK" style="stroke-width:0.12" d="M -1.85,0.00 L 1.85,0.00 L 1.85,-0.60 L 1.34,-0.59 L 0.00,-2.71 L -1.34,-0.57 L -1.85,-0.57 L -1.85,0.00 Z" />
    <path class="f0 sBLACK" style="stroke-width:0.28" d="M 2.20,-2.14 L 3.23,-0.67 L 2.05,1.01 " />
    <path class="f0 sBLACK" style="stroke-width:0.28" d="M 1.21,2.20 L 0.00,3.94 L -1.16,2.28 " />
    <path class="f0 sBLACK" style="stroke-width:0.28" d="M -1.27,-3.47 L 0.00,-5.28 L 1.25,-3.49 " />
    <path class="f0 sBLACK" style="stroke-width:0.28" d="M -2.12,0.91 L -3.23,-0.67 L -2.16,-2.19 " />
    <path class="f0 sBLACK" style="stroke-width:0.28" d="M -1.10,-3.36 L 0.00,-4.93 L 1.09,-3.38 " />
    <path class="f0 sBLACK" style="stroke-width:0.28" d="M -1.96,0.80 L -2.99,-0.67 L -2.00,-2.08 " />
    <path class="f0 sBLACK" style="stroke-width:0.28" d="M 2.03,-2.02 L 2.98,-0.67 L 1.89,0.89 " />
    <path class="f0 sBLACK" style="stroke-width:0.28" d="M 1.05,2.09 L 0.00,3.59 L -1.00,2.17 " />
    <path class="fBLACK sBLACK" style="stroke-width:0.04" d="M -5.95,-9.45 L -6.00,-9.49 L -6.05,-9.53 L -6.10,-9.56 L -6.16,-9.59 L -6.24,-9.61 L -6.32,-9.63 L -6.41,-9.64 L -6.49,-9.64 L -6.54,-9.63 L -6.60,-9.63 L -6.65,-9.62 L -6.70,-9.61 L -6.75,-9.59 L -6.80,-9.58 L -6.85,-9.55 L -6.90,-9.53 L -6.94,-9.50 L -6.98,-9.47 L -7.03,-9.44 L -7.06,-9.40 L -7.10,-9.37 L -7.14,-9.33 L -7.17,-9.28 L -7.20,-9.24 L -7.20,-9.58 L -7.60,-9.58 L -7.60,-7.09 L -7.18,-7.09 L -7.18,-8.56 L -7.18,-8.62 L -7.17,-8.69 L -7.17,-8.74 L -7.16,-8.79 L -7.15,-8.83 L -7.13,-8.88 L -7.11,-8.93 L -7.09,-8.97 L -7.07,-9.01 L -7.04,-9.06 L -6.99,-9.10 L -6.94,-9.15 L -6.89,-9.19 L -6.83,-9.22 L -6.77,-9.24 L -6.70,-9.26 L -6.64,-9.27 L -6.57,-9.27 L -6.51,-9.27 L -6.46,-9.26 L -6.41,-9.25 L -6.37,-9.24 L -6.33,-9.21 L -6.28,-9.18 L -6.25,-9.15 L -5.95,-9.45 Z" />
    <path class="fBLACK sBLACK" style="stroke-width:0.04" d="M -6.25,-9.15 L -6.22,-9.11 L -6.19,-9.07 L -6.17,-9.00 L -6.15,-8.92 L -6.14,-8.84 L -6.14,-8.77 L -6.14,-7.09 L -5.71,-7.09 L -5.71,-8.56 L -5.71,-8.63 L -5.70,-8.69 L -5.69,-8.75 L -5.68,-8.82 L -5.67,-8.86 L -5.65,-8.91 L -5.64,-8.95 L -5.61,-9.00 L -5.59,-9.04 L -5.56,-9.07 L -5.53,-9.11 L -5.49,-9.14 L -5.45,-9.17 L -5.41,-9.20 L -5.36,-9.22 L -5.31,-9.24 L -5.26,-9.25 L -5.21,-9.26 L -5.16,-9.27 L -5.10,-9.27 L -5.04,-9.27 L -4.97,-9.25 L -4.91,-9.23 L -4.85,-9.20 L -4.82,-9.18 L -4.79,-9.16 L -4.76,-9.13 L -4.74,-9.10 L -4.72,-9.07 L -4.71,-9.03 L -4.69,-9.00 L -4.69,-8.96 L -4.67,-8.87 L -4.67,-8.79 L -4.67,-8.70 L -4.67,-8.62 L -4.67,-7.09 L -4.25,-7.09 L -4.25,-8.58 L -4.25,-8.70 L -4.25,-8.82 L -4.26,-8.94 L -4.27,-9.06 L -4.27,-9.10 L -4.28,-9.15 L -4.30,-9.19 L -4.31,-9.23 L -4.33,-9.27 L -4.35,-9.31 L -4.38,-9.35 L -4.41,-9.39 L -4.44,-9.42 L -4.47,-9.45 L -4.50,-9.48 L -4.54,-9.51 L -4.58,-9.53 L -4.62,-9.55 L -4.66,-9.57 L -4.70,-9.59 L -4.78,-9.61 L -4.87,-9.63 L -4.95,-9.63 L -5.04,-9.64 L -5.09,-9.63 L -5.15,-9.63 L -5.20,-9.62 L -5.26,-9.61 L -5.31,-9.60 L -5.36,-9.58 L -5.41,-9.56 L -5.47,-9.54 L -5.51,-9.51 L -5.56,-9.48 L -5.60,-9.45 L -5.64,-9.42 L -5.68,-9.38 L -5.72,-9.34 L -5.76,-9.30 L -5.79,-9.26 L -5.83,-9.31 L -5.86,-9.36 L -5.90,-9.41 L -5.95,-9.45 L -6.25,-9.15 Z" />
    <path class="fBLACK sBLACK" style="stroke-width:0.04" d="M -3.63,-10.51 L -3.63,-10.03 L -3.21,-10.03 L -3.21,-10.51 L -3.63,-10.51 Z" />
    <path class="fBLACK sBLACK" style="stroke-width:0.04" d="M -3.63,-9.58 L -3.63,-7.09 L -3.21,-7.09 L -3.21,-9.58 L -3.63,-9.58 Z" />
    <path class="fBLACK sBLACK" style="stroke-width:0.04" d="M -2.17,-8.75 L -2.19,-8.77 L -2.21,-8.80 L -2.23,-8.82 L -2.24,-8.85 L -2.25,-8.88 L -2.26,-8.91 L -2.26,-8.95 L -2.26,-8.99 L -2.25,-9.03 L -2.24,-9.06 L -2.22,-9.10 L -2.20,-9.14 L -2.17,-9.17 L -2.14,-9.19 L -2.11,-9.22 L -2.07,-9.24 L -2.03,-9.26 L -1.99,-9.27 L -1.94,-9.28 L -1.90,-9.29 L -1.85,-9.30 L -1.81,-9.30 L -1.76,-9.30 L -1.67,-9.30 L -1.58,-9.28 L -1.49,-9.26 L -1.41,-9.23 L -1.37,-9.21 L -1.34,-9.19 L -1.31,-9.17 L -1.28,-9.14 L -1.26,-9.12 L -1.23,-9.08 L -1.21,-9.05 L -1.20,-9.02 L -1.18,-8.95 L -1.17,-8.88 L -0.76,-8.88 L -0.76,-8.95 L -0.77,-9.01 L -0.78,-9.07 L -0.80,-9.14 L -0.83,-9.20 L -0.86,-9.27 L -0.91,-9.33 L -0.96,-9.38 L -1.01,-9.43 L -1.07,-9.48 L -1.13,-9.51 L -1.20,-9.54 L -1.26,-9.57 L -1.33,-9.59 L -1.39,-9.61 L -1.46,-9.63 L -1.53,-9.64 L -1.60,-9.65 L -1.67,-9.65 L -1.74,-9.65 L -1.81,-9.65 L -1.88,-9.65 L -1.95,-9.64 L -2.02,-9.63 L -2.09,-9.62 L -2.15,-9.60 L -2.22,-9.57 L -2.29,-9.54 L -2.33,-9.52 L -2.37,-9.50 L -2.41,-9.47 L -2.45,-9.44 L -2.48,-9.41 L -2.51,-9.37 L -2.54,-9.34 L -2.57,-9.30 L -2.60,-9.26 L -2.62,-9.21 L -2.63,-9.17 L -2.65,-9.13 L -2.66,-9.08 L -2.67,-9.03 L -2.68,-8.98 L -2.68,-8.94 L -2.68,-8.86 L -2.67,-8.79 L -2.65,-8.73 L -2.63,-8.66 L -2.61,-8.61 L -2.57,-8.55 L -2.53,-8.50 L -2.49,-8.46 L -2.44,-8.41 L -2.38,-8.38 L -2.17,-8.75 Z" />
    <path class="fBLACK sBLACK" style="stroke-width:0.04" d="M -1.73,-7.02 L -1.62,-7.02 L -1.51,-7.03 L -1.41,-7.04 L -1.31,-7.07 L -1.21,-7.10 L -1.12,-7.13 L -1.07,-7.16 L -1.03,-7.19 L -0.98,-7.22 L -0.94,-7.25 L -0.90,-7.29 L -0.86,-7.33 L -0.83,-7.38 L -0.80,-7.42 L -0.77,-7.47 L -0.75,-7.52 L -0.73,-7.57 L -0.71,-7.62 L -0.70,-7.67 L -0.69,-7.73 L -0.69,-7.78 L -0.69,-7.84 L -0.69,-7.93 L -0.71,-8.01 L -0.72,-8.06 L -0.74,-8.11 L -0.76,-8.16 L -0.79,-8.20 L -0.82,-8.25 L -0.85,-8.28 L -0.89,-8.32 L -0.93,-8.35 L -1.00,-8.39 L -1.07,-8.43 L -1.14,-8.46 L -1.21,-8.48 L -1.45,-8.55 L -1.86,-8.64 L -1.94,-8.66 L -2.01,-8.68 L -2.07,-8.70 L -2.14,-8.74 L -2.17,-8.75 L -2.38,-8.38 L -2.28,-8.33 L -2.18,-8.30 L -2.08,-8.26 L -1.97,-8.24 L -1.50,-8.12 L -1.35,-8.08 L -1.31,-8.07 L -1.28,-8.05 L -1.24,-8.03 L -1.21,-8.01 L -1.19,-7.99 L -1.17,-7.97 L -1.15,-7.94 L -1.14,-7.92 L -1.13,-7.89 L -1.12,-7.86 L -1.11,-7.83 L -1.11,-7.81 L -1.11,-7.76 L -1.12,-7.71 L -1.13,-7.67 L -1.15,-7.63 L -1.17,-7.59 L -1.20,-7.56 L -1.23,-7.52 L -1.26,-7.50 L -1.30,-7.47 L -1.34,-7.45 L -1.43,-7.42 L -1.52,-7.40 L -1.61,-7.39 L -1.70,-7.39 L -1.73,-7.02 Z" />
    <path class="fBLACK sBLACK" style="stroke-width:0.04" d="M -1.70,-7.39 L -1.77,-7.39 L -1.83,-7.39 L -1.90,-7.40 L -1.96,-7.41 L -2.01,-7.43 L -2.07,-7.46 L -2.12,-7.49 L -2.17,-7.52 L -2.21,-7.57 L -2.25,-7.61 L -2.28,-7.66 L -2.30,-7.72 L -2.32,-7.81 L -2.34,-7.90 L -2.75,-7.90 L -2.75,-7.84 L -2.74,-7.79 L -2.74,-7.73 L -2.73,-7.68 L -2.71,-7.63 L -2.70,-7.57 L -2.68,-7.52 L -2.65,-7.47 L -2.61,-7.40 L -2.56,-7.33 L -2.51,-7.27 L -2.44,-7.21 L -2.38,-7.17 L -2.30,-7.13 L -2.23,-7.09 L -2.15,-7.07 L -2.04,-7.04 L -1.94,-7.03 L -1.83,-7.02 L -1.73,-7.02 L -1.70,-7.39 Z" />
    <path class="fBLACK sBLACK" style="stroke-width:0.04" d="M 0.21,-8.75 L 0.19,-8.77 L 0.16,-8.80 L 0.15,-8.82 L 0.13,-8.85 L 0.13,-8.88 L 0.12,-8.91 L 0.12,-8.95 L 0.12,-8.99 L 0.13,-9.03 L 0.14,-9.06 L 0.16,-9.10 L 0.18,-9.14 L 0.20,-9.17 L 0.23,-9.19 L 0.27,-9.22 L 0.31,-9.24 L 0.35,-9.26 L 0.39,-9.27 L 0.43,-9.28 L 0.48,-9.29 L 0.52,-9.30 L 0.57,-9.30 L 0.61,-9.30 L 0.70,-9.30 L 0.80,-9.28 L 0.88,-9.26 L 0.97,-9.23 L 1.00,-9.21 L 1.04,-9.19 L 1.07,-9.17 L 1.09,-9.14 L 1.12,-9.12 L 1.14,-9.08 L 1.16,-9.05 L 1.18,-9.02 L 1.20,-8.95 L 1.21,-8.88 L 1.62,-8.88 L 1.62,-8.95 L 1.61,-9.01 L 1.60,-9.07 L 1.58,-9.14 L 1.55,-9.20 L 1.51,-9.27 L 1.47,-9.33 L 1.42,-9.38 L 1.37,-9.43 L 1.31,-9.48 L 1.25,-9.51 L 1.18,-9.54 L 1.12,-9.57 L 1.05,-9.59 L 0.98,-9.61 L 0.92,-9.63 L 0.85,-9.64 L 0.78,-9.65 L 0.71,-9.65 L 0.64,-9.65 L 0.57,-9.65 L 0.50,-9.65 L 0.43,-9.64 L 0.36,-9.63 L 0.29,-9.62 L 0.22,-9.60 L 0.16,-9.57 L 0.09,-9.54 L 0.05,-9.52 L 0.01,-9.50 L -0.03,-9.47 L -0.07,-9.44 L -0.10,-9.41 L -0.14,-9.37 L -0.17,-9.34 L -0.19,-9.30 L -0.22,-9.26 L -0.24,-9.21 L -0.26,-9.17 L -0.27,-9.13 L -0.28,-9.08 L -0.29,-9.03 L -0.30,-8.98 L -0.30,-8.94 L -0.30,-8.86 L -0.29,-8.79 L -0.28,-8.73 L -0.26,-8.66 L -0.23,-8.61 L -0.20,-8.55 L -0.15,-8.50 L -0.11,-8.46 L -0.06,-8.41 L 0.00,-8.38 L 0.21,-8.75 Z" />
    <path class="fBLACK sBLACK" style="stroke-width:0.04" d="M 0.65,-7.02 L 0.76,-7.02 L 0.87,-7.03 L 0.97,-7.04 L 1.07,-7.07 L 1.16,-7.10 L 1.25,-7.13 L 1.30,-7.16 L 1.35,-7.19 L 1.40,-7.22 L 1.44,-7.25 L 1.48,-7.29 L 1.51,-7.33 L 1.55,-7.38 L 1.58,-7.42 L 1.60,-7.47 L 1.63,-7.52 L 1.65,-7.57 L 1.66,-7.62 L 1.68,-7.67 L 1.68,-7.73 L 1.69,-7.78 L 1.69,-7.84 L 1.68,-7.93 L 1.67,-8.01 L 1.66,-8.06 L 1.64,-8.11 L 1.62,-8.16 L 1.59,-8.20 L 1.56,-8.25 L 1.52,-8.28 L 1.49,-8.32 L 1.45,-8.35 L 1.38,-8.39 L 1.31,-8.43 L 1.24,-8.46 L 1.16,-8.48 L 0.92,-8.55 L 0.51,-8.64 L 0.44,-8.66 L 0.37,-8.68 L 0.30,-8.70 L 0.24,-8.74 L 0.21,-8.75 L 0.00,-8.38 L 0.10,-8.33 L 0.20,-8.30 L 0.30,-8.26 L 0.41,-8.24 L 0.88,-8.12 L 1.03,-8.08 L 1.07,-8.07 L 1.10,-8.05 L 1.13,-8.03 L 1.16,-8.01 L 1.19,-7.99 L 1.21,-7.97 L 1.22,-7.94 L 1.24,-7.92 L 1.25,-7.89 L 1.26,-7.86 L 1.26,-7.83 L 1.27,-7.81 L 1.26,-7.76 L 1.25,-7.71 L 1.24,-7.67 L 1.23,-7.63 L 1.20,-7.59 L 1.18,-7.56 L 1.15,-7.52 L 1.11,-7.50 L 1.08,-7.47 L 1.04,-7.45 L 0.95,-7.42 L 0.86,-7.40 L 0.77,-7.39 L 0.68,-7.39 L 0.65,-7.02 Z" />
    <path class="fBLACK sBLACK" style="stroke-width:0.04" d="M 0.68,-7.39 L 0.61,-7.39 L 0.55,-7.39 L 0.48,-7.40 L 0.42,-7.41 L 0.36,-7.43 L 0.31,-7.46 L 0.26,-7.49 L 0.21,-7.52 L 0.17,-7.57 L 0.13,-7.61 L 0.10,-7.66 L 0.08,-7.72 L 0.05,-7.81 L 0.04,-7.90 L -0.37,-7.90 L -0.37,-7.84 L -0.37,-7.79 L -0.36,-7.73 L -0.35,-7.68 L -0.33,-7.63 L -0.32,-7.57 L -0.30,-7.52 L -0.28,-7.47 L -0.23,-7.40 L -0.18,-7.33 L -0.13,-7.27 L -0.07,-7.21 L 0.00,-7.17 L 0.07,-7.13 L 0.15,-7.09 L 0.23,-7.07 L 0.33,-7.04 L 0.44,-7.03 L 0.54,-7.02 L 0.65,-7.02 L 0.68,-7.39 Z" />
    <path class="fBLACK sBLACK" style="stroke-width:0.04" d="M 2.18,-10.51 L 2.18,-10.03 L 2.60,-10.03 L 2.60,-10.51 L 2.18,-10.51 Z" />
    <path class="fBLACK sBLACK" style="stroke-width:0.04" d="M 2.18,-9.58 L 2.18,-7.09 L 2.60,-7.09 L 2.60,-9.58 L 2.18,-9.58 Z" />
    <path class="fBLACK sBLACK" style="stroke-width:0.04" d="M 5.25,-8.58 L 5.25,-8.70 L 5.25,-8.82 L 5.24,-8.94 L 5.23,-9.06 L 5.22,-9.12 L 5.20,-9.19 L 5.18,-9.24 L 5.15,-9.30 L 5.11,-9.35 L 5.07,-9.40 L 5.03,-9.44 L 4.98,-9.48 L 4.93,-9.51 L 4.88,-9.54 L 4.82,-9.57 L 4.76,-9.59 L 4.67,-9.61 L 4.58,-9.63 L 4.49,-9.63 L 4.39,-9.64 L 4.30,-9.63 L 4.21,-9.62 L 4.12,-9.60 L 4.04,-9.57 L 3.97,-9.54 L 3.91,-9.51 L 3.86,-9.47 L 3.81,-9.43 L 3.76,-9.39 L 3.71,-9.34 L 3.67,-9.29 L 3.63,-9.23 L 3.63,-9.58 L 3.23,-9.58 L 3.23,-7.09 L 3.65,-7.09 L 3.65,-8.51 L 3.65,-8.60 L 3.65,-8.68 L 3.66,-8.75 L 3.68,-8.81 L 3.70,-8.87 L 3.73,-8.93 L 3.76,-8.99 L 3.80,-9.04 L 3.85,-9.09 L 3.90,-9.13 L 3.95,-9.16 L 4.00,-9.19 L 4.06,-9.22 L 4.11,-9.24 L 4.17,-9.25 L 4.23,-9.26 L 4.29,-9.27 L 4.35,-9.27 L 4.40,-9.27 L 4.44,-9.27 L 4.48,-9.26 L 4.52,-9.25 L 4.56,-9.24 L 4.59,-9.22 L 4.63,-9.21 L 4.66,-9.18 L 4.69,-9.16 L 4.72,-9.13 L 4.74,-9.10 L 4.76,-9.07 L 4.79,-9.00 L 4.82,-8.92 L 4.83,-8.84 L 4.83,-8.77 L 4.83,-7.09 L 5.25,-7.09 L 5.25,-8.58 Z" />
    <path class="fBLACK sBLACK" style="stroke-width:0.04" d="M 7.90,-7.14 L 7.90,-9.58 L 7.50,-9.58 L 7.50,-9.30 L 7.43,-9.38 L 7.36,-9.45 L 7.28,-9.51 L 7.20,-9.56 L 7.15,-9.59 L 7.10,-9.61 L 7.04,-9.63 L 6.98,-9.64 L 6.93,-9.65 L 6.87,-9.66 L 6.81,-9.66 L 6.75,-9.65 L 6.68,-9.65 L 6.61,-9.64 L 6.55,-9.63 L 6.48,-9.61 L 6.41,-9.59 L 6.35,-9.56 L 6.29,-9.53 L 6.23,-9.49 L 6.16,-9.43 L 6.10,-9.37 L 6.04,-9.31 L 5.99,-9.24 L 5.94,-9.16 L 5.90,-9.09 L 5.86,-9.01 L 5.83,-8.93 L 5.81,-8.86 L 5.79,-8.78 L 5.78,-8.71 L 5.76,-8.64 L 5.75,-8.56 L 5.75,-8.49 L 5.74,-8.42 L 5.74,-8.34 L 5.74,-8.27 L 6.18,-8.30 L 6.18,-8.37 L 6.18,-8.44 L 6.18,-8.51 L 6.19,-8.57 L 6.20,-8.64 L 6.22,-8.71 L 6.23,-8.77 L 6.25,-8.84 L 6.28,-8.90 L 6.30,-8.95 L 6.33,-9.00 L 6.35,-9.04 L 6.39,-9.08 L 6.42,-9.12 L 6.46,-9.15 L 6.50,-9.18 L 6.54,-9.21 L 6.61,-9.24 L 6.69,-9.26 L 6.76,-9.27 L 6.84,-9.28 L 6.91,-9.28 L 6.99,-9.27 L 7.06,-9.25 L 7.13,-9.22 L 7.18,-9.19 L 7.22,-9.16 L 7.26,-9.13 L 7.30,-9.09 L 7.33,-9.04 L 7.36,-9.00 L 7.39,-8.95 L 7.42,-8.90 L 7.45,-8.82 L 7.47,-8.74 L 7.49,-8.65 L 7.50,-8.57 L 7.51,-8.45 L 7.51,-8.33 L 7.90,-7.14 Z" />
    <path class="fBLACK sBLACK" style="stroke-width:0.04" d="M 7.51,-8.23 L 7.50,-8.13 L 7.49,-8.03 L 7.47,-7.93 L 7.45,-7.84 L 7.42,-7.76 L 7.39,-7.68 L 7.34,-7.61 L 7.29,-7.56 L 7.25,-7.51 L 7.19,-7.47 L 7.13,-7.44 L 7.07,-7.41 L 7.00,-7.40 L 6.93,-7.39 L 6.86,-7.39 L 6.79,-7.39 L 6.71,-7.40 L 6.64,-7.42 L 6.56,-7.45 L 6.52,-7.48 L 6.47,-7.51 L 6.43,-7.55 L 6.39,-7.59 L 6.36,-7.63 L 6.32,-7.68 L 6.30,-7.73 L 6.27,-7.78 L 6.25,-7.85 L 6.23,-7.92 L 6.21,-8.00 L 6.19,-8.07 L 6.18,-8.14 L 6.18,-8.22 L 6.18,-8.30 L 5.74,-8.27 L 5.75,-8.19 L 5.75,-8.11 L 5.76,-8.04 L 5.78,-7.94 L 5.80,-7.85 L 5.83,-7.76 L 5.86,-7.67 L 5.90,-7.58 L 5.95,-7.50 L 6.01,-7.42 L 6.06,-7.34 L 6.10,-7.30 L 6.13,-7.26 L 6.17,-7.23 L 6.21,-7.20 L 6.25,-7.17 L 6.30,-7.14 L 6.34,-7.11 L 6.39,-7.09 L 6.48,-7.06 L 6.58,-7.03 L 6.69,-7.02 L 6.79,-7.01 L 6.84,-7.01 L 6.89,-7.02 L 6.94,-7.02 L 6.99,-7.03 L 7.04,-7.05 L 7.09,-7.06 L 7.14,-7.08 L 7.18,-7.10 L 7.23,-7.12 L 7.27,-7.15 L 7.31,-7.18 L 7.36,-7.21 L 7.39,-7.24 L 7.43,-7.28 L 7.46,-7.32 L 7.50,-7.36 L 7.50,-7.05 L 7.90,-7.14 L 7.51,-8.33 L 7.51,-8.23 Z" />
    <path class="fBLACK sBLACK" style="stroke-width:0.04" d="M 7.50,-7.05 L 7.50,-6.94 L 7.49,-6.87 L 7.48,-6.80 L 7.46,-6.73 L 7.42,-6.66 L 7.40,-6.63 L 7.37,-6.59 L 7.34,-6.56 L 7.30,-6.53 L 7.27,-6.51 L 7.23,-6.48 L 7.19,-6.47 L 7.14,-6.45 L 7.07,-6.43 L 6.99,-6.42 L 6.91,-6.41 L 6.83,-6.41 L 6.74,-6.41 L 6.64,-6.42 L 6.58,-6.43 L 6.52,-6.45 L 6.46,-6.47 L 6.40,-6.50 L 6.36,-6.52 L 6.33,-6.55 L 6.30,-6.59 L 6.28,-6.62 L 6.26,-6.67 L 6.25,-6.71 L 6.24,-6.76 L 6.24,-6.80 L 5.84,-6.80 L 5.84,-6.71 L 5.84,-6.66 L 5.85,-6.61 L 5.86,-6.57 L 5.88,-6.52 L 5.90,-6.47 L 5.93,-6.43 L 5.96,-6.39 L 5.99,-6.35 L 6.03,-6.31 L 6.08,-6.27 L 6.13,-6.23 L 6.18,-6.19 L 6.24,-6.16 L 6.29,-6.14 L 6.35,-6.12 L 6.41,-6.10 L 6.53,-6.08 L 6.65,-6.06 L 6.76,-6.05 L 6.88,-6.06 L 7.00,-6.06 L 7.12,-6.08 L 7.24,-6.10 L 7.35,-6.14 L 7.40,-6.16 L 7.46,-6.18 L 7.50,-6.21 L 7.55,-6.24 L 7.59,-6.27 L 7.64,-6.31 L 7.68,-6.35 L 7.71,-6.39 L 7.75,-6.43 L 7.78,-6.48 L 7.80,-6.53 L 7.83,-6.58 L 7.85,-6.63 L 7.86,-6.68 L 7.88,-6.74 L 7.89,-6.79 L 7.90,-6.97 L 7.90,-7.14 L 7.50,-7.05 Z" />
    <circle class="pivotPoint layout" fill="none" cx="0" cy="0" r="0.2" />
  </g>
</svg>