<?xml version="1.0" encoding="UTF-8"?>
<?xml-stylesheet type='text/css' href='S401Style.css'?>
<svg version="1.2" baseProfile="tiny" style="shape-rendering:geometricPrecision; fill-rule:evenodd;" width="6.14mm" height="8.76mm" viewBox="-3.08 -5.06 6.16 8.78" xmlns="http://www.w3.org/2000/svg">
  <title>BOYINL02V</title>
  <desc>river buoy left-hand side of the fairway (2.B of CEVNI) - virtual</desc>
  <metadata />
  <g>
    <path class="fMIDGN sBLACK" style="stroke-width:0.12" d="M -1.85,0.00 L 1.85,0.00 L 1.85,-0.60 L 1.34,-0.59 L 0.00,-2.71 L -1.34,-0.57 L -1.85,-0.57 L -1.85,0.00 Z" />
    <path class="f0 sBLACK" style="stroke-width:0.24" d="M -2.01,0.84 L -3.07,-0.67 L -2.06,-2.12 " />
    <path class="f0 sBLACK" style="stroke-width:0.24" d="M 1.11,2.13 L 0.00,3.71 L -1.05,2.21 " />
    <path class="f0 sBLACK" style="stroke-width:0.24" d="M -1.16,-3.40 L 0.00,-5.05 L 1.14,-3.42 " />
    <path class="f0 sBLACK" style="stroke-width:0.24" d="M 2.09,-2.06 L 3.07,-0.67 L 1.94,0.93 " />
    <path class="f0 sBLACK" style="stroke-width:0.24" d="M -1.00,-3.28 L 0.00,-4.70 L 0.98,-3.30 " />
    <path class="f0 sBLACK" style="stroke-width:0.24" d="M -1.85,0.72 L -2.83,-0.67 L -1.89,-2.00 " />
    <path class="f0 sBLACK" style="stroke-width:0.24" d="M 1.93,-1.95 L 2.82,-0.67 L 1.78,0.82 " />
    <path class="f0 sBLACK" style="stroke-width:0.24" d="M 0.94,2.01 L 0.00,3.36 L -0.89,2.10 " />
    <circle class="pivotPoint layout" fill="none" cx="0" cy="0" r="0.2" />
  </g>
</svg>