<?xml version="1.0" encoding="UTF-8"?>
<?xml-stylesheet type='text/css' href='S401Style.css'?>
<svg version="1.2" baseProfile="tiny" style="shape-rendering:geometricPrecision; fill-rule:evenodd;" width="15.50mm" height="16.29mm" viewBox="-7.60 -12.61 15.52 16.31" xmlns="http://www.w3.org/2000/svg">
  <title>BOYINL03MR</title>
  <desc>river buoy bifurcation of the fairway (3.B of CEVNI) - off position - missing - text area -d - right hand side</desc>
  <metadata />
  <g>
    <path class="fORRED sORRED" style="stroke-width:0.04" d="M -1.26,-0.95 L -1.95,-0.50 L -1.95,0.00 L 1.95,0.00 L 1.95,-0.50 L 1.33,-0.95 L 1.39,-1.04 L 1.44,-1.14 L 1.48,-1.25 L 1.51,-1.35 L 1.54,-1.46 L 1.56,-1.57 L 1.57,-1.68 L 1.57,-1.79 L 1.56,-1.90 L 1.55,-2.01 L 1.52,-2.12 L 1.49,-2.22 L 1.46,-2.33 L 1.41,-2.43 L 1.36,-2.53 L 1.30,-2.62 L 1.24,-2.71 L 1.16,-2.79 L 1.09,-2.87 L 1.00,-2.94 L 0.92,-3.01 L 0.82,-3.07 L 0.73,-3.12 L 0.62,-3.17 L 0.52,-3.21 L 0.41,-3.24 L 0.31,-3.26 L 0.20,-3.28 L 0.09,-3.29 L -0.02,-3.29 L -0.13,-3.28 L -0.24,-3.26 L -0.35,-3.24 L -0.46,-3.21 L -0.56,-3.17 L -0.66,-3.12 L -0.76,-3.06 L -0.85,-3.00 L -0.94,-2.94 L -1.02,-2.86 L -1.10,-2.78 L -1.17,-2.70 L -1.23,-2.61 L -1.29,-2.52 L -1.34,-2.42 L -1.39,-2.32 L -1.42,-2.21 L -1.45,-2.10 L -1.47,-2.00 L -1.49,-1.89 L -1.49,-1.78 L -1.49,-1.67 L -1.48,-1.56 L -1.46,-1.45 L -1.43,-1.34 L -1.40,-1.23 L -1.36,-1.13 L -1.31,-1.03 L -1.26,-0.95 Z" />
    <path class="fORRED sBLACK" style="stroke-width:0.12" d="M -0.65,-4.00 L 0.65,-4.00 L 0.65,-5.30 L -0.65,-5.30 L -0.65,-4.00 Z" />
    <path class="f0 sBLACK" style="stroke-width:0.24" d="M -2.54,0.06 L -3.87,-1.84 L -2.59,-3.67 " />
    <path class="f0 sBLACK" style="stroke-width:0.24" d="M -1.50,-5.22 L 0.00,-7.37 L 1.49,-5.24 " />
    <path class="f0 sBLACK" style="stroke-width:0.24" d="M 2.64,-3.60 L 3.88,-1.84 L 2.46,0.17 " />
    <path class="f0 sBLACK" style="stroke-width:0.24" d="M 1.45,1.62 L 0.00,3.69 L -1.38,1.72 " />
    <path class="f0 sBLACK" style="stroke-width:0.24" d="M -1.34,-5.10 L 0.00,-7.02 L 1.33,-5.12 " />
    <path class="f0 sBLACK" style="stroke-width:0.24" d="M -2.37,-0.05 L -3.63,-1.84 L -2.43,-3.55 " />
    <path class="f0 sBLACK" style="stroke-width:0.24" d="M 2.48,-3.49 L 3.63,-1.84 L 2.30,0.06 " />
    <path class="f0 sBLACK" style="stroke-width:0.24" d="M 1.29,1.51 L 0.00,3.34 L -1.21,1.61 " />
    <path class="fBLACK sBLACK" style="stroke-width:0.04" d="M -5.94,-11.54 L -5.99,-11.58 L -6.04,-11.62 L -6.10,-11.65 L -6.15,-11.68 L -6.24,-11.70 L -6.32,-11.72 L -6.40,-11.72 L -6.49,-11.72 L -6.54,-11.72 L -6.59,-11.72 L -6.64,-11.71 L -6.70,-11.70 L -6.75,-11.68 L -6.80,-11.66 L -6.84,-11.64 L -6.89,-11.62 L -6.94,-11.59 L -6.98,-11.56 L -7.02,-11.53 L -7.06,-11.49 L -7.10,-11.46 L -7.13,-11.42 L -7.16,-11.37 L -7.19,-11.33 L -7.19,-11.67 L -7.59,-11.67 L -7.59,-9.18 L -7.18,-9.18 L -7.18,-10.65 L -7.17,-10.71 L -7.17,-10.78 L -7.16,-10.83 L -7.15,-10.88 L -7.14,-10.92 L -7.13,-10.97 L -7.11,-11.02 L -7.09,-11.06 L -7.06,-11.10 L -7.03,-11.14 L -6.99,-11.19 L -6.94,-11.24 L -6.88,-11.28 L -6.82,-11.31 L -6.76,-11.33 L -6.70,-11.35 L -6.63,-11.36 L -6.56,-11.36 L -6.51,-11.36 L -6.46,-11.35 L -6.41,-11.34 L -6.36,-11.32 L -6.32,-11.30 L -6.28,-11.27 L -6.25,-11.24 L -5.94,-11.54 Z" />
    <path class="fBLACK sBLACK" style="stroke-width:0.04" d="M -6.25,-11.24 L -6.21,-11.20 L -6.19,-11.16 L -6.16,-11.08 L -6.14,-11.01 L -6.13,-10.93 L -6.13,-10.85 L -6.13,-9.18 L -5.70,-9.18 L -5.70,-10.65 L -5.70,-10.71 L -5.70,-10.78 L -5.69,-10.84 L -5.67,-10.91 L -5.66,-10.95 L -5.65,-11.00 L -5.63,-11.04 L -5.61,-11.08 L -5.58,-11.12 L -5.56,-11.16 L -5.52,-11.20 L -5.49,-11.23 L -5.45,-11.26 L -5.40,-11.29 L -5.35,-11.31 L -5.30,-11.33 L -5.25,-11.34 L -5.20,-11.35 L -5.15,-11.36 L -5.10,-11.36 L -5.03,-11.36 L -4.97,-11.34 L -4.90,-11.32 L -4.84,-11.29 L -4.81,-11.27 L -4.78,-11.24 L -4.76,-11.22 L -4.74,-11.19 L -4.72,-11.15 L -4.70,-11.12 L -4.69,-11.09 L -4.68,-11.05 L -4.67,-10.96 L -4.66,-10.88 L -4.66,-10.79 L -4.66,-10.71 L -4.66,-9.18 L -4.25,-9.18 L -4.25,-10.67 L -4.25,-10.79 L -4.25,-10.91 L -4.25,-11.03 L -4.26,-11.15 L -4.27,-11.19 L -4.28,-11.24 L -4.29,-11.28 L -4.31,-11.32 L -4.33,-11.36 L -4.35,-11.40 L -4.37,-11.44 L -4.40,-11.48 L -4.43,-11.51 L -4.46,-11.54 L -4.50,-11.57 L -4.53,-11.60 L -4.57,-11.62 L -4.61,-11.64 L -4.65,-11.66 L -4.69,-11.68 L -4.78,-11.70 L -4.86,-11.71 L -4.95,-11.72 L -5.03,-11.72 L -5.09,-11.72 L -5.14,-11.72 L -5.20,-11.71 L -5.25,-11.70 L -5.31,-11.69 L -5.36,-11.67 L -5.41,-11.65 L -5.46,-11.63 L -5.51,-11.60 L -5.55,-11.57 L -5.60,-11.54 L -5.64,-11.50 L -5.68,-11.47 L -5.72,-11.43 L -5.75,-11.39 L -5.79,-11.34 L -5.82,-11.40 L -5.86,-11.45 L -5.90,-11.50 L -5.94,-11.54 L -6.25,-11.24 Z" />
    <path class="fBLACK sBLACK" style="stroke-width:0.04" d="M -3.62,-12.60 L -3.62,-12.12 L -3.20,-12.12 L -3.20,-12.60 L -3.62,-12.60 Z" />
    <path class="fBLACK sBLACK" style="stroke-width:0.04" d="M -3.62,-11.67 L -3.62,-9.18 L -3.20,-9.18 L -3.20,-11.67 L -3.62,-11.67 Z" />
    <path class="fBLACK sBLACK" style="stroke-width:0.04" d="M -2.16,-10.84 L -2.19,-10.86 L -2.21,-10.89 L -2.22,-10.91 L -2.24,-10.94 L -2.25,-10.97 L -2.25,-11.00 L -2.25,-11.04 L -2.25,-11.08 L -2.25,-11.11 L -2.23,-11.15 L -2.22,-11.19 L -2.20,-11.23 L -2.17,-11.26 L -2.14,-11.28 L -2.11,-11.31 L -2.07,-11.33 L -2.02,-11.34 L -1.98,-11.36 L -1.94,-11.37 L -1.89,-11.38 L -1.85,-11.39 L -1.80,-11.39 L -1.76,-11.39 L -1.67,-11.39 L -1.58,-11.37 L -1.49,-11.35 L -1.40,-11.32 L -1.37,-11.30 L -1.34,-11.28 L -1.31,-11.26 L -1.28,-11.23 L -1.25,-11.20 L -1.23,-11.17 L -1.21,-11.14 L -1.19,-11.11 L -1.18,-11.04 L -1.17,-10.97 L -0.76,-10.97 L -0.76,-11.04 L -0.76,-11.10 L -0.78,-11.16 L -0.79,-11.23 L -0.82,-11.29 L -0.86,-11.36 L -0.90,-11.42 L -0.95,-11.47 L -1.00,-11.52 L -1.06,-11.57 L -1.13,-11.60 L -1.19,-11.63 L -1.26,-11.66 L -1.32,-11.68 L -1.39,-11.70 L -1.46,-11.72 L -1.52,-11.73 L -1.59,-11.74 L -1.66,-11.74 L -1.73,-11.74 L -1.80,-11.74 L -1.87,-11.74 L -1.94,-11.73 L -2.01,-11.72 L -2.08,-11.70 L -2.15,-11.68 L -2.22,-11.66 L -2.28,-11.63 L -2.32,-11.61 L -2.37,-11.59 L -2.40,-11.56 L -2.44,-11.53 L -2.48,-11.50 L -2.51,-11.46 L -2.54,-11.43 L -2.57,-11.39 L -2.59,-11.35 L -2.61,-11.30 L -2.63,-11.26 L -2.64,-11.21 L -2.66,-11.17 L -2.67,-11.12 L -2.67,-11.07 L -2.67,-11.03 L -2.67,-10.95 L -2.66,-10.88 L -2.65,-10.81 L -2.63,-10.75 L -2.60,-10.70 L -2.57,-10.64 L -2.53,-10.59 L -2.48,-10.54 L -2.43,-10.50 L -2.38,-10.47 L -2.16,-10.84 Z" />
    <path class="fBLACK sBLACK" style="stroke-width:0.04" d="M -1.72,-9.11 L -1.61,-9.11 L -1.50,-9.12 L -1.40,-9.13 L -1.31,-9.16 L -1.21,-9.19 L -1.12,-9.22 L -1.07,-9.25 L -1.02,-9.28 L -0.98,-9.31 L -0.94,-9.34 L -0.90,-9.38 L -0.86,-9.42 L -0.83,-9.46 L -0.79,-9.51 L -0.77,-9.56 L -0.74,-9.61 L -0.72,-9.66 L -0.71,-9.71 L -0.70,-9.76 L -0.69,-9.82 L -0.68,-9.87 L -0.68,-9.93 L -0.69,-10.01 L -0.70,-10.10 L -0.72,-10.15 L -0.73,-10.20 L -0.76,-10.25 L -0.78,-10.29 L -0.81,-10.33 L -0.85,-10.37 L -0.89,-10.41 L -0.93,-10.44 L -0.99,-10.48 L -1.06,-10.52 L -1.13,-10.55 L -1.21,-10.57 L -1.45,-10.64 L -1.86,-10.73 L -1.93,-10.75 L -2.00,-10.77 L -2.07,-10.79 L -2.13,-10.83 L -2.16,-10.84 L -2.38,-10.47 L -2.28,-10.42 L -2.17,-10.38 L -2.07,-10.35 L -1.96,-10.33 L -1.49,-10.21 L -1.34,-10.17 L -1.30,-10.16 L -1.27,-10.14 L -1.24,-10.12 L -1.21,-10.10 L -1.18,-10.08 L -1.17,-10.06 L -1.15,-10.03 L -1.13,-10.01 L -1.12,-9.98 L -1.11,-9.95 L -1.11,-9.92 L -1.11,-9.89 L -1.11,-9.85 L -1.12,-9.80 L -1.13,-9.76 L -1.15,-9.72 L -1.17,-9.68 L -1.19,-9.65 L -1.22,-9.61 L -1.26,-9.58 L -1.30,-9.56 L -1.34,-9.54 L -1.42,-9.51 L -1.51,-9.49 L -1.60,-9.48 L -1.70,-9.48 L -1.72,-9.11 Z" />
    <path class="fBLACK sBLACK" style="stroke-width:0.04" d="M -1.70,-9.48 L -1.76,-9.47 L -1.83,-9.48 L -1.89,-9.49 L -1.95,-9.50 L -2.01,-9.52 L -2.06,-9.55 L -2.12,-9.58 L -2.16,-9.61 L -2.20,-9.66 L -2.24,-9.70 L -2.27,-9.75 L -2.30,-9.81 L -2.32,-9.90 L -2.33,-9.99 L -2.74,-9.99 L -2.74,-9.93 L -2.74,-9.88 L -2.73,-9.82 L -2.72,-9.77 L -2.71,-9.71 L -2.69,-9.66 L -2.67,-9.61 L -2.65,-9.56 L -2.61,-9.49 L -2.56,-9.42 L -2.50,-9.36 L -2.44,-9.30 L -2.37,-9.26 L -2.30,-9.21 L -2.22,-9.18 L -2.14,-9.16 L -2.04,-9.13 L -1.93,-9.12 L -1.83,-9.11 L -1.72,-9.11 L -1.70,-9.48 Z" />
    <path class="fBLACK sBLACK" style="stroke-width:0.04" d="M 0.22,-10.84 L 0.19,-10.86 L 0.17,-10.89 L 0.15,-10.91 L 0.14,-10.94 L 0.13,-10.97 L 0.12,-11.00 L 0.12,-11.04 L 0.12,-11.08 L 0.13,-11.11 L 0.14,-11.15 L 0.16,-11.19 L 0.18,-11.23 L 0.21,-11.26 L 0.24,-11.28 L 0.27,-11.31 L 0.31,-11.33 L 0.35,-11.34 L 0.39,-11.36 L 0.44,-11.37 L 0.48,-11.38 L 0.53,-11.39 L 0.57,-11.39 L 0.62,-11.39 L 0.71,-11.39 L 0.80,-11.37 L 0.89,-11.35 L 0.97,-11.32 L 1.01,-11.30 L 1.04,-11.28 L 1.07,-11.26 L 1.10,-11.23 L 1.12,-11.20 L 1.15,-11.17 L 1.17,-11.14 L 1.18,-11.11 L 1.20,-11.04 L 1.21,-10.97 L 1.62,-10.97 L 1.62,-11.04 L 1.61,-11.10 L 1.60,-11.16 L 1.58,-11.23 L 1.55,-11.29 L 1.52,-11.36 L 1.48,-11.42 L 1.43,-11.47 L 1.37,-11.52 L 1.31,-11.57 L 1.25,-11.60 L 1.18,-11.63 L 1.12,-11.66 L 1.05,-11.68 L 0.99,-11.70 L 0.92,-11.72 L 0.85,-11.73 L 0.78,-11.74 L 0.72,-11.74 L 0.65,-11.74 L 0.58,-11.74 L 0.50,-11.74 L 0.43,-11.73 L 0.36,-11.72 L 0.29,-11.70 L 0.23,-11.68 L 0.16,-11.66 L 0.09,-11.63 L 0.05,-11.61 L 0.01,-11.59 L -0.03,-11.56 L -0.06,-11.53 L -0.10,-11.50 L -0.13,-11.46 L -0.16,-11.43 L -0.19,-11.39 L -0.21,-11.35 L -0.23,-11.30 L -0.25,-11.26 L -0.27,-11.21 L -0.28,-11.17 L -0.29,-11.12 L -0.29,-11.07 L -0.29,-11.03 L -0.29,-10.95 L -0.29,-10.88 L -0.27,-10.81 L -0.25,-10.75 L -0.22,-10.70 L -0.19,-10.64 L -0.15,-10.59 L -0.10,-10.54 L -0.05,-10.50 L 0.00,-10.47 L 0.22,-10.84 Z" />
    <path class="fBLACK sBLACK" style="stroke-width:0.04" d="M 0.66,-9.11 L 0.77,-9.11 L 0.87,-9.12 L 0.97,-9.13 L 1.07,-9.16 L 1.17,-9.19 L 1.26,-9.22 L 1.31,-9.25 L 1.36,-9.28 L 1.40,-9.31 L 1.44,-9.34 L 1.48,-9.38 L 1.52,-9.42 L 1.55,-9.46 L 1.58,-9.51 L 1.61,-9.56 L 1.63,-9.61 L 1.65,-9.66 L 1.67,-9.71 L 1.68,-9.76 L 1.69,-9.82 L 1.69,-9.87 L 1.69,-9.93 L 1.69,-10.01 L 1.67,-10.10 L 1.66,-10.15 L 1.64,-10.20 L 1.62,-10.25 L 1.59,-10.29 L 1.56,-10.33 L 1.53,-10.37 L 1.49,-10.41 L 1.45,-10.44 L 1.38,-10.48 L 1.32,-10.52 L 1.24,-10.55 L 1.17,-10.57 L 0.93,-10.64 L 0.52,-10.73 L 0.45,-10.75 L 0.38,-10.77 L 0.31,-10.79 L 0.24,-10.83 L 0.22,-10.84 L 0.00,-10.47 L 0.10,-10.42 L 0.20,-10.38 L 0.31,-10.35 L 0.41,-10.33 L 0.88,-10.21 L 1.04,-10.17 L 1.07,-10.16 L 1.11,-10.14 L 1.14,-10.12 L 1.17,-10.10 L 1.19,-10.08 L 1.21,-10.06 L 1.23,-10.03 L 1.24,-10.01 L 1.25,-9.98 L 1.26,-9.95 L 1.27,-9.92 L 1.27,-9.89 L 1.27,-9.85 L 1.26,-9.80 L 1.25,-9.76 L 1.23,-9.72 L 1.21,-9.68 L 1.18,-9.65 L 1.15,-9.61 L 1.12,-9.58 L 1.08,-9.56 L 1.04,-9.54 L 0.95,-9.51 L 0.86,-9.49 L 0.77,-9.48 L 0.68,-9.48 L 0.66,-9.11 Z" />
    <path class="fBLACK sBLACK" style="stroke-width:0.04" d="M 0.68,-9.48 L 0.62,-9.47 L 0.55,-9.48 L 0.49,-9.49 L 0.42,-9.50 L 0.37,-9.52 L 0.31,-9.55 L 0.26,-9.58 L 0.21,-9.61 L 0.17,-9.66 L 0.14,-9.70 L 0.10,-9.75 L 0.08,-9.81 L 0.06,-9.90 L 0.04,-9.99 L -0.37,-9.99 L -0.37,-9.93 L -0.36,-9.88 L -0.35,-9.82 L -0.34,-9.77 L -0.33,-9.71 L -0.31,-9.66 L -0.29,-9.61 L -0.27,-9.56 L -0.23,-9.49 L -0.18,-9.42 L -0.13,-9.36 L -0.06,-9.30 L 0.00,-9.26 L 0.08,-9.21 L 0.15,-9.18 L 0.23,-9.16 L 0.34,-9.13 L 0.44,-9.12 L 0.55,-9.11 L 0.66,-9.11 L 0.68,-9.48 Z" />
    <path class="fBLACK sBLACK" style="stroke-width:0.04" d="M 2.19,-12.60 L 2.19,-12.12 L 2.60,-12.12 L 2.60,-12.60 L 2.19,-12.60 Z" />
    <path class="fBLACK sBLACK" style="stroke-width:0.04" d="M 2.19,-11.67 L 2.19,-9.18 L 2.60,-9.18 L 2.60,-11.67 L 2.19,-11.67 Z" />
    <path class="fBLACK sBLACK" style="stroke-width:0.04" d="M 5.26,-10.67 L 5.26,-10.79 L 5.26,-10.91 L 5.25,-11.03 L 5.24,-11.15 L 5.23,-11.21 L 5.21,-11.27 L 5.18,-11.33 L 5.15,-11.39 L 5.12,-11.44 L 5.08,-11.49 L 5.03,-11.53 L 4.99,-11.57 L 4.94,-11.60 L 4.88,-11.63 L 4.83,-11.66 L 4.77,-11.68 L 4.68,-11.70 L 4.58,-11.71 L 4.49,-11.72 L 4.40,-11.72 L 4.31,-11.72 L 4.22,-11.71 L 4.13,-11.69 L 4.04,-11.66 L 3.98,-11.63 L 3.92,-11.60 L 3.86,-11.56 L 3.81,-11.52 L 3.76,-11.48 L 3.71,-11.43 L 3.67,-11.37 L 3.63,-11.32 L 3.63,-11.67 L 3.23,-11.67 L 3.23,-9.18 L 3.65,-9.18 L 3.65,-10.60 L 3.65,-10.69 L 3.66,-10.77 L 3.67,-10.84 L 3.68,-10.90 L 3.71,-10.96 L 3.73,-11.02 L 3.77,-11.08 L 3.81,-11.13 L 3.85,-11.18 L 3.90,-11.22 L 3.95,-11.25 L 4.01,-11.28 L 4.06,-11.31 L 4.12,-11.33 L 4.18,-11.34 L 4.24,-11.35 L 4.30,-11.36 L 4.36,-11.36 L 4.40,-11.36 L 4.44,-11.35 L 4.48,-11.35 L 4.52,-11.34 L 4.56,-11.33 L 4.60,-11.31 L 4.63,-11.30 L 4.66,-11.27 L 4.69,-11.25 L 4.72,-11.22 L 4.75,-11.19 L 4.77,-11.16 L 4.80,-11.09 L 4.82,-11.01 L 4.83,-10.93 L 4.83,-10.85 L 4.83,-9.18 L 5.26,-9.18 L 5.26,-10.67 Z" />
    <path class="fBLACK sBLACK" style="stroke-width:0.04" d="M 7.91,-9.23 L 7.91,-11.67 L 7.50,-11.67 L 7.50,-11.39 L 7.44,-11.46 L 7.37,-11.53 L 7.29,-11.60 L 7.21,-11.65 L 7.15,-11.68 L 7.10,-11.70 L 7.05,-11.72 L 6.99,-11.73 L 6.93,-11.74 L 6.87,-11.74 L 6.82,-11.75 L 6.76,-11.74 L 6.69,-11.74 L 6.62,-11.73 L 6.55,-11.72 L 6.48,-11.70 L 6.42,-11.68 L 6.35,-11.65 L 6.29,-11.61 L 6.23,-11.58 L 6.16,-11.52 L 6.10,-11.46 L 6.04,-11.40 L 5.99,-11.33 L 5.94,-11.25 L 5.90,-11.18 L 5.87,-11.10 L 5.84,-11.02 L 5.81,-10.94 L 5.80,-10.87 L 5.78,-10.80 L 5.77,-10.73 L 5.76,-10.65 L 5.75,-10.58 L 5.75,-10.51 L 5.75,-10.43 L 5.75,-10.35 L 6.18,-10.38 L 6.18,-10.46 L 6.18,-10.53 L 6.19,-10.60 L 6.19,-10.66 L 6.21,-10.73 L 6.22,-10.80 L 6.24,-10.86 L 6.26,-10.93 L 6.28,-10.99 L 6.31,-11.04 L 6.33,-11.08 L 6.36,-11.13 L 6.39,-11.17 L 6.43,-11.21 L 6.46,-11.24 L 6.51,-11.27 L 6.55,-11.30 L 6.62,-11.33 L 6.69,-11.35 L 6.76,-11.36 L 6.84,-11.37 L 6.92,-11.37 L 6.99,-11.36 L 7.06,-11.34 L 7.13,-11.31 L 7.18,-11.28 L 7.23,-11.25 L 7.27,-11.21 L 7.30,-11.17 L 7.34,-11.13 L 7.37,-11.09 L 7.40,-11.04 L 7.42,-10.99 L 7.45,-10.91 L 7.48,-10.83 L 7.49,-10.74 L 7.51,-10.65 L 7.51,-10.54 L 7.51,-10.42 L 7.91,-9.23 Z" />
    <path class="fBLACK sBLACK" style="stroke-width:0.04" d="M 7.51,-10.32 L 7.51,-10.22 L 7.49,-10.12 L 7.48,-10.02 L 7.46,-9.93 L 7.43,-9.85 L 7.39,-9.77 L 7.34,-9.70 L 7.30,-9.65 L 7.25,-9.60 L 7.19,-9.56 L 7.13,-9.53 L 7.07,-9.50 L 7.00,-9.48 L 6.94,-9.48 L 6.87,-9.48 L 6.79,-9.48 L 6.71,-9.49 L 6.64,-9.51 L 6.57,-9.54 L 6.52,-9.57 L 6.48,-9.60 L 6.43,-9.64 L 6.40,-9.68 L 6.36,-9.72 L 6.33,-9.77 L 6.30,-9.82 L 6.28,-9.87 L 6.25,-9.94 L 6.23,-10.01 L 6.21,-10.09 L 6.20,-10.16 L 6.19,-10.23 L 6.18,-10.31 L 6.18,-10.38 L 5.75,-10.35 L 5.75,-10.28 L 5.76,-10.20 L 5.76,-10.13 L 5.78,-10.03 L 5.80,-9.94 L 5.83,-9.85 L 5.87,-9.76 L 5.91,-9.67 L 5.96,-9.58 L 6.01,-9.50 L 6.07,-9.43 L 6.10,-9.39 L 6.14,-9.35 L 6.18,-9.32 L 6.22,-9.29 L 6.26,-9.26 L 6.30,-9.23 L 6.35,-9.20 L 6.39,-9.18 L 6.49,-9.15 L 6.59,-9.12 L 6.69,-9.11 L 6.79,-9.10 L 6.84,-9.10 L 6.89,-9.11 L 6.95,-9.11 L 7.00,-9.12 L 7.05,-9.13 L 7.09,-9.15 L 7.14,-9.17 L 7.19,-9.19 L 7.23,-9.21 L 7.28,-9.24 L 7.32,-9.27 L 7.36,-9.30 L 7.40,-9.33 L 7.43,-9.37 L 7.47,-9.41 L 7.50,-9.45 L 7.50,-9.14 L 7.91,-9.23 L 7.51,-10.42 L 7.51,-10.32 Z" />
    <path class="fBLACK sBLACK" style="stroke-width:0.04" d="M 7.50,-9.14 L 7.50,-9.02 L 7.50,-8.95 L 7.48,-8.88 L 7.46,-8.82 L 7.43,-8.75 L 7.40,-8.72 L 7.38,-8.68 L 7.34,-8.65 L 7.31,-8.62 L 7.27,-8.59 L 7.23,-8.57 L 7.19,-8.55 L 7.15,-8.54 L 7.07,-8.52 L 6.99,-8.51 L 6.91,-8.50 L 6.83,-8.50 L 6.74,-8.50 L 6.65,-8.51 L 6.58,-8.52 L 6.52,-8.54 L 6.46,-8.56 L 6.40,-8.59 L 6.37,-8.61 L 6.33,-8.64 L 6.31,-8.67 L 6.28,-8.71 L 6.27,-8.75 L 6.25,-8.80 L 6.25,-8.85 L 6.25,-8.89 L 5.84,-8.89 L 5.84,-8.80 L 5.85,-8.75 L 5.86,-8.70 L 5.87,-8.65 L 5.89,-8.61 L 5.91,-8.56 L 5.93,-8.52 L 5.96,-8.48 L 5.99,-8.44 L 6.04,-8.40 L 6.08,-8.35 L 6.13,-8.32 L 6.19,-8.28 L 6.24,-8.25 L 6.30,-8.23 L 6.36,-8.21 L 6.42,-8.19 L 6.53,-8.16 L 6.65,-8.15 L 6.77,-8.14 L 6.89,-8.15 L 7.01,-8.15 L 7.13,-8.17 L 7.24,-8.19 L 7.36,-8.23 L 7.41,-8.25 L 7.46,-8.27 L 7.51,-8.30 L 7.55,-8.33 L 7.60,-8.36 L 7.64,-8.40 L 7.68,-8.44 L 7.72,-8.48 L 7.75,-8.52 L 7.78,-8.57 L 7.81,-8.62 L 7.83,-8.67 L 7.85,-8.72 L 7.87,-8.77 L 7.88,-8.83 L 7.89,-8.88 L 7.90,-9.06 L 7.91,-9.23 L 7.50,-9.14 Z" />
    <path class="f0 sBLACK" style="stroke-width:0.12" d="M -1.26,-0.95 L -1.95,-0.50 L -1.95,0.00 L 1.95,0.00 L 1.95,-0.50 L 1.33,-0.95 " />
    <path class="fMIDGN sMIDGN" style="stroke-width:0.04" d="M 1.42,-2.41 L 1.37,-2.51 L 1.31,-2.60 L 1.25,-2.69 L 1.18,-2.78 L 1.10,-2.86 L 1.02,-2.93 L 0.93,-3.00 L 0.84,-3.06 L 0.75,-3.11 L 0.65,-3.16 L 0.54,-3.20 L 0.44,-3.24 L 0.33,-3.26 L 0.22,-3.28 L 0.11,-3.29 L 0.00,-3.29 L -0.11,-3.28 L -0.22,-3.27 L -0.33,-3.24 L -0.44,-3.21 L -0.54,-3.17 L -0.64,-3.13 L -0.74,-3.08 L -0.83,-3.02 L -0.92,-2.95 L -1.00,-2.88 L -1.08,-2.80 L -1.15,-2.72 L -1.22,-2.63 L -1.28,-2.54 L -1.33,-2.44 L -1.35,-2.41 L 1.42,-2.41 Z" />
    <path class="fMIDGN sMIDGN" style="stroke-width:0.04" d="M -1.33,-1.07 L 1.40,-1.07 L 1.45,-1.17 L 1.49,-1.27 L 1.52,-1.38 L 1.54,-1.49 L 1.56,-1.60 L 1.57,-1.71 L 1.57,-1.76 L -1.49,-1.76 L -1.49,-1.65 L -1.47,-1.54 L -1.45,-1.43 L -1.43,-1.32 L -1.39,-1.22 L -1.35,-1.12 L -1.33,-1.07 Z" />
    <path class="f0 sBLACK" style="stroke-width:0.12" d="M -1.26,-0.95 L -1.31,-1.04 L -1.36,-1.14 L -1.40,-1.24 L -1.43,-1.35 L -1.46,-1.46 L -1.48,-1.57 L -1.49,-1.68 L -1.49,-1.79 L -1.48,-1.90 L -1.47,-2.01 L -1.45,-2.11 L -1.42,-2.22 L -1.38,-2.33 L -1.34,-2.43 L -1.29,-2.52 L -1.23,-2.62 L -1.16,-2.71 L -1.09,-2.79 L -1.01,-2.87 L -0.93,-2.94 L -0.84,-3.01 L -0.75,-3.07 L -0.65,-3.12 L -0.55,-3.17 L -0.45,-3.21 L -0.34,-3.24 L -0.23,-3.26 L -0.12,-3.28 L -0.01,-3.29 L 0.10,-3.29 L 0.21,-3.28 L 0.32,-3.26 L 0.43,-3.24 L 0.53,-3.21 L 0.63,-3.17 L 0.73,-3.12 L 0.83,-3.07 L 0.92,-3.01 L 1.01,-2.94 L 1.09,-2.87 L 1.17,-2.79 L 1.24,-2.70 L 1.31,-2.61 L 1.37,-2.52 L 1.42,-2.42 L 1.46,-2.32 L 1.50,-2.21 L 1.53,-2.11 L 1.55,-2.00 L 1.56,-1.89 L 1.57,-1.78 L 1.56,-1.67 L 1.55,-1.56 L 1.54,-1.45 L 1.51,-1.34 L 1.48,-1.24 L 1.43,-1.13 L 1.39,-1.03 L 1.33,-0.95 " />
    <circle class="pivotPoint layout" fill="none" cx="0" cy="0" r="0.2" />
  </g>
</svg>