<?xml version="1.0" encoding="UTF-8"?>
<?xml-stylesheet type='text/css' href='S401Style.css'?>
<svg version="1.2" baseProfile="tiny" style="shape-rendering:geometricPrecision; fill-rule:evenodd;" width="12.81mm" height="13.54mm" viewBox="-6.28 -10.02 12.83 13.56" xmlns="http://www.w3.org/2000/svg">
  <title>BOYINL03M</title>
  <desc>river buoy bifurcation of the fairway (3.B of CEVNI) - off position - missing - text area -d</desc>
  <metadata />
  <g>
    <path class="fORRED sORRED" style="stroke-width:0.04" d="M -1.26,-0.95 L -1.95,-0.50 L -1.95,0.00 L 1.95,0.00 L 1.95,-0.50 L 1.33,-0.95 L 1.39,-1.04 L 1.44,-1.14 L 1.48,-1.25 L 1.51,-1.35 L 1.54,-1.46 L 1.56,-1.57 L 1.57,-1.68 L 1.57,-1.79 L 1.56,-1.90 L 1.55,-2.01 L 1.52,-2.12 L 1.49,-2.22 L 1.46,-2.33 L 1.41,-2.43 L 1.36,-2.53 L 1.30,-2.62 L 1.24,-2.71 L 1.16,-2.79 L 1.09,-2.87 L 1.00,-2.94 L 0.92,-3.01 L 0.82,-3.07 L 0.73,-3.12 L 0.62,-3.17 L 0.52,-3.21 L 0.41,-3.24 L 0.31,-3.26 L 0.20,-3.28 L 0.09,-3.29 L -0.02,-3.29 L -0.13,-3.28 L -0.24,-3.26 L -0.35,-3.24 L -0.46,-3.21 L -0.56,-3.17 L -0.66,-3.12 L -0.76,-3.06 L -0.85,-3.00 L -0.94,-2.94 L -1.02,-2.86 L -1.10,-2.78 L -1.17,-2.70 L -1.23,-2.61 L -1.29,-2.52 L -1.34,-2.42 L -1.39,-2.32 L -1.42,-2.21 L -1.45,-2.10 L -1.47,-2.00 L -1.49,-1.89 L -1.49,-1.78 L -1.49,-1.67 L -1.48,-1.56 L -1.46,-1.45 L -1.43,-1.34 L -1.40,-1.23 L -1.36,-1.13 L -1.31,-1.03 L -1.26,-0.95 Z" />
    <path class="f0 sBLACK" style="stroke-width:0.24" d="M 2.20,-2.55 L 3.23,-1.08 L 2.06,0.59 " />
    <path class="f0 sBLACK" style="stroke-width:0.24" d="M 1.22,1.79 L 0.00,3.52 L -1.15,1.87 " />
    <path class="f0 sBLACK" style="stroke-width:0.24" d="M -1.26,-3.89 L 0.00,-5.69 L 1.26,-3.90 " />
    <path class="f0 sBLACK" style="stroke-width:0.24" d="M -2.11,0.50 L -3.22,-1.08 L -2.16,-2.61 " />
    <path class="f0 sBLACK" style="stroke-width:0.24" d="M -1.10,-3.77 L 0.00,-5.34 L 1.09,-3.79 " />
    <path class="f0 sBLACK" style="stroke-width:0.24" d="M 2.04,-2.44 L 2.99,-1.08 L 1.89,0.48 " />
    <path class="f0 sBLACK" style="stroke-width:0.24" d="M 1.05,1.68 L 0.00,3.17 L -0.99,1.76 " />
    <path class="f0 sBLACK" style="stroke-width:0.24" d="M -1.95,0.39 L -2.98,-1.08 L -1.99,-2.49 " />
    <path class="fBLACK sBLACK" style="stroke-width:0.04" d="M -4.91,-9.14 L -4.95,-9.17 L -4.99,-9.20 L -5.04,-9.23 L -5.08,-9.25 L -5.15,-9.27 L -5.22,-9.29 L -5.29,-9.29 L -5.36,-9.29 L -5.40,-9.29 L -5.45,-9.29 L -5.49,-9.28 L -5.53,-9.27 L -5.57,-9.26 L -5.61,-9.24 L -5.65,-9.22 L -5.69,-9.20 L -5.73,-9.18 L -5.77,-9.16 L -5.80,-9.13 L -5.83,-9.10 L -5.86,-9.07 L -5.89,-9.04 L -5.92,-9.00 L -5.94,-8.97 L -5.94,-9.24 L -6.27,-9.24 L -6.27,-7.19 L -5.93,-7.19 L -5.93,-8.40 L -5.93,-8.46 L -5.92,-8.51 L -5.92,-8.55 L -5.91,-8.59 L -5.90,-8.63 L -5.89,-8.67 L -5.87,-8.71 L -5.85,-8.74 L -5.83,-8.78 L -5.81,-8.81 L -5.77,-8.85 L -5.73,-8.89 L -5.69,-8.92 L -5.64,-8.95 L -5.59,-8.97 L -5.53,-8.98 L -5.48,-8.99 L -5.42,-8.99 L -5.37,-8.99 L -5.33,-8.99 L -5.30,-8.98 L -5.26,-8.96 L -5.22,-8.94 L -5.19,-8.92 L -5.16,-8.89 L -4.91,-9.14 Z" />
    <path class="fBLACK sBLACK" style="stroke-width:0.04" d="M -5.16,-8.89 L -5.13,-8.86 L -5.11,-8.82 L -5.09,-8.76 L -5.07,-8.70 L -5.07,-8.64 L -5.06,-8.57 L -5.06,-7.19 L -4.71,-7.19 L -4.71,-8.40 L -4.71,-8.46 L -4.71,-8.51 L -4.70,-8.56 L -4.69,-8.61 L -4.68,-8.65 L -4.67,-8.69 L -4.65,-8.73 L -4.63,-8.76 L -4.61,-8.80 L -4.59,-8.83 L -4.56,-8.86 L -4.53,-8.88 L -4.50,-8.91 L -4.46,-8.93 L -4.42,-8.95 L -4.38,-8.96 L -4.34,-8.97 L -4.30,-8.98 L -4.26,-8.99 L -4.21,-8.99 L -4.16,-8.99 L -4.10,-8.98 L -4.05,-8.96 L -4.00,-8.93 L -3.97,-8.92 L -3.95,-8.90 L -3.93,-8.87 L -3.91,-8.85 L -3.90,-8.82 L -3.88,-8.79 L -3.87,-8.76 L -3.87,-8.73 L -3.86,-8.66 L -3.85,-8.59 L -3.85,-8.52 L -3.85,-8.45 L -3.85,-7.19 L -3.51,-7.19 L -3.51,-8.42 L -3.51,-8.52 L -3.51,-8.62 L -3.51,-8.72 L -3.52,-8.82 L -3.53,-8.85 L -3.53,-8.89 L -3.54,-8.93 L -3.56,-8.96 L -3.57,-8.99 L -3.59,-9.03 L -3.61,-9.06 L -3.64,-9.09 L -3.66,-9.11 L -3.69,-9.14 L -3.71,-9.16 L -3.74,-9.19 L -3.78,-9.21 L -3.81,-9.22 L -3.84,-9.24 L -3.88,-9.25 L -3.95,-9.27 L -4.02,-9.28 L -4.09,-9.29 L -4.16,-9.29 L -4.20,-9.29 L -4.25,-9.29 L -4.29,-9.28 L -4.34,-9.27 L -4.38,-9.26 L -4.43,-9.25 L -4.47,-9.23 L -4.51,-9.21 L -4.55,-9.19 L -4.59,-9.16 L -4.62,-9.14 L -4.66,-9.11 L -4.69,-9.08 L -4.72,-9.05 L -4.75,-9.01 L -4.78,-8.98 L -4.81,-9.02 L -4.84,-9.06 L -4.87,-9.10 L -4.91,-9.14 L -5.16,-8.89 Z" />
    <path class="fBLACK sBLACK" style="stroke-width:0.04" d="M -2.99,-10.01 L -2.99,-9.62 L -2.65,-9.62 L -2.65,-10.01 L -2.99,-10.01 Z" />
    <path class="fBLACK sBLACK" style="stroke-width:0.04" d="M -2.99,-9.24 L -2.99,-7.19 L -2.65,-7.19 L -2.65,-9.24 L -2.99,-9.24 Z" />
    <path class="fBLACK sBLACK" style="stroke-width:0.04" d="M -1.78,-8.56 L -1.80,-8.58 L -1.82,-8.60 L -1.84,-8.62 L -1.85,-8.64 L -1.85,-8.67 L -1.86,-8.70 L -1.86,-8.72 L -1.86,-8.76 L -1.85,-8.79 L -1.84,-8.82 L -1.83,-8.85 L -1.81,-8.88 L -1.79,-8.90 L -1.77,-8.93 L -1.74,-8.95 L -1.71,-8.96 L -1.67,-8.98 L -1.64,-8.99 L -1.60,-9.00 L -1.56,-9.01 L -1.53,-9.01 L -1.49,-9.01 L -1.45,-9.01 L -1.38,-9.01 L -1.30,-9.00 L -1.23,-8.98 L -1.16,-8.96 L -1.13,-8.94 L -1.10,-8.93 L -1.08,-8.91 L -1.05,-8.89 L -1.03,-8.86 L -1.01,-8.84 L -1.00,-8.81 L -0.98,-8.78 L -0.97,-8.73 L -0.96,-8.67 L -0.62,-8.67 L -0.62,-8.72 L -0.63,-8.78 L -0.64,-8.83 L -0.65,-8.88 L -0.68,-8.93 L -0.71,-8.99 L -0.74,-9.04 L -0.78,-9.08 L -0.83,-9.12 L -0.88,-9.16 L -0.93,-9.19 L -0.98,-9.22 L -1.04,-9.24 L -1.09,-9.26 L -1.15,-9.27 L -1.20,-9.29 L -1.26,-9.30 L -1.31,-9.30 L -1.37,-9.31 L -1.43,-9.31 L -1.49,-9.31 L -1.55,-9.30 L -1.60,-9.30 L -1.66,-9.29 L -1.72,-9.28 L -1.77,-9.26 L -1.83,-9.24 L -1.88,-9.22 L -1.92,-9.20 L -1.95,-9.18 L -1.98,-9.16 L -2.02,-9.13 L -2.04,-9.10 L -2.07,-9.08 L -2.10,-9.04 L -2.12,-9.01 L -2.14,-8.98 L -2.16,-8.94 L -2.17,-8.91 L -2.18,-8.87 L -2.19,-8.83 L -2.20,-8.79 L -2.20,-8.75 L -2.21,-8.71 L -2.20,-8.65 L -2.20,-8.59 L -2.19,-8.54 L -2.17,-8.49 L -2.15,-8.44 L -2.12,-8.40 L -2.09,-8.35 L -2.05,-8.32 L -2.01,-8.28 L -1.96,-8.25 L -1.78,-8.56 Z" />
    <path class="fBLACK sBLACK" style="stroke-width:0.04" d="M -1.42,-7.13 L -1.33,-7.13 L -1.24,-7.14 L -1.16,-7.15 L -1.08,-7.17 L -1.00,-7.19 L -0.92,-7.22 L -0.88,-7.24 L -0.84,-7.27 L -0.81,-7.29 L -0.77,-7.32 L -0.74,-7.36 L -0.71,-7.39 L -0.68,-7.42 L -0.65,-7.46 L -0.63,-7.50 L -0.61,-7.54 L -0.60,-7.58 L -0.58,-7.63 L -0.57,-7.67 L -0.57,-7.72 L -0.56,-7.76 L -0.56,-7.81 L -0.57,-7.88 L -0.58,-7.95 L -0.59,-7.99 L -0.60,-8.03 L -0.62,-8.07 L -0.64,-8.11 L -0.67,-8.14 L -0.70,-8.17 L -0.73,-8.20 L -0.76,-8.23 L -0.82,-8.27 L -0.87,-8.30 L -0.93,-8.32 L -1.00,-8.34 L -1.20,-8.39 L -1.53,-8.47 L -1.59,-8.48 L -1.65,-8.50 L -1.71,-8.52 L -1.76,-8.55 L -1.78,-8.56 L -1.96,-8.25 L -1.88,-8.22 L -1.79,-8.18 L -1.71,-8.16 L -1.62,-8.14 L -1.23,-8.04 L -1.11,-8.01 L -1.08,-8.00 L -1.05,-7.98 L -1.02,-7.97 L -1.00,-7.95 L -0.98,-7.93 L -0.96,-7.91 L -0.95,-7.89 L -0.93,-7.87 L -0.93,-7.85 L -0.92,-7.83 L -0.91,-7.80 L -0.91,-7.78 L -0.91,-7.74 L -0.92,-7.70 L -0.93,-7.67 L -0.94,-7.63 L -0.96,-7.60 L -0.98,-7.57 L -1.01,-7.55 L -1.04,-7.52 L -1.07,-7.50 L -1.10,-7.49 L -1.17,-7.46 L -1.25,-7.44 L -1.32,-7.43 L -1.40,-7.43 L -1.42,-7.13 Z" />
    <path class="fBLACK sBLACK" style="stroke-width:0.04" d="M -1.40,-7.43 L -1.45,-7.43 L -1.51,-7.44 L -1.56,-7.44 L -1.61,-7.46 L -1.66,-7.47 L -1.70,-7.49 L -1.75,-7.52 L -1.79,-7.55 L -1.82,-7.58 L -1.85,-7.62 L -1.88,-7.66 L -1.89,-7.71 L -1.91,-7.78 L -1.93,-7.86 L -2.26,-7.86 L -2.26,-7.81 L -2.26,-7.77 L -2.25,-7.72 L -2.25,-7.68 L -2.24,-7.63 L -2.22,-7.59 L -2.20,-7.54 L -2.19,-7.50 L -2.15,-7.44 L -2.11,-7.39 L -2.07,-7.34 L -2.01,-7.29 L -1.96,-7.25 L -1.90,-7.22 L -1.84,-7.19 L -1.77,-7.17 L -1.68,-7.15 L -1.60,-7.14 L -1.51,-7.13 L -1.42,-7.13 L -1.40,-7.43 Z" />
    <path class="fBLACK sBLACK" style="stroke-width:0.04" d="M 0.18,-8.56 L 0.16,-8.58 L 0.14,-8.60 L 0.13,-8.62 L 0.12,-8.64 L 0.11,-8.67 L 0.11,-8.70 L 0.10,-8.72 L 0.11,-8.76 L 0.11,-8.79 L 0.12,-8.82 L 0.13,-8.85 L 0.15,-8.88 L 0.17,-8.90 L 0.20,-8.93 L 0.23,-8.95 L 0.26,-8.96 L 0.29,-8.98 L 0.33,-8.99 L 0.36,-9.00 L 0.40,-9.01 L 0.44,-9.01 L 0.48,-9.01 L 0.51,-9.01 L 0.59,-9.01 L 0.66,-9.00 L 0.74,-8.98 L 0.81,-8.96 L 0.84,-8.94 L 0.86,-8.93 L 0.89,-8.91 L 0.91,-8.89 L 0.93,-8.86 L 0.95,-8.84 L 0.97,-8.81 L 0.98,-8.78 L 0.99,-8.73 L 1.00,-8.67 L 1.34,-8.67 L 1.34,-8.72 L 1.34,-8.78 L 1.33,-8.83 L 1.31,-8.88 L 1.29,-8.93 L 1.26,-8.99 L 1.22,-9.04 L 1.18,-9.08 L 1.14,-9.12 L 1.09,-9.16 L 1.04,-9.19 L 0.98,-9.22 L 0.93,-9.24 L 0.87,-9.26 L 0.82,-9.27 L 0.76,-9.29 L 0.71,-9.30 L 0.65,-9.30 L 0.59,-9.31 L 0.54,-9.31 L 0.48,-9.31 L 0.42,-9.30 L 0.36,-9.30 L 0.30,-9.29 L 0.25,-9.28 L 0.19,-9.26 L 0.13,-9.24 L 0.08,-9.22 L 0.05,-9.20 L 0.01,-9.18 L -0.02,-9.16 L -0.05,-9.13 L -0.08,-9.10 L -0.11,-9.08 L -0.13,-9.04 L -0.15,-9.01 L -0.17,-8.98 L -0.19,-8.94 L -0.21,-8.91 L -0.22,-8.87 L -0.23,-8.83 L -0.24,-8.79 L -0.24,-8.75 L -0.24,-8.71 L -0.24,-8.65 L -0.23,-8.59 L -0.22,-8.54 L -0.21,-8.49 L -0.18,-8.44 L -0.16,-8.40 L -0.12,-8.35 L -0.08,-8.32 L -0.04,-8.28 L 0.00,-8.25 L 0.18,-8.56 Z" />
    <path class="fBLACK sBLACK" style="stroke-width:0.04" d="M 0.54,-7.13 L 0.63,-7.13 L 0.73,-7.14 L 0.81,-7.15 L 0.89,-7.17 L 0.97,-7.19 L 1.04,-7.22 L 1.08,-7.24 L 1.12,-7.27 L 1.16,-7.29 L 1.19,-7.32 L 1.23,-7.36 L 1.26,-7.39 L 1.28,-7.42 L 1.31,-7.46 L 1.33,-7.50 L 1.35,-7.54 L 1.37,-7.58 L 1.38,-7.63 L 1.39,-7.67 L 1.40,-7.72 L 1.40,-7.76 L 1.40,-7.81 L 1.40,-7.88 L 1.39,-7.95 L 1.37,-7.99 L 1.36,-8.03 L 1.34,-8.07 L 1.32,-8.11 L 1.29,-8.14 L 1.27,-8.17 L 1.23,-8.20 L 1.20,-8.23 L 1.15,-8.27 L 1.09,-8.30 L 1.03,-8.32 L 0.97,-8.34 L 0.77,-8.39 L 0.43,-8.47 L 0.37,-8.48 L 0.31,-8.50 L 0.26,-8.52 L 0.20,-8.55 L 0.18,-8.56 L 0.00,-8.25 L 0.08,-8.22 L 0.17,-8.18 L 0.26,-8.16 L 0.34,-8.14 L 0.73,-8.04 L 0.86,-8.01 L 0.89,-8.00 L 0.92,-7.98 L 0.94,-7.97 L 0.97,-7.95 L 0.99,-7.93 L 1.00,-7.91 L 1.02,-7.89 L 1.03,-7.87 L 1.04,-7.85 L 1.05,-7.83 L 1.05,-7.80 L 1.05,-7.78 L 1.05,-7.74 L 1.04,-7.70 L 1.03,-7.67 L 1.02,-7.63 L 1.00,-7.60 L 0.98,-7.57 L 0.95,-7.55 L 0.93,-7.52 L 0.90,-7.50 L 0.86,-7.49 L 0.79,-7.46 L 0.72,-7.44 L 0.64,-7.43 L 0.56,-7.43 L 0.54,-7.13 Z" />
    <path class="fBLACK sBLACK" style="stroke-width:0.04" d="M 0.56,-7.43 L 0.51,-7.43 L 0.46,-7.44 L 0.40,-7.44 L 0.35,-7.46 L 0.31,-7.47 L 0.26,-7.49 L 0.22,-7.52 L 0.18,-7.55 L 0.14,-7.58 L 0.11,-7.62 L 0.09,-7.66 L 0.07,-7.71 L 0.05,-7.78 L 0.04,-7.86 L -0.30,-7.86 L -0.30,-7.81 L -0.30,-7.77 L -0.29,-7.72 L -0.28,-7.68 L -0.27,-7.63 L -0.26,-7.59 L -0.24,-7.54 L -0.22,-7.50 L -0.19,-7.44 L -0.15,-7.39 L -0.10,-7.34 L -0.05,-7.29 L 0.01,-7.25 L 0.07,-7.22 L 0.13,-7.19 L 0.19,-7.17 L 0.28,-7.15 L 0.37,-7.14 L 0.46,-7.13 L 0.54,-7.13 L 0.56,-7.43 Z" />
    <path class="fBLACK sBLACK" style="stroke-width:0.04" d="M 1.81,-10.01 L 1.81,-9.62 L 2.16,-9.62 L 2.16,-10.01 L 1.81,-10.01 Z" />
    <path class="fBLACK sBLACK" style="stroke-width:0.04" d="M 1.81,-9.24 L 1.81,-7.19 L 2.16,-7.19 L 2.16,-9.24 L 1.81,-9.24 Z" />
    <path class="fBLACK sBLACK" style="stroke-width:0.04" d="M 4.35,-8.42 L 4.35,-8.52 L 4.35,-8.62 L 4.34,-8.72 L 4.33,-8.82 L 4.32,-8.87 L 4.31,-8.92 L 4.29,-8.97 L 4.26,-9.02 L 4.23,-9.06 L 4.20,-9.10 L 4.16,-9.13 L 4.12,-9.16 L 4.08,-9.19 L 4.04,-9.22 L 3.99,-9.24 L 3.94,-9.25 L 3.87,-9.27 L 3.79,-9.28 L 3.71,-9.29 L 3.64,-9.29 L 3.56,-9.29 L 3.49,-9.28 L 3.41,-9.26 L 3.34,-9.24 L 3.29,-9.22 L 3.24,-9.19 L 3.20,-9.16 L 3.15,-9.12 L 3.11,-9.09 L 3.07,-9.05 L 3.04,-9.00 L 3.00,-8.96 L 3.00,-9.24 L 2.67,-9.24 L 2.67,-7.19 L 3.02,-7.19 L 3.02,-8.36 L 3.02,-8.43 L 3.03,-8.51 L 3.03,-8.56 L 3.05,-8.61 L 3.07,-8.66 L 3.09,-8.71 L 3.12,-8.76 L 3.15,-8.80 L 3.19,-8.84 L 3.23,-8.87 L 3.27,-8.90 L 3.31,-8.93 L 3.36,-8.95 L 3.41,-8.96 L 3.46,-8.97 L 3.50,-8.98 L 3.55,-8.99 L 3.60,-8.99 L 3.64,-8.99 L 3.67,-8.99 L 3.71,-8.98 L 3.74,-8.97 L 3.77,-8.96 L 3.80,-8.95 L 3.83,-8.94 L 3.86,-8.92 L 3.88,-8.90 L 3.90,-8.88 L 3.92,-8.85 L 3.94,-8.82 L 3.97,-8.76 L 3.99,-8.70 L 4.00,-8.64 L 4.00,-8.57 L 4.00,-7.19 L 4.35,-7.19 L 4.35,-8.42 Z" />
    <path class="fBLACK sBLACK" style="stroke-width:0.04" d="M 6.54,-7.23 L 6.54,-9.24 L 6.20,-9.24 L 6.20,-9.01 L 6.15,-9.08 L 6.09,-9.13 L 6.03,-9.19 L 5.96,-9.23 L 5.91,-9.25 L 5.87,-9.27 L 5.82,-9.28 L 5.78,-9.30 L 5.73,-9.30 L 5.68,-9.31 L 5.64,-9.31 L 5.59,-9.31 L 5.53,-9.30 L 5.47,-9.30 L 5.42,-9.29 L 5.36,-9.27 L 5.30,-9.25 L 5.25,-9.23 L 5.20,-9.20 L 5.15,-9.17 L 5.10,-9.12 L 5.04,-9.07 L 5.00,-9.02 L 4.95,-8.96 L 4.91,-8.90 L 4.88,-8.84 L 4.85,-8.77 L 4.83,-8.71 L 4.81,-8.65 L 4.79,-8.59 L 4.78,-8.53 L 4.77,-8.47 L 4.76,-8.41 L 4.75,-8.35 L 4.75,-8.28 L 4.75,-8.22 L 4.75,-8.16 L 5.11,-8.18 L 5.11,-8.25 L 5.11,-8.30 L 5.12,-8.36 L 5.12,-8.41 L 5.13,-8.47 L 5.14,-8.53 L 5.16,-8.58 L 5.18,-8.63 L 5.20,-8.69 L 5.21,-8.72 L 5.23,-8.76 L 5.26,-8.80 L 5.28,-8.83 L 5.31,-8.86 L 5.35,-8.89 L 5.38,-8.92 L 5.42,-8.94 L 5.47,-8.97 L 5.53,-8.98 L 5.59,-8.99 L 5.65,-9.00 L 5.72,-9.00 L 5.78,-8.99 L 5.84,-8.97 L 5.90,-8.95 L 5.94,-8.93 L 5.97,-8.90 L 6.01,-8.87 L 6.04,-8.84 L 6.07,-8.80 L 6.09,-8.77 L 6.12,-8.73 L 6.13,-8.69 L 6.16,-8.62 L 6.18,-8.55 L 6.20,-8.48 L 6.21,-8.41 L 6.21,-8.31 L 6.21,-8.21 L 6.54,-7.23 Z" />
    <path class="fBLACK sBLACK" style="stroke-width:0.04" d="M 6.21,-8.13 L 6.21,-8.05 L 6.20,-7.96 L 6.18,-7.88 L 6.16,-7.81 L 6.14,-7.74 L 6.11,-7.68 L 6.07,-7.62 L 6.03,-7.57 L 5.99,-7.54 L 5.95,-7.50 L 5.90,-7.48 L 5.85,-7.46 L 5.79,-7.44 L 5.73,-7.43 L 5.68,-7.43 L 5.61,-7.43 L 5.55,-7.44 L 5.49,-7.46 L 5.43,-7.48 L 5.39,-7.51 L 5.35,-7.54 L 5.32,-7.57 L 5.29,-7.60 L 5.26,-7.64 L 5.23,-7.68 L 5.21,-7.72 L 5.19,-7.76 L 5.17,-7.82 L 5.15,-7.88 L 5.14,-7.94 L 5.13,-8.00 L 5.12,-8.06 L 5.11,-8.12 L 5.11,-8.18 L 4.75,-8.16 L 4.75,-8.10 L 4.76,-8.03 L 4.77,-7.97 L 4.78,-7.89 L 4.80,-7.81 L 4.82,-7.74 L 4.85,-7.66 L 4.89,-7.59 L 4.93,-7.52 L 4.97,-7.46 L 5.02,-7.39 L 5.05,-7.36 L 5.08,-7.33 L 5.11,-7.30 L 5.14,-7.28 L 5.17,-7.25 L 5.21,-7.23 L 5.25,-7.21 L 5.29,-7.19 L 5.37,-7.16 L 5.45,-7.14 L 5.53,-7.13 L 5.62,-7.12 L 5.66,-7.12 L 5.70,-7.13 L 5.74,-7.13 L 5.78,-7.14 L 5.82,-7.15 L 5.86,-7.16 L 5.90,-7.18 L 5.94,-7.20 L 5.98,-7.22 L 6.02,-7.24 L 6.05,-7.26 L 6.08,-7.29 L 6.12,-7.32 L 6.15,-7.34 L 6.17,-7.38 L 6.20,-7.41 L 6.20,-7.16 L 6.54,-7.23 L 6.21,-8.21 L 6.21,-8.13 Z" />
    <path class="fBLACK sBLACK" style="stroke-width:0.04" d="M 6.20,-7.16 L 6.20,-7.06 L 6.20,-7.00 L 6.19,-6.94 L 6.17,-6.89 L 6.14,-6.84 L 6.12,-6.81 L 6.10,-6.78 L 6.07,-6.75 L 6.04,-6.73 L 6.01,-6.70 L 5.98,-6.69 L 5.95,-6.67 L 5.91,-6.66 L 5.85,-6.64 L 5.78,-6.63 L 5.72,-6.63 L 5.65,-6.62 L 5.57,-6.63 L 5.50,-6.64 L 5.44,-6.64 L 5.39,-6.66 L 5.34,-6.68 L 5.29,-6.70 L 5.26,-6.72 L 5.24,-6.74 L 5.21,-6.77 L 5.20,-6.80 L 5.18,-6.84 L 5.17,-6.87 L 5.16,-6.91 L 5.16,-6.95 L 4.83,-6.95 L 4.83,-6.88 L 4.83,-6.84 L 4.84,-6.79 L 4.85,-6.75 L 4.87,-6.72 L 4.89,-6.68 L 4.91,-6.64 L 4.93,-6.61 L 4.96,-6.58 L 4.99,-6.54 L 5.03,-6.51 L 5.07,-6.48 L 5.11,-6.45 L 5.16,-6.42 L 5.21,-6.40 L 5.26,-6.38 L 5.31,-6.37 L 5.40,-6.35 L 5.50,-6.34 L 5.60,-6.33 L 5.69,-6.33 L 5.79,-6.34 L 5.89,-6.35 L 5.99,-6.37 L 6.08,-6.40 L 6.13,-6.42 L 6.17,-6.44 L 6.21,-6.46 L 6.25,-6.48 L 6.28,-6.51 L 6.32,-6.54 L 6.35,-6.57 L 6.38,-6.61 L 6.41,-6.65 L 6.43,-6.68 L 6.45,-6.72 L 6.47,-6.77 L 6.49,-6.81 L 6.51,-6.85 L 6.52,-6.90 L 6.52,-6.94 L 6.53,-7.09 L 6.54,-7.23 L 6.20,-7.16 Z" />
    <path class="fMIDGN sMIDGN" style="stroke-width:0.04" d="M 1.42,-2.41 L 1.37,-2.51 L 1.31,-2.60 L 1.25,-2.69 L 1.18,-2.78 L 1.10,-2.86 L 1.02,-2.93 L 0.93,-3.00 L 0.84,-3.06 L 0.75,-3.11 L 0.65,-3.16 L 0.54,-3.20 L 0.44,-3.24 L 0.33,-3.26 L 0.22,-3.28 L 0.11,-3.29 L 0.00,-3.29 L -0.11,-3.28 L -0.22,-3.27 L -0.33,-3.24 L -0.44,-3.21 L -0.54,-3.17 L -0.64,-3.13 L -0.74,-3.08 L -0.83,-3.02 L -0.92,-2.95 L -1.00,-2.88 L -1.08,-2.80 L -1.15,-2.72 L -1.22,-2.63 L -1.28,-2.54 L -1.33,-2.44 L -1.35,-2.41 L 1.42,-2.41 Z" />
    <path class="fMIDGN sMIDGN" style="stroke-width:0.04" d="M -1.33,-1.07 L 1.40,-1.07 L 1.45,-1.17 L 1.49,-1.27 L 1.52,-1.38 L 1.54,-1.49 L 1.56,-1.60 L 1.57,-1.71 L 1.57,-1.76 L -1.49,-1.76 L -1.49,-1.65 L -1.47,-1.54 L -1.45,-1.43 L -1.43,-1.32 L -1.39,-1.22 L -1.35,-1.12 L -1.33,-1.07 Z" />
    <path class="f0 sBLACK" style="stroke-width:0.12" d="M -1.26,-0.95 L -1.95,-0.50 L -1.95,0.00 L 1.95,0.00 L 1.95,-0.50 L 1.33,-0.95 " />
    <path class="f0 sBLACK" style="stroke-width:0.12" d="M -1.26,-0.95 L -1.31,-1.04 L -1.36,-1.14 L -1.40,-1.24 L -1.43,-1.35 L -1.46,-1.46 L -1.48,-1.57 L -1.49,-1.68 L -1.49,-1.79 L -1.48,-1.90 L -1.47,-2.01 L -1.45,-2.11 L -1.42,-2.22 L -1.38,-2.33 L -1.34,-2.43 L -1.29,-2.52 L -1.23,-2.62 L -1.16,-2.71 L -1.09,-2.79 L -1.01,-2.87 L -0.93,-2.94 L -0.84,-3.01 L -0.75,-3.07 L -0.65,-3.12 L -0.55,-3.17 L -0.45,-3.21 L -0.34,-3.24 L -0.23,-3.26 L -0.12,-3.28 L -0.01,-3.29 L 0.10,-3.29 L 0.21,-3.28 L 0.32,-3.26 L 0.43,-3.24 L 0.53,-3.21 L 0.63,-3.17 L 0.73,-3.12 L 0.83,-3.07 L 0.92,-3.01 L 1.01,-2.94 L 1.09,-2.87 L 1.17,-2.79 L 1.24,-2.70 L 1.31,-2.61 L 1.37,-2.52 L 1.42,-2.42 L 1.46,-2.32 L 1.50,-2.21 L 1.53,-2.11 L 1.55,-2.00 L 1.56,-1.89 L 1.57,-1.78 L 1.56,-1.67 L 1.55,-1.56 L 1.54,-1.45 L 1.51,-1.34 L 1.48,-1.24 L 1.43,-1.13 L 1.39,-1.03 L 1.33,-0.95 " />
    <circle class="pivotPoint layout" fill="none" cx="0" cy="0" r="0.2" />
  </g>
</svg>