<?xml version="1.0" encoding="UTF-8"?>
<?xml-stylesheet type='text/css' href='S401Style.css'?>
<svg version="1.2" baseProfile="tiny" style="shape-rendering:geometricPrecision; fill-rule:evenodd;" width="14.84mm" height="13.61mm" viewBox="-7.33 -10.10 14.86 13.63" xmlns="http://www.w3.org/2000/svg">
  <title>BOYINL03F</title>
  <desc>river buoy bifurcation of the fairway (3.B of CEVNI) - off position - text area -d</desc>
  <metadata />
  <g>
    <path class="fORRED sORRED" style="stroke-width:0.04" d="M -1.26,-0.95 L -1.95,-0.50 L -1.95,0.00 L 1.95,0.00 L 1.95,-0.50 L 1.33,-0.95 L 1.39,-1.04 L 1.44,-1.14 L 1.48,-1.25 L 1.51,-1.35 L 1.54,-1.46 L 1.56,-1.57 L 1.57,-1.68 L 1.57,-1.79 L 1.56,-1.90 L 1.55,-2.01 L 1.52,-2.12 L 1.49,-2.22 L 1.46,-2.33 L 1.41,-2.43 L 1.36,-2.53 L 1.30,-2.62 L 1.24,-2.71 L 1.16,-2.79 L 1.09,-2.87 L 1.00,-2.94 L 0.92,-3.01 L 0.82,-3.07 L 0.73,-3.12 L 0.62,-3.17 L 0.52,-3.21 L 0.41,-3.24 L 0.31,-3.26 L 0.20,-3.28 L 0.09,-3.29 L -0.02,-3.29 L -0.13,-3.28 L -0.24,-3.26 L -0.35,-3.24 L -0.46,-3.21 L -0.56,-3.17 L -0.66,-3.12 L -0.76,-3.06 L -0.85,-3.00 L -0.94,-2.94 L -1.02,-2.86 L -1.10,-2.78 L -1.17,-2.70 L -1.23,-2.61 L -1.29,-2.52 L -1.34,-2.42 L -1.39,-2.32 L -1.42,-2.21 L -1.45,-2.10 L -1.47,-2.00 L -1.49,-1.89 L -1.49,-1.78 L -1.49,-1.67 L -1.48,-1.56 L -1.46,-1.45 L -1.43,-1.34 L -1.40,-1.23 L -1.36,-1.13 L -1.31,-1.03 L -1.26,-0.95 Z" />
    <path class="f0 sBLACK" style="stroke-width:0.24" d="M -3.22,-1.08 L 0.00,-5.69 L 3.23,-1.08 L 0.00,3.52 L -3.22,-1.08 Z" />
    <path class="fBLACK sBLACK" style="stroke-width:0.04" d="M -5.98,-7.44 L -6.06,-7.44 L -6.14,-7.45 L -6.21,-7.47 L -6.28,-7.49 L -6.35,-7.51 L -6.42,-7.55 L -6.49,-7.59 L -6.55,-7.63 L -6.59,-7.66 L -6.62,-7.70 L -6.66,-7.73 L -6.69,-7.77 L -6.72,-7.81 L -6.75,-7.85 L -6.77,-7.89 L -6.79,-7.94 L -6.83,-8.01 L -6.85,-8.10 L -6.88,-8.18 L -6.89,-8.26 L -6.91,-8.35 L -6.92,-8.43 L -6.92,-8.51 L -6.92,-8.60 L -6.92,-8.69 L -7.32,-8.69 L -7.32,-8.60 L -7.32,-8.51 L -7.31,-8.41 L -7.31,-8.32 L -7.30,-8.23 L -7.28,-8.16 L -7.27,-8.09 L -7.25,-8.03 L -7.23,-7.96 L -7.21,-7.89 L -7.18,-7.83 L -7.15,-7.77 L -7.12,-7.71 L -7.08,-7.65 L -7.04,-7.59 L -6.99,-7.54 L -6.95,-7.49 L -6.90,-7.44 L -6.85,-7.39 L -6.79,-7.35 L -6.73,-7.31 L -6.68,-7.28 L -6.61,-7.24 L -6.55,-7.21 L -6.49,-7.19 L -6.43,-7.17 L -6.36,-7.15 L -6.30,-7.14 L -6.24,-7.13 L -6.18,-7.12 L -6.11,-7.11 L -6.05,-7.11 L -5.98,-7.11 L -5.98,-7.44 Z" />
    <path class="fBLACK sBLACK" style="stroke-width:0.04" d="M -5.98,-7.11 L -5.91,-7.11 L -5.84,-7.12 L -5.77,-7.12 L -5.71,-7.13 L -5.61,-7.15 L -5.52,-7.18 L -5.43,-7.21 L -5.34,-7.25 L -5.26,-7.29 L -5.18,-7.35 L -5.11,-7.41 L -5.04,-7.47 L -4.97,-7.55 L -4.90,-7.64 L -4.85,-7.73 L -4.80,-7.82 L -4.75,-7.92 L -4.72,-8.02 L -4.69,-8.12 L -4.68,-8.23 L -4.66,-8.32 L -4.66,-8.41 L -4.65,-8.51 L -5.05,-8.51 L -5.05,-8.43 L -5.06,-8.35 L -5.07,-8.26 L -5.09,-8.18 L -5.12,-8.10 L -5.14,-8.01 L -5.17,-7.94 L -5.20,-7.89 L -5.22,-7.85 L -5.25,-7.81 L -5.28,-7.77 L -5.31,-7.73 L -5.34,-7.69 L -5.38,-7.66 L -5.42,-7.63 L -5.46,-7.60 L -5.50,-7.57 L -5.54,-7.55 L -5.58,-7.53 L -5.63,-7.51 L -5.68,-7.49 L -5.72,-7.47 L -5.77,-7.46 L -5.82,-7.45 L -5.88,-7.45 L -5.93,-7.44 L -5.98,-7.44 L -5.98,-7.11 Z" />
    <path class="fBLACK sBLACK" style="stroke-width:0.04" d="M -5.98,-9.75 L -5.91,-9.75 L -5.83,-9.75 L -5.76,-9.73 L -5.68,-9.71 L -5.61,-9.68 L -5.54,-9.65 L -5.48,-9.61 L -5.41,-9.57 L -5.38,-9.54 L -5.34,-9.50 L -5.31,-9.47 L -5.28,-9.43 L -5.25,-9.39 L -5.22,-9.35 L -5.20,-9.31 L -5.17,-9.26 L -5.14,-9.19 L -5.12,-9.10 L -5.09,-9.02 L -5.07,-8.94 L -5.06,-8.85 L -5.05,-8.77 L -5.05,-8.69 L -5.05,-8.60 L -5.05,-8.51 L -4.65,-8.51 L -4.65,-8.60 L -4.65,-8.69 L -4.66,-8.79 L -4.66,-8.88 L -4.68,-8.97 L -4.69,-9.04 L -4.70,-9.11 L -4.72,-9.18 L -4.74,-9.25 L -4.77,-9.31 L -4.80,-9.38 L -4.83,-9.45 L -4.86,-9.51 L -4.92,-9.59 L -4.98,-9.67 L -5.05,-9.74 L -5.13,-9.81 L -5.21,-9.87 L -5.30,-9.93 L -5.39,-9.97 L -5.48,-10.01 L -5.54,-10.03 L -5.60,-10.05 L -5.67,-10.06 L -5.73,-10.07 L -5.79,-10.08 L -5.86,-10.09 L -5.92,-10.09 L -5.98,-10.09 L -5.98,-9.75 Z" />
    <path class="fBLACK sBLACK" style="stroke-width:0.04" d="M -5.98,-10.09 L -6.06,-10.09 L -6.13,-10.08 L -6.20,-10.08 L -6.27,-10.07 L -6.36,-10.05 L -6.45,-10.02 L -6.54,-9.99 L -6.63,-9.95 L -6.71,-9.90 L -6.79,-9.85 L -6.86,-9.79 L -6.93,-9.72 L -7.00,-9.64 L -7.07,-9.56 L -7.12,-9.47 L -7.17,-9.38 L -7.22,-9.28 L -7.25,-9.18 L -7.28,-9.07 L -7.30,-8.97 L -7.31,-8.88 L -7.31,-8.79 L -7.32,-8.69 L -6.92,-8.69 L -6.92,-8.77 L -6.91,-8.85 L -6.90,-8.94 L -6.88,-9.02 L -6.85,-9.10 L -6.83,-9.19 L -6.79,-9.26 L -6.77,-9.31 L -6.75,-9.35 L -6.72,-9.39 L -6.69,-9.43 L -6.66,-9.47 L -6.63,-9.50 L -6.59,-9.54 L -6.55,-9.57 L -6.51,-9.60 L -6.47,-9.63 L -6.43,-9.65 L -6.39,-9.67 L -6.34,-9.69 L -6.30,-9.71 L -6.25,-9.72 L -6.20,-9.74 L -6.15,-9.74 L -6.09,-9.75 L -6.04,-9.75 L -5.98,-9.75 L -5.98,-10.09 Z" />
    <path class="fBLACK sBLACK" style="stroke-width:0.04" d="M -3.34,-10.03 L -3.42,-10.05 L -3.50,-10.05 L -3.58,-10.06 L -3.66,-10.06 L -3.71,-10.05 L -3.77,-10.04 L -3.82,-10.02 L -3.88,-10.00 L -3.92,-9.97 L -3.96,-9.94 L -3.99,-9.90 L -4.02,-9.86 L -4.04,-9.82 L -4.05,-9.79 L -4.07,-9.75 L -4.08,-9.71 L -4.08,-9.67 L -4.09,-9.63 L -4.09,-9.59 L -4.09,-9.55 L -4.09,-9.24 L -4.46,-9.24 L -4.46,-8.97 L -4.09,-8.97 L -4.09,-7.19 L -3.74,-7.19 L -3.74,-8.97 L -3.34,-8.97 L -3.34,-9.24 L -3.74,-9.24 L -3.74,-9.42 L -3.74,-9.46 L -3.74,-9.51 L -3.73,-9.56 L -3.73,-9.60 L -3.72,-9.63 L -3.70,-9.65 L -3.68,-9.67 L -3.66,-9.69 L -3.62,-9.71 L -3.58,-9.73 L -3.54,-9.74 L -3.49,-9.74 L -3.38,-9.73 L -3.34,-9.72 L -3.34,-10.03 Z" />
    <path class="fBLACK sBLACK" style="stroke-width:0.04" d="M -2.25,-10.03 L -2.33,-10.05 L -2.41,-10.05 L -2.49,-10.06 L -2.56,-10.06 L -2.62,-10.05 L -2.68,-10.04 L -2.73,-10.02 L -2.78,-10.00 L -2.83,-9.97 L -2.87,-9.94 L -2.90,-9.90 L -2.93,-9.86 L -2.95,-9.82 L -2.96,-9.79 L -2.98,-9.75 L -2.99,-9.71 L -2.99,-9.67 L -3.00,-9.63 L -3.00,-9.59 L -3.00,-9.55 L -3.00,-9.24 L -3.36,-9.24 L -3.36,-8.97 L -3.00,-8.97 L -3.00,-7.19 L -2.65,-7.19 L -2.65,-8.97 L -2.25,-8.97 L -2.25,-9.24 L -2.65,-9.24 L -2.65,-9.42 L -2.65,-9.46 L -2.65,-9.51 L -2.64,-9.56 L -2.63,-9.60 L -2.62,-9.63 L -2.61,-9.65 L -2.59,-9.67 L -2.57,-9.69 L -2.53,-9.71 L -2.49,-9.73 L -2.44,-9.74 L -2.40,-9.74 L -2.29,-9.73 L -2.25,-9.72 L -2.25,-10.03 Z" />
    <path class="fBLACK sBLACK" style="stroke-width:0.04" d="M 0.89,-9.19 L 0.88,-9.14 L 0.88,-9.08 L 0.86,-9.03 L 0.85,-8.97 L 0.83,-8.94 L 0.81,-8.90 L 0.78,-8.87 L 0.75,-8.84 L 0.72,-8.81 L 0.68,-8.79 L 0.65,-8.77 L 0.61,-8.76 L 0.56,-8.74 L 0.51,-8.73 L 0.46,-8.72 L 0.41,-8.72 L 0.23,-8.72 L -0.47,-8.72 L -0.47,-8.38 L 0.17,-8.38 L 0.28,-8.38 L 0.40,-8.38 L 0.51,-8.39 L 0.63,-8.40 L 0.67,-8.41 L 0.72,-8.42 L 0.77,-8.43 L 0.82,-8.45 L 0.86,-8.47 L 0.91,-8.50 L 0.95,-8.52 L 0.99,-8.55 L 1.03,-8.59 L 1.06,-8.62 L 1.10,-8.66 L 1.13,-8.70 L 1.16,-8.74 L 1.18,-8.78 L 1.20,-8.82 L 1.22,-8.87 L 1.25,-8.95 L 1.27,-9.03 L 1.28,-9.12 L 1.28,-9.20 L 0.89,-9.19 Z" />
    <path class="fBLACK sBLACK" style="stroke-width:0.04" d="M 1.28,-9.20 L 1.27,-9.29 L 1.26,-9.38 L 1.25,-9.44 L 1.23,-9.50 L 1.21,-9.56 L 1.18,-9.62 L 1.15,-9.67 L 1.12,-9.72 L 1.08,-9.77 L 1.03,-9.81 L 0.99,-9.85 L 0.94,-9.88 L 0.89,-9.91 L 0.83,-9.94 L 0.78,-9.96 L 0.72,-9.98 L 0.66,-9.99 L 0.61,-10.00 L 0.49,-10.01 L 0.37,-10.01 L 0.26,-10.02 L 0.14,-10.01 L -0.86,-10.01 L -0.86,-7.19 L -0.47,-7.19 L -0.47,-8.38 L -0.47,-8.72 L -0.47,-9.67 L 0.26,-9.67 L 0.38,-9.67 L 0.50,-9.66 L 0.55,-9.65 L 0.60,-9.63 L 0.65,-9.61 L 0.70,-9.59 L 0.73,-9.56 L 0.76,-9.54 L 0.79,-9.51 L 0.81,-9.47 L 0.83,-9.44 L 0.85,-9.40 L 0.86,-9.37 L 0.87,-9.33 L 0.88,-9.26 L 0.89,-9.19 L 1.28,-9.20 Z" />
    <path class="fBLACK sBLACK" style="stroke-width:0.04" d="M 3.12,-8.16 L 3.12,-8.10 L 3.11,-8.04 L 3.10,-7.98 L 3.09,-7.92 L 3.08,-7.86 L 3.06,-7.81 L 3.04,-7.75 L 3.02,-7.72 L 3.00,-7.68 L 2.98,-7.65 L 2.96,-7.62 L 2.93,-7.59 L 2.90,-7.56 L 2.87,-7.54 L 2.84,-7.51 L 2.80,-7.49 L 2.77,-7.48 L 2.73,-7.46 L 2.69,-7.45 L 2.65,-7.44 L 2.61,-7.44 L 2.57,-7.43 L 2.53,-7.43 L 2.49,-7.43 L 2.45,-7.43 L 2.41,-7.44 L 2.38,-7.45 L 2.34,-7.46 L 2.30,-7.48 L 2.26,-7.49 L 2.23,-7.51 L 2.20,-7.54 L 2.16,-7.56 L 2.13,-7.59 L 2.11,-7.62 L 2.08,-7.65 L 2.06,-7.68 L 2.04,-7.72 L 2.02,-7.76 L 2.00,-7.81 L 1.99,-7.87 L 1.97,-7.92 L 1.96,-7.98 L 1.95,-8.04 L 1.94,-8.10 L 1.59,-8.09 L 1.60,-7.97 L 1.61,-7.88 L 1.64,-7.78 L 1.67,-7.69 L 1.71,-7.60 L 1.75,-7.54 L 1.79,-7.47 L 1.84,-7.41 L 1.89,-7.36 L 1.94,-7.31 L 2.01,-7.27 L 2.07,-7.23 L 2.14,-7.19 L 2.19,-7.18 L 2.23,-7.16 L 2.28,-7.15 L 2.33,-7.14 L 2.38,-7.13 L 2.43,-7.13 L 2.48,-7.13 L 2.53,-7.13 L 2.59,-7.13 L 2.64,-7.13 L 2.70,-7.14 L 2.75,-7.15 L 2.80,-7.16 L 2.85,-7.17 L 2.89,-7.18 L 2.93,-7.20 L 2.98,-7.22 L 3.02,-7.24 L 3.06,-7.27 L 3.10,-7.30 L 3.15,-7.34 L 3.21,-7.40 L 3.26,-7.46 L 3.30,-7.52 L 3.34,-7.58 L 3.37,-7.65 L 3.40,-7.72 L 3.42,-7.79 L 3.44,-7.90 L 3.46,-8.00 L 3.47,-8.11 L 3.12,-8.16 Z" />
    <path class="fBLACK sBLACK" style="stroke-width:0.04" d="M 2.53,-9.31 L 2.48,-9.31 L 2.43,-9.31 L 2.38,-9.30 L 2.33,-9.29 L 2.28,-9.28 L 2.23,-9.27 L 2.19,-9.26 L 2.14,-9.24 L 2.09,-9.22 L 2.05,-9.19 L 2.01,-9.17 L 1.96,-9.14 L 1.92,-9.10 L 1.89,-9.07 L 1.85,-9.04 L 1.82,-9.00 L 1.79,-8.96 L 1.76,-8.92 L 1.73,-8.87 L 1.71,-8.83 L 1.68,-8.78 L 1.66,-8.74 L 1.65,-8.69 L 1.64,-8.64 L 1.61,-8.54 L 1.60,-8.43 L 1.59,-8.32 L 1.59,-8.22 L 1.59,-8.09 L 1.94,-8.10 L 1.94,-8.16 L 1.94,-8.22 L 1.94,-8.28 L 1.94,-8.34 L 1.95,-8.40 L 1.96,-8.45 L 1.97,-8.51 L 1.99,-8.57 L 2.00,-8.63 L 2.02,-8.68 L 2.04,-8.72 L 2.06,-8.75 L 2.08,-8.79 L 2.11,-8.82 L 2.14,-8.85 L 2.16,-8.87 L 2.20,-8.90 L 2.23,-8.92 L 2.26,-8.94 L 2.30,-8.96 L 2.34,-8.97 L 2.38,-8.98 L 2.42,-8.99 L 2.45,-9.00 L 2.49,-9.00 L 2.53,-9.00 L 2.53,-9.31 Z" />
    <path class="fBLACK sBLACK" style="stroke-width:0.04" d="M 2.53,-9.00 L 2.57,-9.00 L 2.61,-9.00 L 2.65,-8.99 L 2.69,-8.98 L 2.73,-8.97 L 2.77,-8.96 L 2.80,-8.94 L 2.84,-8.92 L 2.87,-8.90 L 2.90,-8.87 L 2.93,-8.84 L 2.95,-8.82 L 2.98,-8.79 L 3.00,-8.75 L 3.02,-8.72 L 3.04,-8.68 L 3.06,-8.63 L 3.08,-8.57 L 3.09,-8.51 L 3.10,-8.45 L 3.11,-8.40 L 3.12,-8.34 L 3.12,-8.28 L 3.12,-8.22 L 3.12,-8.16 L 3.47,-8.11 L 3.47,-8.21 L 3.47,-8.34 L 3.46,-8.46 L 3.44,-8.56 L 3.42,-8.65 L 3.39,-8.74 L 3.35,-8.83 L 3.31,-8.90 L 3.27,-8.96 L 3.22,-9.02 L 3.17,-9.07 L 3.12,-9.12 L 3.06,-9.17 L 2.99,-9.21 L 2.92,-9.24 L 2.88,-9.26 L 2.83,-9.27 L 2.78,-9.28 L 2.73,-9.29 L 2.68,-9.30 L 2.63,-9.31 L 2.58,-9.31 L 2.53,-9.31 L 2.53,-9.00 Z" />
    <path class="fBLACK sBLACK" style="stroke-width:0.04" d="M 4.22,-8.56 L 4.20,-8.58 L 4.19,-8.60 L 4.17,-8.62 L 4.16,-8.64 L 4.15,-8.67 L 4.15,-8.70 L 4.15,-8.72 L 4.15,-8.76 L 4.15,-8.79 L 4.16,-8.82 L 4.18,-8.85 L 4.20,-8.88 L 4.22,-8.90 L 4.24,-8.93 L 4.27,-8.95 L 4.30,-8.96 L 4.34,-8.98 L 4.37,-8.99 L 4.41,-9.00 L 4.45,-9.01 L 4.48,-9.01 L 4.52,-9.01 L 4.56,-9.01 L 4.63,-9.01 L 4.71,-9.00 L 4.78,-8.98 L 4.85,-8.96 L 4.88,-8.94 L 4.91,-8.93 L 4.93,-8.91 L 4.96,-8.89 L 4.98,-8.86 L 5.00,-8.84 L 5.01,-8.81 L 5.03,-8.78 L 5.04,-8.73 L 5.05,-8.67 L 5.39,-8.67 L 5.39,-8.72 L 5.38,-8.78 L 5.37,-8.83 L 5.36,-8.88 L 5.33,-8.93 L 5.30,-8.99 L 5.27,-9.04 L 5.23,-9.08 L 5.18,-9.12 L 5.13,-9.16 L 5.08,-9.19 L 5.03,-9.22 L 4.97,-9.24 L 4.92,-9.26 L 4.86,-9.27 L 4.81,-9.29 L 4.75,-9.30 L 4.69,-9.30 L 4.64,-9.31 L 4.58,-9.31 L 4.52,-9.31 L 4.46,-9.30 L 4.41,-9.30 L 4.35,-9.29 L 4.29,-9.28 L 4.23,-9.26 L 4.18,-9.24 L 4.13,-9.22 L 4.09,-9.20 L 4.06,-9.18 L 4.02,-9.16 L 3.99,-9.13 L 3.96,-9.10 L 3.94,-9.08 L 3.91,-9.04 L 3.89,-9.01 L 3.87,-8.98 L 3.85,-8.94 L 3.84,-8.91 L 3.83,-8.87 L 3.82,-8.83 L 3.81,-8.79 L 3.80,-8.75 L 3.80,-8.71 L 3.80,-8.65 L 3.81,-8.59 L 3.82,-8.54 L 3.84,-8.49 L 3.86,-8.44 L 3.89,-8.40 L 3.92,-8.35 L 3.96,-8.32 L 4.00,-8.28 L 4.05,-8.25 L 4.22,-8.56 Z" />
    <path class="fBLACK sBLACK" style="stroke-width:0.04" d="M 4.59,-7.13 L 4.68,-7.13 L 4.77,-7.14 L 4.85,-7.15 L 4.93,-7.17 L 5.01,-7.19 L 5.09,-7.22 L 5.13,-7.24 L 5.17,-7.27 L 5.20,-7.29 L 5.24,-7.32 L 5.27,-7.36 L 5.30,-7.39 L 5.33,-7.42 L 5.35,-7.46 L 5.38,-7.50 L 5.40,-7.54 L 5.41,-7.58 L 5.43,-7.63 L 5.44,-7.67 L 5.44,-7.72 L 5.45,-7.76 L 5.45,-7.81 L 5.44,-7.88 L 5.43,-7.95 L 5.42,-7.99 L 5.40,-8.03 L 5.39,-8.07 L 5.36,-8.11 L 5.34,-8.14 L 5.31,-8.17 L 5.28,-8.20 L 5.25,-8.23 L 5.19,-8.27 L 5.13,-8.30 L 5.07,-8.32 L 5.01,-8.34 L 4.81,-8.39 L 4.48,-8.47 L 4.42,-8.48 L 4.36,-8.50 L 4.30,-8.52 L 4.25,-8.55 L 4.22,-8.56 L 4.05,-8.25 L 4.13,-8.22 L 4.21,-8.18 L 4.30,-8.16 L 4.39,-8.14 L 4.78,-8.04 L 4.90,-8.01 L 4.93,-8.00 L 4.96,-7.98 L 4.99,-7.97 L 5.01,-7.95 L 5.03,-7.93 L 5.05,-7.91 L 5.06,-7.89 L 5.07,-7.87 L 5.08,-7.85 L 5.09,-7.83 L 5.09,-7.80 L 5.10,-7.78 L 5.09,-7.74 L 5.09,-7.70 L 5.08,-7.67 L 5.06,-7.63 L 5.05,-7.60 L 5.02,-7.57 L 5.00,-7.55 L 4.97,-7.52 L 4.94,-7.50 L 4.91,-7.49 L 4.84,-7.46 L 4.76,-7.44 L 4.69,-7.43 L 4.61,-7.43 L 4.59,-7.13 Z" />
    <path class="fBLACK sBLACK" style="stroke-width:0.04" d="M 4.61,-7.43 L 4.56,-7.43 L 4.50,-7.44 L 4.45,-7.44 L 4.40,-7.46 L 4.35,-7.47 L 4.31,-7.49 L 4.26,-7.52 L 4.22,-7.55 L 4.19,-7.58 L 4.16,-7.62 L 4.13,-7.66 L 4.11,-7.71 L 4.09,-7.78 L 4.08,-7.86 L 3.74,-7.86 L 3.74,-7.81 L 3.75,-7.77 L 3.75,-7.72 L 3.76,-7.68 L 3.77,-7.63 L 3.79,-7.59 L 3.80,-7.54 L 3.82,-7.50 L 3.86,-7.44 L 3.90,-7.39 L 3.94,-7.34 L 3.99,-7.29 L 4.05,-7.25 L 4.11,-7.22 L 4.17,-7.19 L 4.24,-7.17 L 4.33,-7.15 L 4.41,-7.14 L 4.50,-7.13 L 4.59,-7.13 L 4.61,-7.43 Z" />
    <path class="fBLACK sBLACK" style="stroke-width:0.04" d="M 7.52,-8.42 L 7.52,-8.52 L 7.52,-8.62 L 7.51,-8.72 L 7.50,-8.82 L 7.49,-8.87 L 7.48,-8.92 L 7.46,-8.97 L 7.43,-9.02 L 7.40,-9.06 L 7.37,-9.10 L 7.33,-9.13 L 7.30,-9.16 L 7.25,-9.19 L 7.21,-9.22 L 7.16,-9.24 L 7.12,-9.25 L 7.04,-9.27 L 6.96,-9.28 L 6.89,-9.29 L 6.81,-9.29 L 6.73,-9.29 L 6.66,-9.28 L 6.59,-9.26 L 6.51,-9.24 L 6.46,-9.22 L 6.41,-9.19 L 6.37,-9.16 L 6.32,-9.12 L 6.28,-9.09 L 6.24,-9.05 L 6.21,-9.00 L 6.18,-8.96 L 6.18,-9.24 L 5.85,-9.24 L 5.85,-7.19 L 6.19,-7.19 L 6.19,-8.36 L 6.19,-8.43 L 6.20,-8.51 L 6.21,-8.56 L 6.22,-8.61 L 6.24,-8.66 L 6.26,-8.71 L 6.29,-8.76 L 6.32,-8.80 L 6.36,-8.84 L 6.40,-8.87 L 6.44,-8.90 L 6.49,-8.93 L 6.53,-8.95 L 6.58,-8.96 L 6.63,-8.97 L 6.68,-8.98 L 6.73,-8.99 L 6.78,-8.99 L 6.81,-8.99 L 6.85,-8.99 L 6.88,-8.98 L 6.91,-8.97 L 6.95,-8.96 L 6.98,-8.95 L 7.00,-8.94 L 7.03,-8.92 L 7.06,-8.90 L 7.08,-8.88 L 7.10,-8.85 L 7.12,-8.82 L 7.14,-8.76 L 7.16,-8.70 L 7.17,-8.64 L 7.17,-8.57 L 7.17,-7.19 L 7.52,-7.19 L 7.52,-8.42 Z" />
    <path class="f0 sBLACK" style="stroke-width:0.24" d="M 0.00,-5.34 L 2.99,-1.08 L 0.00,3.17 L -2.98,-1.08 L 0.00,-5.34 Z" />
    <path class="fMIDGN sMIDGN" style="stroke-width:0.04" d="M 1.42,-2.41 L 1.37,-2.51 L 1.31,-2.60 L 1.25,-2.69 L 1.18,-2.78 L 1.10,-2.86 L 1.02,-2.93 L 0.93,-3.00 L 0.84,-3.06 L 0.75,-3.11 L 0.65,-3.16 L 0.54,-3.20 L 0.44,-3.24 L 0.33,-3.26 L 0.22,-3.28 L 0.11,-3.29 L 0.00,-3.29 L -0.11,-3.28 L -0.22,-3.27 L -0.33,-3.24 L -0.44,-3.21 L -0.54,-3.17 L -0.64,-3.13 L -0.74,-3.08 L -0.83,-3.02 L -0.92,-2.95 L -1.00,-2.88 L -1.08,-2.80 L -1.15,-2.72 L -1.22,-2.63 L -1.28,-2.54 L -1.33,-2.44 L -1.35,-2.41 L 1.42,-2.41 Z" />
    <path class="fMIDGN sMIDGN" style="stroke-width:0.04" d="M -1.33,-1.07 L 1.40,-1.07 L 1.45,-1.17 L 1.49,-1.27 L 1.52,-1.38 L 1.54,-1.49 L 1.56,-1.60 L 1.57,-1.71 L 1.57,-1.76 L -1.49,-1.76 L -1.49,-1.65 L -1.47,-1.54 L -1.45,-1.43 L -1.43,-1.32 L -1.39,-1.22 L -1.35,-1.12 L -1.33,-1.07 Z" />
    <path class="f0 sBLACK" style="stroke-width:0.12" d="M -1.26,-0.95 L -1.95,-0.50 L -1.95,0.00 L 1.95,0.00 L 1.95,-0.50 L 1.33,-0.95 " />
    <path class="f0 sBLACK" style="stroke-width:0.12" d="M -1.26,-0.95 L -1.31,-1.04 L -1.36,-1.14 L -1.40,-1.24 L -1.43,-1.35 L -1.46,-1.46 L -1.48,-1.57 L -1.49,-1.68 L -1.49,-1.79 L -1.48,-1.90 L -1.47,-2.01 L -1.45,-2.11 L -1.42,-2.22 L -1.38,-2.33 L -1.34,-2.43 L -1.29,-2.52 L -1.23,-2.62 L -1.16,-2.71 L -1.09,-2.79 L -1.01,-2.87 L -0.93,-2.94 L -0.84,-3.01 L -0.75,-3.07 L -0.65,-3.12 L -0.55,-3.17 L -0.45,-3.21 L -0.34,-3.24 L -0.23,-3.26 L -0.12,-3.28 L -0.01,-3.29 L 0.10,-3.29 L 0.21,-3.28 L 0.32,-3.26 L 0.43,-3.24 L 0.53,-3.21 L 0.63,-3.17 L 0.73,-3.12 L 0.83,-3.07 L 0.92,-3.01 L 1.01,-2.94 L 1.09,-2.87 L 1.17,-2.79 L 1.24,-2.70 L 1.31,-2.61 L 1.37,-2.52 L 1.42,-2.42 L 1.46,-2.32 L 1.50,-2.21 L 1.53,-2.11 L 1.55,-2.00 L 1.56,-1.89 L 1.57,-1.78 L 1.56,-1.67 L 1.55,-1.56 L 1.54,-1.45 L 1.51,-1.34 L 1.48,-1.24 L 1.43,-1.13 L 1.39,-1.03 L 1.33,-0.95 " />
    <circle class="pivotPoint layout" fill="none" cx="0" cy="0" r="0.2" />
  </g>
</svg>