<?xml version="1.0" encoding="utf-8"?>
<?xml-stylesheet type='text/css' href='S401Style.css'?>
<svg version="1.2" baseProfile="tiny" style="shape-rendering:geometricPrecision; fill-rule:evenodd;" width="4.10mm" height="6.10mm" viewBox="-2.06 -6.11 4.12 6.12" xmlns="http://www.w3.org/2000/svg">
  <title>BOYISDB</title>
  <desc>Buoy isolated danger, buoy</desc>
  <metadata>
    <iho:S100SVG xmlns:iho="http://www.iho.int/SVGMetadata">
      <iho:Description iho:publisher="IEHG" iho:creationDate="2018-04-18" iho:source="" iho:format="IENC signs, Europe, SVG" iho:version="0.1" />
    </iho:S100SVG>
  </metadata>
  <g>
    <path class="fBLACK sBLACK" style="stroke-width:0.04" d="M -0.35,-2.00 L 0.21,-3.00 L 1.28,-3.00 L 1.19,-2.00 L -0.35,-2.00 Z" />
    <path class="fMIDRD sMIDRD" style="stroke-width:0.04" d="M -0.89,-1.04 L -0.35,-2.00 L 1.19,-2.00 L 1.10,-1.04 L 1.10,-1.04 L -0.89,-1.04 Z" />
    <path class="fBLACK sBLACK" style="stroke-width:0.04" d="M -0.89,-1.04 L 1.10,-1.04 L 2.05,-0.65 L 2.05,0.00 L -2.05,0.00 L -2.05,-0.65 L -0.89,-1.04 Z" />
    <circle cx="1.42" cy="-5.55" r="0.55" class="fBLACK sBLACK" style="stroke-width:0.04" />
    <circle cx="1.01" cy="-4.05" r="0.55" class="fBLACK sBLACK" style="stroke-width:0.04" />
    <path class="f0 sBLACK" style="stroke-width:0.12" d="M -2.05,0.00 L -2.05,-0.65 L -0.89,-1.04 L 0.21,-3.00 L 1.28,-3.00 L 1.10,-1.04 L 2.05,-0.65 L 2.05,0.00 L -2.05,0.00 Z" />
    <path class="f0 sBLACK" style="stroke-width:0.04" d="M -0.35,-2.00 L 1.19,-2.00 " />
    <circle class="pivotPoint layout" fill="none" cx="0" cy="0" r="0.2" />
  </g>
</svg>