<?xml version="1.0" encoding="UTF-8"?>
<?xml-stylesheet type='text/css' href='S401Style.css'?>
<svg version="1.2" baseProfile="tiny" style="shape-rendering:geometricPrecision; fill-rule:evenodd;" width="12.81mm" height="13.54mm" viewBox="-6.29 -9.73 12.83 13.56" xmlns="http://www.w3.org/2000/svg">
  <title>BOYINL01M</title>
  <desc>river buoy right-hand side of the fairway (1.B of CEVNI) - off position - missing - arial -d</desc>
  <metadata />
  <g>
    <path class="fORRED sBLACK" style="stroke-width:0.12" d="M -2.05,0.00 L -2.05,-0.65 L -1.33,-1.00 L -1.33,-2.30 L 1.33,-2.30 L 1.33,-1.00 L 2.05,-0.65 L 2.05,0.00 L -2.05,0.00 Z" />
    <path class="f0 sBLACK" style="stroke-width:0.28" d="M 2.19,-2.26 L 3.22,-0.79 L 2.05,0.89 " />
    <path class="f0 sBLACK" style="stroke-width:0.28" d="M 1.21,2.09 L -0.01,3.82 L -1.16,2.17 " />
    <path class="f0 sBLACK" style="stroke-width:0.28" d="M -1.27,-3.59 L -0.01,-5.39 L 1.24,-3.61 " />
    <path class="f0 sBLACK" style="stroke-width:0.28" d="M -2.13,0.80 L -3.24,-0.79 L -2.17,-2.31 " />
    <path class="fBLACK sBLACK" style="stroke-width:0" d="M -4.92,-8.85 L -4.96,-8.88 L -5.00,-8.91 L -5.05,-8.93 L -5.10,-8.96 L -5.16,-8.98 L -5.23,-8.99 L -5.30,-9.00 L -5.37,-9.00 L -5.41,-8.99 L -5.46,-8.99 L -5.50,-8.98 L -5.54,-8.97 L -5.58,-8.96 L -5.63,-8.95 L -5.67,-8.93 L -5.70,-8.91 L -5.74,-8.89 L -5.78,-8.86 L -5.81,-8.83 L -5.84,-8.80 L -5.87,-8.77 L -5.90,-8.74 L -5.93,-8.71 L -5.95,-8.67 L -5.95,-8.95 L -6.28,-8.95 L -6.28,-6.89 L -5.94,-6.89 L -5.94,-8.11 L -5.94,-8.16 L -5.93,-8.21 L -5.93,-8.25 L -5.92,-8.29 L -5.91,-8.33 L -5.90,-8.37 L -5.88,-8.41 L -5.87,-8.45 L -5.85,-8.48 L -5.82,-8.52 L -5.79,-8.56 L -5.74,-8.59 L -5.70,-8.63 L -5.65,-8.65 L -5.60,-8.67 L -5.54,-8.68 L -5.49,-8.69 L -5.43,-8.69 L -5.39,-8.69 L -5.35,-8.69 L -5.31,-8.68 L -5.27,-8.67 L -5.23,-8.65 L -5.20,-8.62 L -5.17,-8.59 L -4.92,-8.85 Z" />
    <path class="fBLACK sBLACK" style="stroke-width:0" d="M -5.17,-8.59 L -5.14,-8.56 L -5.12,-8.53 L -5.10,-8.47 L -5.09,-8.40 L -5.08,-8.34 L -5.08,-8.28 L -5.08,-6.89 L -4.72,-6.89 L -4.72,-8.11 L -4.72,-8.16 L -4.72,-8.21 L -4.71,-8.27 L -4.70,-8.32 L -4.69,-8.36 L -4.68,-8.40 L -4.66,-8.43 L -4.65,-8.47 L -4.62,-8.50 L -4.60,-8.53 L -4.57,-8.56 L -4.55,-8.59 L -4.51,-8.61 L -4.47,-8.63 L -4.43,-8.65 L -4.39,-8.67 L -4.35,-8.68 L -4.31,-8.69 L -4.27,-8.69 L -4.22,-8.69 L -4.17,-8.69 L -4.11,-8.68 L -4.06,-8.66 L -4.01,-8.64 L -3.99,-8.62 L -3.96,-8.60 L -3.94,-8.58 L -3.92,-8.55 L -3.91,-8.52 L -3.89,-8.50 L -3.88,-8.47 L -3.88,-8.44 L -3.87,-8.37 L -3.86,-8.30 L -3.86,-8.23 L -3.86,-8.15 L -3.86,-6.89 L -3.52,-6.89 L -3.52,-8.13 L -3.52,-8.23 L -3.52,-8.32 L -3.52,-8.42 L -3.53,-8.52 L -3.54,-8.56 L -3.55,-8.59 L -3.56,-8.63 L -3.57,-8.66 L -3.58,-8.70 L -3.60,-8.73 L -3.62,-8.76 L -3.65,-8.79 L -3.67,-8.82 L -3.70,-8.84 L -3.73,-8.87 L -3.76,-8.89 L -3.79,-8.91 L -3.82,-8.93 L -3.85,-8.94 L -3.89,-8.96 L -3.96,-8.98 L -4.03,-8.99 L -4.10,-8.99 L -4.17,-9.00 L -4.21,-8.99 L -4.26,-8.99 L -4.30,-8.99 L -4.35,-8.98 L -4.39,-8.97 L -4.44,-8.95 L -4.48,-8.94 L -4.52,-8.92 L -4.56,-8.89 L -4.60,-8.87 L -4.64,-8.84 L -4.67,-8.81 L -4.70,-8.78 L -4.74,-8.75 L -4.76,-8.72 L -4.79,-8.68 L -4.82,-8.73 L -4.85,-8.77 L -4.88,-8.81 L -4.92,-8.85 L -5.17,-8.59 Z" />
    <path class="fBLACK sBLACK" style="stroke-width:0" d="M -3.00,-9.72 L -3.00,-9.32 L -2.66,-9.32 L -2.66,-9.72 L -3.00,-9.72 Z" />
    <path class="fBLACK sBLACK" style="stroke-width:0" d="M -3.00,-8.95 L -3.00,-6.89 L -2.66,-6.89 L -2.66,-8.95 L -3.00,-8.95 Z" />
    <path class="fBLACK sBLACK" style="stroke-width:0" d="M -1.80,-8.27 L -1.82,-8.28 L -1.83,-8.30 L -1.85,-8.32 L -1.86,-8.35 L -1.87,-8.37 L -1.87,-8.40 L -1.87,-8.43 L -1.87,-8.46 L -1.87,-8.49 L -1.86,-8.52 L -1.84,-8.55 L -1.82,-8.58 L -1.80,-8.61 L -1.78,-8.63 L -1.75,-8.65 L -1.72,-8.67 L -1.68,-8.68 L -1.65,-8.69 L -1.61,-8.70 L -1.57,-8.71 L -1.54,-8.72 L -1.50,-8.72 L -1.46,-8.72 L -1.39,-8.72 L -1.31,-8.71 L -1.24,-8.69 L -1.17,-8.66 L -1.14,-8.65 L -1.11,-8.63 L -1.09,-8.61 L -1.06,-8.59 L -1.04,-8.57 L -1.03,-8.54 L -1.01,-8.51 L -1.00,-8.49 L -0.98,-8.43 L -0.97,-8.37 L -0.63,-8.37 L -0.63,-8.43 L -0.64,-8.48 L -0.65,-8.53 L -0.67,-8.58 L -0.69,-8.64 L -0.72,-8.69 L -0.75,-8.74 L -0.80,-8.79 L -0.84,-8.83 L -0.89,-8.86 L -0.94,-8.90 L -1.00,-8.92 L -1.05,-8.94 L -1.10,-8.96 L -1.16,-8.98 L -1.21,-8.99 L -1.27,-9.00 L -1.33,-9.01 L -1.38,-9.01 L -1.44,-9.01 L -1.50,-9.01 L -1.56,-9.01 L -1.61,-9.00 L -1.67,-8.99 L -1.73,-8.98 L -1.79,-8.96 L -1.84,-8.94 L -1.89,-8.92 L -1.93,-8.90 L -1.96,-8.88 L -2.00,-8.86 L -2.03,-8.84 L -2.06,-8.81 L -2.08,-8.78 L -2.11,-8.75 L -2.13,-8.72 L -2.15,-8.68 L -2.17,-8.65 L -2.18,-8.61 L -2.19,-8.57 L -2.20,-8.54 L -2.21,-8.50 L -2.22,-8.46 L -2.22,-8.42 L -2.22,-8.36 L -2.21,-8.30 L -2.20,-8.24 L -2.18,-8.19 L -2.16,-8.15 L -2.13,-8.10 L -2.10,-8.06 L -2.06,-8.02 L -2.02,-7.99 L -1.97,-7.96 L -1.80,-8.27 Z" />
    <path class="fBLACK sBLACK" style="stroke-width:0" d="M -1.43,-6.83 L -1.34,-6.84 L -1.25,-6.84 L -1.17,-6.85 L -1.09,-6.87 L -1.01,-6.90 L -0.93,-6.93 L -0.89,-6.95 L -0.85,-6.97 L -0.82,-7.00 L -0.78,-7.03 L -0.75,-7.06 L -0.72,-7.09 L -0.69,-7.13 L -0.67,-7.17 L -0.64,-7.21 L -0.62,-7.25 L -0.61,-7.29 L -0.59,-7.33 L -0.58,-7.38 L -0.58,-7.42 L -0.57,-7.47 L -0.57,-7.51 L -0.58,-7.58 L -0.59,-7.66 L -0.60,-7.70 L -0.62,-7.74 L -0.63,-7.78 L -0.66,-7.81 L -0.68,-7.85 L -0.71,-7.88 L -0.74,-7.91 L -0.78,-7.93 L -0.83,-7.97 L -0.89,-8.00 L -0.95,-8.02 L -1.01,-8.04 L -1.21,-8.10 L -1.55,-8.17 L -1.60,-8.19 L -1.66,-8.20 L -1.72,-8.23 L -1.77,-8.25 L -1.80,-8.27 L -1.97,-7.96 L -1.89,-7.92 L -1.81,-7.89 L -1.72,-7.86 L -1.63,-7.84 L -1.24,-7.74 L -1.12,-7.71 L -1.09,-7.70 L -1.06,-7.69 L -1.03,-7.67 L -1.01,-7.65 L -0.99,-7.64 L -0.97,-7.62 L -0.96,-7.60 L -0.95,-7.58 L -0.94,-7.55 L -0.93,-7.53 L -0.93,-7.51 L -0.92,-7.48 L -0.93,-7.44 L -0.93,-7.41 L -0.94,-7.37 L -0.96,-7.34 L -0.97,-7.31 L -1.00,-7.28 L -1.02,-7.25 L -1.05,-7.23 L -1.08,-7.21 L -1.11,-7.19 L -1.18,-7.17 L -1.26,-7.15 L -1.33,-7.14 L -1.41,-7.14 L -1.43,-6.83 Z" />
    <path class="fBLACK sBLACK" style="stroke-width:0" d="M -1.41,-7.14 L -1.46,-7.14 L -1.52,-7.14 L -1.57,-7.15 L -1.62,-7.16 L -1.67,-7.18 L -1.72,-7.20 L -1.76,-7.22 L -1.80,-7.25 L -1.83,-7.29 L -1.86,-7.33 L -1.89,-7.37 L -1.91,-7.41 L -1.93,-7.49 L -1.94,-7.56 L -2.28,-7.56 L -2.28,-7.52 L -2.27,-7.47 L -2.27,-7.42 L -2.26,-7.38 L -2.25,-7.34 L -2.23,-7.29 L -2.22,-7.25 L -2.20,-7.21 L -2.16,-7.15 L -2.12,-7.09 L -2.08,-7.04 L -2.03,-7.00 L -1.97,-6.96 L -1.91,-6.92 L -1.85,-6.89 L -1.78,-6.87 L -1.69,-6.85 L -1.61,-6.84 L -1.52,-6.83 L -1.43,-6.83 L -1.41,-7.14 Z" />
    <path class="fBLACK sBLACK" style="stroke-width:0" d="M 0.17,-8.27 L 0.15,-8.28 L 0.13,-8.30 L 0.12,-8.32 L 0.11,-8.35 L 0.10,-8.37 L 0.09,-8.40 L 0.09,-8.43 L 0.09,-8.46 L 0.10,-8.49 L 0.11,-8.52 L 0.12,-8.55 L 0.14,-8.58 L 0.16,-8.61 L 0.19,-8.63 L 0.22,-8.65 L 0.25,-8.67 L 0.28,-8.68 L 0.32,-8.69 L 0.35,-8.70 L 0.39,-8.71 L 0.43,-8.72 L 0.46,-8.72 L 0.50,-8.72 L 0.58,-8.72 L 0.65,-8.71 L 0.73,-8.69 L 0.80,-8.66 L 0.82,-8.65 L 0.85,-8.63 L 0.88,-8.61 L 0.90,-8.59 L 0.92,-8.57 L 0.94,-8.54 L 0.96,-8.51 L 0.97,-8.49 L 0.98,-8.43 L 0.99,-8.37 L 1.33,-8.37 L 1.33,-8.43 L 1.32,-8.48 L 1.31,-8.53 L 1.30,-8.58 L 1.27,-8.64 L 1.25,-8.69 L 1.21,-8.74 L 1.17,-8.79 L 1.12,-8.83 L 1.08,-8.86 L 1.02,-8.90 L 0.97,-8.92 L 0.92,-8.94 L 0.86,-8.96 L 0.81,-8.98 L 0.75,-8.99 L 0.70,-9.00 L 0.64,-9.01 L 0.58,-9.01 L 0.53,-9.01 L 0.47,-9.01 L 0.41,-9.01 L 0.35,-9.00 L 0.29,-8.99 L 0.23,-8.98 L 0.18,-8.96 L 0.12,-8.94 L 0.07,-8.92 L 0.03,-8.90 L 0.00,-8.88 L -0.03,-8.86 L -0.06,-8.84 L -0.09,-8.81 L -0.12,-8.78 L -0.14,-8.75 L -0.17,-8.72 L -0.19,-8.68 L -0.20,-8.65 L -0.22,-8.61 L -0.23,-8.57 L -0.24,-8.54 L -0.25,-8.50 L -0.25,-8.46 L -0.25,-8.42 L -0.25,-8.36 L -0.25,-8.30 L -0.23,-8.24 L -0.22,-8.19 L -0.19,-8.15 L -0.17,-8.10 L -0.13,-8.06 L -0.10,-8.02 L -0.05,-7.99 L -0.01,-7.96 L 0.17,-8.27 Z" />
    <path class="fBLACK sBLACK" style="stroke-width:0" d="M 0.53,-6.83 L 0.62,-6.84 L 0.71,-6.84 L 0.80,-6.85 L 0.88,-6.87 L 0.96,-6.90 L 1.03,-6.93 L 1.07,-6.95 L 1.11,-6.97 L 1.15,-7.00 L 1.18,-7.03 L 1.22,-7.06 L 1.25,-7.09 L 1.27,-7.13 L 1.30,-7.17 L 1.32,-7.21 L 1.34,-7.25 L 1.36,-7.29 L 1.37,-7.33 L 1.38,-7.38 L 1.39,-7.42 L 1.39,-7.47 L 1.39,-7.51 L 1.39,-7.58 L 1.37,-7.66 L 1.36,-7.70 L 1.35,-7.74 L 1.33,-7.78 L 1.31,-7.81 L 1.28,-7.85 L 1.25,-7.88 L 1.22,-7.91 L 1.19,-7.93 L 1.13,-7.97 L 1.08,-8.00 L 1.02,-8.02 L 0.96,-8.04 L 0.76,-8.10 L 0.42,-8.17 L 0.36,-8.19 L 0.30,-8.20 L 0.25,-8.23 L 0.19,-8.25 L 0.17,-8.27 L -0.01,-7.96 L 0.07,-7.92 L 0.16,-7.89 L 0.24,-7.86 L 0.33,-7.84 L 0.72,-7.74 L 0.85,-7.71 L 0.88,-7.70 L 0.91,-7.69 L 0.93,-7.67 L 0.96,-7.65 L 0.98,-7.64 L 0.99,-7.62 L 1.01,-7.60 L 1.02,-7.58 L 1.03,-7.55 L 1.03,-7.53 L 1.04,-7.51 L 1.04,-7.48 L 1.04,-7.44 L 1.03,-7.41 L 1.02,-7.37 L 1.01,-7.34 L 0.99,-7.31 L 0.97,-7.28 L 0.94,-7.25 L 0.92,-7.23 L 0.88,-7.21 L 0.85,-7.19 L 0.78,-7.17 L 0.71,-7.15 L 0.63,-7.14 L 0.55,-7.14 L 0.53,-6.83 Z" />
    <path class="fBLACK sBLACK" style="stroke-width:0" d="M 0.55,-7.14 L 0.50,-7.14 L 0.45,-7.14 L 0.39,-7.15 L 0.34,-7.16 L 0.29,-7.18 L 0.25,-7.20 L 0.21,-7.22 L 0.17,-7.25 L 0.13,-7.29 L 0.10,-7.33 L 0.08,-7.37 L 0.06,-7.41 L 0.04,-7.49 L 0.03,-7.56 L -0.31,-7.56 L -0.31,-7.52 L -0.31,-7.47 L -0.30,-7.42 L -0.29,-7.38 L -0.28,-7.34 L -0.27,-7.29 L -0.25,-7.25 L -0.23,-7.21 L -0.20,-7.15 L -0.16,-7.09 L -0.11,-7.04 L -0.06,-7.00 L -0.01,-6.96 L 0.05,-6.92 L 0.12,-6.89 L 0.18,-6.87 L 0.27,-6.85 L 0.36,-6.84 L 0.44,-6.83 L 0.53,-6.83 L 0.55,-7.14 Z" />
    <path class="fBLACK sBLACK" style="stroke-width:0" d="M 1.80,-9.72 L 1.80,-9.32 L 2.14,-9.32 L 2.14,-9.72 L 1.80,-9.72 Z" />
    <path class="fBLACK sBLACK" style="stroke-width:0" d="M 1.80,-8.95 L 1.80,-6.89 L 2.14,-6.89 L 2.14,-8.95 L 1.80,-8.95 Z" />
    <path class="fBLACK sBLACK" style="stroke-width:0" d="M 4.34,-8.13 L 4.34,-8.23 L 4.34,-8.32 L 4.33,-8.42 L 4.32,-8.52 L 4.31,-8.57 L 4.29,-8.62 L 4.27,-8.67 L 4.25,-8.72 L 4.22,-8.76 L 4.19,-8.80 L 4.15,-8.84 L 4.11,-8.87 L 4.07,-8.90 L 4.03,-8.92 L 3.98,-8.94 L 3.93,-8.96 L 3.86,-8.98 L 3.78,-8.99 L 3.70,-8.99 L 3.62,-9.00 L 3.55,-8.99 L 3.47,-8.98 L 3.40,-8.97 L 3.33,-8.94 L 3.28,-8.92 L 3.23,-8.89 L 3.18,-8.86 L 3.14,-8.83 L 3.10,-8.79 L 3.06,-8.75 L 3.02,-8.71 L 2.99,-8.66 L 2.99,-8.95 L 2.66,-8.95 L 2.66,-6.89 L 3.01,-6.89 L 3.01,-8.06 L 3.01,-8.14 L 3.02,-8.21 L 3.02,-8.26 L 3.04,-8.32 L 3.05,-8.37 L 3.08,-8.42 L 3.11,-8.46 L 3.14,-8.50 L 3.17,-8.54 L 3.22,-8.58 L 3.26,-8.61 L 3.30,-8.63 L 3.35,-8.65 L 3.40,-8.67 L 3.44,-8.68 L 3.49,-8.69 L 3.54,-8.69 L 3.59,-8.69 L 3.63,-8.69 L 3.66,-8.69 L 3.70,-8.69 L 3.73,-8.68 L 3.76,-8.67 L 3.79,-8.66 L 3.82,-8.64 L 3.85,-8.62 L 3.87,-8.60 L 3.89,-8.58 L 3.91,-8.55 L 3.93,-8.53 L 3.96,-8.47 L 3.97,-8.41 L 3.98,-8.34 L 3.99,-8.28 L 3.99,-6.89 L 4.34,-6.89 L 4.34,-8.13 Z" />
    <path class="fBLACK sBLACK" style="stroke-width:0" d="M 6.53,-6.94 L 6.53,-8.95 L 6.19,-8.95 L 6.19,-8.72 L 6.14,-8.78 L 6.08,-8.84 L 6.02,-8.89 L 5.95,-8.94 L 5.90,-8.96 L 5.86,-8.97 L 5.81,-8.99 L 5.77,-9.00 L 5.72,-9.01 L 5.67,-9.01 L 5.62,-9.01 L 5.58,-9.01 L 5.52,-9.01 L 5.46,-9.00 L 5.40,-8.99 L 5.35,-8.98 L 5.29,-8.96 L 5.24,-8.93 L 5.19,-8.91 L 5.14,-8.87 L 5.09,-8.83 L 5.03,-8.78 L 4.99,-8.72 L 4.94,-8.67 L 4.90,-8.61 L 4.87,-8.54 L 4.84,-8.48 L 4.81,-8.41 L 4.80,-8.35 L 4.78,-8.29 L 4.77,-8.23 L 4.76,-8.17 L 4.75,-8.11 L 4.74,-8.05 L 4.74,-7.99 L 4.74,-7.93 L 4.74,-7.86 L 5.10,-7.89 L 5.10,-7.95 L 5.10,-8.01 L 5.10,-8.06 L 5.11,-8.12 L 5.12,-8.17 L 5.13,-8.23 L 5.15,-8.28 L 5.16,-8.34 L 5.18,-8.39 L 5.20,-8.43 L 5.22,-8.47 L 5.25,-8.50 L 5.27,-8.54 L 5.30,-8.57 L 5.33,-8.60 L 5.37,-8.62 L 5.40,-8.65 L 5.46,-8.67 L 5.52,-8.69 L 5.58,-8.70 L 5.64,-8.70 L 5.71,-8.70 L 5.77,-8.69 L 5.83,-8.68 L 5.89,-8.65 L 5.93,-8.63 L 5.96,-8.60 L 6.00,-8.57 L 6.03,-8.54 L 6.06,-8.51 L 6.08,-8.47 L 6.10,-8.43 L 6.12,-8.39 L 6.15,-8.32 L 6.17,-8.25 L 6.18,-8.18 L 6.19,-8.11 L 6.20,-8.02 L 6.20,-7.92 L 6.53,-6.94 Z" />
    <path class="fBLACK sBLACK" style="stroke-width:0" d="M 6.20,-7.83 L 6.19,-7.75 L 6.18,-7.67 L 6.17,-7.59 L 6.15,-7.52 L 6.13,-7.45 L 6.10,-7.38 L 6.06,-7.32 L 6.02,-7.28 L 5.98,-7.24 L 5.94,-7.21 L 5.89,-7.18 L 5.83,-7.16 L 5.78,-7.14 L 5.72,-7.14 L 5.67,-7.14 L 5.60,-7.14 L 5.54,-7.15 L 5.48,-7.16 L 5.42,-7.19 L 5.38,-7.21 L 5.34,-7.24 L 5.31,-7.27 L 5.28,-7.31 L 5.25,-7.34 L 5.22,-7.38 L 5.20,-7.42 L 5.18,-7.46 L 5.16,-7.52 L 5.14,-7.58 L 5.13,-7.64 L 5.11,-7.70 L 5.11,-7.76 L 5.10,-7.83 L 5.10,-7.89 L 4.74,-7.86 L 4.74,-7.80 L 4.75,-7.74 L 4.76,-7.68 L 4.77,-7.60 L 4.79,-7.52 L 4.81,-7.44 L 4.84,-7.37 L 4.87,-7.30 L 4.91,-7.23 L 4.96,-7.16 L 5.01,-7.10 L 5.04,-7.07 L 5.06,-7.04 L 5.10,-7.01 L 5.13,-6.98 L 5.16,-6.96 L 5.20,-6.93 L 5.24,-6.91 L 5.27,-6.89 L 5.35,-6.87 L 5.44,-6.84 L 5.52,-6.83 L 5.60,-6.83 L 5.65,-6.83 L 5.69,-6.83 L 5.73,-6.84 L 5.77,-6.84 L 5.81,-6.86 L 5.85,-6.87 L 5.89,-6.88 L 5.93,-6.90 L 5.97,-6.92 L 6.00,-6.94 L 6.04,-6.97 L 6.07,-6.99 L 6.10,-7.02 L 6.14,-7.05 L 6.16,-7.08 L 6.19,-7.11 L 6.19,-6.86 L 6.53,-6.94 L 6.20,-7.92 L 6.20,-7.83 Z" />
    <path class="fBLACK sBLACK" style="stroke-width:0" d="M 6.19,-6.86 L 6.19,-6.76 L 6.19,-6.71 L 6.17,-6.65 L 6.16,-6.59 L 6.13,-6.54 L 6.11,-6.51 L 6.09,-6.48 L 6.06,-6.45 L 6.03,-6.43 L 6.00,-6.41 L 5.97,-6.39 L 5.93,-6.38 L 5.90,-6.36 L 5.84,-6.35 L 5.77,-6.34 L 5.71,-6.33 L 5.64,-6.33 L 5.56,-6.33 L 5.49,-6.34 L 5.43,-6.35 L 5.38,-6.36 L 5.33,-6.38 L 5.28,-6.40 L 5.25,-6.42 L 5.23,-6.45 L 5.20,-6.48 L 5.18,-6.51 L 5.17,-6.54 L 5.16,-6.58 L 5.15,-6.62 L 5.15,-6.65 L 4.82,-6.65 L 4.82,-6.58 L 4.82,-6.54 L 4.83,-6.50 L 4.84,-6.46 L 4.86,-6.42 L 4.87,-6.38 L 4.89,-6.35 L 4.92,-6.31 L 4.94,-6.28 L 4.98,-6.25 L 5.02,-6.21 L 5.06,-6.18 L 5.10,-6.15 L 5.15,-6.13 L 5.20,-6.11 L 5.24,-6.09 L 5.29,-6.07 L 5.39,-6.05 L 5.49,-6.04 L 5.58,-6.04 L 5.68,-6.04 L 5.78,-6.04 L 5.88,-6.05 L 5.98,-6.08 L 6.07,-6.10 L 6.11,-6.12 L 6.16,-6.14 L 6.20,-6.16 L 6.23,-6.19 L 6.27,-6.22 L 6.31,-6.25 L 6.34,-6.28 L 6.37,-6.31 L 6.40,-6.35 L 6.42,-6.39 L 6.44,-6.43 L 6.46,-6.47 L 6.48,-6.51 L 6.49,-6.56 L 6.50,-6.60 L 6.51,-6.65 L 6.52,-6.79 L 6.53,-6.94 L 6.19,-6.86 Z" />
    <path class="f0 sBLACK" style="stroke-width:0.28" d="M -1.11,-3.48 L -0.01,-5.05 L 1.08,-3.49 " />
    <path class="f0 sBLACK" style="stroke-width:0.28" d="M -1.96,0.68 L -2.99,-0.79 L -2.00,-2.20 " />
    <path class="f0 sBLACK" style="stroke-width:0.28" d="M 2.03,-2.14 L 2.98,-0.79 L 1.88,0.77 " />
    <path class="f0 sBLACK" style="stroke-width:0.28" d="M 1.04,1.97 L -0.01,3.47 L -1.00,2.05 " />
    <circle class="pivotPoint layout" fill="none" cx="0" cy="0" r="0.2" />
  </g>
</svg>