<?xml version="1.0" encoding="UTF-8"?>
<?xml-stylesheet type='text/css' href='S401Style.css'?>
<svg version="1.2" baseProfile="tiny" style="shape-rendering:geometricPrecision; fill-rule:evenodd;" width="14.84mm" height="13.61mm" viewBox="-7.34 -9.80 14.86 13.63" xmlns="http://www.w3.org/2000/svg">
  <title>BOYINL01F</title>
  <desc>river buoy right-hand side of the fairway (1.B of CEVNI) - off position - arial + black wt2 -d</desc>
  <metadata />
  <g>
    <path class="fORRED sBLACK" style="stroke-width:0.12" d="M -2.05,0.00 L -2.05,-0.65 L -1.33,-1.00 L -1.33,-2.30 L 1.33,-2.30 L 1.33,-1.00 L 2.05,-0.65 L 2.05,0.00 L -2.05,0.00 Z" />
    <path class="f0 sBLACK" style="stroke-width:0.28" d="M -3.24,-0.79 L -0.01,-5.39 L 3.22,-0.79 L -0.01,3.82 L -3.24,-0.79 Z" />
    <path class="fBLACK sBLACK" style="stroke-width:0.04" d="M -6.00,-7.14 L -6.07,-7.15 L -6.15,-7.15 L -6.22,-7.17 L -6.30,-7.19 L -6.37,-7.22 L -6.43,-7.25 L -6.50,-7.29 L -6.56,-7.33 L -6.60,-7.37 L -6.63,-7.40 L -6.67,-7.43 L -6.70,-7.47 L -6.73,-7.51 L -6.76,-7.55 L -6.78,-7.60 L -6.81,-7.64 L -6.84,-7.72 L -6.86,-7.80 L -6.89,-7.88 L -6.91,-7.96 L -6.92,-8.05 L -6.93,-8.13 L -6.93,-8.22 L -6.93,-8.30 L -6.94,-8.39 L -7.33,-8.40 L -7.33,-8.30 L -7.33,-8.21 L -7.33,-8.12 L -7.32,-8.03 L -7.31,-7.93 L -7.30,-7.87 L -7.28,-7.80 L -7.26,-7.73 L -7.24,-7.66 L -7.22,-7.60 L -7.19,-7.53 L -7.16,-7.47 L -7.13,-7.41 L -7.09,-7.35 L -7.05,-7.30 L -7.01,-7.24 L -6.96,-7.19 L -6.91,-7.14 L -6.86,-7.10 L -6.80,-7.06 L -6.75,-7.02 L -6.69,-6.98 L -6.63,-6.95 L -6.56,-6.92 L -6.50,-6.89 L -6.44,-6.88 L -6.38,-6.86 L -6.31,-6.84 L -6.25,-6.83 L -6.19,-6.83 L -6.12,-6.82 L -6.06,-6.82 L -6.00,-6.82 L -6.00,-7.14 Z" />
    <path class="fBLACK sBLACK" style="stroke-width:0.04" d="M -6.00,-6.82 L -5.93,-6.82 L -5.86,-6.82 L -5.79,-6.83 L -5.72,-6.84 L -5.62,-6.85 L -5.53,-6.88 L -5.44,-6.91 L -5.36,-6.95 L -5.27,-7.00 L -5.19,-7.05 L -5.12,-7.11 L -5.05,-7.18 L -4.98,-7.26 L -4.91,-7.34 L -4.86,-7.43 L -4.81,-7.53 L -4.77,-7.62 L -4.73,-7.73 L -4.71,-7.83 L -4.69,-7.93 L -4.68,-8.03 L -4.67,-8.12 L -4.66,-8.21 L -5.06,-8.22 L -5.06,-8.13 L -5.07,-8.05 L -5.09,-7.96 L -5.10,-7.88 L -5.13,-7.80 L -5.15,-7.72 L -5.19,-7.64 L -5.21,-7.60 L -5.23,-7.55 L -5.26,-7.51 L -5.29,-7.47 L -5.32,-7.43 L -5.36,-7.40 L -5.39,-7.36 L -5.43,-7.33 L -5.47,-7.30 L -5.51,-7.28 L -5.55,-7.25 L -5.60,-7.23 L -5.64,-7.21 L -5.69,-7.19 L -5.74,-7.18 L -5.78,-7.17 L -5.84,-7.16 L -5.89,-7.15 L -5.94,-7.15 L -6.00,-7.14 L -6.00,-6.82 Z" />
    <path class="fBLACK sBLACK" style="stroke-width:0.04" d="M -6.00,-9.46 L -5.92,-9.46 L -5.84,-9.45 L -5.77,-9.44 L -5.69,-9.41 L -5.62,-9.39 L -5.55,-9.35 L -5.49,-9.32 L -5.43,-9.27 L -5.39,-9.24 L -5.35,-9.21 L -5.32,-9.17 L -5.29,-9.13 L -5.26,-9.09 L -5.23,-9.05 L -5.21,-9.01 L -5.19,-8.97 L -5.15,-8.89 L -5.13,-8.81 L -5.10,-8.73 L -5.09,-8.64 L -5.07,-8.56 L -5.06,-8.47 L -5.06,-8.39 L -5.06,-8.30 L -5.06,-8.22 L -4.66,-8.21 L -4.66,-8.30 L -4.66,-8.40 L -4.67,-8.49 L -4.68,-8.58 L -4.69,-8.67 L -4.70,-8.74 L -4.71,-8.81 L -4.73,-8.88 L -4.75,-8.95 L -4.78,-9.02 L -4.81,-9.09 L -4.84,-9.15 L -4.88,-9.21 L -4.93,-9.30 L -5.00,-9.38 L -5.07,-9.45 L -5.14,-9.52 L -5.22,-9.58 L -5.31,-9.63 L -5.40,-9.68 L -5.49,-9.71 L -5.55,-9.73 L -5.62,-9.75 L -5.68,-9.77 L -5.74,-9.78 L -5.80,-9.78 L -5.87,-9.79 L -5.93,-9.79 L -6.00,-9.79 L -6.00,-9.46 Z" />
    <path class="fBLACK sBLACK" style="stroke-width:0.04" d="M -6.00,-9.79 L -6.07,-9.79 L -6.14,-9.79 L -6.21,-9.78 L -6.28,-9.77 L -6.37,-9.75 L -6.46,-9.73 L -6.55,-9.69 L -6.64,-9.65 L -6.72,-9.61 L -6.80,-9.55 L -6.87,-9.49 L -6.94,-9.43 L -7.01,-9.35 L -7.08,-9.26 L -7.14,-9.17 L -7.19,-9.08 L -7.23,-8.98 L -7.26,-8.88 L -7.29,-8.78 L -7.31,-8.67 L -7.32,-8.58 L -7.33,-8.49 L -7.33,-8.40 L -6.94,-8.39 L -6.93,-8.47 L -6.92,-8.56 L -6.91,-8.64 L -6.89,-8.73 L -6.86,-8.81 L -6.84,-8.89 L -6.81,-8.97 L -6.78,-9.01 L -6.76,-9.05 L -6.73,-9.10 L -6.70,-9.14 L -6.67,-9.17 L -6.64,-9.21 L -6.60,-9.24 L -6.56,-9.27 L -6.53,-9.30 L -6.48,-9.33 L -6.44,-9.35 L -6.40,-9.38 L -6.35,-9.40 L -6.31,-9.41 L -6.26,-9.43 L -6.21,-9.44 L -6.16,-9.45 L -6.10,-9.45 L -6.05,-9.46 L -6.00,-9.46 L -6.00,-9.79 Z" />
    <path class="fBLACK sBLACK" style="stroke-width:0.04" d="M -3.36,-9.74 L -3.43,-9.75 L -3.51,-9.76 L -3.59,-9.76 L -3.67,-9.76 L -3.72,-9.76 L -3.78,-9.74 L -3.83,-9.73 L -3.89,-9.70 L -3.93,-9.68 L -3.97,-9.64 L -4.00,-9.61 L -4.03,-9.57 L -4.05,-9.53 L -4.07,-9.49 L -4.08,-9.45 L -4.09,-9.41 L -4.10,-9.37 L -4.10,-9.33 L -4.10,-9.29 L -4.10,-9.25 L -4.10,-8.95 L -4.47,-8.95 L -4.47,-8.67 L -4.10,-8.67 L -4.10,-6.89 L -3.75,-6.89 L -3.75,-8.67 L -3.36,-8.67 L -3.36,-8.95 L -3.75,-8.95 L -3.75,-9.12 L -3.75,-9.17 L -3.75,-9.21 L -3.75,-9.26 L -3.74,-9.31 L -3.73,-9.33 L -3.71,-9.35 L -3.70,-9.38 L -3.67,-9.39 L -3.63,-9.42 L -3.59,-9.43 L -3.55,-9.44 L -3.50,-9.44 L -3.40,-9.44 L -3.36,-9.43 L -3.36,-9.74 Z" />
    <path class="fBLACK sBLACK" style="stroke-width:0.04" d="M -2.26,-9.74 L -2.34,-9.75 L -2.42,-9.76 L -2.50,-9.76 L -2.58,-9.76 L -2.63,-9.76 L -2.69,-9.74 L -2.74,-9.73 L -2.80,-9.70 L -2.84,-9.68 L -2.88,-9.64 L -2.91,-9.61 L -2.94,-9.57 L -2.96,-9.53 L -2.97,-9.49 L -2.99,-9.45 L -3.00,-9.41 L -3.00,-9.37 L -3.01,-9.33 L -3.01,-9.29 L -3.01,-9.25 L -3.01,-8.95 L -3.38,-8.95 L -3.38,-8.67 L -3.01,-8.67 L -3.01,-6.89 L -2.66,-6.89 L -2.66,-8.67 L -2.26,-8.67 L -2.26,-8.95 L -2.66,-8.95 L -2.66,-9.12 L -2.66,-9.17 L -2.66,-9.21 L -2.65,-9.26 L -2.65,-9.31 L -2.64,-9.33 L -2.62,-9.35 L -2.60,-9.38 L -2.58,-9.39 L -2.54,-9.42 L -2.50,-9.43 L -2.46,-9.44 L -2.41,-9.44 L -2.30,-9.44 L -2.26,-9.43 L -2.26,-9.74 Z" />
    <path class="fBLACK sBLACK" style="stroke-width:0.04" d="M 0.87,-8.90 L 0.87,-8.84 L 0.87,-8.79 L 0.85,-8.73 L 0.83,-8.68 L 0.82,-8.64 L 0.79,-8.61 L 0.77,-8.57 L 0.74,-8.54 L 0.71,-8.52 L 0.67,-8.50 L 0.64,-8.48 L 0.60,-8.46 L 0.55,-8.45 L 0.50,-8.44 L 0.45,-8.43 L 0.40,-8.43 L 0.22,-8.42 L -0.48,-8.42 L -0.48,-8.08 L 0.15,-8.08 L 0.27,-8.08 L 0.38,-8.09 L 0.50,-8.09 L 0.61,-8.10 L 0.66,-8.11 L 0.71,-8.12 L 0.76,-8.14 L 0.81,-8.16 L 0.85,-8.18 L 0.90,-8.20 L 0.94,-8.23 L 0.98,-8.26 L 1.02,-8.29 L 1.05,-8.32 L 1.08,-8.36 L 1.12,-8.40 L 1.14,-8.44 L 1.17,-8.49 L 1.19,-8.53 L 1.21,-8.57 L 1.24,-8.66 L 1.25,-8.74 L 1.26,-8.82 L 1.27,-8.91 L 0.87,-8.90 Z" />
    <path class="fBLACK sBLACK" style="stroke-width:0.04" d="M 1.27,-8.91 L 1.26,-9.00 L 1.25,-9.09 L 1.24,-9.15 L 1.22,-9.21 L 1.20,-9.26 L 1.17,-9.32 L 1.14,-9.37 L 1.11,-9.43 L 1.07,-9.47 L 1.02,-9.52 L 0.98,-9.55 L 0.93,-9.59 L 0.88,-9.62 L 0.82,-9.64 L 0.77,-9.67 L 0.71,-9.68 L 0.65,-9.69 L 0.60,-9.70 L 0.48,-9.71 L 0.36,-9.72 L 0.24,-9.72 L 0.13,-9.72 L -0.87,-9.72 L -0.87,-6.89 L -0.48,-6.89 L -0.48,-8.08 L -0.48,-8.42 L -0.48,-9.37 L 0.25,-9.37 L 0.37,-9.37 L 0.48,-9.36 L 0.54,-9.35 L 0.59,-9.34 L 0.64,-9.32 L 0.69,-9.29 L 0.72,-9.27 L 0.75,-9.24 L 0.78,-9.21 L 0.80,-9.18 L 0.82,-9.14 L 0.84,-9.11 L 0.85,-9.07 L 0.86,-9.03 L 0.87,-8.96 L 0.87,-8.90 L 1.27,-8.91 Z" />
    <path class="fBLACK sBLACK" style="stroke-width:0.04" d="M 3.11,-7.86 L 3.11,-7.80 L 3.10,-7.74 L 3.09,-7.68 L 3.08,-7.63 L 3.07,-7.57 L 3.05,-7.51 L 3.03,-7.46 L 3.01,-7.42 L 2.99,-7.39 L 2.97,-7.35 L 2.94,-7.32 L 2.92,-7.29 L 2.89,-7.26 L 2.86,-7.24 L 2.82,-7.22 L 2.79,-7.20 L 2.75,-7.18 L 2.72,-7.17 L 2.68,-7.15 L 2.64,-7.15 L 2.60,-7.14 L 2.56,-7.14 L 2.52,-7.14 L 2.48,-7.14 L 2.44,-7.14 L 2.40,-7.14 L 2.36,-7.15 L 2.33,-7.17 L 2.29,-7.18 L 2.25,-7.20 L 2.22,-7.22 L 2.18,-7.24 L 2.15,-7.27 L 2.12,-7.29 L 2.10,-7.32 L 2.07,-7.35 L 2.05,-7.39 L 2.03,-7.42 L 2.01,-7.46 L 1.99,-7.51 L 1.97,-7.57 L 1.96,-7.63 L 1.95,-7.69 L 1.94,-7.75 L 1.93,-7.80 L 1.58,-7.80 L 1.59,-7.68 L 1.60,-7.58 L 1.63,-7.49 L 1.66,-7.39 L 1.70,-7.31 L 1.73,-7.24 L 1.78,-7.18 L 1.82,-7.12 L 1.88,-7.06 L 1.93,-7.01 L 1.99,-6.97 L 2.06,-6.93 L 2.13,-6.90 L 2.17,-6.88 L 2.22,-6.87 L 2.27,-6.85 L 2.32,-6.85 L 2.37,-6.84 L 2.42,-6.83 L 2.47,-6.83 L 2.52,-6.83 L 2.58,-6.83 L 2.63,-6.84 L 2.69,-6.84 L 2.74,-6.85 L 2.79,-6.86 L 2.83,-6.87 L 2.88,-6.89 L 2.92,-6.90 L 2.97,-6.92 L 3.01,-6.95 L 3.05,-6.97 L 3.09,-7.00 L 3.14,-7.05 L 3.20,-7.10 L 3.25,-7.16 L 3.29,-7.22 L 3.33,-7.29 L 3.36,-7.36 L 3.39,-7.43 L 3.41,-7.50 L 3.43,-7.60 L 3.45,-7.71 L 3.46,-7.81 L 3.11,-7.86 Z" />
    <path class="fBLACK sBLACK" style="stroke-width:0.04" d="M 2.52,-9.01 L 2.47,-9.01 L 2.42,-9.01 L 2.37,-9.00 L 2.32,-9.00 L 2.27,-8.99 L 2.22,-8.98 L 2.17,-8.96 L 2.13,-8.94 L 2.08,-8.92 L 2.04,-8.90 L 1.99,-8.87 L 1.95,-8.84 L 1.91,-8.81 L 1.88,-8.77 L 1.84,-8.74 L 1.81,-8.70 L 1.77,-8.66 L 1.75,-8.62 L 1.72,-8.58 L 1.69,-8.53 L 1.67,-8.49 L 1.65,-8.44 L 1.64,-8.39 L 1.62,-8.34 L 1.60,-8.24 L 1.59,-8.14 L 1.58,-8.03 L 1.58,-7.92 L 1.58,-7.80 L 1.93,-7.80 L 1.93,-7.86 L 1.93,-7.92 L 1.93,-7.98 L 1.93,-8.04 L 1.94,-8.10 L 1.95,-8.16 L 1.96,-8.22 L 1.97,-8.27 L 1.99,-8.33 L 2.01,-8.39 L 2.03,-8.42 L 2.05,-8.46 L 2.07,-8.49 L 2.10,-8.52 L 2.12,-8.55 L 2.15,-8.58 L 2.18,-8.60 L 2.22,-8.63 L 2.25,-8.65 L 2.29,-8.66 L 2.33,-8.68 L 2.36,-8.69 L 2.40,-8.70 L 2.44,-8.70 L 2.48,-8.71 L 2.52,-8.70 L 2.52,-9.01 Z" />
    <path class="fBLACK sBLACK" style="stroke-width:0.04" d="M 2.52,-8.70 L 2.56,-8.70 L 2.60,-8.70 L 2.64,-8.70 L 2.68,-8.69 L 2.72,-8.68 L 2.75,-8.66 L 2.79,-8.64 L 2.82,-8.62 L 2.86,-8.60 L 2.89,-8.58 L 2.92,-8.55 L 2.94,-8.52 L 2.97,-8.49 L 2.99,-8.46 L 3.01,-8.42 L 3.03,-8.39 L 3.05,-8.33 L 3.06,-8.27 L 3.08,-8.22 L 3.09,-8.16 L 3.10,-8.10 L 3.11,-8.04 L 3.11,-7.98 L 3.11,-7.92 L 3.11,-7.86 L 3.46,-7.81 L 3.46,-7.92 L 3.46,-8.04 L 3.45,-8.16 L 3.43,-8.26 L 3.41,-8.35 L 3.38,-8.45 L 3.34,-8.54 L 3.30,-8.60 L 3.26,-8.66 L 3.21,-8.72 L 3.16,-8.78 L 3.10,-8.83 L 3.04,-8.87 L 2.98,-8.91 L 2.91,-8.94 L 2.87,-8.96 L 2.82,-8.98 L 2.77,-8.99 L 2.72,-9.00 L 2.67,-9.00 L 2.62,-9.01 L 2.57,-9.01 L 2.52,-9.01 L 2.52,-8.70 Z" />
    <path class="fBLACK sBLACK" style="stroke-width:0.04" d="M 4.21,-8.27 L 4.19,-8.28 L 4.18,-8.30 L 4.16,-8.32 L 4.15,-8.35 L 4.14,-8.37 L 4.14,-8.40 L 4.14,-8.43 L 4.14,-8.46 L 4.14,-8.49 L 4.15,-8.52 L 4.17,-8.55 L 4.19,-8.58 L 4.21,-8.61 L 4.23,-8.63 L 4.26,-8.65 L 4.29,-8.67 L 4.33,-8.68 L 4.36,-8.69 L 4.40,-8.70 L 4.43,-8.71 L 4.47,-8.72 L 4.51,-8.72 L 4.55,-8.72 L 4.62,-8.72 L 4.70,-8.71 L 4.77,-8.69 L 4.84,-8.66 L 4.87,-8.65 L 4.90,-8.63 L 4.92,-8.61 L 4.94,-8.59 L 4.97,-8.57 L 4.98,-8.54 L 5.00,-8.51 L 5.01,-8.49 L 5.03,-8.43 L 5.04,-8.37 L 5.38,-8.37 L 5.37,-8.43 L 5.37,-8.48 L 5.36,-8.53 L 5.34,-8.58 L 5.32,-8.64 L 5.29,-8.69 L 5.25,-8.74 L 5.21,-8.79 L 5.17,-8.83 L 5.12,-8.86 L 5.07,-8.90 L 5.01,-8.92 L 4.96,-8.94 L 4.91,-8.96 L 4.85,-8.98 L 4.80,-8.99 L 4.74,-9.00 L 4.68,-9.01 L 4.63,-9.01 L 4.57,-9.01 L 4.51,-9.01 L 4.45,-9.01 L 4.39,-9.00 L 4.34,-8.99 L 4.28,-8.98 L 4.22,-8.96 L 4.17,-8.94 L 4.11,-8.92 L 4.08,-8.90 L 4.04,-8.88 L 4.01,-8.86 L 3.98,-8.84 L 3.95,-8.81 L 3.93,-8.78 L 3.90,-8.75 L 3.88,-8.72 L 3.86,-8.68 L 3.84,-8.65 L 3.83,-8.61 L 3.81,-8.57 L 3.80,-8.54 L 3.80,-8.50 L 3.79,-8.46 L 3.79,-8.42 L 3.79,-8.36 L 3.80,-8.30 L 3.81,-8.24 L 3.83,-8.19 L 3.85,-8.15 L 3.88,-8.10 L 3.91,-8.06 L 3.95,-8.02 L 3.99,-7.99 L 4.04,-7.96 L 4.21,-8.27 Z" />
    <path class="fBLACK sBLACK" style="stroke-width:0.04" d="M 4.58,-6.83 L 4.67,-6.84 L 4.76,-6.84 L 4.84,-6.85 L 4.92,-6.87 L 5.00,-6.90 L 5.08,-6.93 L 5.12,-6.95 L 5.16,-6.97 L 5.19,-7.00 L 5.23,-7.03 L 5.26,-7.06 L 5.29,-7.09 L 5.32,-7.13 L 5.34,-7.17 L 5.37,-7.21 L 5.38,-7.25 L 5.40,-7.29 L 5.41,-7.33 L 5.42,-7.38 L 5.43,-7.42 L 5.43,-7.47 L 5.43,-7.51 L 5.43,-7.58 L 5.42,-7.66 L 5.41,-7.70 L 5.39,-7.74 L 5.37,-7.78 L 5.35,-7.81 L 5.33,-7.85 L 5.30,-7.88 L 5.27,-7.91 L 5.23,-7.93 L 5.18,-7.97 L 5.12,-8.00 L 5.06,-8.02 L 5.00,-8.04 L 4.80,-8.10 L 4.46,-8.17 L 4.40,-8.19 L 4.35,-8.20 L 4.29,-8.23 L 4.24,-8.25 L 4.21,-8.27 L 4.04,-7.96 L 4.12,-7.92 L 4.20,-7.89 L 4.29,-7.86 L 4.38,-7.84 L 4.77,-7.74 L 4.89,-7.71 L 4.92,-7.70 L 4.95,-7.69 L 4.98,-7.67 L 5.00,-7.65 L 5.02,-7.64 L 5.04,-7.62 L 5.05,-7.60 L 5.06,-7.58 L 5.07,-7.55 L 5.08,-7.53 L 5.08,-7.51 L 5.08,-7.48 L 5.08,-7.44 L 5.08,-7.41 L 5.07,-7.37 L 5.05,-7.34 L 5.03,-7.31 L 5.01,-7.28 L 4.99,-7.25 L 4.96,-7.23 L 4.93,-7.21 L 4.90,-7.19 L 4.82,-7.17 L 4.75,-7.15 L 4.67,-7.14 L 4.60,-7.14 L 4.58,-6.83 Z" />
    <path class="fBLACK sBLACK" style="stroke-width:0.04" d="M 4.60,-7.14 L 4.54,-7.14 L 4.49,-7.14 L 4.44,-7.15 L 4.39,-7.16 L 4.34,-7.18 L 4.29,-7.20 L 4.25,-7.22 L 4.21,-7.25 L 4.18,-7.29 L 4.15,-7.33 L 4.12,-7.37 L 4.10,-7.41 L 4.08,-7.49 L 4.07,-7.56 L 3.73,-7.56 L 3.73,-7.52 L 3.74,-7.47 L 3.74,-7.42 L 3.75,-7.38 L 3.76,-7.34 L 3.78,-7.29 L 3.79,-7.25 L 3.81,-7.21 L 3.85,-7.15 L 3.89,-7.09 L 3.93,-7.04 L 3.98,-7.00 L 4.04,-6.96 L 4.10,-6.92 L 4.16,-6.89 L 4.23,-6.87 L 4.31,-6.85 L 4.40,-6.84 L 4.49,-6.83 L 4.58,-6.83 L 4.60,-7.14 Z" />
    <path class="fBLACK sBLACK" style="stroke-width:0.04" d="M 7.51,-8.13 L 7.51,-8.23 L 7.51,-8.32 L 7.50,-8.42 L 7.49,-8.52 L 7.48,-8.57 L 7.47,-8.62 L 7.45,-8.67 L 7.42,-8.72 L 7.39,-8.76 L 7.36,-8.80 L 7.32,-8.84 L 7.29,-8.87 L 7.24,-8.90 L 7.20,-8.92 L 7.15,-8.94 L 7.10,-8.96 L 7.03,-8.98 L 6.95,-8.99 L 6.87,-8.99 L 6.80,-9.00 L 6.72,-8.99 L 6.65,-8.98 L 6.57,-8.97 L 6.50,-8.94 L 6.45,-8.92 L 6.40,-8.89 L 6.36,-8.86 L 6.31,-8.83 L 6.27,-8.79 L 6.23,-8.75 L 6.20,-8.71 L 6.17,-8.66 L 6.17,-8.95 L 5.83,-8.95 L 5.83,-6.89 L 6.18,-6.89 L 6.18,-8.06 L 6.18,-8.14 L 6.19,-8.21 L 6.20,-8.26 L 6.21,-8.32 L 6.23,-8.37 L 6.25,-8.42 L 6.28,-8.46 L 6.31,-8.50 L 6.35,-8.54 L 6.39,-8.58 L 6.43,-8.61 L 6.48,-8.63 L 6.52,-8.65 L 6.57,-8.67 L 6.62,-8.68 L 6.67,-8.69 L 6.72,-8.69 L 6.77,-8.69 L 6.80,-8.69 L 6.84,-8.69 L 6.87,-8.69 L 6.90,-8.68 L 6.93,-8.67 L 6.96,-8.66 L 6.99,-8.64 L 7.02,-8.62 L 7.04,-8.60 L 7.07,-8.58 L 7.09,-8.55 L 7.10,-8.53 L 7.13,-8.47 L 7.15,-8.41 L 7.16,-8.34 L 7.16,-8.28 L 7.16,-6.89 L 7.51,-6.89 L 7.51,-8.13 Z" />
    <path class="f0 sBLACK" style="stroke-width:0.28" d="M -2.99,-0.79 L -0.01,-5.05 L 2.98,-0.79 L -0.01,3.47 L -2.99,-0.79 Z" />
    <circle class="pivotPoint layout" fill="none" cx="0" cy="0" r="0.2" />
  </g>
</svg>