<?xml version="1.0" encoding="utf-8"?>
<?xml-stylesheet type='text/css' href='S401Style.css'?>
<svg version="1.2" baseProfile="tiny" style="shape-rendering:geometricPrecision; fill-rule:evenodd;" width="3.90mm" height="5.30mm" viewBox="-1.96 -5.31 3.92 5.32" xmlns="http://www.w3.org/2000/svg">
  <title>BOYINL03R</title>
  <desc>river buoy bifurcation of the fairway (3.B of CEVNI) - right hand side</desc>
  <metadata>
    <iho:S100SVG xmlns:iho="http://www.iho.int/SVGMetadata">
      <iho:Description iho:publisher="IEHG" iho:creationDate="2015-07-29" iho:source="" iho:format="IENC signs, Europe, SVG" iho:version="0.1" />
    </iho:S100SVG>
  </metadata>
  <g>
    <path class="fMIDRD sMIDRD" style="stroke-width:0.04" d="M -1.26,-0.95 L -1.95,-0.50 L -1.95,0.00 L 1.95,0.00 L 1.95,-0.50 L 1.33,-0.95 L 1.39,-1.04 L 1.44,-1.14 L 1.48,-1.25 L 1.51,-1.35 L 1.54,-1.46 L 1.56,-1.57 L 1.57,-1.68 L 1.57,-1.79 L 1.56,-1.90 L 1.55,-2.01 L 1.52,-2.12 L 1.49,-2.22 L 1.46,-2.33 L 1.41,-2.43 L 1.36,-2.53 L 1.30,-2.62 L 1.24,-2.71 L 1.16,-2.79 L 1.09,-2.87 L 1.00,-2.94 L 0.92,-3.01 L 0.82,-3.07 L 0.73,-3.12 L 0.62,-3.17 L 0.52,-3.21 L 0.41,-3.24 L 0.31,-3.26 L 0.20,-3.28 L 0.09,-3.29 L -0.02,-3.29 L -0.13,-3.28 L -0.24,-3.26 L -0.35,-3.24 L -0.46,-3.21 L -0.56,-3.17 L -0.66,-3.12 L -0.76,-3.06 L -0.85,-3.00 L -0.94,-2.94 L -1.02,-2.86 L -1.10,-2.78 L -1.17,-2.70 L -1.23,-2.61 L -1.29,-2.52 L -1.34,-2.42 L -1.39,-2.32 L -1.42,-2.21 L -1.45,-2.10 L -1.47,-2.00 L -1.49,-1.89 L -1.49,-1.78 L -1.49,-1.67 L -1.48,-1.56 L -1.46,-1.45 L -1.43,-1.34 L -1.40,-1.23 L -1.36,-1.13 L -1.31,-1.03 L -1.26,-0.95 Z" />
    <path class="fORRED sBLACK" style="stroke-width:0.12" d="M -0.65,-4.00 L 0.65,-4.00 L 0.65,-5.30 L -0.65,-5.30 L -0.65,-4.00 Z" />
    <path class="fLITGN sLITGN" style="stroke-width:0.04" d="M 1.42,-2.41 L 1.37,-2.51 L 1.31,-2.60 L 1.25,-2.69 L 1.18,-2.78 L 1.10,-2.86 L 1.02,-2.93 L 0.93,-3.00 L 0.84,-3.06 L 0.75,-3.11 L 0.65,-3.16 L 0.54,-3.20 L 0.44,-3.24 L 0.33,-3.26 L 0.22,-3.28 L 0.11,-3.29 L 0.00,-3.29 L -0.11,-3.28 L -0.22,-3.27 L -0.33,-3.24 L -0.44,-3.21 L -0.54,-3.17 L -0.64,-3.13 L -0.74,-3.08 L -0.83,-3.02 L -0.92,-2.95 L -1.00,-2.88 L -1.08,-2.80 L -1.15,-2.72 L -1.22,-2.63 L -1.28,-2.54 L -1.33,-2.44 L -1.35,-2.41 L 1.42,-2.41 Z" />
    <path class="fLITGN sLITGN" style="stroke-width:0.04" d="M -1.33,-1.07 L 1.40,-1.07 L 1.45,-1.17 L 1.49,-1.27 L 1.52,-1.38 L 1.54,-1.49 L 1.56,-1.60 L 1.57,-1.71 L 1.57,-1.76 L -1.49,-1.76 L -1.49,-1.65 L -1.47,-1.54 L -1.45,-1.43 L -1.43,-1.32 L -1.39,-1.22 L -1.35,-1.12 L -1.33,-1.07 Z" />
    <path class="f0 sBLACK" style="stroke-width:0.12" d="M -1.26,-0.95 L -1.95,-0.50 L -1.95,0.00 L 1.95,0.00 L 1.95,-0.50 L 1.33,-0.95 " />
    <path class="f0 sBLACK" style="stroke-width:0.12" d="M -1.26,-0.95 L -1.31,-1.04 L -1.36,-1.14 L -1.40,-1.24 L -1.43,-1.35 L -1.46,-1.46 L -1.48,-1.57 L -1.49,-1.68 L -1.49,-1.79 L -1.48,-1.90 L -1.47,-2.01 L -1.45,-2.11 L -1.42,-2.22 L -1.38,-2.33 L -1.34,-2.43 L -1.29,-2.52 L -1.23,-2.62 L -1.16,-2.71 L -1.09,-2.79 L -1.01,-2.87 L -0.93,-2.94 L -0.84,-3.01 L -0.75,-3.07 L -0.65,-3.12 L -0.55,-3.17 L -0.45,-3.21 L -0.34,-3.24 L -0.23,-3.26 L -0.12,-3.28 L -0.01,-3.29 L 0.10,-3.29 L 0.21,-3.28 L 0.32,-3.26 L 0.43,-3.24 L 0.53,-3.21 L 0.63,-3.17 L 0.73,-3.12 L 0.83,-3.07 L 0.92,-3.01 L 1.01,-2.94 L 1.09,-2.87 L 1.17,-2.79 L 1.24,-2.70 L 1.31,-2.61 L 1.37,-2.52 L 1.42,-2.42 L 1.46,-2.32 L 1.50,-2.21 L 1.53,-2.11 L 1.55,-2.00 L 1.56,-1.89 L 1.57,-1.78 L 1.56,-1.67 L 1.55,-1.56 L 1.54,-1.45 L 1.51,-1.34 L 1.48,-1.24 L 1.43,-1.13 L 1.39,-1.03 L 1.33,-0.95 " />
    <circle class="pivotPoint layout" fill="none" cx="0" cy="0" r="0.2" />
  </g>
</svg>