<?xml version="1.0" encoding="UTF-8"?>
<?xml-stylesheet type='text/css' href='S401Style.css'?>
<svg version="1.2" baseProfile="tiny" style="shape-rendering:geometricPrecision; fill-rule:evenodd;" width="14.84mm" height="13.61mm" viewBox="-7.20 -9.96 14.86 13.63" xmlns="http://www.w3.org/2000/svg">
  <title>BOYINL08F</title>
  <desc>river buoy yellow float (8.C of CEVNI) - off position - text area -d</desc>
  <metadata />
  <g>
    <path class="fYLLOW sBLACK" style="stroke-width:0.12" d="M -2.05,0.00 L 2.05,0.00 L 2.05,-0.67 L 1.52,-0.67 L 2.05,-2.10 L -1.05,-2.10 L -1.58,-0.68 L -2.05,-0.68 L -2.05,0.00 Z" />
    <path class="f0 sFFD700" style="stroke-width:0.08" d="M -1.58,0.98 L -2.17,0.15 " />
    <path class="f0 sBLACK" style="stroke-width:0.24" d="M -3.09,-0.95 L 0.14,-5.55 L 3.37,-0.95 L 0.14,3.66 L -3.09,-0.95 Z" />
    <path class="f0 sBLACK" style="stroke-width:0.24" d="M -2.85,-0.95 L 0.14,-5.20 L 3.12,-0.95 L 0.14,3.31 L -2.85,-0.95 Z" />
    <path class="fBLACK sBLACK" style="stroke-width:0.04" d="M -5.85,-7.30 L -5.93,-7.31 L -6.00,-7.31 L -6.08,-7.33 L -6.15,-7.35 L -6.22,-7.38 L -6.29,-7.41 L -6.36,-7.45 L -6.42,-7.49 L -6.45,-7.52 L -6.49,-7.56 L -6.53,-7.59 L -6.56,-7.63 L -6.59,-7.67 L -6.61,-7.71 L -6.64,-7.76 L -6.66,-7.80 L -6.69,-7.88 L -6.72,-7.96 L -6.74,-8.04 L -6.76,-8.12 L -6.78,-8.21 L -6.79,-8.29 L -6.79,-8.38 L -6.79,-8.46 L -6.79,-8.55 L -7.19,-8.56 L -7.19,-8.46 L -7.19,-8.37 L -7.18,-8.28 L -7.17,-8.19 L -7.16,-8.09 L -7.15,-8.02 L -7.14,-7.96 L -7.12,-7.89 L -7.10,-7.82 L -7.07,-7.76 L -7.05,-7.69 L -7.02,-7.63 L -6.98,-7.57 L -6.94,-7.51 L -6.90,-7.46 L -6.86,-7.40 L -6.81,-7.35 L -6.77,-7.30 L -6.71,-7.26 L -6.66,-7.22 L -6.60,-7.18 L -6.54,-7.14 L -6.48,-7.11 L -6.42,-7.08 L -6.35,-7.05 L -6.29,-7.03 L -6.23,-7.02 L -6.17,-7.00 L -6.11,-6.99 L -6.04,-6.98 L -5.98,-6.98 L -5.92,-6.98 L -5.85,-6.98 L -5.85,-7.30 Z" />
    <path class="fBLACK sBLACK" style="stroke-width:0.04" d="M -5.85,-6.98 L -5.78,-6.98 L -5.71,-6.98 L -5.64,-6.99 L -5.57,-6.99 L -5.48,-7.01 L -5.39,-7.04 L -5.30,-7.07 L -5.21,-7.11 L -5.13,-7.16 L -5.05,-7.21 L -4.97,-7.27 L -4.90,-7.34 L -4.83,-7.42 L -4.77,-7.50 L -4.71,-7.59 L -4.66,-7.69 L -4.62,-7.78 L -4.59,-7.89 L -4.56,-7.99 L -4.54,-8.09 L -4.53,-8.19 L -4.52,-8.28 L -4.52,-8.37 L -4.91,-8.38 L -4.92,-8.29 L -4.93,-8.21 L -4.94,-8.12 L -4.96,-8.04 L -4.98,-7.96 L -5.01,-7.88 L -5.04,-7.80 L -5.06,-7.75 L -5.09,-7.71 L -5.12,-7.67 L -5.15,-7.63 L -5.18,-7.59 L -5.21,-7.56 L -5.25,-7.52 L -5.28,-7.49 L -5.32,-7.46 L -5.37,-7.44 L -5.41,-7.41 L -5.45,-7.39 L -5.50,-7.37 L -5.54,-7.35 L -5.59,-7.34 L -5.64,-7.33 L -5.69,-7.32 L -5.75,-7.31 L -5.80,-7.31 L -5.85,-7.30 L -5.85,-6.98 Z" />
    <path class="fBLACK sBLACK" style="stroke-width:0.04" d="M -5.85,-9.62 L -5.78,-9.62 L -5.70,-9.61 L -5.62,-9.59 L -5.55,-9.57 L -5.48,-9.55 L -5.41,-9.51 L -5.34,-9.47 L -5.28,-9.43 L -5.24,-9.40 L -5.21,-9.37 L -5.18,-9.33 L -5.14,-9.29 L -5.12,-9.25 L -5.09,-9.21 L -5.06,-9.17 L -5.04,-9.13 L -5.01,-9.05 L -4.98,-8.97 L -4.96,-8.89 L -4.94,-8.80 L -4.93,-8.72 L -4.92,-8.63 L -4.91,-8.55 L -4.91,-8.46 L -4.91,-8.38 L -4.52,-8.37 L -4.52,-8.46 L -4.52,-8.56 L -4.52,-8.65 L -4.53,-8.74 L -4.54,-8.83 L -4.55,-8.90 L -4.57,-8.97 L -4.59,-9.04 L -4.61,-9.11 L -4.64,-9.18 L -4.66,-9.24 L -4.70,-9.31 L -4.73,-9.37 L -4.79,-9.46 L -4.85,-9.53 L -4.92,-9.61 L -5.00,-9.67 L -5.08,-9.74 L -5.16,-9.79 L -5.26,-9.84 L -5.35,-9.87 L -5.41,-9.89 L -5.47,-9.91 L -5.53,-9.92 L -5.60,-9.93 L -5.66,-9.94 L -5.72,-9.95 L -5.79,-9.95 L -5.85,-9.95 L -5.85,-9.62 Z" />
    <path class="fBLACK sBLACK" style="stroke-width:0.04" d="M -5.85,-9.95 L -5.92,-9.95 L -5.99,-9.95 L -6.06,-9.94 L -6.13,-9.93 L -6.23,-9.91 L -6.32,-9.89 L -6.41,-9.85 L -6.49,-9.81 L -6.58,-9.77 L -6.66,-9.71 L -6.73,-9.65 L -6.80,-9.59 L -6.87,-9.51 L -6.93,-9.42 L -6.99,-9.33 L -7.04,-9.24 L -7.08,-9.14 L -7.12,-9.04 L -7.15,-8.94 L -7.16,-8.83 L -7.17,-8.74 L -7.18,-8.65 L -7.19,-8.56 L -6.79,-8.55 L -6.79,-8.63 L -6.78,-8.72 L -6.76,-8.80 L -6.74,-8.89 L -6.72,-8.97 L -6.69,-9.05 L -6.66,-9.13 L -6.64,-9.17 L -6.61,-9.21 L -6.59,-9.25 L -6.56,-9.29 L -6.53,-9.33 L -6.49,-9.37 L -6.46,-9.40 L -6.42,-9.43 L -6.38,-9.46 L -6.34,-9.49 L -6.30,-9.51 L -6.25,-9.54 L -6.21,-9.56 L -6.16,-9.57 L -6.12,-9.59 L -6.07,-9.60 L -6.01,-9.61 L -5.96,-9.61 L -5.91,-9.62 L -5.85,-9.62 L -5.85,-9.95 Z" />
    <path class="fBLACK sBLACK" style="stroke-width:0.04" d="M -3.21,-9.90 L -3.29,-9.91 L -3.37,-9.92 L -3.44,-9.92 L -3.52,-9.92 L -3.58,-9.91 L -3.64,-9.90 L -3.69,-9.89 L -3.74,-9.86 L -3.79,-9.84 L -3.82,-9.80 L -3.86,-9.77 L -3.89,-9.72 L -3.91,-9.69 L -3.92,-9.65 L -3.93,-9.61 L -3.94,-9.57 L -3.95,-9.53 L -3.96,-9.49 L -3.96,-9.45 L -3.96,-9.41 L -3.96,-9.11 L -4.32,-9.11 L -4.32,-8.83 L -3.96,-8.83 L -3.96,-7.05 L -3.61,-7.05 L -3.61,-8.83 L -3.21,-8.83 L -3.21,-9.11 L -3.61,-9.11 L -3.61,-9.28 L -3.61,-9.33 L -3.61,-9.37 L -3.60,-9.42 L -3.59,-9.47 L -3.58,-9.49 L -3.57,-9.51 L -3.55,-9.53 L -3.53,-9.55 L -3.49,-9.58 L -3.45,-9.59 L -3.40,-9.60 L -3.36,-9.60 L -3.25,-9.59 L -3.21,-9.59 L -3.21,-9.90 Z" />
    <path class="fBLACK sBLACK" style="stroke-width:0.04" d="M -2.12,-9.90 L -2.20,-9.91 L -2.27,-9.92 L -2.35,-9.92 L -2.43,-9.92 L -2.49,-9.91 L -2.54,-9.90 L -2.60,-9.89 L -2.65,-9.86 L -2.69,-9.84 L -2.73,-9.80 L -2.77,-9.77 L -2.80,-9.72 L -2.81,-9.69 L -2.83,-9.65 L -2.84,-9.61 L -2.85,-9.57 L -2.86,-9.53 L -2.87,-9.49 L -2.87,-9.45 L -2.87,-9.41 L -2.87,-9.11 L -3.23,-9.11 L -3.23,-8.83 L -2.87,-8.83 L -2.87,-7.05 L -2.52,-7.05 L -2.52,-8.83 L -2.12,-8.83 L -2.12,-9.11 L -2.52,-9.11 L -2.52,-9.28 L -2.52,-9.33 L -2.52,-9.37 L -2.51,-9.42 L -2.50,-9.47 L -2.49,-9.49 L -2.48,-9.51 L -2.46,-9.53 L -2.44,-9.55 L -2.40,-9.58 L -2.36,-9.59 L -2.31,-9.60 L -2.27,-9.60 L -2.16,-9.59 L -2.12,-9.59 L -2.12,-9.90 Z" />
    <path class="fBLACK sBLACK" style="stroke-width:0.04" d="M 1.02,-9.06 L 1.02,-9.00 L 1.01,-8.94 L 1.00,-8.89 L 0.98,-8.84 L 0.96,-8.80 L 0.94,-8.76 L 0.91,-8.73 L 0.88,-8.70 L 0.85,-8.68 L 0.82,-8.65 L 0.78,-8.64 L 0.74,-8.62 L 0.69,-8.61 L 0.64,-8.60 L 0.59,-8.59 L 0.54,-8.59 L 0.37,-8.58 L -0.34,-8.58 L -0.34,-8.24 L 0.30,-8.24 L 0.41,-8.24 L 0.53,-8.25 L 0.64,-8.25 L 0.76,-8.26 L 0.81,-8.27 L 0.86,-8.28 L 0.90,-8.30 L 0.95,-8.32 L 0.99,-8.34 L 1.04,-8.36 L 1.08,-8.39 L 1.12,-8.42 L 1.16,-8.45 L 1.20,-8.48 L 1.23,-8.52 L 1.26,-8.56 L 1.29,-8.60 L 1.31,-8.64 L 1.34,-8.69 L 1.36,-8.73 L 1.38,-8.81 L 1.40,-8.90 L 1.41,-8.98 L 1.41,-9.06 L 1.02,-9.06 Z" />
    <path class="fBLACK sBLACK" style="stroke-width:0.04" d="M 1.41,-9.06 L 1.41,-9.15 L 1.40,-9.24 L 1.38,-9.31 L 1.37,-9.37 L 1.34,-9.42 L 1.32,-9.48 L 1.29,-9.53 L 1.25,-9.59 L 1.21,-9.63 L 1.17,-9.68 L 1.12,-9.71 L 1.07,-9.75 L 1.02,-9.78 L 0.97,-9.80 L 0.91,-9.82 L 0.85,-9.84 L 0.80,-9.85 L 0.74,-9.86 L 0.62,-9.87 L 0.50,-9.88 L 0.39,-9.88 L 0.27,-9.88 L -0.72,-9.88 L -0.72,-7.05 L -0.34,-7.05 L -0.34,-8.24 L -0.34,-8.58 L -0.34,-9.53 L 0.39,-9.53 L 0.51,-9.53 L 0.63,-9.52 L 0.68,-9.51 L 0.74,-9.50 L 0.79,-9.48 L 0.83,-9.45 L 0.87,-9.43 L 0.89,-9.40 L 0.92,-9.37 L 0.95,-9.34 L 0.97,-9.30 L 0.98,-9.27 L 1.00,-9.23 L 1.01,-9.19 L 1.01,-9.12 L 1.02,-9.06 L 1.41,-9.06 Z" />
    <path class="fBLACK sBLACK" style="stroke-width:0.04" d="M 3.25,-8.02 L 3.25,-7.96 L 3.24,-7.90 L 3.24,-7.84 L 3.22,-7.79 L 3.21,-7.73 L 3.19,-7.67 L 3.17,-7.61 L 3.15,-7.58 L 3.13,-7.54 L 3.11,-7.51 L 3.09,-7.48 L 3.06,-7.45 L 3.03,-7.42 L 3.00,-7.40 L 2.97,-7.38 L 2.93,-7.36 L 2.90,-7.34 L 2.86,-7.32 L 2.82,-7.31 L 2.79,-7.30 L 2.75,-7.30 L 2.71,-7.30 L 2.67,-7.30 L 2.63,-7.30 L 2.59,-7.30 L 2.55,-7.30 L 2.51,-7.31 L 2.47,-7.32 L 2.43,-7.34 L 2.40,-7.36 L 2.36,-7.38 L 2.33,-7.40 L 2.30,-7.42 L 2.27,-7.45 L 2.24,-7.48 L 2.22,-7.51 L 2.19,-7.55 L 2.17,-7.58 L 2.16,-7.62 L 2.14,-7.67 L 2.12,-7.73 L 2.10,-7.79 L 2.09,-7.85 L 2.08,-7.90 L 2.08,-7.96 L 1.72,-7.96 L 1.73,-7.83 L 1.75,-7.74 L 1.77,-7.65 L 1.80,-7.55 L 1.84,-7.47 L 1.88,-7.40 L 1.92,-7.34 L 1.97,-7.28 L 2.02,-7.22 L 2.08,-7.17 L 2.14,-7.13 L 2.20,-7.09 L 2.27,-7.06 L 2.32,-7.04 L 2.37,-7.03 L 2.41,-7.01 L 2.46,-7.00 L 2.51,-7.00 L 2.56,-6.99 L 2.61,-6.99 L 2.66,-6.99 L 2.72,-6.99 L 2.78,-7.00 L 2.83,-7.00 L 2.89,-7.01 L 2.93,-7.02 L 2.98,-7.03 L 3.02,-7.05 L 3.07,-7.06 L 3.11,-7.08 L 3.15,-7.11 L 3.19,-7.13 L 3.23,-7.16 L 3.29,-7.21 L 3.34,-7.26 L 3.39,-7.32 L 3.43,-7.38 L 3.47,-7.45 L 3.51,-7.51 L 3.53,-7.58 L 3.56,-7.66 L 3.58,-7.76 L 3.59,-7.87 L 3.60,-7.97 L 3.25,-8.02 Z" />
    <path class="fBLACK sBLACK" style="stroke-width:0.04" d="M 2.66,-9.17 L 2.61,-9.17 L 2.56,-9.17 L 2.51,-9.16 L 2.46,-9.16 L 2.41,-9.15 L 2.37,-9.13 L 2.32,-9.12 L 2.27,-9.10 L 2.23,-9.08 L 2.18,-9.06 L 2.14,-9.03 L 2.10,-9.00 L 2.06,-8.97 L 2.02,-8.93 L 1.98,-8.90 L 1.95,-8.86 L 1.92,-8.82 L 1.89,-8.78 L 1.86,-8.74 L 1.84,-8.69 L 1.82,-8.65 L 1.80,-8.60 L 1.78,-8.55 L 1.77,-8.50 L 1.75,-8.40 L 1.73,-8.29 L 1.72,-8.19 L 1.72,-8.08 L 1.72,-7.96 L 2.08,-7.96 L 2.07,-8.02 L 2.07,-8.08 L 2.07,-8.14 L 2.08,-8.20 L 2.08,-8.26 L 2.09,-8.32 L 2.10,-8.38 L 2.12,-8.43 L 2.14,-8.49 L 2.16,-8.55 L 2.17,-8.58 L 2.19,-8.62 L 2.22,-8.65 L 2.24,-8.68 L 2.27,-8.71 L 2.30,-8.74 L 2.33,-8.76 L 2.36,-8.79 L 2.40,-8.80 L 2.43,-8.82 L 2.47,-8.84 L 2.51,-8.85 L 2.55,-8.86 L 2.59,-8.86 L 2.63,-8.86 L 2.67,-8.86 L 2.66,-9.17 Z" />
    <path class="fBLACK sBLACK" style="stroke-width:0.04" d="M 2.67,-8.86 L 2.71,-8.86 L 2.75,-8.86 L 2.79,-8.85 L 2.82,-8.85 L 2.86,-8.84 L 2.90,-8.82 L 2.93,-8.80 L 2.97,-8.78 L 3.00,-8.76 L 3.03,-8.74 L 3.06,-8.71 L 3.09,-8.68 L 3.11,-8.65 L 3.13,-8.62 L 3.15,-8.58 L 3.17,-8.55 L 3.19,-8.49 L 3.21,-8.43 L 3.22,-8.38 L 3.24,-8.32 L 3.24,-8.26 L 3.25,-8.20 L 3.25,-8.14 L 3.25,-8.08 L 3.25,-8.02 L 3.60,-7.97 L 3.60,-8.08 L 3.60,-8.20 L 3.59,-8.32 L 3.58,-8.42 L 3.55,-8.51 L 3.52,-8.61 L 3.48,-8.69 L 3.44,-8.76 L 3.40,-8.82 L 3.36,-8.88 L 3.31,-8.94 L 3.25,-8.99 L 3.19,-9.03 L 3.12,-9.07 L 3.06,-9.10 L 3.01,-9.12 L 2.96,-9.14 L 2.91,-9.15 L 2.86,-9.16 L 2.81,-9.16 L 2.76,-9.17 L 2.71,-9.17 L 2.66,-9.17 L 2.67,-8.86 Z" />
    <path class="fBLACK sBLACK" style="stroke-width:0.04" d="M 4.36,-8.43 L 4.34,-8.44 L 4.32,-8.46 L 4.31,-8.48 L 4.29,-8.51 L 4.29,-8.53 L 4.28,-8.56 L 4.28,-8.59 L 4.28,-8.62 L 4.29,-8.65 L 4.30,-8.68 L 4.31,-8.71 L 4.33,-8.74 L 4.35,-8.77 L 4.38,-8.79 L 4.40,-8.81 L 4.44,-8.83 L 4.47,-8.84 L 4.51,-8.85 L 4.54,-8.86 L 4.58,-8.87 L 4.62,-8.87 L 4.65,-8.88 L 4.69,-8.88 L 4.77,-8.87 L 4.84,-8.86 L 4.91,-8.85 L 4.98,-8.82 L 5.01,-8.81 L 5.04,-8.79 L 5.07,-8.77 L 5.09,-8.75 L 5.11,-8.73 L 5.13,-8.70 L 5.14,-8.67 L 5.16,-8.64 L 5.17,-8.59 L 5.18,-8.53 L 5.52,-8.53 L 5.52,-8.59 L 5.51,-8.64 L 5.50,-8.69 L 5.49,-8.74 L 5.46,-8.80 L 5.43,-8.85 L 5.40,-8.90 L 5.36,-8.95 L 5.31,-8.99 L 5.27,-9.02 L 5.21,-9.05 L 5.16,-9.08 L 5.11,-9.10 L 5.05,-9.12 L 5.00,-9.14 L 4.94,-9.15 L 4.88,-9.16 L 4.83,-9.17 L 4.77,-9.17 L 4.71,-9.17 L 4.66,-9.17 L 4.60,-9.17 L 4.54,-9.16 L 4.48,-9.15 L 4.42,-9.14 L 4.37,-9.12 L 4.31,-9.10 L 4.26,-9.08 L 4.22,-9.06 L 4.19,-9.04 L 4.16,-9.02 L 4.13,-8.99 L 4.10,-8.97 L 4.07,-8.94 L 4.05,-8.91 L 4.02,-8.88 L 4.00,-8.84 L 3.99,-8.81 L 3.97,-8.77 L 3.96,-8.73 L 3.95,-8.69 L 3.94,-8.66 L 3.94,-8.62 L 3.94,-8.58 L 3.94,-8.52 L 3.94,-8.46 L 3.95,-8.40 L 3.97,-8.35 L 3.99,-8.30 L 4.02,-8.26 L 4.06,-8.22 L 4.09,-8.18 L 4.13,-8.15 L 4.18,-8.12 L 4.36,-8.43 Z" />
    <path class="fBLACK sBLACK" style="stroke-width:0.04" d="M 4.72,-6.99 L 4.81,-6.99 L 4.90,-7.00 L 4.98,-7.01 L 5.07,-7.03 L 5.14,-7.06 L 5.22,-7.09 L 5.26,-7.11 L 5.30,-7.13 L 5.34,-7.16 L 5.37,-7.19 L 5.40,-7.22 L 5.43,-7.25 L 5.46,-7.29 L 5.49,-7.32 L 5.51,-7.36 L 5.53,-7.41 L 5.55,-7.45 L 5.56,-7.49 L 5.57,-7.53 L 5.57,-7.58 L 5.58,-7.62 L 5.58,-7.67 L 5.57,-7.74 L 5.56,-7.81 L 5.55,-7.86 L 5.54,-7.90 L 5.52,-7.94 L 5.50,-7.97 L 5.47,-8.01 L 5.44,-8.04 L 5.41,-8.07 L 5.38,-8.09 L 5.32,-8.13 L 5.27,-8.16 L 5.21,-8.18 L 5.15,-8.20 L 4.95,-8.25 L 4.61,-8.33 L 4.55,-8.35 L 4.49,-8.36 L 4.43,-8.39 L 4.38,-8.41 L 4.36,-8.43 L 4.18,-8.12 L 4.26,-8.08 L 4.35,-8.05 L 4.43,-8.02 L 4.52,-8.00 L 4.91,-7.90 L 5.04,-7.87 L 5.07,-7.86 L 5.09,-7.85 L 5.12,-7.83 L 5.15,-7.81 L 5.16,-7.80 L 5.18,-7.78 L 5.20,-7.76 L 5.21,-7.74 L 5.22,-7.71 L 5.22,-7.69 L 5.23,-7.67 L 5.23,-7.64 L 5.23,-7.60 L 5.22,-7.57 L 5.21,-7.53 L 5.20,-7.50 L 5.18,-7.47 L 5.16,-7.44 L 5.13,-7.41 L 5.10,-7.39 L 5.07,-7.37 L 5.04,-7.35 L 4.97,-7.33 L 4.89,-7.31 L 4.82,-7.30 L 4.74,-7.30 L 4.72,-6.99 Z" />
    <path class="fBLACK sBLACK" style="stroke-width:0.04" d="M 4.74,-7.30 L 4.69,-7.30 L 4.63,-7.30 L 4.58,-7.31 L 4.53,-7.32 L 4.48,-7.33 L 4.44,-7.35 L 4.40,-7.38 L 4.36,-7.41 L 4.32,-7.45 L 4.29,-7.48 L 4.27,-7.53 L 4.25,-7.57 L 4.23,-7.65 L 4.22,-7.72 L 3.88,-7.72 L 3.88,-7.67 L 3.88,-7.63 L 3.89,-7.58 L 3.90,-7.54 L 3.91,-7.49 L 3.92,-7.45 L 3.94,-7.41 L 3.96,-7.37 L 3.99,-7.31 L 4.03,-7.25 L 4.08,-7.20 L 4.13,-7.15 L 4.18,-7.11 L 4.24,-7.08 L 4.31,-7.05 L 4.37,-7.03 L 4.46,-7.01 L 4.55,-7.00 L 4.63,-6.99 L 4.72,-6.99 L 4.74,-7.30 Z" />
    <path class="fBLACK sBLACK" style="stroke-width:0.04" d="M 7.65,-8.29 L 7.65,-8.38 L 7.65,-8.48 L 7.65,-8.58 L 7.64,-8.68 L 7.63,-8.73 L 7.61,-8.78 L 7.59,-8.83 L 7.57,-8.88 L 7.54,-8.92 L 7.50,-8.96 L 7.47,-8.99 L 7.43,-9.03 L 7.39,-9.05 L 7.34,-9.08 L 7.30,-9.10 L 7.25,-9.12 L 7.17,-9.13 L 7.10,-9.15 L 7.02,-9.15 L 6.94,-9.15 L 6.87,-9.15 L 6.79,-9.14 L 6.72,-9.13 L 6.65,-9.10 L 6.60,-9.08 L 6.55,-9.05 L 6.50,-9.02 L 6.46,-8.99 L 6.42,-8.95 L 6.38,-8.91 L 6.34,-8.87 L 6.31,-8.82 L 6.31,-9.11 L 5.98,-9.11 L 5.98,-7.05 L 6.32,-7.05 L 6.32,-8.22 L 6.33,-8.30 L 6.33,-8.37 L 6.34,-8.42 L 6.35,-8.47 L 6.37,-8.53 L 6.39,-8.57 L 6.42,-8.62 L 6.46,-8.66 L 6.49,-8.70 L 6.53,-8.74 L 6.57,-8.76 L 6.62,-8.79 L 6.66,-8.81 L 6.71,-8.83 L 6.76,-8.84 L 6.81,-8.85 L 6.86,-8.85 L 6.91,-8.85 L 6.95,-8.85 L 6.98,-8.85 L 7.01,-8.84 L 7.05,-8.84 L 7.08,-8.83 L 7.11,-8.81 L 7.14,-8.80 L 7.16,-8.78 L 7.19,-8.76 L 7.21,-8.74 L 7.23,-8.71 L 7.25,-8.69 L 7.27,-8.63 L 7.29,-8.56 L 7.30,-8.50 L 7.30,-8.44 L 7.30,-7.05 L 7.65,-7.05 L 7.65,-8.29 Z" />
    <circle class="pivotPoint layout" fill="none" cx="0" cy="0" r="0.2" />
  </g>
</svg>