<?xml version="1.0" encoding="UTF-8"?>
<?xml-stylesheet type='text/css' href='S401Style.css'?>
<svg version="1.2" baseProfile="tiny" style="shape-rendering:geometricPrecision; fill-rule:evenodd;" width="14.84mm" height="13.61mm" viewBox="-7.34 -9.69 14.86 13.63" xmlns="http://www.w3.org/2000/svg">
  <title>BOYINL02F</title>
  <desc>river buoy left-hand side of the fairway (2.B of CEVNI) - off position - text area -d</desc>
  <metadata />
  <g>
    <path class="fMIDGN sBLACK" style="stroke-width:0.12" d="M -1.85,0.00 L 1.85,0.00 L 1.85,-0.60 L 1.34,-0.59 L 0.00,-2.71 L -1.34,-0.57 L -1.85,-0.57 L -1.85,0.00 Z" />
    <path class="f0 sBLACK" style="stroke-width:0.28" d="M -3.23,-0.67 L 0.00,-5.28 L 3.23,-0.67 L 0.00,3.94 L -3.23,-0.67 Z" />
    <path class="f0 sBLACK" style="stroke-width:0.28" d="M -2.99,-0.67 L 0.00,-4.93 L 2.98,-0.67 L 0.00,3.59 L -2.99,-0.67 Z" />
    <path class="fBLACK sBLACK" style="stroke-width:0.04" d="M -5.99,-7.03 L -6.07,-7.03 L -6.14,-7.04 L -6.22,-7.05 L -6.29,-7.07 L -6.36,-7.10 L -6.43,-7.13 L -6.50,-7.17 L -6.56,-7.22 L -6.59,-7.25 L -6.63,-7.28 L -6.66,-7.32 L -6.70,-7.36 L -6.73,-7.40 L -6.75,-7.44 L -6.78,-7.48 L -6.80,-7.52 L -6.83,-7.60 L -6.86,-7.68 L -6.88,-7.77 L -6.90,-7.85 L -6.92,-7.93 L -6.92,-8.02 L -6.93,-8.10 L -6.93,-8.19 L -6.93,-8.27 L -7.33,-8.28 L -7.33,-8.19 L -7.33,-8.09 L -7.32,-8.00 L -7.31,-7.91 L -7.30,-7.82 L -7.29,-7.75 L -7.28,-7.68 L -7.26,-7.61 L -7.24,-7.55 L -7.21,-7.48 L -7.19,-7.42 L -7.16,-7.36 L -7.12,-7.30 L -7.08,-7.24 L -7.04,-7.18 L -7.00,-7.13 L -6.95,-7.08 L -6.90,-7.03 L -6.85,-6.98 L -6.80,-6.94 L -6.74,-6.90 L -6.68,-6.86 L -6.62,-6.83 L -6.56,-6.80 L -6.49,-6.78 L -6.43,-6.76 L -6.37,-6.74 L -6.31,-6.73 L -6.25,-6.72 L -6.18,-6.71 L -6.12,-6.70 L -6.05,-6.70 L -5.99,-6.70 L -5.99,-7.03 Z" />
    <path class="fBLACK sBLACK" style="stroke-width:0.04" d="M -5.99,-6.70 L -5.92,-6.70 L -5.85,-6.70 L -5.78,-6.71 L -5.71,-6.72 L -5.62,-6.74 L -5.53,-6.76 L -5.44,-6.79 L -5.35,-6.83 L -5.27,-6.88 L -5.19,-6.93 L -5.11,-6.99 L -5.04,-7.06 L -4.97,-7.14 L -4.91,-7.23 L -4.85,-7.32 L -4.80,-7.41 L -4.76,-7.51 L -4.73,-7.61 L -4.70,-7.71 L -4.68,-7.82 L -4.67,-7.91 L -4.66,-8.00 L -4.66,-8.09 L -5.05,-8.10 L -5.06,-8.02 L -5.07,-7.93 L -5.08,-7.85 L -5.10,-7.77 L -5.12,-7.68 L -5.15,-7.60 L -5.18,-7.52 L -5.20,-7.48 L -5.23,-7.44 L -5.25,-7.39 L -5.28,-7.36 L -5.32,-7.32 L -5.35,-7.28 L -5.39,-7.25 L -5.42,-7.22 L -5.46,-7.19 L -5.51,-7.16 L -5.55,-7.14 L -5.59,-7.11 L -5.64,-7.09 L -5.68,-7.08 L -5.73,-7.06 L -5.78,-7.05 L -5.83,-7.04 L -5.88,-7.03 L -5.94,-7.03 L -5.99,-7.03 L -5.99,-6.70 Z" />
    <path class="fBLACK sBLACK" style="stroke-width:0.04" d="M -5.99,-9.34 L -5.91,-9.34 L -5.84,-9.33 L -5.76,-9.32 L -5.69,-9.30 L -5.62,-9.27 L -5.55,-9.24 L -5.48,-9.20 L -5.42,-9.15 L -5.38,-9.12 L -5.35,-9.09 L -5.31,-9.05 L -5.28,-9.02 L -5.25,-8.98 L -5.23,-8.94 L -5.20,-8.90 L -5.18,-8.85 L -5.15,-8.77 L -5.12,-8.69 L -5.10,-8.61 L -5.08,-8.53 L -5.07,-8.44 L -5.06,-8.36 L -5.05,-8.27 L -5.05,-8.19 L -5.05,-8.10 L -4.66,-8.09 L -4.65,-8.19 L -4.66,-8.28 L -4.66,-8.37 L -4.67,-8.46 L -4.68,-8.56 L -4.69,-8.63 L -4.71,-8.70 L -4.73,-8.77 L -4.75,-8.83 L -4.78,-8.90 L -4.80,-8.97 L -4.84,-9.03 L -4.87,-9.10 L -4.93,-9.18 L -4.99,-9.26 L -5.06,-9.33 L -5.14,-9.40 L -5.22,-9.46 L -5.30,-9.51 L -5.39,-9.56 L -5.49,-9.60 L -5.55,-9.62 L -5.61,-9.63 L -5.67,-9.65 L -5.74,-9.66 L -5.80,-9.67 L -5.86,-9.67 L -5.93,-9.68 L -5.99,-9.68 L -5.99,-9.34 Z" />
    <path class="fBLACK sBLACK" style="stroke-width:0.04" d="M -5.99,-9.68 L -6.06,-9.68 L -6.13,-9.67 L -6.20,-9.67 L -6.27,-9.66 L -6.37,-9.64 L -6.46,-9.61 L -6.55,-9.58 L -6.63,-9.54 L -6.72,-9.49 L -6.79,-9.44 L -6.87,-9.38 L -6.94,-9.31 L -7.01,-9.23 L -7.07,-9.15 L -7.13,-9.06 L -7.18,-8.96 L -7.22,-8.87 L -7.26,-8.76 L -7.28,-8.66 L -7.30,-8.56 L -7.31,-8.46 L -7.32,-8.37 L -7.33,-8.28 L -6.93,-8.27 L -6.93,-8.36 L -6.92,-8.44 L -6.90,-8.53 L -6.88,-8.61 L -6.86,-8.69 L -6.83,-8.77 L -6.80,-8.85 L -6.78,-8.90 L -6.75,-8.94 L -6.73,-8.98 L -6.70,-9.02 L -6.67,-9.06 L -6.63,-9.09 L -6.60,-9.13 L -6.56,-9.16 L -6.52,-9.19 L -6.48,-9.21 L -6.44,-9.24 L -6.39,-9.26 L -6.35,-9.28 L -6.30,-9.30 L -6.25,-9.31 L -6.21,-9.32 L -6.15,-9.33 L -6.10,-9.34 L -6.04,-9.34 L -5.99,-9.34 L -5.99,-9.68 Z" />
    <path class="fBLACK sBLACK" style="stroke-width:0.04" d="M -3.35,-9.62 L -3.43,-9.63 L -3.51,-9.64 L -3.58,-9.64 L -3.66,-9.65 L -3.72,-9.64 L -3.77,-9.63 L -3.83,-9.61 L -3.88,-9.59 L -3.93,-9.56 L -3.96,-9.53 L -4.00,-9.49 L -4.03,-9.45 L -4.04,-9.41 L -4.06,-9.37 L -4.07,-9.34 L -4.08,-9.30 L -4.09,-9.26 L -4.10,-9.22 L -4.10,-9.17 L -4.10,-9.13 L -4.10,-8.83 L -4.46,-8.83 L -4.46,-8.56 L -4.10,-8.56 L -4.10,-6.78 L -3.75,-6.78 L -3.75,-8.56 L -3.35,-8.56 L -3.35,-8.83 L -3.75,-8.83 L -3.75,-9.00 L -3.75,-9.05 L -3.75,-9.10 L -3.74,-9.14 L -3.73,-9.19 L -3.72,-9.21 L -3.71,-9.24 L -3.69,-9.26 L -3.67,-9.28 L -3.63,-9.30 L -3.59,-9.32 L -3.54,-9.33 L -3.50,-9.33 L -3.39,-9.32 L -3.35,-9.31 L -3.35,-9.62 Z" />
    <path class="fBLACK sBLACK" style="stroke-width:0.04" d="M -2.26,-9.62 L -2.34,-9.63 L -2.41,-9.64 L -2.49,-9.64 L -2.57,-9.65 L -2.63,-9.64 L -2.68,-9.63 L -2.74,-9.61 L -2.79,-9.59 L -2.83,-9.56 L -2.87,-9.53 L -2.91,-9.49 L -2.94,-9.45 L -2.95,-9.41 L -2.97,-9.37 L -2.98,-9.34 L -2.99,-9.30 L -3.00,-9.26 L -3.00,-9.22 L -3.01,-9.17 L -3.01,-9.13 L -3.01,-8.83 L -3.37,-8.83 L -3.37,-8.56 L -3.01,-8.56 L -3.01,-6.78 L -2.66,-6.78 L -2.66,-8.56 L -2.26,-8.56 L -2.26,-8.83 L -2.66,-8.83 L -2.66,-9.00 L -2.66,-9.05 L -2.66,-9.10 L -2.65,-9.14 L -2.64,-9.19 L -2.63,-9.21 L -2.62,-9.24 L -2.60,-9.26 L -2.58,-9.28 L -2.54,-9.30 L -2.50,-9.32 L -2.45,-9.33 L -2.41,-9.33 L -2.30,-9.32 L -2.26,-9.31 L -2.26,-9.62 Z" />
    <path class="fBLACK sBLACK" style="stroke-width:0.04" d="M 0.88,-8.78 L 0.88,-8.72 L 0.87,-8.67 L 0.86,-8.61 L 0.84,-8.56 L 0.82,-8.52 L 0.80,-8.49 L 0.77,-8.46 L 0.74,-8.43 L 0.71,-8.40 L 0.68,-8.38 L 0.64,-8.36 L 0.60,-8.34 L 0.55,-8.33 L 0.50,-8.32 L 0.45,-8.31 L 0.40,-8.31 L 0.23,-8.31 L -0.48,-8.31 L -0.48,-7.97 L 0.16,-7.97 L 0.27,-7.97 L 0.39,-7.97 L 0.50,-7.98 L 0.62,-7.99 L 0.67,-8.00 L 0.72,-8.01 L 0.76,-8.02 L 0.81,-8.04 L 0.86,-8.06 L 0.90,-8.08 L 0.94,-8.11 L 0.98,-8.14 L 1.02,-8.17 L 1.06,-8.21 L 1.09,-8.24 L 1.12,-8.28 L 1.15,-8.33 L 1.17,-8.37 L 1.20,-8.41 L 1.22,-8.46 L 1.24,-8.54 L 1.26,-8.62 L 1.27,-8.70 L 1.27,-8.79 L 0.88,-8.78 Z" />
    <path class="fBLACK sBLACK" style="stroke-width:0.04" d="M 1.27,-8.79 L 1.27,-8.88 L 1.26,-8.97 L 1.24,-9.03 L 1.23,-9.09 L 1.20,-9.15 L 1.18,-9.20 L 1.15,-9.26 L 1.11,-9.31 L 1.07,-9.36 L 1.03,-9.40 L 0.98,-9.44 L 0.93,-9.47 L 0.88,-9.50 L 0.83,-9.53 L 0.77,-9.55 L 0.72,-9.56 L 0.66,-9.58 L 0.60,-9.59 L 0.48,-9.60 L 0.37,-9.60 L 0.25,-9.60 L 0.13,-9.60 L -0.86,-9.60 L -0.86,-6.78 L -0.48,-6.78 L -0.48,-7.97 L -0.48,-8.31 L -0.48,-9.26 L 0.25,-9.26 L 0.37,-9.25 L 0.49,-9.24 L 0.54,-9.24 L 0.60,-9.22 L 0.65,-9.20 L 0.69,-9.17 L 0.73,-9.15 L 0.76,-9.12 L 0.78,-9.09 L 0.81,-9.06 L 0.83,-9.03 L 0.84,-8.99 L 0.86,-8.95 L 0.87,-8.91 L 0.88,-8.85 L 0.88,-8.78 L 1.27,-8.79 Z" />
    <path class="fBLACK sBLACK" style="stroke-width:0.04" d="M 3.11,-7.75 L 3.11,-7.69 L 3.11,-7.63 L 3.10,-7.57 L 3.08,-7.51 L 3.07,-7.45 L 3.05,-7.39 L 3.03,-7.34 L 3.01,-7.30 L 3.00,-7.27 L 2.97,-7.24 L 2.95,-7.20 L 2.92,-7.18 L 2.89,-7.15 L 2.86,-7.12 L 2.83,-7.10 L 2.80,-7.08 L 2.76,-7.06 L 2.72,-7.05 L 2.68,-7.04 L 2.65,-7.03 L 2.61,-7.02 L 2.57,-7.02 L 2.53,-7.02 L 2.49,-7.02 L 2.45,-7.02 L 2.41,-7.03 L 2.37,-7.04 L 2.33,-7.05 L 2.29,-7.06 L 2.26,-7.08 L 2.22,-7.10 L 2.19,-7.12 L 2.16,-7.15 L 2.13,-7.18 L 2.10,-7.21 L 2.08,-7.24 L 2.05,-7.27 L 2.03,-7.31 L 2.02,-7.34 L 2.00,-7.40 L 1.98,-7.45 L 1.96,-7.51 L 1.95,-7.57 L 1.94,-7.63 L 1.94,-7.69 L 1.58,-7.68 L 1.59,-7.56 L 1.61,-7.46 L 1.63,-7.37 L 1.66,-7.28 L 1.70,-7.19 L 1.74,-7.12 L 1.78,-7.06 L 1.83,-7.00 L 1.88,-6.95 L 1.94,-6.90 L 2.00,-6.85 L 2.06,-6.81 L 2.13,-6.78 L 2.18,-6.76 L 2.23,-6.75 L 2.28,-6.74 L 2.32,-6.73 L 2.37,-6.72 L 2.42,-6.72 L 2.47,-6.71 L 2.52,-6.71 L 2.58,-6.72 L 2.64,-6.72 L 2.69,-6.73 L 2.75,-6.73 L 2.79,-6.74 L 2.84,-6.76 L 2.88,-6.77 L 2.93,-6.79 L 2.97,-6.81 L 3.01,-6.83 L 3.05,-6.86 L 3.09,-6.88 L 3.15,-6.93 L 3.20,-6.99 L 3.25,-7.04 L 3.30,-7.10 L 3.33,-7.17 L 3.37,-7.24 L 3.39,-7.31 L 3.42,-7.38 L 3.44,-7.49 L 3.45,-7.59 L 3.46,-7.70 L 3.11,-7.75 Z" />
    <path class="fBLACK sBLACK" style="stroke-width:0.04" d="M 2.52,-8.89 L 2.47,-8.89 L 2.42,-8.89 L 2.37,-8.89 L 2.32,-8.88 L 2.28,-8.87 L 2.23,-8.86 L 2.18,-8.84 L 2.13,-8.83 L 2.09,-8.81 L 2.04,-8.78 L 2.00,-8.75 L 1.96,-8.72 L 1.92,-8.69 L 1.88,-8.66 L 1.84,-8.62 L 1.81,-8.58 L 1.78,-8.55 L 1.75,-8.50 L 1.72,-8.46 L 1.70,-8.42 L 1.68,-8.37 L 1.66,-8.32 L 1.64,-8.28 L 1.63,-8.23 L 1.61,-8.12 L 1.59,-8.02 L 1.58,-7.91 L 1.58,-7.81 L 1.58,-7.68 L 1.94,-7.69 L 1.93,-7.75 L 1.93,-7.81 L 1.93,-7.87 L 1.94,-7.92 L 1.94,-7.98 L 1.95,-8.04 L 1.96,-8.10 L 1.98,-8.16 L 2.00,-8.21 L 2.02,-8.27 L 2.03,-8.31 L 2.05,-8.34 L 2.08,-8.37 L 2.10,-8.41 L 2.13,-8.43 L 2.16,-8.46 L 2.19,-8.49 L 2.22,-8.51 L 2.26,-8.53 L 2.29,-8.55 L 2.33,-8.56 L 2.37,-8.57 L 2.41,-8.58 L 2.45,-8.59 L 2.49,-8.59 L 2.53,-8.59 L 2.52,-8.89 Z" />
    <path class="fBLACK sBLACK" style="stroke-width:0.04" d="M 2.53,-8.59 L 2.57,-8.59 L 2.61,-8.58 L 2.65,-8.58 L 2.68,-8.57 L 2.72,-8.56 L 2.76,-8.54 L 2.80,-8.53 L 2.83,-8.51 L 2.86,-8.48 L 2.89,-8.46 L 2.92,-8.43 L 2.95,-8.40 L 2.97,-8.37 L 2.99,-8.34 L 3.01,-8.31 L 3.03,-8.27 L 3.05,-8.21 L 3.07,-8.16 L 3.08,-8.10 L 3.10,-8.04 L 3.11,-7.98 L 3.11,-7.92 L 3.11,-7.87 L 3.11,-7.81 L 3.11,-7.75 L 3.46,-7.70 L 3.46,-7.80 L 3.46,-7.92 L 3.45,-8.05 L 3.44,-8.14 L 3.41,-8.24 L 3.38,-8.33 L 3.34,-8.42 L 3.31,-8.48 L 3.26,-8.55 L 3.22,-8.61 L 3.17,-8.66 L 3.11,-8.71 L 3.05,-8.76 L 2.98,-8.79 L 2.92,-8.83 L 2.87,-8.84 L 2.82,-8.86 L 2.77,-8.87 L 2.72,-8.88 L 2.67,-8.89 L 2.62,-8.89 L 2.57,-8.90 L 2.52,-8.89 L 2.53,-8.59 Z" />
    <path class="fBLACK sBLACK" style="stroke-width:0.04" d="M 4.22,-8.15 L 4.20,-8.17 L 4.18,-8.19 L 4.17,-8.21 L 4.16,-8.23 L 4.15,-8.26 L 4.14,-8.28 L 4.14,-8.31 L 4.14,-8.34 L 4.15,-8.38 L 4.16,-8.41 L 4.17,-8.44 L 4.19,-8.47 L 4.21,-8.49 L 4.24,-8.51 L 4.26,-8.53 L 4.30,-8.55 L 4.33,-8.56 L 4.37,-8.58 L 4.40,-8.59 L 4.44,-8.59 L 4.48,-8.60 L 4.51,-8.60 L 4.55,-8.60 L 4.63,-8.60 L 4.70,-8.59 L 4.77,-8.57 L 4.85,-8.55 L 4.87,-8.53 L 4.90,-8.51 L 4.93,-8.49 L 4.95,-8.47 L 4.97,-8.45 L 4.99,-8.42 L 5.01,-8.40 L 5.02,-8.37 L 5.03,-8.31 L 5.04,-8.26 L 5.38,-8.26 L 5.38,-8.31 L 5.37,-8.36 L 5.36,-8.42 L 5.35,-8.47 L 5.32,-8.52 L 5.29,-8.57 L 5.26,-8.62 L 5.22,-8.67 L 5.17,-8.71 L 5.13,-8.75 L 5.07,-8.78 L 5.02,-8.80 L 4.97,-8.83 L 4.91,-8.84 L 4.86,-8.86 L 4.80,-8.87 L 4.75,-8.88 L 4.69,-8.89 L 4.63,-8.89 L 4.57,-8.89 L 4.52,-8.89 L 4.46,-8.89 L 4.40,-8.88 L 4.34,-8.88 L 4.28,-8.86 L 4.23,-8.85 L 4.17,-8.83 L 4.12,-8.80 L 4.08,-8.79 L 4.05,-8.77 L 4.02,-8.74 L 3.99,-8.72 L 3.96,-8.69 L 3.93,-8.66 L 3.91,-8.63 L 3.88,-8.60 L 3.86,-8.57 L 3.85,-8.53 L 3.83,-8.49 L 3.82,-8.46 L 3.81,-8.42 L 3.80,-8.38 L 3.80,-8.34 L 3.80,-8.30 L 3.80,-8.24 L 3.80,-8.18 L 3.82,-8.13 L 3.83,-8.08 L 3.86,-8.03 L 3.88,-7.98 L 3.92,-7.94 L 3.95,-7.90 L 4.00,-7.87 L 4.04,-7.84 L 4.22,-8.15 Z" />
    <path class="fBLACK sBLACK" style="stroke-width:0.04" d="M 4.58,-6.71 L 4.67,-6.72 L 4.76,-6.73 L 4.85,-6.74 L 4.93,-6.76 L 5.01,-6.78 L 5.08,-6.81 L 5.12,-6.83 L 5.16,-6.86 L 5.20,-6.88 L 5.23,-6.91 L 5.26,-6.94 L 5.30,-6.98 L 5.32,-7.01 L 5.35,-7.05 L 5.37,-7.09 L 5.39,-7.13 L 5.41,-7.17 L 5.42,-7.21 L 5.43,-7.26 L 5.44,-7.30 L 5.44,-7.35 L 5.44,-7.39 L 5.44,-7.47 L 5.42,-7.54 L 5.41,-7.58 L 5.40,-7.62 L 5.38,-7.66 L 5.36,-7.70 L 5.33,-7.73 L 5.30,-7.76 L 5.27,-7.79 L 5.24,-7.82 L 5.18,-7.85 L 5.13,-7.88 L 5.07,-7.91 L 5.01,-7.93 L 4.81,-7.98 L 4.47,-8.06 L 4.41,-8.07 L 4.35,-8.09 L 4.30,-8.11 L 4.24,-8.14 L 4.22,-8.15 L 4.04,-7.84 L 4.12,-7.80 L 4.21,-7.77 L 4.29,-7.74 L 4.38,-7.72 L 4.77,-7.63 L 4.90,-7.59 L 4.93,-7.58 L 4.95,-7.57 L 4.98,-7.55 L 5.01,-7.53 L 5.03,-7.52 L 5.04,-7.50 L 5.06,-7.48 L 5.07,-7.46 L 5.08,-7.44 L 5.08,-7.41 L 5.09,-7.39 L 5.09,-7.37 L 5.09,-7.33 L 5.08,-7.29 L 5.07,-7.26 L 5.06,-7.22 L 5.04,-7.19 L 5.02,-7.16 L 4.99,-7.13 L 4.96,-7.11 L 4.93,-7.09 L 4.90,-7.08 L 4.83,-7.05 L 4.75,-7.03 L 4.68,-7.02 L 4.60,-7.02 L 4.58,-6.71 Z" />
    <path class="fBLACK sBLACK" style="stroke-width:0.04" d="M 4.60,-7.02 L 4.55,-7.02 L 4.50,-7.02 L 4.44,-7.03 L 4.39,-7.04 L 4.34,-7.06 L 4.30,-7.08 L 4.26,-7.10 L 4.22,-7.13 L 4.18,-7.17 L 4.15,-7.21 L 4.13,-7.25 L 4.11,-7.30 L 4.09,-7.37 L 4.08,-7.44 L 3.74,-7.44 L 3.74,-7.40 L 3.74,-7.35 L 3.75,-7.31 L 3.76,-7.26 L 3.77,-7.22 L 3.78,-7.18 L 3.80,-7.13 L 3.82,-7.09 L 3.85,-7.03 L 3.89,-6.98 L 3.94,-6.92 L 3.99,-6.88 L 4.04,-6.84 L 4.10,-6.80 L 4.17,-6.78 L 4.23,-6.76 L 4.32,-6.74 L 4.41,-6.72 L 4.49,-6.72 L 4.58,-6.71 L 4.60,-7.02 Z" />
    <path class="fBLACK sBLACK" style="stroke-width:0.04" d="M 7.51,-8.01 L 7.51,-8.11 L 7.51,-8.21 L 7.51,-8.31 L 7.50,-8.40 L 7.49,-8.46 L 7.47,-8.51 L 7.45,-8.56 L 7.43,-8.60 L 7.40,-8.65 L 7.37,-8.68 L 7.33,-8.72 L 7.29,-8.75 L 7.25,-8.78 L 7.20,-8.80 L 7.16,-8.82 L 7.11,-8.84 L 7.03,-8.86 L 6.96,-8.87 L 6.88,-8.88 L 6.80,-8.88 L 6.73,-8.88 L 6.65,-8.87 L 6.58,-8.85 L 6.51,-8.83 L 6.46,-8.80 L 6.41,-8.78 L 6.36,-8.75 L 6.32,-8.71 L 6.28,-8.67 L 6.24,-8.63 L 6.20,-8.59 L 6.17,-8.55 L 6.17,-8.83 L 5.84,-8.83 L 5.84,-6.78 L 6.19,-6.78 L 6.19,-7.95 L 6.19,-8.02 L 6.19,-8.09 L 6.20,-8.15 L 6.21,-8.20 L 6.23,-8.25 L 6.26,-8.30 L 6.28,-8.34 L 6.32,-8.39 L 6.35,-8.43 L 6.39,-8.46 L 6.44,-8.49 L 6.48,-8.51 L 6.53,-8.53 L 6.57,-8.55 L 6.62,-8.56 L 6.67,-8.57 L 6.72,-8.58 L 6.77,-8.58 L 6.81,-8.58 L 6.84,-8.57 L 6.87,-8.57 L 6.91,-8.56 L 6.94,-8.55 L 6.97,-8.54 L 7.00,-8.52 L 7.02,-8.51 L 7.05,-8.49 L 7.07,-8.46 L 7.09,-8.44 L 7.11,-8.41 L 7.13,-8.35 L 7.15,-8.29 L 7.16,-8.22 L 7.16,-8.16 L 7.16,-6.78 L 7.51,-6.78 L 7.51,-8.01 Z" />
    <circle class="pivotPoint layout" fill="none" cx="0" cy="0" r="0.2" />
  </g>
</svg>