<?xml version="1.0" encoding="UTF-8"?>
<?xml-stylesheet type='text/css' href='S401Style.css'?>
<svg version="1.2" baseProfile="tiny" style="shape-rendering:geometricPrecision; fill-rule:evenodd;" width="14.84mm" height="15.45mm" viewBox="-7.33 -11.77 14.86 15.47" xmlns="http://www.w3.org/2000/svg">
  <title>BOYINL03FL</title>
  <desc>river buoy bifurcation of the fairway (3.B of CEVNI) - off position - text area -d - left hand side</desc>
  <metadata />
  <g>
    <path class="fORRED sORRED" style="stroke-width:0.04" d="M -1.26,-0.95 L -1.95,-0.50 L -1.95,0.00 L 1.95,0.00 L 1.95,-0.50 L 1.33,-0.95 L 1.39,-1.04 L 1.44,-1.14 L 1.48,-1.25 L 1.51,-1.35 L 1.54,-1.46 L 1.56,-1.57 L 1.57,-1.68 L 1.57,-1.79 L 1.56,-1.90 L 1.55,-2.01 L 1.52,-2.12 L 1.49,-2.22 L 1.46,-2.33 L 1.41,-2.43 L 1.36,-2.53 L 1.30,-2.62 L 1.24,-2.71 L 1.16,-2.79 L 1.09,-2.87 L 1.00,-2.94 L 0.92,-3.01 L 0.82,-3.07 L 0.73,-3.12 L 0.62,-3.17 L 0.52,-3.21 L 0.41,-3.24 L 0.31,-3.26 L 0.20,-3.28 L 0.09,-3.29 L -0.02,-3.29 L -0.13,-3.28 L -0.24,-3.26 L -0.35,-3.24 L -0.46,-3.21 L -0.56,-3.17 L -0.66,-3.12 L -0.76,-3.06 L -0.85,-3.00 L -0.94,-2.94 L -1.02,-2.86 L -1.10,-2.78 L -1.17,-2.70 L -1.23,-2.61 L -1.29,-2.52 L -1.34,-2.42 L -1.39,-2.32 L -1.42,-2.21 L -1.45,-2.10 L -1.47,-2.00 L -1.49,-1.89 L -1.49,-1.78 L -1.49,-1.67 L -1.48,-1.56 L -1.46,-1.45 L -1.43,-1.34 L -1.40,-1.23 L -1.36,-1.13 L -1.31,-1.03 L -1.26,-0.95 Z" />
    <path class="fMIDGN sBLACK" style="stroke-width:0.12" d="M -0.92,-4.00 L 0.00,-5.60 L 0.93,-4.00 L -0.92,-4.00 Z" />
    <path class="f0 sBLACK" style="stroke-width:0.24" d="M -3.87,-1.84 L 0.00,-7.37 L 3.88,-1.84 L 0.00,3.69 L -3.87,-1.84 Z" />
    <path class="fBLACK sBLACK" style="stroke-width:0.04" d="M -5.99,-9.12 L -6.06,-9.12 L -6.14,-9.13 L -6.21,-9.14 L -6.29,-9.16 L -6.36,-9.19 L -6.43,-9.22 L -6.49,-9.26 L -6.55,-9.31 L -6.59,-9.34 L -6.63,-9.37 L -6.66,-9.41 L -6.69,-9.45 L -6.72,-9.48 L -6.75,-9.53 L -6.77,-9.57 L -6.80,-9.61 L -6.83,-9.69 L -6.86,-9.77 L -6.88,-9.85 L -6.90,-9.94 L -6.91,-10.02 L -6.92,-10.11 L -6.93,-10.19 L -6.93,-10.28 L -6.93,-10.36 L -7.32,-10.37 L -7.32,-10.28 L -7.32,-10.18 L -7.32,-10.09 L -7.31,-10.00 L -7.30,-9.91 L -7.29,-9.84 L -7.27,-9.77 L -7.25,-9.70 L -7.23,-9.64 L -7.21,-9.57 L -7.18,-9.51 L -7.15,-9.44 L -7.12,-9.38 L -7.08,-9.33 L -7.04,-9.27 L -7.00,-9.22 L -6.95,-9.17 L -6.90,-9.12 L -6.85,-9.07 L -6.79,-9.03 L -6.74,-8.99 L -6.68,-8.95 L -6.62,-8.92 L -6.55,-8.89 L -6.49,-8.87 L -6.43,-8.85 L -6.37,-8.83 L -6.30,-8.82 L -6.24,-8.81 L -6.18,-8.80 L -6.11,-8.79 L -6.05,-8.79 L -5.99,-8.79 L -5.99,-9.12 Z" />
    <path class="fBLACK sBLACK" style="stroke-width:0.04" d="M -5.99,-8.79 L -5.92,-8.79 L -5.85,-8.79 L -5.78,-8.80 L -5.71,-8.81 L -5.61,-8.83 L -5.52,-8.85 L -5.43,-8.88 L -5.35,-8.92 L -5.26,-8.97 L -5.18,-9.02 L -5.11,-9.08 L -5.04,-9.15 L -4.97,-9.23 L -4.91,-9.31 L -4.85,-9.40 L -4.80,-9.50 L -4.76,-9.60 L -4.72,-9.70 L -4.70,-9.80 L -4.68,-9.91 L -4.67,-10.00 L -4.66,-10.09 L -4.65,-10.18 L -5.05,-10.19 L -5.05,-10.11 L -5.06,-10.02 L -5.08,-9.94 L -5.09,-9.85 L -5.12,-9.77 L -5.15,-9.69 L -5.18,-9.61 L -5.20,-9.57 L -5.22,-9.53 L -5.25,-9.48 L -5.28,-9.44 L -5.31,-9.41 L -5.35,-9.37 L -5.38,-9.34 L -5.42,-9.31 L -5.46,-9.28 L -5.50,-9.25 L -5.54,-9.22 L -5.59,-9.20 L -5.63,-9.18 L -5.68,-9.17 L -5.73,-9.15 L -5.77,-9.14 L -5.83,-9.13 L -5.88,-9.12 L -5.93,-9.12 L -5.99,-9.12 L -5.99,-8.79 Z" />
    <path class="fBLACK sBLACK" style="stroke-width:0.04" d="M -5.99,-11.43 L -5.91,-11.43 L -5.83,-11.42 L -5.76,-11.41 L -5.69,-11.39 L -5.61,-11.36 L -5.54,-11.33 L -5.48,-11.29 L -5.42,-11.24 L -5.38,-11.21 L -5.34,-11.18 L -5.31,-11.14 L -5.28,-11.11 L -5.25,-11.07 L -5.22,-11.03 L -5.20,-10.98 L -5.18,-10.94 L -5.15,-10.86 L -5.12,-10.78 L -5.09,-10.70 L -5.08,-10.62 L -5.06,-10.53 L -5.05,-10.45 L -5.05,-10.36 L -5.05,-10.28 L -5.05,-10.19 L -4.65,-10.18 L -4.65,-10.28 L -4.65,-10.37 L -4.66,-10.46 L -4.67,-10.55 L -4.68,-10.65 L -4.69,-10.72 L -4.70,-10.79 L -4.72,-10.86 L -4.74,-10.92 L -4.77,-10.99 L -4.80,-11.06 L -4.83,-11.12 L -4.87,-11.18 L -4.92,-11.27 L -4.99,-11.35 L -5.06,-11.42 L -5.13,-11.49 L -5.21,-11.55 L -5.30,-11.60 L -5.39,-11.65 L -5.48,-11.69 L -5.54,-11.71 L -5.61,-11.72 L -5.67,-11.74 L -5.73,-11.75 L -5.79,-11.76 L -5.86,-11.76 L -5.92,-11.76 L -5.99,-11.76 L -5.99,-11.43 Z" />
    <path class="fBLACK sBLACK" style="stroke-width:0.04" d="M -5.99,-11.76 L -6.06,-11.76 L -6.13,-11.76 L -6.20,-11.76 L -6.27,-11.75 L -6.36,-11.73 L -6.45,-11.70 L -6.54,-11.67 L -6.63,-11.63 L -6.71,-11.58 L -6.79,-11.52 L -6.86,-11.47 L -6.93,-11.40 L -7.00,-11.32 L -7.07,-11.24 L -7.13,-11.15 L -7.18,-11.05 L -7.22,-10.95 L -7.25,-10.85 L -7.28,-10.75 L -7.30,-10.65 L -7.31,-10.55 L -7.32,-10.46 L -7.32,-10.37 L -6.93,-10.36 L -6.92,-10.45 L -6.91,-10.53 L -6.90,-10.62 L -6.88,-10.70 L -6.86,-10.78 L -6.83,-10.86 L -6.80,-10.94 L -6.77,-10.98 L -6.75,-11.03 L -6.72,-11.07 L -6.69,-11.11 L -6.66,-11.14 L -6.63,-11.18 L -6.59,-11.21 L -6.55,-11.25 L -6.52,-11.27 L -6.47,-11.30 L -6.43,-11.33 L -6.39,-11.35 L -6.34,-11.37 L -6.30,-11.39 L -6.25,-11.40 L -6.20,-11.41 L -6.15,-11.42 L -6.09,-11.43 L -6.04,-11.43 L -5.99,-11.43 L -5.99,-11.76 Z" />
    <path class="fBLACK sBLACK" style="stroke-width:0.04" d="M -3.35,-11.71 L -3.42,-11.72 L -3.50,-11.73 L -3.58,-11.73 L -3.66,-11.73 L -3.71,-11.73 L -3.77,-11.72 L -3.83,-11.70 L -3.88,-11.68 L -3.92,-11.65 L -3.96,-11.62 L -3.99,-11.58 L -4.02,-11.54 L -4.04,-11.50 L -4.06,-11.46 L -4.07,-11.42 L -4.08,-11.38 L -4.09,-11.34 L -4.09,-11.30 L -4.09,-11.26 L -4.09,-11.22 L -4.09,-10.92 L -4.46,-10.92 L -4.46,-10.65 L -4.09,-10.65 L -4.09,-8.87 L -3.74,-8.87 L -3.74,-10.65 L -3.35,-10.65 L -3.35,-10.92 L -3.74,-10.92 L -3.74,-11.09 L -3.74,-11.14 L -3.74,-11.19 L -3.74,-11.23 L -3.73,-11.28 L -3.72,-11.30 L -3.70,-11.33 L -3.69,-11.35 L -3.67,-11.36 L -3.63,-11.39 L -3.58,-11.40 L -3.54,-11.41 L -3.49,-11.42 L -3.39,-11.41 L -3.35,-11.40 L -3.35,-11.71 Z" />
    <path class="fBLACK sBLACK" style="stroke-width:0.04" d="M -2.26,-11.71 L -2.33,-11.72 L -2.41,-11.73 L -2.49,-11.73 L -2.57,-11.73 L -2.62,-11.73 L -2.68,-11.72 L -2.73,-11.70 L -2.79,-11.68 L -2.83,-11.65 L -2.87,-11.62 L -2.90,-11.58 L -2.93,-11.54 L -2.95,-11.50 L -2.96,-11.46 L -2.98,-11.42 L -2.99,-11.38 L -2.99,-11.34 L -3.00,-11.30 L -3.00,-11.26 L -3.00,-11.22 L -3.00,-10.92 L -3.37,-10.92 L -3.37,-10.65 L -3.00,-10.65 L -3.00,-8.87 L -2.65,-8.87 L -2.65,-10.65 L -2.26,-10.65 L -2.26,-10.92 L -2.65,-10.92 L -2.65,-11.09 L -2.65,-11.14 L -2.65,-11.19 L -2.65,-11.23 L -2.64,-11.28 L -2.63,-11.30 L -2.61,-11.33 L -2.59,-11.35 L -2.57,-11.36 L -2.53,-11.39 L -2.49,-11.40 L -2.45,-11.41 L -2.40,-11.42 L -2.29,-11.41 L -2.26,-11.40 L -2.26,-11.71 Z" />
    <path class="fBLACK sBLACK" style="stroke-width:0.04" d="M 0.88,-10.87 L 0.88,-10.81 L 0.87,-10.76 L 0.86,-10.70 L 0.84,-10.65 L 0.83,-10.61 L 0.80,-10.58 L 0.78,-10.55 L 0.75,-10.52 L 0.72,-10.49 L 0.68,-10.47 L 0.65,-10.45 L 0.61,-10.43 L 0.56,-10.42 L 0.51,-10.41 L 0.46,-10.40 L 0.41,-10.40 L 0.23,-10.39 L -0.47,-10.39 L -0.47,-10.06 L 0.16,-10.06 L 0.28,-10.06 L 0.39,-10.06 L 0.51,-10.06 L 0.62,-10.08 L 0.67,-10.08 L 0.72,-10.10 L 0.77,-10.11 L 0.81,-10.13 L 0.86,-10.15 L 0.90,-10.17 L 0.95,-10.20 L 0.99,-10.23 L 1.02,-10.26 L 1.06,-10.30 L 1.09,-10.33 L 1.13,-10.37 L 1.15,-10.41 L 1.18,-10.46 L 1.20,-10.50 L 1.22,-10.55 L 1.25,-10.63 L 1.26,-10.71 L 1.27,-10.79 L 1.28,-10.88 L 0.88,-10.87 Z" />
    <path class="fBLACK sBLACK" style="stroke-width:0.04" d="M 1.28,-10.88 L 1.27,-10.97 L 1.26,-11.06 L 1.25,-11.12 L 1.23,-11.18 L 1.21,-11.24 L 1.18,-11.29 L 1.15,-11.35 L 1.12,-11.40 L 1.08,-11.45 L 1.03,-11.49 L 0.99,-11.53 L 0.94,-11.56 L 0.89,-11.59 L 0.83,-11.62 L 0.78,-11.64 L 0.72,-11.65 L 0.66,-11.67 L 0.60,-11.68 L 0.49,-11.68 L 0.37,-11.69 L 0.25,-11.69 L 0.14,-11.69 L -0.86,-11.69 L -0.86,-8.87 L -0.47,-8.87 L -0.47,-10.06 L -0.47,-10.39 L -0.47,-11.34 L 0.26,-11.34 L 0.38,-11.34 L 0.49,-11.33 L 0.55,-11.32 L 0.60,-11.31 L 0.65,-11.29 L 0.70,-11.26 L 0.73,-11.24 L 0.76,-11.21 L 0.79,-11.18 L 0.81,-11.15 L 0.83,-11.12 L 0.85,-11.08 L 0.86,-11.04 L 0.87,-11.00 L 0.88,-10.94 L 0.88,-10.87 L 1.28,-10.88 Z" />
    <path class="fBLACK sBLACK" style="stroke-width:0.04" d="M 3.12,-9.84 L 3.12,-9.78 L 3.11,-9.72 L 3.10,-9.66 L 3.09,-9.60 L 3.07,-9.54 L 3.06,-9.48 L 3.04,-9.43 L 3.02,-9.39 L 3.00,-9.36 L 2.98,-9.32 L 2.95,-9.29 L 2.93,-9.26 L 2.90,-9.24 L 2.87,-9.21 L 2.83,-9.19 L 2.80,-9.17 L 2.76,-9.15 L 2.73,-9.14 L 2.69,-9.13 L 2.65,-9.12 L 2.61,-9.11 L 2.57,-9.11 L 2.53,-9.11 L 2.49,-9.11 L 2.45,-9.11 L 2.41,-9.12 L 2.37,-9.13 L 2.34,-9.14 L 2.30,-9.15 L 2.26,-9.17 L 2.23,-9.19 L 2.19,-9.21 L 2.16,-9.24 L 2.13,-9.26 L 2.11,-9.29 L 2.08,-9.33 L 2.06,-9.36 L 2.04,-9.40 L 2.02,-9.43 L 2.00,-9.49 L 1.98,-9.54 L 1.97,-9.60 L 1.96,-9.66 L 1.95,-9.72 L 1.94,-9.78 L 1.59,-9.77 L 1.60,-9.65 L 1.61,-9.55 L 1.64,-9.46 L 1.67,-9.37 L 1.71,-9.28 L 1.74,-9.21 L 1.79,-9.15 L 1.83,-9.09 L 1.89,-9.04 L 1.94,-8.99 L 2.00,-8.94 L 2.07,-8.90 L 2.14,-8.87 L 2.18,-8.85 L 2.23,-8.84 L 2.28,-8.83 L 2.33,-8.82 L 2.38,-8.81 L 2.43,-8.81 L 2.48,-8.80 L 2.53,-8.80 L 2.59,-8.81 L 2.64,-8.81 L 2.70,-8.81 L 2.75,-8.82 L 2.80,-8.83 L 2.84,-8.85 L 2.89,-8.86 L 2.93,-8.88 L 2.98,-8.90 L 3.02,-8.92 L 3.06,-8.94 L 3.09,-8.97 L 3.15,-9.02 L 3.21,-9.07 L 3.26,-9.13 L 3.30,-9.19 L 3.34,-9.26 L 3.37,-9.33 L 3.40,-9.40 L 3.42,-9.47 L 3.44,-9.57 L 3.46,-9.68 L 3.47,-9.79 L 3.12,-9.84 Z" />
    <path class="fBLACK sBLACK" style="stroke-width:0.04" d="M 2.53,-10.98 L 2.48,-10.98 L 2.43,-10.98 L 2.38,-10.98 L 2.33,-10.97 L 2.28,-10.96 L 2.23,-10.95 L 2.18,-10.93 L 2.14,-10.92 L 2.09,-10.89 L 2.05,-10.87 L 2.00,-10.84 L 1.96,-10.81 L 1.92,-10.78 L 1.89,-10.75 L 1.85,-10.71 L 1.82,-10.67 L 1.78,-10.63 L 1.76,-10.59 L 1.73,-10.55 L 1.70,-10.50 L 1.68,-10.46 L 1.66,-10.41 L 1.65,-10.36 L 1.63,-10.32 L 1.61,-10.21 L 1.60,-10.11 L 1.59,-10.00 L 1.59,-9.90 L 1.59,-9.77 L 1.94,-9.78 L 1.94,-9.84 L 1.94,-9.90 L 1.94,-9.95 L 1.94,-10.01 L 1.95,-10.07 L 1.96,-10.13 L 1.97,-10.19 L 1.98,-10.25 L 2.00,-10.30 L 2.02,-10.36 L 2.04,-10.39 L 2.06,-10.43 L 2.08,-10.46 L 2.11,-10.49 L 2.13,-10.52 L 2.16,-10.55 L 2.19,-10.58 L 2.23,-10.60 L 2.26,-10.62 L 2.30,-10.64 L 2.34,-10.65 L 2.37,-10.66 L 2.41,-10.67 L 2.45,-10.68 L 2.49,-10.68 L 2.53,-10.68 L 2.53,-10.98 Z" />
    <path class="fBLACK sBLACK" style="stroke-width:0.04" d="M 2.53,-10.68 L 2.57,-10.68 L 2.61,-10.67 L 2.65,-10.67 L 2.69,-10.66 L 2.73,-10.65 L 2.76,-10.63 L 2.80,-10.62 L 2.83,-10.60 L 2.87,-10.57 L 2.90,-10.55 L 2.93,-10.52 L 2.95,-10.49 L 2.98,-10.46 L 3.00,-10.43 L 3.02,-10.39 L 3.04,-10.36 L 3.06,-10.30 L 3.07,-10.25 L 3.09,-10.19 L 3.10,-10.13 L 3.11,-10.07 L 3.12,-10.01 L 3.12,-9.95 L 3.12,-9.90 L 3.12,-9.84 L 3.47,-9.79 L 3.47,-9.89 L 3.47,-10.01 L 3.46,-10.13 L 3.44,-10.23 L 3.42,-10.33 L 3.39,-10.42 L 3.35,-10.51 L 3.31,-10.57 L 3.27,-10.64 L 3.22,-10.70 L 3.17,-10.75 L 3.11,-10.80 L 3.05,-10.84 L 2.99,-10.88 L 2.92,-10.92 L 2.87,-10.93 L 2.83,-10.95 L 2.78,-10.96 L 2.73,-10.97 L 2.68,-10.98 L 2.63,-10.98 L 2.58,-10.98 L 2.53,-10.98 L 2.53,-10.68 Z" />
    <path class="fBLACK sBLACK" style="stroke-width:0.04" d="M 4.22,-10.24 L 4.20,-10.26 L 4.19,-10.28 L 4.17,-10.30 L 4.16,-10.32 L 4.15,-10.35 L 4.15,-10.37 L 4.15,-10.40 L 4.15,-10.43 L 4.15,-10.46 L 4.16,-10.50 L 4.18,-10.53 L 4.19,-10.56 L 4.22,-10.58 L 4.24,-10.60 L 4.27,-10.62 L 4.30,-10.64 L 4.34,-10.65 L 4.37,-10.67 L 4.41,-10.68 L 4.44,-10.68 L 4.48,-10.69 L 4.52,-10.69 L 4.56,-10.69 L 4.63,-10.69 L 4.71,-10.68 L 4.78,-10.66 L 4.85,-10.63 L 4.88,-10.62 L 4.91,-10.60 L 4.93,-10.58 L 4.95,-10.56 L 4.97,-10.54 L 4.99,-10.51 L 5.01,-10.49 L 5.02,-10.46 L 5.04,-10.40 L 5.05,-10.35 L 5.38,-10.35 L 5.38,-10.40 L 5.38,-10.45 L 5.37,-10.50 L 5.35,-10.56 L 5.33,-10.61 L 5.30,-10.66 L 5.26,-10.71 L 5.22,-10.76 L 5.18,-10.80 L 5.13,-10.84 L 5.08,-10.87 L 5.02,-10.89 L 4.97,-10.91 L 4.92,-10.93 L 4.86,-10.95 L 4.81,-10.96 L 4.75,-10.97 L 4.69,-10.98 L 4.64,-10.98 L 4.58,-10.98 L 4.52,-10.98 L 4.46,-10.98 L 4.40,-10.97 L 4.35,-10.96 L 4.29,-10.95 L 4.23,-10.94 L 4.18,-10.92 L 4.12,-10.89 L 4.09,-10.88 L 4.05,-10.85 L 4.02,-10.83 L 3.99,-10.81 L 3.96,-10.78 L 3.94,-10.75 L 3.91,-10.72 L 3.89,-10.69 L 3.87,-10.65 L 3.85,-10.62 L 3.84,-10.58 L 3.82,-10.55 L 3.81,-10.51 L 3.81,-10.47 L 3.80,-10.43 L 3.80,-10.39 L 3.80,-10.33 L 3.81,-10.27 L 3.82,-10.22 L 3.84,-10.17 L 3.86,-10.12 L 3.89,-10.07 L 3.92,-10.03 L 3.96,-9.99 L 4.00,-9.96 L 4.04,-9.93 L 4.22,-10.24 Z" />
    <path class="fBLACK sBLACK" style="stroke-width:0.04" d="M 4.59,-8.80 L 4.68,-8.81 L 4.77,-8.82 L 4.85,-8.83 L 4.93,-8.84 L 5.01,-8.87 L 5.09,-8.90 L 5.13,-8.92 L 5.17,-8.95 L 5.20,-8.97 L 5.24,-9.00 L 5.27,-9.03 L 5.30,-9.06 L 5.33,-9.10 L 5.35,-9.14 L 5.37,-9.18 L 5.39,-9.22 L 5.41,-9.26 L 5.42,-9.30 L 5.43,-9.35 L 5.44,-9.39 L 5.44,-9.44 L 5.44,-9.48 L 5.44,-9.56 L 5.43,-9.63 L 5.42,-9.67 L 5.40,-9.71 L 5.38,-9.75 L 5.36,-9.79 L 5.34,-9.82 L 5.31,-9.85 L 5.28,-9.88 L 5.24,-9.91 L 5.19,-9.94 L 5.13,-9.97 L 5.07,-10.00 L 5.01,-10.02 L 4.81,-10.07 L 4.47,-10.15 L 4.41,-10.16 L 4.36,-10.18 L 4.30,-10.20 L 4.25,-10.23 L 4.22,-10.24 L 4.04,-9.93 L 4.13,-9.89 L 4.21,-9.86 L 4.30,-9.83 L 4.39,-9.81 L 4.78,-9.71 L 4.90,-9.68 L 4.93,-9.67 L 4.96,-9.66 L 4.99,-9.64 L 5.01,-9.62 L 5.03,-9.61 L 5.05,-9.59 L 5.06,-9.57 L 5.07,-9.55 L 5.08,-9.53 L 5.09,-9.50 L 5.09,-9.48 L 5.09,-9.46 L 5.09,-9.42 L 5.09,-9.38 L 5.08,-9.35 L 5.06,-9.31 L 5.04,-9.28 L 5.02,-9.25 L 5.00,-9.22 L 4.97,-9.20 L 4.94,-9.18 L 4.91,-9.16 L 4.83,-9.14 L 4.76,-9.12 L 4.68,-9.11 L 4.61,-9.11 L 4.59,-8.80 Z" />
    <path class="fBLACK sBLACK" style="stroke-width:0.04" d="M 4.61,-9.11 L 4.55,-9.11 L 4.50,-9.11 L 4.45,-9.12 L 4.39,-9.13 L 4.35,-9.15 L 4.30,-9.17 L 4.26,-9.19 L 4.22,-9.22 L 4.19,-9.26 L 4.16,-9.30 L 4.13,-9.34 L 4.11,-9.38 L 4.09,-9.46 L 4.08,-9.53 L 3.74,-9.53 L 3.74,-9.49 L 3.75,-9.44 L 3.75,-9.40 L 3.76,-9.35 L 3.77,-9.31 L 3.79,-9.26 L 3.80,-9.22 L 3.82,-9.18 L 3.86,-9.12 L 3.90,-9.06 L 3.94,-9.01 L 3.99,-8.97 L 4.05,-8.93 L 4.11,-8.89 L 4.17,-8.87 L 4.24,-8.85 L 4.32,-8.83 L 4.41,-8.81 L 4.50,-8.81 L 4.59,-8.80 L 4.61,-9.11 Z" />
    <path class="fBLACK sBLACK" style="stroke-width:0.04" d="M 7.52,-10.10 L 7.52,-10.20 L 7.52,-10.30 L 7.51,-10.39 L 7.50,-10.49 L 7.49,-10.54 L 7.48,-10.60 L 7.46,-10.65 L 7.43,-10.69 L 7.40,-10.73 L 7.37,-10.77 L 7.33,-10.81 L 7.29,-10.84 L 7.25,-10.87 L 7.21,-10.89 L 7.16,-10.91 L 7.11,-10.93 L 7.04,-10.95 L 6.96,-10.96 L 6.88,-10.97 L 6.81,-10.97 L 6.73,-10.97 L 6.66,-10.96 L 6.58,-10.94 L 6.51,-10.92 L 6.46,-10.89 L 6.41,-10.87 L 6.37,-10.83 L 6.32,-10.80 L 6.28,-10.76 L 6.24,-10.72 L 6.21,-10.68 L 6.17,-10.63 L 6.17,-10.92 L 5.84,-10.92 L 5.84,-8.87 L 6.19,-8.87 L 6.19,-10.04 L 6.19,-10.11 L 6.20,-10.18 L 6.21,-10.24 L 6.22,-10.29 L 6.24,-10.34 L 6.26,-10.39 L 6.29,-10.43 L 6.32,-10.48 L 6.36,-10.52 L 6.40,-10.55 L 6.44,-10.58 L 6.48,-10.60 L 6.53,-10.62 L 6.58,-10.64 L 6.63,-10.65 L 6.68,-10.66 L 6.73,-10.66 L 6.78,-10.67 L 6.81,-10.67 L 6.84,-10.66 L 6.88,-10.66 L 6.91,-10.65 L 6.94,-10.64 L 6.97,-10.63 L 7.00,-10.61 L 7.03,-10.60 L 7.05,-10.57 L 7.08,-10.55 L 7.10,-10.53 L 7.11,-10.50 L 7.14,-10.44 L 7.16,-10.38 L 7.17,-10.31 L 7.17,-10.25 L 7.17,-8.87 L 7.52,-8.87 L 7.52,-10.10 Z" />
    <path class="f0 sBLACK" style="stroke-width:0.24" d="M -3.63,-1.84 L 0.00,-7.02 L 3.63,-1.84 L 0.00,3.34 L -3.63,-1.84 Z" />
    <path class="f0 sBLACK" style="stroke-width:0.12" d="M -1.26,-0.95 L -1.95,-0.50 L -1.95,0.00 L 1.95,0.00 L 1.95,-0.50 L 1.33,-0.95 " />
    <path class="fMIDGN sMIDGN" style="stroke-width:0.04" d="M 1.42,-2.41 L 1.37,-2.51 L 1.31,-2.60 L 1.25,-2.69 L 1.18,-2.78 L 1.10,-2.86 L 1.02,-2.93 L 0.93,-3.00 L 0.84,-3.06 L 0.75,-3.11 L 0.65,-3.16 L 0.54,-3.20 L 0.44,-3.24 L 0.33,-3.26 L 0.22,-3.28 L 0.11,-3.29 L 0.00,-3.29 L -0.11,-3.28 L -0.22,-3.27 L -0.33,-3.24 L -0.44,-3.21 L -0.54,-3.17 L -0.64,-3.13 L -0.74,-3.08 L -0.83,-3.02 L -0.92,-2.95 L -1.00,-2.88 L -1.08,-2.80 L -1.15,-2.72 L -1.22,-2.63 L -1.28,-2.54 L -1.33,-2.44 L -1.35,-2.41 L 1.42,-2.41 Z" />
    <path class="fMIDGN sMIDGN" style="stroke-width:0.04" d="M -1.33,-1.07 L 1.40,-1.07 L 1.45,-1.17 L 1.49,-1.27 L 1.52,-1.38 L 1.54,-1.49 L 1.56,-1.60 L 1.57,-1.71 L 1.57,-1.76 L -1.49,-1.76 L -1.49,-1.65 L -1.47,-1.54 L -1.45,-1.43 L -1.43,-1.32 L -1.39,-1.22 L -1.35,-1.12 L -1.33,-1.07 Z" />
    <path class="f0 sBLACK" style="stroke-width:0.12" d="M -1.26,-0.95 L -1.31,-1.04 L -1.36,-1.14 L -1.40,-1.24 L -1.43,-1.35 L -1.46,-1.46 L -1.48,-1.57 L -1.49,-1.68 L -1.49,-1.79 L -1.48,-1.90 L -1.47,-2.01 L -1.45,-2.11 L -1.42,-2.22 L -1.38,-2.33 L -1.34,-2.43 L -1.29,-2.52 L -1.23,-2.62 L -1.16,-2.71 L -1.09,-2.79 L -1.01,-2.87 L -0.93,-2.94 L -0.84,-3.01 L -0.75,-3.07 L -0.65,-3.12 L -0.55,-3.17 L -0.45,-3.21 L -0.34,-3.24 L -0.23,-3.26 L -0.12,-3.28 L -0.01,-3.29 L 0.10,-3.29 L 0.21,-3.28 L 0.32,-3.26 L 0.43,-3.24 L 0.53,-3.21 L 0.63,-3.17 L 0.73,-3.12 L 0.83,-3.07 L 0.92,-3.01 L 1.01,-2.94 L 1.09,-2.87 L 1.17,-2.79 L 1.24,-2.70 L 1.31,-2.61 L 1.37,-2.52 L 1.42,-2.42 L 1.46,-2.32 L 1.50,-2.21 L 1.53,-2.11 L 1.55,-2.00 L 1.56,-1.89 L 1.57,-1.78 L 1.56,-1.67 L 1.55,-1.56 L 1.54,-1.45 L 1.51,-1.34 L 1.48,-1.24 L 1.43,-1.13 L 1.39,-1.03 L 1.33,-0.95 " />
    <circle class="pivotPoint layout" fill="none" cx="0" cy="0" r="0.2" />
  </g>
</svg>