<?xml version="1.0" encoding="UTF-8"?>
<?xml-stylesheet type='text/css' href='S401Style.css'?>
<svg version="1.2" baseProfile="tiny" style="shape-rendering:geometricPrecision; fill-rule:evenodd;" width="15.50mm" height="14.42mm" viewBox="-7.46 -10.77 15.52 14.44" xmlns="http://www.w3.org/2000/svg">
  <title>BOYINL08M</title>
  <desc>river buoy yellow float (8.C of CEVNI) - off position - missing- - text area -d</desc>
  <metadata />
  <g>
    <path class="fYLLOW sBLACK" style="stroke-width:0.12" d="M -2.05,0.00 L 2.05,0.00 L 2.05,-0.67 L 1.52,-0.67 L 2.05,-2.10 L -1.05,-2.10 L -1.58,-0.68 L -2.05,-0.68 L -2.05,0.00 Z" />
    <path class="f0 sBLACK" style="stroke-width:0.24" d="M 2.34,-2.42 L 3.37,-0.95 L 2.19,0.73 " />
    <path class="f0 sBLACK" style="stroke-width:0.24" d="M 1.35,1.93 L 0.14,3.66 L -1.02,2.01 " />
    <path class="f0 sBLACK" style="stroke-width:0.24" d="M -1.13,-3.75 L 0.14,-5.55 L 1.39,-3.77 " />
    <path class="f0 sBLACK" style="stroke-width:0.24" d="M -1.98,0.64 L -3.09,-0.95 L -2.02,-2.47 " />
    <path class="f0 sBLACK" style="stroke-width:0.24" d="M -0.96,-3.64 L 0.14,-5.20 L 1.22,-3.65 " />
    <path class="f0 sBLACK" style="stroke-width:0.24" d="M -1.82,0.52 L -2.85,-0.95 L -1.86,-2.36 " />
    <path class="f0 sBLACK" style="stroke-width:0.24" d="M 2.17,-2.30 L 3.12,-0.95 L 2.03,0.62 " />
    <path class="f0 sBLACK" style="stroke-width:0.24" d="M 1.19,1.81 L 0.14,3.31 L -0.86,1.89 " />
    <path class="fBLACK sBLACK" style="stroke-width:0.04" d="M -5.80,-9.71 L -5.85,-9.75 L -5.91,-9.78 L -5.96,-9.81 L -6.02,-9.84 L -6.10,-9.86 L -6.18,-9.88 L -6.26,-9.89 L -6.35,-9.89 L -6.40,-9.88 L -6.45,-9.88 L -6.51,-9.87 L -6.56,-9.86 L -6.61,-9.85 L -6.66,-9.83 L -6.71,-9.81 L -6.75,-9.78 L -6.80,-9.75 L -6.84,-9.72 L -6.88,-9.69 L -6.92,-9.66 L -6.96,-9.62 L -6.99,-9.58 L -7.02,-9.54 L -7.05,-9.49 L -7.05,-9.83 L -7.45,-9.83 L -7.45,-7.34 L -7.04,-7.34 L -7.04,-8.81 L -7.04,-8.88 L -7.03,-8.94 L -7.02,-8.99 L -7.02,-9.04 L -7.00,-9.09 L -6.99,-9.13 L -6.97,-9.18 L -6.95,-9.22 L -6.92,-9.27 L -6.90,-9.31 L -6.85,-9.36 L -6.80,-9.40 L -6.75,-9.44 L -6.69,-9.47 L -6.62,-9.49 L -6.56,-9.51 L -6.49,-9.52 L -6.43,-9.52 L -6.37,-9.52 L -6.32,-9.52 L -6.27,-9.51 L -6.23,-9.49 L -6.18,-9.46 L -6.14,-9.44 L -6.11,-9.40 L -5.80,-9.71 Z" />
    <path class="fBLACK sBLACK" style="stroke-width:0.04" d="M -6.11,-9.40 L -6.08,-9.36 L -6.05,-9.32 L -6.02,-9.25 L -6.01,-9.17 L -5.99,-9.10 L -5.99,-9.02 L -5.99,-7.34 L -5.57,-7.34 L -5.57,-8.81 L -5.56,-8.88 L -5.56,-8.94 L -5.55,-9.01 L -5.54,-9.07 L -5.53,-9.12 L -5.51,-9.16 L -5.49,-9.20 L -5.47,-9.25 L -5.45,-9.29 L -5.42,-9.32 L -5.39,-9.36 L -5.35,-9.39 L -5.31,-9.42 L -5.26,-9.45 L -5.22,-9.47 L -5.17,-9.49 L -5.12,-9.50 L -5.07,-9.51 L -5.01,-9.52 L -4.96,-9.52 L -4.89,-9.52 L -4.83,-9.51 L -4.76,-9.48 L -4.70,-9.45 L -4.67,-9.43 L -4.65,-9.41 L -4.62,-9.38 L -4.60,-9.35 L -4.58,-9.32 L -4.56,-9.28 L -4.55,-9.25 L -4.54,-9.21 L -4.53,-9.13 L -4.53,-9.04 L -4.52,-8.96 L -4.52,-8.87 L -4.52,-7.34 L -4.11,-7.34 L -4.11,-8.84 L -4.11,-8.96 L -4.11,-9.07 L -4.12,-9.19 L -4.12,-9.31 L -4.13,-9.36 L -4.14,-9.40 L -4.15,-9.44 L -4.17,-9.49 L -4.19,-9.53 L -4.21,-9.57 L -4.24,-9.60 L -4.26,-9.64 L -4.29,-9.67 L -4.33,-9.70 L -4.36,-9.73 L -4.40,-9.76 L -4.43,-9.78 L -4.47,-9.81 L -4.51,-9.82 L -4.56,-9.84 L -4.64,-9.86 L -4.72,-9.88 L -4.81,-9.89 L -4.89,-9.89 L -4.95,-9.89 L -5.00,-9.88 L -5.06,-9.87 L -5.11,-9.86 L -5.17,-9.85 L -5.22,-9.83 L -5.27,-9.81 L -5.32,-9.79 L -5.37,-9.76 L -5.42,-9.73 L -5.46,-9.70 L -5.50,-9.67 L -5.54,-9.63 L -5.58,-9.59 L -5.62,-9.55 L -5.65,-9.51 L -5.68,-9.56 L -5.72,-9.61 L -5.76,-9.66 L -5.80,-9.71 L -6.11,-9.40 Z" />
    <path class="fBLACK sBLACK" style="stroke-width:0.04" d="M -3.48,-10.76 L -3.48,-10.28 L -3.07,-10.28 L -3.07,-10.76 L -3.48,-10.76 Z" />
    <path class="fBLACK sBLACK" style="stroke-width:0.04" d="M -3.48,-9.83 L -3.48,-7.34 L -3.07,-7.34 L -3.07,-9.83 L -3.48,-9.83 Z" />
    <path class="fBLACK sBLACK" style="stroke-width:0.04" d="M -2.02,-9.00 L -2.05,-9.03 L -2.07,-9.05 L -2.09,-9.08 L -2.10,-9.10 L -2.11,-9.13 L -2.11,-9.17 L -2.12,-9.20 L -2.11,-9.24 L -2.11,-9.28 L -2.10,-9.32 L -2.08,-9.35 L -2.06,-9.39 L -2.03,-9.42 L -2.00,-9.45 L -1.97,-9.47 L -1.93,-9.49 L -1.89,-9.51 L -1.84,-9.52 L -1.80,-9.53 L -1.76,-9.54 L -1.71,-9.55 L -1.67,-9.55 L -1.62,-9.55 L -1.53,-9.55 L -1.44,-9.54 L -1.35,-9.51 L -1.26,-9.48 L -1.23,-9.47 L -1.20,-9.44 L -1.17,-9.42 L -1.14,-9.40 L -1.11,-9.37 L -1.09,-9.34 L -1.07,-9.30 L -1.06,-9.27 L -1.04,-9.20 L -1.03,-9.14 L -0.62,-9.14 L -0.62,-9.20 L -0.63,-9.26 L -0.64,-9.33 L -0.66,-9.39 L -0.69,-9.46 L -0.72,-9.52 L -0.76,-9.58 L -0.81,-9.63 L -0.87,-9.68 L -0.93,-9.73 L -0.99,-9.77 L -1.06,-9.80 L -1.12,-9.82 L -1.18,-9.85 L -1.25,-9.86 L -1.32,-9.88 L -1.39,-9.89 L -1.45,-9.90 L -1.52,-9.91 L -1.59,-9.91 L -1.66,-9.91 L -1.73,-9.90 L -1.80,-9.89 L -1.87,-9.88 L -1.94,-9.87 L -2.01,-9.85 L -2.08,-9.82 L -2.14,-9.80 L -2.19,-9.78 L -2.23,-9.75 L -2.27,-9.72 L -2.30,-9.69 L -2.34,-9.66 L -2.37,-9.63 L -2.40,-9.59 L -2.43,-9.55 L -2.45,-9.51 L -2.47,-9.47 L -2.49,-9.42 L -2.51,-9.38 L -2.52,-9.33 L -2.53,-9.28 L -2.53,-9.24 L -2.53,-9.19 L -2.53,-9.11 L -2.52,-9.04 L -2.51,-8.98 L -2.49,-8.92 L -2.46,-8.86 L -2.43,-8.80 L -2.39,-8.75 L -2.34,-8.71 L -2.29,-8.67 L -2.24,-8.63 L -2.02,-9.00 Z" />
    <path class="fBLACK sBLACK" style="stroke-width:0.04" d="M -1.58,-7.27 L -1.47,-7.27 L -1.36,-7.28 L -1.26,-7.30 L -1.17,-7.32 L -1.07,-7.35 L -0.98,-7.39 L -0.93,-7.41 L -0.88,-7.44 L -0.84,-7.47 L -0.80,-7.51 L -0.76,-7.54 L -0.72,-7.58 L -0.69,-7.63 L -0.66,-7.67 L -0.63,-7.72 L -0.61,-7.77 L -0.59,-7.82 L -0.57,-7.87 L -0.56,-7.93 L -0.55,-7.98 L -0.55,-8.04 L -0.55,-8.09 L -0.55,-8.18 L -0.57,-8.27 L -0.58,-8.32 L -0.60,-8.36 L -0.62,-8.41 L -0.64,-8.46 L -0.68,-8.50 L -0.71,-8.54 L -0.75,-8.57 L -0.79,-8.60 L -0.85,-8.65 L -0.92,-8.68 L -1.00,-8.71 L -1.07,-8.74 L -1.31,-8.80 L -1.72,-8.89 L -1.79,-8.91 L -1.86,-8.93 L -1.93,-8.96 L -2.00,-8.99 L -2.02,-9.00 L -2.24,-8.63 L -2.14,-8.59 L -2.04,-8.55 L -1.93,-8.52 L -1.83,-8.49 L -1.35,-8.37 L -1.20,-8.33 L -1.17,-8.32 L -1.13,-8.30 L -1.10,-8.28 L -1.07,-8.26 L -1.05,-8.24 L -1.03,-8.22 L -1.01,-8.20 L -1.00,-8.17 L -0.98,-8.14 L -0.98,-8.12 L -0.97,-8.09 L -0.97,-8.06 L -0.97,-8.01 L -0.98,-7.97 L -0.99,-7.92 L -1.01,-7.88 L -1.03,-7.84 L -1.06,-7.81 L -1.09,-7.78 L -1.12,-7.75 L -1.16,-7.72 L -1.20,-7.70 L -1.28,-7.67 L -1.37,-7.65 L -1.47,-7.64 L -1.56,-7.64 L -1.58,-7.27 Z" />
    <path class="fBLACK sBLACK" style="stroke-width:0.04" d="M -1.56,-7.64 L -1.62,-7.64 L -1.69,-7.64 L -1.75,-7.65 L -1.82,-7.67 L -1.87,-7.68 L -1.93,-7.71 L -1.98,-7.74 L -2.02,-7.78 L -2.07,-7.82 L -2.10,-7.87 L -2.13,-7.92 L -2.16,-7.97 L -2.18,-8.06 L -2.20,-8.15 L -2.61,-8.15 L -2.60,-8.10 L -2.60,-8.04 L -2.59,-7.99 L -2.58,-7.93 L -2.57,-7.88 L -2.55,-7.83 L -2.53,-7.77 L -2.51,-7.72 L -2.47,-7.65 L -2.42,-7.58 L -2.36,-7.52 L -2.30,-7.47 L -2.23,-7.42 L -2.16,-7.38 L -2.09,-7.34 L -2.01,-7.32 L -1.90,-7.30 L -1.80,-7.28 L -1.69,-7.27 L -1.58,-7.27 L -1.56,-7.64 Z" />
    <path class="fBLACK sBLACK" style="stroke-width:0.04" d="M 0.35,-9.00 L 0.33,-9.03 L 0.31,-9.05 L 0.29,-9.08 L 0.28,-9.10 L 0.27,-9.13 L 0.26,-9.17 L 0.26,-9.20 L 0.26,-9.24 L 0.27,-9.28 L 0.28,-9.32 L 0.30,-9.35 L 0.32,-9.39 L 0.35,-9.42 L 0.38,-9.45 L 0.41,-9.47 L 0.45,-9.49 L 0.49,-9.51 L 0.53,-9.52 L 0.58,-9.53 L 0.62,-9.54 L 0.67,-9.55 L 0.71,-9.55 L 0.76,-9.55 L 0.85,-9.55 L 0.94,-9.54 L 1.03,-9.51 L 1.11,-9.48 L 1.15,-9.47 L 1.18,-9.44 L 1.21,-9.42 L 1.24,-9.40 L 1.26,-9.37 L 1.29,-9.34 L 1.31,-9.30 L 1.32,-9.27 L 1.34,-9.20 L 1.35,-9.14 L 1.76,-9.14 L 1.76,-9.20 L 1.75,-9.26 L 1.74,-9.33 L 1.72,-9.39 L 1.69,-9.46 L 1.66,-9.52 L 1.61,-9.58 L 1.56,-9.63 L 1.51,-9.68 L 1.45,-9.73 L 1.39,-9.77 L 1.32,-9.80 L 1.26,-9.82 L 1.19,-9.85 L 1.13,-9.86 L 1.06,-9.88 L 0.99,-9.89 L 0.92,-9.90 L 0.85,-9.91 L 0.78,-9.91 L 0.71,-9.91 L 0.64,-9.90 L 0.57,-9.89 L 0.50,-9.88 L 0.43,-9.87 L 0.37,-9.85 L 0.30,-9.82 L 0.23,-9.80 L 0.19,-9.78 L 0.15,-9.75 L 0.11,-9.72 L 0.07,-9.69 L 0.04,-9.66 L 0.01,-9.63 L -0.02,-9.59 L -0.05,-9.55 L -0.08,-9.51 L -0.10,-9.47 L -0.12,-9.42 L -0.13,-9.38 L -0.14,-9.33 L -0.15,-9.28 L -0.16,-9.24 L -0.16,-9.19 L -0.16,-9.11 L -0.15,-9.04 L -0.13,-8.98 L -0.11,-8.92 L -0.09,-8.86 L -0.05,-8.80 L -0.01,-8.75 L 0.03,-8.71 L 0.08,-8.67 L 0.14,-8.63 L 0.35,-9.00 Z" />
    <path class="fBLACK sBLACK" style="stroke-width:0.04" d="M 0.79,-7.27 L 0.90,-7.27 L 1.01,-7.28 L 1.11,-7.30 L 1.21,-7.32 L 1.31,-7.35 L 1.40,-7.39 L 1.45,-7.41 L 1.49,-7.44 L 1.54,-7.47 L 1.58,-7.51 L 1.62,-7.54 L 1.66,-7.58 L 1.69,-7.63 L 1.72,-7.67 L 1.75,-7.72 L 1.77,-7.77 L 1.79,-7.82 L 1.81,-7.87 L 1.82,-7.93 L 1.83,-7.98 L 1.83,-8.04 L 1.83,-8.09 L 1.83,-8.18 L 1.81,-8.27 L 1.80,-8.32 L 1.78,-8.36 L 1.76,-8.41 L 1.73,-8.46 L 1.70,-8.50 L 1.67,-8.54 L 1.63,-8.57 L 1.59,-8.60 L 1.52,-8.65 L 1.45,-8.68 L 1.38,-8.71 L 1.31,-8.74 L 1.06,-8.80 L 0.66,-8.89 L 0.58,-8.91 L 0.51,-8.93 L 0.45,-8.96 L 0.38,-8.99 L 0.35,-9.00 L 0.14,-8.63 L 0.24,-8.59 L 0.34,-8.55 L 0.44,-8.52 L 0.55,-8.49 L 1.02,-8.37 L 1.17,-8.33 L 1.21,-8.32 L 1.24,-8.30 L 1.28,-8.28 L 1.31,-8.26 L 1.33,-8.24 L 1.35,-8.22 L 1.37,-8.20 L 1.38,-8.17 L 1.39,-8.14 L 1.40,-8.12 L 1.41,-8.09 L 1.41,-8.06 L 1.41,-8.01 L 1.40,-7.97 L 1.39,-7.92 L 1.37,-7.88 L 1.35,-7.84 L 1.32,-7.81 L 1.29,-7.78 L 1.26,-7.75 L 1.22,-7.72 L 1.18,-7.70 L 1.09,-7.67 L 1.00,-7.65 L 0.91,-7.64 L 0.82,-7.64 L 0.79,-7.27 Z" />
    <path class="fBLACK sBLACK" style="stroke-width:0.04" d="M 0.82,-7.64 L 0.75,-7.64 L 0.69,-7.64 L 0.62,-7.65 L 0.56,-7.67 L 0.50,-7.68 L 0.45,-7.71 L 0.40,-7.74 L 0.35,-7.78 L 0.31,-7.82 L 0.27,-7.87 L 0.24,-7.92 L 0.22,-7.97 L 0.20,-8.06 L 0.18,-8.15 L -0.23,-8.15 L -0.23,-8.10 L -0.22,-8.04 L -0.22,-7.99 L -0.21,-7.93 L -0.19,-7.88 L -0.18,-7.83 L -0.16,-7.77 L -0.13,-7.72 L -0.09,-7.65 L -0.04,-7.58 L 0.01,-7.52 L 0.07,-7.47 L 0.14,-7.42 L 0.21,-7.38 L 0.29,-7.34 L 0.37,-7.32 L 0.47,-7.30 L 0.58,-7.28 L 0.69,-7.27 L 0.79,-7.27 L 0.82,-7.64 Z" />
    <path class="fBLACK sBLACK" style="stroke-width:0.04" d="M 2.32,-10.76 L 2.32,-10.28 L 2.74,-10.28 L 2.74,-10.76 L 2.32,-10.76 Z" />
    <path class="fBLACK sBLACK" style="stroke-width:0.04" d="M 2.32,-9.83 L 2.32,-7.34 L 2.74,-7.34 L 2.74,-9.83 L 2.32,-9.83 Z" />
    <path class="fBLACK sBLACK" style="stroke-width:0.04" d="M 5.40,-8.84 L 5.40,-8.96 L 5.39,-9.07 L 5.39,-9.19 L 5.38,-9.31 L 5.36,-9.38 L 5.35,-9.44 L 5.32,-9.50 L 5.29,-9.55 L 5.25,-9.60 L 5.22,-9.65 L 5.17,-9.69 L 5.12,-9.73 L 5.07,-9.77 L 5.02,-9.80 L 4.96,-9.82 L 4.91,-9.84 L 4.81,-9.86 L 4.72,-9.88 L 4.63,-9.89 L 4.53,-9.89 L 4.44,-9.88 L 4.35,-9.87 L 4.26,-9.85 L 4.18,-9.83 L 4.12,-9.80 L 4.06,-9.76 L 4.00,-9.73 L 3.95,-9.69 L 3.90,-9.64 L 3.85,-9.59 L 3.81,-9.54 L 3.77,-9.48 L 3.77,-9.83 L 3.37,-9.83 L 3.37,-7.34 L 3.79,-7.34 L 3.79,-8.76 L 3.79,-8.85 L 3.80,-8.94 L 3.81,-9.00 L 3.82,-9.06 L 3.84,-9.13 L 3.87,-9.18 L 3.91,-9.24 L 3.95,-9.29 L 3.99,-9.34 L 4.04,-9.38 L 4.09,-9.42 L 4.14,-9.44 L 4.20,-9.47 L 4.26,-9.49 L 4.32,-9.50 L 4.38,-9.51 L 4.44,-9.52 L 4.50,-9.52 L 4.54,-9.52 L 4.58,-9.52 L 4.62,-9.51 L 4.66,-9.50 L 4.70,-9.49 L 4.74,-9.48 L 4.77,-9.46 L 4.80,-9.44 L 4.83,-9.41 L 4.86,-9.38 L 4.88,-9.35 L 4.91,-9.32 L 4.94,-9.25 L 4.96,-9.17 L 4.97,-9.10 L 4.97,-9.02 L 4.97,-7.34 L 5.40,-7.34 L 5.40,-8.84 Z" />
    <path class="fBLACK sBLACK" style="stroke-width:0.04" d="M 8.05,-7.40 L 8.05,-9.83 L 7.64,-9.83 L 7.64,-9.55 L 7.58,-9.63 L 7.50,-9.70 L 7.43,-9.76 L 7.34,-9.82 L 7.29,-9.84 L 7.24,-9.86 L 7.18,-9.88 L 7.13,-9.89 L 7.07,-9.90 L 7.01,-9.91 L 6.95,-9.91 L 6.90,-9.91 L 6.83,-9.90 L 6.76,-9.90 L 6.69,-9.88 L 6.62,-9.86 L 6.55,-9.84 L 6.49,-9.81 L 6.43,-9.78 L 6.37,-9.74 L 6.30,-9.68 L 6.24,-9.62 L 6.18,-9.56 L 6.13,-9.49 L 6.08,-9.42 L 6.04,-9.34 L 6.00,-9.26 L 5.97,-9.18 L 5.95,-9.11 L 5.93,-9.04 L 5.92,-8.96 L 5.90,-8.89 L 5.90,-8.82 L 5.89,-8.74 L 5.88,-8.67 L 5.88,-8.59 L 5.88,-8.52 L 6.32,-8.55 L 6.32,-8.62 L 6.32,-8.69 L 6.33,-8.76 L 6.33,-8.83 L 6.34,-8.89 L 6.36,-8.96 L 6.38,-9.03 L 6.40,-9.09 L 6.42,-9.15 L 6.44,-9.20 L 6.47,-9.25 L 6.50,-9.29 L 6.53,-9.33 L 6.57,-9.37 L 6.60,-9.40 L 6.64,-9.44 L 6.69,-9.46 L 6.76,-9.49 L 6.83,-9.51 L 6.90,-9.53 L 6.98,-9.53 L 7.05,-9.53 L 7.13,-9.52 L 7.20,-9.50 L 7.27,-9.47 L 7.32,-9.44 L 7.36,-9.41 L 7.40,-9.38 L 7.44,-9.34 L 7.48,-9.30 L 7.51,-9.25 L 7.53,-9.20 L 7.56,-9.15 L 7.59,-9.07 L 7.61,-8.99 L 7.63,-8.90 L 7.64,-8.82 L 7.65,-8.70 L 7.65,-8.58 L 8.05,-7.40 Z" />
    <path class="fBLACK sBLACK" style="stroke-width:0.04" d="M 7.65,-8.48 L 7.64,-8.38 L 7.63,-8.28 L 7.61,-8.18 L 7.59,-8.10 L 7.57,-8.01 L 7.53,-7.94 L 7.48,-7.86 L 7.44,-7.81 L 7.39,-7.76 L 7.33,-7.72 L 7.27,-7.69 L 7.21,-7.67 L 7.14,-7.65 L 7.07,-7.64 L 7.01,-7.64 L 6.93,-7.64 L 6.85,-7.65 L 6.78,-7.67 L 6.71,-7.70 L 6.66,-7.73 L 6.61,-7.76 L 6.57,-7.80 L 6.53,-7.84 L 6.50,-7.89 L 6.47,-7.93 L 6.44,-7.98 L 6.42,-8.03 L 6.39,-8.10 L 6.37,-8.18 L 6.35,-8.25 L 6.34,-8.32 L 6.33,-8.40 L 6.32,-8.47 L 6.32,-8.55 L 5.88,-8.52 L 5.89,-8.44 L 5.89,-8.37 L 5.90,-8.29 L 5.92,-8.19 L 5.94,-8.10 L 5.97,-8.01 L 6.01,-7.92 L 6.05,-7.83 L 6.10,-7.75 L 6.15,-7.67 L 6.21,-7.59 L 6.24,-7.55 L 6.28,-7.52 L 6.31,-7.48 L 6.36,-7.45 L 6.40,-7.42 L 6.44,-7.39 L 6.48,-7.37 L 6.53,-7.34 L 6.63,-7.31 L 6.73,-7.28 L 6.83,-7.27 L 6.93,-7.26 L 6.98,-7.26 L 7.03,-7.27 L 7.08,-7.28 L 7.13,-7.28 L 7.18,-7.30 L 7.23,-7.31 L 7.28,-7.33 L 7.33,-7.35 L 7.37,-7.38 L 7.41,-7.40 L 7.46,-7.43 L 7.50,-7.46 L 7.54,-7.50 L 7.57,-7.53 L 7.61,-7.57 L 7.64,-7.61 L 7.64,-7.31 L 8.05,-7.40 L 7.65,-8.58 L 7.65,-8.48 Z" />
    <path class="fBLACK sBLACK" style="stroke-width:0.04" d="M 7.64,-7.31 L 7.64,-7.19 L 7.63,-7.12 L 7.62,-7.05 L 7.60,-6.98 L 7.57,-6.92 L 7.54,-6.88 L 7.51,-6.84 L 7.48,-6.81 L 7.45,-6.78 L 7.41,-6.76 L 7.37,-6.74 L 7.33,-6.72 L 7.29,-6.70 L 7.21,-6.68 L 7.13,-6.67 L 7.05,-6.66 L 6.97,-6.66 L 6.88,-6.66 L 6.79,-6.67 L 6.72,-6.68 L 6.66,-6.70 L 6.60,-6.72 L 6.54,-6.75 L 6.50,-6.77 L 6.47,-6.80 L 6.44,-6.84 L 6.42,-6.87 L 6.40,-6.92 L 6.39,-6.96 L 6.38,-7.01 L 6.38,-7.05 L 5.98,-7.05 L 5.98,-6.96 L 5.98,-6.92 L 5.99,-6.87 L 6.01,-6.82 L 6.02,-6.77 L 6.05,-6.73 L 6.07,-6.68 L 6.10,-6.64 L 6.13,-6.60 L 6.18,-6.56 L 6.22,-6.52 L 6.27,-6.48 L 6.32,-6.45 L 6.38,-6.42 L 6.44,-6.39 L 6.49,-6.37 L 6.55,-6.35 L 6.67,-6.33 L 6.79,-6.31 L 6.91,-6.31 L 7.03,-6.31 L 7.14,-6.31 L 7.26,-6.33 L 7.38,-6.35 L 7.50,-6.39 L 7.55,-6.41 L 7.60,-6.43 L 7.65,-6.46 L 7.69,-6.49 L 7.74,-6.52 L 7.78,-6.56 L 7.82,-6.60 L 7.85,-6.64 L 7.89,-6.69 L 7.92,-6.73 L 7.94,-6.78 L 7.97,-6.83 L 7.99,-6.88 L 8.01,-6.94 L 8.02,-6.99 L 8.03,-7.05 L 8.04,-7.22 L 8.05,-7.40 L 7.64,-7.31 Z" />
    <circle class="pivotPoint layout" fill="none" cx="0" cy="0" r="0.2" />
  </g>
</svg>