<?xml version="1.0" encoding="UTF-8"?>
<?xml-stylesheet type='text/css' href='S401Style.css'?>
<svg version="1.2" baseProfile="tiny" style="shape-rendering:geometricPrecision; fill-rule:evenodd;" width="14.84mm" height="15.55mm" viewBox="-6.97 -12.70 14.86 15.57" xmlns="http://www.w3.org/2000/svg">
  <title>BOYLAT26F</title>
  <desc>river buoy, obstruction at the right side - off position - text area -d</desc>
  <metadata />
  <g>
    <path class="fWHITE sWHITE" style="stroke-width:0.04" d="M -0.74,0.00 L 0.74,0.00 L 1.26,-5.40 L -0.21,-5.40 L -0.74,0.00 Z" />
    <path class="f0 sBLACK" style="stroke-width:0.24" d="M -3.54,-2.72 L 0.36,-8.29 L 4.27,-2.72 L 0.36,2.85 L -3.54,-2.72 Z" />
    <path class="fBLACK sBLACK" style="stroke-width:0.04" d="M -5.62,-10.04 L -5.70,-10.05 L -5.78,-10.05 L -5.85,-10.07 L -5.92,-10.09 L -5.99,-10.12 L -6.06,-10.15 L -6.13,-10.19 L -6.19,-10.23 L -6.23,-10.26 L -6.26,-10.30 L -6.30,-10.33 L -6.33,-10.37 L -6.36,-10.41 L -6.39,-10.45 L -6.41,-10.50 L -6.43,-10.54 L -6.47,-10.62 L -6.49,-10.70 L -6.52,-10.78 L -6.53,-10.86 L -6.55,-10.95 L -6.56,-11.03 L -6.56,-11.12 L -6.56,-11.20 L -6.56,-11.29 L -6.96,-11.30 L -6.96,-11.20 L -6.96,-11.11 L -6.95,-11.02 L -6.95,-10.93 L -6.94,-10.83 L -6.92,-10.77 L -6.91,-10.70 L -6.89,-10.63 L -6.87,-10.56 L -6.85,-10.50 L -6.82,-10.43 L -6.79,-10.37 L -6.75,-10.31 L -6.72,-10.25 L -6.68,-10.20 L -6.63,-10.14 L -6.59,-10.09 L -6.54,-10.04 L -6.49,-10.00 L -6.43,-9.96 L -6.37,-9.92 L -6.32,-9.88 L -6.25,-9.85 L -6.19,-9.82 L -6.13,-9.79 L -6.07,-9.77 L -6.00,-9.76 L -5.94,-9.74 L -5.88,-9.73 L -5.82,-9.72 L -5.75,-9.72 L -5.69,-9.72 L -5.62,-9.72 L -5.62,-10.04 Z" />
    <path class="fBLACK sBLACK" style="stroke-width:0.04" d="M -5.62,-9.72 L -5.55,-9.72 L -5.48,-9.72 L -5.41,-9.73 L -5.34,-9.73 L -5.25,-9.75 L -5.16,-9.78 L -5.07,-9.81 L -4.98,-9.85 L -4.90,-9.90 L -4.82,-9.95 L -4.75,-10.01 L -4.68,-10.08 L -4.61,-10.16 L -4.54,-10.24 L -4.49,-10.33 L -4.44,-10.43 L -4.39,-10.52 L -4.36,-10.63 L -4.33,-10.73 L -4.32,-10.83 L -4.30,-10.93 L -4.30,-11.02 L -4.29,-11.11 L -4.69,-11.12 L -4.69,-11.03 L -4.70,-10.95 L -4.71,-10.86 L -4.73,-10.78 L -4.76,-10.70 L -4.78,-10.62 L -4.81,-10.54 L -4.84,-10.49 L -4.86,-10.45 L -4.89,-10.41 L -4.92,-10.37 L -4.95,-10.33 L -4.98,-10.30 L -5.02,-10.26 L -5.06,-10.23 L -5.10,-10.20 L -5.14,-10.18 L -5.18,-10.15 L -5.22,-10.13 L -5.27,-10.11 L -5.32,-10.09 L -5.36,-10.08 L -5.41,-10.07 L -5.46,-10.06 L -5.52,-10.05 L -5.57,-10.05 L -5.62,-10.04 L -5.62,-9.72 Z" />
    <path class="fBLACK sBLACK" style="stroke-width:0.04" d="M -5.62,-12.36 L -5.55,-12.36 L -5.47,-12.35 L -5.40,-12.34 L -5.32,-12.31 L -5.25,-12.29 L -5.18,-12.25 L -5.12,-12.22 L -5.05,-12.17 L -5.02,-12.14 L -4.98,-12.11 L -4.95,-12.07 L -4.92,-12.03 L -4.89,-11.99 L -4.86,-11.95 L -4.84,-11.91 L -4.81,-11.87 L -4.78,-11.79 L -4.76,-11.71 L -4.73,-11.63 L -4.71,-11.54 L -4.70,-11.46 L -4.69,-11.37 L -4.69,-11.29 L -4.69,-11.20 L -4.69,-11.12 L -4.29,-11.11 L -4.29,-11.20 L -4.29,-11.30 L -4.30,-11.39 L -4.30,-11.48 L -4.32,-11.57 L -4.33,-11.64 L -4.34,-11.71 L -4.36,-11.78 L -4.38,-11.85 L -4.41,-11.92 L -4.44,-11.98 L -4.47,-12.05 L -4.50,-12.11 L -4.56,-12.20 L -4.62,-12.27 L -4.69,-12.35 L -4.77,-12.41 L -4.85,-12.48 L -4.94,-12.53 L -5.03,-12.58 L -5.12,-12.61 L -5.18,-12.63 L -5.24,-12.65 L -5.31,-12.66 L -5.37,-12.67 L -5.43,-12.68 L -5.50,-12.69 L -5.56,-12.69 L -5.62,-12.69 L -5.62,-12.36 Z" />
    <path class="fBLACK sBLACK" style="stroke-width:0.04" d="M -5.62,-12.69 L -5.69,-12.69 L -5.77,-12.69 L -5.84,-12.68 L -5.91,-12.67 L -6.00,-12.65 L -6.09,-12.63 L -6.18,-12.59 L -6.27,-12.55 L -6.35,-12.51 L -6.43,-12.45 L -6.50,-12.39 L -6.57,-12.33 L -6.64,-12.25 L -6.71,-12.16 L -6.76,-12.07 L -6.81,-11.98 L -6.86,-11.88 L -6.89,-11.78 L -6.92,-11.68 L -6.94,-11.57 L -6.95,-11.48 L -6.95,-11.39 L -6.96,-11.30 L -6.56,-11.29 L -6.56,-11.37 L -6.55,-11.46 L -6.54,-11.54 L -6.52,-11.63 L -6.49,-11.71 L -6.47,-11.79 L -6.43,-11.87 L -6.41,-11.91 L -6.39,-11.95 L -6.36,-11.99 L -6.33,-12.03 L -6.30,-12.07 L -6.27,-12.11 L -6.23,-12.14 L -6.19,-12.17 L -6.15,-12.20 L -6.11,-12.23 L -6.07,-12.25 L -6.03,-12.28 L -5.98,-12.30 L -5.93,-12.31 L -5.89,-12.33 L -5.84,-12.34 L -5.79,-12.35 L -5.73,-12.35 L -5.68,-12.36 L -5.62,-12.36 L -5.62,-12.69 Z" />
    <path class="fBLACK sBLACK" style="stroke-width:0.04" d="M -2.98,-12.64 L -3.06,-12.65 L -3.14,-12.66 L -3.22,-12.66 L -3.30,-12.66 L -3.35,-12.66 L -3.41,-12.64 L -3.46,-12.63 L -3.52,-12.60 L -3.56,-12.58 L -3.60,-12.54 L -3.63,-12.51 L -3.66,-12.47 L -3.68,-12.43 L -3.69,-12.39 L -3.71,-12.35 L -3.72,-12.31 L -3.72,-12.27 L -3.73,-12.23 L -3.73,-12.19 L -3.73,-12.15 L -3.73,-11.85 L -4.10,-11.85 L -4.10,-11.57 L -3.73,-11.57 L -3.73,-9.79 L -3.38,-9.79 L -3.38,-11.57 L -2.98,-11.57 L -2.98,-11.85 L -3.38,-11.85 L -3.38,-12.02 L -3.38,-12.07 L -3.38,-12.11 L -3.37,-12.16 L -3.37,-12.21 L -3.36,-12.23 L -3.34,-12.25 L -3.32,-12.27 L -3.30,-12.29 L -3.26,-12.32 L -3.22,-12.33 L -3.18,-12.34 L -3.13,-12.34 L -3.02,-12.34 L -2.98,-12.33 L -2.98,-12.64 Z" />
    <path class="fBLACK sBLACK" style="stroke-width:0.04" d="M -1.89,-12.64 L -1.97,-12.65 L -2.05,-12.66 L -2.12,-12.66 L -2.20,-12.66 L -2.26,-12.66 L -2.32,-12.64 L -2.37,-12.63 L -2.42,-12.60 L -2.47,-12.58 L -2.51,-12.54 L -2.54,-12.51 L -2.57,-12.47 L -2.59,-12.43 L -2.60,-12.39 L -2.61,-12.35 L -2.62,-12.31 L -2.63,-12.27 L -2.64,-12.23 L -2.64,-12.19 L -2.64,-12.15 L -2.64,-11.85 L -3.00,-11.85 L -3.00,-11.57 L -2.64,-11.57 L -2.64,-9.79 L -2.29,-9.79 L -2.29,-11.57 L -1.89,-11.57 L -1.89,-11.85 L -2.29,-11.85 L -2.29,-12.02 L -2.29,-12.07 L -2.29,-12.11 L -2.28,-12.16 L -2.27,-12.21 L -2.26,-12.23 L -2.25,-12.25 L -2.23,-12.27 L -2.21,-12.29 L -2.17,-12.32 L -2.13,-12.33 L -2.08,-12.34 L -2.04,-12.34 L -1.93,-12.34 L -1.89,-12.33 L -1.89,-12.64 Z" />
    <path class="fBLACK sBLACK" style="stroke-width:0.04" d="M 1.25,-11.80 L 1.24,-11.74 L 1.24,-11.68 L 1.22,-11.63 L 1.21,-11.58 L 1.19,-11.54 L 1.17,-11.50 L 1.14,-11.47 L 1.11,-11.44 L 1.08,-11.42 L 1.05,-11.39 L 1.01,-11.38 L 0.97,-11.36 L 0.92,-11.35 L 0.87,-11.34 L 0.82,-11.33 L 0.77,-11.33 L 0.59,-11.32 L -0.11,-11.32 L -0.11,-10.98 L 0.53,-10.98 L 0.64,-10.98 L 0.76,-10.99 L 0.87,-10.99 L 0.99,-11.00 L 1.04,-11.01 L 1.08,-11.02 L 1.13,-11.04 L 1.18,-11.06 L 1.22,-11.08 L 1.27,-11.10 L 1.31,-11.13 L 1.35,-11.16 L 1.39,-11.19 L 1.42,-11.22 L 1.46,-11.26 L 1.49,-11.30 L 1.52,-11.34 L 1.54,-11.38 L 1.56,-11.43 L 1.58,-11.47 L 1.61,-11.55 L 1.63,-11.64 L 1.64,-11.72 L 1.64,-11.80 L 1.25,-11.80 Z" />
    <path class="fBLACK sBLACK" style="stroke-width:0.04" d="M 1.64,-11.80 L 1.63,-11.89 L 1.62,-11.99 L 1.61,-12.05 L 1.59,-12.11 L 1.57,-12.16 L 1.55,-12.22 L 1.51,-12.27 L 1.48,-12.33 L 1.44,-12.37 L 1.40,-12.42 L 1.35,-12.45 L 1.30,-12.49 L 1.25,-12.52 L 1.19,-12.54 L 1.14,-12.56 L 1.08,-12.58 L 1.03,-12.59 L 0.97,-12.60 L 0.85,-12.61 L 0.73,-12.62 L 0.62,-12.62 L 0.50,-12.62 L -0.50,-12.62 L -0.50,-9.79 L -0.11,-9.79 L -0.11,-10.98 L -0.11,-11.32 L -0.11,-12.27 L 0.62,-12.27 L 0.74,-12.27 L 0.86,-12.26 L 0.91,-12.25 L 0.96,-12.24 L 1.01,-12.22 L 1.06,-12.19 L 1.09,-12.17 L 1.12,-12.14 L 1.15,-12.11 L 1.17,-12.08 L 1.19,-12.04 L 1.21,-12.01 L 1.22,-11.97 L 1.23,-11.93 L 1.24,-11.86 L 1.25,-11.80 L 1.64,-11.80 Z" />
    <path class="fBLACK sBLACK" style="stroke-width:0.04" d="M 3.48,-10.76 L 3.48,-10.70 L 3.47,-10.64 L 3.46,-10.58 L 3.45,-10.53 L 3.44,-10.47 L 3.42,-10.41 L 3.40,-10.35 L 3.38,-10.32 L 3.36,-10.28 L 3.34,-10.25 L 3.32,-10.22 L 3.29,-10.19 L 3.26,-10.16 L 3.23,-10.14 L 3.20,-10.12 L 3.16,-10.10 L 3.13,-10.08 L 3.09,-10.07 L 3.05,-10.05 L 3.01,-10.05 L 2.97,-10.04 L 2.93,-10.04 L 2.90,-10.04 L 2.85,-10.04 L 2.81,-10.04 L 2.77,-10.04 L 2.74,-10.05 L 2.70,-10.06 L 2.66,-10.08 L 2.62,-10.10 L 2.59,-10.12 L 2.56,-10.14 L 2.52,-10.16 L 2.50,-10.19 L 2.47,-10.22 L 2.44,-10.25 L 2.42,-10.29 L 2.40,-10.32 L 2.38,-10.36 L 2.36,-10.41 L 2.35,-10.47 L 2.33,-10.53 L 2.32,-10.59 L 2.31,-10.64 L 2.30,-10.70 L 1.95,-10.70 L 1.96,-10.57 L 1.98,-10.48 L 2.00,-10.39 L 2.03,-10.29 L 2.07,-10.21 L 2.11,-10.14 L 2.15,-10.08 L 2.20,-10.02 L 2.25,-9.96 L 2.31,-9.91 L 2.37,-9.87 L 2.43,-9.83 L 2.50,-9.80 L 2.55,-9.78 L 2.59,-9.77 L 2.64,-9.75 L 2.69,-9.74 L 2.74,-9.74 L 2.79,-9.73 L 2.84,-9.73 L 2.89,-9.73 L 2.95,-9.73 L 3.00,-9.74 L 3.06,-9.74 L 3.12,-9.75 L 3.16,-9.76 L 3.21,-9.77 L 3.25,-9.79 L 3.30,-9.80 L 3.34,-9.82 L 3.38,-9.85 L 3.42,-9.87 L 3.46,-9.90 L 3.51,-9.95 L 3.57,-10.00 L 3.62,-10.06 L 3.66,-10.12 L 3.70,-10.19 L 3.73,-10.25 L 3.76,-10.33 L 3.78,-10.40 L 3.80,-10.50 L 3.82,-10.61 L 3.83,-10.71 L 3.48,-10.76 Z" />
    <path class="fBLACK sBLACK" style="stroke-width:0.04" d="M 2.89,-11.91 L 2.84,-11.91 L 2.79,-11.91 L 2.74,-11.90 L 2.69,-11.90 L 2.64,-11.89 L 2.59,-11.88 L 2.55,-11.86 L 2.50,-11.84 L 2.45,-11.82 L 2.41,-11.80 L 2.37,-11.77 L 2.32,-11.74 L 2.28,-11.71 L 2.25,-11.67 L 2.21,-11.64 L 2.18,-11.60 L 2.15,-11.56 L 2.12,-11.52 L 2.09,-11.48 L 2.07,-11.43 L 2.04,-11.39 L 2.03,-11.34 L 2.01,-11.29 L 2.00,-11.24 L 1.97,-11.14 L 1.96,-11.03 L 1.95,-10.93 L 1.95,-10.82 L 1.95,-10.70 L 2.30,-10.70 L 2.30,-10.76 L 2.30,-10.82 L 2.30,-10.88 L 2.30,-10.94 L 2.31,-11.00 L 2.32,-11.06 L 2.33,-11.12 L 2.35,-11.17 L 2.36,-11.23 L 2.38,-11.29 L 2.40,-11.32 L 2.42,-11.36 L 2.44,-11.39 L 2.47,-11.42 L 2.50,-11.45 L 2.53,-11.48 L 2.56,-11.50 L 2.59,-11.53 L 2.62,-11.55 L 2.66,-11.56 L 2.70,-11.58 L 2.74,-11.59 L 2.78,-11.60 L 2.82,-11.60 L 2.86,-11.60 L 2.90,-11.60 L 2.89,-11.91 Z" />
    <path class="fBLACK sBLACK" style="stroke-width:0.04" d="M 2.90,-11.60 L 2.93,-11.60 L 2.97,-11.60 L 3.01,-11.60 L 3.05,-11.59 L 3.09,-11.58 L 3.13,-11.56 L 3.16,-11.54 L 3.20,-11.52 L 3.23,-11.50 L 3.26,-11.48 L 3.29,-11.45 L 3.31,-11.42 L 3.34,-11.39 L 3.36,-11.36 L 3.38,-11.32 L 3.40,-11.29 L 3.42,-11.23 L 3.44,-11.17 L 3.45,-11.12 L 3.46,-11.06 L 3.47,-11.00 L 3.48,-10.94 L 3.48,-10.88 L 3.48,-10.82 L 3.48,-10.76 L 3.83,-10.71 L 3.83,-10.82 L 3.83,-10.94 L 3.82,-11.06 L 3.80,-11.16 L 3.78,-11.25 L 3.75,-11.35 L 3.71,-11.44 L 3.67,-11.50 L 3.63,-11.56 L 3.58,-11.62 L 3.53,-11.68 L 3.48,-11.73 L 3.42,-11.77 L 3.35,-11.81 L 3.28,-11.84 L 3.24,-11.86 L 3.19,-11.88 L 3.14,-11.89 L 3.09,-11.90 L 3.04,-11.90 L 2.99,-11.91 L 2.94,-11.91 L 2.89,-11.91 L 2.90,-11.60 Z" />
    <path class="fBLACK sBLACK" style="stroke-width:0.04" d="M 4.59,-11.17 L 4.57,-11.18 L 4.55,-11.20 L 4.53,-11.22 L 4.52,-11.25 L 4.51,-11.27 L 4.51,-11.30 L 4.51,-11.33 L 4.51,-11.36 L 4.52,-11.39 L 4.52,-11.42 L 4.54,-11.45 L 4.56,-11.48 L 4.58,-11.51 L 4.60,-11.53 L 4.63,-11.55 L 4.66,-11.57 L 4.70,-11.58 L 4.73,-11.59 L 4.77,-11.60 L 4.81,-11.61 L 4.84,-11.61 L 4.88,-11.62 L 4.92,-11.62 L 4.99,-11.61 L 5.07,-11.60 L 5.14,-11.59 L 5.21,-11.56 L 5.24,-11.55 L 5.27,-11.53 L 5.29,-11.51 L 5.32,-11.49 L 5.34,-11.47 L 5.36,-11.44 L 5.37,-11.41 L 5.39,-11.38 L 5.40,-11.33 L 5.41,-11.27 L 5.75,-11.27 L 5.75,-11.33 L 5.74,-11.38 L 5.73,-11.43 L 5.72,-11.48 L 5.69,-11.54 L 5.66,-11.59 L 5.63,-11.64 L 5.59,-11.69 L 5.54,-11.73 L 5.49,-11.76 L 5.44,-11.79 L 5.39,-11.82 L 5.33,-11.84 L 5.28,-11.86 L 5.22,-11.88 L 5.17,-11.89 L 5.11,-11.90 L 5.06,-11.91 L 5.00,-11.91 L 4.94,-11.91 L 4.88,-11.91 L 4.82,-11.91 L 4.77,-11.90 L 4.71,-11.89 L 4.65,-11.88 L 4.60,-11.86 L 4.54,-11.84 L 4.49,-11.82 L 4.45,-11.80 L 4.42,-11.78 L 4.38,-11.76 L 4.35,-11.73 L 4.32,-11.71 L 4.30,-11.68 L 4.27,-11.65 L 4.25,-11.62 L 4.23,-11.58 L 4.21,-11.55 L 4.20,-11.51 L 4.19,-11.47 L 4.18,-11.43 L 4.17,-11.40 L 4.16,-11.36 L 4.16,-11.32 L 4.16,-11.26 L 4.17,-11.20 L 4.18,-11.14 L 4.20,-11.09 L 4.22,-11.04 L 4.25,-11.00 L 4.28,-10.96 L 4.32,-10.92 L 4.36,-10.89 L 4.41,-10.86 L 4.59,-11.17 Z" />
    <path class="fBLACK sBLACK" style="stroke-width:0.04" d="M 4.95,-9.73 L 5.04,-9.73 L 5.13,-9.74 L 5.21,-9.75 L 5.29,-9.77 L 5.37,-9.80 L 5.45,-9.83 L 5.49,-9.85 L 5.53,-9.87 L 5.56,-9.90 L 5.60,-9.93 L 5.63,-9.96 L 5.66,-9.99 L 5.69,-10.03 L 5.72,-10.07 L 5.74,-10.10 L 5.76,-10.15 L 5.77,-10.19 L 5.79,-10.23 L 5.80,-10.27 L 5.80,-10.32 L 5.81,-10.36 L 5.81,-10.41 L 5.80,-10.48 L 5.79,-10.55 L 5.78,-10.60 L 5.77,-10.64 L 5.75,-10.68 L 5.72,-10.71 L 5.70,-10.75 L 5.67,-10.78 L 5.64,-10.81 L 5.61,-10.83 L 5.55,-10.87 L 5.49,-10.90 L 5.44,-10.92 L 5.37,-10.94 L 5.17,-11.00 L 4.84,-11.07 L 4.78,-11.09 L 4.72,-11.10 L 4.66,-11.13 L 4.61,-11.15 L 4.59,-11.17 L 4.41,-10.86 L 4.49,-10.82 L 4.57,-10.79 L 4.66,-10.76 L 4.75,-10.74 L 5.14,-10.64 L 5.26,-10.61 L 5.29,-10.60 L 5.32,-10.59 L 5.35,-10.57 L 5.37,-10.55 L 5.39,-10.54 L 5.41,-10.52 L 5.42,-10.50 L 5.43,-10.48 L 5.44,-10.45 L 5.45,-10.43 L 5.45,-10.41 L 5.46,-10.38 L 5.45,-10.34 L 5.45,-10.31 L 5.44,-10.27 L 5.42,-10.24 L 5.41,-10.21 L 5.39,-10.18 L 5.36,-10.15 L 5.33,-10.13 L 5.30,-10.11 L 5.27,-10.09 L 5.20,-10.07 L 5.12,-10.05 L 5.05,-10.04 L 4.97,-10.04 L 4.95,-9.73 Z" />
    <path class="fBLACK sBLACK" style="stroke-width:0.04" d="M 4.97,-10.04 L 4.92,-10.04 L 4.86,-10.04 L 4.81,-10.05 L 4.76,-10.06 L 4.71,-10.07 L 4.67,-10.10 L 4.62,-10.12 L 4.58,-10.15 L 4.55,-10.19 L 4.52,-10.22 L 4.49,-10.27 L 4.47,-10.31 L 4.46,-10.39 L 4.44,-10.46 L 4.10,-10.46 L 4.11,-10.42 L 4.11,-10.37 L 4.11,-10.32 L 4.12,-10.28 L 4.13,-10.23 L 4.15,-10.19 L 4.16,-10.15 L 4.18,-10.11 L 4.22,-10.05 L 4.26,-9.99 L 4.30,-9.94 L 4.36,-9.89 L 4.41,-9.86 L 4.47,-9.82 L 4.53,-9.79 L 4.60,-9.77 L 4.69,-9.75 L 4.77,-9.74 L 4.86,-9.73 L 4.95,-9.73 L 4.97,-10.04 Z" />
    <path class="fBLACK sBLACK" style="stroke-width:0.04" d="M 7.88,-11.03 L 7.88,-11.12 L 7.88,-11.22 L 7.87,-11.32 L 7.86,-11.42 L 7.86,-11.47 L 7.84,-11.52 L 7.82,-11.57 L 7.79,-11.62 L 7.76,-11.66 L 7.73,-11.70 L 7.70,-11.73 L 7.66,-11.77 L 7.61,-11.79 L 7.57,-11.82 L 7.52,-11.84 L 7.48,-11.86 L 7.40,-11.87 L 7.32,-11.89 L 7.25,-11.89 L 7.17,-11.89 L 7.09,-11.89 L 7.02,-11.88 L 6.95,-11.87 L 6.87,-11.84 L 6.82,-11.82 L 6.78,-11.79 L 6.73,-11.76 L 6.68,-11.73 L 6.64,-11.69 L 6.60,-11.65 L 6.57,-11.61 L 6.54,-11.56 L 6.54,-11.85 L 6.21,-11.85 L 6.21,-9.79 L 6.55,-9.79 L 6.55,-10.96 L 6.55,-11.04 L 6.56,-11.11 L 6.57,-11.16 L 6.58,-11.21 L 6.60,-11.27 L 6.62,-11.31 L 6.65,-11.36 L 6.68,-11.40 L 6.72,-11.44 L 6.76,-11.48 L 6.80,-11.50 L 6.85,-11.53 L 6.89,-11.55 L 6.94,-11.57 L 6.99,-11.58 L 7.04,-11.59 L 7.09,-11.59 L 7.14,-11.59 L 7.17,-11.59 L 7.21,-11.59 L 7.24,-11.58 L 7.27,-11.58 L 7.31,-11.57 L 7.34,-11.56 L 7.36,-11.54 L 7.39,-11.52 L 7.42,-11.50 L 7.44,-11.48 L 7.46,-11.45 L 7.48,-11.43 L 7.50,-11.37 L 7.52,-11.30 L 7.53,-11.24 L 7.53,-11.18 L 7.53,-9.79 L 7.88,-9.79 L 7.88,-11.03 Z" />
    <path class="f0 sBLACK" style="stroke-width:0.24" d="M -3.30,-2.72 L 0.36,-7.94 L 4.03,-2.72 L 0.36,2.51 L -3.30,-2.72 Z" />
    <path class="fORRED sORRED" style="stroke-width:0.04" d="M -0.21,-5.40 L 1.26,-5.40 L 1.13,-4.02 L -0.34,-4.02 L -0.21,-5.40 Z" />
    <path class="fORRED sORRED" style="stroke-width:0.04" d="M -0.48,-2.69 L 0.99,-2.69 L 0.86,-1.31 L -0.61,-1.31 L -0.48,-2.69 Z" />
    <path class="f0 sBLACK" style="stroke-width:0.12" d="M -0.21,-5.40 L 1.26,-5.40 L 0.74,0.00 L -0.74,0.00 L -0.21,-5.40 Z" />
    <circle class="pivotPoint layout" fill="none" cx="0" cy="0" r="0.2" />
  </g>
</svg>