<?xml version="1.0" encoding="UTF-8"?>
<?xml-stylesheet type='text/css' href='S401Style.css'?>
<svg version="1.2" baseProfile="tiny" style="shape-rendering:geometricPrecision; fill-rule:evenodd;" width="7.43mm" height="10.60mm" viewBox="-3.36 -8.03 7.45 10.62" xmlns="http://www.w3.org/2000/svg">
  <title>BOYLAT26O</title>
  <desc>river buoy, obstruction at the right side - on position</desc>
  <metadata />
  <g>
    <path class="fWHITE sWHITE" style="stroke-width:0.04" d="M -0.74,0.00 L 0.74,0.00 L 1.26,-5.40 L -0.21,-5.40 L -0.74,0.00 Z" />
    <path class="f0 sBLACK" style="stroke-width:0.24" d="M -3.35,-2.72 L 0.36,-8.02 L 4.08,-2.72 L 0.36,2.58 L -3.35,-2.72 " />
    <path class="f0 sBLACK" style="stroke-width:0.24" d="M -3.11,-2.72 L 0.36,-7.67 L 3.84,-2.72 L 0.36,2.23 L -3.11,-2.72 " />
    <path class="fORRED sORRED" style="stroke-width:0.04" d="M -0.21,-5.40 L 1.26,-5.40 L 1.13,-4.02 L -0.34,-4.02 L -0.21,-5.40 Z" />
    <path class="fORRED sORRED" style="stroke-width:0.04" d="M -0.48,-2.69 L 0.99,-2.69 L 0.86,-1.31 L -0.61,-1.31 L -0.48,-2.69 Z" />
    <path class="f0 sBLACK" style="stroke-width:0.12" d="M -0.21,-5.40 L 1.26,-5.40 L 0.74,0.00 L -0.74,0.00 L -0.21,-5.40 Z" />
    <circle class="pivotPoint layout" fill="none" cx="0" cy="0" r="0.2" />
  </g>
</svg>