<?xml version="1.0" encoding="UTF-8"?>
<?xml-stylesheet type='text/css' href='S401Style.css'?>
<svg version="1.2" baseProfile="tiny" style="shape-rendering:geometricPrecision; fill-rule:evenodd;" width="7.43mm" height="10.60mm" viewBox="-3.43 -8.07 7.45 10.62" xmlns="http://www.w3.org/2000/svg">
  <title>BOYLAT27V</title>
  <desc>river buoy, obstruction at the left side - virtual</desc>
  <metadata />
  <g>
    <path class="fWHITE sWHITE" style="stroke-width:0.04" d="M -0.74,0.00 L 0.74,0.00 L 1.26,-5.40 L -0.21,-5.40 L -0.74,0.00 Z" />
    <path class="f0 sBLACK" style="stroke-width:0.24" d="M -2.14,-0.93 L -3.42,-2.76 L -2.19,-4.51 " />
    <path class="f0 sBLACK" style="stroke-width:0.24" d="M 1.64,0.63 L 0.30,2.54 L -0.98,0.73 " />
    <path class="f0 sBLACK" style="stroke-width:0.24" d="M -1.10,-6.06 L 0.30,-8.06 L 1.68,-6.08 " />
    <path class="f0 sBLACK" style="stroke-width:0.24" d="M 2.83,-4.45 L 4.01,-2.76 L 2.65,-0.82 " />
    <path class="f0 sBLACK" style="stroke-width:0.24" d="M -0.94,-5.95 L 0.30,-7.71 L 1.52,-5.97 " />
    <path class="f0 sBLACK" style="stroke-width:0.24" d="M -1.97,-1.05 L -3.17,-2.76 L -2.03,-4.40 " />
    <path class="f0 sBLACK" style="stroke-width:0.24" d="M 2.67,-4.33 L 3.77,-2.76 L 2.49,-0.93 " />
    <path class="f0 sBLACK" style="stroke-width:0.24" d="M 1.47,0.51 L 0.30,2.19 L -0.81,0.61 " />
    <path class="fMIDGN sMIDGN" style="stroke-width:0.04" d="M -0.21,-5.40 L 1.26,-5.40 L 1.13,-4.02 L -0.34,-4.02 L -0.21,-5.40 Z" />
    <path class="fMIDGN sMIDGN" style="stroke-width:0.04" d="M -0.48,-2.69 L 0.99,-2.69 L 0.86,-1.31 L -0.61,-1.31 L -0.48,-2.69 Z" />
    <path class="f0 sBLACK" style="stroke-width:0.12" d="M -0.21,-5.40 L 1.26,-5.40 L 0.74,0.00 L -0.74,0.00 L -0.21,-5.40 Z" />
    <circle class="pivotPoint layout" fill="none" cx="0" cy="0" r="0.2" />
  </g>
</svg>