<?xml version="1.0" encoding="utf-8"?>
<?xml-stylesheet type='text/css' href='S401Style.css'?>
<svg version="1.2" baseProfile="tiny" style="shape-rendering:geometricPrecision; fill-rule:evenodd;" width="4.50mm" height="4.50mm" viewBox="-2.26 -2.26 4.52 4.52" xmlns="http://www.w3.org/2000/svg">
  <title>BOYLAT25</title>
  <desc>river buoy, fairway separation – simplified</desc>
  <metadata>
    <iho:S100SVG xmlns:iho="http://www.iho.int/SVGMetadata">
      <iho:Description iho:publisher="IEHG" iho:creationDate="2015-07-29" iho:source="" iho:format="IENC signs, Europe, SVG" iho:version="0.1" />
    </iho:S100SVG>
  </metadata>
  <g>
    <circle cx="0.00" cy="0.00" r="2.25" class="fMIDRD sBLACK" style="stroke-width:0.04" />
    <path class="fLTGRN sLTGRN" style="stroke-width:0.04" d="M -2.25,0.00 L 2.25,0.00 L 2.25,-0.13 L 2.23,-0.27 L 2.21,-0.40 L 2.19,-0.53 L 2.15,-0.66 L 2.11,-0.79 L 2.06,-0.91 L 2.00,-1.03 L 1.98,-1.06 L -1.98,-1.06 L -2.04,-0.94 L -2.10,-0.82 L -2.14,-0.69 L -2.18,-0.56 L -2.21,-0.43 L -2.23,-0.30 L -2.24,-0.16 L -2.25,-0.03 L -2.25,0.00 Z" />
    <path class="fLTGRN sLTGRN" style="stroke-width:0.04" d="M -1.98,1.06 L -1.92,1.18 L -1.84,1.29 L -1.76,1.40 L -1.68,1.50 L -1.58,1.60 L -1.49,1.69 L -1.38,1.77 L -1.28,1.85 L -1.16,1.93 L -1.05,1.99 L -0.93,2.05 L -0.80,2.10 L -0.67,2.15 L -0.55,2.18 L -0.41,2.21 L -0.28,2.23 L -0.15,2.25 L -0.01,2.25 L 0.12,2.25 L 0.25,2.24 L 0.39,2.22 L 0.52,2.19 L 0.65,2.15 L 0.77,2.11 L 0.90,2.06 L 1.02,2.01 L 1.14,1.94 L 1.25,1.87 L 1.36,1.79 L 1.47,1.71 L 1.56,1.62 L 1.66,1.52 L 1.75,1.42 L 1.83,1.31 L 1.90,1.20 L 1.97,1.09 L 1.98,1.06 L -1.98,1.06 Z" />
    <circle cx="0.00" cy="0.00" r="2.25" class="f0 sBLACK" style="stroke-width:0.12" />
    <circle class="pivotPoint layout" fill="none" cx="0" cy="0" r="0.2" />
  </g>
</svg>