<?xml version="1.0" encoding="UTF-8"?>
<?xml-stylesheet type='text/css' href='S401Style.css'?>
<svg version="1.2" baseProfile="tiny" style="shape-rendering:geometricPrecision; fill-rule:evenodd;" width="15.50mm" height="16.38mm" viewBox="-7.31 -13.58 15.52 16.40" xmlns="http://www.w3.org/2000/svg">
  <title>BOYLAT27M</title>
  <desc>river buoy, obstruction at the left side - off position - missing - text area -d</desc>
  <metadata />
  <g>
    <path class="fWHITE sWHITE" style="stroke-width:0.04" d="M -0.74,0.00 L 0.74,0.00 L 1.26,-5.40 L -0.21,-5.40 L -0.74,0.00 Z" />
    <path class="f0 sBLACK" style="stroke-width:0.24" d="M 2.96,-4.54 L 4.20,-2.76 L 2.78,-0.73 " />
    <path class="f0 sBLACK" style="stroke-width:0.24" d="M 1.77,0.72 L 0.30,2.81 L -1.10,0.82 " />
    <path class="f0 sBLACK" style="stroke-width:0.24" d="M -1.23,-6.15 L 0.30,-8.33 L 1.81,-6.17 " />
    <path class="f0 sBLACK" style="stroke-width:0.24" d="M -2.27,-0.84 L -3.61,-2.76 L -2.32,-4.60 " />
    <path class="f0 sBLACK" style="stroke-width:0.24" d="M -1.07,-6.04 L 0.30,-7.98 L 1.65,-6.06 " />
    <path class="f0 sBLACK" style="stroke-width:0.24" d="M -2.10,-0.96 L -3.37,-2.76 L -2.15,-4.49 " />
    <path class="f0 sBLACK" style="stroke-width:0.24" d="M 2.79,-4.42 L 3.96,-2.76 L 2.62,-0.84 " />
    <path class="f0 sBLACK" style="stroke-width:0.24" d="M 1.60,0.60 L 0.30,2.47 L -0.94,0.70 " />
    <path class="fBLACK sBLACK" style="stroke-width:0.04" d="M -5.65,-12.51 L -5.70,-12.55 L -5.75,-12.59 L -5.80,-12.62 L -5.86,-12.64 L -5.94,-12.67 L -6.02,-12.68 L -6.11,-12.69 L -6.19,-12.69 L -6.25,-12.69 L -6.30,-12.68 L -6.35,-12.68 L -6.40,-12.66 L -6.45,-12.65 L -6.50,-12.63 L -6.55,-12.61 L -6.60,-12.59 L -6.64,-12.56 L -6.69,-12.53 L -6.73,-12.50 L -6.77,-12.46 L -6.80,-12.42 L -6.84,-12.38 L -6.87,-12.34 L -6.90,-12.30 L -6.90,-12.63 L -7.30,-12.63 L -7.30,-10.15 L -6.88,-10.15 L -6.88,-11.62 L -6.88,-11.68 L -6.87,-11.74 L -6.87,-11.79 L -6.86,-11.84 L -6.85,-11.89 L -6.83,-11.94 L -6.81,-11.98 L -6.79,-12.03 L -6.77,-12.07 L -6.74,-12.11 L -6.70,-12.16 L -6.64,-12.20 L -6.59,-12.24 L -6.53,-12.27 L -6.47,-12.30 L -6.40,-12.31 L -6.34,-12.32 L -6.27,-12.32 L -6.21,-12.32 L -6.16,-12.32 L -6.12,-12.31 L -6.07,-12.29 L -6.03,-12.27 L -5.99,-12.24 L -5.95,-12.20 L -5.65,-12.51 Z" />
    <path class="fBLACK sBLACK" style="stroke-width:0.04" d="M -5.95,-12.20 L -5.92,-12.17 L -5.89,-12.13 L -5.87,-12.05 L -5.85,-11.98 L -5.84,-11.90 L -5.84,-11.82 L -5.84,-10.15 L -5.41,-10.15 L -5.41,-11.62 L -5.41,-11.68 L -5.40,-11.75 L -5.39,-11.81 L -5.38,-11.87 L -5.37,-11.92 L -5.36,-11.96 L -5.34,-12.01 L -5.32,-12.05 L -5.29,-12.09 L -5.26,-12.13 L -5.23,-12.16 L -5.20,-12.20 L -5.15,-12.23 L -5.11,-12.25 L -5.06,-12.28 L -5.01,-12.29 L -4.96,-12.31 L -4.91,-12.32 L -4.86,-12.32 L -4.81,-12.32 L -4.74,-12.32 L -4.67,-12.31 L -4.61,-12.29 L -4.55,-12.26 L -4.52,-12.24 L -4.49,-12.21 L -4.47,-12.18 L -4.44,-12.15 L -4.42,-12.12 L -4.41,-12.09 L -4.40,-12.05 L -4.39,-12.02 L -4.38,-11.93 L -4.37,-11.84 L -4.37,-11.76 L -4.37,-11.67 L -4.37,-10.15 L -3.95,-10.15 L -3.95,-11.64 L -3.95,-11.76 L -3.95,-11.88 L -3.96,-12.00 L -3.97,-12.12 L -3.98,-12.16 L -3.99,-12.20 L -4.00,-12.25 L -4.01,-12.29 L -4.03,-12.33 L -4.06,-12.37 L -4.08,-12.41 L -4.11,-12.44 L -4.14,-12.48 L -4.17,-12.51 L -4.20,-12.54 L -4.24,-12.56 L -4.28,-12.59 L -4.32,-12.61 L -4.36,-12.63 L -4.40,-12.64 L -4.48,-12.67 L -4.57,-12.68 L -4.65,-12.69 L -4.74,-12.69 L -4.79,-12.69 L -4.85,-12.69 L -4.90,-12.68 L -4.96,-12.67 L -5.01,-12.65 L -5.06,-12.64 L -5.12,-12.62 L -5.17,-12.60 L -5.21,-12.57 L -5.26,-12.54 L -5.30,-12.51 L -5.35,-12.47 L -5.39,-12.43 L -5.42,-12.39 L -5.46,-12.35 L -5.49,-12.31 L -5.53,-12.36 L -5.56,-12.42 L -5.60,-12.46 L -5.65,-12.51 L -5.95,-12.20 Z" />
    <path class="fBLACK sBLACK" style="stroke-width:0.04" d="M -3.33,-13.57 L -3.33,-13.09 L -2.91,-13.09 L -2.91,-13.57 L -3.33,-13.57 Z" />
    <path class="fBLACK sBLACK" style="stroke-width:0.04" d="M -3.33,-12.63 L -3.33,-10.15 L -2.91,-10.15 L -2.91,-12.63 L -3.33,-12.63 Z" />
    <path class="fBLACK sBLACK" style="stroke-width:0.04" d="M -1.87,-11.81 L -1.89,-11.83 L -1.91,-11.85 L -1.93,-11.88 L -1.94,-11.91 L -1.95,-11.94 L -1.96,-11.97 L -1.96,-12.00 L -1.96,-12.04 L -1.95,-12.08 L -1.94,-12.12 L -1.92,-12.16 L -1.90,-12.19 L -1.88,-12.22 L -1.85,-12.25 L -1.81,-12.27 L -1.77,-12.29 L -1.73,-12.31 L -1.69,-12.33 L -1.64,-12.34 L -1.60,-12.35 L -1.56,-12.35 L -1.51,-12.35 L -1.47,-12.35 L -1.37,-12.35 L -1.28,-12.34 L -1.19,-12.32 L -1.11,-12.29 L -1.07,-12.27 L -1.04,-12.25 L -1.01,-12.23 L -0.98,-12.20 L -0.96,-12.17 L -0.94,-12.14 L -0.92,-12.11 L -0.90,-12.07 L -0.88,-12.01 L -0.87,-11.94 L -0.46,-11.94 L -0.46,-12.00 L -0.47,-12.07 L -0.48,-12.13 L -0.50,-12.19 L -0.53,-12.26 L -0.57,-12.32 L -0.61,-12.38 L -0.66,-12.44 L -0.71,-12.49 L -0.77,-12.53 L -0.83,-12.57 L -0.90,-12.60 L -0.96,-12.63 L -1.03,-12.65 L -1.10,-12.67 L -1.16,-12.68 L -1.23,-12.70 L -1.30,-12.70 L -1.37,-12.71 L -1.44,-12.71 L -1.51,-12.71 L -1.58,-12.71 L -1.65,-12.70 L -1.72,-12.69 L -1.79,-12.67 L -1.86,-12.65 L -1.92,-12.63 L -1.99,-12.60 L -2.03,-12.58 L -2.07,-12.55 L -2.11,-12.53 L -2.15,-12.50 L -2.18,-12.46 L -2.22,-12.43 L -2.24,-12.39 L -2.27,-12.35 L -2.30,-12.31 L -2.32,-12.27 L -2.34,-12.23 L -2.35,-12.18 L -2.36,-12.13 L -2.37,-12.09 L -2.38,-12.04 L -2.38,-11.99 L -2.38,-11.92 L -2.37,-11.84 L -2.36,-11.78 L -2.33,-11.72 L -2.31,-11.66 L -2.27,-11.61 L -2.23,-11.56 L -2.19,-11.51 L -2.14,-11.47 L -2.08,-11.44 L -1.87,-11.81 Z" />
    <path class="fBLACK sBLACK" style="stroke-width:0.04" d="M -1.43,-10.07 L -1.32,-10.08 L -1.21,-10.09 L -1.11,-10.10 L -1.01,-10.12 L -0.92,-10.15 L -0.82,-10.19 L -0.77,-10.21 L -0.73,-10.24 L -0.68,-10.28 L -0.64,-10.31 L -0.60,-10.35 L -0.56,-10.39 L -0.53,-10.43 L -0.50,-10.48 L -0.47,-10.52 L -0.45,-10.57 L -0.43,-10.62 L -0.41,-10.68 L -0.40,-10.73 L -0.40,-10.78 L -0.39,-10.84 L -0.39,-10.89 L -0.40,-10.98 L -0.41,-11.07 L -0.42,-11.12 L -0.44,-11.17 L -0.46,-11.22 L -0.49,-11.26 L -0.52,-11.30 L -0.55,-11.34 L -0.59,-11.38 L -0.63,-11.41 L -0.70,-11.45 L -0.77,-11.49 L -0.84,-11.52 L -0.91,-11.54 L -1.16,-11.60 L -1.57,-11.70 L -1.64,-11.71 L -1.71,-11.73 L -1.78,-11.76 L -1.84,-11.79 L -1.87,-11.81 L -2.08,-11.44 L -1.98,-11.39 L -1.88,-11.35 L -1.78,-11.32 L -1.67,-11.29 L -1.20,-11.17 L -1.05,-11.14 L -1.01,-11.12 L -0.98,-11.11 L -0.94,-11.09 L -0.91,-11.06 L -0.89,-11.05 L -0.87,-11.02 L -0.85,-11.00 L -0.84,-10.97 L -0.83,-10.95 L -0.82,-10.92 L -0.82,-10.89 L -0.81,-10.86 L -0.82,-10.81 L -0.82,-10.77 L -0.84,-10.73 L -0.85,-10.69 L -0.87,-10.65 L -0.90,-10.61 L -0.93,-10.58 L -0.97,-10.55 L -1.00,-10.53 L -1.04,-10.51 L -1.13,-10.48 L -1.22,-10.46 L -1.31,-10.44 L -1.40,-10.44 L -1.43,-10.07 Z" />
    <path class="fBLACK sBLACK" style="stroke-width:0.04" d="M -1.40,-10.44 L -1.47,-10.44 L -1.53,-10.45 L -1.60,-10.46 L -1.66,-10.47 L -1.72,-10.49 L -1.77,-10.51 L -1.82,-10.54 L -1.87,-10.58 L -1.91,-10.62 L -1.95,-10.67 L -1.98,-10.72 L -2.00,-10.77 L -2.03,-10.86 L -2.04,-10.96 L -2.45,-10.96 L -2.45,-10.90 L -2.44,-10.84 L -2.44,-10.79 L -2.43,-10.74 L -2.41,-10.68 L -2.40,-10.63 L -2.38,-10.58 L -2.35,-10.53 L -2.31,-10.46 L -2.26,-10.39 L -2.21,-10.33 L -2.15,-10.27 L -2.08,-10.22 L -2.01,-10.18 L -1.93,-10.15 L -1.85,-10.12 L -1.75,-10.10 L -1.64,-10.08 L -1.53,-10.07 L -1.43,-10.07 L -1.40,-10.44 Z" />
    <path class="fBLACK sBLACK" style="stroke-width:0.04" d="M 0.51,-11.81 L 0.48,-11.83 L 0.46,-11.85 L 0.45,-11.88 L 0.43,-11.91 L 0.42,-11.94 L 0.42,-11.97 L 0.42,-12.00 L 0.42,-12.04 L 0.42,-12.08 L 0.44,-12.12 L 0.45,-12.16 L 0.47,-12.19 L 0.50,-12.22 L 0.53,-12.25 L 0.57,-12.27 L 0.60,-12.29 L 0.65,-12.31 L 0.69,-12.33 L 0.73,-12.34 L 0.78,-12.35 L 0.82,-12.35 L 0.87,-12.35 L 0.91,-12.35 L 1.00,-12.35 L 1.09,-12.34 L 1.18,-12.32 L 1.27,-12.29 L 1.30,-12.27 L 1.34,-12.25 L 1.37,-12.23 L 1.39,-12.20 L 1.42,-12.17 L 1.44,-12.14 L 1.46,-12.11 L 1.48,-12.07 L 1.49,-12.01 L 1.51,-11.94 L 1.91,-11.94 L 1.91,-12.00 L 1.91,-12.07 L 1.89,-12.13 L 1.88,-12.19 L 1.85,-12.26 L 1.81,-12.32 L 1.77,-12.38 L 1.72,-12.44 L 1.67,-12.49 L 1.61,-12.53 L 1.54,-12.57 L 1.48,-12.60 L 1.41,-12.63 L 1.35,-12.65 L 1.28,-12.67 L 1.21,-12.68 L 1.15,-12.70 L 1.08,-12.70 L 1.01,-12.71 L 0.94,-12.71 L 0.87,-12.71 L 0.80,-12.71 L 0.73,-12.70 L 0.66,-12.69 L 0.59,-12.67 L 0.52,-12.65 L 0.45,-12.63 L 0.39,-12.60 L 0.35,-12.58 L 0.30,-12.55 L 0.27,-12.53 L 0.23,-12.50 L 0.19,-12.46 L 0.16,-12.43 L 0.13,-12.39 L 0.10,-12.35 L 0.08,-12.31 L 0.06,-12.27 L 0.04,-12.23 L 0.03,-12.18 L 0.01,-12.13 L 0.00,-12.09 L 0.00,-12.04 L 0.00,-11.99 L 0.00,-11.92 L 0.01,-11.84 L 0.02,-11.78 L 0.04,-11.72 L 0.07,-11.66 L 0.10,-11.61 L 0.14,-11.56 L 0.19,-11.51 L 0.24,-11.47 L 0.29,-11.44 L 0.51,-11.81 Z" />
    <path class="fBLACK sBLACK" style="stroke-width:0.04" d="M 0.95,-10.07 L 1.06,-10.08 L 1.17,-10.09 L 1.27,-10.10 L 1.37,-10.12 L 1.46,-10.15 L 1.55,-10.19 L 1.60,-10.21 L 1.65,-10.24 L 1.69,-10.28 L 1.74,-10.31 L 1.78,-10.35 L 1.81,-10.39 L 1.84,-10.43 L 1.88,-10.48 L 1.90,-10.52 L 1.93,-10.57 L 1.95,-10.62 L 1.96,-10.68 L 1.97,-10.73 L 1.98,-10.78 L 1.99,-10.84 L 1.99,-10.89 L 1.98,-10.98 L 1.97,-11.07 L 1.95,-11.12 L 1.94,-11.17 L 1.91,-11.22 L 1.89,-11.26 L 1.86,-11.30 L 1.82,-11.34 L 1.78,-11.38 L 1.74,-11.41 L 1.68,-11.45 L 1.61,-11.49 L 1.54,-11.52 L 1.46,-11.54 L 1.22,-11.60 L 0.81,-11.70 L 0.74,-11.71 L 0.67,-11.73 L 0.60,-11.76 L 0.54,-11.79 L 0.51,-11.81 L 0.29,-11.44 L 0.39,-11.39 L 0.50,-11.35 L 0.60,-11.32 L 0.71,-11.29 L 1.18,-11.17 L 1.33,-11.14 L 1.37,-11.12 L 1.40,-11.11 L 1.43,-11.09 L 1.46,-11.06 L 1.49,-11.05 L 1.50,-11.02 L 1.52,-11.00 L 1.54,-10.97 L 1.55,-10.95 L 1.56,-10.92 L 1.56,-10.89 L 1.56,-10.86 L 1.56,-10.81 L 1.55,-10.77 L 1.54,-10.73 L 1.52,-10.69 L 1.50,-10.65 L 1.48,-10.61 L 1.45,-10.58 L 1.41,-10.55 L 1.37,-10.53 L 1.34,-10.51 L 1.25,-10.48 L 1.16,-10.46 L 1.07,-10.44 L 0.97,-10.44 L 0.95,-10.07 Z" />
    <path class="fBLACK sBLACK" style="stroke-width:0.04" d="M 0.97,-10.44 L 0.91,-10.44 L 0.84,-10.45 L 0.78,-10.46 L 0.72,-10.47 L 0.66,-10.49 L 0.61,-10.51 L 0.56,-10.54 L 0.51,-10.58 L 0.47,-10.62 L 0.43,-10.67 L 0.40,-10.72 L 0.37,-10.77 L 0.35,-10.86 L 0.34,-10.96 L -0.07,-10.96 L -0.07,-10.90 L -0.07,-10.84 L -0.06,-10.79 L -0.05,-10.74 L -0.04,-10.68 L -0.02,-10.63 L 0.00,-10.58 L 0.02,-10.53 L 0.06,-10.46 L 0.11,-10.39 L 0.17,-10.33 L 0.23,-10.27 L 0.30,-10.22 L 0.37,-10.18 L 0.45,-10.15 L 0.53,-10.12 L 0.63,-10.10 L 0.74,-10.08 L 0.84,-10.07 L 0.95,-10.07 L 0.97,-10.44 Z" />
    <path class="fBLACK sBLACK" style="stroke-width:0.04" d="M 2.48,-13.57 L 2.48,-13.09 L 2.90,-13.09 L 2.90,-13.57 L 2.48,-13.57 Z" />
    <path class="fBLACK sBLACK" style="stroke-width:0.04" d="M 2.48,-12.63 L 2.48,-10.15 L 2.90,-10.15 L 2.90,-12.63 L 2.48,-12.63 Z" />
    <path class="fBLACK sBLACK" style="stroke-width:0.04" d="M 5.55,-11.64 L 5.55,-11.76 L 5.55,-11.88 L 5.54,-12.00 L 5.53,-12.12 L 5.52,-12.18 L 5.50,-12.24 L 5.48,-12.30 L 5.45,-12.36 L 5.41,-12.41 L 5.37,-12.46 L 5.33,-12.50 L 5.28,-12.54 L 5.23,-12.57 L 5.18,-12.60 L 5.12,-12.62 L 5.06,-12.64 L 4.97,-12.67 L 4.88,-12.68 L 4.78,-12.69 L 4.69,-12.69 L 4.60,-12.69 L 4.51,-12.68 L 4.42,-12.66 L 4.33,-12.63 L 4.27,-12.60 L 4.21,-12.57 L 4.16,-12.53 L 4.10,-12.49 L 4.05,-12.44 L 4.01,-12.39 L 3.96,-12.34 L 3.93,-12.29 L 3.93,-12.63 L 3.53,-12.63 L 3.53,-10.15 L 3.94,-10.15 L 3.94,-11.56 L 3.95,-11.65 L 3.95,-11.74 L 3.96,-11.80 L 3.98,-11.87 L 4.00,-11.93 L 4.03,-11.99 L 4.06,-12.04 L 4.10,-12.10 L 4.15,-12.14 L 4.20,-12.19 L 4.25,-12.22 L 4.30,-12.25 L 4.36,-12.27 L 4.41,-12.29 L 4.47,-12.31 L 4.53,-12.32 L 4.59,-12.32 L 4.65,-12.32 L 4.69,-12.32 L 4.74,-12.32 L 4.78,-12.32 L 4.82,-12.31 L 4.86,-12.30 L 4.89,-12.28 L 4.93,-12.26 L 4.96,-12.24 L 4.99,-12.22 L 5.02,-12.19 L 5.04,-12.16 L 5.06,-12.13 L 5.09,-12.05 L 5.11,-11.98 L 5.13,-11.90 L 5.13,-11.82 L 5.13,-10.15 L 5.55,-10.15 L 5.55,-11.64 Z" />
    <path class="fBLACK sBLACK" style="stroke-width:0.04" d="M 8.20,-10.20 L 8.20,-12.63 L 7.79,-12.63 L 7.79,-12.35 L 7.73,-12.43 L 7.66,-12.50 L 7.58,-12.57 L 7.50,-12.62 L 7.45,-12.64 L 7.39,-12.67 L 7.34,-12.68 L 7.28,-12.70 L 7.23,-12.70 L 7.17,-12.71 L 7.11,-12.71 L 7.05,-12.71 L 6.98,-12.71 L 6.91,-12.70 L 6.84,-12.69 L 6.78,-12.67 L 6.71,-12.64 L 6.65,-12.62 L 6.58,-12.58 L 6.52,-12.54 L 6.46,-12.49 L 6.39,-12.43 L 6.34,-12.36 L 6.28,-12.29 L 6.24,-12.22 L 6.19,-12.14 L 6.16,-12.06 L 6.13,-11.98 L 6.11,-11.91 L 6.09,-11.84 L 6.07,-11.77 L 6.06,-11.69 L 6.05,-11.62 L 6.04,-11.55 L 6.04,-11.47 L 6.04,-11.40 L 6.04,-11.32 L 6.47,-11.35 L 6.48,-11.43 L 6.48,-11.49 L 6.48,-11.56 L 6.49,-11.63 L 6.50,-11.70 L 6.51,-11.76 L 6.53,-11.83 L 6.55,-11.90 L 6.58,-11.96 L 6.60,-12.01 L 6.62,-12.05 L 6.65,-12.09 L 6.69,-12.13 L 6.72,-12.17 L 6.76,-12.21 L 6.80,-12.24 L 6.84,-12.27 L 6.91,-12.30 L 6.98,-12.32 L 7.06,-12.33 L 7.13,-12.33 L 7.21,-12.33 L 7.28,-12.32 L 7.36,-12.30 L 7.43,-12.28 L 7.47,-12.25 L 7.52,-12.22 L 7.56,-12.18 L 7.60,-12.14 L 7.63,-12.10 L 7.66,-12.06 L 7.69,-12.01 L 7.71,-11.96 L 7.74,-11.88 L 7.77,-11.79 L 7.79,-11.71 L 7.80,-11.62 L 7.81,-11.50 L 7.81,-11.39 L 8.20,-10.20 Z" />
    <path class="fBLACK sBLACK" style="stroke-width:0.04" d="M 7.81,-11.29 L 7.80,-11.19 L 7.79,-11.08 L 7.77,-10.98 L 7.75,-10.90 L 7.72,-10.82 L 7.68,-10.74 L 7.64,-10.67 L 7.59,-10.61 L 7.54,-10.57 L 7.49,-10.53 L 7.43,-10.49 L 7.36,-10.47 L 7.30,-10.45 L 7.23,-10.44 L 7.16,-10.44 L 7.08,-10.44 L 7.01,-10.45 L 6.93,-10.47 L 6.86,-10.50 L 6.81,-10.53 L 6.77,-10.57 L 6.73,-10.60 L 6.69,-10.65 L 6.65,-10.69 L 6.62,-10.74 L 6.60,-10.79 L 6.57,-10.84 L 6.55,-10.91 L 6.52,-10.98 L 6.51,-11.05 L 6.49,-11.13 L 6.48,-11.20 L 6.48,-11.28 L 6.47,-11.35 L 6.04,-11.32 L 6.04,-11.25 L 6.05,-11.17 L 6.06,-11.09 L 6.07,-11.00 L 6.10,-10.90 L 6.13,-10.81 L 6.16,-10.72 L 6.20,-10.64 L 6.25,-10.55 L 6.30,-10.47 L 6.36,-10.39 L 6.40,-10.36 L 6.43,-10.32 L 6.47,-10.29 L 6.51,-10.25 L 6.55,-10.22 L 6.60,-10.20 L 6.64,-10.17 L 6.69,-10.15 L 6.78,-10.11 L 6.88,-10.09 L 6.98,-10.07 L 7.09,-10.07 L 7.14,-10.07 L 7.19,-10.07 L 7.24,-10.08 L 7.29,-10.09 L 7.34,-10.10 L 7.39,-10.12 L 7.44,-10.14 L 7.48,-10.15 L 7.53,-10.18 L 7.57,-10.21 L 7.61,-10.23 L 7.65,-10.27 L 7.69,-10.30 L 7.73,-10.34 L 7.76,-10.37 L 7.79,-10.41 L 7.79,-10.11 L 8.20,-10.20 L 7.81,-11.39 L 7.81,-11.29 Z" />
    <path class="fBLACK sBLACK" style="stroke-width:0.04" d="M 7.79,-10.11 L 7.79,-9.99 L 7.79,-9.92 L 7.78,-9.85 L 7.75,-9.78 L 7.72,-9.72 L 7.70,-9.68 L 7.67,-9.65 L 7.64,-9.62 L 7.60,-9.59 L 7.57,-9.56 L 7.53,-9.54 L 7.49,-9.52 L 7.44,-9.51 L 7.37,-9.49 L 7.29,-9.47 L 7.21,-9.47 L 7.13,-9.46 L 7.04,-9.47 L 6.94,-9.48 L 6.88,-9.49 L 6.82,-9.50 L 6.75,-9.53 L 6.70,-9.55 L 6.66,-9.58 L 6.63,-9.61 L 6.60,-9.64 L 6.58,-9.68 L 6.56,-9.72 L 6.55,-9.77 L 6.54,-9.81 L 6.54,-9.86 L 6.14,-9.86 L 6.14,-9.77 L 6.14,-9.72 L 6.15,-9.67 L 6.16,-9.62 L 6.18,-9.57 L 6.20,-9.53 L 6.23,-9.49 L 6.26,-9.45 L 6.29,-9.41 L 6.33,-9.36 L 6.38,-9.32 L 6.43,-9.28 L 6.48,-9.25 L 6.53,-9.22 L 6.59,-9.19 L 6.65,-9.17 L 6.71,-9.15 L 6.83,-9.13 L 6.94,-9.12 L 7.06,-9.11 L 7.18,-9.11 L 7.30,-9.12 L 7.42,-9.13 L 7.54,-9.16 L 7.65,-9.19 L 7.70,-9.21 L 7.75,-9.24 L 7.80,-9.26 L 7.85,-9.29 L 7.89,-9.33 L 7.93,-9.37 L 7.97,-9.40 L 8.01,-9.45 L 8.04,-9.49 L 8.07,-9.54 L 8.10,-9.59 L 8.12,-9.64 L 8.14,-9.69 L 8.16,-9.74 L 8.17,-9.79 L 8.18,-9.85 L 8.20,-10.03 L 8.20,-10.20 L 7.79,-10.11 Z" />
    <path class="fMIDGN sMIDGN" style="stroke-width:0.04" d="M -0.21,-5.40 L 1.26,-5.40 L 1.13,-4.02 L -0.34,-4.02 L -0.21,-5.40 Z" />
    <path class="fMIDGN sMIDGN" style="stroke-width:0.04" d="M -0.48,-2.69 L 0.99,-2.69 L 0.86,-1.31 L -0.61,-1.31 L -0.48,-2.69 Z" />
    <path class="f0 sBLACK" style="stroke-width:0.12" d="M -0.21,-5.40 L 1.26,-5.40 L 0.74,0.00 L -0.74,0.00 L -0.21,-5.40 Z" />
    <circle class="pivotPoint layout" fill="none" cx="0" cy="0" r="0.2" />
  </g>
</svg>