<?xml version="1.0" encoding="UTF-8"?>
<?xml-stylesheet type='text/css' href='S401Style.css'?>
<svg version="1.2" baseProfile="tiny" style="shape-rendering:geometricPrecision; fill-rule:evenodd;" width="15.50mm" height="16.38mm" viewBox="-7.24 -13.54 15.52 16.40" xmlns="http://www.w3.org/2000/svg">
  <title>BOYLAT26M</title>
  <desc>river buoy, obstruction at the right side - off position - missing - text area -d</desc>
  <metadata />
  <g>
    <path class="fWHITE sWHITE" style="stroke-width:0.04" d="M -0.74,0.00 L 0.74,0.00 L 1.26,-5.40 L -0.21,-5.40 L -0.74,0.00 Z" />
    <path class="f0 sBLACK" style="stroke-width:0.24" d="M 3.03,-4.50 L 4.27,-2.72 L 2.85,-0.69 " />
    <path class="f0 sBLACK" style="stroke-width:0.24" d="M 1.83,0.76 L 0.36,2.85 L -1.04,0.86 " />
    <path class="f0 sBLACK" style="stroke-width:0.24" d="M -1.16,-6.11 L 0.36,-8.29 L 1.88,-6.13 " />
    <path class="f0 sBLACK" style="stroke-width:0.24" d="M -2.20,-0.80 L -3.54,-2.72 L -2.25,-4.56 " />
    <path class="f0 sBLACK" style="stroke-width:0.24" d="M -1.00,-6.00 L 0.36,-7.94 L 1.71,-6.02 " />
    <path class="f0 sBLACK" style="stroke-width:0.28" d="M -2.03,-0.92 L -3.30,-2.72 L -2.09,-4.45 " />
    <path class="f0 sBLACK" style="stroke-width:0.24" d="M 2.86,-4.38 L 4.03,-2.72 L 2.69,-0.80 " />
    <path class="f0 sBLACK" style="stroke-width:0.24" d="M 1.67,0.64 L 0.36,2.51 L -0.87,0.74 " />
    <path class="fBLACK sBLACK" style="stroke-width:0.04" d="M -5.58,-12.47 L -5.63,-12.51 L -5.68,-12.55 L -5.74,-12.58 L -5.79,-12.60 L -5.87,-12.63 L -5.96,-12.64 L -6.04,-12.65 L -6.13,-12.65 L -6.18,-12.65 L -6.23,-12.64 L -6.28,-12.64 L -6.33,-12.63 L -6.38,-12.61 L -6.43,-12.59 L -6.48,-12.57 L -6.53,-12.55 L -6.57,-12.52 L -6.62,-12.49 L -6.66,-12.46 L -6.70,-12.42 L -6.73,-12.38 L -6.77,-12.34 L -6.80,-12.30 L -6.83,-12.26 L -6.83,-12.59 L -7.23,-12.59 L -7.23,-10.11 L -6.81,-10.11 L -6.81,-11.58 L -6.81,-11.64 L -6.80,-11.70 L -6.80,-11.75 L -6.79,-11.80 L -6.78,-11.85 L -6.76,-11.90 L -6.75,-11.94 L -6.72,-11.99 L -6.70,-12.03 L -6.67,-12.07 L -6.63,-12.12 L -6.58,-12.17 L -6.52,-12.20 L -6.46,-12.23 L -6.40,-12.26 L -6.33,-12.27 L -6.27,-12.28 L -6.20,-12.29 L -6.14,-12.29 L -6.10,-12.28 L -6.05,-12.27 L -6.00,-12.25 L -5.96,-12.23 L -5.92,-12.20 L -5.88,-12.17 L -5.58,-12.47 Z" />
    <path class="fBLACK sBLACK" style="stroke-width:0.04" d="M -5.88,-12.17 L -5.85,-12.13 L -5.83,-12.09 L -5.80,-12.01 L -5.78,-11.94 L -5.77,-11.86 L -5.77,-11.78 L -5.77,-10.11 L -5.34,-10.11 L -5.34,-11.58 L -5.34,-11.64 L -5.33,-11.71 L -5.32,-11.77 L -5.31,-11.83 L -5.30,-11.88 L -5.29,-11.93 L -5.27,-11.97 L -5.25,-12.01 L -5.22,-12.05 L -5.19,-12.09 L -5.16,-12.12 L -5.13,-12.16 L -5.08,-12.19 L -5.04,-12.21 L -4.99,-12.24 L -4.94,-12.25 L -4.89,-12.27 L -4.84,-12.28 L -4.79,-12.28 L -4.74,-12.29 L -4.67,-12.28 L -4.60,-12.27 L -4.54,-12.25 L -4.48,-12.22 L -4.45,-12.20 L -4.42,-12.17 L -4.40,-12.14 L -4.37,-12.11 L -4.35,-12.08 L -4.34,-12.05 L -4.33,-12.01 L -4.32,-11.98 L -4.31,-11.89 L -4.30,-11.80 L -4.30,-11.72 L -4.30,-11.63 L -4.30,-10.11 L -3.89,-10.11 L -3.89,-11.60 L -3.88,-11.72 L -3.89,-11.84 L -3.89,-11.96 L -3.90,-12.08 L -3.91,-12.12 L -3.92,-12.16 L -3.93,-12.21 L -3.95,-12.25 L -3.96,-12.29 L -3.99,-12.33 L -4.01,-12.37 L -4.04,-12.40 L -4.07,-12.44 L -4.10,-12.47 L -4.14,-12.50 L -4.17,-12.53 L -4.21,-12.55 L -4.25,-12.57 L -4.29,-12.59 L -4.33,-12.60 L -4.42,-12.63 L -4.50,-12.64 L -4.58,-12.65 L -4.67,-12.65 L -4.73,-12.65 L -4.78,-12.65 L -4.84,-12.64 L -4.89,-12.63 L -4.94,-12.61 L -5.00,-12.60 L -5.05,-12.58 L -5.10,-12.56 L -5.15,-12.53 L -5.19,-12.50 L -5.24,-12.47 L -5.28,-12.43 L -5.32,-12.39 L -5.36,-12.35 L -5.39,-12.31 L -5.43,-12.27 L -5.46,-12.33 L -5.49,-12.38 L -5.54,-12.42 L -5.58,-12.47 L -5.88,-12.17 Z" />
    <path class="fBLACK sBLACK" style="stroke-width:0.04" d="M -3.26,-13.53 L -3.26,-13.05 L -2.84,-13.05 L -2.84,-13.53 L -3.26,-13.53 Z" />
    <path class="fBLACK sBLACK" style="stroke-width:0.04" d="M -3.26,-12.59 L -3.26,-10.11 L -2.84,-10.11 L -2.84,-12.59 L -3.26,-12.59 Z" />
    <path class="fBLACK sBLACK" style="stroke-width:0.04" d="M -1.80,-11.77 L -1.82,-11.79 L -1.85,-11.81 L -1.86,-11.84 L -1.88,-11.87 L -1.89,-11.90 L -1.89,-11.93 L -1.89,-11.96 L -1.89,-12.00 L -1.88,-12.04 L -1.87,-12.08 L -1.85,-12.12 L -1.83,-12.15 L -1.81,-12.18 L -1.78,-12.21 L -1.74,-12.23 L -1.70,-12.25 L -1.66,-12.27 L -1.62,-12.29 L -1.58,-12.30 L -1.53,-12.31 L -1.49,-12.31 L -1.44,-12.31 L -1.40,-12.31 L -1.31,-12.31 L -1.21,-12.30 L -1.13,-12.28 L -1.04,-12.25 L -1.01,-12.23 L -0.97,-12.21 L -0.94,-12.19 L -0.92,-12.16 L -0.89,-12.13 L -0.87,-12.10 L -0.85,-12.07 L -0.83,-12.03 L -0.81,-11.97 L -0.80,-11.90 L -0.39,-11.90 L -0.39,-11.96 L -0.40,-12.03 L -0.41,-12.09 L -0.43,-12.15 L -0.46,-12.22 L -0.50,-12.28 L -0.54,-12.34 L -0.59,-12.40 L -0.64,-12.45 L -0.70,-12.49 L -0.76,-12.53 L -0.83,-12.56 L -0.89,-12.59 L -0.96,-12.61 L -1.03,-12.63 L -1.09,-12.64 L -1.16,-12.66 L -1.23,-12.66 L -1.30,-12.67 L -1.37,-12.67 L -1.44,-12.67 L -1.51,-12.67 L -1.58,-12.66 L -1.65,-12.65 L -1.72,-12.63 L -1.79,-12.61 L -1.85,-12.59 L -1.92,-12.56 L -1.96,-12.54 L -2.00,-12.51 L -2.04,-12.49 L -2.08,-12.46 L -2.11,-12.43 L -2.15,-12.39 L -2.18,-12.35 L -2.20,-12.31 L -2.23,-12.27 L -2.25,-12.23 L -2.27,-12.19 L -2.28,-12.14 L -2.29,-12.09 L -2.30,-12.05 L -2.31,-12.00 L -2.31,-11.95 L -2.31,-11.88 L -2.30,-11.80 L -2.29,-11.74 L -2.27,-11.68 L -2.24,-11.62 L -2.21,-11.57 L -2.16,-11.52 L -2.12,-11.47 L -2.07,-11.43 L -2.01,-11.40 L -1.80,-11.77 Z" />
    <path class="fBLACK sBLACK" style="stroke-width:0.04" d="M -1.36,-10.03 L -1.25,-10.04 L -1.14,-10.05 L -1.04,-10.06 L -0.94,-10.08 L -0.85,-10.11 L -0.76,-10.15 L -0.71,-10.17 L -0.66,-10.20 L -0.61,-10.24 L -0.57,-10.27 L -0.53,-10.31 L -0.50,-10.35 L -0.46,-10.39 L -0.43,-10.44 L -0.41,-10.48 L -0.38,-10.53 L -0.36,-10.59 L -0.35,-10.64 L -0.33,-10.69 L -0.33,-10.74 L -0.32,-10.80 L -0.32,-10.85 L -0.33,-10.94 L -0.34,-11.03 L -0.35,-11.08 L -0.37,-11.13 L -0.39,-11.18 L -0.42,-11.22 L -0.45,-11.26 L -0.49,-11.30 L -0.52,-11.34 L -0.56,-11.37 L -0.63,-11.41 L -0.70,-11.45 L -0.77,-11.48 L -0.85,-11.50 L -1.09,-11.56 L -1.50,-11.66 L -1.57,-11.67 L -1.64,-11.69 L -1.71,-11.72 L -1.77,-11.75 L -1.80,-11.77 L -2.01,-11.40 L -1.91,-11.35 L -1.81,-11.31 L -1.71,-11.28 L -1.60,-11.25 L -1.13,-11.13 L -0.98,-11.10 L -0.94,-11.08 L -0.91,-11.07 L -0.88,-11.05 L -0.85,-11.03 L -0.82,-11.01 L -0.80,-10.98 L -0.79,-10.96 L -0.77,-10.94 L -0.76,-10.91 L -0.75,-10.88 L -0.75,-10.85 L -0.74,-10.82 L -0.75,-10.77 L -0.76,-10.73 L -0.77,-10.69 L -0.78,-10.65 L -0.81,-10.61 L -0.83,-10.57 L -0.86,-10.54 L -0.90,-10.51 L -0.93,-10.49 L -0.97,-10.47 L -1.06,-10.44 L -1.15,-10.42 L -1.24,-10.40 L -1.33,-10.40 L -1.36,-10.03 Z" />
    <path class="fBLACK sBLACK" style="stroke-width:0.04" d="M -1.33,-10.40 L -1.40,-10.40 L -1.46,-10.41 L -1.53,-10.42 L -1.59,-10.43 L -1.65,-10.45 L -1.70,-10.47 L -1.75,-10.50 L -1.80,-10.54 L -1.84,-10.58 L -1.88,-10.63 L -1.91,-10.68 L -1.93,-10.74 L -1.96,-10.82 L -1.97,-10.92 L -2.38,-10.92 L -2.38,-10.86 L -2.38,-10.81 L -2.37,-10.75 L -2.36,-10.70 L -2.34,-10.64 L -2.33,-10.59 L -2.31,-10.54 L -2.29,-10.49 L -2.24,-10.42 L -2.19,-10.35 L -2.14,-10.29 L -2.08,-10.23 L -2.01,-10.18 L -1.94,-10.14 L -1.86,-10.11 L -1.78,-10.08 L -1.68,-10.06 L -1.57,-10.04 L -1.47,-10.04 L -1.36,-10.03 L -1.33,-10.40 Z" />
    <path class="fBLACK sBLACK" style="stroke-width:0.04" d="M 0.58,-11.77 L 0.55,-11.79 L 0.53,-11.81 L 0.51,-11.84 L 0.50,-11.87 L 0.49,-11.90 L 0.49,-11.93 L 0.49,-11.96 L 0.49,-12.00 L 0.49,-12.04 L 0.50,-12.08 L 0.52,-12.12 L 0.54,-12.15 L 0.57,-12.18 L 0.60,-12.21 L 0.63,-12.23 L 0.67,-12.25 L 0.72,-12.27 L 0.76,-12.29 L 0.80,-12.30 L 0.85,-12.31 L 0.89,-12.31 L 0.94,-12.31 L 0.98,-12.31 L 1.07,-12.31 L 1.16,-12.30 L 1.25,-12.28 L 1.34,-12.25 L 1.37,-12.23 L 1.40,-12.21 L 1.43,-12.19 L 1.46,-12.16 L 1.49,-12.13 L 1.51,-12.10 L 1.53,-12.07 L 1.55,-12.03 L 1.56,-11.97 L 1.57,-11.90 L 1.98,-11.90 L 1.98,-11.96 L 1.98,-12.03 L 1.96,-12.09 L 1.95,-12.15 L 1.92,-12.22 L 1.88,-12.28 L 1.84,-12.34 L 1.79,-12.40 L 1.73,-12.45 L 1.68,-12.49 L 1.61,-12.53 L 1.55,-12.56 L 1.48,-12.59 L 1.42,-12.61 L 1.35,-12.63 L 1.28,-12.64 L 1.22,-12.66 L 1.15,-12.66 L 1.08,-12.67 L 1.01,-12.67 L 0.94,-12.67 L 0.87,-12.67 L 0.80,-12.66 L 0.73,-12.65 L 0.66,-12.63 L 0.59,-12.61 L 0.52,-12.59 L 0.46,-12.56 L 0.41,-12.54 L 0.37,-12.51 L 0.33,-12.49 L 0.30,-12.46 L 0.26,-12.43 L 0.23,-12.39 L 0.20,-12.35 L 0.17,-12.31 L 0.15,-12.27 L 0.13,-12.23 L 0.11,-12.19 L 0.09,-12.14 L 0.08,-12.09 L 0.07,-12.05 L 0.07,-12.00 L 0.07,-11.95 L 0.07,-11.88 L 0.08,-11.80 L 0.09,-11.74 L 0.11,-11.68 L 0.14,-11.62 L 0.17,-11.57 L 0.21,-11.52 L 0.26,-11.47 L 0.31,-11.43 L 0.36,-11.40 L 0.58,-11.77 Z" />
    <path class="fBLACK sBLACK" style="stroke-width:0.04" d="M 1.02,-10.03 L 1.13,-10.04 L 1.24,-10.05 L 1.34,-10.06 L 1.43,-10.08 L 1.53,-10.11 L 1.62,-10.15 L 1.67,-10.17 L 1.72,-10.20 L 1.76,-10.24 L 1.80,-10.27 L 1.84,-10.31 L 1.88,-10.35 L 1.91,-10.39 L 1.94,-10.44 L 1.97,-10.48 L 1.99,-10.53 L 2.01,-10.59 L 2.03,-10.64 L 2.04,-10.69 L 2.05,-10.74 L 2.05,-10.80 L 2.05,-10.85 L 2.05,-10.94 L 2.04,-11.03 L 2.02,-11.08 L 2.01,-11.13 L 1.98,-11.18 L 1.96,-11.22 L 1.92,-11.26 L 1.89,-11.30 L 1.85,-11.34 L 1.81,-11.37 L 1.75,-11.41 L 1.68,-11.45 L 1.61,-11.48 L 1.53,-11.50 L 1.29,-11.56 L 0.88,-11.66 L 0.81,-11.67 L 0.74,-11.69 L 0.67,-11.72 L 0.60,-11.75 L 0.58,-11.77 L 0.36,-11.40 L 0.46,-11.35 L 0.56,-11.31 L 0.67,-11.28 L 0.78,-11.25 L 1.25,-11.13 L 1.40,-11.10 L 1.43,-11.08 L 1.47,-11.07 L 1.50,-11.05 L 1.53,-11.03 L 1.55,-11.01 L 1.57,-10.98 L 1.59,-10.96 L 1.61,-10.94 L 1.62,-10.91 L 1.63,-10.88 L 1.63,-10.85 L 1.63,-10.82 L 1.63,-10.77 L 1.62,-10.73 L 1.61,-10.69 L 1.59,-10.65 L 1.57,-10.61 L 1.55,-10.57 L 1.51,-10.54 L 1.48,-10.51 L 1.44,-10.49 L 1.40,-10.47 L 1.32,-10.44 L 1.23,-10.42 L 1.13,-10.40 L 1.04,-10.40 L 1.02,-10.03 Z" />
    <path class="fBLACK sBLACK" style="stroke-width:0.04" d="M 1.04,-10.40 L 0.98,-10.40 L 0.91,-10.41 L 0.85,-10.42 L 0.79,-10.43 L 0.73,-10.45 L 0.67,-10.47 L 0.62,-10.50 L 0.58,-10.54 L 0.53,-10.58 L 0.50,-10.63 L 0.47,-10.68 L 0.44,-10.74 L 0.42,-10.82 L 0.41,-10.92 L 0.00,-10.92 L 0.00,-10.86 L 0.00,-10.81 L 0.01,-10.75 L 0.02,-10.70 L 0.03,-10.64 L 0.05,-10.59 L 0.07,-10.54 L 0.09,-10.49 L 0.13,-10.42 L 0.18,-10.35 L 0.24,-10.29 L 0.30,-10.23 L 0.37,-10.18 L 0.44,-10.14 L 0.52,-10.11 L 0.60,-10.08 L 0.70,-10.06 L 0.81,-10.04 L 0.91,-10.04 L 1.02,-10.03 L 1.04,-10.40 Z" />
    <path class="fBLACK sBLACK" style="stroke-width:0.04" d="M 2.55,-13.53 L 2.55,-13.05 L 2.97,-13.05 L 2.97,-13.53 L 2.55,-13.53 Z" />
    <path class="fBLACK sBLACK" style="stroke-width:0.04" d="M 2.55,-12.59 L 2.55,-10.11 L 2.97,-10.11 L 2.97,-12.59 L 2.55,-12.59 Z" />
    <path class="fBLACK sBLACK" style="stroke-width:0.04" d="M 5.62,-11.60 L 5.62,-11.72 L 5.62,-11.84 L 5.61,-11.96 L 5.60,-12.08 L 5.59,-12.14 L 5.57,-12.20 L 5.55,-12.26 L 5.51,-12.32 L 5.48,-12.37 L 5.44,-12.42 L 5.40,-12.46 L 5.35,-12.50 L 5.30,-12.53 L 5.24,-12.56 L 5.19,-12.58 L 5.13,-12.60 L 5.04,-12.63 L 4.95,-12.64 L 4.85,-12.65 L 4.76,-12.65 L 4.67,-12.65 L 4.58,-12.64 L 4.49,-12.62 L 4.40,-12.59 L 4.34,-12.56 L 4.28,-12.53 L 4.23,-12.49 L 4.17,-12.45 L 4.12,-12.40 L 4.07,-12.35 L 4.03,-12.30 L 3.99,-12.25 L 3.99,-12.59 L 3.59,-12.59 L 3.59,-10.11 L 4.01,-10.11 L 4.01,-11.52 L 4.01,-11.61 L 4.02,-11.70 L 4.03,-11.77 L 4.05,-11.83 L 4.07,-11.89 L 4.10,-11.95 L 4.13,-12.00 L 4.17,-12.06 L 4.21,-12.10 L 4.26,-12.15 L 4.31,-12.18 L 4.37,-12.21 L 4.42,-12.23 L 4.48,-12.25 L 4.54,-12.27 L 4.60,-12.28 L 4.66,-12.28 L 4.72,-12.29 L 4.76,-12.29 L 4.80,-12.28 L 4.85,-12.28 L 4.89,-12.27 L 4.92,-12.26 L 4.96,-12.24 L 4.99,-12.22 L 5.03,-12.20 L 5.06,-12.18 L 5.08,-12.15 L 5.11,-12.12 L 5.13,-12.09 L 5.16,-12.01 L 5.18,-11.94 L 5.19,-11.86 L 5.20,-11.78 L 5.20,-10.11 L 5.62,-10.11 L 5.62,-11.60 Z" />
    <path class="fBLACK sBLACK" style="stroke-width:0.04" d="M 8.27,-10.16 L 8.27,-12.59 L 7.86,-12.59 L 7.86,-12.31 L 7.80,-12.39 L 7.73,-12.46 L 7.65,-12.53 L 7.57,-12.58 L 7.52,-12.60 L 7.46,-12.63 L 7.41,-12.64 L 7.35,-12.66 L 7.29,-12.67 L 7.24,-12.67 L 7.18,-12.67 L 7.12,-12.67 L 7.05,-12.67 L 6.98,-12.66 L 6.91,-12.65 L 6.84,-12.63 L 6.78,-12.60 L 6.71,-12.58 L 6.65,-12.54 L 6.59,-12.50 L 6.53,-12.45 L 6.46,-12.39 L 6.41,-12.32 L 6.35,-12.25 L 6.31,-12.18 L 6.26,-12.10 L 6.23,-12.03 L 6.20,-11.94 L 6.18,-11.87 L 6.16,-11.80 L 6.14,-11.73 L 6.13,-11.65 L 6.12,-11.58 L 6.11,-11.51 L 6.11,-11.43 L 6.11,-11.36 L 6.11,-11.28 L 6.54,-11.31 L 6.55,-11.39 L 6.55,-11.46 L 6.55,-11.52 L 6.56,-11.59 L 6.57,-11.66 L 6.58,-11.72 L 6.60,-11.79 L 6.62,-11.86 L 6.65,-11.92 L 6.67,-11.97 L 6.69,-12.01 L 6.72,-12.05 L 6.75,-12.09 L 6.79,-12.13 L 6.83,-12.17 L 6.87,-12.20 L 6.91,-12.23 L 6.98,-12.26 L 7.05,-12.28 L 7.13,-12.29 L 7.20,-12.30 L 7.28,-12.29 L 7.35,-12.28 L 7.43,-12.26 L 7.50,-12.24 L 7.54,-12.21 L 7.59,-12.18 L 7.63,-12.14 L 7.67,-12.10 L 7.70,-12.06 L 7.73,-12.02 L 7.76,-11.97 L 7.78,-11.92 L 7.81,-11.84 L 7.84,-11.75 L 7.86,-11.67 L 7.87,-11.58 L 7.88,-11.47 L 7.88,-11.35 L 8.27,-10.16 Z" />
    <path class="fBLACK sBLACK" style="stroke-width:0.04" d="M 7.88,-11.25 L 7.87,-11.15 L 7.86,-11.04 L 7.84,-10.94 L 7.82,-10.86 L 7.79,-10.78 L 7.75,-10.70 L 7.71,-10.63 L 7.66,-10.57 L 7.61,-10.53 L 7.56,-10.49 L 7.50,-10.45 L 7.43,-10.43 L 7.37,-10.41 L 7.30,-10.40 L 7.23,-10.40 L 7.15,-10.40 L 7.08,-10.41 L 7.00,-10.43 L 6.93,-10.46 L 6.88,-10.49 L 6.84,-10.53 L 6.80,-10.56 L 6.76,-10.61 L 6.72,-10.65 L 6.69,-10.70 L 6.66,-10.75 L 6.64,-10.80 L 6.62,-10.87 L 6.59,-10.94 L 6.58,-11.01 L 6.56,-11.09 L 6.55,-11.16 L 6.55,-11.24 L 6.54,-11.31 L 6.11,-11.28 L 6.11,-11.21 L 6.12,-11.13 L 6.13,-11.05 L 6.14,-10.96 L 6.17,-10.86 L 6.19,-10.77 L 6.23,-10.68 L 6.27,-10.60 L 6.32,-10.51 L 6.37,-10.43 L 6.43,-10.36 L 6.47,-10.32 L 6.50,-10.28 L 6.54,-10.25 L 6.58,-10.21 L 6.62,-10.18 L 6.66,-10.16 L 6.71,-10.13 L 6.76,-10.11 L 6.85,-10.07 L 6.95,-10.05 L 7.05,-10.03 L 7.15,-10.03 L 7.21,-10.03 L 7.26,-10.03 L 7.31,-10.04 L 7.36,-10.05 L 7.41,-10.06 L 7.46,-10.08 L 7.50,-10.10 L 7.55,-10.12 L 7.60,-10.14 L 7.64,-10.17 L 7.68,-10.19 L 7.72,-10.23 L 7.76,-10.26 L 7.80,-10.30 L 7.83,-10.33 L 7.86,-10.37 L 7.86,-10.07 L 8.27,-10.16 L 7.88,-11.35 L 7.88,-11.25 Z" />
    <path class="fBLACK sBLACK" style="stroke-width:0.04" d="M 7.86,-10.07 L 7.86,-9.95 L 7.86,-9.88 L 7.84,-9.81 L 7.82,-9.74 L 7.79,-9.68 L 7.77,-9.64 L 7.74,-9.61 L 7.71,-9.58 L 7.67,-9.55 L 7.63,-9.52 L 7.60,-9.50 L 7.55,-9.48 L 7.51,-9.47 L 7.43,-9.45 L 7.36,-9.43 L 7.28,-9.43 L 7.20,-9.42 L 7.10,-9.43 L 7.01,-9.44 L 6.95,-9.45 L 6.88,-9.46 L 6.82,-9.49 L 6.76,-9.51 L 6.73,-9.54 L 6.70,-9.57 L 6.67,-9.60 L 6.65,-9.64 L 6.63,-9.68 L 6.62,-9.73 L 6.61,-9.77 L 6.61,-9.82 L 6.20,-9.82 L 6.20,-9.73 L 6.21,-9.68 L 6.22,-9.63 L 6.23,-9.58 L 6.25,-9.54 L 6.27,-9.49 L 6.30,-9.45 L 6.32,-9.41 L 6.36,-9.37 L 6.40,-9.32 L 6.45,-9.28 L 6.50,-9.24 L 6.55,-9.21 L 6.60,-9.18 L 6.66,-9.15 L 6.72,-9.13 L 6.78,-9.11 L 6.89,-9.09 L 7.01,-9.08 L 7.13,-9.07 L 7.25,-9.07 L 7.37,-9.08 L 7.49,-9.09 L 7.61,-9.12 L 7.72,-9.15 L 7.77,-9.17 L 7.82,-9.20 L 7.87,-9.22 L 7.92,-9.25 L 7.96,-9.29 L 8.00,-9.33 L 8.04,-9.36 L 8.08,-9.41 L 8.11,-9.45 L 8.14,-9.50 L 8.17,-9.55 L 8.19,-9.60 L 8.21,-9.65 L 8.23,-9.70 L 8.24,-9.75 L 8.25,-9.81 L 8.27,-9.99 L 8.27,-10.16 L 7.86,-10.07 Z" />
    <path class="fORRED sORRED" style="stroke-width:0.04" d="M -0.21,-5.40 L 1.26,-5.40 L 1.13,-4.02 L -0.34,-4.02 L -0.21,-5.40 Z" />
    <path class="fORRED sORRED" style="stroke-width:0.04" d="M -0.48,-2.69 L 0.99,-2.69 L 0.86,-1.31 L -0.61,-1.31 L -0.48,-2.69 Z" />
    <path class="f0 sBLACK" style="stroke-width:0.12" d="M -0.21,-5.40 L 1.26,-5.40 L 0.74,0.00 L -0.74,0.00 L -0.21,-5.40 Z" />
    <circle class="pivotPoint layout" fill="none" cx="0" cy="0" r="0.2" />
  </g>
</svg>