<?xml version="1.0" encoding="UTF-8"?>
<?xml-stylesheet type='text/css' href='S401Style.css'?>
<svg version="1.2" baseProfile="tiny" style="shape-rendering:geometricPrecision; fill-rule:evenodd;" width="14.84mm" height="15.55mm" viewBox="-7.04 -12.74 14.86 15.57" xmlns="http://www.w3.org/2000/svg">
  <title>BOYLAT27F</title>
  <desc>river buoy, obstruction at the left side - off position - text area -d</desc>
  <metadata />
  <g>
    <path class="fWHITE sWHITE" style="stroke-width:0.04" d="M -0.74,0.00 L 0.74,0.00 L 1.26,-5.40 L -0.21,-5.40 L -0.74,0.00 Z" />
    <path class="f0 sFFD700" style="stroke-width:0.08" d="M -1.79,-0.43 L -2.49,-1.44 " />
    <path class="f0 sBLACK" style="stroke-width:0.24" d="M -3.61,-2.76 L 0.30,-8.33 L 4.20,-2.76 L 0.30,2.81 L -3.61,-2.76 Z" />
    <path class="f0 sBLACK" style="stroke-width:0.24" d="M -3.37,-2.76 L 0.30,-7.98 L 3.96,-2.76 L 0.30,2.47 L -3.37,-2.76 Z" />
    <path class="fBLACK sBLACK" style="stroke-width:0.04" d="M -5.69,-10.08 L -5.77,-10.09 L -5.84,-10.09 L -5.92,-10.11 L -5.99,-10.13 L -6.06,-10.16 L -6.13,-10.19 L -6.20,-10.23 L -6.26,-10.27 L -6.30,-10.30 L -6.33,-10.34 L -6.37,-10.37 L -6.40,-10.41 L -6.43,-10.45 L -6.45,-10.49 L -6.48,-10.54 L -6.50,-10.58 L -6.53,-10.66 L -6.56,-10.74 L -6.58,-10.82 L -6.60,-10.90 L -6.62,-10.99 L -6.63,-11.07 L -6.63,-11.16 L -6.63,-11.24 L -6.63,-11.33 L -7.03,-11.34 L -7.03,-11.24 L -7.03,-11.15 L -7.02,-11.06 L -7.02,-10.97 L -7.00,-10.87 L -6.99,-10.80 L -6.98,-10.74 L -6.96,-10.67 L -6.94,-10.60 L -6.91,-10.54 L -6.89,-10.47 L -6.86,-10.41 L -6.82,-10.35 L -6.79,-10.29 L -6.75,-10.24 L -6.70,-10.18 L -6.66,-10.13 L -6.61,-10.08 L -6.55,-10.04 L -6.50,-10.00 L -6.44,-9.96 L -6.38,-9.92 L -6.32,-9.89 L -6.26,-9.86 L -6.20,-9.83 L -6.13,-9.81 L -6.07,-9.80 L -6.01,-9.78 L -5.95,-9.77 L -5.88,-9.76 L -5.82,-9.76 L -5.76,-9.76 L -5.69,-9.75 L -5.69,-10.08 Z" />
    <path class="fBLACK sBLACK" style="stroke-width:0.04" d="M -5.69,-9.75 L -5.62,-9.76 L -5.55,-9.76 L -5.48,-9.77 L -5.41,-9.77 L -5.32,-9.79 L -5.23,-9.82 L -5.14,-9.85 L -5.05,-9.89 L -4.97,-9.94 L -4.89,-9.99 L -4.82,-10.05 L -4.74,-10.12 L -4.68,-10.20 L -4.61,-10.28 L -4.55,-10.37 L -4.50,-10.47 L -4.46,-10.56 L -4.43,-10.67 L -4.40,-10.77 L -4.38,-10.87 L -4.37,-10.97 L -4.36,-11.06 L -4.36,-11.15 L -4.75,-11.16 L -4.76,-11.07 L -4.77,-10.99 L -4.78,-10.90 L -4.80,-10.82 L -4.82,-10.74 L -4.85,-10.66 L -4.88,-10.58 L -4.91,-10.53 L -4.93,-10.49 L -4.96,-10.45 L -4.99,-10.41 L -5.02,-10.37 L -5.05,-10.34 L -5.09,-10.30 L -5.13,-10.27 L -5.17,-10.24 L -5.21,-10.22 L -5.25,-10.19 L -5.29,-10.17 L -5.34,-10.15 L -5.39,-10.13 L -5.43,-10.12 L -5.48,-10.11 L -5.53,-10.10 L -5.59,-10.09 L -5.64,-10.09 L -5.69,-10.08 L -5.69,-9.75 Z" />
    <path class="fBLACK sBLACK" style="stroke-width:0.04" d="M -5.69,-12.40 L -5.62,-12.40 L -5.54,-12.39 L -5.46,-12.37 L -5.39,-12.35 L -5.32,-12.33 L -5.25,-12.29 L -5.18,-12.25 L -5.12,-12.21 L -5.09,-12.18 L -5.05,-12.15 L -5.02,-12.11 L -4.99,-12.07 L -4.96,-12.03 L -4.93,-11.99 L -4.90,-11.95 L -4.88,-11.91 L -4.85,-11.83 L -4.82,-11.75 L -4.80,-11.67 L -4.78,-11.58 L -4.77,-11.50 L -4.76,-11.41 L -4.75,-11.33 L -4.75,-11.24 L -4.75,-11.16 L -4.36,-11.15 L -4.36,-11.24 L -4.36,-11.34 L -4.36,-11.43 L -4.37,-11.52 L -4.38,-11.61 L -4.40,-11.68 L -4.41,-11.75 L -4.43,-11.82 L -4.45,-11.89 L -4.48,-11.96 L -4.51,-12.02 L -4.54,-12.09 L -4.57,-12.15 L -4.63,-12.23 L -4.69,-12.31 L -4.76,-12.39 L -4.84,-12.45 L -4.92,-12.51 L -5.01,-12.57 L -5.10,-12.61 L -5.19,-12.65 L -5.25,-12.67 L -5.31,-12.69 L -5.37,-12.70 L -5.44,-12.71 L -5.50,-12.72 L -5.56,-12.73 L -5.63,-12.73 L -5.69,-12.73 L -5.69,-12.40 Z" />
    <path class="fBLACK sBLACK" style="stroke-width:0.04" d="M -5.69,-12.73 L -5.76,-12.73 L -5.83,-12.73 L -5.91,-12.72 L -5.98,-12.71 L -6.07,-12.69 L -6.16,-12.67 L -6.25,-12.63 L -6.34,-12.59 L -6.42,-12.55 L -6.50,-12.49 L -6.57,-12.43 L -6.64,-12.37 L -6.71,-12.29 L -6.77,-12.20 L -6.83,-12.11 L -6.88,-12.02 L -6.92,-11.92 L -6.96,-11.82 L -6.99,-11.72 L -7.00,-11.61 L -7.02,-11.52 L -7.02,-11.43 L -7.03,-11.34 L -6.63,-11.33 L -6.63,-11.41 L -6.62,-11.50 L -6.60,-11.58 L -6.59,-11.67 L -6.56,-11.75 L -6.53,-11.83 L -6.50,-11.91 L -6.48,-11.95 L -6.46,-11.99 L -6.43,-12.03 L -6.40,-12.07 L -6.37,-12.11 L -6.33,-12.15 L -6.30,-12.18 L -6.26,-12.21 L -6.22,-12.24 L -6.18,-12.27 L -6.14,-12.29 L -6.09,-12.32 L -6.05,-12.34 L -6.00,-12.35 L -5.96,-12.37 L -5.91,-12.38 L -5.85,-12.39 L -5.80,-12.39 L -5.75,-12.40 L -5.69,-12.40 L -5.69,-12.73 Z" />
    <path class="fBLACK sBLACK" style="stroke-width:0.04" d="M -3.05,-12.68 L -3.13,-12.69 L -3.21,-12.70 L -3.29,-12.70 L -3.36,-12.70 L -3.42,-12.69 L -3.48,-12.68 L -3.53,-12.67 L -3.58,-12.64 L -3.63,-12.62 L -3.67,-12.58 L -3.70,-12.55 L -3.73,-12.50 L -3.75,-12.47 L -3.76,-12.43 L -3.77,-12.39 L -3.79,-12.35 L -3.79,-12.31 L -3.80,-12.27 L -3.80,-12.23 L -3.80,-12.19 L -3.80,-11.89 L -4.16,-11.89 L -4.16,-11.61 L -3.80,-11.61 L -3.80,-9.83 L -3.45,-9.83 L -3.45,-11.61 L -3.05,-11.61 L -3.05,-11.89 L -3.45,-11.89 L -3.45,-12.06 L -3.45,-12.11 L -3.45,-12.15 L -3.44,-12.20 L -3.43,-12.25 L -3.42,-12.27 L -3.41,-12.29 L -3.39,-12.31 L -3.37,-12.33 L -3.33,-12.35 L -3.29,-12.37 L -3.24,-12.38 L -3.20,-12.38 L -3.09,-12.37 L -3.05,-12.37 L -3.05,-12.68 Z" />
    <path class="fBLACK sBLACK" style="stroke-width:0.04" d="M -1.96,-12.68 L -2.04,-12.69 L -2.12,-12.70 L -2.19,-12.70 L -2.27,-12.70 L -2.33,-12.69 L -2.38,-12.68 L -2.44,-12.67 L -2.49,-12.64 L -2.54,-12.62 L -2.57,-12.58 L -2.61,-12.55 L -2.64,-12.50 L -2.65,-12.47 L -2.67,-12.43 L -2.68,-12.39 L -2.69,-12.35 L -2.70,-12.31 L -2.71,-12.27 L -2.71,-12.23 L -2.71,-12.19 L -2.71,-11.89 L -3.07,-11.89 L -3.07,-11.61 L -2.71,-11.61 L -2.71,-9.83 L -2.36,-9.83 L -2.36,-11.61 L -1.96,-11.61 L -1.96,-11.89 L -2.36,-11.89 L -2.36,-12.06 L -2.36,-12.11 L -2.36,-12.15 L -2.35,-12.20 L -2.34,-12.25 L -2.33,-12.27 L -2.32,-12.29 L -2.30,-12.31 L -2.28,-12.33 L -2.24,-12.35 L -2.20,-12.37 L -2.15,-12.38 L -2.11,-12.38 L -2.00,-12.37 L -1.96,-12.37 L -1.96,-12.68 Z" />
    <path class="fBLACK sBLACK" style="stroke-width:0.04" d="M 1.18,-11.84 L 1.18,-11.78 L 1.17,-11.72 L 1.16,-11.67 L 1.14,-11.62 L 1.12,-11.58 L 1.10,-11.54 L 1.07,-11.51 L 1.04,-11.48 L 1.01,-11.46 L 0.98,-11.43 L 0.94,-11.42 L 0.90,-11.40 L 0.85,-11.39 L 0.80,-11.37 L 0.75,-11.37 L 0.70,-11.37 L 0.53,-11.36 L -0.18,-11.36 L -0.18,-11.02 L 0.46,-11.02 L 0.57,-11.02 L 0.69,-11.03 L 0.80,-11.03 L 0.92,-11.04 L 0.97,-11.05 L 1.01,-11.06 L 1.06,-11.08 L 1.11,-11.10 L 1.15,-11.12 L 1.20,-11.14 L 1.24,-11.17 L 1.28,-11.20 L 1.32,-11.23 L 1.35,-11.26 L 1.39,-11.30 L 1.42,-11.34 L 1.45,-11.38 L 1.47,-11.42 L 1.49,-11.47 L 1.52,-11.51 L 1.54,-11.59 L 1.56,-11.68 L 1.57,-11.76 L 1.57,-11.84 L 1.18,-11.84 Z" />
    <path class="fBLACK sBLACK" style="stroke-width:0.04" d="M 1.57,-11.84 L 1.57,-11.93 L 1.55,-12.02 L 1.54,-12.09 L 1.52,-12.15 L 1.50,-12.20 L 1.48,-12.26 L 1.44,-12.31 L 1.41,-12.36 L 1.37,-12.41 L 1.33,-12.46 L 1.28,-12.49 L 1.23,-12.53 L 1.18,-12.56 L 1.13,-12.58 L 1.07,-12.60 L 1.01,-12.62 L 0.96,-12.63 L 0.90,-12.64 L 0.78,-12.65 L 0.66,-12.66 L 0.55,-12.66 L 0.43,-12.66 L -0.56,-12.66 L -0.56,-9.83 L -0.18,-9.83 L -0.18,-11.02 L -0.18,-11.36 L -0.18,-12.31 L 0.55,-12.31 L 0.67,-12.31 L 0.79,-12.30 L 0.84,-12.29 L 0.89,-12.28 L 0.94,-12.25 L 0.99,-12.23 L 1.02,-12.21 L 1.05,-12.18 L 1.08,-12.15 L 1.10,-12.12 L 1.13,-12.08 L 1.14,-12.05 L 1.16,-12.01 L 1.16,-11.97 L 1.17,-11.90 L 1.18,-11.84 L 1.57,-11.84 Z" />
    <path class="fBLACK sBLACK" style="stroke-width:0.04" d="M 3.41,-10.80 L 3.41,-10.74 L 3.40,-10.68 L 3.40,-10.62 L 3.38,-10.57 L 3.37,-10.51 L 3.35,-10.45 L 3.33,-10.39 L 3.31,-10.36 L 3.29,-10.32 L 3.27,-10.29 L 3.25,-10.26 L 3.22,-10.23 L 3.19,-10.20 L 3.16,-10.18 L 3.13,-10.16 L 3.09,-10.14 L 3.06,-10.12 L 3.02,-10.10 L 2.98,-10.09 L 2.94,-10.08 L 2.91,-10.08 L 2.87,-10.08 L 2.83,-10.08 L 2.79,-10.08 L 2.75,-10.08 L 2.71,-10.08 L 2.67,-10.09 L 2.63,-10.10 L 2.59,-10.12 L 2.56,-10.14 L 2.52,-10.16 L 2.49,-10.18 L 2.46,-10.20 L 2.43,-10.23 L 2.40,-10.26 L 2.37,-10.29 L 2.35,-10.33 L 2.33,-10.36 L 2.32,-10.40 L 2.29,-10.45 L 2.28,-10.51 L 2.26,-10.57 L 2.25,-10.63 L 2.24,-10.68 L 2.24,-10.74 L 1.88,-10.74 L 1.89,-10.61 L 1.91,-10.52 L 1.93,-10.43 L 1.96,-10.33 L 2.00,-10.25 L 2.04,-10.18 L 2.08,-10.12 L 2.13,-10.06 L 2.18,-10.00 L 2.24,-9.95 L 2.30,-9.91 L 2.36,-9.87 L 2.43,-9.84 L 2.48,-9.82 L 2.52,-9.81 L 2.57,-9.79 L 2.62,-9.78 L 2.67,-9.78 L 2.72,-9.77 L 2.77,-9.77 L 2.82,-9.77 L 2.88,-9.77 L 2.93,-9.77 L 2.99,-9.78 L 3.05,-9.79 L 3.09,-9.80 L 3.14,-9.81 L 3.18,-9.83 L 3.23,-9.84 L 3.27,-9.86 L 3.31,-9.89 L 3.35,-9.91 L 3.39,-9.94 L 3.45,-9.99 L 3.50,-10.04 L 3.55,-10.10 L 3.59,-10.16 L 3.63,-10.23 L 3.67,-10.29 L 3.69,-10.36 L 3.71,-10.44 L 3.74,-10.54 L 3.75,-10.65 L 3.76,-10.75 L 3.41,-10.80 Z" />
    <path class="fBLACK sBLACK" style="stroke-width:0.04" d="M 2.82,-11.95 L 2.77,-11.95 L 2.72,-11.95 L 2.67,-11.94 L 2.62,-11.94 L 2.57,-11.93 L 2.52,-11.91 L 2.48,-11.90 L 2.43,-11.88 L 2.38,-11.86 L 2.34,-11.84 L 2.30,-11.81 L 2.26,-11.78 L 2.22,-11.75 L 2.18,-11.71 L 2.14,-11.68 L 2.11,-11.64 L 2.08,-11.60 L 2.05,-11.56 L 2.02,-11.52 L 2.00,-11.47 L 1.98,-11.43 L 1.96,-11.38 L 1.94,-11.33 L 1.93,-11.28 L 1.90,-11.18 L 1.89,-11.07 L 1.88,-10.97 L 1.88,-10.86 L 1.88,-10.74 L 2.24,-10.74 L 2.23,-10.80 L 2.23,-10.86 L 2.23,-10.92 L 2.24,-10.98 L 2.24,-11.04 L 2.25,-11.10 L 2.26,-11.16 L 2.28,-11.21 L 2.29,-11.27 L 2.32,-11.33 L 2.33,-11.36 L 2.35,-11.40 L 2.38,-11.43 L 2.40,-11.46 L 2.43,-11.49 L 2.46,-11.52 L 2.49,-11.54 L 2.52,-11.57 L 2.56,-11.58 L 2.59,-11.60 L 2.63,-11.62 L 2.67,-11.63 L 2.71,-11.64 L 2.75,-11.64 L 2.79,-11.64 L 2.83,-11.64 L 2.82,-11.95 Z" />
    <path class="fBLACK sBLACK" style="stroke-width:0.04" d="M 2.83,-11.64 L 2.87,-11.64 L 2.91,-11.64 L 2.94,-11.63 L 2.98,-11.63 L 3.02,-11.61 L 3.06,-11.60 L 3.09,-11.58 L 3.13,-11.56 L 3.16,-11.54 L 3.19,-11.52 L 3.22,-11.49 L 3.25,-11.46 L 3.27,-11.43 L 3.29,-11.40 L 3.31,-11.36 L 3.33,-11.33 L 3.35,-11.27 L 3.37,-11.21 L 3.38,-11.16 L 3.39,-11.10 L 3.40,-11.04 L 3.41,-10.98 L 3.41,-10.92 L 3.41,-10.86 L 3.41,-10.80 L 3.76,-10.75 L 3.76,-10.86 L 3.76,-10.98 L 3.75,-11.10 L 3.74,-11.20 L 3.71,-11.29 L 3.68,-11.39 L 3.64,-11.47 L 3.60,-11.54 L 3.56,-11.60 L 3.52,-11.66 L 3.46,-11.72 L 3.41,-11.77 L 3.35,-11.81 L 3.28,-11.85 L 3.22,-11.88 L 3.17,-11.90 L 3.12,-11.92 L 3.07,-11.93 L 3.02,-11.94 L 2.97,-11.94 L 2.92,-11.95 L 2.87,-11.95 L 2.82,-11.95 L 2.83,-11.64 Z" />
    <path class="fBLACK sBLACK" style="stroke-width:0.04" d="M 4.52,-11.21 L 4.50,-11.22 L 4.48,-11.24 L 4.46,-11.26 L 4.45,-11.29 L 4.45,-11.31 L 4.44,-11.34 L 4.44,-11.37 L 4.44,-11.40 L 4.45,-11.43 L 4.46,-11.46 L 4.47,-11.49 L 4.49,-11.52 L 4.51,-11.55 L 4.53,-11.57 L 4.56,-11.59 L 4.60,-11.61 L 4.63,-11.62 L 4.67,-11.63 L 4.70,-11.64 L 4.74,-11.65 L 4.77,-11.65 L 4.81,-11.66 L 4.85,-11.66 L 4.92,-11.65 L 5.00,-11.64 L 5.07,-11.63 L 5.14,-11.60 L 5.17,-11.59 L 5.20,-11.57 L 5.22,-11.55 L 5.25,-11.53 L 5.27,-11.50 L 5.29,-11.48 L 5.30,-11.45 L 5.32,-11.42 L 5.33,-11.37 L 5.34,-11.31 L 5.68,-11.31 L 5.68,-11.37 L 5.67,-11.42 L 5.66,-11.47 L 5.65,-11.52 L 5.62,-11.58 L 5.59,-11.63 L 5.56,-11.68 L 5.52,-11.73 L 5.47,-11.77 L 5.42,-11.80 L 5.37,-11.83 L 5.32,-11.86 L 5.26,-11.88 L 5.21,-11.90 L 5.16,-11.92 L 5.10,-11.93 L 5.04,-11.94 L 4.99,-11.95 L 4.93,-11.95 L 4.87,-11.95 L 4.81,-11.95 L 4.76,-11.95 L 4.70,-11.94 L 4.64,-11.93 L 4.58,-11.92 L 4.53,-11.90 L 4.47,-11.88 L 4.42,-11.86 L 4.38,-11.84 L 4.35,-11.82 L 4.32,-11.80 L 4.29,-11.77 L 4.26,-11.75 L 4.23,-11.72 L 4.21,-11.69 L 4.18,-11.66 L 4.16,-11.62 L 4.14,-11.59 L 4.13,-11.55 L 4.12,-11.51 L 4.11,-11.47 L 4.10,-11.44 L 4.10,-11.40 L 4.10,-11.36 L 4.10,-11.30 L 4.10,-11.24 L 4.11,-11.18 L 4.13,-11.13 L 4.15,-11.08 L 4.18,-11.04 L 4.21,-11.00 L 4.25,-10.96 L 4.29,-10.93 L 4.34,-10.90 L 4.52,-11.21 Z" />
    <path class="fBLACK sBLACK" style="stroke-width:0.04" d="M 4.88,-9.77 L 4.97,-9.77 L 5.06,-9.78 L 5.14,-9.79 L 5.22,-9.81 L 5.30,-9.84 L 5.38,-9.87 L 5.42,-9.89 L 5.46,-9.91 L 5.50,-9.94 L 5.53,-9.97 L 5.56,-10.00 L 5.59,-10.03 L 5.62,-10.07 L 5.65,-10.10 L 5.67,-10.14 L 5.69,-10.19 L 5.70,-10.23 L 5.72,-10.27 L 5.73,-10.31 L 5.73,-10.36 L 5.74,-10.40 L 5.74,-10.45 L 5.73,-10.52 L 5.72,-10.59 L 5.71,-10.64 L 5.70,-10.68 L 5.68,-10.72 L 5.66,-10.75 L 5.63,-10.79 L 5.60,-10.82 L 5.57,-10.85 L 5.54,-10.87 L 5.48,-10.91 L 5.43,-10.94 L 5.37,-10.96 L 5.31,-10.98 L 5.10,-11.03 L 4.77,-11.11 L 4.71,-11.13 L 4.65,-11.14 L 4.59,-11.17 L 4.54,-11.19 L 4.52,-11.21 L 4.34,-10.90 L 4.42,-10.86 L 4.51,-10.83 L 4.59,-10.80 L 4.68,-10.78 L 5.07,-10.68 L 5.20,-10.65 L 5.22,-10.64 L 5.25,-10.62 L 5.28,-10.61 L 5.31,-10.59 L 5.32,-10.58 L 5.34,-10.56 L 5.35,-10.54 L 5.37,-10.52 L 5.38,-10.49 L 5.38,-10.47 L 5.39,-10.45 L 5.39,-10.42 L 5.39,-10.38 L 5.38,-10.35 L 5.37,-10.31 L 5.36,-10.28 L 5.34,-10.25 L 5.32,-10.22 L 5.29,-10.19 L 5.26,-10.17 L 5.23,-10.15 L 5.20,-10.13 L 5.13,-10.10 L 5.05,-10.09 L 4.98,-10.08 L 4.90,-10.08 L 4.88,-9.77 Z" />
    <path class="fBLACK sBLACK" style="stroke-width:0.04" d="M 4.90,-10.08 L 4.85,-10.08 L 4.79,-10.08 L 4.74,-10.09 L 4.69,-10.10 L 4.64,-10.11 L 4.60,-10.13 L 4.55,-10.16 L 4.52,-10.19 L 4.48,-10.23 L 4.45,-10.26 L 4.43,-10.31 L 4.41,-10.35 L 4.39,-10.43 L 4.37,-10.50 L 4.04,-10.50 L 4.04,-10.45 L 4.04,-10.41 L 4.05,-10.36 L 4.05,-10.32 L 4.07,-10.27 L 4.08,-10.23 L 4.10,-10.19 L 4.11,-10.15 L 4.15,-10.09 L 4.19,-10.03 L 4.24,-9.98 L 4.29,-9.93 L 4.34,-9.89 L 4.40,-9.86 L 4.47,-9.83 L 4.53,-9.81 L 4.62,-9.79 L 4.70,-9.78 L 4.79,-9.77 L 4.88,-9.77 L 4.90,-10.08 Z" />
    <path class="fBLACK sBLACK" style="stroke-width:0.04" d="M 7.81,-11.07 L 7.81,-11.16 L 7.81,-11.26 L 7.81,-11.36 L 7.80,-11.46 L 7.79,-11.51 L 7.77,-11.56 L 7.75,-11.61 L 7.73,-11.66 L 7.70,-11.70 L 7.66,-11.74 L 7.63,-11.77 L 7.59,-11.81 L 7.55,-11.83 L 7.50,-11.86 L 7.46,-11.88 L 7.41,-11.90 L 7.33,-11.91 L 7.26,-11.93 L 7.18,-11.93 L 7.10,-11.93 L 7.03,-11.93 L 6.95,-11.92 L 6.88,-11.91 L 6.81,-11.88 L 6.76,-11.86 L 6.71,-11.83 L 6.66,-11.80 L 6.62,-11.77 L 6.57,-11.73 L 6.54,-11.69 L 6.50,-11.65 L 6.47,-11.60 L 6.47,-11.89 L 6.14,-11.89 L 6.14,-9.83 L 6.48,-9.83 L 6.48,-11.00 L 6.49,-11.08 L 6.49,-11.15 L 6.50,-11.20 L 6.51,-11.25 L 6.53,-11.31 L 6.55,-11.35 L 6.58,-11.40 L 6.61,-11.44 L 6.65,-11.48 L 6.69,-11.52 L 6.73,-11.54 L 6.78,-11.57 L 6.82,-11.59 L 6.87,-11.60 L 6.92,-11.62 L 6.97,-11.63 L 7.02,-11.63 L 7.07,-11.63 L 7.10,-11.63 L 7.14,-11.63 L 7.17,-11.62 L 7.21,-11.62 L 7.24,-11.61 L 7.27,-11.59 L 7.29,-11.58 L 7.32,-11.56 L 7.35,-11.54 L 7.37,-11.52 L 7.39,-11.49 L 7.41,-11.47 L 7.43,-11.41 L 7.45,-11.34 L 7.46,-11.28 L 7.46,-11.22 L 7.46,-9.83 L 7.81,-9.83 L 7.81,-11.07 Z" />
    <path class="fMIDGN sMIDGN" style="stroke-width:0.04" d="M -0.21,-5.40 L 1.26,-5.40 L 1.13,-4.02 L -0.34,-4.02 L -0.21,-5.40 Z" />
    <path class="fMIDGN sMIDGN" style="stroke-width:0.04" d="M -0.48,-2.69 L 0.99,-2.69 L 0.86,-1.31 L -0.61,-1.31 L -0.48,-2.69 Z" />
    <path class="f0 sBLACK" style="stroke-width:0.12" d="M -0.21,-5.40 L 1.26,-5.40 L 0.74,0.00 L -0.74,0.00 L -0.21,-5.40 Z" />
    <circle class="pivotPoint layout" fill="none" cx="0" cy="0" r="0.2" />
  </g>
</svg>