<?xml version="1.0" encoding="utf-8"?>
<?xml-stylesheet type='text/css' href='S401Style.css'?>
<svg version="1.2" baseProfile="tiny" style="shape-rendering:geometricPrecision; fill-rule:evenodd;" width="3.90mm" height="3.29mm" viewBox="-1.96 -3.30 3.92 3.31" xmlns="http://www.w3.org/2000/svg">
  <title>BOYSFW01R</title>
  <desc>Buoy safe water round</desc>
  <metadata>
    <iho:S100SVG xmlns:iho="http://www.iho.int/SVGMetadata">
      <iho:Description iho:publisher="IEHG" iho:creationDate="2018-04-18" iho:source="" iho:format="IENC signs, Europe, SVG" iho:version="0.1" />
    </iho:S100SVG>
  </metadata>
  <g>
    <path class="fWHITE sWHITE" style="stroke-width:0.12" d="M 1.31,-0.91 L 1.37,-1.01 L 1.42,-1.11 L 1.46,-1.21 L 1.49,-1.32 L 1.52,-1.42 L 1.54,-1.53 L 1.55,-1.64 L 1.55,-1.76 L 1.55,-1.87 L 1.53,-1.98 L 1.51,-2.09 L 1.48,-2.19 L 1.44,-2.30 L 1.40,-2.40 L 1.35,-2.50 L 1.29,-2.60 L 1.23,-2.69 L 1.15,-2.77 L 1.08,-2.85 L 0.99,-2.93 L 0.91,-2.99 L 0.81,-3.06 L 0.72,-3.11 L 0.62,-3.16 L 0.51,-3.20 L 0.41,-3.23 L 0.30,-3.26 L 0.19,-3.28 L 0.08,-3.29 L -0.03,-3.29 L -0.15,-3.28 L -0.26,-3.27 L -0.36,-3.24 L -0.47,-3.21 L -0.58,-3.18 L -0.68,-3.13 L -0.78,-3.08 L -0.87,-3.02 L -0.96,-2.95 L -1.05,-2.88 L -1.13,-2.80 L -1.20,-2.72 L -1.27,-2.63 L -1.33,-2.54 L -1.38,-2.44 L -1.43,-2.34 L -1.47,-2.24 L -1.50,-2.13 L -1.52,-2.02 L -1.54,-1.91 L -1.55,-1.80 L -1.55,-1.69 L -1.54,-1.58 L -1.53,-1.47 L -1.50,-1.36 L -1.47,-1.25 L -1.43,-1.15 L -1.39,-1.05 L -1.33,-0.95 L -1.31,-0.91 L -1.95,-0.50 L -1.95,0.00 L 1.95,0.00 L 1.95,-0.50 L 1.31,-0.91 Z" />
    <path class="fMIDRD sMIDRD" style="stroke-width:0.12" d="M -1.31,-0.91 L -1.37,-1.01 L -1.42,-1.11 L -1.46,-1.21 L -1.49,-1.32 L -1.52,-1.42 L -1.54,-1.53 L -1.55,-1.64 L -1.55,-1.76 L -1.55,-1.87 L -1.53,-1.98 L -1.51,-2.09 L -1.48,-2.19 L -1.45,-2.30 L -1.40,-2.40 L -1.35,-2.50 L -1.29,-2.60 L -1.23,-2.69 L -1.16,-2.77 L -1.08,-2.85 L -1.00,-2.93 L -0.91,-2.99 L -0.82,-3.06 L -0.72,-3.11 L -0.62,-3.16 L -0.51,-3.20 L -0.41,-3.23 L -0.30,-3.26 L -0.19,-3.28 L -0.08,-3.29 L 0.00,-3.29 L -0.10,-3.21 L -0.20,-3.14 L -0.30,-3.05 L -0.39,-2.96 L -0.47,-2.86 L -0.55,-2.76 L -0.62,-2.66 L -0.68,-2.55 L -0.74,-2.43 L -0.78,-2.32 L -0.83,-2.20 L -0.86,-2.07 L -0.89,-1.95 L -0.90,-1.82 L -0.91,-1.70 L -0.92,-1.57 L -0.91,-1.44 L -0.90,-1.32 L -0.88,-1.19 L -0.85,-1.07 L -0.81,-0.95 L -0.76,-0.83 L -0.72,-0.74 L -1.13,0.00 L -1.95,0.00 L -1.95,-0.50 L -1.31,-0.91 Z" />
    <path class="fMIDRD sMIDRD" style="stroke-width:0.12" d="M 1.31,-0.91 L 1.37,-1.01 L 1.42,-1.11 L 1.46,-1.21 L 1.49,-1.32 L 1.52,-1.42 L 1.54,-1.53 L 1.55,-1.64 L 1.55,-1.76 L 1.55,-1.87 L 1.53,-1.98 L 1.51,-2.09 L 1.48,-2.19 L 1.45,-2.30 L 1.40,-2.40 L 1.35,-2.50 L 1.29,-2.60 L 1.23,-2.69 L 1.16,-2.77 L 1.08,-2.85 L 1.00,-2.93 L 0.91,-2.99 L 0.82,-3.06 L 0.72,-3.11 L 0.62,-3.16 L 0.51,-3.20 L 0.41,-3.23 L 0.30,-3.26 L 0.19,-3.28 L 0.08,-3.29 L 0.00,-3.29 L 0.10,-3.21 L 0.20,-3.14 L 0.30,-3.05 L 0.39,-2.96 L 0.47,-2.86 L 0.55,-2.76 L 0.62,-2.66 L 0.68,-2.55 L 0.74,-2.43 L 0.78,-2.32 L 0.83,-2.20 L 0.86,-2.07 L 0.89,-1.95 L 0.90,-1.82 L 0.91,-1.70 L 0.92,-1.57 L 0.91,-1.44 L 0.90,-1.32 L 0.88,-1.19 L 0.85,-1.07 L 0.81,-0.95 L 0.76,-0.83 L 0.72,-0.74 L 1.13,0.00 L 1.95,0.00 L 1.95,-0.50 L 1.31,-0.91 Z" />
    <path class="f0 sBLACK" style="stroke-width:0.12" d="M 1.33,-0.95 L 1.39,-1.05 L 1.43,-1.15 L 1.47,-1.25 L 1.50,-1.36 L 1.53,-1.47 L 1.54,-1.58 L 1.55,-1.69 L 1.55,-1.80 L 1.54,-1.91 L 1.52,-2.02 L 1.50,-2.13 L 1.47,-2.24 L 1.43,-2.34 L 1.38,-2.44 L 1.33,-2.54 L 1.27,-2.63 L 1.20,-2.72 L 1.12,-2.80 L 1.05,-2.88 L 0.96,-2.95 L 0.87,-3.02 L 0.78,-3.08 L 0.68,-3.13 L 0.58,-3.18 L 0.47,-3.21 L 0.36,-3.24 L 0.25,-3.27 L 0.14,-3.28 L 0.03,-3.29 L -0.08,-3.29 L -0.19,-3.28 L -0.30,-3.26 L -0.41,-3.23 L -0.51,-3.20 L -0.62,-3.16 L -0.72,-3.11 L -0.81,-3.06 L -0.91,-2.99 L -1.00,-2.93 L -1.08,-2.85 L -1.16,-2.77 L -1.23,-2.69 L -1.29,-2.59 L -1.35,-2.50 L -1.40,-2.40 L -1.45,-2.30 L -1.48,-2.19 L -1.51,-2.09 L -1.53,-1.98 L -1.55,-1.87 L -1.55,-1.76 L -1.55,-1.64 L -1.54,-1.53 L -1.52,-1.42 L -1.49,-1.32 L -1.46,-1.21 L -1.42,-1.11 L -1.37,-1.01 L -1.31,-0.91 " />
    <path class="f0 sMIDRD" style="stroke-width:0.12" d="M 0.72,-0.74 L 1.13,0.00 " />
    <path class="f0 sMIDRD" style="stroke-width:0.12" d="M 0.00,-3.29 L 0.10,-3.21 L 0.20,-3.14 L 0.30,-3.05 L 0.39,-2.96 L 0.47,-2.86 L 0.55,-2.76 L 0.62,-2.66 L 0.68,-2.55 L 0.74,-2.43 L 0.78,-2.32 L 0.83,-2.20 L 0.86,-2.07 L 0.89,-1.95 L 0.90,-1.82 L 0.91,-1.70 L 0.92,-1.57 L 0.91,-1.44 L 0.90,-1.32 L 0.88,-1.19 L 0.85,-1.07 L 0.81,-0.95 L 0.76,-0.83 L 0.72,-0.74 " />
    <path class="f0 sBLACK" style="stroke-width:0.12" d="M -1.31,-0.91 L -1.37,-1.01 L -1.42,-1.11 L -1.46,-1.21 L -1.49,-1.32 L -1.52,-1.42 L -1.54,-1.53 L -1.55,-1.64 L -1.55,-1.76 L -1.55,-1.87 L -1.53,-1.98 L -1.51,-2.09 L -1.48,-2.19 L -1.44,-2.30 L -1.40,-2.40 L -1.35,-2.50 L -1.29,-2.60 L -1.23,-2.69 L -1.15,-2.77 L -1.08,-2.85 L -0.99,-2.93 L -0.91,-2.99 L -0.81,-3.06 L -0.72,-3.11 L -0.62,-3.16 L -0.51,-3.20 L -0.41,-3.23 L -0.30,-3.26 L -0.19,-3.28 L -0.08,-3.29 L 0.03,-3.29 L 0.15,-3.28 L 0.26,-3.27 L 0.36,-3.24 L 0.47,-3.21 L 0.58,-3.18 L 0.68,-3.13 L 0.78,-3.08 L 0.87,-3.02 L 0.96,-2.95 L 1.05,-2.88 L 1.13,-2.80 L 1.20,-2.72 L 1.27,-2.63 L 1.33,-2.54 L 1.38,-2.44 L 1.43,-2.34 L 1.47,-2.24 L 1.50,-2.13 L 1.52,-2.02 L 1.54,-1.91 L 1.55,-1.80 L 1.55,-1.69 L 1.54,-1.58 L 1.53,-1.47 L 1.50,-1.36 L 1.47,-1.25 L 1.43,-1.15 L 1.39,-1.05 L 1.33,-0.95 L 1.31,-0.91 " />
    <path class="f0 sBLACK" style="stroke-width:0.12" d="M -1.31,-0.91 L -1.95,-0.50 L -1.95,0.00 L 1.95,0.00 L 1.95,-0.50 L 1.31,-0.91 " />
    <circle class="pivotPoint layout" fill="none" cx="0" cy="0" r="0.2" />
  </g>
</svg>