<?xml version="1.0" encoding="utf-8"?>
<?xml-stylesheet type='text/css' href='S401Style.css'?>
<svg version="1.2" baseProfile="tiny" style="shape-rendering:geometricPrecision; fill-rule:evenodd;" width="4.10mm" height="4.59mm" viewBox="-2.06 -4.60 4.12 4.61" xmlns="http://www.w3.org/2000/svg">
  <title>BOYSFWB</title>
  <desc>Buoy safe water, beacon</desc>
  <metadata>
    <iho:S100SVG xmlns:iho="http://www.iho.int/SVGMetadata">
      <iho:Description iho:publisher="IEHG" iho:creationDate="2018-04-18" iho:source="" iho:format="IENC signs, Europe, SVG" iho:version="0.1" />
    </iho:S100SVG>
  </metadata>
  <g>
    <path class="fWHITE sWHITE" style="stroke-width:0.12" d="M 0.11,-1.04 L 0.75,-3.00 L 1.28,-3.00 L 1.10,-1.04 L 0.11,-1.04 Z" />
    <circle cx="1.01" cy="-4.05" r="0.55" class="fMIDRD sBLACK" style="stroke-width:0.12" />
    <path class="fMIDRD sBLACK" style="stroke-width:0.12" d="M 0.75,-3.00 L 0.11,-1.04 L -0.89,-1.04 L 0.21,-3.00 L 0.75,-3.00 Z" />
    <path class="f0 sBLACK" style="stroke-width:0.04" d="M -0.89,-1.04 L -1.19,-0.67 L -1.19,0.00 " />
    <path class="f0 sBLACK" style="stroke-width:0.04" d="M 1.10,-1.04 L 1.06,-0.65 L 1.06,0.00 " />
    <path class="f0 sBLACK" style="stroke-width:0.04" d="M 1.28,-3.00 L 1.10,-1.04 " />
    <path class="fMIDRD sBLACK" style="stroke-width:0.04" d="M -0.89,-1.04 L -1.19,-0.67 L -1.19,0.00 L -2.05,0.00 L -2.05,-0.65 L -0.89,-1.04 Z" />
    <path class="fWHITE sBLACK" style="stroke-width:0.12" d="M 0.11,-1.04 L -0.89,-1.04 L -1.19,-0.67 L -1.19,0.00 L -0.01,0.00 L -0.01,-0.65 L 0.11,-1.04 Z" />
    <path class="fWHITE sBLACK" style="stroke-width:0.12" d="M 1.10,-1.04 L 1.06,-0.65 L 1.06,0.00 L 2.05,0.00 L 2.05,-0.65 L 1.10,-1.04 Z" />
    <path class="fMIDRD sBLACK" style="stroke-width:0.12" d="M 1.10,-1.04 L 0.11,-1.04 L -0.01,-0.65 L -0.01,0.00 L 1.06,0.00 L 1.06,-0.65 L 1.10,-1.04 Z" />
    <path class="f0 sBLACK" style="stroke-width:0.12" d="M -2.05,0.00 L -2.05,-0.65 L -0.89,-1.04 L 0.21,-3.00 L 1.28,-3.00 L 1.10,-1.04 L 2.05,-0.65 L 2.05,0.00 L -2.05,0.00 Z" />
    <circle class="pivotPoint layout" fill="none" cx="0" cy="0" r="0.2" />
  </g>
</svg>