<?xml version="1.0" encoding="UTF-8"?>
<?xml-stylesheet type='text/css' href='S401Style.css'?>
<svg version="1.2" baseProfile="tiny" style="shape-rendering:geometricPrecision; fill-rule:evenodd;" width="7.00mm" height="7.00mm" viewBox="-3.51 -3.51 7.02 7.02" xmlns="http://www.w3.org/2000/svg">
  <title>BUNSTA04</title>
  <desc>Power supply</desc>
  <metadata />
  <g>
    <circle cx="0.00" cy="0.00" r="3.50" class="fLITGY sBLACK" style="stroke-width:0.12" />
    <path class="fBLACK sBLACK" style="stroke-width:0.04" d="M -2.56,-0.95 L -1.30,-0.95 L -1.30,-0.36 L -2.56,-0.36 L -2.56,-0.95 Z" />
    <path class="fBLACK sBLACK" style="stroke-width:0.04" d="M -2.56,0.36 L -1.30,0.36 L -1.30,0.95 L -2.56,0.95 L -2.56,0.36 Z" />
    <path class="fBLACK sBLACK" style="stroke-width:0.04" d="M -1.17,-1.44 L -0.07,-1.44 L -0.07,1.47 L -1.17,1.47 L -1.17,-1.44 Z" />
    <path class="fBLACK sBLACK" style="stroke-width:0.04" d="M 1.70,-0.38 L 2.78,-0.38 L 2.78,0.44 L 1.70,0.44 L 1.70,-0.38 Z" />
    <path class="fBLACK sBLACK" style="stroke-width:0.04" d="M 0.08,-1.19 L 0.08,1.18 L 0.44,1.13 L 0.76,1.09 L 1.36,1.10 L 1.46,1.05 L 1.54,0.92 L 1.54,-0.89 L 1.51,-0.97 L 1.45,-1.04 L 1.37,-1.08 L 0.69,-1.09 L 0.39,-1.14 L 0.08,-1.19 Z" />
    <circle class="pivotPoint layout" fill="none" cx="0" cy="0" r="0.2" />
  </g>
</svg>