<?xml version="1.0" encoding="utf-8"?>
<?xml-stylesheet type='text/css' href='S401Style.css'?>
<svg version="1.2" baseProfile="tiny" style="shape-rendering:geometricPrecision; fill-rule:evenodd;" width="2.97mm" height="3.59mm" viewBox="-1.33 -1.81 2.99 3.61" xmlns="http://www.w3.org/2000/svg">
  <title>BUNSTA01</title>
  <desc>bunker station, diesel oil station</desc>
  <metadata>
    <iho:S100SVG xmlns:iho="http://www.iho.int/SVGMetadata">
      <iho:Description iho:publisher="IEHG" iho:creationDate="2015-07-08" iho:source="" iho:format="IENC signs, Europe, SVG" iho:version="0.1" />
    </iho:S100SVG>
  </metadata>
  <g>
    <path class="fLITGY sBLACK" style="stroke-width:0.16" d="M 1.08,0.18 L 1.08,-0.27 L 1.31,-0.47 L 1.31,-1.80 L -1.32,-1.80 L -1.32,-0.47 L -1.09,-0.27 L -1.09,1.79 L 1.08,1.79 L 1.08,1.50 L 1.08,0.18 Z" />
    <path class="fBLACK sBLACK" style="stroke-width:0.16" d="M 1.57,-0.24 L 1.31,-0.47 L 1.08,-0.27 L 1.08,0.18 L 1.34,-0.04 L 1.57,-0.24 Z" />
    <path class="f0 sBLACK" style="stroke-width:0.16" d="M 1.08,1.50 L 1.40,1.50 L 1.65,1.25 L 1.65,0.24 L 1.34,-0.04 " />
    <path class="fLITGY sBLACK" style="stroke-width:0.16" d="M -0.84,-1.19 L -0.84,-0.84 L -0.71,-0.72 L 0.67,-0.72 L 0.80,-0.84 L 0.80,-1.19 L 0.67,-1.30 L -0.71,-1.30 L -0.84,-1.19 Z" />
    <circle class="pivotPoint layout" fill="none" cx="0" cy="0" r="0.2" />
  </g>
</svg>