<?xml version="1.0" encoding="utf-8"?>
<?xml-stylesheet type='text/css' href='S401Style.css'?>
<svg version="1.2" baseProfile="tiny" style="shape-rendering:geometricPrecision; fill-rule:evenodd;" width="3.70mm" height="3.10mm" viewBox="-1.87 -1.57 3.72 3.12" xmlns="http://www.w3.org/2000/svg">
  <title>BUNSTA03</title>
  <desc>bunker station, ballast</desc>
  <metadata>
    <iho:S100SVG xmlns:iho="http://www.iho.int/SVGMetadata">
      <iho:Description iho:publisher="IEHG" iho:creationDate="2015-07-10" iho:source="" iho:format="IENC signs, Europe, SVG" iho:version="0.1" />
    </iho:S100SVG>
  </metadata>
  <g>
    <path class="fLITGY sBLACK" style="stroke-width:0.04" d="M -1.86,1.54 L 0.54,1.54 L 1.84,0.26 L 1.84,-1.56 L -0.26,-1.56 L -1.86,-0.27 L -1.86,1.54 Z" />
    <path class="f0 sBLACK" style="stroke-width:0.12" d="M 0.54,1.54 L 0.54,-0.27 " />
    <path class="f0 sBLACK" style="stroke-width:0.12" d="M 0.54,-0.27 L -1.86,-0.27 " />
    <path class="f0 sBLACK" style="stroke-width:0.12" d="M -0.66,1.54 L -0.66,-0.27 " />
    <path class="f0 sBLACK" style="stroke-width:0.12" d="M 0.54,0.62 L 1.84,-0.65 " />
    <path class="f0 sBLACK" style="stroke-width:0.12" d="M 1.84,-1.56 L 0.54,-0.27 " />
    <path class="f0 sBLACK" style="stroke-width:0.12" d="M -0.67,-0.27 L 0.78,-1.56 " />
    <path class="f0 sBLACK" style="stroke-width:0.12" d="M -0.26,-1.56 L -1.86,-0.27 " />
    <path class="f0 sBLACK" style="stroke-width:0.12" d="M -0.26,-1.56 L 1.84,-1.56 " />
    <path class="f0 sBLACK" style="stroke-width:0.12" d="M 1.84,-1.56 L 1.84,0.26 " />
    <path class="f0 sBLACK" style="stroke-width:0.12" d="M 1.84,0.26 L 0.54,1.54 " />
    <path class="f0 sBLACK" style="stroke-width:0.12" d="M 0.54,1.54 L -1.86,1.54 " />
    <path class="f0 sBLACK" style="stroke-width:0.12" d="M -1.86,1.54 L -1.86,-0.27 " />
    <path class="f0 sBLACK" style="stroke-width:0.12" d="M -1.86,0.62 L 0.54,0.62 " />
    <circle class="pivotPoint layout" fill="none" cx="0" cy="0" r="0.2" />
  </g>
</svg>