<?xml version="1.0" encoding="utf-8"?>
<?xml-stylesheet type='text/css' href='S401Style.css'?>
<svg version="1.2" baseProfile="tiny" style="shape-rendering:geometricPrecision; fill-rule:evenodd;" width="2.50mm" height="4.10mm" viewBox="-1.26 -2.06 2.52 4.12" xmlns="http://www.w3.org/2000/svg">
  <title>BUNSTA02</title>
  <desc>bunker station, water</desc>
  <metadata>
    <iho:S100SVG xmlns:iho="http://www.iho.int/SVGMetadata">
      <iho:Description iho:publisher="IEHG" iho:creationDate="2015-07-09" iho:source="" iho:format="IENC signs, Europe, SVG" iho:version="0.1" />
    </iho:S100SVG>
  </metadata>
  <g>
    <path class="fLITGY sLITGY" style="stroke-width:0.04" d="M -1.25,-0.56 L -0.61,2.05 L 0.55,2.05 L 1.25,-0.56 L -1.25,-0.56 Z" />
    <path class="fMIDBL sBLACK" style="stroke-width:0.12" d="M 1.25,-0.56 L 1.24,-0.60 L 1.23,-0.63 L 1.21,-0.67 L 1.18,-0.70 L 1.15,-0.74 L 1.11,-0.77 L 1.06,-0.80 L 1.00,-0.83 L 0.94,-0.86 L 0.87,-0.89 L 0.79,-0.91 L 0.72,-0.94 L 0.63,-0.96 L 0.54,-0.97 L 0.45,-0.99 L 0.36,-1.00 L 0.26,-1.01 L 0.16,-1.01 L 0.06,-1.02 L -0.04,-1.02 L -0.14,-1.02 L -0.24,-1.01 L -0.33,-1.00 L -0.43,-0.99 L -0.52,-0.98 L -0.61,-0.96 L -0.70,-0.94 L -0.78,-0.92 L -0.85,-0.90 L -0.92,-0.87 L -0.99,-0.84 L -1.05,-0.81 L -1.10,-0.78 L -1.14,-0.75 L -1.18,-0.72 L -1.21,-0.68 L -1.23,-0.65 L -1.24,-0.61 L -1.25,-0.57 L -1.25,-0.54 L -1.24,-0.50 L -1.22,-0.46 L -1.19,-0.43 L -1.16,-0.39 L -1.12,-0.36 L -1.07,-0.33 L -1.02,-0.30 L -0.96,-0.27 L -0.89,-0.24 L -0.82,-0.22 L -0.74,-0.19 L -0.65,-0.17 L -0.57,-0.16 L -0.48,-0.14 L -0.38,-0.13 L -0.29,-0.12 L -0.19,-0.11 L -0.09,-0.11 L 0.01,-0.11 L 0.11,-0.11 L 0.21,-0.11 L 0.31,-0.12 L 0.40,-0.13 L 0.50,-0.14 L 0.59,-0.16 L 0.67,-0.18 L 0.75,-0.20 L 0.83,-0.22 L 0.90,-0.25 L 0.97,-0.27 L 1.03,-0.30 L 1.08,-0.33 L 1.13,-0.37 L 1.17,-0.40 L 1.20,-0.43 L 1.22,-0.47 L 1.24,-0.51 L 1.25,-0.54 L 1.25,-0.56 " />
    <path class="f0 sBLACK" style="stroke-width:0.12" d="M -0.61,2.05 L 0.55,2.05 L 1.25,-0.56 L 1.07,-1.24 L 0.30,-2.05 L -0.23,-2.05 L -1.11,-1.21 L -1.25,-0.56 L -0.61,2.05 " />
    <circle class="pivotPoint layout" fill="none" cx="0" cy="0" r="0.2" />
  </g>
</svg>