<?xml version="1.0" encoding="UTF-8"?>
<?xml-stylesheet type='text/css' href='S401Style.css'?>
<svg version="1.2" baseProfile="tiny" style="shape-rendering:geometricPrecision; fill-rule:evenodd;" width="15.50mm" height="14.45mm" viewBox="-7.57 -10.81 15.52 14.47" xmlns="http://www.w3.org/2000/svg">
  <title>DFND01M</title>
  <desc>buoy berth right-hand side - off position - missing - text area -d</desc>
  <metadata />
  <g>
    <path class="fORRED sBLACK" style="stroke-width:0.12" d="M -2.05,0.00 L -2.05,-0.65 L -1.33,-1.00 L -1.33,-2.30 L 1.33,-2.30 L 1.33,-1.00 L 2.05,-0.65 L 2.05,0.00 L -2.05,0.00 Z" />
    <path class="f0 sBLACK" style="stroke-width:0.24" d="M 2.24,-2.43 L 3.27,-0.96 L 2.09,0.72 " />
    <path class="f0 sBLACK" style="stroke-width:0.24" d="M 1.25,1.92 L 0.04,3.65 L -1.12,2.00 " />
    <path class="f0 sBLACK" style="stroke-width:0.24" d="M -1.23,-3.76 L 0.04,-5.56 L 1.29,-3.78 " />
    <path class="f0 sBLACK" style="stroke-width:0.24" d="M -2.08,0.63 L -3.19,-0.96 L -2.12,-2.48 " />
    <path class="f0 sBLACK" style="stroke-width:0.24" d="M -1.06,-3.65 L 0.04,-5.22 L 1.12,-3.66 " />
    <path class="f0 sBLACK" style="stroke-width:0.24" d="M -1.92,0.51 L -2.95,-0.96 L -1.96,-2.37 " />
    <path class="f0 sBLACK" style="stroke-width:0.24" d="M 2.07,-2.31 L 3.02,-0.96 L 1.93,0.60 " />
    <path class="f0 sBLACK" style="stroke-width:0.24" d="M 1.09,1.80 L 0.04,3.30 L -0.96,1.88 " />
    <path class="fBLACK sBLACK" style="stroke-width:0.04" d="M -5.91,-9.74 L -5.96,-9.78 L -6.01,-9.82 L -6.06,-9.85 L -6.12,-9.87 L -6.20,-9.90 L -6.28,-9.91 L -6.37,-9.92 L -6.45,-9.92 L -6.51,-9.92 L -6.56,-9.91 L -6.61,-9.91 L -6.66,-9.90 L -6.71,-9.88 L -6.76,-9.86 L -6.81,-9.84 L -6.86,-9.82 L -6.90,-9.79 L -6.94,-9.76 L -6.99,-9.73 L -7.02,-9.69 L -7.06,-9.65 L -7.10,-9.61 L -7.13,-9.57 L -7.16,-9.53 L -7.16,-9.86 L -7.56,-9.86 L -7.56,-7.38 L -7.14,-7.38 L -7.14,-8.85 L -7.14,-8.91 L -7.13,-8.98 L -7.13,-9.02 L -7.12,-9.07 L -7.11,-9.12 L -7.09,-9.17 L -7.07,-9.21 L -7.05,-9.26 L -7.03,-9.30 L -7.00,-9.34 L -6.95,-9.39 L -6.90,-9.44 L -6.85,-9.47 L -6.79,-9.51 L -6.73,-9.53 L -6.66,-9.55 L -6.60,-9.55 L -6.53,-9.56 L -6.47,-9.56 L -6.42,-9.55 L -6.38,-9.54 L -6.33,-9.52 L -6.29,-9.50 L -6.25,-9.47 L -6.21,-9.44 L -5.91,-9.74 Z" />
    <path class="fBLACK sBLACK" style="stroke-width:0.04" d="M -6.21,-9.44 L -6.18,-9.40 L -6.15,-9.36 L -6.13,-9.28 L -6.11,-9.21 L -6.10,-9.13 L -6.10,-9.05 L -6.10,-7.38 L -5.67,-7.38 L -5.67,-8.85 L -5.67,-8.91 L -5.66,-8.98 L -5.65,-9.04 L -5.64,-9.10 L -5.63,-9.15 L -5.62,-9.20 L -5.60,-9.24 L -5.58,-9.28 L -5.55,-9.32 L -5.52,-9.36 L -5.49,-9.40 L -5.45,-9.43 L -5.41,-9.46 L -5.37,-9.48 L -5.32,-9.51 L -5.27,-9.53 L -5.22,-9.54 L -5.17,-9.55 L -5.12,-9.55 L -5.06,-9.56 L -5.00,-9.55 L -4.93,-9.54 L -4.87,-9.52 L -4.81,-9.49 L -4.78,-9.47 L -4.75,-9.44 L -4.72,-9.41 L -4.70,-9.38 L -4.68,-9.35 L -4.67,-9.32 L -4.65,-9.28 L -4.65,-9.25 L -4.64,-9.16 L -4.63,-9.08 L -4.63,-8.99 L -4.63,-8.90 L -4.63,-7.38 L -4.21,-7.38 L -4.21,-8.87 L -4.21,-8.99 L -4.21,-9.11 L -4.22,-9.23 L -4.23,-9.35 L -4.23,-9.39 L -4.24,-9.44 L -4.26,-9.48 L -4.27,-9.52 L -4.29,-9.56 L -4.31,-9.60 L -4.34,-9.64 L -4.37,-9.67 L -4.40,-9.71 L -4.43,-9.74 L -4.46,-9.77 L -4.50,-9.80 L -4.54,-9.82 L -4.58,-9.84 L -4.62,-9.86 L -4.66,-9.87 L -4.74,-9.90 L -4.83,-9.91 L -4.91,-9.92 L -5.00,-9.92 L -5.05,-9.92 L -5.11,-9.92 L -5.16,-9.91 L -5.22,-9.90 L -5.27,-9.89 L -5.32,-9.87 L -5.38,-9.85 L -5.43,-9.83 L -5.47,-9.80 L -5.52,-9.77 L -5.56,-9.74 L -5.61,-9.70 L -5.65,-9.66 L -5.68,-9.63 L -5.72,-9.58 L -5.75,-9.54 L -5.79,-9.60 L -5.82,-9.65 L -5.86,-9.70 L -5.91,-9.74 L -6.21,-9.44 Z" />
    <path class="fBLACK sBLACK" style="stroke-width:0.04" d="M -3.59,-10.80 L -3.59,-10.32 L -3.17,-10.32 L -3.17,-10.80 L -3.59,-10.80 Z" />
    <path class="fBLACK sBLACK" style="stroke-width:0.04" d="M -3.59,-9.86 L -3.59,-7.38 L -3.17,-7.38 L -3.17,-9.86 L -3.59,-9.86 Z" />
    <path class="fBLACK sBLACK" style="stroke-width:0.04" d="M -2.13,-9.04 L -2.15,-9.06 L -2.17,-9.08 L -2.19,-9.11 L -2.20,-9.14 L -2.21,-9.17 L -2.22,-9.20 L -2.22,-9.23 L -2.22,-9.27 L -2.21,-9.31 L -2.20,-9.35 L -2.18,-9.39 L -2.16,-9.42 L -2.14,-9.45 L -2.11,-9.48 L -2.07,-9.50 L -2.03,-9.52 L -1.99,-9.54 L -1.95,-9.56 L -1.90,-9.57 L -1.86,-9.58 L -1.81,-9.58 L -1.77,-9.59 L -1.72,-9.58 L -1.63,-9.58 L -1.54,-9.57 L -1.45,-9.55 L -1.37,-9.52 L -1.33,-9.50 L -1.30,-9.48 L -1.27,-9.46 L -1.24,-9.43 L -1.22,-9.40 L -1.19,-9.37 L -1.17,-9.34 L -1.16,-9.30 L -1.14,-9.24 L -1.13,-9.17 L -0.72,-9.17 L -0.72,-9.24 L -0.73,-9.30 L -0.74,-9.36 L -0.76,-9.42 L -0.79,-9.49 L -0.82,-9.55 L -0.87,-9.61 L -0.92,-9.67 L -0.97,-9.72 L -1.03,-9.76 L -1.09,-9.80 L -1.16,-9.83 L -1.22,-9.86 L -1.29,-9.88 L -1.35,-9.90 L -1.42,-9.91 L -1.49,-9.93 L -1.56,-9.94 L -1.63,-9.94 L -1.70,-9.94 L -1.77,-9.94 L -1.84,-9.94 L -1.91,-9.93 L -1.98,-9.92 L -2.05,-9.90 L -2.11,-9.88 L -2.18,-9.86 L -2.25,-9.83 L -2.29,-9.81 L -2.33,-9.78 L -2.37,-9.76 L -2.41,-9.73 L -2.44,-9.70 L -2.47,-9.66 L -2.50,-9.62 L -2.53,-9.58 L -2.56,-9.54 L -2.58,-9.50 L -2.60,-9.46 L -2.61,-9.41 L -2.62,-9.36 L -2.63,-9.32 L -2.64,-9.27 L -2.64,-9.22 L -2.64,-9.15 L -2.63,-9.08 L -2.61,-9.01 L -2.59,-8.95 L -2.57,-8.89 L -2.53,-8.84 L -2.49,-8.79 L -2.45,-8.74 L -2.40,-8.70 L -2.34,-8.67 L -2.13,-9.04 Z" />
    <path class="fBLACK sBLACK" style="stroke-width:0.04" d="M -1.69,-7.30 L -1.58,-7.31 L -1.47,-7.32 L -1.37,-7.33 L -1.27,-7.35 L -1.17,-7.38 L -1.08,-7.42 L -1.03,-7.45 L -0.99,-7.47 L -0.94,-7.51 L -0.90,-7.54 L -0.86,-7.58 L -0.82,-7.62 L -0.79,-7.66 L -0.76,-7.71 L -0.73,-7.76 L -0.71,-7.81 L -0.69,-7.86 L -0.67,-7.91 L -0.66,-7.96 L -0.65,-8.02 L -0.65,-8.07 L -0.65,-8.12 L -0.65,-8.21 L -0.67,-8.30 L -0.68,-8.35 L -0.70,-8.40 L -0.72,-8.45 L -0.75,-8.49 L -0.78,-8.53 L -0.81,-8.57 L -0.85,-8.61 L -0.89,-8.64 L -0.96,-8.68 L -1.03,-8.72 L -1.10,-8.75 L -1.17,-8.77 L -1.42,-8.83 L -1.82,-8.93 L -1.90,-8.94 L -1.97,-8.96 L -2.03,-8.99 L -2.10,-9.02 L -2.13,-9.04 L -2.34,-8.67 L -2.24,-8.62 L -2.14,-8.58 L -2.04,-8.55 L -1.93,-8.52 L -1.46,-8.41 L -1.31,-8.37 L -1.27,-8.35 L -1.24,-8.34 L -1.20,-8.32 L -1.17,-8.30 L -1.15,-8.28 L -1.13,-8.25 L -1.11,-8.23 L -1.10,-8.21 L -1.09,-8.18 L -1.08,-8.15 L -1.07,-8.12 L -1.07,-8.09 L -1.08,-8.05 L -1.08,-8.00 L -1.09,-7.96 L -1.11,-7.92 L -1.13,-7.88 L -1.16,-7.84 L -1.19,-7.81 L -1.22,-7.78 L -1.26,-7.76 L -1.30,-7.74 L -1.39,-7.71 L -1.48,-7.69 L -1.57,-7.67 L -1.66,-7.67 L -1.69,-7.30 Z" />
    <path class="fBLACK sBLACK" style="stroke-width:0.04" d="M -1.66,-7.67 L -1.73,-7.67 L -1.79,-7.68 L -1.86,-7.69 L -1.92,-7.70 L -1.98,-7.72 L -2.03,-7.74 L -2.08,-7.77 L -2.13,-7.81 L -2.17,-7.85 L -2.21,-7.90 L -2.24,-7.95 L -2.26,-8.01 L -2.28,-8.10 L -2.30,-8.19 L -2.71,-8.19 L -2.71,-8.13 L -2.70,-8.08 L -2.70,-8.02 L -2.69,-7.97 L -2.67,-7.91 L -2.66,-7.86 L -2.64,-7.81 L -2.61,-7.76 L -2.57,-7.69 L -2.52,-7.62 L -2.47,-7.56 L -2.41,-7.50 L -2.34,-7.45 L -2.27,-7.41 L -2.19,-7.38 L -2.11,-7.36 L -2.01,-7.33 L -1.90,-7.32 L -1.79,-7.31 L -1.69,-7.30 L -1.66,-7.67 Z" />
    <path class="fBLACK sBLACK" style="stroke-width:0.04" d="M 0.25,-9.04 L 0.23,-9.06 L 0.20,-9.08 L 0.19,-9.11 L 0.17,-9.14 L 0.16,-9.17 L 0.16,-9.20 L 0.16,-9.23 L 0.16,-9.27 L 0.17,-9.31 L 0.18,-9.35 L 0.19,-9.39 L 0.22,-9.42 L 0.24,-9.45 L 0.27,-9.48 L 0.31,-9.50 L 0.35,-9.52 L 0.39,-9.54 L 0.43,-9.56 L 0.47,-9.57 L 0.52,-9.58 L 0.56,-9.58 L 0.61,-9.59 L 0.65,-9.58 L 0.74,-9.58 L 0.83,-9.57 L 0.92,-9.55 L 1.01,-9.52 L 1.04,-9.50 L 1.08,-9.48 L 1.11,-9.46 L 1.13,-9.43 L 1.16,-9.40 L 1.18,-9.37 L 1.20,-9.34 L 1.22,-9.30 L 1.23,-9.24 L 1.25,-9.17 L 1.66,-9.17 L 1.65,-9.24 L 1.65,-9.30 L 1.64,-9.36 L 1.62,-9.42 L 1.59,-9.49 L 1.55,-9.55 L 1.51,-9.61 L 1.46,-9.67 L 1.41,-9.72 L 1.35,-9.76 L 1.28,-9.80 L 1.22,-9.83 L 1.15,-9.86 L 1.09,-9.88 L 1.02,-9.90 L 0.96,-9.91 L 0.89,-9.93 L 0.82,-9.94 L 0.75,-9.94 L 0.68,-9.94 L 0.61,-9.94 L 0.54,-9.94 L 0.47,-9.93 L 0.40,-9.92 L 0.33,-9.90 L 0.26,-9.88 L 0.19,-9.86 L 0.13,-9.83 L 0.09,-9.81 L 0.05,-9.78 L 0.01,-9.76 L -0.03,-9.73 L -0.07,-9.70 L -0.10,-9.66 L -0.13,-9.62 L -0.15,-9.58 L -0.18,-9.54 L -0.20,-9.50 L -0.22,-9.46 L -0.23,-9.41 L -0.25,-9.36 L -0.25,-9.32 L -0.26,-9.27 L -0.26,-9.22 L -0.26,-9.15 L -0.25,-9.08 L -0.24,-9.01 L -0.22,-8.95 L -0.19,-8.89 L -0.16,-8.84 L -0.12,-8.79 L -0.07,-8.74 L -0.02,-8.70 L 0.03,-8.67 L 0.25,-9.04 Z" />
    <path class="fBLACK sBLACK" style="stroke-width:0.04" d="M 0.69,-7.30 L 0.80,-7.31 L 0.91,-7.32 L 1.01,-7.33 L 1.11,-7.35 L 1.20,-7.38 L 1.29,-7.42 L 1.34,-7.45 L 1.39,-7.47 L 1.43,-7.51 L 1.48,-7.54 L 1.52,-7.58 L 1.55,-7.62 L 1.59,-7.66 L 1.62,-7.71 L 1.64,-7.76 L 1.67,-7.81 L 1.69,-7.86 L 1.70,-7.91 L 1.72,-7.96 L 1.72,-8.02 L 1.73,-8.07 L 1.73,-8.12 L 1.72,-8.21 L 1.71,-8.30 L 1.69,-8.35 L 1.68,-8.40 L 1.66,-8.45 L 1.63,-8.49 L 1.60,-8.53 L 1.56,-8.57 L 1.53,-8.61 L 1.48,-8.64 L 1.42,-8.68 L 1.35,-8.72 L 1.28,-8.75 L 1.20,-8.77 L 0.96,-8.83 L 0.55,-8.93 L 0.48,-8.94 L 0.41,-8.96 L 0.34,-8.99 L 0.28,-9.02 L 0.25,-9.04 L 0.03,-8.67 L 0.13,-8.62 L 0.24,-8.58 L 0.34,-8.55 L 0.45,-8.52 L 0.92,-8.41 L 1.07,-8.37 L 1.11,-8.35 L 1.14,-8.34 L 1.17,-8.32 L 1.20,-8.30 L 1.23,-8.28 L 1.25,-8.25 L 1.26,-8.23 L 1.28,-8.21 L 1.29,-8.18 L 1.30,-8.15 L 1.30,-8.12 L 1.30,-8.09 L 1.30,-8.05 L 1.29,-8.00 L 1.28,-7.96 L 1.27,-7.92 L 1.24,-7.88 L 1.22,-7.84 L 1.19,-7.81 L 1.15,-7.78 L 1.12,-7.76 L 1.08,-7.74 L 0.99,-7.71 L 0.90,-7.69 L 0.81,-7.67 L 0.71,-7.67 L 0.69,-7.30 Z" />
    <path class="fBLACK sBLACK" style="stroke-width:0.04" d="M 0.71,-7.67 L 0.65,-7.67 L 0.58,-7.68 L 0.52,-7.69 L 0.46,-7.70 L 0.40,-7.72 L 0.35,-7.74 L 0.30,-7.77 L 0.25,-7.81 L 0.21,-7.85 L 0.17,-7.90 L 0.14,-7.95 L 0.12,-8.01 L 0.09,-8.10 L 0.08,-8.19 L -0.33,-8.19 L -0.33,-8.13 L -0.33,-8.08 L -0.32,-8.02 L -0.31,-7.97 L -0.30,-7.91 L -0.28,-7.86 L -0.26,-7.81 L -0.24,-7.76 L -0.19,-7.69 L -0.15,-7.62 L -0.09,-7.56 L -0.03,-7.50 L 0.04,-7.45 L 0.11,-7.41 L 0.19,-7.38 L 0.27,-7.36 L 0.37,-7.33 L 0.48,-7.32 L 0.58,-7.31 L 0.69,-7.30 L 0.71,-7.67 Z" />
    <path class="fBLACK sBLACK" style="stroke-width:0.04" d="M 2.22,-10.80 L 2.22,-10.32 L 2.64,-10.32 L 2.64,-10.80 L 2.22,-10.80 Z" />
    <path class="fBLACK sBLACK" style="stroke-width:0.04" d="M 2.22,-9.86 L 2.22,-7.38 L 2.64,-7.38 L 2.64,-9.86 L 2.22,-9.86 Z" />
    <path class="fBLACK sBLACK" style="stroke-width:0.04" d="M 5.29,-8.87 L 5.29,-8.99 L 5.29,-9.11 L 5.28,-9.23 L 5.27,-9.35 L 5.26,-9.41 L 5.24,-9.47 L 5.22,-9.53 L 5.19,-9.59 L 5.15,-9.64 L 5.11,-9.69 L 5.07,-9.73 L 5.02,-9.77 L 4.97,-9.80 L 4.92,-9.83 L 4.86,-9.86 L 4.80,-9.87 L 4.71,-9.90 L 4.62,-9.91 L 4.52,-9.92 L 4.43,-9.92 L 4.34,-9.92 L 4.25,-9.91 L 4.16,-9.89 L 4.07,-9.86 L 4.01,-9.83 L 3.95,-9.80 L 3.90,-9.76 L 3.84,-9.72 L 3.79,-9.67 L 3.75,-9.63 L 3.70,-9.57 L 3.67,-9.52 L 3.67,-9.86 L 3.27,-9.86 L 3.27,-7.38 L 3.68,-7.38 L 3.68,-8.80 L 3.69,-8.88 L 3.69,-8.97 L 3.70,-9.04 L 3.72,-9.10 L 3.74,-9.16 L 3.77,-9.22 L 3.80,-9.28 L 3.84,-9.33 L 3.89,-9.37 L 3.94,-9.42 L 3.99,-9.45 L 4.04,-9.48 L 4.10,-9.50 L 4.15,-9.52 L 4.21,-9.54 L 4.27,-9.55 L 4.33,-9.55 L 4.39,-9.56 L 4.44,-9.56 L 4.48,-9.55 L 4.52,-9.55 L 4.56,-9.54 L 4.60,-9.53 L 4.63,-9.51 L 4.67,-9.49 L 4.70,-9.47 L 4.73,-9.45 L 4.76,-9.42 L 4.78,-9.39 L 4.80,-9.36 L 4.83,-9.28 L 4.85,-9.21 L 4.87,-9.13 L 4.87,-9.05 L 4.87,-7.38 L 5.29,-7.38 L 5.29,-8.87 Z" />
    <path class="fBLACK sBLACK" style="stroke-width:0.04" d="M 7.94,-7.43 L 7.94,-9.86 L 7.53,-9.86 L 7.53,-9.58 L 7.47,-9.66 L 7.40,-9.73 L 7.32,-9.80 L 7.24,-9.85 L 7.19,-9.88 L 7.13,-9.90 L 7.08,-9.91 L 7.02,-9.93 L 6.97,-9.94 L 6.91,-9.94 L 6.85,-9.94 L 6.79,-9.94 L 6.72,-9.94 L 6.65,-9.93 L 6.58,-9.92 L 6.52,-9.90 L 6.45,-9.87 L 6.39,-9.85 L 6.32,-9.81 L 6.27,-9.77 L 6.20,-9.72 L 6.14,-9.66 L 6.08,-9.59 L 6.02,-9.52 L 5.98,-9.45 L 5.94,-9.37 L 5.90,-9.30 L 5.87,-9.21 L 5.85,-9.14 L 5.83,-9.07 L 5.81,-9.00 L 5.80,-8.92 L 5.79,-8.85 L 5.79,-8.78 L 5.78,-8.70 L 5.78,-8.63 L 5.78,-8.55 L 6.22,-8.58 L 6.22,-8.66 L 6.22,-8.73 L 6.22,-8.79 L 6.23,-8.86 L 6.24,-8.93 L 6.25,-9.00 L 6.27,-9.06 L 6.29,-9.13 L 6.32,-9.19 L 6.34,-9.24 L 6.36,-9.28 L 6.39,-9.33 L 6.43,-9.37 L 6.46,-9.40 L 6.50,-9.44 L 6.54,-9.47 L 6.58,-9.50 L 6.65,-9.53 L 6.72,-9.55 L 6.80,-9.56 L 6.87,-9.57 L 6.95,-9.56 L 7.02,-9.55 L 7.10,-9.54 L 7.17,-9.51 L 7.22,-9.48 L 7.26,-9.45 L 7.30,-9.41 L 7.34,-9.37 L 7.37,-9.33 L 7.40,-9.29 L 7.43,-9.24 L 7.45,-9.19 L 7.49,-9.11 L 7.51,-9.02 L 7.53,-8.94 L 7.54,-8.85 L 7.55,-8.74 L 7.55,-8.62 L 7.94,-7.43 Z" />
    <path class="fBLACK sBLACK" style="stroke-width:0.04" d="M 7.55,-8.52 L 7.54,-8.42 L 7.53,-8.32 L 7.51,-8.22 L 7.49,-8.13 L 7.46,-8.05 L 7.42,-7.97 L 7.38,-7.90 L 7.33,-7.84 L 7.28,-7.80 L 7.23,-7.76 L 7.17,-7.73 L 7.10,-7.70 L 7.04,-7.68 L 6.97,-7.67 L 6.90,-7.67 L 6.83,-7.67 L 6.75,-7.69 L 6.67,-7.71 L 6.60,-7.74 L 6.56,-7.76 L 6.51,-7.80 L 6.47,-7.84 L 6.43,-7.88 L 6.39,-7.92 L 6.36,-7.97 L 6.34,-8.02 L 6.31,-8.07 L 6.29,-8.14 L 6.27,-8.21 L 6.25,-8.28 L 6.23,-8.36 L 6.22,-8.43 L 6.22,-8.51 L 6.22,-8.58 L 5.78,-8.55 L 5.78,-8.48 L 5.79,-8.40 L 5.80,-8.32 L 5.82,-8.23 L 5.84,-8.14 L 5.87,-8.04 L 5.90,-7.95 L 5.94,-7.87 L 5.99,-7.78 L 6.05,-7.70 L 6.10,-7.63 L 6.14,-7.59 L 6.17,-7.55 L 6.21,-7.52 L 6.25,-7.48 L 6.29,-7.45 L 6.34,-7.43 L 6.38,-7.40 L 6.43,-7.38 L 6.52,-7.34 L 6.62,-7.32 L 6.72,-7.30 L 6.83,-7.30 L 6.88,-7.30 L 6.93,-7.30 L 6.98,-7.31 L 7.03,-7.32 L 7.08,-7.33 L 7.13,-7.35 L 7.18,-7.37 L 7.22,-7.39 L 7.27,-7.41 L 7.31,-7.44 L 7.35,-7.47 L 7.39,-7.50 L 7.43,-7.53 L 7.47,-7.57 L 7.50,-7.60 L 7.53,-7.64 L 7.53,-7.34 L 7.94,-7.43 L 7.55,-8.62 L 7.55,-8.52 Z" />
    <path class="fBLACK sBLACK" style="stroke-width:0.04" d="M 7.53,-7.34 L 7.53,-7.22 L 7.53,-7.15 L 7.52,-7.08 L 7.49,-7.02 L 7.46,-6.95 L 7.44,-6.91 L 7.41,-6.88 L 7.38,-6.85 L 7.34,-6.82 L 7.31,-6.79 L 7.27,-6.77 L 7.23,-6.75 L 7.18,-6.74 L 7.11,-6.72 L 7.03,-6.70 L 6.95,-6.70 L 6.87,-6.69 L 6.78,-6.70 L 6.68,-6.71 L 6.62,-6.72 L 6.56,-6.73 L 6.49,-6.76 L 6.44,-6.78 L 6.40,-6.81 L 6.37,-6.84 L 6.34,-6.87 L 6.32,-6.91 L 6.30,-6.95 L 6.29,-7.00 L 6.28,-7.04 L 6.28,-7.09 L 5.88,-7.09 L 5.88,-7.00 L 5.88,-6.95 L 5.89,-6.90 L 5.90,-6.85 L 5.92,-6.81 L 5.94,-6.76 L 5.97,-6.72 L 6.00,-6.68 L 6.03,-6.64 L 6.07,-6.59 L 6.12,-6.55 L 6.17,-6.51 L 6.22,-6.48 L 6.28,-6.45 L 6.33,-6.42 L 6.39,-6.40 L 6.45,-6.39 L 6.57,-6.36 L 6.69,-6.35 L 6.80,-6.34 L 6.92,-6.34 L 7.04,-6.35 L 7.16,-6.36 L 7.28,-6.39 L 7.39,-6.42 L 7.44,-6.44 L 7.49,-6.47 L 7.54,-6.49 L 7.59,-6.53 L 7.63,-6.56 L 7.68,-6.60 L 7.71,-6.63 L 7.75,-6.68 L 7.78,-6.72 L 7.81,-6.77 L 7.84,-6.82 L 7.87,-6.87 L 7.89,-6.92 L 7.90,-6.97 L 7.92,-7.03 L 7.93,-7.08 L 7.94,-7.26 L 7.94,-7.43 L 7.53,-7.34 Z" />
    <path class="fWHITE sWHITE" style="stroke-width:0.04" d="M -0.49,-1.94 L -0.49,-0.33 L -0.20,-0.33 L -0.20,-1.94 L -0.49,-1.94 Z" />
    <path class="fWHITE sWHITE" style="stroke-width:0.04" d="M -0.20,-1.94 L 0.10,-1.94 L 0.17,-1.93 L 0.22,-1.93 L 0.27,-1.92 L 0.31,-1.91 L 0.35,-1.90 L 0.39,-1.87 L 0.44,-1.83 L 0.50,-1.77 L 0.54,-1.69 L 0.57,-1.60 L 0.59,-1.47 L 0.59,-1.37 L 0.58,-1.29 L 0.55,-1.21 L 0.52,-1.15 L 0.48,-1.09 L 0.42,-1.04 L 0.36,-1.00 L 0.28,-0.96 L 0.20,-0.95 L 0.13,-0.94 L 0.07,-0.94 L -0.20,-0.94 L -0.20,-1.21 L -0.08,-1.21 L 0.05,-1.21 L 0.13,-1.22 L 0.19,-1.24 L 0.23,-1.27 L 0.26,-1.32 L 0.28,-1.36 L 0.29,-1.41 L 0.30,-1.46 L 0.29,-1.51 L 0.28,-1.54 L 0.25,-1.58 L 0.23,-1.61 L 0.20,-1.63 L 0.17,-1.65 L 0.14,-1.66 L 0.09,-1.66 L 0.01,-1.67 L -0.20,-1.67 L -0.20,-1.94 Z" />
    <circle class="pivotPoint layout" fill="none" cx="0" cy="0" r="0.2" />
  </g>
</svg>