<?xml version="1.0" encoding="UTF-8"?>
<?xml-stylesheet type='text/css' href='S401Style.css'?>
<svg version="1.2" baseProfile="tiny" style="shape-rendering:geometricPrecision; fill-rule:evenodd;" width="14.84mm" height="13.61mm" viewBox="-7.27 -9.95 14.86 13.63" xmlns="http://www.w3.org/2000/svg">
  <title>DFND02F</title>
  <desc>buoy berth left-hand side - off position - text area -d</desc>
  <metadata />
  <g>
    <path class="f0 sBLACK" style="stroke-width:0.24" d="M -3.16,-0.93 L 0.06,-5.54 L 3.29,-0.93 L 0.06,3.68 L -3.16,-0.93 Z" />
    <path class="f0 sBLACK" style="stroke-width:0.24" d="M -2.92,-0.93 L 0.06,-5.19 L 3.05,-0.93 L 0.06,3.33 L -2.92,-0.93 Z" />
    <path class="fBLACK sBLACK" style="stroke-width:0.04" d="M -5.92,-7.29 L -6.00,-7.29 L -6.08,-7.30 L -6.15,-7.31 L -6.22,-7.33 L -6.30,-7.36 L -6.36,-7.39 L -6.43,-7.43 L -6.49,-7.48 L -6.53,-7.51 L -6.56,-7.54 L -6.60,-7.58 L -6.63,-7.62 L -6.66,-7.65 L -6.69,-7.70 L -6.71,-7.74 L -6.73,-7.78 L -6.77,-7.86 L -6.79,-7.94 L -6.82,-8.02 L -6.84,-8.11 L -6.85,-8.19 L -6.86,-8.28 L -6.86,-8.36 L -6.86,-8.45 L -6.86,-8.53 L -7.26,-8.54 L -7.26,-8.45 L -7.26,-8.35 L -7.26,-8.26 L -7.25,-8.17 L -7.24,-8.08 L -7.23,-8.01 L -7.21,-7.94 L -7.19,-7.87 L -7.17,-7.81 L -7.15,-7.74 L -7.12,-7.68 L -7.09,-7.61 L -7.06,-7.55 L -7.02,-7.50 L -6.98,-7.44 L -6.93,-7.39 L -6.89,-7.34 L -6.84,-7.29 L -6.79,-7.24 L -6.73,-7.20 L -6.68,-7.16 L -6.62,-7.12 L -6.55,-7.09 L -6.49,-7.06 L -6.43,-7.04 L -6.37,-7.02 L -6.31,-7.00 L -6.24,-6.99 L -6.18,-6.98 L -6.12,-6.97 L -6.05,-6.96 L -5.99,-6.96 L -5.92,-6.96 L -5.92,-7.29 Z" />
    <path class="fBLACK sBLACK" style="stroke-width:0.04" d="M -5.92,-6.96 L -5.86,-6.96 L -5.78,-6.96 L -5.72,-6.97 L -5.65,-6.98 L -5.55,-7.00 L -5.46,-7.02 L -5.37,-7.05 L -5.28,-7.09 L -5.20,-7.14 L -5.12,-7.19 L -5.05,-7.25 L -4.98,-7.32 L -4.91,-7.40 L -4.84,-7.48 L -4.79,-7.58 L -4.74,-7.67 L -4.69,-7.77 L -4.66,-7.87 L -4.63,-7.97 L -4.62,-8.08 L -4.60,-8.17 L -4.60,-8.26 L -4.59,-8.35 L -4.99,-8.36 L -4.99,-8.28 L -5.00,-8.19 L -5.01,-8.11 L -5.03,-8.02 L -5.06,-7.94 L -5.08,-7.86 L -5.12,-7.78 L -5.14,-7.74 L -5.16,-7.70 L -5.19,-7.65 L -5.22,-7.61 L -5.25,-7.58 L -5.28,-7.54 L -5.32,-7.51 L -5.36,-7.48 L -5.40,-7.45 L -5.44,-7.42 L -5.48,-7.39 L -5.53,-7.37 L -5.57,-7.35 L -5.62,-7.34 L -5.66,-7.32 L -5.71,-7.31 L -5.77,-7.30 L -5.82,-7.29 L -5.87,-7.29 L -5.92,-7.29 L -5.92,-6.96 Z" />
    <path class="fBLACK sBLACK" style="stroke-width:0.04" d="M -5.92,-9.60 L -5.85,-9.60 L -5.77,-9.59 L -5.70,-9.58 L -5.62,-9.56 L -5.55,-9.53 L -5.48,-9.50 L -5.42,-9.46 L -5.36,-9.41 L -5.32,-9.38 L -5.28,-9.35 L -5.25,-9.31 L -5.22,-9.28 L -5.19,-9.24 L -5.16,-9.20 L -5.14,-9.15 L -5.12,-9.11 L -5.08,-9.03 L -5.06,-8.95 L -5.03,-8.87 L -5.01,-8.79 L -5.00,-8.70 L -4.99,-8.62 L -4.99,-8.53 L -4.99,-8.45 L -4.99,-8.36 L -4.59,-8.35 L -4.59,-8.45 L -4.59,-8.54 L -4.60,-8.63 L -4.60,-8.72 L -4.62,-8.82 L -4.63,-8.89 L -4.64,-8.96 L -4.66,-9.03 L -4.68,-9.09 L -4.71,-9.16 L -4.74,-9.23 L -4.77,-9.29 L -4.81,-9.35 L -4.86,-9.44 L -4.93,-9.52 L -4.99,-9.59 L -5.07,-9.66 L -5.15,-9.72 L -5.24,-9.77 L -5.33,-9.82 L -5.42,-9.86 L -5.48,-9.88 L -5.54,-9.89 L -5.61,-9.91 L -5.67,-9.92 L -5.73,-9.93 L -5.80,-9.93 L -5.86,-9.94 L -5.92,-9.94 L -5.92,-9.60 Z" />
    <path class="fBLACK sBLACK" style="stroke-width:0.04" d="M -5.92,-9.94 L -6.00,-9.93 L -6.07,-9.93 L -6.14,-9.93 L -6.21,-9.92 L -6.30,-9.90 L -6.39,-9.87 L -6.48,-9.84 L -6.57,-9.80 L -6.65,-9.75 L -6.73,-9.70 L -6.80,-9.64 L -6.87,-9.57 L -6.94,-9.49 L -7.01,-9.41 L -7.06,-9.32 L -7.11,-9.22 L -7.16,-9.12 L -7.19,-9.02 L -7.22,-8.92 L -7.24,-8.82 L -7.25,-8.72 L -7.26,-8.63 L -7.26,-8.54 L -6.86,-8.53 L -6.86,-8.62 L -6.85,-8.70 L -6.84,-8.79 L -6.82,-8.87 L -6.79,-8.95 L -6.77,-9.03 L -6.73,-9.11 L -6.71,-9.15 L -6.69,-9.20 L -6.66,-9.24 L -6.63,-9.28 L -6.60,-9.31 L -6.57,-9.35 L -6.53,-9.38 L -6.49,-9.42 L -6.45,-9.45 L -6.41,-9.47 L -6.37,-9.50 L -6.33,-9.52 L -6.28,-9.54 L -6.24,-9.56 L -6.19,-9.57 L -6.14,-9.58 L -6.09,-9.59 L -6.03,-9.60 L -5.98,-9.60 L -5.92,-9.60 L -5.92,-9.94 Z" />
    <path class="fBLACK sBLACK" style="stroke-width:0.04" d="M -3.29,-9.88 L -3.36,-9.89 L -3.44,-9.90 L -3.52,-9.90 L -3.60,-9.90 L -3.65,-9.90 L -3.71,-9.89 L -3.76,-9.87 L -3.82,-9.85 L -3.86,-9.82 L -3.90,-9.79 L -3.93,-9.75 L -3.96,-9.71 L -3.98,-9.67 L -3.99,-9.63 L -4.01,-9.60 L -4.02,-9.56 L -4.03,-9.51 L -4.03,-9.47 L -4.03,-9.43 L -4.03,-9.39 L -4.03,-9.09 L -4.40,-9.09 L -4.40,-8.82 L -4.03,-8.82 L -4.03,-7.04 L -3.68,-7.04 L -3.68,-8.82 L -3.29,-8.82 L -3.29,-9.09 L -3.68,-9.09 L -3.68,-9.26 L -3.68,-9.31 L -3.68,-9.36 L -3.68,-9.40 L -3.67,-9.45 L -3.66,-9.47 L -3.64,-9.50 L -3.62,-9.52 L -3.60,-9.53 L -3.56,-9.56 L -3.52,-9.58 L -3.48,-9.58 L -3.43,-9.59 L -3.33,-9.58 L -3.29,-9.57 L -3.29,-9.88 Z" />
    <path class="fBLACK sBLACK" style="stroke-width:0.04" d="M -2.19,-9.88 L -2.27,-9.89 L -2.35,-9.90 L -2.43,-9.90 L -2.50,-9.90 L -2.56,-9.90 L -2.62,-9.89 L -2.67,-9.87 L -2.72,-9.85 L -2.77,-9.82 L -2.81,-9.79 L -2.84,-9.75 L -2.87,-9.71 L -2.89,-9.67 L -2.90,-9.63 L -2.92,-9.60 L -2.93,-9.56 L -2.93,-9.51 L -2.94,-9.47 L -2.94,-9.43 L -2.94,-9.39 L -2.94,-9.09 L -3.31,-9.09 L -3.31,-8.82 L -2.94,-8.82 L -2.94,-7.04 L -2.59,-7.04 L -2.59,-8.82 L -2.19,-8.82 L -2.19,-9.09 L -2.59,-9.09 L -2.59,-9.26 L -2.59,-9.31 L -2.59,-9.36 L -2.58,-9.40 L -2.57,-9.45 L -2.56,-9.47 L -2.55,-9.50 L -2.53,-9.52 L -2.51,-9.53 L -2.47,-9.56 L -2.43,-9.58 L -2.39,-9.58 L -2.34,-9.59 L -2.23,-9.58 L -2.19,-9.57 L -2.19,-9.88 Z" />
    <path class="fBLACK sBLACK" style="stroke-width:0.04" d="M 0.94,-9.04 L 0.94,-8.98 L 0.94,-8.93 L 0.92,-8.87 L 0.91,-8.82 L 0.89,-8.78 L 0.86,-8.75 L 0.84,-8.72 L 0.81,-8.69 L 0.78,-8.66 L 0.74,-8.64 L 0.71,-8.62 L 0.67,-8.60 L 0.62,-8.59 L 0.57,-8.58 L 0.52,-8.57 L 0.47,-8.57 L 0.29,-8.56 L -0.41,-8.56 L -0.41,-8.23 L 0.23,-8.23 L 0.34,-8.23 L 0.46,-8.23 L 0.57,-8.23 L 0.69,-8.25 L 0.73,-8.26 L 0.78,-8.27 L 0.83,-8.28 L 0.88,-8.30 L 0.92,-8.32 L 0.97,-8.34 L 1.01,-8.37 L 1.05,-8.40 L 1.09,-8.43 L 1.12,-8.47 L 1.15,-8.50 L 1.19,-8.54 L 1.21,-8.58 L 1.24,-8.63 L 1.26,-8.67 L 1.28,-8.72 L 1.31,-8.80 L 1.33,-8.88 L 1.34,-8.96 L 1.34,-9.05 L 0.94,-9.04 Z" />
    <path class="fBLACK sBLACK" style="stroke-width:0.04" d="M 1.34,-9.05 L 1.33,-9.14 L 1.32,-9.23 L 1.31,-9.29 L 1.29,-9.35 L 1.27,-9.41 L 1.24,-9.46 L 1.21,-9.52 L 1.18,-9.57 L 1.14,-9.62 L 1.09,-9.66 L 1.05,-9.70 L 1.00,-9.73 L 0.95,-9.76 L 0.89,-9.79 L 0.84,-9.81 L 0.78,-9.82 L 0.72,-9.84 L 0.67,-9.85 L 0.55,-9.85 L 0.43,-9.86 L 0.31,-9.86 L 0.20,-9.86 L -0.80,-9.86 L -0.80,-7.04 L -0.41,-7.04 L -0.41,-8.23 L -0.41,-8.56 L -0.41,-9.51 L 0.32,-9.51 L 0.44,-9.51 L 0.56,-9.50 L 0.61,-9.49 L 0.66,-9.48 L 0.71,-9.46 L 0.76,-9.43 L 0.79,-9.41 L 0.82,-9.38 L 0.85,-9.35 L 0.87,-9.32 L 0.89,-9.29 L 0.91,-9.25 L 0.92,-9.21 L 0.93,-9.17 L 0.94,-9.11 L 0.94,-9.04 L 1.34,-9.05 Z" />
    <path class="fBLACK sBLACK" style="stroke-width:0.04" d="M 3.18,-8.01 L 3.18,-7.95 L 3.17,-7.89 L 3.16,-7.83 L 3.15,-7.77 L 3.14,-7.71 L 3.12,-7.65 L 3.10,-7.60 L 3.08,-7.56 L 3.06,-7.53 L 3.04,-7.49 L 3.01,-7.46 L 2.99,-7.43 L 2.96,-7.41 L 2.93,-7.38 L 2.90,-7.36 L 2.86,-7.34 L 2.83,-7.32 L 2.79,-7.31 L 2.75,-7.30 L 2.71,-7.29 L 2.67,-7.28 L 2.63,-7.28 L 2.59,-7.28 L 2.55,-7.28 L 2.51,-7.28 L 2.47,-7.29 L 2.43,-7.30 L 2.40,-7.31 L 2.36,-7.32 L 2.32,-7.34 L 2.29,-7.36 L 2.25,-7.38 L 2.22,-7.41 L 2.19,-7.44 L 2.17,-7.46 L 2.14,-7.50 L 2.12,-7.53 L 2.10,-7.57 L 2.08,-7.60 L 2.06,-7.66 L 2.04,-7.71 L 2.03,-7.77 L 2.02,-7.83 L 2.01,-7.89 L 2.00,-7.95 L 1.65,-7.94 L 1.66,-7.82 L 1.67,-7.72 L 1.70,-7.63 L 1.73,-7.54 L 1.77,-7.45 L 1.81,-7.38 L 1.85,-7.32 L 1.89,-7.26 L 1.95,-7.21 L 2.00,-7.16 L 2.06,-7.11 L 2.13,-7.07 L 2.20,-7.04 L 2.24,-7.02 L 2.29,-7.01 L 2.34,-7.00 L 2.39,-6.99 L 2.44,-6.98 L 2.49,-6.98 L 2.54,-6.97 L 2.59,-6.97 L 2.65,-6.98 L 2.70,-6.98 L 2.76,-6.99 L 2.81,-6.99 L 2.86,-7.00 L 2.91,-7.02 L 2.95,-7.03 L 2.99,-7.05 L 3.04,-7.07 L 3.08,-7.09 L 3.12,-7.11 L 3.16,-7.14 L 3.21,-7.19 L 3.27,-7.24 L 3.32,-7.30 L 3.36,-7.36 L 3.40,-7.43 L 3.43,-7.50 L 3.46,-7.57 L 3.48,-7.64 L 3.50,-7.74 L 3.52,-7.85 L 3.53,-7.96 L 3.18,-8.01 Z" />
    <path class="fBLACK sBLACK" style="stroke-width:0.04" d="M 2.59,-9.15 L 2.54,-9.15 L 2.49,-9.15 L 2.44,-9.15 L 2.39,-9.14 L 2.34,-9.13 L 2.29,-9.12 L 2.24,-9.10 L 2.20,-9.09 L 2.15,-9.06 L 2.11,-9.04 L 2.06,-9.01 L 2.02,-8.98 L 1.98,-8.95 L 1.95,-8.92 L 1.91,-8.88 L 1.88,-8.84 L 1.85,-8.80 L 1.82,-8.76 L 1.79,-8.72 L 1.77,-8.68 L 1.74,-8.63 L 1.72,-8.58 L 1.71,-8.53 L 1.69,-8.49 L 1.67,-8.38 L 1.66,-8.28 L 1.65,-8.17 L 1.65,-8.07 L 1.65,-7.94 L 2.00,-7.95 L 2.00,-8.01 L 2.00,-8.07 L 2.00,-8.12 L 2.00,-8.18 L 2.01,-8.24 L 2.02,-8.30 L 2.03,-8.36 L 2.04,-8.42 L 2.06,-8.47 L 2.08,-8.53 L 2.10,-8.56 L 2.12,-8.60 L 2.14,-8.63 L 2.17,-8.66 L 2.19,-8.69 L 2.22,-8.72 L 2.26,-8.75 L 2.29,-8.77 L 2.32,-8.79 L 2.36,-8.81 L 2.40,-8.82 L 2.44,-8.83 L 2.47,-8.84 L 2.51,-8.85 L 2.55,-8.85 L 2.59,-8.85 L 2.59,-9.15 Z" />
    <path class="fBLACK sBLACK" style="stroke-width:0.04" d="M 2.59,-8.85 L 2.63,-8.85 L 2.67,-8.84 L 2.71,-8.84 L 2.75,-8.83 L 2.79,-8.82 L 2.83,-8.80 L 2.86,-8.79 L 2.89,-8.77 L 2.93,-8.74 L 2.96,-8.72 L 2.99,-8.69 L 3.01,-8.66 L 3.04,-8.63 L 3.06,-8.60 L 3.08,-8.56 L 3.10,-8.53 L 3.12,-8.47 L 3.14,-8.42 L 3.15,-8.36 L 3.16,-8.30 L 3.17,-8.24 L 3.18,-8.18 L 3.18,-8.12 L 3.18,-8.07 L 3.18,-8.01 L 3.53,-7.96 L 3.53,-8.06 L 3.53,-8.18 L 3.52,-8.30 L 3.50,-8.40 L 3.48,-8.50 L 3.45,-8.59 L 3.41,-8.68 L 3.37,-8.74 L 3.33,-8.81 L 3.28,-8.87 L 3.23,-8.92 L 3.18,-8.97 L 3.11,-9.01 L 3.05,-9.05 L 2.98,-9.09 L 2.94,-9.10 L 2.89,-9.12 L 2.84,-9.13 L 2.79,-9.14 L 2.74,-9.15 L 2.69,-9.15 L 2.64,-9.15 L 2.59,-9.15 L 2.59,-8.85 Z" />
    <path class="fBLACK sBLACK" style="stroke-width:0.04" d="M 4.28,-8.41 L 4.26,-8.43 L 4.25,-8.45 L 4.23,-8.47 L 4.22,-8.49 L 4.21,-8.52 L 4.21,-8.54 L 4.21,-8.57 L 4.21,-8.60 L 4.21,-8.63 L 4.22,-8.67 L 4.24,-8.70 L 4.26,-8.73 L 4.28,-8.75 L 4.30,-8.77 L 4.33,-8.79 L 4.36,-8.81 L 4.40,-8.82 L 4.43,-8.84 L 4.47,-8.85 L 4.51,-8.85 L 4.54,-8.86 L 4.58,-8.86 L 4.62,-8.86 L 4.69,-8.86 L 4.77,-8.85 L 4.84,-8.83 L 4.91,-8.80 L 4.94,-8.79 L 4.97,-8.77 L 4.99,-8.75 L 5.02,-8.73 L 5.04,-8.71 L 5.05,-8.68 L 5.07,-8.66 L 5.08,-8.63 L 5.10,-8.57 L 5.11,-8.52 L 5.45,-8.52 L 5.44,-8.57 L 5.44,-8.62 L 5.43,-8.67 L 5.41,-8.73 L 5.39,-8.78 L 5.36,-8.83 L 5.33,-8.88 L 5.28,-8.93 L 5.24,-8.97 L 5.19,-9.01 L 5.14,-9.04 L 5.08,-9.06 L 5.03,-9.08 L 4.98,-9.10 L 4.92,-9.12 L 4.87,-9.13 L 4.81,-9.14 L 4.75,-9.15 L 4.70,-9.15 L 4.64,-9.15 L 4.58,-9.15 L 4.52,-9.15 L 4.46,-9.14 L 4.41,-9.13 L 4.35,-9.12 L 4.29,-9.11 L 4.24,-9.09 L 4.18,-9.06 L 4.15,-9.05 L 4.12,-9.02 L 4.08,-9.00 L 4.05,-8.98 L 4.02,-8.95 L 4.00,-8.92 L 3.97,-8.89 L 3.95,-8.86 L 3.93,-8.82 L 3.91,-8.79 L 3.90,-8.75 L 3.89,-8.72 L 3.88,-8.68 L 3.87,-8.64 L 3.86,-8.60 L 3.86,-8.56 L 3.86,-8.50 L 3.87,-8.44 L 3.88,-8.39 L 3.90,-8.34 L 3.92,-8.29 L 3.95,-8.24 L 3.98,-8.20 L 4.02,-8.16 L 4.06,-8.13 L 4.11,-8.10 L 4.28,-8.41 Z" />
    <path class="fBLACK sBLACK" style="stroke-width:0.04" d="M 4.65,-6.97 L 4.74,-6.98 L 4.83,-6.99 L 4.91,-7.00 L 4.99,-7.02 L 5.07,-7.04 L 5.15,-7.07 L 5.19,-7.09 L 5.23,-7.12 L 5.26,-7.14 L 5.30,-7.17 L 5.33,-7.20 L 5.36,-7.23 L 5.39,-7.27 L 5.41,-7.31 L 5.44,-7.35 L 5.46,-7.39 L 5.47,-7.43 L 5.49,-7.47 L 5.50,-7.52 L 5.50,-7.56 L 5.51,-7.61 L 5.51,-7.65 L 5.50,-7.73 L 5.49,-7.80 L 5.48,-7.84 L 5.46,-7.88 L 5.45,-7.92 L 5.42,-7.96 L 5.40,-7.99 L 5.37,-8.02 L 5.34,-8.05 L 5.30,-8.08 L 5.25,-8.11 L 5.19,-8.14 L 5.13,-8.17 L 5.07,-8.19 L 4.87,-8.24 L 4.53,-8.32 L 4.48,-8.33 L 4.42,-8.35 L 4.36,-8.37 L 4.31,-8.40 L 4.28,-8.41 L 4.11,-8.10 L 4.19,-8.06 L 4.27,-8.03 L 4.36,-8.00 L 4.45,-7.98 L 4.84,-7.88 L 4.96,-7.85 L 4.99,-7.84 L 5.02,-7.83 L 5.05,-7.81 L 5.07,-7.79 L 5.09,-7.78 L 5.11,-7.76 L 5.12,-7.74 L 5.13,-7.72 L 5.14,-7.70 L 5.15,-7.67 L 5.15,-7.65 L 5.16,-7.63 L 5.15,-7.59 L 5.15,-7.55 L 5.14,-7.52 L 5.12,-7.48 L 5.11,-7.45 L 5.08,-7.42 L 5.06,-7.39 L 5.03,-7.37 L 5.00,-7.35 L 4.97,-7.33 L 4.90,-7.31 L 4.82,-7.29 L 4.74,-7.28 L 4.67,-7.28 L 4.65,-6.97 Z" />
    <path class="fBLACK sBLACK" style="stroke-width:0.04" d="M 4.67,-7.28 L 4.61,-7.28 L 4.56,-7.28 L 4.51,-7.29 L 4.46,-7.30 L 4.41,-7.32 L 4.36,-7.34 L 4.32,-7.36 L 4.28,-7.39 L 4.25,-7.43 L 4.22,-7.47 L 4.19,-7.51 L 4.17,-7.55 L 4.15,-7.63 L 4.14,-7.70 L 3.80,-7.70 L 3.80,-7.66 L 3.81,-7.61 L 3.81,-7.57 L 3.82,-7.52 L 3.83,-7.48 L 3.85,-7.43 L 3.86,-7.39 L 3.88,-7.35 L 3.92,-7.29 L 3.96,-7.23 L 4.00,-7.18 L 4.05,-7.14 L 4.11,-7.10 L 4.17,-7.06 L 4.23,-7.04 L 4.30,-7.02 L 4.38,-7.00 L 4.47,-6.98 L 4.56,-6.98 L 4.65,-6.97 L 4.67,-7.28 Z" />
    <path class="fBLACK sBLACK" style="stroke-width:0.04" d="M 7.58,-8.27 L 7.58,-8.37 L 7.58,-8.47 L 7.57,-8.56 L 7.56,-8.66 L 7.55,-8.72 L 7.54,-8.77 L 7.52,-8.82 L 7.49,-8.86 L 7.46,-8.90 L 7.43,-8.94 L 7.39,-8.98 L 7.36,-9.01 L 7.31,-9.04 L 7.27,-9.06 L 7.22,-9.08 L 7.17,-9.10 L 7.10,-9.12 L 7.02,-9.13 L 6.95,-9.14 L 6.87,-9.14 L 6.79,-9.14 L 6.72,-9.13 L 6.65,-9.11 L 6.57,-9.09 L 6.52,-9.06 L 6.47,-9.04 L 6.43,-9.01 L 6.38,-8.97 L 6.34,-8.93 L 6.30,-8.89 L 6.27,-8.85 L 6.24,-8.80 L 6.24,-9.09 L 5.91,-9.09 L 5.91,-7.04 L 6.25,-7.04 L 6.25,-8.21 L 6.25,-8.28 L 6.26,-8.35 L 6.27,-8.41 L 6.28,-8.46 L 6.30,-8.51 L 6.32,-8.56 L 6.35,-8.60 L 6.38,-8.65 L 6.42,-8.69 L 6.46,-8.72 L 6.50,-8.75 L 6.55,-8.77 L 6.59,-8.79 L 6.64,-8.81 L 6.69,-8.82 L 6.74,-8.83 L 6.79,-8.83 L 6.84,-8.84 L 6.87,-8.84 L 6.91,-8.83 L 6.94,-8.83 L 6.97,-8.82 L 7.01,-8.81 L 7.04,-8.80 L 7.06,-8.78 L 7.09,-8.77 L 7.11,-8.75 L 7.14,-8.72 L 7.16,-8.70 L 7.17,-8.67 L 7.20,-8.61 L 7.22,-8.55 L 7.23,-8.48 L 7.23,-8.42 L 7.23,-7.04 L 7.58,-7.04 L 7.58,-8.27 Z" />
    <path class="fMIDGN sBLACK" style="stroke-width:0.12" d="M -1.85,0.00 L 1.85,0.00 L 1.85,-0.60 L 1.34,-0.59 L 0.00,-2.71 L -1.34,-0.57 L -1.85,-0.57 L -1.85,0.00 Z" />
    <path class="fWHITE sWHITE" style="stroke-width:0.04" d="M -0.43,-1.69 L -0.43,-0.20 L -0.16,-0.20 L -0.16,-1.69 L -0.43,-1.69 Z" />
    <path class="fWHITE sWHITE" style="stroke-width:0.04" d="M -0.16,-1.69 L 0.12,-1.69 L 0.18,-1.69 L 0.23,-1.68 L 0.28,-1.68 L 0.31,-1.67 L 0.35,-1.66 L 0.39,-1.63 L 0.44,-1.59 L 0.49,-1.54 L 0.53,-1.46 L 0.56,-1.38 L 0.57,-1.26 L 0.57,-1.16 L 0.56,-1.09 L 0.53,-1.01 L 0.51,-0.96 L 0.47,-0.91 L 0.42,-0.85 L 0.36,-0.82 L 0.29,-0.79 L 0.21,-0.77 L 0.15,-0.77 L 0.09,-0.76 L -0.16,-0.76 L -0.16,-1.02 L -0.04,-1.02 L 0.07,-1.02 L 0.15,-1.03 L 0.20,-1.05 L 0.23,-1.07 L 0.27,-1.11 L 0.29,-1.15 L 0.30,-1.20 L 0.30,-1.24 L 0.29,-1.29 L 0.28,-1.33 L 0.26,-1.36 L 0.24,-1.38 L 0.21,-1.41 L 0.18,-1.42 L 0.16,-1.43 L 0.11,-1.44 L 0.03,-1.44 L -0.16,-1.44 L -0.16,-1.69 Z" />
    <circle class="pivotPoint layout" fill="none" cx="0" cy="0" r="0.2" />
  </g>
</svg>