<?xml version="1.0" encoding="UTF-8"?>
<?xml-stylesheet type='text/css' href='S401Style.css'?>
<svg version="1.2" baseProfile="tiny" style="shape-rendering:geometricPrecision; fill-rule:evenodd;" width="15.50mm" height="14.45mm" viewBox="-7.54 -10.78 15.52 14.47" xmlns="http://www.w3.org/2000/svg">
  <title>DFND02M</title>
  <desc>buoy berth left-hand side - off position - missing - text area -d</desc>
  <metadata />
  <g>
    <path class="f0 sBLACK" style="stroke-width:0.24" d="M 2.26,-2.40 L 3.29,-0.93 L 2.12,0.75 " />
    <path class="f0 sBLACK" style="stroke-width:0.24" d="M 1.28,1.94 L 0.06,3.68 L -1.09,2.03 " />
    <path class="f0 sBLACK" style="stroke-width:0.24" d="M -1.20,-3.73 L 0.06,-5.54 L 1.31,-3.75 " />
    <path class="f0 sBLACK" style="stroke-width:0.24" d="M -2.05,0.65 L -3.16,-0.93 L -2.10,-2.45 " />
    <path class="fMIDGN sBLACK" style="stroke-width:0.12" d="M -1.85,0.00 L 1.85,0.00 L 1.85,-0.60 L 1.34,-0.59 L 0.00,-2.71 L -1.34,-0.57 L -1.85,-0.57 L -1.85,0.00 Z" />
    <path class="f0 sBLACK" style="stroke-width:0.24" d="M -1.04,-3.62 L 0.06,-5.19 L 1.15,-3.64 " />
    <path class="f0 sBLACK" style="stroke-width:0.24" d="M 2.10,-2.28 L 3.05,-0.93 L 1.95,0.63 " />
    <path class="f0 sBLACK" style="stroke-width:0.24" d="M 1.11,1.83 L 0.06,3.33 L -0.93,1.91 " />
    <path class="f0 sBLACK" style="stroke-width:0.24" d="M -1.89,0.54 L -2.92,-0.93 L -1.93,-2.34 " />
    <path class="fBLACK sBLACK" style="stroke-width:0.04" d="M -5.88,-9.71 L -5.93,-9.75 L -5.98,-9.79 L -6.04,-9.82 L -6.09,-9.85 L -6.17,-9.87 L -6.26,-9.89 L -6.34,-9.89 L -6.43,-9.89 L -6.48,-9.89 L -6.53,-9.89 L -6.58,-9.88 L -6.63,-9.87 L -6.69,-9.85 L -6.73,-9.83 L -6.78,-9.81 L -6.83,-9.79 L -6.87,-9.76 L -6.92,-9.73 L -6.96,-9.70 L -7.00,-9.66 L -7.04,-9.63 L -7.07,-9.59 L -7.10,-9.54 L -7.13,-9.50 L -7.13,-9.84 L -7.53,-9.84 L -7.53,-7.35 L -7.12,-7.35 L -7.12,-8.82 L -7.11,-8.88 L -7.11,-8.95 L -7.10,-9.00 L -7.09,-9.05 L -7.08,-9.09 L -7.06,-9.14 L -7.05,-9.19 L -7.02,-9.23 L -7.00,-9.27 L -6.97,-9.31 L -6.93,-9.36 L -6.88,-9.41 L -6.82,-9.45 L -6.76,-9.48 L -6.70,-9.50 L -6.64,-9.52 L -6.57,-9.53 L -6.50,-9.53 L -6.45,-9.53 L -6.40,-9.52 L -6.35,-9.51 L -6.30,-9.49 L -6.26,-9.47 L -6.22,-9.44 L -6.18,-9.41 L -5.88,-9.71 Z" />
    <path class="fBLACK sBLACK" style="stroke-width:0.04" d="M -6.18,-9.41 L -6.15,-9.37 L -6.13,-9.33 L -6.10,-9.25 L -6.08,-9.18 L -6.07,-9.10 L -6.07,-9.02 L -6.07,-7.35 L -5.64,-7.35 L -5.64,-8.82 L -5.64,-8.88 L -5.63,-8.95 L -5.63,-9.01 L -5.61,-9.08 L -5.60,-9.12 L -5.59,-9.17 L -5.57,-9.21 L -5.55,-9.25 L -5.52,-9.29 L -5.49,-9.33 L -5.46,-9.37 L -5.43,-9.40 L -5.38,-9.43 L -5.34,-9.46 L -5.29,-9.48 L -5.24,-9.50 L -5.19,-9.51 L -5.14,-9.52 L -5.09,-9.53 L -5.04,-9.53 L -4.97,-9.53 L -4.91,-9.51 L -4.84,-9.49 L -4.78,-9.46 L -4.75,-9.44 L -4.72,-9.41 L -4.70,-9.39 L -4.68,-9.36 L -4.66,-9.32 L -4.64,-9.29 L -4.63,-9.26 L -4.62,-9.22 L -4.61,-9.13 L -4.60,-9.05 L -4.60,-8.96 L -4.60,-8.88 L -4.60,-7.35 L -4.19,-7.35 L -4.19,-8.84 L -4.18,-8.96 L -4.19,-9.08 L -4.19,-9.20 L -4.20,-9.32 L -4.21,-9.36 L -4.22,-9.41 L -4.23,-9.45 L -4.25,-9.49 L -4.27,-9.53 L -4.29,-9.57 L -4.31,-9.61 L -4.34,-9.65 L -4.37,-9.68 L -4.40,-9.71 L -4.44,-9.74 L -4.47,-9.77 L -4.51,-9.79 L -4.55,-9.81 L -4.59,-9.83 L -4.63,-9.85 L -4.72,-9.87 L -4.80,-9.89 L -4.89,-9.89 L -4.97,-9.89 L -5.03,-9.89 L -5.08,-9.89 L -5.14,-9.88 L -5.19,-9.87 L -5.24,-9.86 L -5.30,-9.84 L -5.35,-9.82 L -5.40,-9.80 L -5.45,-9.77 L -5.49,-9.74 L -5.54,-9.71 L -5.58,-9.67 L -5.62,-9.64 L -5.66,-9.60 L -5.69,-9.56 L -5.73,-9.51 L -5.76,-9.57 L -5.80,-9.62 L -5.84,-9.67 L -5.88,-9.71 L -6.18,-9.41 Z" />
    <path class="fBLACK sBLACK" style="stroke-width:0.04" d="M -3.56,-10.77 L -3.56,-10.29 L -3.14,-10.29 L -3.14,-10.77 L -3.56,-10.77 Z" />
    <path class="fBLACK sBLACK" style="stroke-width:0.04" d="M -3.56,-9.84 L -3.56,-7.35 L -3.14,-7.35 L -3.14,-9.84 L -3.56,-9.84 Z" />
    <path class="fBLACK sBLACK" style="stroke-width:0.04" d="M -2.10,-9.01 L -2.12,-9.03 L -2.15,-9.06 L -2.16,-9.08 L -2.18,-9.11 L -2.19,-9.14 L -2.19,-9.17 L -2.19,-9.21 L -2.19,-9.25 L -2.19,-9.29 L -2.17,-9.32 L -2.16,-9.36 L -2.13,-9.40 L -2.11,-9.43 L -2.08,-9.45 L -2.04,-9.48 L -2.00,-9.50 L -1.96,-9.51 L -1.92,-9.53 L -1.88,-9.54 L -1.83,-9.55 L -1.79,-9.56 L -1.74,-9.56 L -1.70,-9.56 L -1.61,-9.56 L -1.52,-9.54 L -1.43,-9.52 L -1.34,-9.49 L -1.31,-9.47 L -1.27,-9.45 L -1.24,-9.43 L -1.22,-9.40 L -1.19,-9.37 L -1.17,-9.34 L -1.15,-9.31 L -1.13,-9.28 L -1.12,-9.21 L -1.10,-9.14 L -0.69,-9.14 L -0.70,-9.21 L -0.70,-9.27 L -0.71,-9.33 L -0.73,-9.40 L -0.76,-9.46 L -0.80,-9.53 L -0.84,-9.59 L -0.89,-9.64 L -0.94,-9.69 L -1.00,-9.74 L -1.07,-9.77 L -1.13,-9.80 L -1.20,-9.83 L -1.26,-9.85 L -1.33,-9.87 L -1.39,-9.89 L -1.46,-9.90 L -1.53,-9.91 L -1.60,-9.91 L -1.67,-9.91 L -1.74,-9.91 L -1.81,-9.91 L -1.88,-9.90 L -1.95,-9.89 L -2.02,-9.87 L -2.09,-9.85 L -2.16,-9.83 L -2.22,-9.80 L -2.26,-9.78 L -2.30,-9.76 L -2.34,-9.73 L -2.38,-9.70 L -2.42,-9.67 L -2.45,-9.63 L -2.48,-9.60 L -2.50,-9.56 L -2.53,-9.52 L -2.55,-9.47 L -2.57,-9.43 L -2.58,-9.38 L -2.60,-9.34 L -2.60,-9.29 L -2.61,-9.24 L -2.61,-9.20 L -2.61,-9.12 L -2.60,-9.05 L -2.59,-8.98 L -2.57,-8.92 L -2.54,-8.87 L -2.51,-8.81 L -2.47,-8.76 L -2.42,-8.71 L -2.37,-8.67 L -2.32,-8.64 L -2.10,-9.01 Z" />
    <path class="fBLACK sBLACK" style="stroke-width:0.04" d="M -1.66,-7.28 L -1.55,-7.28 L -1.44,-7.29 L -1.34,-7.30 L -1.24,-7.33 L -1.15,-7.36 L -1.06,-7.39 L -1.01,-7.42 L -0.96,-7.45 L -0.92,-7.48 L -0.87,-7.51 L -0.83,-7.55 L -0.80,-7.59 L -0.76,-7.63 L -0.73,-7.68 L -0.71,-7.73 L -0.68,-7.78 L -0.66,-7.83 L -0.65,-7.88 L -0.64,-7.93 L -0.63,-7.99 L -0.62,-8.04 L -0.62,-8.10 L -0.63,-8.19 L -0.64,-8.27 L -0.66,-8.32 L -0.67,-8.37 L -0.69,-8.42 L -0.72,-8.46 L -0.75,-8.51 L -0.79,-8.54 L -0.82,-8.58 L -0.87,-8.61 L -0.93,-8.65 L -1.00,-8.69 L -1.07,-8.72 L -1.15,-8.74 L -1.39,-8.81 L -1.80,-8.90 L -1.87,-8.92 L -1.94,-8.94 L -2.01,-8.96 L -2.07,-9.00 L -2.10,-9.01 L -2.32,-8.64 L -2.22,-8.59 L -2.11,-8.55 L -2.01,-8.52 L -1.90,-8.50 L -1.43,-8.38 L -1.28,-8.34 L -1.24,-8.33 L -1.21,-8.31 L -1.18,-8.29 L -1.15,-8.27 L -1.12,-8.25 L -1.10,-8.23 L -1.09,-8.20 L -1.07,-8.18 L -1.06,-8.15 L -1.05,-8.12 L -1.05,-8.09 L -1.05,-8.06 L -1.05,-8.02 L -1.06,-7.97 L -1.07,-7.93 L -1.08,-7.89 L -1.11,-7.85 L -1.13,-7.82 L -1.16,-7.78 L -1.20,-7.76 L -1.23,-7.73 L -1.27,-7.71 L -1.36,-7.68 L -1.45,-7.66 L -1.54,-7.65 L -1.64,-7.65 L -1.66,-7.28 Z" />
    <path class="fBLACK sBLACK" style="stroke-width:0.04" d="M -1.64,-7.65 L -1.70,-7.65 L -1.77,-7.65 L -1.83,-7.66 L -1.89,-7.67 L -1.95,-7.69 L -2.00,-7.72 L -2.05,-7.75 L -2.10,-7.78 L -2.14,-7.83 L -2.18,-7.87 L -2.21,-7.92 L -2.23,-7.98 L -2.26,-8.07 L -2.27,-8.16 L -2.68,-8.16 L -2.68,-8.10 L -2.68,-8.05 L -2.67,-7.99 L -2.66,-7.94 L -2.65,-7.89 L -2.63,-7.83 L -2.61,-7.78 L -2.59,-7.73 L -2.54,-7.66 L -2.50,-7.59 L -2.44,-7.53 L -2.38,-7.47 L -2.31,-7.43 L -2.24,-7.39 L -2.16,-7.35 L -2.08,-7.33 L -1.98,-7.30 L -1.87,-7.29 L -1.77,-7.28 L -1.66,-7.28 L -1.64,-7.65 Z" />
    <path class="fBLACK sBLACK" style="stroke-width:0.04" d="M 0.28,-9.01 L 0.25,-9.03 L 0.23,-9.06 L 0.21,-9.08 L 0.20,-9.11 L 0.19,-9.14 L 0.19,-9.17 L 0.18,-9.21 L 0.19,-9.25 L 0.19,-9.29 L 0.20,-9.32 L 0.22,-9.36 L 0.24,-9.40 L 0.27,-9.43 L 0.30,-9.45 L 0.33,-9.48 L 0.37,-9.50 L 0.41,-9.51 L 0.46,-9.53 L 0.50,-9.54 L 0.54,-9.55 L 0.59,-9.56 L 0.63,-9.56 L 0.68,-9.56 L 0.77,-9.56 L 0.86,-9.54 L 0.95,-9.52 L 1.04,-9.49 L 1.07,-9.47 L 1.10,-9.45 L 1.13,-9.43 L 1.16,-9.40 L 1.19,-9.37 L 1.21,-9.34 L 1.23,-9.31 L 1.24,-9.28 L 1.26,-9.21 L 1.27,-9.14 L 1.68,-9.14 L 1.68,-9.21 L 1.67,-9.27 L 1.66,-9.33 L 1.64,-9.40 L 1.61,-9.46 L 1.58,-9.53 L 1.54,-9.59 L 1.49,-9.64 L 1.43,-9.69 L 1.37,-9.74 L 1.31,-9.77 L 1.24,-9.80 L 1.18,-9.83 L 1.12,-9.85 L 1.05,-9.87 L 0.98,-9.89 L 0.91,-9.90 L 0.85,-9.91 L 0.78,-9.91 L 0.71,-9.91 L 0.64,-9.91 L 0.57,-9.91 L 0.50,-9.90 L 0.43,-9.89 L 0.36,-9.87 L 0.29,-9.85 L 0.22,-9.83 L 0.16,-9.80 L 0.11,-9.78 L 0.07,-9.76 L 0.03,-9.73 L 0.00,-9.70 L -0.04,-9.67 L -0.07,-9.63 L -0.10,-9.60 L -0.13,-9.56 L -0.15,-9.52 L -0.17,-9.47 L -0.19,-9.43 L -0.21,-9.38 L -0.22,-9.34 L -0.23,-9.29 L -0.23,-9.24 L -0.23,-9.20 L -0.23,-9.12 L -0.22,-9.05 L -0.21,-8.98 L -0.19,-8.92 L -0.16,-8.87 L -0.13,-8.81 L -0.09,-8.76 L -0.04,-8.71 L 0.01,-8.67 L 0.06,-8.64 L 0.28,-9.01 Z" />
    <path class="fBLACK sBLACK" style="stroke-width:0.04" d="M 0.72,-7.28 L 0.83,-7.28 L 0.94,-7.29 L 1.04,-7.30 L 1.13,-7.33 L 1.23,-7.36 L 1.32,-7.39 L 1.37,-7.42 L 1.42,-7.45 L 1.46,-7.48 L 1.50,-7.51 L 1.54,-7.55 L 1.58,-7.59 L 1.61,-7.63 L 1.64,-7.68 L 1.67,-7.73 L 1.69,-7.78 L 1.71,-7.83 L 1.73,-7.88 L 1.74,-7.93 L 1.75,-7.99 L 1.75,-8.04 L 1.75,-8.10 L 1.75,-8.19 L 1.74,-8.27 L 1.72,-8.32 L 1.70,-8.37 L 1.68,-8.42 L 1.66,-8.46 L 1.62,-8.51 L 1.59,-8.54 L 1.55,-8.58 L 1.51,-8.61 L 1.45,-8.65 L 1.38,-8.69 L 1.30,-8.72 L 1.23,-8.74 L 0.99,-8.81 L 0.58,-8.90 L 0.51,-8.92 L 0.44,-8.94 L 0.37,-8.96 L 0.30,-9.00 L 0.28,-9.01 L 0.06,-8.64 L 0.16,-8.59 L 0.26,-8.55 L 0.37,-8.52 L 0.47,-8.50 L 0.95,-8.38 L 1.10,-8.34 L 1.13,-8.33 L 1.17,-8.31 L 1.20,-8.29 L 1.23,-8.27 L 1.25,-8.25 L 1.27,-8.23 L 1.29,-8.20 L 1.30,-8.18 L 1.32,-8.15 L 1.32,-8.12 L 1.33,-8.09 L 1.33,-8.06 L 1.33,-8.02 L 1.32,-7.97 L 1.31,-7.93 L 1.29,-7.89 L 1.27,-7.85 L 1.24,-7.82 L 1.21,-7.78 L 1.18,-7.76 L 1.14,-7.73 L 1.10,-7.71 L 1.02,-7.68 L 0.93,-7.66 L 0.83,-7.65 L 0.74,-7.65 L 0.72,-7.28 Z" />
    <path class="fBLACK sBLACK" style="stroke-width:0.04" d="M 0.74,-7.65 L 0.68,-7.65 L 0.61,-7.65 L 0.55,-7.66 L 0.48,-7.67 L 0.43,-7.69 L 0.37,-7.72 L 0.32,-7.75 L 0.28,-7.78 L 0.23,-7.83 L 0.20,-7.87 L 0.17,-7.92 L 0.14,-7.98 L 0.12,-8.07 L 0.10,-8.16 L -0.31,-8.16 L -0.30,-8.10 L -0.30,-8.05 L -0.29,-7.99 L -0.28,-7.94 L -0.27,-7.89 L -0.25,-7.83 L -0.23,-7.78 L -0.21,-7.73 L -0.17,-7.66 L -0.12,-7.59 L -0.06,-7.53 L 0.00,-7.47 L 0.07,-7.43 L 0.14,-7.39 L 0.21,-7.35 L 0.29,-7.33 L 0.40,-7.30 L 0.50,-7.29 L 0.61,-7.28 L 0.72,-7.28 L 0.74,-7.65 Z" />
    <path class="fBLACK sBLACK" style="stroke-width:0.04" d="M 2.25,-10.77 L 2.25,-10.29 L 2.67,-10.29 L 2.67,-10.77 L 2.25,-10.77 Z" />
    <path class="fBLACK sBLACK" style="stroke-width:0.04" d="M 2.25,-9.84 L 2.25,-7.35 L 2.67,-7.35 L 2.67,-9.84 L 2.25,-9.84 Z" />
    <path class="fBLACK sBLACK" style="stroke-width:0.04" d="M 5.32,-8.84 L 5.32,-8.96 L 5.32,-9.08 L 5.31,-9.20 L 5.30,-9.32 L 5.29,-9.38 L 5.27,-9.44 L 5.24,-9.50 L 5.21,-9.56 L 5.18,-9.61 L 5.14,-9.66 L 5.09,-9.70 L 5.05,-9.74 L 5.00,-9.77 L 4.94,-9.80 L 4.89,-9.83 L 4.83,-9.85 L 4.74,-9.87 L 4.64,-9.89 L 4.55,-9.89 L 4.46,-9.89 L 4.37,-9.89 L 4.28,-9.88 L 4.19,-9.86 L 4.10,-9.83 L 4.04,-9.80 L 3.98,-9.77 L 3.92,-9.73 L 3.87,-9.69 L 3.82,-9.65 L 3.77,-9.60 L 3.73,-9.55 L 3.69,-9.49 L 3.69,-9.84 L 3.29,-9.84 L 3.29,-7.35 L 3.71,-7.35 L 3.71,-8.77 L 3.71,-8.86 L 3.72,-8.94 L 3.73,-9.01 L 3.75,-9.07 L 3.77,-9.13 L 3.80,-9.19 L 3.83,-9.25 L 3.87,-9.30 L 3.91,-9.35 L 3.96,-9.39 L 4.01,-9.42 L 4.07,-9.45 L 4.12,-9.48 L 4.18,-9.50 L 4.24,-9.51 L 4.30,-9.52 L 4.36,-9.53 L 4.42,-9.53 L 4.46,-9.53 L 4.50,-9.52 L 4.54,-9.52 L 4.59,-9.51 L 4.62,-9.50 L 4.66,-9.48 L 4.69,-9.47 L 4.73,-9.44 L 4.76,-9.42 L 4.78,-9.39 L 4.81,-9.36 L 4.83,-9.33 L 4.86,-9.26 L 4.88,-9.18 L 4.89,-9.10 L 4.89,-9.02 L 4.89,-7.35 L 5.32,-7.35 L 5.32,-8.84 Z" />
    <path class="fBLACK sBLACK" style="stroke-width:0.04" d="M 7.97,-7.40 L 7.97,-9.84 L 7.56,-9.84 L 7.56,-9.56 L 7.50,-9.64 L 7.43,-9.71 L 7.35,-9.77 L 7.27,-9.82 L 7.21,-9.85 L 7.16,-9.87 L 7.11,-9.89 L 7.05,-9.90 L 6.99,-9.91 L 6.94,-9.91 L 6.88,-9.92 L 6.82,-9.91 L 6.75,-9.91 L 6.68,-9.90 L 6.61,-9.89 L 6.54,-9.87 L 6.48,-9.85 L 6.41,-9.82 L 6.35,-9.78 L 6.29,-9.75 L 6.23,-9.69 L 6.16,-9.63 L 6.10,-9.57 L 6.05,-9.50 L 6.00,-9.42 L 5.96,-9.35 L 5.93,-9.27 L 5.90,-9.19 L 5.88,-9.11 L 5.86,-9.04 L 5.84,-8.97 L 5.83,-8.90 L 5.82,-8.82 L 5.81,-8.75 L 5.81,-8.68 L 5.81,-8.60 L 5.81,-8.52 L 6.24,-8.55 L 6.24,-8.63 L 6.25,-8.70 L 6.25,-8.77 L 6.26,-8.83 L 6.27,-8.90 L 6.28,-8.97 L 6.30,-9.03 L 6.32,-9.10 L 6.34,-9.16 L 6.37,-9.21 L 6.39,-9.25 L 6.42,-9.30 L 6.45,-9.34 L 6.49,-9.38 L 6.53,-9.41 L 6.57,-9.44 L 6.61,-9.47 L 6.68,-9.50 L 6.75,-9.52 L 6.83,-9.53 L 6.90,-9.54 L 6.98,-9.54 L 7.05,-9.53 L 7.13,-9.51 L 7.20,-9.48 L 7.24,-9.45 L 7.29,-9.42 L 7.33,-9.38 L 7.36,-9.34 L 7.40,-9.30 L 7.43,-9.26 L 7.46,-9.21 L 7.48,-9.16 L 7.51,-9.08 L 7.54,-9.00 L 7.56,-8.91 L 7.57,-8.82 L 7.57,-8.71 L 7.58,-8.59 L 7.97,-7.40 Z" />
    <path class="fBLACK sBLACK" style="stroke-width:0.04" d="M 7.57,-8.49 L 7.57,-8.39 L 7.56,-8.29 L 7.54,-8.19 L 7.52,-8.10 L 7.49,-8.02 L 7.45,-7.94 L 7.41,-7.87 L 7.36,-7.82 L 7.31,-7.77 L 7.26,-7.73 L 7.20,-7.70 L 7.13,-7.67 L 7.07,-7.65 L 7.00,-7.65 L 6.93,-7.65 L 6.85,-7.65 L 6.78,-7.66 L 6.70,-7.68 L 6.63,-7.71 L 6.58,-7.74 L 6.54,-7.77 L 6.50,-7.81 L 6.46,-7.85 L 6.42,-7.89 L 6.39,-7.94 L 6.36,-7.99 L 6.34,-8.04 L 6.31,-8.11 L 6.29,-8.18 L 6.27,-8.26 L 6.26,-8.33 L 6.25,-8.40 L 6.24,-8.48 L 6.24,-8.55 L 5.81,-8.52 L 5.81,-8.45 L 5.82,-8.37 L 5.83,-8.30 L 5.84,-8.20 L 5.86,-8.11 L 5.89,-8.02 L 5.93,-7.93 L 5.97,-7.84 L 6.02,-7.76 L 6.07,-7.67 L 6.13,-7.60 L 6.16,-7.56 L 6.20,-7.52 L 6.24,-7.49 L 6.28,-7.46 L 6.32,-7.43 L 6.36,-7.40 L 6.41,-7.37 L 6.45,-7.35 L 6.55,-7.32 L 6.65,-7.29 L 6.75,-7.28 L 6.85,-7.27 L 6.90,-7.27 L 6.96,-7.28 L 7.01,-7.28 L 7.06,-7.29 L 7.11,-7.30 L 7.15,-7.32 L 7.20,-7.34 L 7.25,-7.36 L 7.29,-7.38 L 7.34,-7.41 L 7.38,-7.44 L 7.42,-7.47 L 7.46,-7.50 L 7.50,-7.54 L 7.53,-7.58 L 7.56,-7.62 L 7.56,-7.31 L 7.97,-7.40 L 7.58,-8.59 L 7.57,-8.49 Z" />
    <path class="fBLACK sBLACK" style="stroke-width:0.04" d="M 7.56,-7.31 L 7.56,-7.19 L 7.56,-7.12 L 7.54,-7.05 L 7.52,-6.99 L 7.49,-6.92 L 7.47,-6.89 L 7.44,-6.85 L 7.41,-6.82 L 7.37,-6.79 L 7.33,-6.76 L 7.29,-6.74 L 7.25,-6.72 L 7.21,-6.71 L 7.13,-6.69 L 7.05,-6.68 L 6.98,-6.67 L 6.90,-6.67 L 6.80,-6.67 L 6.71,-6.68 L 6.65,-6.69 L 6.58,-6.71 L 6.52,-6.73 L 6.46,-6.76 L 6.43,-6.78 L 6.40,-6.81 L 6.37,-6.84 L 6.34,-6.88 L 6.33,-6.92 L 6.31,-6.97 L 6.31,-7.02 L 6.31,-7.06 L 5.90,-7.06 L 5.90,-6.97 L 5.91,-6.92 L 5.92,-6.87 L 5.93,-6.82 L 5.95,-6.78 L 5.97,-6.73 L 5.99,-6.69 L 6.02,-6.65 L 6.05,-6.61 L 6.10,-6.57 L 6.14,-6.52 L 6.20,-6.49 L 6.25,-6.45 L 6.30,-6.42 L 6.36,-6.40 L 6.42,-6.38 L 6.48,-6.36 L 6.59,-6.33 L 6.71,-6.32 L 6.83,-6.31 L 6.95,-6.32 L 7.07,-6.32 L 7.19,-6.34 L 7.30,-6.36 L 7.42,-6.40 L 7.47,-6.42 L 7.52,-6.44 L 7.57,-6.47 L 7.62,-6.50 L 7.66,-6.53 L 7.70,-6.57 L 7.74,-6.61 L 7.78,-6.65 L 7.81,-6.69 L 7.84,-6.74 L 7.87,-6.79 L 7.89,-6.84 L 7.91,-6.89 L 7.93,-6.94 L 7.94,-7.00 L 7.95,-7.05 L 7.97,-7.23 L 7.97,-7.40 L 7.56,-7.31 Z" />
    <path class="fWHITE sWHITE" style="stroke-width:0.04" d="M -0.43,-1.69 L -0.43,-0.20 L -0.16,-0.20 L -0.16,-1.69 L -0.43,-1.69 Z" />
    <path class="fWHITE sWHITE" style="stroke-width:0.04" d="M -0.16,-1.69 L 0.12,-1.69 L 0.18,-1.69 L 0.23,-1.68 L 0.28,-1.68 L 0.31,-1.67 L 0.35,-1.66 L 0.39,-1.63 L 0.44,-1.59 L 0.49,-1.54 L 0.53,-1.46 L 0.56,-1.38 L 0.57,-1.26 L 0.57,-1.16 L 0.56,-1.09 L 0.53,-1.01 L 0.51,-0.96 L 0.47,-0.91 L 0.42,-0.85 L 0.36,-0.82 L 0.29,-0.79 L 0.21,-0.77 L 0.15,-0.77 L 0.09,-0.76 L -0.16,-0.76 L -0.16,-1.02 L -0.04,-1.02 L 0.07,-1.02 L 0.15,-1.03 L 0.20,-1.05 L 0.23,-1.07 L 0.27,-1.11 L 0.29,-1.15 L 0.30,-1.20 L 0.30,-1.24 L 0.29,-1.29 L 0.28,-1.33 L 0.26,-1.36 L 0.24,-1.38 L 0.21,-1.41 L 0.18,-1.42 L 0.16,-1.43 L 0.11,-1.44 L 0.03,-1.44 L -0.16,-1.44 L -0.16,-1.69 Z" />
    <circle class="pivotPoint layout" fill="none" cx="0" cy="0" r="0.2" />
  </g>
</svg>