<?xml version="1.0" encoding="UTF-8"?>
<?xml-stylesheet type='text/css' href='S401Style.css'?>
<svg version="1.2" baseProfile="tiny" style="shape-rendering:geometricPrecision; fill-rule:evenodd;" width="17.96mm" height="14.54mm" viewBox="-8.84 -10.90 17.98 14.56" xmlns="http://www.w3.org/2000/svg">
  <title>DFND01F</title>
  <desc>buoy berth right-hand side - off position - text area -d</desc>
  <metadata />
  <g>
    <path class="fORRED sBLACK" style="stroke-width:0.12" d="M -2.05,0.00 L -2.05,-0.65 L -1.33,-1.00 L -1.33,-2.30 L 1.33,-2.30 L 1.33,-1.00 L 2.05,-0.65 L 2.05,0.00 L -2.05,0.00 Z" />
    <path class="f0 sFFD700" style="stroke-width:0.08" d="M -1.68,0.97 L -2.27,0.14 " />
    <path class="f0 sBLACK" style="stroke-width:0.24" d="M -3.19,-0.96 L 0.04,-5.56 L 3.27,-0.96 L 0.04,3.65 L -3.19,-0.96 Z" />
    <path class="f0 sBLACK" style="stroke-width:0.24" d="M -2.95,-0.96 L 0.04,-5.22 L 3.02,-0.96 L 0.04,3.30 L -2.95,-0.96 Z" />
    <path class="fBLACK sBLACK" style="stroke-width:0.04" d="M -7.21,-7.68 L -7.30,-7.68 L -7.39,-7.69 L -7.48,-7.71 L -7.57,-7.74 L -7.66,-7.77 L -7.74,-7.81 L -7.82,-7.86 L -7.89,-7.91 L -7.94,-7.95 L -7.98,-7.99 L -8.02,-8.03 L -8.06,-8.08 L -8.10,-8.13 L -8.13,-8.18 L -8.16,-8.23 L -8.19,-8.28 L -8.23,-8.38 L -8.26,-8.48 L -8.29,-8.57 L -8.31,-8.67 L -8.33,-8.78 L -8.34,-8.88 L -8.35,-8.98 L -8.35,-9.08 L -8.35,-9.19 L -8.82,-9.20 L -8.83,-9.08 L -8.82,-8.97 L -8.82,-8.86 L -8.81,-8.75 L -8.80,-8.64 L -8.78,-8.55 L -8.76,-8.47 L -8.74,-8.39 L -8.72,-8.31 L -8.69,-8.23 L -8.66,-8.15 L -8.62,-8.08 L -8.58,-8.01 L -8.53,-7.94 L -8.48,-7.87 L -8.43,-7.80 L -8.37,-7.74 L -8.32,-7.68 L -8.25,-7.63 L -8.19,-7.58 L -8.12,-7.53 L -8.05,-7.48 L -7.97,-7.44 L -7.90,-7.41 L -7.82,-7.38 L -7.74,-7.36 L -7.67,-7.34 L -7.59,-7.32 L -7.52,-7.31 L -7.44,-7.30 L -7.36,-7.29 L -7.29,-7.28 L -7.21,-7.28 L -7.21,-7.68 Z" />
    <path class="fBLACK sBLACK" style="stroke-width:0.04" d="M -7.21,-7.28 L -7.12,-7.29 L -7.04,-7.29 L -6.96,-7.30 L -6.87,-7.31 L -6.76,-7.33 L -6.65,-7.36 L -6.54,-7.40 L -6.43,-7.45 L -6.33,-7.50 L -6.24,-7.57 L -6.15,-7.64 L -6.06,-7.72 L -5.98,-7.82 L -5.90,-7.92 L -5.83,-8.03 L -5.77,-8.14 L -5.72,-8.26 L -5.68,-8.39 L -5.65,-8.51 L -5.63,-8.64 L -5.61,-8.75 L -5.60,-8.86 L -5.59,-8.97 L -6.07,-8.98 L -6.08,-8.88 L -6.09,-8.78 L -6.11,-8.67 L -6.13,-8.57 L -6.16,-8.48 L -6.19,-8.38 L -6.23,-8.28 L -6.26,-8.23 L -6.29,-8.18 L -6.32,-8.13 L -6.35,-8.08 L -6.39,-8.03 L -6.43,-7.99 L -6.48,-7.95 L -6.52,-7.91 L -6.57,-7.88 L -6.62,-7.84 L -6.67,-7.81 L -6.73,-7.79 L -6.78,-7.76 L -6.84,-7.74 L -6.89,-7.72 L -6.95,-7.71 L -7.02,-7.70 L -7.08,-7.69 L -7.14,-7.68 L -7.21,-7.68 L -7.21,-7.28 Z" />
    <path class="fBLACK sBLACK" style="stroke-width:0.04" d="M -7.21,-10.48 L -7.12,-10.48 L -7.02,-10.47 L -6.93,-10.45 L -6.84,-10.43 L -6.76,-10.40 L -6.67,-10.36 L -6.59,-10.31 L -6.52,-10.25 L -6.47,-10.22 L -6.43,-10.18 L -6.39,-10.13 L -6.35,-10.09 L -6.32,-10.04 L -6.29,-9.99 L -6.26,-9.94 L -6.23,-9.89 L -6.19,-9.79 L -6.16,-9.70 L -6.13,-9.60 L -6.11,-9.50 L -6.09,-9.39 L -6.08,-9.29 L -6.07,-9.19 L -6.07,-9.08 L -6.07,-8.98 L -5.59,-8.97 L -5.59,-9.08 L -5.59,-9.20 L -5.60,-9.31 L -5.61,-9.42 L -5.63,-9.53 L -5.64,-9.62 L -5.66,-9.70 L -5.68,-9.79 L -5.71,-9.87 L -5.74,-9.95 L -5.77,-10.03 L -5.81,-10.11 L -5.85,-10.18 L -5.92,-10.29 L -6.00,-10.38 L -6.08,-10.47 L -6.18,-10.55 L -6.27,-10.62 L -6.38,-10.69 L -6.49,-10.75 L -6.60,-10.79 L -6.67,-10.82 L -6.75,-10.84 L -6.82,-10.85 L -6.90,-10.87 L -6.98,-10.88 L -7.05,-10.88 L -7.13,-10.89 L -7.21,-10.89 L -7.21,-10.48 Z" />
    <path class="fBLACK sBLACK" style="stroke-width:0.04" d="M -7.21,-10.89 L -7.30,-10.89 L -7.38,-10.88 L -7.47,-10.87 L -7.55,-10.86 L -7.66,-10.84 L -7.77,-10.81 L -7.88,-10.77 L -7.99,-10.72 L -8.09,-10.66 L -8.18,-10.60 L -8.27,-10.52 L -8.36,-10.45 L -8.44,-10.35 L -8.52,-10.25 L -8.59,-10.14 L -8.65,-10.02 L -8.70,-9.91 L -8.74,-9.78 L -8.77,-9.66 L -8.80,-9.53 L -8.81,-9.42 L -8.82,-9.31 L -8.82,-9.20 L -8.35,-9.19 L -8.34,-9.29 L -8.33,-9.39 L -8.31,-9.50 L -8.29,-9.60 L -8.26,-9.70 L -8.23,-9.79 L -8.19,-9.89 L -8.16,-9.94 L -8.13,-9.99 L -8.10,-10.04 L -8.06,-10.09 L -8.03,-10.14 L -7.99,-10.18 L -7.94,-10.22 L -7.90,-10.26 L -7.85,-10.29 L -7.80,-10.33 L -7.75,-10.36 L -7.70,-10.38 L -7.64,-10.41 L -7.59,-10.43 L -7.53,-10.45 L -7.47,-10.46 L -7.41,-10.47 L -7.34,-10.48 L -7.27,-10.48 L -7.21,-10.48 L -7.21,-10.89 Z" />
    <path class="fBLACK sBLACK" style="stroke-width:0.04" d="M -4.02,-10.82 L -4.11,-10.83 L -4.20,-10.84 L -4.30,-10.85 L -4.39,-10.85 L -4.46,-10.84 L -4.53,-10.83 L -4.59,-10.81 L -4.66,-10.78 L -4.71,-10.75 L -4.76,-10.71 L -4.80,-10.66 L -4.83,-10.61 L -4.85,-10.57 L -4.87,-10.52 L -4.89,-10.47 L -4.90,-10.43 L -4.91,-10.38 L -4.92,-10.33 L -4.92,-10.28 L -4.92,-10.23 L -4.92,-9.86 L -5.36,-9.86 L -5.36,-9.53 L -4.92,-9.53 L -4.92,-7.38 L -4.50,-7.38 L -4.50,-9.53 L -4.02,-9.53 L -4.02,-9.86 L -4.50,-9.86 L -4.50,-10.07 L -4.50,-10.13 L -4.49,-10.19 L -4.49,-10.24 L -4.48,-10.30 L -4.46,-10.33 L -4.45,-10.36 L -4.43,-10.38 L -4.40,-10.40 L -4.35,-10.43 L -4.30,-10.45 L -4.25,-10.46 L -4.19,-10.46 L -4.06,-10.45 L -4.02,-10.45 L -4.02,-10.82 Z" />
    <path class="fBLACK sBLACK" style="stroke-width:0.04" d="M -2.69,-10.82 L -2.79,-10.83 L -2.88,-10.84 L -2.98,-10.85 L -3.07,-10.85 L -3.14,-10.84 L -3.21,-10.83 L -3.27,-10.81 L -3.34,-10.78 L -3.39,-10.75 L -3.44,-10.71 L -3.48,-10.66 L -3.51,-10.61 L -3.53,-10.57 L -3.55,-10.52 L -3.57,-10.47 L -3.58,-10.43 L -3.59,-10.38 L -3.60,-10.33 L -3.60,-10.28 L -3.60,-10.23 L -3.60,-9.86 L -4.04,-9.86 L -4.04,-9.53 L -3.60,-9.53 L -3.60,-7.38 L -3.17,-7.38 L -3.17,-9.53 L -2.69,-9.53 L -2.69,-9.86 L -3.17,-9.86 L -3.17,-10.07 L -3.18,-10.13 L -3.17,-10.19 L -3.17,-10.24 L -3.16,-10.30 L -3.14,-10.33 L -3.13,-10.36 L -3.10,-10.38 L -3.08,-10.40 L -3.03,-10.43 L -2.98,-10.45 L -2.93,-10.46 L -2.87,-10.46 L -2.74,-10.45 L -2.69,-10.45 L -2.69,-10.82 Z" />
    <path class="fBLACK sBLACK" style="stroke-width:0.04" d="M 1.10,-9.80 L 1.10,-9.73 L 1.09,-9.67 L 1.08,-9.60 L 1.06,-9.54 L 1.03,-9.49 L 1.01,-9.45 L 0.98,-9.41 L 0.94,-9.38 L 0.90,-9.34 L 0.86,-9.32 L 0.82,-9.29 L 0.77,-9.28 L 0.71,-9.26 L 0.65,-9.24 L 0.59,-9.24 L 0.53,-9.23 L 0.31,-9.23 L -0.54,-9.23 L -0.54,-8.82 L 0.23,-8.82 L 0.37,-8.82 L 0.51,-8.82 L 0.65,-8.83 L 0.79,-8.84 L 0.85,-8.85 L 0.91,-8.87 L 0.96,-8.88 L 1.02,-8.91 L 1.07,-8.93 L 1.13,-8.96 L 1.18,-8.99 L 1.23,-9.03 L 1.27,-9.07 L 1.32,-9.11 L 1.36,-9.15 L 1.40,-9.20 L 1.43,-9.25 L 1.46,-9.30 L 1.49,-9.36 L 1.51,-9.41 L 1.54,-9.51 L 1.56,-9.61 L 1.58,-9.71 L 1.58,-9.81 L 1.10,-9.80 Z" />
    <path class="fBLACK sBLACK" style="stroke-width:0.04" d="M 1.58,-9.81 L 1.57,-9.92 L 1.56,-10.03 L 1.54,-10.11 L 1.52,-10.18 L 1.50,-10.25 L 1.47,-10.32 L 1.43,-10.38 L 1.38,-10.44 L 1.34,-10.50 L 1.28,-10.55 L 1.23,-10.60 L 1.17,-10.64 L 1.11,-10.68 L 1.04,-10.71 L 0.97,-10.73 L 0.91,-10.75 L 0.84,-10.77 L 0.77,-10.78 L 0.62,-10.79 L 0.48,-10.80 L 0.34,-10.80 L 0.20,-10.80 L -1.00,-10.80 L -1.00,-7.38 L -0.54,-7.38 L -0.54,-8.82 L -0.54,-9.23 L -0.54,-10.38 L 0.35,-10.38 L 0.49,-10.37 L 0.63,-10.36 L 0.70,-10.35 L 0.76,-10.33 L 0.82,-10.31 L 0.88,-10.28 L 0.92,-10.25 L 0.95,-10.22 L 0.99,-10.18 L 1.02,-10.14 L 1.04,-10.10 L 1.06,-10.06 L 1.08,-10.01 L 1.09,-9.96 L 1.10,-9.88 L 1.10,-9.80 L 1.58,-9.81 Z" />
    <path class="fBLACK sBLACK" style="stroke-width:0.04" d="M 3.81,-8.55 L 3.80,-8.48 L 3.80,-8.41 L 3.79,-8.34 L 3.77,-8.27 L 3.75,-8.19 L 3.73,-8.13 L 3.71,-8.06 L 3.69,-8.01 L 3.66,-7.97 L 3.64,-7.93 L 3.61,-7.90 L 3.58,-7.86 L 3.54,-7.83 L 3.50,-7.80 L 3.46,-7.77 L 3.42,-7.75 L 3.38,-7.73 L 3.33,-7.71 L 3.29,-7.69 L 3.24,-7.68 L 3.19,-7.68 L 3.15,-7.67 L 3.10,-7.67 L 3.05,-7.67 L 3.00,-7.68 L 2.95,-7.68 L 2.91,-7.69 L 2.86,-7.71 L 2.81,-7.73 L 2.77,-7.75 L 2.73,-7.77 L 2.69,-7.80 L 2.65,-7.83 L 2.61,-7.86 L 2.58,-7.90 L 2.55,-7.94 L 2.52,-7.98 L 2.50,-8.02 L 2.48,-8.06 L 2.46,-8.13 L 2.43,-8.20 L 2.42,-8.27 L 2.40,-8.34 L 2.39,-8.41 L 2.38,-8.48 L 1.96,-8.47 L 1.97,-8.32 L 1.99,-8.21 L 2.01,-8.10 L 2.05,-7.98 L 2.10,-7.88 L 2.14,-7.80 L 2.20,-7.72 L 2.25,-7.65 L 2.32,-7.58 L 2.38,-7.52 L 2.46,-7.47 L 2.54,-7.42 L 2.62,-7.38 L 2.68,-7.36 L 2.73,-7.35 L 2.79,-7.33 L 2.85,-7.32 L 2.91,-7.31 L 2.97,-7.31 L 3.03,-7.30 L 3.09,-7.30 L 3.16,-7.31 L 3.23,-7.31 L 3.30,-7.32 L 3.36,-7.33 L 3.42,-7.34 L 3.48,-7.35 L 3.53,-7.37 L 3.58,-7.39 L 3.63,-7.42 L 3.68,-7.44 L 3.73,-7.47 L 3.78,-7.51 L 3.85,-7.57 L 3.91,-7.63 L 3.97,-7.70 L 4.03,-7.78 L 4.07,-7.85 L 4.11,-7.94 L 4.15,-8.02 L 4.17,-8.11 L 4.20,-8.24 L 4.22,-8.36 L 4.23,-8.49 L 3.81,-8.55 Z" />
    <path class="fBLACK sBLACK" style="stroke-width:0.04" d="M 3.09,-9.94 L 3.03,-9.94 L 2.97,-9.94 L 2.91,-9.93 L 2.85,-9.92 L 2.79,-9.91 L 2.73,-9.90 L 2.68,-9.88 L 2.62,-9.86 L 2.56,-9.83 L 2.51,-9.80 L 2.46,-9.77 L 2.41,-9.73 L 2.36,-9.70 L 2.32,-9.65 L 2.27,-9.61 L 2.23,-9.57 L 2.19,-9.52 L 2.16,-9.47 L 2.13,-9.42 L 2.10,-9.36 L 2.07,-9.31 L 2.05,-9.25 L 2.03,-9.19 L 2.01,-9.13 L 1.98,-9.01 L 1.96,-8.88 L 1.95,-8.75 L 1.95,-8.62 L 1.96,-8.47 L 2.38,-8.48 L 2.38,-8.55 L 2.38,-8.62 L 2.38,-8.70 L 2.38,-8.77 L 2.39,-8.84 L 2.40,-8.91 L 2.42,-8.98 L 2.43,-9.05 L 2.46,-9.12 L 2.48,-9.18 L 2.50,-9.23 L 2.53,-9.27 L 2.55,-9.31 L 2.58,-9.35 L 2.62,-9.38 L 2.65,-9.42 L 2.69,-9.45 L 2.73,-9.47 L 2.77,-9.50 L 2.82,-9.52 L 2.86,-9.54 L 2.91,-9.55 L 2.95,-9.56 L 3.00,-9.57 L 3.05,-9.57 L 3.10,-9.57 L 3.09,-9.94 Z" />
    <path class="fBLACK sBLACK" style="stroke-width:0.04" d="M 3.10,-9.57 L 3.15,-9.57 L 3.19,-9.57 L 3.24,-9.56 L 3.29,-9.55 L 3.33,-9.54 L 3.38,-9.52 L 3.42,-9.50 L 3.46,-9.47 L 3.50,-9.44 L 3.54,-9.41 L 3.57,-9.38 L 3.61,-9.35 L 3.64,-9.31 L 3.66,-9.27 L 3.69,-9.23 L 3.71,-9.18 L 3.73,-9.12 L 3.75,-9.05 L 3.77,-8.98 L 3.79,-8.91 L 3.80,-8.84 L 3.80,-8.77 L 3.81,-8.70 L 3.81,-8.62 L 3.81,-8.55 L 4.23,-8.49 L 4.23,-8.62 L 4.23,-8.77 L 4.22,-8.91 L 4.20,-9.03 L 4.17,-9.15 L 4.13,-9.26 L 4.08,-9.37 L 4.04,-9.45 L 3.99,-9.52 L 3.93,-9.59 L 3.87,-9.66 L 3.80,-9.72 L 3.73,-9.77 L 3.65,-9.82 L 3.57,-9.86 L 3.51,-9.88 L 3.45,-9.90 L 3.40,-9.91 L 3.34,-9.92 L 3.28,-9.93 L 3.22,-9.94 L 3.15,-9.94 L 3.09,-9.94 L 3.10,-9.57 Z" />
    <path class="fBLACK sBLACK" style="stroke-width:0.04" d="M 5.14,-9.04 L 5.12,-9.06 L 5.10,-9.08 L 5.08,-9.11 L 5.07,-9.14 L 5.06,-9.17 L 5.05,-9.20 L 5.05,-9.23 L 5.05,-9.27 L 5.06,-9.31 L 5.07,-9.35 L 5.09,-9.39 L 5.11,-9.42 L 5.14,-9.45 L 5.17,-9.48 L 5.20,-9.50 L 5.24,-9.52 L 5.28,-9.54 L 5.32,-9.56 L 5.37,-9.57 L 5.41,-9.58 L 5.46,-9.58 L 5.50,-9.59 L 5.55,-9.58 L 5.64,-9.58 L 5.73,-9.57 L 5.82,-9.55 L 5.90,-9.52 L 5.94,-9.50 L 5.97,-9.48 L 6.00,-9.46 L 6.03,-9.43 L 6.05,-9.40 L 6.08,-9.37 L 6.10,-9.34 L 6.11,-9.30 L 6.13,-9.24 L 6.14,-9.17 L 6.55,-9.17 L 6.55,-9.24 L 6.54,-9.30 L 6.53,-9.36 L 6.51,-9.42 L 6.48,-9.49 L 6.45,-9.55 L 6.40,-9.61 L 6.35,-9.67 L 6.30,-9.72 L 6.24,-9.76 L 6.18,-9.80 L 6.11,-9.83 L 6.05,-9.86 L 5.98,-9.88 L 5.92,-9.90 L 5.85,-9.91 L 5.78,-9.93 L 5.71,-9.94 L 5.64,-9.94 L 5.57,-9.94 L 5.50,-9.94 L 5.43,-9.94 L 5.36,-9.93 L 5.29,-9.92 L 5.22,-9.90 L 5.16,-9.88 L 5.09,-9.86 L 5.02,-9.83 L 4.98,-9.81 L 4.94,-9.78 L 4.90,-9.76 L 4.86,-9.73 L 4.83,-9.70 L 4.80,-9.66 L 4.77,-9.62 L 4.74,-9.58 L 4.71,-9.54 L 4.69,-9.50 L 4.68,-9.46 L 4.66,-9.41 L 4.65,-9.36 L 4.64,-9.32 L 4.63,-9.27 L 4.63,-9.22 L 4.63,-9.15 L 4.64,-9.08 L 4.66,-9.01 L 4.68,-8.95 L 4.70,-8.89 L 4.74,-8.84 L 4.78,-8.79 L 4.82,-8.74 L 4.87,-8.70 L 4.93,-8.67 L 5.14,-9.04 Z" />
    <path class="fBLACK sBLACK" style="stroke-width:0.04" d="M 5.58,-7.30 L 5.69,-7.31 L 5.80,-7.32 L 5.90,-7.33 L 6.00,-7.35 L 6.10,-7.38 L 6.19,-7.42 L 6.24,-7.45 L 6.28,-7.47 L 6.33,-7.51 L 6.37,-7.54 L 6.41,-7.58 L 6.45,-7.62 L 6.48,-7.66 L 6.51,-7.71 L 6.54,-7.76 L 6.56,-7.81 L 6.58,-7.86 L 6.60,-7.91 L 6.61,-7.96 L 6.62,-8.02 L 6.62,-8.07 L 6.62,-8.12 L 6.62,-8.21 L 6.60,-8.30 L 6.59,-8.35 L 6.57,-8.40 L 6.55,-8.45 L 6.52,-8.49 L 6.49,-8.53 L 6.46,-8.57 L 6.42,-8.61 L 6.38,-8.64 L 6.31,-8.68 L 6.24,-8.72 L 6.17,-8.75 L 6.10,-8.77 L 5.86,-8.83 L 5.45,-8.93 L 5.37,-8.94 L 5.30,-8.96 L 5.24,-8.99 L 5.17,-9.02 L 5.14,-9.04 L 4.93,-8.67 L 5.03,-8.62 L 5.13,-8.58 L 5.23,-8.55 L 5.34,-8.52 L 5.81,-8.41 L 5.96,-8.37 L 6.00,-8.35 L 6.03,-8.34 L 6.07,-8.32 L 6.10,-8.30 L 6.12,-8.28 L 6.14,-8.25 L 6.16,-8.23 L 6.17,-8.21 L 6.18,-8.18 L 6.19,-8.15 L 6.20,-8.12 L 6.20,-8.09 L 6.20,-8.05 L 6.19,-8.00 L 6.18,-7.96 L 6.16,-7.92 L 6.14,-7.88 L 6.11,-7.84 L 6.08,-7.81 L 6.05,-7.78 L 6.01,-7.76 L 5.97,-7.74 L 5.88,-7.71 L 5.79,-7.69 L 5.70,-7.67 L 5.61,-7.67 L 5.58,-7.30 Z" />
    <path class="fBLACK sBLACK" style="stroke-width:0.04" d="M 5.61,-7.67 L 5.54,-7.67 L 5.48,-7.68 L 5.41,-7.69 L 5.35,-7.70 L 5.30,-7.72 L 5.24,-7.74 L 5.19,-7.77 L 5.14,-7.81 L 5.10,-7.85 L 5.06,-7.90 L 5.03,-7.95 L 5.01,-8.01 L 4.99,-8.10 L 4.97,-8.19 L 4.56,-8.19 L 4.56,-8.13 L 4.57,-8.08 L 4.57,-8.02 L 4.58,-7.97 L 4.60,-7.91 L 4.61,-7.86 L 4.63,-7.81 L 4.66,-7.76 L 4.70,-7.69 L 4.75,-7.62 L 4.80,-7.56 L 4.87,-7.50 L 4.93,-7.45 L 5.01,-7.41 L 5.08,-7.38 L 5.16,-7.36 L 5.27,-7.33 L 5.37,-7.32 L 5.48,-7.31 L 5.58,-7.30 L 5.61,-7.67 Z" />
    <path class="fBLACK sBLACK" style="stroke-width:0.04" d="M 9.13,-8.87 L 9.13,-8.99 L 9.13,-9.11 L 9.12,-9.23 L 9.11,-9.35 L 9.10,-9.41 L 9.08,-9.47 L 9.06,-9.53 L 9.03,-9.59 L 8.99,-9.64 L 8.95,-9.69 L 8.91,-9.73 L 8.86,-9.77 L 8.81,-9.80 L 8.76,-9.83 L 8.70,-9.86 L 8.64,-9.87 L 8.55,-9.90 L 8.46,-9.91 L 8.36,-9.92 L 8.27,-9.92 L 8.18,-9.92 L 8.09,-9.91 L 8.00,-9.89 L 7.91,-9.86 L 7.85,-9.83 L 7.79,-9.80 L 7.74,-9.76 L 7.68,-9.72 L 7.63,-9.67 L 7.59,-9.63 L 7.54,-9.57 L 7.51,-9.52 L 7.51,-9.86 L 7.11,-9.86 L 7.11,-7.38 L 7.52,-7.38 L 7.52,-8.80 L 7.53,-8.88 L 7.53,-8.97 L 7.54,-9.04 L 7.56,-9.10 L 7.58,-9.16 L 7.61,-9.22 L 7.64,-9.28 L 7.68,-9.33 L 7.73,-9.37 L 7.78,-9.42 L 7.83,-9.45 L 7.88,-9.48 L 7.94,-9.50 L 7.99,-9.52 L 8.05,-9.54 L 8.11,-9.55 L 8.17,-9.55 L 8.23,-9.56 L 8.27,-9.56 L 8.32,-9.55 L 8.36,-9.55 L 8.40,-9.54 L 8.44,-9.53 L 8.47,-9.51 L 8.51,-9.49 L 8.54,-9.47 L 8.57,-9.45 L 8.60,-9.42 L 8.62,-9.39 L 8.64,-9.36 L 8.67,-9.28 L 8.69,-9.21 L 8.71,-9.13 L 8.71,-9.05 L 8.71,-7.38 L 9.13,-7.38 L 9.13,-8.87 Z" />
    <path class="fWHITE sWHITE" style="stroke-width:0.04" d="M -0.49,-1.94 L -0.49,-0.33 L -0.20,-0.33 L -0.20,-1.94 L -0.49,-1.94 Z" />
    <path class="fWHITE sWHITE" style="stroke-width:0.04" d="M -0.20,-1.94 L 0.10,-1.94 L 0.17,-1.93 L 0.22,-1.93 L 0.27,-1.92 L 0.31,-1.91 L 0.35,-1.90 L 0.39,-1.87 L 0.44,-1.83 L 0.50,-1.77 L 0.54,-1.69 L 0.57,-1.60 L 0.59,-1.47 L 0.59,-1.37 L 0.58,-1.29 L 0.55,-1.21 L 0.52,-1.15 L 0.48,-1.09 L 0.42,-1.04 L 0.36,-1.00 L 0.28,-0.96 L 0.20,-0.95 L 0.13,-0.94 L 0.07,-0.94 L -0.20,-0.94 L -0.20,-1.21 L -0.08,-1.21 L 0.05,-1.21 L 0.13,-1.22 L 0.19,-1.24 L 0.23,-1.27 L 0.26,-1.32 L 0.28,-1.36 L 0.29,-1.41 L 0.30,-1.46 L 0.29,-1.51 L 0.28,-1.54 L 0.25,-1.58 L 0.23,-1.61 L 0.20,-1.63 L 0.17,-1.65 L 0.14,-1.66 L 0.09,-1.66 L 0.01,-1.67 L -0.20,-1.67 L -0.20,-1.94 Z" />
    <circle class="pivotPoint layout" fill="none" cx="0" cy="0" r="0.2" />
  </g>
</svg>