<?xml version="1.0" encoding="UTF-8"?>
<?xml-stylesheet type='text/css' href='S401Style.css'?>
<svg version="1.2" baseProfile="tiny" style="shape-rendering:geometricPrecision; fill-rule:evenodd;" width="6.14mm" height="8.76mm" viewBox="-3.02 -5.32 6.16 8.78" xmlns="http://www.w3.org/2000/svg">
  <title>DFND02O</title>
  <desc>buoy berth left-hand side - on position</desc>
  <metadata />
  <g>
    <path class="f0 sBLACK" style="stroke-width:0.24" d="M -3.01,-0.93 L 0.06,-5.31 L 3.13,-0.93 L 0.06,3.45 L -3.01,-0.93 Z" />
    <path class="f0 sBLACK" style="stroke-width:0.24" d="M -2.76,-0.93 L 0.06,-4.96 L 2.89,-0.93 L 0.06,3.10 L -2.76,-0.93 Z" />
    <path class="fMIDGN sBLACK" style="stroke-width:0.12" d="M -1.85,0.00 L 1.85,0.00 L 1.85,-0.60 L 1.34,-0.59 L 0.00,-2.71 L -1.34,-0.57 L -1.85,-0.57 L -1.85,0.00 Z" />
    <path class="fWHITE sWHITE" style="stroke-width:0.04" d="M -0.43,-1.69 L -0.43,-0.20 L -0.16,-0.20 L -0.16,-1.69 L -0.43,-1.69 Z" />
    <path class="fWHITE sWHITE" style="stroke-width:0.04" d="M -0.16,-1.69 L 0.12,-1.69 L 0.18,-1.69 L 0.23,-1.68 L 0.28,-1.68 L 0.31,-1.67 L 0.35,-1.66 L 0.39,-1.63 L 0.44,-1.59 L 0.49,-1.54 L 0.53,-1.46 L 0.56,-1.38 L 0.57,-1.26 L 0.57,-1.16 L 0.56,-1.09 L 0.53,-1.01 L 0.51,-0.96 L 0.47,-0.91 L 0.42,-0.85 L 0.36,-0.82 L 0.29,-0.79 L 0.21,-0.77 L 0.15,-0.77 L 0.09,-0.76 L -0.16,-0.76 L -0.16,-1.02 L -0.04,-1.02 L 0.07,-1.02 L 0.15,-1.03 L 0.20,-1.05 L 0.23,-1.07 L 0.27,-1.11 L 0.29,-1.15 L 0.30,-1.20 L 0.30,-1.24 L 0.29,-1.29 L 0.28,-1.33 L 0.26,-1.36 L 0.24,-1.38 L 0.21,-1.41 L 0.18,-1.42 L 0.16,-1.43 L 0.11,-1.44 L 0.03,-1.44 L -0.16,-1.44 L -0.16,-1.69 Z" />
    <circle class="pivotPoint layout" fill="none" cx="0" cy="0" r="0.2" />
  </g>
</svg>