<?xml version="1.0" encoding="UTF-8"?>
<?xml-stylesheet type='text/css' href='S401Style.css'?>
<svg version="1.2" baseProfile="tiny" style="shape-rendering:geometricPrecision; fill-rule:evenodd;" width="6.14mm" height="8.76mm" viewBox="-3.04 -5.35 6.16 8.78" xmlns="http://www.w3.org/2000/svg">
  <title>DFND01O</title>
  <desc>buoy berth right-hand side - on position</desc>
  <metadata />
  <g>
    <path class="fORRED sBLACK" style="stroke-width:0.12" d="M -2.05,0.00 L -2.05,-0.65 L -1.33,-1.00 L -1.33,-2.30 L 1.33,-2.30 L 1.33,-1.00 L 2.05,-0.65 L 2.05,0.00 L -2.05,0.00 Z" />
    <path class="f0 sBLACK" style="stroke-width:0.24" d="M -3.03,-0.96 L 0.04,-5.34 L 3.11,-0.96 L 0.04,3.42 L -3.03,-0.96 " />
    <path class="f0 sBLACK" style="stroke-width:0.24" d="M -2.79,-0.96 L 0.04,-4.99 L 2.86,-0.96 L 0.04,3.07 L -2.79,-0.96 " />
    <path class="fWHITE sWHITE" style="stroke-width:0.04" d="M -0.49,-1.94 L -0.49,-0.33 L -0.20,-0.33 L -0.20,-1.94 L -0.49,-1.94 Z" />
    <path class="fWHITE sWHITE" style="stroke-width:0.04" d="M -0.20,-1.94 L 0.10,-1.94 L 0.17,-1.93 L 0.22,-1.93 L 0.27,-1.92 L 0.31,-1.91 L 0.35,-1.90 L 0.39,-1.87 L 0.44,-1.83 L 0.50,-1.77 L 0.54,-1.69 L 0.57,-1.60 L 0.59,-1.47 L 0.59,-1.37 L 0.58,-1.29 L 0.55,-1.21 L 0.52,-1.15 L 0.48,-1.09 L 0.42,-1.04 L 0.36,-1.00 L 0.28,-0.96 L 0.20,-0.95 L 0.13,-0.94 L 0.07,-0.94 L -0.20,-0.94 L -0.20,-1.21 L -0.08,-1.21 L 0.05,-1.21 L 0.13,-1.22 L 0.19,-1.24 L 0.23,-1.27 L 0.26,-1.32 L 0.28,-1.36 L 0.29,-1.41 L 0.30,-1.46 L 0.29,-1.51 L 0.28,-1.54 L 0.25,-1.58 L 0.23,-1.61 L 0.20,-1.63 L 0.17,-1.65 L 0.14,-1.66 L 0.09,-1.66 L 0.01,-1.67 L -0.20,-1.67 L -0.20,-1.94 Z" />
    <circle class="pivotPoint layout" fill="none" cx="0" cy="0" r="0.2" />
  </g>
</svg>