<?xml version="1.0" encoding="utf-8"?>
<?xml-stylesheet type='text/css' href='S401Style.css'?>
<svg version="1.2" baseProfile="tiny" style="shape-rendering:geometricPrecision; fill-rule:evenodd;" width="3.40mm" height="4.60mm" viewBox="-1.71 -2.31 3.42 4.62" xmlns="http://www.w3.org/2000/svg">
  <title>HRBFAC13</title>
  <desc>harbour facility harbour-master's office</desc>
  <metadata>
    <iho:S100SVG xmlns:iho="http://www.iho.int/SVGMetadata">
      <iho:Description iho:publisher="IEHG" iho:creationDate="2015-07-29" iho:source="" iho:format="IENC signs, Europe, SVG" iho:version="0.1" />
    </iho:S100SVG>
  </metadata>
  <g>
    <path class="fLITGY sBLACK" style="stroke-width:0.08" d="M 1.70,0.00 L 1.70,-0.14 L 1.69,-0.27 L 1.67,-0.40 L 1.65,-0.54 L 1.63,-0.67 L 1.59,-0.80 L 1.56,-0.92 L 1.51,-1.05 L 1.47,-1.16 L 1.41,-1.28 L 1.35,-1.39 L 1.29,-1.50 L 1.22,-1.60 L 1.15,-1.69 L 1.08,-1.78 L 1.00,-1.86 L 0.91,-1.94 L 0.83,-2.01 L 0.74,-2.07 L 0.65,-2.13 L 0.55,-2.17 L 0.46,-2.21 L 0.36,-2.25 L 0.26,-2.27 L 0.16,-2.29 L 0.06,-2.30 L -0.04,-2.30 L -0.14,-2.29 L -0.24,-2.28 L -0.34,-2.25 L -0.43,-2.22 L -0.53,-2.19 L -0.62,-2.14 L -0.72,-2.09 L -0.81,-2.03 L -0.89,-1.96 L -0.98,-1.88 L -1.06,-1.80 L -1.13,-1.71 L -1.21,-1.62 L -1.27,-1.52 L -1.34,-1.42 L -1.40,-1.31 L -1.45,-1.20 L -1.50,-1.08 L -1.55,-0.96 L -1.59,-0.83 L -1.62,-0.70 L -1.65,-0.57 L -1.67,-0.44 L -1.68,-0.31 L -1.70,-0.17 L -1.70,-0.04 L -1.70,0.10 L -1.69,0.23 L -1.68,0.37 L -1.66,0.50 L -1.63,0.63 L -1.60,0.76 L -1.57,0.89 L -1.53,1.01 L -1.48,1.13 L -1.43,1.25 L -1.37,1.36 L -1.31,1.47 L -1.24,1.57 L -1.17,1.67 L -1.10,1.76 L -1.02,1.84 L -0.94,1.92 L -0.85,1.99 L -0.76,2.05 L -0.67,2.11 L -0.58,2.16 L -0.48,2.20 L -0.39,2.24 L -0.29,2.27 L -0.19,2.29 L -0.09,2.30 L 0.01,2.30 L 0.11,2.30 L 0.21,2.28 L 0.31,2.26 L 0.41,2.23 L 0.50,2.20 L 0.60,2.15 L 0.69,2.10 L 0.78,2.04 L 0.87,1.98 L 0.95,1.90 L 1.04,1.82 L 1.11,1.74 L 1.19,1.65 L 1.26,1.55 L 1.32,1.45 L 1.38,1.34 L 1.44,1.23 L 1.49,1.11 L 1.53,0.99 L 1.58,0.86 L 1.61,0.74 L 1.64,0.61 L 1.66,0.48 L 1.68,0.34 L 1.69,0.21 L 1.70,0.07 L 1.70,0.00 " />
    <path class="f0 sBLACK" style="stroke-width:0.08" d="M -0.26,-1.23 L 0.02,-0.96 " />
    <path class="f0 sBLACK" style="stroke-width:0.08" d="M 0.02,-0.96 L 0.28,-1.24 " />
    <path class="f0 sBLACK" style="stroke-width:0.08" d="M 0.28,-1.24 L 0.01,-1.51 " />
    <path class="f0 sBLACK" style="stroke-width:0.08" d="M 0.01,-1.51 L -0.26,-1.23 " />
    <path class="fBLACK sBLACK" style="stroke-width:0.04" d="M -0.95,0.76 L -0.49,1.24 L -0.39,1.24 L 0.40,1.24 L 0.53,1.24 L 0.97,0.73 L 1.19,0.73 L 1.19,0.53 L 0.85,0.53 L 0.40,1.03 L 0.11,1.03 L 0.11,-0.72 L 0.74,-0.72 L 0.74,-0.95 L -0.70,-0.95 L -0.70,-0.72 L -0.10,-0.72 L -0.10,1.03 L -0.39,1.03 L -0.83,0.54 L -1.16,0.54 L -1.16,0.76 L -0.95,0.76 Z" />
    <circle class="pivotPoint layout" fill="none" cx="0" cy="0" r="0.2" />
  </g>
</svg>