<?xml version="1.0" encoding="utf-8"?>
<?xml-stylesheet type='text/css' href='S401Style.css'?>
<svg version="1.2" baseProfile="tiny" style="shape-rendering:geometricPrecision; fill-rule:evenodd;" width="3.30mm" height="3.30mm" viewBox="-1.66 -1.66 3.32 3.32" xmlns="http://www.w3.org/2000/svg">
  <title>LIFEBUOY01</title>
  <desc>rescue station with life buoy, ring buoy, life ring or life saver</desc>
  <metadata>
    <iho:S100SVG xmlns:iho="http://www.iho.int/SVGMetadata">
      <iho:Description iho:publisher="IEHG" iho:creationDate="2015-07-16" iho:source="" iho:format="IENC signs, Europe, SVG" iho:version="0.1" />
    </iho:S100SVG>
  </metadata>
  <g>
    <circle cx="0.00" cy="0.00" r="1.65" class="fWHITE sMIDRD" style="stroke-width:0.16" />
    <path class="fMIDRD sMIDRD" style="stroke-width:0" d="M -1.52,0.63 L -1.48,0.74 L -1.42,0.84 L -1.36,0.93 L -1.29,1.03 L -1.22,1.11 L -1.14,1.20 L -1.05,1.27 L -0.96,1.34 L -0.86,1.41 L -0.76,1.46 L -0.66,1.51 L -0.63,1.52 L -0.41,0.98 L -0.49,0.94 L -0.57,0.90 L -0.65,0.85 L -0.72,0.79 L -0.78,0.72 L -0.84,0.65 L -0.90,0.58 L -0.94,0.50 L -0.98,0.41 L -0.98,0.41 L -1.52,0.63 Z" />
    <path class="fMIDRD sMIDRD" style="stroke-width:0" d="M -1.52,0.63 L -1.48,0.74 L -1.42,0.84 L -1.36,0.93 L -1.29,1.03 L -1.22,1.11 L -1.14,1.20 L -1.05,1.27 L -0.96,1.34 L -0.86,1.41 L -0.76,1.46 L -0.66,1.51 L -0.63,1.52 L -0.41,0.98 L -0.49,0.94 L -0.57,0.90 L -0.65,0.85 L -0.72,0.79 L -0.78,0.72 L -0.84,0.65 L -0.90,0.58 L -0.94,0.50 L -0.98,0.41 L -0.98,0.41 L -1.52,0.63 Z" />
    <path class="fMIDRD sMIDRD" style="stroke-width:0" d="M -0.98,-0.41 L -0.94,-0.49 L -0.90,-0.57 L -0.85,-0.65 L -0.79,-0.72 L -0.72,-0.78 L -0.65,-0.84 L -0.58,-0.90 L -0.50,-0.94 L -0.41,-0.98 L -0.41,-0.98 L -0.63,-1.52 L -0.74,-1.48 L -0.84,-1.42 L -0.93,-1.36 L -1.03,-1.29 L -1.11,-1.22 L -1.20,-1.14 L -1.27,-1.05 L -1.34,-0.96 L -1.41,-0.86 L -1.46,-0.76 L -1.51,-0.66 L -1.52,-0.63 L -0.98,-0.41 Z" />
    <path class="fMIDRD sMIDRD" style="stroke-width:0" d="M 1.52,-0.63 L 1.48,-0.74 L 1.42,-0.84 L 1.36,-0.93 L 1.29,-1.03 L 1.22,-1.11 L 1.14,-1.20 L 1.05,-1.27 L 0.96,-1.34 L 0.86,-1.41 L 0.76,-1.46 L 0.66,-1.51 L 0.63,-1.52 L 0.41,-0.98 L 0.49,-0.94 L 0.57,-0.90 L 0.65,-0.85 L 0.72,-0.79 L 0.78,-0.72 L 0.84,-0.65 L 0.90,-0.58 L 0.94,-0.50 L 0.98,-0.41 L 0.98,-0.41 L 1.52,-0.63 Z" />
    <path class="fMIDRD sMIDRD" style="stroke-width:0" d="M 0.63,1.52 L 0.74,1.48 L 0.84,1.42 L 0.93,1.36 L 1.03,1.29 L 1.11,1.22 L 1.20,1.14 L 1.27,1.05 L 1.34,0.96 L 1.41,0.86 L 1.46,0.76 L 1.51,0.66 L 1.52,0.63 L 0.98,0.41 L 0.94,0.49 L 0.90,0.57 L 0.85,0.65 L 0.79,0.72 L 0.72,0.78 L 0.65,0.84 L 0.58,0.90 L 0.50,0.94 L 0.41,0.98 L 0.41,0.98 L 0.63,1.52 Z" />
    <circle cx="0.00" cy="0.00" r="1.07" class="f0 sMIDRD" style="stroke-width:0.16" />
    <circle class="pivotPoint layout" fill="none" cx="0" cy="0" r="0.2" />
  </g>
</svg>