<?xml version="1.0" encoding="UTF-8"?>
<?xml-stylesheet type='text/css' href='S401Style.css'?>
<svg version="1.2" baseProfile="tiny" style="shape-rendering:geometricPrecision; fill-rule:evenodd;" width="7.00mm" height="7.00mm" viewBox="-3.51 -3.51 7.02 7.02" xmlns="http://www.w3.org/2000/svg">
  <title>NMKAD008</title>
  <desc>no anchoring or trailing of anchors, cables or chains</desc>
  <metadata />
  <g>
    <path class="fMIDRD sMIDRD" style="stroke-width:0.04" d="M -3.50,3.50 L -3.50,-3.50 L 3.50,-3.50 L 3.50,3.50 L -3.50,3.50 Z" />
    <path class="fBLACK sBLACK" style="stroke-width:0" d="M -0.27,-2.00 L 0.26,-2.00 L 0.27,1.99 L -0.27,1.99 L -0.27,-2.00 Z" />
    <path class="fBLACK sBLACK" style="stroke-width:0.04" d="M 0.26,-1.14 L 1.04,-1.14 L 1.04,-0.69 L 0.26,-0.70 L 0.26,-1.14 Z" />
    <path class="fBLACK sBLACK" style="stroke-width:0.04" d="M -0.27,-0.70 L -1.06,-0.69 L -1.06,-1.14 L -0.27,-1.14 L -0.27,-0.70 Z" />
    <path class="fBLACK sBLACK" style="stroke-width:0.04" d="M 0.04,-2.03 L 0.08,-2.04 L 0.13,-2.06 L 0.17,-2.09 L 0.20,-2.12 L 0.23,-2.16 L 0.25,-2.20 L 0.26,-2.24 L 0.27,-2.29 L 0.26,-2.34 L 0.25,-2.38 L 0.23,-2.42 L 0.21,-2.46 L 0.18,-2.50 L 0.14,-2.53 L 0.10,-2.55 L 0.06,-2.56 L 0.01,-2.57 L -0.04,-2.57 L -0.08,-2.56 L -0.12,-2.54 L -0.16,-2.52 L -0.20,-2.48 L -0.23,-2.45 L -0.25,-2.41 L -0.27,-2.36 L -0.27,-2.32 L -0.27,-2.27 L -0.26,-2.23 L -0.25,-2.18 L -0.22,-2.14 L -0.19,-2.11 L -0.16,-2.08 L -0.12,-2.05 L -0.07,-2.04 L -0.04,-2.03 L 0.04,-2.03 Z" />
    <path class="fBLACK sBLACK" style="stroke-width:0" d="M -3.50,-3.50 L -3.07,-3.50 L 3.50,3.07 L 3.50,3.50 L 3.07,3.50 L -3.50,-3.07 L -3.50,-3.50 Z" />
    <path class="fBLACK sBLACK" style="stroke-width:0" d="M -2.47,0.75 L -2.82,0.91 L -2.58,-0.09 L -1.70,0.41 L -2.06,0.57 L -2.01,0.69 L -1.96,0.81 L -1.90,0.92 L -1.83,1.03 L -1.76,1.14 L -1.68,1.24 L -1.59,1.34 L -1.50,1.43 L -1.40,1.52 L -1.30,1.60 L -1.19,1.67 L -1.08,1.74 L -0.97,1.80 L -0.85,1.85 L -0.73,1.89 L -0.60,1.93 L -0.48,1.96 L -0.35,1.98 L -0.27,1.99 L 0.27,1.99 L 0.40,1.97 L 0.52,1.94 L 0.65,1.91 L 0.77,1.87 L 0.89,1.82 L 1.01,1.76 L 1.13,1.69 L 1.24,1.62 L 1.34,1.54 L 1.44,1.46 L 1.54,1.37 L 1.62,1.27 L 1.71,1.17 L 1.78,1.07 L 1.85,0.96 L 1.92,0.84 L 1.97,0.72 L 2.02,0.60 L 2.05,0.53 L 1.70,0.39 L 2.55,-0.09 L 2.83,0.85 L 2.45,0.70 L 2.41,0.83 L 2.35,0.96 L 2.29,1.08 L 2.23,1.20 L 2.15,1.32 L 2.07,1.43 L 1.98,1.54 L 1.89,1.65 L 1.79,1.74 L 1.69,1.83 L 1.58,1.92 L 1.46,2.00 L 1.34,2.07 L 1.22,2.14 L 1.09,2.19 L 0.96,2.24 L 0.83,2.29 L 0.83,2.29 L 0.00,2.78 L -0.83,2.29 L -0.96,2.25 L -1.09,2.20 L -1.22,2.15 L -1.34,2.09 L -1.46,2.03 L -1.57,1.95 L -1.68,1.87 L -1.79,1.79 L -1.89,1.69 L -1.98,1.60 L -2.07,1.49 L -2.15,1.38 L -2.23,1.27 L -2.30,1.15 L -2.36,1.03 L -2.41,0.91 L -2.46,0.78 L -2.47,0.75 Z" />
    <circle class="pivotPoint layout" fill="none" cx="0" cy="0" r="0.2" />
  </g>
</svg>