<?xml version="1.0" encoding="UTF-8"?>
<?xml-stylesheet type='text/css' href='S401Style.css'?>
<svg version="1.2" baseProfile="tiny" style="shape-rendering:geometricPrecision; fill-rule:evenodd;" width="7.00mm" height="7.00mm" viewBox="-3.51 -3.51 7.02 7.02" xmlns="http://www.w3.org/2000/svg">
  <title>NMKAD107</title>
  <desc>cross river to starboard</desc>
  <metadata />
  <g>
    <path class="fMIDRD sMIDRD" style="stroke-width:0.04" d="M -2.94,3.50 L 2.94,3.50 L 2.94,-3.50 L -2.94,-3.50 L -2.94,3.50 Z" />
    <path class="fBLACK sBLACK" style="stroke-width:0.04" d="M 2.94,3.50 L 3.50,3.50 L 3.50,-3.50 L 2.94,-3.50 L 2.94,3.50 Z" />
    <path class="fBLACK sBLACK" style="stroke-width:0.04" d="M -3.50,3.50 L -2.94,3.50 L -2.94,-3.50 L -3.50,-3.50 L -3.50,3.50 Z" />
    <path class="fBLACK sBLACK" style="stroke-width:0.04" d="M 1.91,-0.91 L 1.30,-0.91 L 1.30,-0.83 L 1.29,-0.75 L 1.27,-0.67 L 1.24,-0.59 L 1.20,-0.52 L 1.16,-0.45 L 1.11,-0.38 L 1.06,-0.32 L 1.00,-0.26 L 0.93,-0.22 L 0.86,-0.17 L 0.79,-0.14 L 0.71,-0.11 L 0.63,-0.09 L 0.57,-0.08 L -0.15,0.00 L -0.27,0.00 L -0.38,0.01 L -0.50,0.03 L -0.61,0.06 L -0.72,0.09 L -0.83,0.14 L -0.93,0.18 L -1.03,0.24 L -1.13,0.30 L -1.22,0.37 L -1.31,0.45 L -1.39,0.53 L -1.47,0.62 L -1.54,0.71 L -1.60,0.81 L -1.66,0.91 L -1.70,1.01 L -1.75,1.12 L -1.78,1.23 L -1.81,1.34 L -1.83,1.46 L -1.84,1.57 L -1.84,1.69 L -1.84,1.72 L -1.84,2.58 L -1.22,2.58 L -1.22,1.76 L -1.22,1.67 L -1.22,1.58 L -1.21,1.49 L -1.19,1.40 L -1.16,1.31 L -1.12,1.23 L -1.08,1.15 L -1.03,1.07 L -0.98,1.00 L -0.92,0.93 L -0.85,0.87 L -0.77,0.81 L -0.70,0.76 L -0.62,0.72 L -0.53,0.68 L -0.44,0.65 L -0.35,0.63 L -0.26,0.62 L -0.18,0.62 L 0.64,0.53 L 0.75,0.51 L 0.85,0.48 L 0.95,0.45 L 1.05,0.41 L 1.15,0.37 L 1.24,0.31 L 1.33,0.25 L 1.41,0.18 L 1.49,0.11 L 1.56,0.03 L 1.63,-0.05 L 1.69,-0.14 L 1.75,-0.24 L 1.79,-0.33 L 1.83,-0.43 L 1.86,-0.53 L 1.89,-0.64 L 1.90,-0.75 L 1.91,-0.85 L 1.91,-0.91 Z" />
    <path class="fBLACK sBLACK" style="stroke-width:0.04" d="M 0.81,-0.91 L 2.40,-0.91 L 1.61,-2.09 L 0.81,-0.91 Z" />
    <circle class="pivotPoint layout" fill="none" cx="0" cy="0" r="0.2" />
  </g>
</svg>