<?xml version="1.0" encoding="UTF-8"?>
<?xml-stylesheet type='text/css' href='S401Style.css'?>
<svg version="1.2" baseProfile="tiny" style="shape-rendering:geometricPrecision; fill-rule:evenodd;" width="7.00mm" height="7.00mm" viewBox="-3.51 -3.51 7.02 7.02" xmlns="http://www.w3.org/2000/svg">
  <title>NMKAD109</title>
  <desc>reduce speed</desc>
  <metadata />
  <g>
    <path class="fMIDRD sMIDRD" style="stroke-width:0.04" d="M -3.50,3.50 L -3.50,-3.50 L 3.50,-3.50 L 3.50,3.50 L -3.50,3.50 Z" />
    <path class="fBLACK sBLACK" style="stroke-width:0.04" d="M -1.86,-2.53 L -1.07,-2.53 L -1.07,2.55 L -1.86,2.55 L -1.86,-2.53 Z" />
    <path class="fBLACK sBLACK" style="stroke-width:0.04" d="M -0.80,0.21 L 0.28,0.21 L 2.62,2.56 L 1.54,2.56 L -0.80,0.21 Z" />
    <path class="fBLACK sBLACK" style="stroke-width:0.04" d="M 0.75,-1.73 L -1.07,-1.75 L -1.07,-2.53 L 0.79,-2.52 L 0.85,-2.51 L 0.89,-2.50 L 0.96,-2.48 L 1.04,-2.46 L 1.09,-2.44 L 1.19,-2.40 L 1.26,-2.37 L 1.29,-2.35 L 1.37,-2.31 L 1.41,-2.28 L 1.43,-2.26 L 1.46,-2.24 L 1.51,-2.20 L 1.58,-2.15 L 1.62,-2.10 L 1.65,-2.08 L 1.70,-2.02 L 1.75,-1.96 L 1.77,-1.93 L 1.80,-1.88 L 1.85,-1.81 L 1.88,-1.75 L 1.89,-1.72 L 1.91,-1.69 L 1.92,-1.65 L 1.95,-1.57 L 1.98,-1.49 L 1.98,-1.45 L 2.00,-1.37 L 2.01,-1.32 L 2.01,-1.24 L 2.02,-1.20 L 2.02,-1.15 L 2.01,-1.06 L 2.00,-0.98 L 1.99,-0.92 L 1.99,-0.88 L 1.97,-0.81 L 1.95,-0.75 L 1.92,-0.68 L 1.91,-0.65 L 1.87,-0.57 L 1.83,-0.49 L 1.81,-0.45 L 1.79,-0.43 L 1.77,-0.40 L 1.73,-0.35 L 1.68,-0.28 L 1.64,-0.24 L 1.61,-0.21 L 1.56,-0.16 L 1.50,-0.11 L 1.46,-0.08 L 1.42,-0.05 L 1.34,0.00 L 1.28,0.03 L 1.25,0.05 L 1.23,0.06 L 1.18,0.08 L 1.10,0.11 L 1.06,0.13 L 0.99,0.15 L 0.89,0.18 L 0.83,0.19 L 0.76,0.20 L 0.68,0.21 L 0.64,0.21 L 0.58,0.21 L -1.07,0.21 L -1.07,-0.49 L 0.67,-0.51 L 0.73,-0.54 L 0.78,-0.55 L 0.80,-0.57 L 0.86,-0.60 L 0.90,-0.63 L 0.92,-0.64 L 0.94,-0.66 L 0.96,-0.68 L 1.01,-0.73 L 1.05,-0.79 L 1.07,-0.82 L 1.08,-0.84 L 1.09,-0.86 L 1.11,-0.91 L 1.13,-0.95 L 1.13,-0.97 L 1.14,-1.01 L 1.15,-1.03 L 1.15,-1.10 L 1.16,-1.14 L 1.15,-1.19 L 1.14,-1.26 L 1.14,-1.29 L 1.12,-1.34 L 1.11,-1.36 L 1.10,-1.38 L 1.09,-1.41 L 1.06,-1.47 L 1.02,-1.53 L 1.00,-1.55 L 0.98,-1.57 L 0.96,-1.59 L 0.92,-1.62 L 0.88,-1.66 L 0.85,-1.68 L 0.81,-1.70 L 0.75,-1.73 Z" />
    <circle class="pivotPoint layout" fill="none" cx="0" cy="0" r="0.2" />
  </g>
</svg>