<?xml version="1.0" encoding="UTF-8"?>
<?xml-stylesheet type='text/css' href='S401Style.css'?>
<svg version="1.2" baseProfile="tiny" style="shape-rendering:geometricPrecision; fill-rule:evenodd;" width="7.00mm" height="7.00mm" viewBox="-3.51 -3.51 7.02 7.02" xmlns="http://www.w3.org/2000/svg">
  <title>NMKINF36</title>
  <desc>junction with main waterway ahead and right (secondary waterway left)</desc>
  <metadata />
  <g>
    <path class="fAZUBL sAZUBL" style="stroke-width:0.04" d="M -3.50,3.50 L -3.50,-3.50 L 3.50,-3.50 L 3.50,3.50 L -3.50,3.50 Z" />
    <path class="fWHITE sWHITE" style="stroke-width:0.04" d="M -3.50,-0.30 L -0.62,-0.30 L -0.62,0.30 L -3.50,0.30 L -3.50,-0.30 Z" />
    <path class="fWHITE sWHITE" style="stroke-width:0.04" d="M 3.50,-0.63 L -0.63,-0.63 L -0.63,0.63 L 3.50,0.63 L 3.50,-0.63 Z" />
    <path class="fWHITE sWHITE" style="stroke-width:0.04" d="M 0.63,-3.50 L -0.63,-3.50 L -0.63,-0.63 L 0.63,-0.63 L 0.63,-3.50 Z" />
    <path class="fWHITE sWHITE" style="stroke-width:0.04" d="M -0.30,3.50 L -0.30,0.63 L 0.30,0.63 L 0.30,3.50 L -0.30,3.50 Z" />
    <path class="f0 sBLACK" style="stroke-width:0.12" d="M 3.50,3.50 L 3.50,-3.50 L -3.50,-3.50 L -3.50,3.50 L 3.50,3.50 " />
    <circle class="pivotPoint layout" fill="none" cx="0" cy="0" r="0.2" />
  </g>
</svg>