<?xml version="1.0" encoding="UTF-8"?>
<?xml-stylesheet type='text/css' href='S401Style.css'?>
<svg version="1.2" baseProfile="tiny" style="shape-rendering:geometricPrecision; fill-rule:evenodd;" width="7.20mm" height="7.20mm" viewBox="-3.61 -3.61 7.22 7.22" xmlns="http://www.w3.org/2000/svg">
  <title>NMKIN101</title>
  <desc>turning area (3.2)</desc>
  <metadata />
  <g>
    <path class="fWHITE sWHITE" style="stroke-width:0.12" d="M 0.00,3.60 L -3.60,0.00 L 0.00,-3.60 L 3.60,0.00 L 0.00,3.60 Z" />
    <path class="fWHITE sBLACK" style="stroke-width:0.12" d="M -3.60,0.00 L 0.00,-3.60 L 3.60,0.00 L 0.00,3.60 L -3.60,0.00 Z" />
    <path class="fBLACK sBLACK" style="stroke-width:0.04" d="M 1.40,-0.74 L 1.35,-0.84 L 1.28,-0.93 L 1.21,-1.02 L 1.14,-1.11 L 1.06,-1.19 L 0.97,-1.26 L 0.88,-1.33 L 0.79,-1.39 L 0.69,-1.45 L 0.58,-1.49 L 0.48,-1.53 L 0.37,-1.56 L 0.26,-1.59 L 0.14,-1.60 L 0.03,-1.61 L -0.08,-1.61 L -0.20,-1.61 L -0.31,-1.59 L -0.42,-1.57 L -0.53,-1.54 L -0.64,-1.50 L -0.74,-1.45 L -0.84,-1.40 L -0.94,-1.34 L -1.03,-1.27 L -1.12,-1.20 L -1.20,-1.12 L -1.27,-1.03 L -1.34,-0.94 L -1.41,-0.85 L -1.46,-0.75 L -1.51,-0.65 L -1.55,-0.54 L -1.59,-0.44 L -1.62,-0.32 L -1.64,-0.21 L -1.65,-0.10 L -1.65,0.01 L -1.64,0.13 L -1.63,0.24 L -1.61,0.35 L -1.58,0.46 L -1.55,0.57 L -1.50,0.67 L -1.45,0.78 L -1.39,0.87 L -1.33,0.97 L -1.26,1.06 L -1.18,1.14 L -1.10,1.22 L -1.01,1.29 L -0.92,1.35 L -0.82,1.41 L -0.72,1.46 L -0.61,1.51 L -0.50,1.55 L -0.39,1.57 L -0.28,1.60 L -0.17,1.61 L -0.06,1.62 L -0.02,1.62 L -0.02,1.29 L -0.12,1.29 L -0.22,1.28 L -0.32,1.26 L -0.42,1.24 L -0.52,1.20 L -0.61,1.16 L -0.70,1.11 L -0.79,1.06 L -0.87,0.99 L -0.94,0.93 L -1.01,0.85 L -1.08,0.77 L -1.13,0.69 L -1.19,0.60 L -1.23,0.51 L -1.27,0.42 L -1.30,0.32 L -1.32,0.22 L -1.33,0.12 L -1.34,0.02 L -1.33,-0.09 L -1.32,-0.19 L -1.30,-0.29 L -1.28,-0.39 L -1.24,-0.48 L -1.20,-0.58 L -1.16,-0.67 L -1.10,-0.75 L -1.04,-0.83 L -0.97,-0.91 L -0.90,-0.98 L -0.82,-1.04 L -0.73,-1.10 L -0.65,-1.15 L -0.55,-1.20 L -0.46,-1.23 L -0.36,-1.26 L -0.26,-1.28 L -0.16,-1.30 L -0.06,-1.30 L 0.04,-1.30 L 0.14,-1.29 L 0.24,-1.27 L 0.34,-1.24 L 0.44,-1.21 L 0.53,-1.17 L 0.62,-1.12 L 0.71,-1.07 L 0.79,-1.00 L 0.86,-0.94 L 0.93,-0.86 L 1.00,-0.78 L 1.06,-0.70 L 1.10,-0.62 L 0.65,-0.47 L 1.58,0.16 L 1.82,-0.96 L 1.40,-0.74 Z" />
    <circle class="pivotPoint layout" fill="none" cx="0" cy="0" r="0.2" />
  </g>
</svg>