<?xml version="1.0" encoding="UTF-8"?>
<?xml-stylesheet type='text/css' href='S401Style.css'?>
<svg version="1.2" baseProfile="tiny" style="shape-rendering:geometricPrecision; fill-rule:evenodd;" width="7.00mm" height="7.00mm" viewBox="-3.51 -3.51 7.02 7.02" xmlns="http://www.w3.org/2000/svg">
  <title>NMKINFE24</title>
  <desc>BinSchStrO, E.24, kite surfing</desc>
  <metadata />
  <g>
    <path class="fAZUBL sBLACK" style="stroke-width:0.12" d="M -3.50,3.50 L 3.50,3.50 L 3.50,-3.50 L -3.50,-3.50 L -3.50,3.50 Z" />
    <path class="fWHITE sWHITE" style="stroke-width:0.04" d="M 3.02,0.62 L 3.02,0.58 L 3.01,0.54 L 2.99,0.50 L 2.96,0.46 L 2.93,0.43 L 2.89,0.40 L 2.85,0.39 L 2.81,0.38 L 2.76,0.37 L 2.72,0.38 L 2.68,0.39 L 2.64,0.41 L 2.60,0.44 L 2.57,0.47 L 2.55,0.51 L 2.53,0.55 L 2.52,0.60 L 2.52,0.64 L 2.53,0.69 L 2.54,0.73 L 2.56,0.77 L 2.59,0.80 L 2.63,0.83 L 2.66,0.85 L 2.71,0.87 L 2.75,0.88 L 2.80,0.88 L 2.84,0.87 L 2.88,0.85 L 2.92,0.83 L 2.95,0.80 L 2.98,0.76 L 3.00,0.72 L 3.02,0.68 L 3.02,0.64 L 3.02,0.62 Z" />
    <path class="fWHITE sWHITE" style="stroke-width:0.04" d="M 1.41,0.76 L 2.31,1.19 L 2.14,1.63 L 1.63,1.74 L 1.46,2.44 L 1.17,2.44 L 1.17,2.60 L 0.16,2.44 L 0.27,2.71 L 2.47,3.04 L 2.50,2.82 L 1.76,2.71 L 1.93,2.04 L 2.41,2.01 L 2.82,1.22 L 2.82,1.03 L 2.33,0.84 L 1.52,0.49 L 0.43,-2.31 L 0.30,-2.47 L -0.08,-2.74 L -0.62,-3.01 L -1.01,-3.12 L -1.49,-3.12 L -1.84,-3.07 L -2.31,-2.77 L -2.52,-2.55 L -2.77,-2.25 L -2.93,-1.93 L -3.04,-1.47 L -3.04,-0.98 L -2.96,-0.62 L -2.80,-0.16 L -2.44,0.33 L -2.28,0.52 L -1.87,0.76 L 1.41,0.76 Z" />
    <path class="fAZUBL sAZUBL" style="stroke-width:0.04" d="M -0.21,-2.25 L -0.46,-2.20 L -0.76,-2.04 L -1.11,-1.77 L -1.36,-1.49 L -1.58,-1.19 L -1.71,-0.89 L -1.87,-0.27 L -1.87,0.30 L -1.84,0.46 L 1.17,0.46 L 0.11,-2.25 L -0.21,-2.25 Z" />
    <circle class="pivotPoint layout" fill="none" cx="0" cy="0" r="0.2" />
  </g>
</svg>