<?xml version="1.0" encoding="UTF-8"?>
<?xml-stylesheet type='text/css' href='S401Style.css'?>
<svg version="1.2" baseProfile="tiny" style="shape-rendering:geometricPrecision; fill-rule:evenodd;" width="7.00mm" height="7.00mm" viewBox="-3.51 -3.51 7.02 7.02" xmlns="http://www.w3.org/2000/svg">
  <title>NMKINF56</title>
  <desc>electrical power supply point (E.25)</desc>
  <metadata />
  <g>
    <path class="fAZUBL sAZUBL" style="stroke-width:0.04" d="M -3.50,3.50 L -3.50,-3.50 L 3.50,-3.50 L 3.50,3.50 L -3.50,3.50 Z" />
    <path class="f0 sBLACK" style="stroke-width:0.12" d="M -3.50,3.50 L -3.50,-3.50 L 3.50,-3.50 L 3.50,3.50 L -3.50,3.50 " />
    <path class="fWHITE sWHITE" style="stroke-width:0.04" d="M -2.82,-0.99 L -1.50,-0.99 L -1.50,-0.37 L -2.82,-0.37 L -2.82,-0.99 Z" />
    <path class="fWHITE sWHITE" style="stroke-width:0.04" d="M -2.82,0.39 L -1.50,0.39 L -1.50,1.01 L -2.82,1.01 L -2.82,0.39 Z" />
    <path class="fWHITE sWHITE" style="stroke-width:0.04" d="M -1.36,-1.50 L -0.20,-1.50 L -0.20,1.56 L -1.36,1.56 L -1.36,-1.50 Z" />
    <path class="fWHITE sWHITE" style="stroke-width:0.04" d="M 1.66,-0.39 L 2.80,-0.39 L 2.80,0.47 L 1.66,0.47 L 1.66,-0.39 Z" />
    <path class="fWHITE sWHITE" style="stroke-width:0.04" d="M -0.04,-1.24 L -0.04,1.25 L 0.33,1.20 L 0.67,1.16 L 1.31,1.17 L 1.41,1.12 L 1.50,0.98 L 1.49,-0.92 L 1.46,-1.01 L 1.40,-1.08 L 1.32,-1.13 L 0.59,-1.14 L 0.28,-1.19 L -0.04,-1.24 Z" />
    <circle class="pivotPoint layout" fill="none" cx="0" cy="0" r="0.2" />
  </g>
</svg>