<?xml version="1.0" encoding="UTF-8"?>
<?xml-stylesheet type='text/css' href='S401Style.css'?>
<svg version="1.2" baseProfile="tiny" style="shape-rendering:geometricPrecision; fill-rule:evenodd;" width="7.00mm" height="7.00mm" viewBox="-3.51 -3.51 7.02 7.02" xmlns="http://www.w3.org/2000/svg">
  <title>NMKINF47A</title>
  <desc>radiotelephone with channel (E.23)</desc>
  <metadata />
  <g>
    <path class="fAZUBL sBLACK" style="stroke-width:0.12" d="M -3.50,-3.50 L 3.50,-3.50 L 3.50,3.50 L -3.50,3.50 L -3.50,-3.50 Z" />
    <path class="fWHITE sWHITE" style="stroke-width:0.04" d="M -2.50,-2.23 L -2.09,-2.23 L -1.67,-0.79 L -1.25,-2.22 L -0.87,-2.22 L -1.49,-0.24 L -1.87,-0.24 L -2.50,-2.23 Z" />
    <path class="fWHITE sWHITE" style="stroke-width:0.04" d="M -0.62,-2.22 L -0.24,-2.22 L -0.24,-1.44 L 0.43,-1.44 L 0.43,-2.23 L 0.79,-2.23 L 0.79,-0.24 L 0.43,-0.24 L 0.43,-1.11 L -0.24,-1.11 L -0.24,-0.24 L -0.62,-0.24 L -0.62,-2.22 Z" />
    <path class="fWHITE sWHITE" style="stroke-width:0.04" d="M 1.25,-2.22 L 2.47,-2.22 L 2.47,-1.90 L 1.63,-1.90 L 1.63,-1.41 L 2.36,-1.41 L 2.36,-1.09 L 1.63,-1.09 L 1.63,-0.24 L 1.25,-0.24 L 1.25,-2.22 Z" />
    <circle class="pivotPoint layout" fill="none" cx="0" cy="0" r="0.2" />
  </g>
</svg>