<?xml version="1.0" encoding="UTF-8"?>
<?xml-stylesheet type='text/css' href='S401Style.css'?>
<svg version="1.2" baseProfile="tiny" style="shape-rendering:geometricPrecision; fill-rule:evenodd;" width="7.00mm" height="7.00mm" viewBox="-3.51 -3.51 7.02 7.02" xmlns="http://www.w3.org/2000/svg">
  <title>NMKINF39</title>
  <desc>drinking water supply(E.13)</desc>
  <metadata />
  <g>
    <path class="fAZUBL sAZUBL" style="stroke-width:0.04" d="M -3.50,3.50 L -3.50,-3.50 L 3.50,-3.50 L 3.50,3.50 L -3.50,3.50 Z" />
    <path class="f0 sBLACK" style="stroke-width:0.12" d="M -3.50,3.50 L -3.50,-3.50 L 3.50,-3.50 L 3.50,3.50 L -3.50,3.50 " />
    <path class="fWHITE sWHITE" style="stroke-width:0.04" d="M -1.35,0.58 L -1.46,0.62 L -1.57,0.66 L -1.67,0.71 L -1.77,0.77 L -1.87,0.83 L -1.96,0.90 L -2.05,0.97 L -2.13,1.06 L -2.20,1.14 L -2.27,1.24 L -2.34,1.33 L -2.39,1.43 L -2.44,1.54 L -2.48,1.64 L -2.51,1.76 L -2.54,1.87 L -2.56,1.98 L -2.56,2.01 L -1.90,2.02 L -1.89,1.94 L -1.88,1.86 L -1.85,1.78 L -1.83,1.71 L -1.79,1.64 L -1.74,1.57 L -1.69,1.51 L -1.64,1.45 L -1.58,1.40 L -1.51,1.36 L -1.44,1.32 L -1.37,1.29 L -1.29,1.27 L -1.28,1.27 L -0.40,1.26 L -0.37,1.32 L -0.33,1.39 L -0.29,1.45 L -0.24,1.50 L -0.19,1.55 L -0.13,1.60 L -0.06,1.63 L 0.01,1.66 L 0.08,1.69 L 0.15,1.70 L 0.22,1.71 L 0.30,1.71 L 0.37,1.70 L 0.44,1.68 L 0.51,1.65 L 0.58,1.62 L 0.64,1.58 L 0.70,1.53 L 0.75,1.48 L 0.80,1.43 L 0.81,1.41 L 2.17,1.41 L 2.26,1.51 L 2.27,1.65 L 2.27,1.94 L 2.56,1.94 L 2.56,0.16 L 2.33,0.16 L 2.30,0.43 L 2.19,0.58 L 0.77,0.58 L 0.77,0.31 L 0.78,0.23 L 0.82,0.16 L 0.98,0.16 L 0.98,-0.01 L 0.59,-0.01 L 0.59,-1.04 L 0.38,-1.04 L 0.38,-2.03 L 1.03,-2.03 L 1.03,-2.25 L -0.54,-2.25 L -0.54,-2.04 L 0.12,-2.04 L 0.12,-1.04 L -0.09,-1.04 L -0.09,-0.02 L -0.49,-0.02 L -0.49,0.16 L -0.34,0.16 L -0.28,0.23 L -0.27,0.31 L -0.27,0.58 L -1.35,0.58 Z" />
    <circle class="pivotPoint layout" fill="none" cx="0" cy="0" r="0.2" />
  </g>
</svg>