<?xml version="1.0" encoding="UTF-8"?>
<?xml-stylesheet type='text/css' href='S401Style.css'?>
<svg version="1.2" baseProfile="tiny" style="shape-rendering:geometricPrecision; fill-rule:evenodd;" width="7.00mm" height="7.00mm" viewBox="-3.51 -3.51 7.02 7.02" xmlns="http://www.w3.org/2000/svg">
  <title>NMKINFE26</title>
  <desc>BinSchStrO, E.26 swimming prohibited</desc>
  <metadata />
  <g>
    <path class="fAZUBL sAZUBL" style="stroke-width:0.04" d="M -3.50,-3.50 L 3.50,-3.50 L 3.50,3.50 L -3.50,3.50 L -3.50,-3.50 Z" />
    <path class="fWHITE sWHITE" style="stroke-width:0.04" d="M 3.50,3.50 L 3.50,2.85 L 2.36,1.68 L 2.80,1.68 L 2.80,1.28 L 2.50,1.28 L 2.04,1.06 L 1.72,1.06 L 1.47,0.80 L 1.80,0.68 L 1.96,0.68 L 2.47,0.92 L 2.77,0.92 L 2.77,0.54 L 2.69,0.54 L 2.07,0.27 L 1.80,0.27 L 1.16,0.46 L 0.61,-0.04 L 1.60,-1.03 L 2.50,-0.16 L 2.72,-0.16 L 2.85,-0.30 L 2.85,-0.54 L 2.82,-0.62 L 1.77,-1.63 L 1.42,-1.63 L 0.22,-0.43 L 0.04,-0.62 L 0.23,-0.70 L 0.42,-0.92 L 0.48,-1.06 L 0.47,-1.30 L 0.36,-1.57 L 0.26,-1.71 L 0.15,-1.79 L 0.07,-1.84 L -0.34,-1.85 L -0.53,-1.71 L -0.69,-1.55 L -0.76,-1.41 L -2.88,-3.50 L -3.50,-3.50 L -3.50,-2.87 L -1.12,-0.51 L -2.47,-0.54 L -2.66,-0.35 L -2.72,-0.30 L -2.72,-0.16 L -2.53,0.06 L -2.23,-0.03 L -1.88,-0.03 L -1.61,0.06 L -0.55,0.05 L -0.23,0.41 L -0.80,0.54 L -1.07,0.54 L -1.77,0.27 L -2.20,0.27 L -2.80,0.46 L -2.80,0.90 L -2.09,0.68 L -1.88,0.68 L -1.15,0.95 L -0.69,0.95 L -0.12,0.76 L 0.15,0.76 L 0.69,1.33 L 0.53,1.33 L 0.12,1.14 L -0.18,1.14 L -0.69,1.30 L -1.20,1.30 L -1.93,1.03 L -2.15,1.03 L -2.80,1.28 L -2.80,1.66 L -2.58,1.66 L -2.09,1.44 L -1.99,1.44 L -1.20,1.71 L -0.69,1.71 L -0.12,1.52 L 0.04,1.52 L 0.53,1.71 L 0.96,1.71 L 1.07,1.68 L 2.87,3.50 L 3.50,3.50 Z" />
    <path class="f0 sBLACK" style="stroke-width:0.12" d="M -3.50,-3.50 L 3.50,-3.50 L 3.50,3.50 L -3.50,3.50 L -3.50,-3.50 " />
    <circle class="pivotPoint layout" fill="none" cx="0" cy="0" r="0.2" />
  </g>
</svg>