<?xml version="1.0" encoding="UTF-8"?>
<?xml-stylesheet type='text/css' href='S401Style.css'?>
<svg version="1.2" baseProfile="tiny" style="shape-rendering:geometricPrecision; fill-rule:evenodd;" width="7.00mm" height="7.00mm" viewBox="-3.51 -3.51 7.02 7.02" xmlns="http://www.w3.org/2000/svg">
  <title>NMKINF47</title>
  <desc>possibility of obtaining nautical information by radio-telephone on the channel indicated (E.23)</desc>
  <metadata />
  <g>
    <path class="fAZUBL sAZUBL" style="stroke-width:0.04" d="M -3.50,3.50 L -3.50,-3.50 L 3.50,-3.50 L 3.50,3.50 L -3.50,3.50 Z" />
    <path class="f0 sBLACK" style="stroke-width:0.12" d="M -3.50,3.50 L -3.50,-3.50 L 3.50,-3.50 L 3.50,3.50 L -3.50,3.50 " />
    <path class="fWHITE sWHITE" style="stroke-width:0.04" d="M -1.82,-0.83 L -1.31,0.68 L -1.14,0.68 L -0.64,-0.82 L -0.81,-0.82 L -1.23,0.44 L -1.63,-0.82 L -1.82,-0.83 Z" />
    <path class="fWHITE sWHITE" style="stroke-width:0.04" d="M -0.48,-0.82 L -0.48,0.69 L -0.30,0.69 L -0.30,-0.03 L 0.36,-0.03 L 0.36,0.68 L 0.54,0.68 L 0.54,-0.82 L 0.36,-0.82 L 0.36,-0.21 L -0.30,-0.21 L -0.30,-0.82 L -0.48,-0.82 Z" />
    <path class="fWHITE sWHITE" style="stroke-width:0.04" d="M 0.84,-0.83 L 0.84,0.69 L 1.01,0.68 L 1.01,0.01 L 1.62,0.01 L 1.62,-0.19 L 1.01,-0.19 L 1.01,-0.63 L 1.70,-0.63 L 1.70,-0.82 L 0.84,-0.83 Z" />
    <circle class="pivotPoint layout" fill="none" cx="0" cy="0" r="0.2" />
  </g>
</svg>