<?xml version="1.0" encoding="utf-8"?>
<?xml-stylesheet type='text/css' href='S401Style.css'?>
<svg version="1.2" baseProfile="tiny" style="shape-rendering:geometricPrecision; fill-rule:evenodd;" width="7.00mm" height="10.20mm" viewBox="-3.51 -5.11 7.02 10.22" xmlns="http://www.w3.org/2000/svg">
  <title>NMKPRH06</title>
  <desc>no passing or overtaking (A.4)</desc>
  <metadata>
    <iho:S100SVG xmlns:iho="http://www.iho.int/SVGMetadata">
      <iho:Description iho:publisher="IEHG" iho:creationDate="2015-07-29" iho:source="" iho:format="IENC signs, Europe, SVG" iho:version="0.1" />
    </iho:S100SVG>
  </metadata>
  <g>
    <path class="fMIDRD sBLACK" style="stroke-width:0.12" d="M -3.50,5.10 L -3.50,-5.10 L 3.50,-5.10 L 3.50,5.10 L -3.50,5.10 Z" />
    <path class="fWHITE sWHITE" style="stroke-width:0.04" d="M -2.50,-3.15 L -2.50,4.10 L 1.92,4.10 L -2.50,-3.15 Z" />
    <path class="fWHITE sWHITE" style="stroke-width:0.04" d="M 2.50,3.17 L 2.50,-4.10 L -1.91,-4.10 L 2.50,3.17 Z" />
    <path class="fBLACK sBLACK" style="stroke-width:0.04" d="M 1.10,-3.46 L -0.01,-1.57 L 0.12,-1.47 L 0.83,-1.71 L 0.83,3.60 L 1.38,3.61 L 1.38,-1.70 L 2.10,-1.44 L 2.22,-1.56 L 1.10,-3.46 Z" />
    <path class="fBLACK sBLACK" style="stroke-width:0.04" d="M -1.02,3.61 L 0.09,1.71 L -0.04,1.61 L -0.75,1.85 L -0.75,-3.46 L -1.30,-3.46 L -1.30,1.85 L -2.02,1.58 L -2.14,1.70 L -1.02,3.61 Z" />
    <circle class="pivotPoint layout" fill="none" cx="0" cy="0" r="0.2" />
  </g>
</svg>