<?xml version="1.0" encoding="utf-8"?>
<?xml-stylesheet type='text/css' href='S401Style.css'?>
<svg version="1.2" baseProfile="tiny" style="shape-rendering:geometricPrecision; fill-rule:evenodd;" width="7.00mm" height="7.00mm" viewBox="-3.51 -3.51 7.02 7.02" xmlns="http://www.w3.org/2000/svg">
  <title>NMKPRH22</title>
  <desc>no launching or beaching of vessels (A.19)</desc>
  <metadata>
    <iho:S100SVG xmlns:iho="http://www.iho.int/SVGMetadata">
      <iho:Description iho:publisher="IEHG" iho:creationDate="2015-07-29" iho:source="" iho:format="IENC signs, Europe, SVG" iho:version="0.1" />
    </iho:S100SVG>
  </metadata>
  <g>
    <path class="fMIDRD sBLACK" style="stroke-width:0.12" d="M -3.50,3.50 L -3.50,-3.50 L 3.50,-3.50 L 3.50,3.50 L -3.50,3.50 Z" />
    <path class="fWHITE sWHITE" style="stroke-width:0.04" d="M 2.51,1.82 L 2.51,-2.52 L -1.78,-2.52 L 2.51,1.82 Z" />
    <path class="fWHITE sWHITE" style="stroke-width:0.04" d="M -2.54,-1.81 L -2.54,2.54 L 1.82,2.54 L -2.54,-1.81 Z" />
    <path class="fBLACK sBLACK" style="stroke-width:0.04" d="M -1.87,-0.22 L 2.38,-1.71 L 2.36,-1.59 L 2.30,-1.45 L 2.21,-1.26 L 2.05,-1.05 L 1.76,-0.74 L 1.35,-0.44 L 1.15,-0.30 L 0.91,-0.19 L 0.53,-0.09 L 0.15,-0.04 L -0.40,0.01 L -1.22,0.02 L -1.36,0.04 L -1.53,0.09 L -1.65,0.13 L -1.87,-0.22 Z" />
    <path class="fBLACK sBLACK" style="stroke-width:0.04" d="M -1.35,0.68 L 2.31,-0.60 L 2.39,-0.39 L -1.27,0.89 L -1.35,0.68 Z" />
    <circle cx="0.55" cy="0.39" r="0.32" class="fBLACK sBLACK" style="stroke-width:0.04" />
    <path class="fBLACK sBLACK" style="stroke-width:0.04" d="M 2.51,1.57 L -0.98,1.57 L -1.12,1.41 L -1.25,1.54 L -1.36,1.66 L -1.49,1.71 L -1.59,1.72 L -1.69,1.68 L -1.83,1.57 L -1.93,1.46 L -2.01,1.55 L -2.11,1.63 L -2.22,1.70 L -2.29,1.71 L -2.40,1.68 L -2.54,1.61 L -2.54,1.34 L -2.43,1.43 L -2.33,1.48 L -2.29,1.48 L -2.23,1.47 L -2.12,1.37 L -2.02,1.26 L -1.94,1.12 L -1.88,1.19 L -1.80,1.29 L -1.70,1.40 L -1.62,1.48 L -1.55,1.50 L -1.49,1.48 L -1.39,1.40 L -1.26,1.26 L -1.14,1.11 L -0.97,1.27 L -0.94,1.28 L -0.80,1.23 L 2.51,0.10 L 2.51,1.57 Z" />
    <circle class="pivotPoint layout" fill="none" cx="0" cy="0" r="0.2" />
  </g>
</svg>