<?xml version="1.0" encoding="UTF-8"?>
<?xml-stylesheet type='text/css' href='S401Style.css'?>
<svg version="1.2" baseProfile="tiny" style="shape-rendering:geometricPrecision; fill-rule:evenodd;" width="7.00mm" height="7.00mm" viewBox="-3.51 -3.51 7.02 7.02" xmlns="http://www.w3.org/2000/svg">
  <title>NMKPRHA20</title>
  <desc>BinSchStrO, A.20, swimming prohibited</desc>
  <metadata />
  <g>
    <path class="fMIDRD sBLACK" style="stroke-width:0.12" d="M -3.50,-3.50 L 3.50,-3.50 L 3.50,3.50 L -3.50,3.50 L -3.50,-3.50 Z" />
    <path class="fWHITE sWHITE" style="stroke-width:0.04" d="M 2.55,1.85 L 2.55,-2.49 L -1.79,-2.49 L 2.55,1.85 Z" />
    <path class="fWHITE sWHITE" style="stroke-width:0.04" d="M -2.53,-1.79 L -2.53,2.55 L 1.81,2.55 L -2.53,-1.79 Z" />
    <circle cx="-0.21" cy="-1.22" r="0.45" class="fBLACK sBLACK" style="stroke-width:0.04" />
    <path class="fBLACK sBLACK" style="stroke-width:0.04" d="M -2.29,-0.49 L 0.27,-0.49 L 1.25,-1.49 L 1.36,-1.54 L 1.46,-1.54 L 1.61,-1.46 L 2.38,-0.72 L 2.55,-0.72 L 2.55,-0.31 L 2.19,-0.32 L 1.43,-1.06 L 0.51,-0.12 L 0.28,-0.19 L 0.07,-0.23 L -0.11,-0.22 L -0.34,-0.12 L -0.83,0.10 L -1.31,-0.15 L -1.51,-0.22 L -1.71,-0.23 L -1.89,-0.17 L -2.07,-0.08 L -2.13,-0.07 L -2.26,-0.26 L -2.29,-0.49 Z" />
    <path class="fBLACK sBLACK" style="stroke-width:0.04" d="M -2.53,0.32 L -2.35,0.43 L -2.25,0.42 L -1.99,0.22 L -1.81,0.14 L -1.68,0.10 L -1.56,0.11 L -1.39,0.16 L -1.05,0.35 L -0.91,0.41 L -0.82,0.43 L -0.70,0.40 L -0.26,0.17 L -0.02,0.09 L 0.11,0.09 L 0.36,0.19 L 0.65,0.34 L 0.78,0.40 L 0.91,0.42 L 1.10,0.33 L 1.35,0.18 L 1.53,0.12 L 1.69,0.12 L 1.89,0.21 L 2.05,0.32 L 2.18,0.40 L 2.29,0.42 L 2.41,0.39 L 2.55,0.29 L 2.55,0.68 L 2.40,0.75 L 2.30,0.78 L 2.21,0.77 L 2.06,0.69 L 1.80,0.56 L 1.67,0.50 L 1.58,0.48 L 1.49,0.50 L 1.31,0.60 L 1.05,0.74 L 0.91,0.78 L 0.67,0.72 L 0.24,0.53 L 0.06,0.46 L -0.07,0.46 L -0.30,0.59 L -0.61,0.72 L -0.77,0.77 L -0.92,0.77 L -1.13,0.67 L -1.30,0.58 L -1.50,0.49 L -1.61,0.46 L -1.72,0.46 L -1.84,0.54 L -2.06,0.69 L -2.19,0.77 L -2.29,0.77 L -2.45,0.70 L -2.53,0.65 L -2.53,0.32 Z" />
    <path class="fBLACK sBLACK" style="stroke-width:0.04" d="M -2.53,0.96 L -2.31,1.08 L -2.22,1.07 L -1.96,0.92 L -1.77,0.80 L -1.64,0.76 L -1.53,0.76 L -1.29,0.86 L -1.02,1.01 L -0.88,1.07 L -0.79,1.08 L -0.66,1.06 L -0.23,0.83 L 0.01,0.75 L 0.15,0.75 L 0.40,0.86 L 0.69,1.00 L 0.82,1.05 L 0.95,1.07 L 1.14,0.99 L 1.38,0.84 L 1.56,0.78 L 1.70,0.79 L 1.93,0.89 L 2.09,0.98 L 2.22,1.06 L 2.32,1.08 L 2.44,1.05 L 2.55,0.98 L 2.55,1.35 L 2.43,1.41 L 2.33,1.43 L 2.24,1.43 L 2.10,1.38 L 1.84,1.22 L 1.71,1.16 L 1.62,1.13 L 1.52,1.15 L 1.35,1.26 L 1.09,1.40 L 0.95,1.44 L 0.70,1.37 L 0.28,1.19 L 0.10,1.12 L -0.04,1.12 L -0.27,1.24 L -0.58,1.38 L -0.73,1.43 L -0.88,1.43 L -1.15,1.34 L -1.28,1.25 L -1.47,1.15 L -1.58,1.12 L -1.68,1.12 L -1.81,1.20 L -2.02,1.35 L -2.16,1.43 L -2.25,1.43 L -2.42,1.35 L -2.53,1.30 L -2.53,0.96 Z" />
    <circle class="pivotPoint layout" fill="none" cx="0" cy="0" r="0.2" />
  </g>
</svg>