<?xml version="1.0" encoding="UTF-8"?>
<?xml-stylesheet type='text/css' href='S401Style.css'?>
<svg version="1.2" baseProfile="tiny" style="shape-rendering:geometricPrecision; fill-rule:evenodd;" width="7.00mm" height="7.00mm" viewBox="-3.51 -3.51 7.02 7.02" xmlns="http://www.w3.org/2000/svg">
  <title>NMKPR105</title>
  <desc>small crafts prohibited (1.5)</desc>
  <metadata />
  <g>
    <circle cx="0.00" cy="0.00" r="3.50" class="fMIDRD sBLACK" style="stroke-width:0.12" />
    <path class="fWHITE sBLACK" style="stroke-width:0.12" d="M 2.12,1.70 L 2.21,1.58 L 2.30,1.46 L 2.37,1.33 L 2.44,1.20 L 2.50,1.07 L 2.56,0.93 L 2.60,0.79 L 2.64,0.65 L 2.67,0.50 L 2.70,0.36 L 2.71,0.21 L 2.72,0.06 L 2.72,-0.08 L 2.71,-0.23 L 2.70,-0.38 L 2.67,-0.52 L 2.64,-0.67 L 2.60,-0.81 L 2.55,-0.95 L 2.50,-1.09 L 2.44,-1.22 L 2.37,-1.35 L 2.29,-1.48 L 2.21,-1.60 L 2.12,-1.72 L 2.02,-1.83 L 1.92,-1.94 L 1.81,-2.04 L 1.70,-2.14 L 1.58,-2.23 L 1.46,-2.31 L 1.33,-2.38 L 1.20,-2.45 L 1.07,-2.52 L 0.93,-2.57 L 0.79,-2.62 L 0.65,-2.66 L 0.50,-2.69 L 0.36,-2.71 L 0.21,-2.73 L 0.06,-2.74 L -0.09,-2.74 L -0.23,-2.73 L -0.38,-2.71 L -0.53,-2.69 L -0.67,-2.66 L -0.81,-2.62 L -0.95,-2.57 L -1.09,-2.51 L -1.22,-2.45 L -1.36,-2.38 L -1.48,-2.31 L -1.60,-2.22 L -1.72,-2.13 L -1.81,-2.06 L 2.12,1.70 Z" />
    <path class="fWHITE sBLACK" style="stroke-width:0.12" d="M -2.17,-1.69 L -2.25,-1.57 L -2.34,-1.44 L -2.41,-1.32 L -2.48,-1.19 L -2.54,-1.05 L -2.59,-0.91 L -2.64,-0.77 L -2.67,-0.63 L -2.70,-0.48 L -2.73,-0.34 L -2.74,-0.19 L -2.75,-0.04 L -2.74,0.11 L -2.73,0.25 L -2.72,0.40 L -2.69,0.55 L -2.66,0.69 L -2.62,0.83 L -2.57,0.97 L -2.51,1.11 L -2.45,1.24 L -2.38,1.37 L -2.30,1.50 L -2.21,1.62 L -2.12,1.74 L -2.03,1.85 L -1.92,1.95 L -1.81,2.05 L -1.70,2.15 L -1.58,2.24 L -1.46,2.32 L -1.33,2.39 L -1.20,2.46 L -1.06,2.52 L -0.93,2.58 L -0.79,2.62 L -0.64,2.66 L -0.50,2.69 L -0.35,2.71 L -0.20,2.73 L -0.06,2.73 L 0.09,2.73 L 0.24,2.72 L 0.39,2.71 L 0.53,2.68 L 0.68,2.65 L 0.82,2.61 L 0.96,2.56 L 1.09,2.50 L 1.23,2.44 L 1.36,2.37 L 1.48,2.29 L 1.61,2.21 L 1.72,2.12 L 1.78,2.07 L -2.17,-1.69 Z" />
    <path class="fBLACK sBLACK" style="stroke-width:0.04" d="M -1.55,0.40 L 1.50,0.40 L 2.33,-0.56 L 0.46,-0.13 L -1.55,-0.14 L -1.55,0.40 Z" />
    <path class="fBLACK sBLACK" style="stroke-width:0.04" d="M -2.13,0.03 L -1.78,0.03 L -1.78,0.68 L -2.13,0.68 L -2.13,0.03 Z" />
    <circle class="pivotPoint layout" fill="none" cx="0" cy="0" r="0.2" />
  </g>
</svg>