<?xml version="1.0" encoding="utf-8"?>
<?xml-stylesheet type='text/css' href='S401Style.css'?>
<svg version="1.2" baseProfile="tiny" style="shape-rendering:geometricPrecision; fill-rule:evenodd;" width="7.00mm" height="7.00mm" viewBox="-3.51 -3.51 7.02 7.02" xmlns="http://www.w3.org/2000/svg">
  <title>NMKPRH14</title>
  <desc>motorized craft prohibited (A.12)</desc>
  <metadata>
    <iho:S100SVG xmlns:iho="http://www.iho.int/SVGMetadata">
      <iho:Description iho:publisher="IEHG" iho:creationDate="2015-07-29" iho:source="" iho:format="IENC signs, Europe, SVG" iho:version="0.1" />
    </iho:S100SVG>
  </metadata>
  <g>
    <path class="fMIDRD sBLACK" style="stroke-width:0.12" d="M -3.50,3.50 L -3.50,-3.50 L 3.50,-3.50 L 3.50,3.50 L -3.50,3.50 Z" />
    <path class="fWHITE sWHITE" style="stroke-width:0.04" d="M 2.51,1.82 L 2.51,-2.52 L -1.78,-2.52 L 2.51,1.82 Z" />
    <path class="fWHITE sWHITE" style="stroke-width:0.04" d="M -2.54,-1.81 L -2.54,2.54 L 1.82,2.54 L -2.54,-1.81 Z" />
    <circle cx="0.00" cy="0.00" r="0.58" class="fBLACK sBLACK" style="stroke-width:0.04" />
    <path class="fBLACK sBLACK" style="stroke-width:0.04" d="M 0.11,-0.56 L 0.13,-0.77 L 0.15,-0.98 L 0.15,-1.03 L 0.14,-1.08 L 0.14,-1.12 L 0.12,-1.19 L 0.11,-1.24 L 0.08,-1.32 L 0.05,-1.40 L 0.02,-1.46 L -0.01,-1.52 L -0.03,-1.56 L -0.08,-1.64 L -0.12,-1.69 L -0.15,-1.73 L -0.20,-1.78 L -0.23,-1.81 L -0.26,-1.84 L -0.30,-1.87 L -0.37,-1.92 L -0.43,-1.95 L -0.49,-1.98 L -0.53,-2.00 L -0.62,-2.03 L -0.68,-2.05 L -0.78,-2.07 L -0.88,-2.09 L -0.94,-2.10 L -0.99,-2.10 L -1.08,-2.10 L -1.15,-2.09 L -1.20,-2.08 L -1.28,-2.07 L -1.35,-2.05 L -1.44,-2.02 L -1.50,-2.00 L -1.55,-1.98 L -1.58,-1.96 L -1.63,-1.92 L -1.65,-1.90 L -1.67,-1.88 L -1.70,-1.85 L -1.73,-1.82 L -1.74,-1.79 L -1.77,-1.74 L -1.78,-1.71 L -1.80,-1.65 L -1.81,-1.60 L -1.82,-1.56 L -1.82,-1.52 L -1.82,-1.48 L -1.82,-1.45 L -1.81,-1.39 L -1.80,-1.35 L -1.78,-1.32 L -1.76,-1.28 L -1.74,-1.26 L -1.72,-1.24 L -1.70,-1.22 L -1.65,-1.18 L -1.61,-1.15 L -1.58,-1.13 L -1.52,-1.10 L -1.47,-1.08 L -1.39,-1.05 L -1.31,-1.03 L -1.27,-1.02 L -1.18,-1.00 L -1.05,-0.98 L -0.99,-0.97 L -0.95,-0.96 L -0.92,-0.95 L -0.87,-0.92 L -0.79,-0.88 L -0.72,-0.84 L -0.68,-0.80 L -0.65,-0.78 L -0.60,-0.74 L -0.56,-0.69 L -0.46,-0.56 L -0.36,-0.44 L -0.31,-0.48 L -0.25,-0.51 L -0.19,-0.54 L -0.12,-0.56 L -0.06,-0.57 L 0.01,-0.57 L 0.08,-0.56 L 0.11,-0.56 Z" />
    <path class="fBLACK sBLACK" style="stroke-width:0.04" d="M 0.34,0.46 L 0.52,0.61 L 0.71,0.75 L 0.75,0.78 L 0.80,0.81 L 0.84,0.83 L 0.88,0.84 L 0.95,0.87 L 1.00,0.88 L 1.08,0.89 L 1.16,0.90 L 1.22,0.90 L 1.28,0.90 L 1.33,0.90 L 1.37,0.89 L 1.45,0.88 L 1.51,0.86 L 1.59,0.83 L 1.68,0.79 L 1.75,0.75 L 1.81,0.72 L 1.85,0.69 L 1.94,0.63 L 1.99,0.59 L 2.03,0.55 L 2.10,0.49 L 2.16,0.42 L 2.19,0.37 L 2.22,0.33 L 2.27,0.26 L 2.30,0.20 L 2.34,0.11 L 2.38,0.02 L 2.39,-0.02 L 2.40,-0.06 L 2.41,-0.12 L 2.41,-0.17 L 2.41,-0.25 L 2.40,-0.32 L 2.39,-0.36 L 2.38,-0.40 L 2.36,-0.46 L 2.34,-0.51 L 2.32,-0.54 L 2.30,-0.57 L 2.27,-0.60 L 2.24,-0.64 L 2.19,-0.67 L 2.15,-0.70 L 2.12,-0.72 L 2.09,-0.73 L 2.06,-0.74 L 2.01,-0.75 L 1.97,-0.75 L 1.94,-0.75 L 1.90,-0.75 L 1.87,-0.74 L 1.81,-0.72 L 1.76,-0.69 L 1.72,-0.67 L 1.65,-0.63 L 1.60,-0.59 L 1.52,-0.53 L 1.45,-0.47 L 1.43,-0.45 L 1.41,-0.43 L 1.38,-0.39 L 1.34,-0.31 L 1.31,-0.25 L 1.29,-0.21 L 1.27,-0.18 L 1.25,-0.16 L 1.24,-0.15 L 1.21,-0.14 L 1.19,-0.13 L 0.88,-0.05 L 0.57,0.03 L 0.56,0.10 L 0.55,0.16 L 0.52,0.23 L 0.49,0.29 L 0.46,0.34 L 0.41,0.39 L 0.36,0.44 L 0.34,0.46 Z" />
    <path class="fBLACK sBLACK" style="stroke-width:0.04" d="M -0.55,0.14 L -0.80,0.25 L -1.05,0.36 L -1.10,0.39 L -1.14,0.41 L -1.17,0.43 L -1.23,0.48 L -1.26,0.52 L -1.32,0.58 L -1.37,0.65 L -1.42,0.71 L -1.46,0.76 L -1.49,0.81 L -1.54,0.89 L -1.57,0.96 L -1.59,1.00 L -1.61,1.08 L -1.63,1.15 L -1.64,1.19 L -1.65,1.23 L -1.65,1.31 L -1.65,1.37 L -1.65,1.43 L -1.64,1.48 L -1.63,1.53 L -1.62,1.61 L -1.60,1.66 L -1.56,1.75 L -1.52,1.83 L -1.49,1.88 L -1.47,1.93 L -1.42,2.00 L -1.37,2.06 L -1.31,2.13 L -1.23,2.21 L -1.17,2.27 L -1.12,2.32 L -1.08,2.34 L -1.02,2.38 L -0.99,2.40 L -0.95,2.41 L -0.91,2.42 L -0.88,2.43 L -0.85,2.43 L -0.82,2.42 L -0.76,2.41 L -0.73,2.40 L -0.67,2.37 L -0.61,2.34 L -0.54,2.29 L -0.49,2.26 L -0.46,2.22 L -0.44,2.20 L -0.41,2.16 L -0.40,2.13 L -0.38,2.11 L -0.37,2.06 L -0.36,2.01 L -0.35,1.97 L -0.35,1.90 L -0.35,1.85 L -0.36,1.77 L -0.37,1.69 L -0.39,1.63 L -0.40,1.59 L -0.48,1.41 L -0.49,1.37 L -0.51,1.31 L -0.52,1.27 L -0.52,1.24 L -0.53,1.17 L -0.54,1.11 L -0.54,1.05 L -0.53,1.01 L -0.53,0.96 L -0.52,0.93 L -0.51,0.86 L -0.50,0.82 L -0.48,0.79 L -0.46,0.74 L -0.44,0.72 L -0.42,0.70 L -0.34,0.61 L -0.25,0.51 L -0.31,0.48 L -0.36,0.44 L -0.41,0.40 L -0.45,0.34 L -0.49,0.29 L -0.52,0.23 L -0.55,0.16 L -0.55,0.14 Z" />
    <circle class="pivotPoint layout" fill="none" cx="0" cy="0" r="0.2" />
  </g>
</svg>