<?xml version="1.0" encoding="utf-8"?>
<?xml-stylesheet type='text/css' href='S401Style.css'?>
<svg version="1.2" baseProfile="tiny" style="shape-rendering:geometricPrecision; fill-rule:evenodd;" width="7.00mm" height="10.20mm" viewBox="-3.51 -5.11 7.02 10.22" xmlns="http://www.w3.org/2000/svg">
  <title>NMKPRH05</title>
  <desc>no overtaking of convoys by convoys (A.3)</desc>
  <metadata>
    <iho:S100SVG xmlns:iho="http://www.iho.int/SVGMetadata">
      <iho:Description iho:publisher="IEHG" iho:creationDate="2015-07-29" iho:source="" iho:format="IENC signs, Europe, SVG" iho:version="0.1" />
    </iho:S100SVG>
  </metadata>
  <g>
    <path class="fMIDRD sBLACK" style="stroke-width:0.12" d="M -3.50,5.10 L -3.50,-5.10 L 3.50,-5.10 L 3.50,5.10 L -3.50,5.10 Z" />
    <path class="fWHITE sWHITE" style="stroke-width:0.04" d="M -2.50,-3.15 L -2.50,4.10 L 1.92,4.10 L -2.50,-3.15 Z" />
    <path class="fWHITE sWHITE" style="stroke-width:0.04" d="M 2.50,3.17 L 2.50,-4.10 L -1.91,-4.10 L 2.50,3.17 Z" />
    <path class="fBLACK sBLACK" style="stroke-width:0.04" d="M 1.40,-3.78 L 0.50,-2.42 L 0.61,-2.35 L 1.18,-2.58 L 1.19,-1.56 L 0.51,-0.56 L 0.61,-0.49 L 1.19,-0.70 L 1.20,0.58 L 1.64,0.58 L 1.63,-0.71 L 2.23,-0.45 L 2.34,-0.55 L 1.63,-1.57 L 1.63,-2.58 L 2.23,-2.32 L 2.31,-2.44 L 1.40,-3.78 Z" />
    <path class="fBLACK sBLACK" style="stroke-width:0.04" d="M -1.24,-0.44 L -2.14,0.91 L -2.03,0.99 L -1.46,0.76 L -1.45,1.78 L -2.13,2.77 L -2.02,2.84 L -1.45,2.63 L -1.44,3.92 L -1.00,3.91 L -1.01,2.63 L -0.40,2.88 L -0.30,2.79 L -1.01,1.77 L -1.00,0.76 L -0.41,1.01 L -0.32,0.89 L -1.24,-0.44 Z" />
    <circle class="pivotPoint layout" fill="none" cx="0" cy="0" r="0.2" />
  </g>
</svg>