<?xml version="1.0" encoding="utf-8"?>
<?xml-stylesheet type='text/css' href='S401Style.css'?>
<svg version="1.2" baseProfile="tiny" style="shape-rendering:geometricPrecision; fill-rule:evenodd;" width="7.00mm" height="10.20mm" viewBox="-3.51 -5.11 7.02 10.22" xmlns="http://www.w3.org/2000/svg">
  <title>NMKPRH06A</title>
  <desc>no passing or overtaking among convoys (A.4.1)</desc>
  <metadata>
    <iho:S100SVG xmlns:iho="http://www.iho.int/SVGMetadata">
      <iho:Description iho:publisher="IEHG" iho:creationDate="2015-07-29" iho:source="" iho:format="IENC signs, Europe, SVG" iho:version="0.1" />
    </iho:S100SVG>
  </metadata>
  <g>
    <path class="f0 sWHITE" style="stroke-width:0.12" d="M -1.90,-4.13 L 2.52,-4.13 L 2.52,3.07 L 1.55,1.50 L 1.55,3.43 L 2.01,4.16 L -2.52,4.16 L -2.52,-3.20 L -2.50,-3.20 L -1.55,-1.63 L -1.55,-3.30 L -1.38,-3.30 L -1.90,-4.13 Z" />
    <path class="f0 sWHITE" style="stroke-width:0.12" d="M -0.98,-2.62 L 0.65,-0.01 L 0.33,0.50 L 0.42,0.59 L 0.90,0.38 L 0.98,0.53 L 0.98,2.47 L -0.57,-0.01 L -0.33,-0.43 L -0.39,-0.53 L -0.73,-0.35 L -0.98,-0.67 L -0.98,-2.62 " />
    <path class="fMIDRD sMIDRD" style="stroke-width:0.04" d="M -3.50,-5.10 L 3.50,-5.10 L 3.50,5.10 L -3.50,5.10 L -3.50,-5.10 Z" />
    <path class="fWHITE sWHITE" style="stroke-width:0.04" d="M -1.90,-4.13 L 2.52,-4.13 L 2.52,3.07 L -1.90,-4.13 Z" />
    <path class="fWHITE sWHITE" style="stroke-width:0.04" d="M -2.52,-3.20 L -2.52,4.16 L 2.01,4.16 L -2.52,-3.20 Z" />
    <path class="f0 sBLACK" style="stroke-width:0.12" d="M -3.50,-5.10 L 3.50,-5.10 L 3.50,5.10 L -3.50,5.10 L -3.50,-5.07 " />
    <path class="fBLACK sBLACK" style="stroke-width:0.04" d="M 1.55,1.76 L 1.55,3.43 L 0.98,3.43 L 0.98,0.38 L 0.90,0.38 L 0.42,0.59 L 0.33,0.50 L 0.63,0.01 L 0.98,-0.51 L 0.98,-1.89 L 0.92,-1.89 L 0.41,-1.63 L 0.30,-1.74 L 1.26,-3.30 L 2.20,-1.83 L 2.12,-1.74 L 1.55,-1.95 L 1.55,-0.56 L 2.20,0.45 L 2.12,0.56 L 1.55,0.35 L 1.55,1.76 Z" />
    <path class="fBLACK sBLACK" style="stroke-width:0.04" d="M -1.55,-1.63 L -1.55,-3.30 L -0.98,-3.30 L -0.98,-0.25 L -0.73,-0.35 L -0.39,-0.53 L -0.33,-0.43 L -0.57,-0.01 L -0.98,0.64 L -0.98,2.02 L -0.92,2.02 L -0.41,1.76 L -0.30,1.87 L -1.26,3.43 L -2.20,1.96 L -2.12,1.87 L -1.55,2.07 L -1.55,0.69 L -2.20,-0.33 L -2.12,-0.43 L -1.55,-0.22 L -1.55,-1.63 Z" />
    <circle class="pivotPoint layout" fill="none" cx="0" cy="0" r="0.2" />
  </g>
</svg>