<?xml version="1.0" encoding="UTF-8"?>
<?xml-stylesheet type='text/css' href='S401Style.css'?>
<svg version="1.2" baseProfile="tiny" style="shape-rendering:geometricPrecision; fill-rule:evenodd;" width="7.00mm" height="7.00mm" viewBox="-3.51 -3.51 7.02 7.02" xmlns="http://www.w3.org/2000/svg">
  <title>NMKPR104</title>
  <desc>do not create wash (1.4)</desc>
  <metadata />
  <g>
    <circle cx="0.00" cy="0.00" r="3.50" class="fMIDRD sBLACK" style="stroke-width:0.12" />
    <path class="fWHITE sBLACK" style="stroke-width:0.12" d="M 2.12,1.70 L 2.21,1.58 L 2.30,1.46 L 2.37,1.33 L 2.44,1.20 L 2.50,1.07 L 2.56,0.93 L 2.60,0.79 L 2.64,0.65 L 2.67,0.50 L 2.70,0.36 L 2.71,0.21 L 2.72,0.06 L 2.72,-0.08 L 2.71,-0.23 L 2.70,-0.38 L 2.67,-0.52 L 2.64,-0.67 L 2.60,-0.81 L 2.55,-0.95 L 2.50,-1.09 L 2.44,-1.22 L 2.37,-1.35 L 2.29,-1.48 L 2.21,-1.60 L 2.12,-1.72 L 2.02,-1.83 L 1.92,-1.94 L 1.81,-2.04 L 1.70,-2.14 L 1.58,-2.23 L 1.46,-2.31 L 1.33,-2.38 L 1.20,-2.45 L 1.07,-2.52 L 0.93,-2.57 L 0.79,-2.62 L 0.65,-2.66 L 0.50,-2.69 L 0.36,-2.71 L 0.21,-2.73 L 0.06,-2.74 L -0.09,-2.74 L -0.23,-2.73 L -0.38,-2.71 L -0.53,-2.69 L -0.67,-2.66 L -0.81,-2.62 L -0.95,-2.57 L -1.09,-2.51 L -1.22,-2.45 L -1.36,-2.38 L -1.48,-2.31 L -1.60,-2.22 L -1.72,-2.13 L -1.81,-2.06 L 2.12,1.70 Z" />
    <path class="fWHITE sBLACK" style="stroke-width:0.12" d="M -2.17,-1.69 L -2.25,-1.57 L -2.34,-1.44 L -2.41,-1.32 L -2.48,-1.19 L -2.54,-1.05 L -2.59,-0.91 L -2.64,-0.77 L -2.67,-0.63 L -2.70,-0.48 L -2.73,-0.34 L -2.74,-0.19 L -2.75,-0.04 L -2.74,0.11 L -2.73,0.25 L -2.72,0.40 L -2.69,0.55 L -2.66,0.69 L -2.62,0.83 L -2.57,0.97 L -2.51,1.11 L -2.45,1.24 L -2.38,1.37 L -2.30,1.50 L -2.21,1.62 L -2.12,1.74 L -2.03,1.85 L -1.92,1.95 L -1.81,2.05 L -1.70,2.15 L -1.58,2.24 L -1.46,2.32 L -1.33,2.39 L -1.20,2.46 L -1.06,2.52 L -0.93,2.58 L -0.79,2.62 L -0.64,2.66 L -0.50,2.69 L -0.35,2.71 L -0.20,2.73 L -0.06,2.73 L 0.09,2.73 L 0.24,2.72 L 0.39,2.71 L 0.53,2.68 L 0.68,2.65 L 0.82,2.61 L 0.96,2.56 L 1.09,2.50 L 1.23,2.44 L 1.36,2.37 L 1.48,2.29 L 1.61,2.21 L 1.72,2.12 L 1.78,2.07 L -2.17,-1.69 Z" />
    <path class="fBLACK sBLACK" style="stroke-width:0.04" d="M 1.98,-0.55 L 1.98,-1.07 L 1.82,-0.95 L 1.66,-0.84 L 1.61,-0.80 L 1.55,-0.77 L 1.51,-0.74 L 1.42,-0.71 L 1.35,-0.69 L 1.30,-0.67 L 1.22,-0.65 L 1.15,-0.64 L 1.07,-0.63 L 1.00,-0.63 L 0.94,-0.64 L 0.84,-0.65 L 0.76,-0.66 L 0.64,-0.69 L 0.52,-0.72 L 0.47,-0.73 L 0.37,-0.77 L 0.28,-0.80 L -0.01,-0.94 L -0.08,-0.98 L -0.19,-1.02 L -0.25,-1.04 L -0.31,-1.06 L -0.45,-1.09 L -0.59,-1.12 L -0.70,-1.14 L -0.81,-1.15 L -0.90,-1.16 L -0.98,-1.16 L -1.05,-1.16 L -1.11,-1.16 L -1.22,-1.15 L -1.29,-1.13 L -1.35,-1.12 L -1.43,-1.10 L -1.51,-1.06 L -1.59,-1.03 L -1.71,-0.96 L -1.89,-0.86 L -1.98,-0.81 L -2.07,-0.76 L -2.07,-0.76 L -2.07,-0.48 L -2.07,-0.24 L -2.00,-0.27 L -1.88,-0.34 L -1.70,-0.45 L -1.61,-0.50 L -1.51,-0.54 L -1.44,-0.57 L -1.38,-0.59 L -1.31,-0.61 L -1.25,-0.62 L -1.19,-0.63 L -1.14,-0.63 L -1.03,-0.64 L -0.94,-0.64 L -0.86,-0.63 L -0.79,-0.63 L -0.67,-0.61 L -0.57,-0.60 L -0.44,-0.57 L -0.31,-0.53 L -0.25,-0.52 L -0.16,-0.48 L -0.07,-0.45 L 0.07,-0.38 L 0.18,-0.33 L 0.27,-0.29 L 0.33,-0.26 L 0.42,-0.22 L 0.52,-0.19 L 0.60,-0.17 L 0.74,-0.14 L 0.84,-0.13 L 0.92,-0.12 L 0.98,-0.11 L 1.06,-0.11 L 1.11,-0.12 L 1.15,-0.12 L 1.22,-0.13 L 1.28,-0.14 L 1.33,-0.16 L 1.42,-0.19 L 1.48,-0.21 L 1.53,-0.23 L 1.60,-0.27 L 1.66,-0.31 L 1.82,-0.43 L 1.98,-0.55 Z" />
    <path class="fBLACK sBLACK" style="stroke-width:0.04" d="M -2.07,1.03 L -2.00,1.00 L -1.88,0.93 L -1.71,0.83 L -1.62,0.78 L -1.53,0.74 L -1.47,0.71 L -1.42,0.69 L -1.36,0.67 L -1.31,0.66 L -1.22,0.64 L -1.13,0.62 L -1.06,0.62 L -0.99,0.61 L -0.87,0.61 L -0.79,0.62 L -0.72,0.63 L -0.63,0.64 L -0.54,0.65 L -0.47,0.67 L -0.41,0.69 L -0.35,0.71 L -0.25,0.75 L -0.15,0.80 L 0.17,0.96 L 0.25,0.99 L 0.31,1.02 L 0.41,1.06 L 0.51,1.08 L 0.66,1.12 L 0.78,1.15 L 0.87,1.16 L 0.94,1.17 L 0.98,1.17 L 1.06,1.17 L 1.13,1.16 L 1.20,1.14 L 1.32,1.12 L 1.40,1.09 L 1.53,1.05 L 1.66,1.00 L 1.82,0.93 L 1.90,0.90 L 1.98,0.86 L 1.98,0.24 L 1.90,0.31 L 1.85,0.35 L 1.75,0.41 L 1.66,0.47 L 1.60,0.50 L 1.54,0.53 L 1.49,0.55 L 1.41,0.57 L 1.34,0.59 L 1.25,0.61 L 1.15,0.62 L 1.07,0.62 L 1.00,0.62 L 0.94,0.62 L 0.84,0.60 L 0.76,0.59 L 0.64,0.57 L 0.52,0.54 L 0.47,0.53 L 0.37,0.49 L 0.28,0.46 L -0.01,0.32 L -0.08,0.28 L -0.19,0.24 L -0.25,0.22 L -0.31,0.20 L -0.45,0.17 L -0.59,0.14 L -0.70,0.12 L -0.81,0.11 L -0.90,0.10 L -0.98,0.10 L -1.05,0.10 L -1.11,0.10 L -1.22,0.11 L -1.29,0.12 L -1.35,0.14 L -1.43,0.16 L -1.51,0.20 L -1.59,0.23 L -1.71,0.30 L -1.89,0.40 L -1.98,0.45 L -2.07,0.50 L -2.07,0.50 L -2.07,0.76 L -2.07,1.03 Z" />
    <circle class="pivotPoint layout" fill="none" cx="0" cy="0" r="0.2" />
  </g>
</svg>