<?xml version="1.0" encoding="utf-8"?>
<?xml-stylesheet type='text/css' href='S401Style.css'?>
<svg version="1.2" baseProfile="tiny" style="shape-rendering:geometricPrecision; fill-rule:evenodd;" width="7.00mm" height="10.20mm" viewBox="-3.51 -5.11 7.02 10.22" xmlns="http://www.w3.org/2000/svg">
  <title>NMKPRH04</title>
  <desc>no overtaking (A.2)</desc>
  <metadata>
    <iho:S100SVG xmlns:iho="http://www.iho.int/SVGMetadata">
      <iho:Description iho:publisher="IEHG" iho:creationDate="2015-07-29" iho:source="" iho:format="IENC signs, Europe, SVG" iho:version="0.1" />
    </iho:S100SVG>
  </metadata>
  <g>
    <path class="fMIDRD sBLACK" style="stroke-width:0.12" d="M -3.50,5.10 L -3.50,-5.10 L 3.50,-5.10 L 3.50,5.10 L -3.50,5.10 Z" />
    <path class="fWHITE sWHITE" style="stroke-width:0.04" d="M -2.50,-3.15 L -2.50,4.10 L 1.92,4.10 L -2.50,-3.15 Z" />
    <path class="fWHITE sWHITE" style="stroke-width:0.04" d="M 2.50,3.17 L 2.50,-4.10 L -1.91,-4.10 L 2.50,3.17 Z" />
    <path class="fBLACK sBLACK" style="stroke-width:0.04" d="M 1.08,-3.51 L 2.27,-1.62 L 2.12,-1.52 L 1.37,-1.88 L 1.37,-0.07 L 0.82,-0.07 L 0.82,-1.84 L 0.07,-1.52 L -0.08,-1.66 L 1.08,-3.51 Z" />
    <path class="fBLACK sBLACK" style="stroke-width:0.04" d="M -1.06,0.40 L 0.12,2.29 L -0.03,2.39 L -0.78,2.03 L -0.78,3.84 L -1.33,3.84 L -1.33,2.07 L -2.08,2.39 L -2.23,2.25 L -1.06,0.40 Z" />
    <circle class="pivotPoint layout" fill="none" cx="0" cy="0" r="0.2" />
  </g>
</svg>