<?xml version="1.0" encoding="UTF-8"?>
<?xml-stylesheet type='text/css' href='S401Style.css'?>
<svg version="1.2" baseProfile="tiny" style="shape-rendering:geometricPrecision; fill-rule:evenodd;" width="2.80mm" height="5.50mm" viewBox="-1.41 -2.76 2.82 5.52" xmlns="http://www.w3.org/2000/svg">
  <title>NMKREG51</title>
  <desc>wreck pontoon, passage allowed on both sides </desc>
  <metadata />
  <g>
    <path class="fYLLOW sBLACK" style="stroke-width:0.12" d="M -1.40,-2.75 L -1.40,-1.60 L 1.40,-1.60 L 1.40,-2.75 L -1.40,-2.75 Z" />
    <path class="fMIDRD sBLACK" style="stroke-width:0.12" d="M 0.00,0.00 L 1.40,0.00 L 1.40,-1.60 L 0.00,-1.60 L 0.00,0.00 Z" />
    <path class="fWHITE sBLACK" style="stroke-width:0.12" d="M 1.40,0.00 L 0.00,0.00 L 0.00,1.60 L 1.40,1.60 L 1.40,0.00 Z" />
    <path class="fYLLOW sBLACK" style="stroke-width:0.12" d="M -1.40,2.75 L 1.40,2.75 L 1.40,1.60 L -1.40,1.60 L -1.40,2.75 Z" />
    <path class="fMIDRD sBLACK" style="stroke-width:0.12" d="M -1.40,0.00 L 0.00,0.00 L 0.00,-1.60 L -1.40,-1.60 L -1.40,0.00 Z" />
    <path class="fWHITE sBLACK" style="stroke-width:0.12" d="M 0.00,0.00 L -1.40,0.00 L -1.40,1.60 L 0.00,1.60 L 0.00,0.00 Z" />
    <circle class="pivotPoint layout" fill="none" cx="0" cy="0" r="0.2" />
  </g>
</svg>