<?xml version="1.0" encoding="utf-8"?>
<?xml-stylesheet type='text/css' href='S401Style.css'?>
<svg version="1.2" baseProfile="tiny" style="shape-rendering:geometricPrecision; fill-rule:evenodd;" width="7.00mm" height="10.20mm" viewBox="-3.51 -5.11 7.02 10.22" xmlns="http://www.w3.org/2000/svg">
  <title>NMKREG09</title>
  <desc>cross fairway channel to starboard (B.4b)</desc>
  <metadata>
    <iho:S100SVG xmlns:iho="http://www.iho.int/SVGMetadata">
      <iho:Description iho:publisher="IEHG" iho:creationDate="2015-07-29" iho:source="" iho:format="IENC signs, Europe, SVG" iho:version="0.1" />
    </iho:S100SVG>
  </metadata>
  <g>
    <path class="fMIDRD sBLACK" style="stroke-width:0.12" d="M -3.50,5.10 L -3.50,-5.10 L 3.50,-5.10 L 3.50,5.10 L -3.50,5.10 Z" />
    <path class="fWHITE sWHITE" style="stroke-width:0.08" d="M -2.52,4.29 L -2.52,-4.29 L 2.52,-4.29 L 2.52,4.29 L -2.52,4.29 Z" />
    <path class="fBLACK sBLACK" style="stroke-width:0.04" d="M -1.85,3.78 L -1.34,3.78 L -1.34,1.45 L 1.32,-0.79 L 1.32,-2.22 L 1.95,-2.01 L 2.03,-2.03 L 1.07,-3.68 L 0.13,-2.06 L 0.25,-2.03 L 0.81,-2.22 L 0.81,-1.02 L -1.85,1.22 L -1.85,3.78 Z" />
    <path class="fBLACK sBLACK" style="stroke-width:0.04" d="M 1.57,1.85 L 1.57,2.43 L 2.13,2.21 L 2.15,2.29 L 1.31,3.66 L 0.41,2.28 L 0.48,2.21 L 1.07,2.42 L 1.07,1.85 L 1.57,1.85 Z" />
    <path class="fBLACK sBLACK" style="stroke-width:0.04" d="M 0.94,0.42 L 0.60,0.79 L 1.07,1.17 L 1.07,1.33 L 1.57,1.33 L 1.57,0.95 L 0.94,0.42 Z" />
    <path class="fBLACK sBLACK" style="stroke-width:0.04" d="M 0.45,0.04 L -0.43,-0.69 L -0.75,-0.33 L 0.13,0.40 L 0.45,0.04 Z" />
    <path class="fBLACK sBLACK" style="stroke-width:0.04" d="M -1.16,-1.94 L -1.67,-1.94 L -1.67,-1.09 L -1.25,-0.69 L -0.93,-1.08 L -1.16,-1.30 L -1.16,-1.94 Z" />
    <path class="fBLACK sBLACK" style="stroke-width:0.04" d="M -1.16,-3.70 L -1.67,-3.70 L -1.67,-2.60 L -1.16,-2.60 L -1.16,-3.70 Z" />
    <circle class="pivotPoint layout" fill="none" cx="0" cy="0" r="0.2" />
  </g>
</svg>