<?xml version="1.0" encoding="UTF-8"?>
<?xml-stylesheet type='text/css' href='S401Style.css'?>
<svg version="1.2" baseProfile="tiny" style="shape-rendering:geometricPrecision; fill-rule:evenodd;" width="12.86mm" height="18.35mm" viewBox="-6.41 -9.13 12.88 18.37" xmlns="http://www.w3.org/2000/svg">
  <title>NMKREG17V</title>
  <desc>headroom limited (C.2) - virtual</desc>
  <metadata />
  <g>
    <path class="f0 sWHITE" style="stroke-width:0.04" d="M 3.50,-3.50 L -3.50,-3.50 L -3.50,3.50 L 3.50,3.50 L 3.50,-3.50 Z" />
    <path class="fMIDRD sBLACK" style="stroke-width:0.12" d="M 3.50,3.50 L -3.50,3.50 L -3.50,-3.50 L 3.50,-3.50 L 3.50,3.50 Z" />
    <path class="f0 sBLACK" style="stroke-width:0.24" d="M -4.19,3.21 L -6.40,0.05 L -4.28,-2.98 " />
    <path class="f0 sBLACK" style="stroke-width:0.24" d="M 2.35,5.92 L 0.03,9.23 L -2.18,6.09 " />
    <path class="f0 sBLACK" style="stroke-width:0.24" d="M -2.40,-5.66 L 0.03,-9.12 L 2.42,-5.70 " />
    <path class="f0 sBLACK" style="stroke-width:0.24" d="M 4.41,-2.87 L 6.46,0.05 L 4.10,3.41 " />
    <path class="f0 sBLACK" style="stroke-width:0.24" d="M -2.23,-5.55 L 0.03,-8.77 L 2.26,-5.59 " />
    <path class="f0 sBLACK" style="stroke-width:0.24" d="M 4.25,-2.75 L 6.21,0.05 L 3.94,3.29 " />
    <path class="f0 sBLACK" style="stroke-width:0.24" d="M 2.18,5.80 L 0.03,8.88 L -2.01,5.97 " />
    <path class="f0 sBLACK" style="stroke-width:0.24" d="M -4.02,3.10 L -6.16,0.05 L -4.11,-2.87 " />
    <path class="fWHITE sWHITE" style="stroke-width:0.04" d="M 2.52,2.52 L -2.52,2.52 L -2.52,-2.52 L 2.52,-2.52 L 2.52,2.52 Z" />
    <path class="fBLACK sBLACK" style="stroke-width:0.04" d="M -1.60,-2.52 L 0.05,-0.86 L 1.70,-2.52 L -1.60,-2.52 Z" />
    <circle class="pivotPoint layout" fill="none" cx="0" cy="0" r="0.2" />
  </g>
</svg>