<?xml version="1.0" encoding="utf-8"?>
<?xml-stylesheet type='text/css' href='S401Style.css'?>
<svg version="1.2" baseProfile="tiny" style="shape-rendering:geometricPrecision; fill-rule:evenodd;" width="7.00mm" height="10.20mm" viewBox="-3.51 -5.11 7.02 10.22" xmlns="http://www.w3.org/2000/svg">
  <title>NMKREG08</title>
  <desc>cross fairway to port (B.4a)</desc>
  <metadata>
    <iho:S100SVG xmlns:iho="http://www.iho.int/SVGMetadata">
      <iho:Description iho:publisher="IEHG" iho:creationDate="2015-07-29" iho:source="" iho:format="IENC signs, Europe, SVG" iho:version="0.1" />
    </iho:S100SVG>
  </metadata>
  <g>
    <path class="fMIDRD sBLACK" style="stroke-width:0.12" d="M -3.50,5.10 L -3.50,-5.10 L 3.50,-5.10 L 3.50,5.10 L -3.50,5.10 Z" />
    <path class="fWHITE sWHITE" style="stroke-width:0.08" d="M -2.52,4.29 L -2.52,-4.29 L 2.52,-4.29 L 2.52,4.29 L -2.52,4.29 Z" />
    <path class="fBLACK sBLACK" style="stroke-width:0.04" d="M 1.84,3.78 L 1.32,3.78 L 1.32,1.45 L -1.34,-0.79 L -1.34,-2.22 L -1.96,-2.01 L -2.05,-2.03 L -1.08,-3.68 L -0.15,-2.06 L -0.26,-2.03 L -0.82,-2.22 L -0.82,-1.02 L 1.84,1.22 L 1.84,3.78 Z" />
    <path class="fBLACK sBLACK" style="stroke-width:0.04" d="M -1.59,1.85 L -1.59,2.43 L -2.15,2.21 L -2.17,2.29 L -1.32,3.66 L -0.42,2.28 L -0.49,2.21 L -1.08,2.42 L -1.08,1.85 L -1.59,1.85 Z" />
    <path class="fBLACK sBLACK" style="stroke-width:0.04" d="M -0.95,0.42 L -0.61,0.79 L -1.08,1.17 L -1.08,1.33 L -1.59,1.33 L -1.59,0.95 L -0.95,0.42 Z" />
    <path class="fBLACK sBLACK" style="stroke-width:0.04" d="M -0.46,0.04 L 0.42,-0.69 L 0.73,-0.33 L -0.14,0.40 L -0.46,0.04 Z" />
    <path class="fBLACK sBLACK" style="stroke-width:0.04" d="M 1.15,-1.94 L 1.66,-1.94 L 1.66,-1.09 L 1.24,-0.69 L 0.92,-1.08 L 1.15,-1.30 L 1.15,-1.94 Z" />
    <path class="fBLACK sBLACK" style="stroke-width:0.04" d="M 1.15,-3.70 L 1.66,-3.70 L 1.66,-2.60 L 1.15,-2.60 L 1.15,-3.70 Z" />
    <circle class="pivotPoint layout" fill="none" cx="0" cy="0" r="0.2" />
  </g>
</svg>