<?xml version="1.0" encoding="utf-8"?>
<?xml-stylesheet type='text/css' href='S401Style.css'?>
<svg version="1.2" baseProfile="tiny" style="shape-rendering:geometricPrecision; fill-rule:evenodd;" width="10.20mm" height="8.60mm" viewBox="-5.11 -8.28 10.22 8.62" xmlns="http://www.w3.org/2000/svg">
  <title>NMKREG21</title>
  <desc>proceed in left direction (B.1), orientation encoded</desc>
  <metadata>
    <iho:S100SVG xmlns:iho="http://www.iho.int/SVGMetadata">
      <iho:Description iho:publisher="IEHG" iho:creationDate="2015-07-29" iho:source="" iho:format="IENC signs, Europe, SVG" iho:version="0.1" />
    </iho:S100SVG>
  </metadata>
  <g>
    <path class="fMIDRD sBLACK" style="stroke-width:0.12" d="M -5.10,-8.27 L 5.10,-8.27 L 5.10,-1.27 L -5.10,-1.27 L -5.10,-8.27 Z" />
    <path class="fWHITE sWHITE" style="stroke-width:0.08" d="M -4.29,-7.26 L 4.29,-7.26 L 4.29,-2.27 L -4.29,-2.27 L -4.29,-7.26 Z" />
    <path class="fBLACK sBLACK" style="stroke-width:0.04" d="M -2.07,-4.34 L 3.61,-4.34 L 3.61,-4.98 L -2.06,-4.98 L -2.01,-5.18 L -1.95,-5.41 L -1.91,-5.57 L -2.09,-5.71 L -3.54,-4.66 L -2.08,-3.61 L -1.89,-3.77 L -1.97,-4.04 L -2.07,-4.34 Z" />
    <path class="f0 sBLACK" style="stroke-width:0.12" d="M 0.00,-1.27 L 0.00,-0.33 " />
    <path class="f0 sBLACK" style="stroke-width:0.12" d="M -0.61,0.00 L -0.33,0.00 " />
    <path class="f0 sBLACK" style="stroke-width:0.12" d="M 0.33,0.00 L 0.61,0.00 " />
    <circle cx="0.00" cy="0.00" r="0.33" class="fWHITE sBLACK" style="stroke-width:0.12" />
    <circle class="pivotPoint layout" fill="none" cx="0" cy="0" r="0.2" />
  </g>
</svg>