<?xml version="1.0" encoding="utf-8"?>
<?xml-stylesheet type='text/css' href='S401Style.css'?>
<svg version="1.2" baseProfile="tiny" style="shape-rendering:geometricPrecision; fill-rule:evenodd;" width="10.20mm" height="7.00mm" viewBox="-5.11 -3.51 10.22 7.02" xmlns="http://www.w3.org/2000/svg">
  <title>NMKRCD05</title>
  <desc>you are recommended to proceed in the left direction (D.3)</desc>
  <metadata>
    <iho:S100SVG xmlns:iho="http://www.iho.int/SVGMetadata">
      <iho:Description iho:publisher="IEHG" iho:creationDate="2015-07-29" iho:source="" iho:format="IENC signs, Europe, SVG" iho:version="0.1" />
    </iho:S100SVG>
  </metadata>
  <g>
    <path class="fAZUBL sBLACK" style="stroke-width:0.12" d="M -5.10,-3.50 L 5.10,-3.50 L 5.10,3.50 L -5.10,3.50 L -5.10,-3.50 Z" />
    <path class="fWHITE sWHITE" style="stroke-width:0.04" d="M 3.80,0.66 L 3.87,0.65 L 3.94,0.62 L 4.01,0.59 L 4.08,0.55 L 4.14,0.51 L 4.19,0.45 L 4.24,0.40 L 4.29,0.33 L 4.32,0.27 L 4.35,0.20 L 4.37,0.13 L 4.39,0.05 L 4.39,-0.02 L 4.39,-0.10 L 4.38,-0.17 L 4.36,-0.25 L 4.34,-0.32 L 4.30,-0.39 L 4.26,-0.45 L 4.22,-0.51 L 4.16,-0.56 L 4.11,-0.61 L 4.04,-0.65 L 3.98,-0.69 L 3.91,-0.72 L 3.83,-0.74 L 3.82,-0.74 L -1.12,-0.74 L -0.49,-2.12 L -0.60,-2.31 L -0.86,-2.37 L -4.71,-0.01 L -0.84,2.34 L -0.56,2.30 L -0.50,2.04 L -1.05,0.66 L 3.80,0.66 Z" />
    <circle class="pivotPoint layout" fill="none" cx="0" cy="0" r="0.2" />
  </g>
</svg>