<?xml version="1.0" encoding="utf-8"?>
<?xml-stylesheet type='text/css' href='S401Style.css'?>
<svg version="1.2" baseProfile="tiny" style="shape-rendering:geometricPrecision; fill-rule:evenodd;" width="7.00mm" height="10.20mm" viewBox="-3.51 -5.11 7.02 10.22" xmlns="http://www.w3.org/2000/svg">
  <title>NMKREG07</title>
  <desc>keep the side of the fairway on your starboard side (B.3b)</desc>
  <metadata>
    <iho:S100SVG xmlns:iho="http://www.iho.int/SVGMetadata">
      <iho:Description iho:publisher="IEHG" iho:creationDate="2015-07-29" iho:source="" iho:format="IENC signs, Europe, SVG" iho:version="0.1" />
    </iho:S100SVG>
  </metadata>
  <g>
    <path class="fMIDRD sBLACK" style="stroke-width:0.12" d="M -3.50,5.10 L -3.50,-5.10 L 3.50,-5.10 L 3.50,5.10 L -3.50,5.10 Z" />
    <path class="fWHITE sWHITE" style="stroke-width:0.08" d="M -2.52,4.29 L -2.52,-4.29 L 2.52,-4.29 L 2.52,4.29 L -2.52,4.29 Z" />
    <path class="fBLACK sBLACK" style="stroke-width:0.04" d="M 2.21,-2.07 L 1.25,-3.66 L 0.24,-2.10 L 0.35,-2.03 L 0.95,-2.20 L 0.95,3.99 L 1.52,3.99 L 1.53,-2.24 L 2.14,-1.99 L 2.21,-2.07 Z" />
    <path class="fBLACK sBLACK" style="stroke-width:0.04" d="M -0.74,-3.62 L -1.33,-3.62 L -1.33,-2.63 L -0.74,-2.63 L -0.74,-3.62 Z" />
    <path class="fBLACK sBLACK" style="stroke-width:0.04" d="M -0.74,-2.31 L -1.33,-2.31 L -1.33,-1.33 L -0.74,-1.33 L -0.74,-2.31 Z" />
    <path class="fBLACK sBLACK" style="stroke-width:0.04" d="M -0.74,-1.03 L -1.33,-1.03 L -1.33,-0.05 L -0.74,-0.05 L -0.74,-1.03 Z" />
    <path class="fBLACK sBLACK" style="stroke-width:0.04" d="M -0.74,0.28 L -1.33,0.28 L -1.33,1.26 L -0.74,1.26 L -0.74,0.28 Z" />
    <path class="fBLACK sBLACK" style="stroke-width:0.04" d="M -1.04,4.05 L -0.04,2.49 L -0.15,2.42 L -0.74,2.58 L -0.75,1.58 L -1.33,1.58 L -1.33,2.55 L -1.91,2.39 L -1.94,2.48 L -1.04,4.05 Z" />
    <circle class="pivotPoint layout" fill="none" cx="0" cy="0" r="0.2" />
  </g>
</svg>