<?xml version="1.0" encoding="UTF-8"?>
<?xml-stylesheet type='text/css' href='S401Style.css'?>
<svg version="1.2" baseProfile="tiny" style="shape-rendering:geometricPrecision; fill-rule:evenodd;" width="7.00mm" height="7.00mm" viewBox="-3.51 -3.51 7.02 7.02" xmlns="http://www.w3.org/2000/svg">
  <title>NMKREG25</title>
  <desc>Use shore power connection (B.12)</desc>
  <metadata />
  <g>
    <path class="fMIDRD sBLACK" style="stroke-width:0.12" d="M 3.50,3.50 L -3.50,3.50 L -3.50,-3.50 L 3.50,-3.50 L 3.50,3.50 Z" />
    <path class="fWHITE sWHITE" style="stroke-width:0.04" d="M 2.52,2.52 L -2.52,2.52 L -2.52,-2.52 L 2.52,-2.52 L 2.52,2.52 Z" />
    <path class="fBLACK sBLACK" style="stroke-width:0.04" d="M -2.20,-0.75 L -1.15,-0.75 L -1.15,-0.26 L -2.20,-0.26 L -2.20,-0.75 Z" />
    <path class="fBLACK sBLACK" style="stroke-width:0.04" d="M -2.20,0.34 L -1.15,0.34 L -1.15,0.83 L -2.20,0.83 L -2.20,0.34 Z" />
    <path class="fBLACK sBLACK" style="stroke-width:0.04" d="M -1.05,-1.16 L -0.13,-1.16 L -0.13,1.25 L -1.05,1.25 L -1.05,-1.16 Z" />
    <path class="fBLACK sBLACK" style="stroke-width:0.04" d="M 1.34,-0.28 L 2.23,-0.28 L 2.23,0.40 L 1.34,0.40 L 1.34,-0.28 Z" />
    <path class="fBLACK sBLACK" style="stroke-width:0.04" d="M 0.00,-0.95 L 0.00,1.02 L 0.29,0.98 L 0.56,0.94 L 1.06,0.95 L 1.14,0.91 L 1.21,0.80 L 1.21,-0.70 L 1.18,-0.77 L 1.13,-0.83 L 1.07,-0.86 L 0.50,-0.87 L 0.25,-0.91 L 0.00,-0.95 Z" />
    <circle class="pivotPoint layout" fill="none" cx="0" cy="0" r="0.2" />
  </g>
</svg>