<?xml version="1.0" encoding="utf-8"?>
<?xml-stylesheet type='text/css' href='S401Style.css'?>
<svg version="1.2" baseProfile="tiny" style="shape-rendering:geometricPrecision; fill-rule:evenodd;" width="10.20mm" height="8.62mm" viewBox="-5.11 -8.28 10.22 8.64" xmlns="http://www.w3.org/2000/svg">
  <title>NMKRCD07</title>
  <desc>you are recommended to proceed in the left direction (D.3), orientation encoded</desc>
  <metadata>
    <iho:S100SVG xmlns:iho="http://www.iho.int/SVGMetadata">
      <iho:Description iho:publisher="IEHG" iho:creationDate="2015-07-29" iho:source="" iho:format="IENC signs, Europe, SVG" iho:version="0.1" />
    </iho:S100SVG>
  </metadata>
  <g>
    <path class="fAZUBL sAZUBL" style="stroke-width:0.04" d="M -5.10,-1.27 L -5.10,-8.27 L 5.10,-8.27 L 5.10,-1.27 L -5.10,-1.27 Z" />
    <circle cx="0.00" cy="0.00" r="0.35" class="f0 sBLACK" style="stroke-width:0.12" />
    <path class="f0 sBLACK" style="stroke-width:0.12" d="M 0.00,-0.35 L 0.00,-1.27 " />
    <path class="f0 sBLACK" style="stroke-width:0.12" d="M -0.59,0.00 L -0.35,0.00 " />
    <path class="f0 sBLACK" style="stroke-width:0.12" d="M 0.35,0.00 L 0.59,0.00 " />
    <path class="f0 sBLACK" style="stroke-width:0.12" d="M -5.10,-1.27 L -5.10,-8.27 L 5.10,-8.27 L 5.10,-1.27 L -5.10,-1.27 " />
    <path class="fWHITE sWHITE" style="stroke-width:0.04" d="M -1.70,-5.19 L 3.81,-5.19 L 3.81,-4.21 L -1.69,-4.21 L -1.42,-3.44 L -1.75,-3.20 L -3.86,-4.71 L -1.70,-6.23 L -1.40,-5.96 L -1.70,-5.19 Z" />
    <circle class="pivotPoint layout" fill="none" cx="0" cy="0" r="0.2" />
  </g>
</svg>