<?xml version="1.0" encoding="utf-8"?>
<?xml-stylesheet type='text/css' href='S401Style.css'?>
<svg version="1.2" baseProfile="tiny" style="shape-rendering:geometricPrecision; fill-rule:evenodd;" width="10.20mm" height="8.63mm" viewBox="-5.11 -8.29 10.22 8.65" xmlns="http://www.w3.org/2000/svg">
  <title>NMKRCD08</title>
  <desc>you are recommended to proceed in the right direction (D.3), orientation encoded</desc>
  <metadata>
    <iho:S100SVG xmlns:iho="http://www.iho.int/SVGMetadata">
      <iho:Description iho:publisher="IEHG" iho:creationDate="2015-07-29" iho:source="" iho:format="IENC signs, Europe, SVG" iho:version="0.1" />
    </iho:S100SVG>
  </metadata>
  <g>
    <path class="fAZUBL sAZUBL" style="stroke-width:0.04" d="M -5.10,-1.28 L -5.10,-8.28 L 5.10,-8.28 L 5.10,-1.28 L -5.10,-1.28 Z" />
    <circle cx="0.00" cy="0.00" r="0.35" class="f0 sBLACK" style="stroke-width:0.12" />
    <path class="f0 sBLACK" style="stroke-width:0.12" d="M 0.00,-0.35 L 0.00,-1.28 " />
    <path class="f0 sBLACK" style="stroke-width:0.12" d="M -0.59,0.00 L -0.35,0.00 " />
    <path class="f0 sBLACK" style="stroke-width:0.12" d="M 0.35,0.00 L 0.59,0.00 " />
    <path class="f0 sBLACK" style="stroke-width:0.12" d="M -5.10,-1.28 L -5.10,-8.28 L 5.10,-8.28 L 5.10,-1.28 L -5.10,-1.28 " />
    <path class="fWHITE sWHITE" style="stroke-width:0.04" d="M 1.61,-4.23 L -3.90,-4.23 L -3.90,-5.20 L 1.61,-5.20 L 1.33,-5.98 L 1.66,-6.21 L 3.77,-4.71 L 1.61,-3.19 L 1.31,-3.46 L 1.61,-4.23 Z" />
    <circle class="pivotPoint layout" fill="none" cx="0" cy="0" r="0.2" />
  </g>
</svg>