<?xml version="1.0" encoding="UTF-8"?>
<?xml-stylesheet type='text/css' href='S401Style.css'?>
<svg version="1.2" baseProfile="tiny" style="shape-rendering:geometricPrecision; fill-rule:evenodd;" width="7.00mm" height="7.00mm" viewBox="-3.51 -3.51 7.02 7.02" xmlns="http://www.w3.org/2000/svg">
  <title>NMKREG15A</title>
  <desc>radiotelephone with channel (B.11)</desc>
  <metadata />
  <g>
    <path class="fMIDRD sBLACK" style="stroke-width:0.12" d="M -3.50,-3.50 L 3.50,-3.50 L 3.50,3.50 L -3.50,3.50 L -3.50,-3.50 Z" />
    <path class="fWHITE sWHITE" style="stroke-width:0.04" d="M -2.53,-2.55 L 2.53,-2.55 L 2.53,2.52 L -2.53,2.52 L -2.53,-2.55 Z" />
    <path class="fBLACK sBLACK" style="stroke-width:0.04" d="M 0.92,-1.66 L 1.79,-1.66 L 1.79,-1.41 L 1.16,-1.41 L 1.16,-1.09 L 1.70,-1.09 L 1.70,-0.84 L 1.16,-0.84 L 1.16,-0.22 L 0.92,-0.22 L 0.92,-1.66 Z" />
    <path class="fBLACK sBLACK" style="stroke-width:0.04" d="M -0.45,-1.66 L -0.21,-1.66 L -0.21,-1.09 L 0.31,-1.09 L 0.31,-1.66 L 0.55,-1.66 L 0.55,-0.22 L 0.31,-0.22 L 0.31,-0.84 L -0.21,-0.84 L -0.21,-0.22 L -0.45,-0.22 L -0.45,-1.66 Z" />
    <path class="fBLACK sBLACK" style="stroke-width:0.04" d="M -1.80,-1.66 L -1.56,-1.66 L -1.25,-0.60 L -0.94,-1.66 L -0.69,-1.66 L -1.12,-0.22 L -1.37,-0.22 L -1.80,-1.66 Z" />
    <circle class="pivotPoint layout" fill="none" cx="0" cy="0" r="0.2" />
  </g>
</svg>