<?xml version="1.0" encoding="utf-8"?>
<?xml-stylesheet type='text/css' href='S401Style.css'?>
<svg version="1.2" baseProfile="tiny" style="shape-rendering:geometricPrecision; fill-rule:evenodd;" width="7.00mm" height="7.00mm" viewBox="-3.51 -3.51 7.02 7.02" xmlns="http://www.w3.org/2000/svg">
  <title>NMKREG15</title>
  <desc>obligation to enter in a radiotelephone link on the channel as indicated on the </desc>
  <metadata>
    <iho:S100SVG xmlns:iho="http://www.iho.int/SVGMetadata">
      <iho:Description iho:publisher="IEHG" iho:creationDate="2015-07-29" iho:source="" iho:format="IENC signs, Europe, SVG" iho:version="0.1" />
    </iho:S100SVG>
  </metadata>
  <g>
    <path class="fMIDRD sBLACK" style="stroke-width:0.12" d="M -3.50,-3.50 L 3.50,-3.50 L 3.50,3.50 L -3.50,3.50 L -3.50,-3.50 Z" />
    <path class="fWHITE sWHITE" style="stroke-width:0.04" d="M -2.58,-2.59 L 2.46,-2.59 L 2.46,2.45 L -2.58,2.45 L -2.58,-2.59 Z" />
    <path class="fBLACK sBLACK" style="stroke-width:0.04" d="M -1.81,-0.82 L -1.32,0.68 L -1.14,0.68 L -0.63,-0.82 L -0.83,-0.83 L -1.22,0.42 L -1.63,-0.82 L -1.81,-0.82 Z" />
    <path class="fBLACK sBLACK" style="stroke-width:0.04" d="M -0.48,-0.82 L -0.48,0.68 L -0.30,0.68 L -0.30,-0.03 L 0.37,-0.03 L 0.37,0.68 L 0.54,0.68 L 0.54,-0.82 L 0.37,-0.82 L 0.37,-0.20 L -0.30,-0.20 L -0.30,-0.82 L -0.48,-0.82 Z" />
    <path class="fBLACK sBLACK" style="stroke-width:0.04" d="M 0.83,-0.82 L 0.83,0.68 L 1.00,0.68 L 1.00,0.00 L 1.60,0.00 L 1.60,-0.18 L 1.00,-0.18 L 1.00,-0.64 L 1.70,-0.64 L 1.70,-0.82 L 0.83,-0.82 Z" />
    <circle class="pivotPoint layout" fill="none" cx="0" cy="0" r="0.2" />
  </g>
</svg>