<?xml version="1.0" encoding="utf-8"?>
<?xml-stylesheet type='text/css' href='S401Style.css'?>
<svg version="1.2" baseProfile="tiny" style="shape-rendering:geometricPrecision; fill-rule:evenodd;" width="3.30mm" height="4.20mm" viewBox="-1.66 -2.12 3.32 4.22" xmlns="http://www.w3.org/2000/svg">
  <title>REFDMP01</title>
  <desc>refuse dump</desc>
  <metadata>
    <iho:S100SVG xmlns:iho="http://www.iho.int/SVGMetadata">
      <iho:Description iho:publisher="IEHG" iho:creationDate="2015-07-23" iho:source="" iho:format="IENC signs, Europe, SVG" iho:version="0.1" />
    </iho:S100SVG>
  </metadata>
  <g>
    <path class="fLITGY sLITGY" style="stroke-width:0.04" d="M -1.65,-1.53 L -1.65,1.66 L -1.25,2.10 L 1.21,2.10 L 1.65,1.63 L 1.65,-1.49 L -1.65,-1.53 Z" />
    <path class="fLITGY sBLACK" style="stroke-width:0.12" d="M 1.65,-1.49 L 1.65,-1.53 L 1.64,-1.57 L 1.62,-1.61 L 1.59,-1.66 L 1.56,-1.69 L 1.51,-1.73 L 1.46,-1.77 L 1.41,-1.81 L 1.34,-1.84 L 1.27,-1.88 L 1.20,-1.91 L 1.11,-1.94 L 1.03,-1.97 L 0.93,-1.99 L 0.84,-2.01 L 0.74,-2.04 L 0.63,-2.05 L 0.52,-2.07 L 0.41,-2.08 L 0.30,-2.09 L 0.19,-2.10 L 0.07,-2.10 L -0.04,-2.11 L -0.16,-2.10 L -0.27,-2.10 L -0.38,-2.09 L -0.49,-2.08 L -0.60,-2.07 L -0.71,-2.06 L -0.81,-2.04 L -0.91,-2.02 L -1.00,-1.99 L -1.09,-1.97 L -1.17,-1.94 L -1.25,-1.91 L -1.32,-1.88 L -1.39,-1.85 L -1.45,-1.81 L -1.50,-1.78 L -1.54,-1.74 L -1.58,-1.70 L -1.61,-1.66 L -1.63,-1.62 L -1.64,-1.58 L -1.65,-1.54 L -1.65,-1.50 L -1.64,-1.45 L -1.62,-1.41 L -1.59,-1.37 L -1.56,-1.33 L -1.51,-1.29 L -1.47,-1.26 L -1.41,-1.22 L -1.35,-1.18 L -1.28,-1.15 L -1.20,-1.12 L -1.12,-1.09 L -1.03,-1.06 L -0.94,-1.03 L -0.85,-1.01 L -0.74,-0.99 L -0.64,-0.97 L -0.53,-0.96 L -0.42,-0.94 L -0.31,-0.93 L -0.20,-0.92 L -0.08,-0.92 L 0.03,-0.92 L 0.15,-0.92 L 0.26,-0.92 L 0.37,-0.93 L 0.48,-0.94 L 0.59,-0.95 L 0.70,-0.97 L 0.80,-0.98 L 0.90,-1.00 L 0.99,-1.03 L 1.08,-1.05 L 1.17,-1.08 L 1.25,-1.11 L 1.32,-1.14 L 1.38,-1.17 L 1.44,-1.21 L 1.50,-1.24 L 1.54,-1.28 L 1.58,-1.32 L 1.61,-1.36 L 1.63,-1.40 L 1.64,-1.44 L 1.65,-1.48 L 1.65,-1.49 " />
    <path class="fMIDGN sMIDGN" style="stroke-width:0.04" d="M -1.43,-0.02 L -1.26,1.45 L -0.88,0.97 L -0.48,1.46 L -0.27,1.68 L -0.04,1.87 L 0.30,1.87 L 0.56,1.69 L 0.81,1.39 L 0.68,1.30 L 0.47,1.52 L 0.25,1.65 L 0.00,1.68 L -0.24,1.47 L -0.75,0.86 L -0.12,0.57 L -1.43,-0.02 Z" />
    <path class="fMIDGN sMIDGN" style="stroke-width:0.04" d="M 1.34,1.29 L 1.28,-0.31 L 0.84,0.22 L 0.46,-0.22 L 0.18,-0.49 L -0.03,-0.64 L -0.27,-0.68 L -0.48,-0.61 L -0.61,-0.49 L -0.79,-0.33 L -0.65,-0.21 L -0.47,-0.39 L -0.33,-0.49 L -0.20,-0.51 L -0.03,-0.44 L 0.17,-0.29 L 0.42,0.00 L 0.69,0.32 L 0.11,0.55 L 1.34,1.29 Z" />
    <path class="f0 sBLACK" style="stroke-width:0.12" d="M -1.65,-1.53 L -1.65,1.66 L -1.25,2.10 L 1.21,2.10 L 1.65,1.63 L 1.65,-1.49 " />
    <circle class="pivotPoint layout" fill="none" cx="0" cy="0" r="0.2" />
  </g>
</svg>