<?xml version="1.0" encoding="UTF-8"?>
<?xml-stylesheet type='text/css' href='S401Style.css'?>
<svg version="1.2" baseProfile="tiny" style="shape-rendering:geometricPrecision; fill-rule:evenodd;" width="17.96mm" height="17.19mm" viewBox="-8.82 -12.51 17.98 17.21" xmlns="http://www.w3.org/2000/svg">
  <title>SIGFLT01F</title>
  <desc>signal float - off position - text area -d</desc>
  <metadata />
  <g>
    <path class="fYLLOW sBLACK" style="stroke-width:0.12" d="M -3.15,-1.42 L 3.15,-1.42 L 1.99,0.00 L -1.99,0.00 L -3.15,-1.42 Z" />
    <path class="f0 sFFD700" style="stroke-width:0.08" d="M -2.19,1.27 L -2.95,0.18 " />
    <path class="f0 sBLACK" style="stroke-width:0.24" d="M -4.11,-1.24 L 0.05,-7.18 L 4.21,-1.24 L 0.05,4.69 L -4.11,-1.24 Z" />
    <path class="f0 sBLACK" style="stroke-width:0.24" d="M -3.86,-1.24 L 0.05,-6.83 L 3.97,-1.24 L 0.05,4.34 L -3.86,-1.24 Z" />
    <path class="fBLACK sBLACK" style="stroke-width:0.04" d="M -7.19,-9.29 L -7.29,-9.30 L -7.38,-9.31 L -7.47,-9.32 L -7.56,-9.35 L -7.64,-9.38 L -7.73,-9.42 L -7.80,-9.47 L -7.88,-9.52 L -7.92,-9.56 L -7.97,-9.60 L -8.01,-9.65 L -8.05,-9.69 L -8.08,-9.74 L -8.12,-9.79 L -8.15,-9.84 L -8.17,-9.89 L -8.21,-9.99 L -8.25,-10.09 L -8.27,-10.19 L -8.30,-10.29 L -8.31,-10.39 L -8.32,-10.49 L -8.33,-10.59 L -8.33,-10.70 L -8.33,-10.80 L -8.81,-10.81 L -8.81,-10.70 L -8.81,-10.59 L -8.80,-10.47 L -8.80,-10.36 L -8.78,-10.25 L -8.77,-10.17 L -8.75,-10.08 L -8.73,-10.00 L -8.70,-9.92 L -8.67,-9.84 L -8.64,-9.77 L -8.60,-9.69 L -8.56,-9.62 L -8.52,-9.55 L -8.47,-9.48 L -8.42,-9.41 L -8.36,-9.35 L -8.30,-9.29 L -8.24,-9.24 L -8.17,-9.19 L -8.10,-9.14 L -8.03,-9.10 L -7.96,-9.06 L -7.88,-9.02 L -7.80,-8.99 L -7.73,-8.97 L -7.65,-8.95 L -7.58,-8.93 L -7.50,-8.92 L -7.43,-8.91 L -7.35,-8.90 L -7.27,-8.90 L -7.19,-8.90 L -7.19,-9.29 Z" />
    <path class="fBLACK sBLACK" style="stroke-width:0.04" d="M -7.19,-8.90 L -7.11,-8.90 L -7.02,-8.90 L -6.94,-8.91 L -6.86,-8.92 L -6.74,-8.94 L -6.63,-8.97 L -6.52,-9.01 L -6.42,-9.06 L -6.32,-9.12 L -6.22,-9.18 L -6.13,-9.25 L -6.05,-9.33 L -5.96,-9.43 L -5.89,-9.53 L -5.82,-9.64 L -5.76,-9.76 L -5.71,-9.88 L -5.66,-10.00 L -5.63,-10.12 L -5.61,-10.25 L -5.60,-10.36 L -5.59,-10.47 L -5.58,-10.59 L -6.06,-10.59 L -6.06,-10.49 L -6.08,-10.39 L -6.09,-10.29 L -6.11,-10.19 L -6.14,-10.09 L -6.18,-9.99 L -6.21,-9.89 L -6.24,-9.84 L -6.27,-9.79 L -6.30,-9.74 L -6.34,-9.69 L -6.38,-9.65 L -6.42,-9.60 L -6.46,-9.56 L -6.51,-9.52 L -6.56,-9.49 L -6.61,-9.45 L -6.66,-9.42 L -6.71,-9.40 L -6.77,-9.37 L -6.82,-9.35 L -6.88,-9.34 L -6.94,-9.32 L -7.00,-9.31 L -7.07,-9.30 L -7.13,-9.30 L -7.19,-9.29 L -7.19,-8.90 Z" />
    <path class="fBLACK sBLACK" style="stroke-width:0.04" d="M -7.19,-12.09 L -7.10,-12.09 L -7.01,-12.08 L -6.92,-12.07 L -6.83,-12.04 L -6.74,-12.01 L -6.66,-11.97 L -6.58,-11.92 L -6.50,-11.87 L -6.46,-11.83 L -6.42,-11.79 L -6.38,-11.75 L -6.34,-11.70 L -6.30,-11.65 L -6.27,-11.60 L -6.24,-11.55 L -6.21,-11.50 L -6.18,-11.41 L -6.14,-11.31 L -6.11,-11.21 L -6.09,-11.11 L -6.08,-11.01 L -6.06,-10.90 L -6.06,-10.80 L -6.06,-10.70 L -6.06,-10.59 L -5.58,-10.59 L -5.58,-10.70 L -5.58,-10.81 L -5.59,-10.92 L -5.60,-11.03 L -5.61,-11.14 L -5.62,-11.23 L -5.64,-11.31 L -5.67,-11.40 L -5.69,-11.48 L -5.72,-11.56 L -5.76,-11.64 L -5.80,-11.72 L -5.84,-11.80 L -5.91,-11.90 L -5.98,-11.99 L -6.07,-12.08 L -6.16,-12.16 L -6.26,-12.24 L -6.36,-12.30 L -6.47,-12.36 L -6.59,-12.40 L -6.66,-12.43 L -6.73,-12.45 L -6.81,-12.47 L -6.89,-12.48 L -6.96,-12.49 L -7.04,-12.50 L -7.12,-12.50 L -7.19,-12.50 L -7.19,-12.09 Z" />
    <path class="fBLACK sBLACK" style="stroke-width:0.04" d="M -7.19,-12.50 L -7.28,-12.50 L -7.37,-12.49 L -7.45,-12.49 L -7.54,-12.48 L -7.65,-12.45 L -7.76,-12.42 L -7.87,-12.38 L -7.97,-12.33 L -8.07,-12.27 L -8.17,-12.21 L -8.26,-12.14 L -8.34,-12.06 L -8.43,-11.96 L -8.50,-11.86 L -8.57,-11.75 L -8.63,-11.64 L -8.68,-11.52 L -8.73,-11.40 L -8.76,-11.27 L -8.78,-11.14 L -8.80,-11.03 L -8.80,-10.92 L -8.81,-10.81 L -8.33,-10.80 L -8.33,-10.90 L -8.31,-11.01 L -8.30,-11.11 L -8.27,-11.21 L -8.25,-11.31 L -8.21,-11.41 L -8.17,-11.50 L -8.15,-11.55 L -8.12,-11.61 L -8.08,-11.66 L -8.05,-11.70 L -8.01,-11.75 L -7.97,-11.79 L -7.93,-11.83 L -7.88,-11.87 L -7.83,-11.91 L -7.78,-11.94 L -7.73,-11.97 L -7.68,-12.00 L -7.63,-12.02 L -7.57,-12.04 L -7.51,-12.06 L -7.46,-12.07 L -7.39,-12.08 L -7.33,-12.09 L -7.26,-12.09 L -7.19,-12.09 L -7.19,-12.50 Z" />
    <path class="fBLACK sBLACK" style="stroke-width:0.04" d="M -4.00,-12.43 L -4.09,-12.45 L -4.19,-12.46 L -4.28,-12.46 L -4.38,-12.46 L -4.44,-12.45 L -4.51,-12.44 L -4.58,-12.42 L -4.64,-12.39 L -4.70,-12.36 L -4.74,-12.32 L -4.78,-12.27 L -4.82,-12.22 L -4.84,-12.18 L -4.86,-12.13 L -4.87,-12.09 L -4.89,-12.04 L -4.90,-11.99 L -4.90,-11.94 L -4.90,-11.89 L -4.90,-11.84 L -4.90,-11.48 L -5.35,-11.48 L -5.35,-11.14 L -4.90,-11.14 L -4.90,-8.99 L -4.48,-8.99 L -4.48,-11.14 L -4.00,-11.14 L -4.00,-11.48 L -4.48,-11.48 L -4.48,-11.69 L -4.48,-11.74 L -4.48,-11.80 L -4.47,-11.85 L -4.46,-11.91 L -4.45,-11.94 L -4.43,-11.97 L -4.41,-11.99 L -4.39,-12.01 L -4.34,-12.04 L -4.29,-12.06 L -4.23,-12.07 L -4.18,-12.08 L -4.05,-12.07 L -4.00,-12.06 L -4.00,-12.43 Z" />
    <path class="fBLACK sBLACK" style="stroke-width:0.04" d="M -2.68,-12.43 L -2.77,-12.45 L -2.87,-12.46 L -2.96,-12.46 L -3.06,-12.46 L -3.12,-12.45 L -3.19,-12.44 L -3.26,-12.42 L -3.32,-12.39 L -3.37,-12.36 L -3.42,-12.32 L -3.46,-12.27 L -3.50,-12.22 L -3.52,-12.18 L -3.54,-12.13 L -3.55,-12.09 L -3.57,-12.04 L -3.57,-11.99 L -3.58,-11.94 L -3.58,-11.89 L -3.58,-11.84 L -3.58,-11.48 L -4.02,-11.48 L -4.02,-11.14 L -3.58,-11.14 L -3.58,-8.99 L -3.16,-8.99 L -3.16,-11.14 L -2.68,-11.14 L -2.68,-11.48 L -3.16,-11.48 L -3.16,-11.69 L -3.16,-11.74 L -3.16,-11.80 L -3.15,-11.85 L -3.14,-11.91 L -3.13,-11.94 L -3.11,-11.97 L -3.09,-11.99 L -3.06,-12.01 L -3.02,-12.04 L -2.97,-12.06 L -2.91,-12.07 L -2.86,-12.08 L -2.73,-12.07 L -2.68,-12.06 L -2.68,-12.43 Z" />
    <path class="fBLACK sBLACK" style="stroke-width:0.04" d="M 1.12,-11.42 L 1.12,-11.35 L 1.11,-11.28 L 1.09,-11.21 L 1.07,-11.15 L 1.05,-11.10 L 1.02,-11.06 L 0.99,-11.02 L 0.96,-10.99 L 0.92,-10.96 L 0.88,-10.93 L 0.83,-10.91 L 0.79,-10.89 L 0.73,-10.87 L 0.67,-10.86 L 0.60,-10.85 L 0.54,-10.85 L 0.33,-10.84 L -0.52,-10.84 L -0.52,-10.43 L 0.25,-10.43 L 0.39,-10.43 L 0.53,-10.43 L 0.67,-10.44 L 0.80,-10.45 L 0.86,-10.47 L 0.92,-10.48 L 0.98,-10.50 L 1.04,-10.52 L 1.09,-10.54 L 1.14,-10.57 L 1.19,-10.61 L 1.24,-10.64 L 1.29,-10.68 L 1.33,-10.72 L 1.37,-10.77 L 1.41,-10.82 L 1.44,-10.86 L 1.48,-10.92 L 1.50,-10.97 L 1.53,-11.03 L 1.56,-11.12 L 1.58,-11.22 L 1.59,-11.32 L 1.59,-11.42 L 1.12,-11.42 Z" />
    <path class="fBLACK sBLACK" style="stroke-width:0.04" d="M 1.59,-11.42 L 1.59,-11.53 L 1.57,-11.64 L 1.56,-11.72 L 1.54,-11.79 L 1.51,-11.86 L 1.48,-11.93 L 1.44,-11.99 L 1.40,-12.05 L 1.35,-12.11 L 1.30,-12.17 L 1.24,-12.21 L 1.18,-12.25 L 1.12,-12.29 L 1.06,-12.32 L 0.99,-12.34 L 0.92,-12.36 L 0.85,-12.38 L 0.78,-12.39 L 0.64,-12.40 L 0.50,-12.41 L 0.36,-12.41 L 0.21,-12.41 L -0.99,-12.41 L -0.99,-8.99 L -0.52,-8.99 L -0.52,-10.43 L -0.52,-10.84 L -0.52,-11.99 L 0.36,-11.99 L 0.50,-11.99 L 0.65,-11.98 L 0.71,-11.97 L 0.78,-11.95 L 0.84,-11.92 L 0.89,-11.89 L 0.93,-11.86 L 0.97,-11.83 L 1.00,-11.79 L 1.03,-11.75 L 1.06,-11.71 L 1.08,-11.67 L 1.09,-11.62 L 1.10,-11.58 L 1.11,-11.50 L 1.12,-11.42 L 1.59,-11.42 Z" />
    <path class="fBLACK sBLACK" style="stroke-width:0.04" d="M 3.82,-10.16 L 3.82,-10.09 L 3.81,-10.02 L 3.80,-9.95 L 3.79,-9.88 L 3.77,-9.81 L 3.75,-9.74 L 3.72,-9.67 L 3.70,-9.63 L 3.68,-9.59 L 3.65,-9.55 L 3.62,-9.51 L 3.59,-9.47 L 3.55,-9.44 L 3.52,-9.41 L 3.48,-9.38 L 3.44,-9.36 L 3.39,-9.34 L 3.35,-9.32 L 3.30,-9.31 L 3.26,-9.30 L 3.21,-9.29 L 3.16,-9.28 L 3.11,-9.29 L 3.07,-9.28 L 3.02,-9.29 L 2.97,-9.29 L 2.92,-9.31 L 2.87,-9.32 L 2.83,-9.34 L 2.79,-9.36 L 2.74,-9.38 L 2.70,-9.41 L 2.67,-9.44 L 2.63,-9.47 L 2.60,-9.51 L 2.57,-9.55 L 2.54,-9.59 L 2.52,-9.63 L 2.50,-9.68 L 2.47,-9.74 L 2.45,-9.81 L 2.43,-9.88 L 2.42,-9.95 L 2.41,-10.02 L 2.40,-10.09 L 1.97,-10.09 L 1.98,-9.94 L 2.00,-9.82 L 2.03,-9.71 L 2.07,-9.60 L 2.12,-9.49 L 2.16,-9.41 L 2.21,-9.33 L 2.27,-9.26 L 2.33,-9.20 L 2.40,-9.14 L 2.47,-9.08 L 2.55,-9.04 L 2.63,-9.00 L 2.69,-8.98 L 2.75,-8.96 L 2.81,-8.94 L 2.87,-8.93 L 2.93,-8.92 L 2.99,-8.92 L 3.05,-8.92 L 3.11,-8.92 L 3.18,-8.92 L 3.24,-8.92 L 3.31,-8.93 L 3.38,-8.94 L 3.44,-8.95 L 3.49,-8.97 L 3.54,-8.98 L 3.60,-9.00 L 3.65,-9.03 L 3.70,-9.06 L 3.75,-9.09 L 3.79,-9.12 L 3.86,-9.18 L 3.93,-9.24 L 3.99,-9.31 L 4.04,-9.39 L 4.09,-9.47 L 4.13,-9.55 L 4.16,-9.63 L 4.19,-9.72 L 4.21,-9.85 L 4.23,-9.98 L 4.24,-10.10 L 3.82,-10.16 Z" />
    <path class="fBLACK sBLACK" style="stroke-width:0.04" d="M 3.11,-11.55 L 3.05,-11.55 L 2.99,-11.55 L 2.93,-11.55 L 2.87,-11.54 L 2.81,-11.52 L 2.75,-11.51 L 2.69,-11.49 L 2.63,-11.47 L 2.58,-11.45 L 2.52,-11.42 L 2.47,-11.38 L 2.42,-11.35 L 2.38,-11.31 L 2.33,-11.27 L 2.29,-11.22 L 2.25,-11.18 L 2.21,-11.13 L 2.17,-11.08 L 2.14,-11.03 L 2.11,-10.97 L 2.08,-10.92 L 2.06,-10.86 L 2.04,-10.80 L 2.03,-10.74 L 2.00,-10.62 L 1.98,-10.49 L 1.97,-10.36 L 1.97,-10.24 L 1.97,-10.09 L 2.40,-10.09 L 2.40,-10.16 L 2.40,-10.24 L 2.40,-10.31 L 2.40,-10.38 L 2.41,-10.45 L 2.42,-10.52 L 2.43,-10.59 L 2.45,-10.66 L 2.47,-10.73 L 2.50,-10.80 L 2.52,-10.84 L 2.54,-10.88 L 2.57,-10.92 L 2.60,-10.96 L 2.63,-11.00 L 2.67,-11.03 L 2.70,-11.06 L 2.74,-11.09 L 2.79,-11.11 L 2.83,-11.13 L 2.88,-11.15 L 2.92,-11.16 L 2.97,-11.17 L 3.02,-11.18 L 3.07,-11.18 L 3.11,-11.18 L 3.11,-11.55 Z" />
    <path class="fBLACK sBLACK" style="stroke-width:0.04" d="M 3.11,-11.18 L 3.16,-11.18 L 3.21,-11.18 L 3.26,-11.17 L 3.30,-11.16 L 3.35,-11.15 L 3.39,-11.13 L 3.44,-11.11 L 3.48,-11.08 L 3.52,-11.06 L 3.55,-11.03 L 3.59,-10.99 L 3.62,-10.96 L 3.65,-10.92 L 3.68,-10.88 L 3.70,-10.84 L 3.72,-10.80 L 3.75,-10.73 L 3.77,-10.66 L 3.79,-10.59 L 3.80,-10.52 L 3.81,-10.45 L 3.82,-10.38 L 3.82,-10.31 L 3.82,-10.24 L 3.82,-10.16 L 4.24,-10.10 L 4.25,-10.23 L 4.24,-10.38 L 4.23,-10.53 L 4.21,-10.64 L 4.18,-10.76 L 4.15,-10.87 L 4.10,-10.98 L 4.05,-11.06 L 4.00,-11.13 L 3.95,-11.20 L 3.89,-11.27 L 3.82,-11.33 L 3.74,-11.38 L 3.67,-11.43 L 3.58,-11.47 L 3.53,-11.49 L 3.47,-11.51 L 3.41,-11.52 L 3.35,-11.54 L 3.29,-11.55 L 3.23,-11.55 L 3.17,-11.55 L 3.11,-11.55 L 3.11,-11.18 Z" />
    <path class="fBLACK sBLACK" style="stroke-width:0.04" d="M 5.16,-10.65 L 5.13,-10.67 L 5.11,-10.70 L 5.10,-10.72 L 5.08,-10.75 L 5.07,-10.78 L 5.07,-10.81 L 5.07,-10.85 L 5.07,-10.89 L 5.07,-10.92 L 5.09,-10.96 L 5.10,-11.00 L 5.12,-11.04 L 5.15,-11.07 L 5.18,-11.09 L 5.22,-11.12 L 5.25,-11.14 L 5.30,-11.15 L 5.34,-11.17 L 5.38,-11.18 L 5.43,-11.19 L 5.47,-11.20 L 5.52,-11.20 L 5.56,-11.20 L 5.65,-11.20 L 5.74,-11.18 L 5.83,-11.16 L 5.92,-11.13 L 5.95,-11.11 L 5.99,-11.09 L 6.02,-11.07 L 6.04,-11.04 L 6.07,-11.01 L 6.09,-10.98 L 6.11,-10.95 L 6.13,-10.92 L 6.14,-10.85 L 6.16,-10.78 L 6.56,-10.78 L 6.56,-10.85 L 6.56,-10.91 L 6.54,-10.97 L 6.53,-11.04 L 6.50,-11.10 L 6.46,-11.17 L 6.42,-11.23 L 6.37,-11.28 L 6.32,-11.33 L 6.26,-11.38 L 6.19,-11.41 L 6.13,-11.44 L 6.06,-11.47 L 6.00,-11.49 L 5.93,-11.51 L 5.86,-11.53 L 5.80,-11.54 L 5.73,-11.55 L 5.66,-11.55 L 5.59,-11.55 L 5.52,-11.55 L 5.45,-11.55 L 5.38,-11.54 L 5.31,-11.53 L 5.24,-11.51 L 5.17,-11.49 L 5.10,-11.47 L 5.04,-11.44 L 5.00,-11.42 L 4.95,-11.40 L 4.92,-11.37 L 4.88,-11.34 L 4.84,-11.31 L 4.81,-11.27 L 4.78,-11.24 L 4.75,-11.20 L 4.73,-11.16 L 4.71,-11.11 L 4.69,-11.07 L 4.68,-11.02 L 4.66,-10.98 L 4.65,-10.93 L 4.65,-10.88 L 4.65,-10.84 L 4.65,-10.76 L 4.66,-10.69 L 4.67,-10.62 L 4.69,-10.56 L 4.72,-10.51 L 4.75,-10.45 L 4.79,-10.40 L 4.84,-10.35 L 4.89,-10.31 L 4.94,-10.28 L 5.16,-10.65 Z" />
    <path class="fBLACK sBLACK" style="stroke-width:0.04" d="M 5.60,-8.92 L 5.71,-8.92 L 5.82,-8.93 L 5.92,-8.94 L 6.02,-8.97 L 6.11,-9.00 L 6.20,-9.03 L 6.25,-9.06 L 6.30,-9.09 L 6.34,-9.12 L 6.39,-9.15 L 6.43,-9.19 L 6.46,-9.23 L 6.49,-9.27 L 6.53,-9.32 L 6.55,-9.37 L 6.58,-9.42 L 6.60,-9.47 L 6.61,-9.52 L 6.62,-9.57 L 6.63,-9.63 L 6.64,-9.68 L 6.64,-9.74 L 6.63,-9.83 L 6.62,-9.91 L 6.60,-9.96 L 6.59,-10.01 L 6.56,-10.06 L 6.54,-10.10 L 6.51,-10.15 L 6.47,-10.18 L 6.43,-10.22 L 6.39,-10.25 L 6.33,-10.29 L 6.26,-10.33 L 6.19,-10.36 L 6.11,-10.38 L 5.87,-10.45 L 5.46,-10.54 L 5.39,-10.56 L 5.32,-10.58 L 5.25,-10.60 L 5.19,-10.64 L 5.16,-10.65 L 4.94,-10.28 L 5.04,-10.23 L 5.15,-10.19 L 5.25,-10.16 L 5.36,-10.14 L 5.83,-10.02 L 5.98,-9.98 L 6.02,-9.97 L 6.05,-9.95 L 6.08,-9.93 L 6.11,-9.91 L 6.14,-9.89 L 6.15,-9.87 L 6.17,-9.84 L 6.19,-9.82 L 6.20,-9.79 L 6.21,-9.76 L 6.21,-9.73 L 6.21,-9.70 L 6.21,-9.66 L 6.20,-9.61 L 6.19,-9.57 L 6.17,-9.53 L 6.15,-9.49 L 6.13,-9.46 L 6.10,-9.42 L 6.06,-9.39 L 6.02,-9.37 L 5.99,-9.35 L 5.90,-9.32 L 5.81,-9.30 L 5.72,-9.29 L 5.62,-9.29 L 5.60,-8.92 Z" />
    <path class="fBLACK sBLACK" style="stroke-width:0.04" d="M 5.62,-9.29 L 5.56,-9.28 L 5.49,-9.29 L 5.43,-9.30 L 5.37,-9.31 L 5.31,-9.33 L 5.26,-9.36 L 5.21,-9.39 L 5.16,-9.42 L 5.12,-9.47 L 5.08,-9.51 L 5.05,-9.56 L 5.02,-9.62 L 5.00,-9.71 L 4.99,-9.80 L 4.58,-9.80 L 4.58,-9.74 L 4.58,-9.69 L 4.59,-9.63 L 4.60,-9.58 L 4.61,-9.53 L 4.63,-9.47 L 4.65,-9.42 L 4.67,-9.37 L 4.71,-9.30 L 4.76,-9.23 L 4.82,-9.17 L 4.88,-9.11 L 4.95,-9.07 L 5.02,-9.02 L 5.10,-8.99 L 5.18,-8.97 L 5.28,-8.94 L 5.39,-8.93 L 5.49,-8.92 L 5.60,-8.92 L 5.62,-9.29 Z" />
    <path class="fBLACK sBLACK" style="stroke-width:0.04" d="M 9.15,-10.48 L 9.15,-10.60 L 9.15,-10.72 L 9.14,-10.84 L 9.13,-10.96 L 9.12,-11.02 L 9.10,-11.08 L 9.07,-11.14 L 9.04,-11.20 L 9.01,-11.25 L 8.97,-11.30 L 8.92,-11.34 L 8.88,-11.38 L 8.82,-11.41 L 8.77,-11.44 L 8.72,-11.47 L 8.66,-11.49 L 8.57,-11.51 L 8.47,-11.52 L 8.38,-11.53 L 8.29,-11.53 L 8.19,-11.53 L 8.10,-11.52 L 8.02,-11.50 L 7.93,-11.47 L 7.87,-11.44 L 7.81,-11.41 L 7.75,-11.37 L 7.70,-11.33 L 7.65,-11.29 L 7.60,-11.24 L 7.56,-11.19 L 7.52,-11.13 L 7.52,-11.48 L 7.12,-11.48 L 7.12,-8.99 L 7.54,-8.99 L 7.54,-10.41 L 7.54,-10.50 L 7.55,-10.58 L 7.56,-10.65 L 7.57,-10.71 L 7.59,-10.77 L 7.62,-10.83 L 7.66,-10.89 L 7.70,-10.94 L 7.74,-10.99 L 7.79,-11.03 L 7.84,-11.06 L 7.90,-11.09 L 7.95,-11.12 L 8.01,-11.14 L 8.07,-11.15 L 8.13,-11.16 L 8.19,-11.17 L 8.25,-11.17 L 8.29,-11.17 L 8.33,-11.16 L 8.37,-11.16 L 8.41,-11.15 L 8.45,-11.14 L 8.49,-11.12 L 8.52,-11.11 L 8.55,-11.08 L 8.58,-11.06 L 8.61,-11.03 L 8.63,-11.00 L 8.66,-10.97 L 8.69,-10.90 L 8.71,-10.82 L 8.72,-10.74 L 8.72,-10.66 L 8.72,-8.99 L 9.15,-8.99 L 9.15,-10.48 Z" />
    <path class="f0 sBLACK" style="stroke-width:0.12" d="M 0.00,-3.19 L 0.00,-1.42 " />
    <path class="f0 sBLACK" style="stroke-width:0.12" d="M -2.61,0.00 L -0.31,0.00 " />
    <path class="f0 sBLACK" style="stroke-width:0.12" d="M 0.31,0.00 L 2.61,0.00 " />
    <circle cx="0.00" cy="0.00" r="0.31" class="fWHITE sBLACK" style="stroke-width:0.12" />
    <circle class="pivotPoint layout" fill="none" cx="0" cy="0" r="0.2" />
  </g>
</svg>