<?xml version="1.0" encoding="UTF-8"?>
<?xml-stylesheet type='text/css' href='S401Style.css'?>
<svg version="1.2" baseProfile="tiny" style="shape-rendering:geometricPrecision; fill-rule:evenodd;" width="15.50mm" height="17.10mm" viewBox="-7.55 -12.42 15.52 17.12" xmlns="http://www.w3.org/2000/svg">
  <title>SIGFLT01M</title>
  <desc>signal float - off position - missing - text area -d</desc>
  <metadata />
  <g>
    <path class="fYLLOW sBLACK" style="stroke-width:0.12" d="M -3.15,-1.42 L 3.15,-1.42 L 1.99,0.00 L -1.99,0.00 L -3.15,-1.42 Z" />
    <path class="f0 sBLACK" style="stroke-width:0.24" d="M -2.68,0.80 L -4.11,-1.24 L -2.73,-3.21 " />
    <path class="f0 sBLACK" style="stroke-width:0.24" d="M 1.60,2.48 L 0.05,4.69 L -1.42,2.58 " />
    <path class="f0 sBLACK" style="stroke-width:0.28" d="M 2.89,-3.13 L 4.21,-1.24 L 2.70,0.92 " />
    <path class="f0 sBLACK" style="stroke-width:0.24" d="M -1.56,-4.87 L 0.05,-7.18 L 1.65,-4.90 " />
    <path class="f0 sBLACK" style="stroke-width:0.24" d="M -1.40,-4.76 L 0.05,-6.83 L 1.49,-4.78 " />
    <path class="f0 sBLACK" style="stroke-width:0.24" d="M -2.51,0.68 L -3.86,-1.24 L -2.57,-3.09 " />
    <path class="f0 sBLACK" style="stroke-width:0.24" d="M 2.72,-3.02 L 3.97,-1.24 L 2.53,0.80 " />
    <path class="f0 sBLACK" style="stroke-width:0.24" d="M 1.44,2.37 L 0.05,4.34 L -1.26,2.47 " />
    <path class="fBLACK sBLACK" style="stroke-width:0.04" d="M -5.89,-11.35 L -5.94,-11.39 L -5.99,-11.43 L -6.05,-11.46 L -6.11,-11.49 L -6.19,-11.51 L -6.27,-11.53 L -6.35,-11.53 L -6.44,-11.53 L -6.49,-11.53 L -6.54,-11.53 L -6.60,-11.52 L -6.65,-11.51 L -6.70,-11.49 L -6.75,-11.47 L -6.79,-11.45 L -6.84,-11.43 L -6.89,-11.40 L -6.93,-11.37 L -6.97,-11.34 L -7.01,-11.30 L -7.05,-11.27 L -7.08,-11.23 L -7.11,-11.18 L -7.14,-11.14 L -7.14,-11.48 L -7.54,-11.48 L -7.54,-8.99 L -7.13,-8.99 L -7.13,-10.46 L -7.12,-10.52 L -7.12,-10.59 L -7.11,-10.64 L -7.10,-10.69 L -7.09,-10.73 L -7.08,-10.78 L -7.06,-10.83 L -7.04,-10.87 L -7.01,-10.91 L -6.99,-10.95 L -6.94,-11.00 L -6.89,-11.05 L -6.83,-11.09 L -6.77,-11.12 L -6.71,-11.14 L -6.65,-11.16 L -6.58,-11.17 L -6.51,-11.17 L -6.46,-11.17 L -6.41,-11.16 L -6.36,-11.15 L -6.31,-11.13 L -6.27,-11.11 L -6.23,-11.08 L -6.20,-11.05 L -5.89,-11.35 Z" />
    <path class="fBLACK sBLACK" style="stroke-width:0.04" d="M -6.20,-11.05 L -6.16,-11.01 L -6.14,-10.97 L -6.11,-10.89 L -6.09,-10.82 L -6.08,-10.74 L -6.08,-10.66 L -6.08,-8.99 L -5.65,-8.99 L -5.65,-10.46 L -5.65,-10.52 L -5.65,-10.59 L -5.64,-10.65 L -5.62,-10.72 L -5.61,-10.76 L -5.60,-10.81 L -5.58,-10.85 L -5.56,-10.89 L -5.53,-10.93 L -5.51,-10.97 L -5.47,-11.01 L -5.44,-11.04 L -5.40,-11.07 L -5.35,-11.10 L -5.30,-11.12 L -5.26,-11.14 L -5.21,-11.15 L -5.15,-11.16 L -5.10,-11.17 L -5.05,-11.17 L -4.98,-11.17 L -4.92,-11.15 L -4.85,-11.13 L -4.79,-11.10 L -4.76,-11.08 L -4.73,-11.05 L -4.71,-11.03 L -4.69,-11.00 L -4.67,-10.96 L -4.65,-10.93 L -4.64,-10.90 L -4.63,-10.86 L -4.62,-10.77 L -4.61,-10.69 L -4.61,-10.60 L -4.61,-10.52 L -4.61,-8.99 L -4.20,-8.99 L -4.20,-10.48 L -4.20,-10.60 L -4.20,-10.72 L -4.20,-10.84 L -4.21,-10.96 L -4.22,-11.00 L -4.23,-11.05 L -4.24,-11.09 L -4.26,-11.13 L -4.28,-11.17 L -4.30,-11.21 L -4.32,-11.25 L -4.35,-11.29 L -4.38,-11.32 L -4.41,-11.35 L -4.45,-11.38 L -4.48,-11.41 L -4.52,-11.43 L -4.56,-11.45 L -4.60,-11.47 L -4.64,-11.49 L -4.73,-11.51 L -4.81,-11.52 L -4.90,-11.53 L -4.98,-11.53 L -5.04,-11.53 L -5.09,-11.53 L -5.15,-11.52 L -5.20,-11.51 L -5.26,-11.50 L -5.31,-11.48 L -5.36,-11.46 L -5.41,-11.44 L -5.46,-11.41 L -5.50,-11.38 L -5.55,-11.35 L -5.59,-11.31 L -5.63,-11.28 L -5.67,-11.24 L -5.70,-11.20 L -5.74,-11.15 L -5.77,-11.21 L -5.81,-11.26 L -5.85,-11.31 L -5.89,-11.35 L -6.20,-11.05 Z" />
    <path class="fBLACK sBLACK" style="stroke-width:0.04" d="M -3.57,-12.41 L -3.57,-11.93 L -3.15,-11.93 L -3.15,-12.41 L -3.57,-12.41 Z" />
    <path class="fBLACK sBLACK" style="stroke-width:0.04" d="M -3.57,-11.48 L -3.57,-8.99 L -3.15,-8.99 L -3.15,-11.48 L -3.57,-11.48 Z" />
    <path class="fBLACK sBLACK" style="stroke-width:0.04" d="M -2.11,-10.65 L -2.14,-10.67 L -2.16,-10.70 L -2.17,-10.72 L -2.19,-10.75 L -2.20,-10.78 L -2.20,-10.81 L -2.20,-10.85 L -2.20,-10.89 L -2.20,-10.92 L -2.19,-10.96 L -2.17,-11.00 L -2.15,-11.04 L -2.12,-11.07 L -2.09,-11.09 L -2.06,-11.12 L -2.02,-11.14 L -1.97,-11.15 L -1.93,-11.17 L -1.89,-11.18 L -1.84,-11.19 L -1.80,-11.20 L -1.75,-11.20 L -1.71,-11.20 L -1.62,-11.20 L -1.53,-11.18 L -1.44,-11.16 L -1.35,-11.13 L -1.32,-11.11 L -1.29,-11.09 L -1.26,-11.07 L -1.23,-11.04 L -1.20,-11.01 L -1.18,-10.98 L -1.16,-10.95 L -1.14,-10.92 L -1.13,-10.85 L -1.12,-10.78 L -0.71,-10.78 L -0.71,-10.85 L -0.71,-10.91 L -0.73,-10.97 L -0.74,-11.04 L -0.77,-11.10 L -0.81,-11.17 L -0.85,-11.23 L -0.90,-11.28 L -0.96,-11.33 L -1.01,-11.38 L -1.08,-11.41 L -1.14,-11.44 L -1.21,-11.47 L -1.27,-11.49 L -1.34,-11.51 L -1.41,-11.53 L -1.47,-11.54 L -1.54,-11.55 L -1.61,-11.55 L -1.68,-11.55 L -1.75,-11.55 L -1.82,-11.55 L -1.89,-11.54 L -1.96,-11.53 L -2.03,-11.51 L -2.10,-11.49 L -2.17,-11.47 L -2.23,-11.44 L -2.27,-11.42 L -2.32,-11.40 L -2.35,-11.37 L -2.39,-11.34 L -2.43,-11.31 L -2.46,-11.27 L -2.49,-11.24 L -2.52,-11.20 L -2.54,-11.16 L -2.56,-11.11 L -2.58,-11.07 L -2.59,-11.02 L -2.61,-10.98 L -2.62,-10.93 L -2.62,-10.88 L -2.62,-10.84 L -2.62,-10.76 L -2.61,-10.69 L -2.60,-10.62 L -2.58,-10.56 L -2.55,-10.51 L -2.52,-10.45 L -2.48,-10.40 L -2.43,-10.35 L -2.38,-10.31 L -2.33,-10.28 L -2.11,-10.65 Z" />
    <path class="fBLACK sBLACK" style="stroke-width:0.04" d="M -1.67,-8.92 L -1.56,-8.92 L -1.45,-8.93 L -1.35,-8.94 L -1.26,-8.97 L -1.16,-9.00 L -1.07,-9.03 L -1.02,-9.06 L -0.97,-9.09 L -0.93,-9.12 L -0.89,-9.15 L -0.85,-9.19 L -0.81,-9.23 L -0.78,-9.27 L -0.74,-9.32 L -0.72,-9.37 L -0.70,-9.42 L -0.67,-9.47 L -0.66,-9.52 L -0.65,-9.57 L -0.64,-9.63 L -0.63,-9.68 L -0.63,-9.74 L -0.64,-9.83 L -0.65,-9.91 L -0.67,-9.96 L -0.68,-10.01 L -0.71,-10.06 L -0.73,-10.10 L -0.76,-10.15 L -0.80,-10.18 L -0.84,-10.22 L -0.88,-10.25 L -0.94,-10.29 L -1.01,-10.33 L -1.08,-10.36 L -1.16,-10.38 L -1.40,-10.45 L -1.81,-10.54 L -1.88,-10.56 L -1.95,-10.58 L -2.02,-10.60 L -2.09,-10.64 L -2.11,-10.65 L -2.33,-10.28 L -2.23,-10.23 L -2.12,-10.19 L -2.02,-10.16 L -1.91,-10.14 L -1.44,-10.02 L -1.29,-9.98 L -1.26,-9.97 L -1.22,-9.95 L -1.19,-9.93 L -1.16,-9.91 L -1.14,-9.89 L -1.12,-9.87 L -1.10,-9.84 L -1.08,-9.82 L -1.07,-9.79 L -1.06,-9.76 L -1.06,-9.73 L -1.06,-9.70 L -1.06,-9.66 L -1.07,-9.61 L -1.08,-9.57 L -1.10,-9.53 L -1.12,-9.49 L -1.14,-9.46 L -1.17,-9.42 L -1.21,-9.39 L -1.25,-9.37 L -1.29,-9.35 L -1.37,-9.32 L -1.46,-9.30 L -1.55,-9.29 L -1.65,-9.29 L -1.67,-8.92 Z" />
    <path class="fBLACK sBLACK" style="stroke-width:0.04" d="M -1.65,-9.29 L -1.71,-9.28 L -1.78,-9.29 L -1.84,-9.30 L -1.90,-9.31 L -1.96,-9.33 L -2.01,-9.36 L -2.07,-9.39 L -2.11,-9.42 L -2.15,-9.47 L -2.19,-9.51 L -2.22,-9.56 L -2.25,-9.62 L -2.27,-9.71 L -2.28,-9.80 L -2.69,-9.80 L -2.69,-9.74 L -2.69,-9.69 L -2.68,-9.63 L -2.67,-9.58 L -2.66,-9.53 L -2.64,-9.47 L -2.62,-9.42 L -2.60,-9.37 L -2.56,-9.30 L -2.51,-9.23 L -2.45,-9.17 L -2.39,-9.11 L -2.32,-9.07 L -2.25,-9.02 L -2.17,-8.99 L -2.09,-8.97 L -1.99,-8.94 L -1.88,-8.93 L -1.78,-8.92 L -1.67,-8.92 L -1.65,-9.29 Z" />
    <path class="fBLACK sBLACK" style="stroke-width:0.04" d="M 0.26,-10.65 L 0.24,-10.67 L 0.22,-10.70 L 0.20,-10.72 L 0.19,-10.75 L 0.18,-10.78 L 0.17,-10.81 L 0.17,-10.85 L 0.17,-10.89 L 0.18,-10.92 L 0.19,-10.96 L 0.21,-11.00 L 0.23,-11.04 L 0.26,-11.07 L 0.29,-11.09 L 0.32,-11.12 L 0.36,-11.14 L 0.40,-11.15 L 0.44,-11.17 L 0.49,-11.18 L 0.53,-11.19 L 0.58,-11.20 L 0.62,-11.20 L 0.67,-11.20 L 0.76,-11.20 L 0.85,-11.18 L 0.94,-11.16 L 1.02,-11.13 L 1.06,-11.11 L 1.09,-11.09 L 1.12,-11.07 L 1.15,-11.04 L 1.17,-11.01 L 1.20,-10.98 L 1.22,-10.95 L 1.23,-10.92 L 1.25,-10.85 L 1.26,-10.78 L 1.67,-10.78 L 1.67,-10.85 L 1.66,-10.91 L 1.65,-10.97 L 1.63,-11.04 L 1.60,-11.10 L 1.57,-11.17 L 1.52,-11.23 L 1.48,-11.28 L 1.42,-11.33 L 1.36,-11.38 L 1.30,-11.41 L 1.23,-11.44 L 1.17,-11.47 L 1.10,-11.49 L 1.04,-11.51 L 0.97,-11.53 L 0.90,-11.54 L 0.83,-11.55 L 0.77,-11.55 L 0.70,-11.55 L 0.63,-11.55 L 0.55,-11.55 L 0.48,-11.54 L 0.41,-11.53 L 0.34,-11.51 L 0.28,-11.49 L 0.21,-11.47 L 0.14,-11.44 L 0.10,-11.42 L 0.06,-11.40 L 0.02,-11.37 L -0.01,-11.34 L -0.05,-11.31 L -0.08,-11.27 L -0.11,-11.24 L -0.14,-11.20 L -0.16,-11.16 L -0.18,-11.11 L -0.20,-11.07 L -0.22,-11.02 L -0.23,-10.98 L -0.24,-10.93 L -0.24,-10.88 L -0.25,-10.84 L -0.24,-10.76 L -0.24,-10.69 L -0.22,-10.62 L -0.20,-10.56 L -0.17,-10.51 L -0.14,-10.45 L -0.10,-10.40 L -0.06,-10.35 L 0.00,-10.31 L 0.05,-10.28 L 0.26,-10.65 Z" />
    <path class="fBLACK sBLACK" style="stroke-width:0.04" d="M 0.71,-8.92 L 0.82,-8.92 L 0.92,-8.93 L 1.02,-8.94 L 1.12,-8.97 L 1.22,-9.00 L 1.31,-9.03 L 1.36,-9.06 L 1.40,-9.09 L 1.45,-9.12 L 1.49,-9.15 L 1.53,-9.19 L 1.57,-9.23 L 1.60,-9.27 L 1.63,-9.32 L 1.66,-9.37 L 1.68,-9.42 L 1.70,-9.47 L 1.72,-9.52 L 1.73,-9.57 L 1.74,-9.63 L 1.74,-9.68 L 1.74,-9.74 L 1.74,-9.83 L 1.72,-9.91 L 1.71,-9.96 L 1.69,-10.01 L 1.67,-10.06 L 1.64,-10.10 L 1.61,-10.15 L 1.58,-10.18 L 1.54,-10.22 L 1.50,-10.25 L 1.43,-10.29 L 1.37,-10.33 L 1.29,-10.36 L 1.22,-10.38 L 0.98,-10.45 L 0.57,-10.54 L 0.50,-10.56 L 0.43,-10.58 L 0.36,-10.60 L 0.29,-10.64 L 0.26,-10.65 L 0.05,-10.28 L 0.15,-10.23 L 0.25,-10.19 L 0.36,-10.16 L 0.46,-10.14 L 0.93,-10.02 L 1.09,-9.98 L 1.12,-9.97 L 1.16,-9.95 L 1.19,-9.93 L 1.22,-9.91 L 1.24,-9.89 L 1.26,-9.87 L 1.28,-9.84 L 1.29,-9.82 L 1.30,-9.79 L 1.31,-9.76 L 1.32,-9.73 L 1.32,-9.70 L 1.32,-9.66 L 1.31,-9.61 L 1.30,-9.57 L 1.28,-9.53 L 1.26,-9.49 L 1.23,-9.46 L 1.20,-9.42 L 1.17,-9.39 L 1.13,-9.37 L 1.09,-9.35 L 1.00,-9.32 L 0.91,-9.30 L 0.82,-9.29 L 0.73,-9.29 L 0.71,-8.92 Z" />
    <path class="fBLACK sBLACK" style="stroke-width:0.04" d="M 0.73,-9.29 L 0.66,-9.28 L 0.60,-9.29 L 0.54,-9.30 L 0.47,-9.31 L 0.42,-9.33 L 0.36,-9.36 L 0.31,-9.39 L 0.26,-9.42 L 0.22,-9.47 L 0.19,-9.51 L 0.15,-9.56 L 0.13,-9.62 L 0.11,-9.71 L 0.09,-9.80 L -0.32,-9.80 L -0.32,-9.74 L -0.31,-9.69 L -0.30,-9.63 L -0.29,-9.58 L -0.28,-9.53 L -0.26,-9.47 L -0.24,-9.42 L -0.22,-9.37 L -0.18,-9.30 L -0.13,-9.23 L -0.08,-9.17 L -0.01,-9.11 L 0.05,-9.07 L 0.13,-9.02 L 0.20,-8.99 L 0.28,-8.97 L 0.39,-8.94 L 0.49,-8.93 L 0.60,-8.92 L 0.71,-8.92 L 0.73,-9.29 Z" />
    <path class="fBLACK sBLACK" style="stroke-width:0.04" d="M 2.24,-12.41 L 2.24,-11.93 L 2.65,-11.93 L 2.65,-12.41 L 2.24,-12.41 Z" />
    <path class="fBLACK sBLACK" style="stroke-width:0.04" d="M 2.24,-11.48 L 2.24,-8.99 L 2.65,-8.99 L 2.65,-11.48 L 2.24,-11.48 Z" />
    <path class="fBLACK sBLACK" style="stroke-width:0.04" d="M 5.31,-10.48 L 5.31,-10.60 L 5.31,-10.72 L 5.30,-10.84 L 5.29,-10.96 L 5.28,-11.02 L 5.26,-11.08 L 5.23,-11.14 L 5.20,-11.20 L 5.17,-11.25 L 5.13,-11.30 L 5.08,-11.34 L 5.04,-11.38 L 4.99,-11.41 L 4.93,-11.44 L 4.88,-11.47 L 4.82,-11.49 L 4.73,-11.51 L 4.63,-11.52 L 4.54,-11.53 L 4.45,-11.53 L 4.36,-11.53 L 4.27,-11.52 L 4.18,-11.50 L 4.09,-11.47 L 4.03,-11.44 L 3.97,-11.41 L 3.91,-11.37 L 3.86,-11.33 L 3.81,-11.29 L 3.76,-11.24 L 3.72,-11.19 L 3.68,-11.13 L 3.68,-11.48 L 3.28,-11.48 L 3.28,-8.99 L 3.70,-8.99 L 3.70,-10.41 L 3.70,-10.50 L 3.71,-10.58 L 3.72,-10.65 L 3.73,-10.71 L 3.76,-10.77 L 3.78,-10.83 L 3.82,-10.89 L 3.86,-10.94 L 3.90,-10.99 L 3.95,-11.03 L 4.00,-11.06 L 4.06,-11.09 L 4.11,-11.12 L 4.17,-11.14 L 4.23,-11.15 L 4.29,-11.16 L 4.35,-11.17 L 4.41,-11.17 L 4.45,-11.17 L 4.49,-11.16 L 4.53,-11.16 L 4.57,-11.15 L 4.61,-11.14 L 4.65,-11.12 L 4.68,-11.11 L 4.71,-11.08 L 4.74,-11.06 L 4.77,-11.03 L 4.80,-11.00 L 4.82,-10.97 L 4.85,-10.90 L 4.87,-10.82 L 4.88,-10.74 L 4.88,-10.66 L 4.88,-8.99 L 5.31,-8.99 L 5.31,-10.48 Z" />
    <path class="fBLACK sBLACK" style="stroke-width:0.04" d="M 7.96,-9.04 L 7.96,-11.48 L 7.55,-11.48 L 7.55,-11.20 L 7.49,-11.27 L 7.42,-11.34 L 7.34,-11.41 L 7.26,-11.46 L 7.20,-11.49 L 7.15,-11.51 L 7.09,-11.53 L 7.04,-11.54 L 6.98,-11.55 L 6.92,-11.55 L 6.87,-11.56 L 6.81,-11.55 L 6.74,-11.55 L 6.67,-11.54 L 6.60,-11.53 L 6.53,-11.51 L 6.47,-11.49 L 6.40,-11.46 L 6.34,-11.42 L 6.28,-11.39 L 6.21,-11.33 L 6.15,-11.27 L 6.09,-11.21 L 6.04,-11.14 L 5.99,-11.06 L 5.95,-10.99 L 5.92,-10.91 L 5.89,-10.83 L 5.86,-10.75 L 5.85,-10.68 L 5.83,-10.61 L 5.82,-10.54 L 5.81,-10.46 L 5.80,-10.39 L 5.80,-10.32 L 5.80,-10.24 L 5.80,-10.16 L 6.23,-10.19 L 6.23,-10.27 L 6.23,-10.34 L 6.24,-10.41 L 6.24,-10.47 L 6.26,-10.54 L 6.27,-10.61 L 6.29,-10.67 L 6.31,-10.74 L 6.33,-10.80 L 6.35,-10.85 L 6.38,-10.89 L 6.41,-10.94 L 6.44,-10.98 L 6.48,-11.02 L 6.51,-11.05 L 6.56,-11.08 L 6.60,-11.11 L 6.67,-11.14 L 6.74,-11.16 L 6.81,-11.17 L 6.89,-11.18 L 6.97,-11.18 L 7.04,-11.17 L 7.11,-11.15 L 7.18,-11.12 L 7.23,-11.09 L 7.27,-11.06 L 7.32,-11.02 L 7.35,-10.98 L 7.39,-10.94 L 7.42,-10.90 L 7.45,-10.85 L 7.47,-10.80 L 7.50,-10.72 L 7.53,-10.64 L 7.54,-10.55 L 7.56,-10.46 L 7.56,-10.35 L 7.56,-10.23 L 7.96,-9.04 Z" />
    <path class="fBLACK sBLACK" style="stroke-width:0.04" d="M 7.56,-10.13 L 7.56,-10.03 L 7.54,-9.93 L 7.53,-9.83 L 7.51,-9.74 L 7.48,-9.66 L 7.44,-9.58 L 7.39,-9.51 L 7.35,-9.46 L 7.30,-9.41 L 7.24,-9.37 L 7.18,-9.34 L 7.12,-9.31 L 7.05,-9.29 L 6.99,-9.29 L 6.92,-9.29 L 6.84,-9.29 L 6.76,-9.30 L 6.69,-9.32 L 6.62,-9.35 L 6.57,-9.38 L 6.53,-9.41 L 6.48,-9.45 L 6.44,-9.49 L 6.41,-9.53 L 6.38,-9.58 L 6.35,-9.63 L 6.33,-9.68 L 6.30,-9.75 L 6.28,-9.82 L 6.26,-9.90 L 6.25,-9.97 L 6.24,-10.04 L 6.23,-10.12 L 6.23,-10.19 L 5.80,-10.16 L 5.80,-10.09 L 5.81,-10.01 L 5.81,-9.94 L 5.83,-9.84 L 5.85,-9.75 L 5.88,-9.66 L 5.92,-9.57 L 5.96,-9.48 L 6.01,-9.39 L 6.06,-9.31 L 6.12,-9.24 L 6.15,-9.20 L 6.19,-9.16 L 6.23,-9.13 L 6.27,-9.10 L 6.31,-9.07 L 6.35,-9.04 L 6.40,-9.01 L 6.44,-8.99 L 6.54,-8.96 L 6.64,-8.93 L 6.74,-8.92 L 6.84,-8.91 L 6.89,-8.91 L 6.94,-8.92 L 6.99,-8.92 L 7.04,-8.93 L 7.09,-8.94 L 7.14,-8.96 L 7.19,-8.98 L 7.24,-9.00 L 7.28,-9.02 L 7.33,-9.05 L 7.37,-9.08 L 7.41,-9.11 L 7.45,-9.14 L 7.48,-9.18 L 7.52,-9.22 L 7.55,-9.26 L 7.55,-8.95 L 7.96,-9.04 L 7.56,-10.23 L 7.56,-10.13 Z" />
    <path class="fBLACK sBLACK" style="stroke-width:0.04" d="M 7.55,-8.95 L 7.55,-8.83 L 7.55,-8.76 L 7.53,-8.69 L 7.51,-8.63 L 7.48,-8.56 L 7.45,-8.53 L 7.43,-8.49 L 7.39,-8.46 L 7.36,-8.43 L 7.32,-8.40 L 7.28,-8.38 L 7.24,-8.36 L 7.20,-8.35 L 7.12,-8.33 L 7.04,-8.32 L 6.96,-8.31 L 6.88,-8.31 L 6.79,-8.31 L 6.70,-8.32 L 6.63,-8.33 L 6.57,-8.35 L 6.51,-8.37 L 6.45,-8.40 L 6.42,-8.42 L 6.38,-8.45 L 6.36,-8.48 L 6.33,-8.52 L 6.32,-8.56 L 6.30,-8.61 L 6.30,-8.66 L 6.30,-8.70 L 5.89,-8.70 L 5.89,-8.61 L 5.90,-8.56 L 5.91,-8.51 L 5.92,-8.46 L 5.94,-8.42 L 5.96,-8.37 L 5.98,-8.33 L 6.01,-8.29 L 6.04,-8.25 L 6.09,-8.21 L 6.13,-8.16 L 6.18,-8.13 L 6.24,-8.09 L 6.29,-8.06 L 6.35,-8.04 L 6.41,-8.02 L 6.47,-8.00 L 6.58,-7.97 L 6.70,-7.96 L 6.82,-7.95 L 6.94,-7.96 L 7.06,-7.96 L 7.18,-7.98 L 7.29,-8.00 L 7.41,-8.04 L 7.46,-8.06 L 7.51,-8.08 L 7.56,-8.11 L 7.60,-8.14 L 7.65,-8.17 L 7.69,-8.21 L 7.73,-8.25 L 7.77,-8.29 L 7.80,-8.33 L 7.83,-8.38 L 7.86,-8.43 L 7.88,-8.48 L 7.90,-8.53 L 7.92,-8.58 L 7.93,-8.64 L 7.94,-8.69 L 7.95,-8.87 L 7.96,-9.04 L 7.55,-8.95 Z" />
    <path class="f0 sBLACK" style="stroke-width:0.12" d="M 0.00,-3.19 L 0.00,-1.42 " />
    <path class="f0 sBLACK" style="stroke-width:0.12" d="M -2.61,0.00 L -0.31,0.00 " />
    <path class="f0 sBLACK" style="stroke-width:0.12" d="M 0.31,0.00 L 2.61,0.00 " />
    <circle cx="0.00" cy="0.00" r="0.31" class="fWHITE sBLACK" style="stroke-width:0.12" />
    <circle class="pivotPoint layout" fill="none" cx="0" cy="0" r="0.2" />
  </g>
</svg>