<?xml version="1.0" encoding="utf-8"?>
<?xml-stylesheet type='text/css' href='S401Style.css'?>
<svg version="1.2" baseProfile="tiny" style="shape-rendering:geometricPrecision; fill-rule:evenodd;" width="5.20mm" height="5.20mm" viewBox="-2.61 -2.61 5.22 5.22" xmlns="http://www.w3.org/2000/svg">
  <title>TERMNL09</title>
  <desc>terminal, Explosive goods trans-shipment</desc>
  <metadata>
    <iho:S100SVG xmlns:iho="http://www.iho.int/SVGMetadata">
      <iho:Description iho:publisher="IEHG" iho:creationDate="2015-07-29" iho:source="" iho:format="IENC signs, Europe, SVG" iho:version="0.1" />
    </iho:S100SVG>
  </metadata>
  <g>
    <circle cx="0.00" cy="0.00" r="2.60" class="fLITGY sBLACK" style="stroke-width:0.08" />
    <path class="f0 sYLLOW" style="stroke-width:0.08" d="M -1.45,-0.95 L -1.18,-0.13 " />
    <path class="f0 sYLLOW" style="stroke-width:0.08" d="M -0.27,-0.94 L -0.23,-0.26 L -0.46,-0.15 " />
    <path class="f0 sYLLOW" style="stroke-width:0.08" d="M 0.42,-0.94 L 0.42,0.00 " />
    <path class="f0 sYLLOW" style="stroke-width:0.08" d="M 1.42,-0.65 L 1.11,-0.33 L 1.15,0.03 L 0.58,0.37 " />
    <path class="f0 sYLLOW" style="stroke-width:0.08" d="M 1.65,0.45 L 0.90,0.88 " />
    <path class="f0 sYLLOW" style="stroke-width:0.08" d="M 0.46,0.41 L 0.46,1.02 " />
    <path class="f0 sYLLOW" style="stroke-width:0.08" d="M -1.49,-0.18 L -0.87,0.38 " />
    <path class="f0 sYLLOW" style="stroke-width:0.08" d="M -2.02,0.72 L -0.78,0.80 " />
    <path class="f0 sYLLOW" style="stroke-width:0.08" d="M -0.67,0.85 L -0.40,1.05 " />
    <path class="f0 sORRED" style="stroke-width:0.08" d="M -1.30,-1.27 L -1.07,-1.06 " />
    <path class="f0 sORRED" style="stroke-width:0.08" d="M -0.88,-0.95 L -0.70,-0.43 " />
    <path class="f0 sORRED" style="stroke-width:0.08" d="M -0.23,-1.52 L -0.23,-1.03 " />
    <path class="f0 sORRED" style="stroke-width:0.08" d="M 0.00,-0.98 L 0.00,-0.40 " />
    <path class="f0 sORRED" style="stroke-width:0.08" d="M 0.77,-1.42 L 0.64,-1.03 " />
    <path class="f0 sORRED" style="stroke-width:0.08" d="M 0.93,-0.76 L 0.73,-0.55 L 0.71,0.04 " />
    <path class="f0 sORRED" style="stroke-width:0.08" d="M 1.62,0.02 L 0.79,0.67 " />
    <path class="f0 sORRED" style="stroke-width:0.08" d="M 1.91,0.43 L 1.64,0.74 " />
    <path class="f0 sORRED" style="stroke-width:0.08" d="M 1.44,0.91 L 1.18,1.17 L 0.46,1.21 " />
    <path class="f0 sORRED" style="stroke-width:0.08" d="M -0.39,1.19 L -1.59,1.14 " />
    <path class="f0 sORRED" style="stroke-width:0.08" d="M -1.98,-0.04 L -1.40,0.46 L -0.87,0.50 " />
    <path class="f0 sORRED" style="stroke-width:0.08" d="M -0.29,0.66 L -0.85,-0.27 " />
    <path class="f0 sORRED" style="stroke-width:0.08" d="M 0.20,0.59 L 0.00,0.00 " />
    <path class="f0 sMIDGY" style="stroke-width:0.08" d="M -0.73,1.71 L 0.46,1.37 L 0.18,0.94 L -0.16,0.96 L -0.41,1.38 L 0.01,1.94 " />
    <path class="f0 sMIDGY" style="stroke-width:0.08" d="M 0.28,1.87 L 0.60,1.66 L 0.50,1.50 " />
    <circle class="pivotPoint layout" fill="none" cx="0" cy="0" r="0.2" />
  </g>
</svg>