<?xml version="1.0" encoding="utf-8"?>
<?xml-stylesheet type='text/css' href='S401Style.css'?>
<svg version="1.2" baseProfile="tiny" style="shape-rendering:geometricPrecision; fill-rule:evenodd;" width="5.20mm" height="5.20mm" viewBox="-2.61 -2.61 5.22 5.22" xmlns="http://www.w3.org/2000/svg">
  <title>TERMNL08</title>
  <desc>terminal, Liquid Goods trans-shipment</desc>
  <metadata>
    <iho:S100SVG xmlns:iho="http://www.iho.int/SVGMetadata">
      <iho:Description iho:publisher="IEHG" iho:creationDate="2015-07-29" iho:source="" iho:format="IENC signs, Europe, SVG" iho:version="0.1" />
    </iho:S100SVG>
  </metadata>
  <g>
    <circle cx="0.00" cy="0.00" r="2.60" class="fLITGY sBLACK" style="stroke-width:0.08" />
    <path class="fBLACK sBLACK" style="stroke-width:0.04" d="M -0.91,-0.85 L -0.72,-0.85 L -0.72,0.65 L -0.91,0.65 L -0.91,-0.85 Z" />
    <path class="fBLACK sBLACK" style="stroke-width:0.04" d="M -0.44,-0.43 L -0.25,-0.43 L -0.25,0.66 L -0.44,0.66 L -0.44,-0.43 Z" />
    <path class="fBLACK sBLACK" style="stroke-width:0.04" d="M -0.44,-0.85 L -0.26,-0.85 L -0.26,-0.64 L -0.44,-0.64 L -0.44,-0.85 Z" />
    <path class="fBLACK sBLACK" style="stroke-width:0.04" d="M 0.73,-0.43 L 0.90,-0.43 L 0.90,1.08 L 0.71,1.08 L 0.71,0.57 L 0.65,0.63 L 0.57,0.67 L 0.49,0.68 L 0.39,0.68 L 0.30,0.66 L 0.21,0.62 L 0.15,0.57 L 0.08,0.50 L 0.02,0.41 L -0.02,0.31 L -0.03,0.20 L -0.04,0.11 L -0.04,0.01 L -0.02,-0.10 L 0.02,-0.20 L 0.06,-0.27 L 0.12,-0.34 L 0.19,-0.40 L 0.27,-0.44 L 0.34,-0.46 L 0.42,-0.46 L 0.50,-0.45 L 0.57,-0.43 L 0.64,-0.39 L 0.70,-0.34 L 0.73,-0.32 L 0.70,-0.07 L 0.66,-0.14 L 0.60,-0.22 L 0.52,-0.27 L 0.46,-0.28 L 0.41,-0.28 L 0.34,-0.27 L 0.29,-0.23 L 0.23,-0.19 L 0.18,-0.12 L 0.16,-0.01 L 0.15,0.08 L 0.15,0.17 L 0.16,0.26 L 0.18,0.32 L 0.22,0.39 L 0.25,0.43 L 0.30,0.46 L 0.37,0.49 L 0.43,0.51 L 0.52,0.49 L 0.57,0.47 L 0.62,0.41 L 0.64,0.37 L 0.68,0.32 L 0.71,0.23 L 0.72,0.16 L 0.71,0.04 L 0.70,-0.07 L 0.73,-0.32 L 0.73,-0.43 Z" />
    <circle class="pivotPoint layout" fill="none" cx="0" cy="0" r="0.2" />
  </g>
</svg>