<?xml version="1.0" encoding="UTF-8"?>
<?xml-stylesheet type='text/css' href='S401Style.css'?>
<svg version="1.2" baseProfile="tiny" style="shape-rendering:geometricPrecision; fill-rule:evenodd;" width="15.50mm" height="14.45mm" viewBox="-7.60 -13.74 15.52 14.47" xmlns="http://www.w3.org/2000/svg">
  <title>TOPMA112M</title>
  <desc>beacon top mark, yellow-black square board, diagonal - missing</desc>
  <metadata />
  <g>
    <path class="fYLLOW sYLLOW" style="stroke-width:0.04" d="M -1.50,-3.89 L 0.00,-5.40 L 1.50,-3.89 L 0.00,-2.40 L -1.50,-3.89 Z" />
    <path class="f0 sBLACK" style="stroke-width:0.24" d="M 2.20,-5.36 L 3.23,-3.89 L 2.05,-2.21 " />
    <path class="f0 sBLACK" style="stroke-width:0.24" d="M 1.21,-1.01 L 0.00,0.72 L -1.16,-0.93 " />
    <path class="f0 sBLACK" style="stroke-width:0.24" d="M -1.26,-6.69 L 0.00,-8.49 L 1.25,-6.71 " />
    <path class="f0 sBLACK" style="stroke-width:0.24" d="M -2.12,-2.30 L -3.23,-3.89 L -2.16,-5.41 " />
    <path class="f0 sBLACK" style="stroke-width:0.24" d="M -1.10,-6.58 L 0.00,-8.14 L 1.09,-6.59 " />
    <path class="f0 sBLACK" style="stroke-width:0.24" d="M -1.95,-2.42 L -2.98,-3.89 L -2.00,-5.30 " />
    <path class="f0 sBLACK" style="stroke-width:0.24" d="M 2.04,-5.24 L 2.98,-3.89 L 1.89,-2.32 " />
    <path class="f0 sBLACK" style="stroke-width:0.24" d="M 1.05,-1.13 L 0.00,0.37 L -0.99,-1.05 " />
    <path class="fBLACK sBLACK" style="stroke-width:0.04" d="M -5.95,-12.67 L -5.99,-12.71 L -6.05,-12.75 L -6.10,-12.78 L -6.16,-12.80 L -6.24,-12.83 L -6.32,-12.84 L -6.41,-12.85 L -6.49,-12.85 L -6.54,-12.85 L -6.60,-12.84 L -6.65,-12.84 L -6.70,-12.83 L -6.75,-12.81 L -6.80,-12.79 L -6.85,-12.77 L -6.89,-12.75 L -6.94,-12.72 L -6.98,-12.69 L -7.02,-12.66 L -7.06,-12.62 L -7.10,-12.58 L -7.13,-12.54 L -7.16,-12.50 L -7.19,-12.46 L -7.19,-12.79 L -7.59,-12.79 L -7.59,-10.31 L -7.18,-10.31 L -7.18,-11.78 L -7.18,-11.84 L -7.17,-11.90 L -7.16,-11.95 L -7.16,-12.00 L -7.14,-12.05 L -7.13,-12.10 L -7.11,-12.14 L -7.09,-12.19 L -7.06,-12.23 L -7.04,-12.27 L -6.99,-12.32 L -6.94,-12.37 L -6.89,-12.40 L -6.83,-12.43 L -6.76,-12.46 L -6.70,-12.47 L -6.63,-12.48 L -6.57,-12.49 L -6.51,-12.49 L -6.46,-12.48 L -6.41,-12.47 L -6.37,-12.45 L -6.32,-12.43 L -6.28,-12.40 L -6.25,-12.37 L -5.95,-12.67 Z" />
    <path class="fBLACK sBLACK" style="stroke-width:0.04" d="M -6.25,-12.37 L -6.22,-12.33 L -6.19,-12.29 L -6.16,-12.21 L -6.15,-12.14 L -6.14,-12.06 L -6.13,-11.98 L -6.13,-10.31 L -5.71,-10.31 L -5.71,-11.78 L -5.70,-11.84 L -5.70,-11.91 L -5.69,-11.97 L -5.68,-12.03 L -5.67,-12.08 L -5.65,-12.12 L -5.63,-12.17 L -5.61,-12.21 L -5.59,-12.25 L -5.56,-12.29 L -5.53,-12.32 L -5.49,-12.36 L -5.45,-12.39 L -5.40,-12.41 L -5.36,-12.44 L -5.31,-12.45 L -5.26,-12.47 L -5.21,-12.48 L -5.15,-12.48 L -5.10,-12.49 L -5.03,-12.48 L -4.97,-12.47 L -4.91,-12.45 L -4.84,-12.42 L -4.81,-12.40 L -4.79,-12.37 L -4.76,-12.34 L -4.74,-12.31 L -4.72,-12.28 L -4.70,-12.25 L -4.69,-12.21 L -4.68,-12.18 L -4.67,-12.09 L -4.67,-12.00 L -4.66,-11.92 L -4.66,-11.83 L -4.66,-10.31 L -4.25,-10.31 L -4.25,-11.80 L -4.25,-11.92 L -4.25,-12.04 L -4.26,-12.16 L -4.27,-12.28 L -4.27,-12.32 L -4.28,-12.36 L -4.29,-12.41 L -4.31,-12.45 L -4.33,-12.49 L -4.35,-12.53 L -4.38,-12.57 L -4.40,-12.60 L -4.43,-12.64 L -4.47,-12.67 L -4.50,-12.70 L -4.54,-12.72 L -4.57,-12.75 L -4.61,-12.77 L -4.66,-12.79 L -4.70,-12.80 L -4.78,-12.83 L -4.86,-12.84 L -4.95,-12.85 L -5.04,-12.85 L -5.09,-12.85 L -5.15,-12.85 L -5.20,-12.84 L -5.25,-12.83 L -5.31,-12.81 L -5.36,-12.80 L -5.41,-12.78 L -5.46,-12.76 L -5.51,-12.73 L -5.56,-12.70 L -5.60,-12.67 L -5.64,-12.63 L -5.68,-12.59 L -5.72,-12.55 L -5.76,-12.51 L -5.79,-12.47 L -5.82,-12.53 L -5.86,-12.58 L -5.90,-12.62 L -5.95,-12.67 L -6.25,-12.37 Z" />
    <path class="fBLACK sBLACK" style="stroke-width:0.04" d="M -3.62,-13.73 L -3.62,-13.25 L -3.21,-13.25 L -3.21,-13.73 L -3.62,-13.73 Z" />
    <path class="fBLACK sBLACK" style="stroke-width:0.04" d="M -3.62,-12.79 L -3.62,-10.31 L -3.21,-10.31 L -3.21,-12.79 L -3.62,-12.79 Z" />
    <path class="fBLACK sBLACK" style="stroke-width:0.04" d="M -2.16,-11.97 L -2.19,-11.99 L -2.21,-12.01 L -2.23,-12.04 L -2.24,-12.07 L -2.25,-12.10 L -2.25,-12.13 L -2.26,-12.16 L -2.25,-12.20 L -2.25,-12.24 L -2.24,-12.28 L -2.22,-12.32 L -2.20,-12.35 L -2.17,-12.38 L -2.14,-12.41 L -2.11,-12.43 L -2.07,-12.45 L -2.03,-12.47 L -1.98,-12.49 L -1.94,-12.50 L -1.90,-12.51 L -1.85,-12.51 L -1.81,-12.51 L -1.76,-12.51 L -1.67,-12.51 L -1.58,-12.50 L -1.49,-12.48 L -1.41,-12.45 L -1.37,-12.43 L -1.34,-12.41 L -1.31,-12.39 L -1.28,-12.36 L -1.25,-12.33 L -1.23,-12.30 L -1.21,-12.27 L -1.20,-12.23 L -1.18,-12.17 L -1.17,-12.10 L -0.76,-12.10 L -0.76,-12.16 L -0.77,-12.23 L -0.78,-12.29 L -0.80,-12.35 L -0.83,-12.42 L -0.86,-12.48 L -0.90,-12.54 L -0.95,-12.60 L -1.01,-12.65 L -1.07,-12.69 L -1.13,-12.73 L -1.20,-12.76 L -1.26,-12.79 L -1.33,-12.81 L -1.39,-12.83 L -1.46,-12.84 L -1.53,-12.86 L -1.60,-12.86 L -1.66,-12.87 L -1.73,-12.87 L -1.80,-12.87 L -1.88,-12.87 L -1.95,-12.86 L -2.02,-12.85 L -2.08,-12.83 L -2.15,-12.81 L -2.22,-12.79 L -2.28,-12.76 L -2.33,-12.74 L -2.37,-12.71 L -2.41,-12.69 L -2.44,-12.66 L -2.48,-12.63 L -2.51,-12.59 L -2.54,-12.55 L -2.57,-12.51 L -2.59,-12.47 L -2.61,-12.43 L -2.63,-12.39 L -2.65,-12.34 L -2.66,-12.29 L -2.67,-12.25 L -2.67,-12.20 L -2.67,-12.15 L -2.67,-12.08 L -2.67,-12.00 L -2.65,-11.94 L -2.63,-11.88 L -2.60,-11.82 L -2.57,-11.77 L -2.53,-11.72 L -2.48,-11.67 L -2.43,-11.63 L -2.38,-11.60 L -2.16,-11.97 Z" />
    <path class="fBLACK sBLACK" style="stroke-width:0.04" d="M -1.72,-10.23 L -1.61,-10.24 L -1.50,-10.25 L -1.41,-10.26 L -1.31,-10.28 L -1.21,-10.31 L -1.12,-10.35 L -1.07,-10.37 L -1.02,-10.40 L -0.98,-10.44 L -0.94,-10.47 L -0.90,-10.51 L -0.86,-10.55 L -0.83,-10.59 L -0.80,-10.64 L -0.77,-10.68 L -0.75,-10.73 L -0.73,-10.78 L -0.71,-10.84 L -0.70,-10.89 L -0.69,-10.94 L -0.69,-11.00 L -0.69,-11.05 L -0.69,-11.14 L -0.71,-11.23 L -0.72,-11.28 L -0.74,-11.33 L -0.76,-11.38 L -0.79,-11.42 L -0.82,-11.46 L -0.85,-11.50 L -0.89,-11.54 L -0.93,-11.57 L -1.00,-11.61 L -1.06,-11.65 L -1.14,-11.68 L -1.21,-11.70 L -1.45,-11.76 L -1.86,-11.86 L -1.93,-11.87 L -2.00,-11.89 L -2.07,-11.92 L -2.14,-11.95 L -2.16,-11.97 L -2.38,-11.60 L -2.28,-11.55 L -2.18,-11.51 L -2.07,-11.48 L -1.97,-11.45 L -1.50,-11.33 L -1.34,-11.30 L -1.31,-11.28 L -1.27,-11.27 L -1.24,-11.25 L -1.21,-11.22 L -1.19,-11.21 L -1.17,-11.18 L -1.15,-11.16 L -1.14,-11.14 L -1.12,-11.11 L -1.12,-11.08 L -1.11,-11.05 L -1.11,-11.02 L -1.11,-10.97 L -1.12,-10.93 L -1.13,-10.89 L -1.15,-10.85 L -1.17,-10.81 L -1.20,-10.77 L -1.23,-10.74 L -1.26,-10.71 L -1.30,-10.69 L -1.34,-10.67 L -1.42,-10.64 L -1.52,-10.62 L -1.61,-10.60 L -1.70,-10.60 L -1.72,-10.23 Z" />
    <path class="fBLACK sBLACK" style="stroke-width:0.04" d="M -1.70,-10.60 L -1.76,-10.60 L -1.83,-10.61 L -1.89,-10.62 L -1.96,-10.63 L -2.01,-10.65 L -2.07,-10.67 L -2.12,-10.70 L -2.17,-10.74 L -2.21,-10.78 L -2.24,-10.83 L -2.27,-10.88 L -2.30,-10.94 L -2.32,-11.02 L -2.34,-11.12 L -2.75,-11.12 L -2.74,-11.06 L -2.74,-11.01 L -2.73,-10.95 L -2.72,-10.90 L -2.71,-10.84 L -2.69,-10.79 L -2.67,-10.74 L -2.65,-10.69 L -2.61,-10.62 L -2.56,-10.55 L -2.50,-10.49 L -2.44,-10.43 L -2.37,-10.38 L -2.30,-10.34 L -2.23,-10.31 L -2.15,-10.28 L -2.04,-10.26 L -1.94,-10.24 L -1.83,-10.24 L -1.72,-10.23 L -1.70,-10.60 Z" />
    <path class="fBLACK sBLACK" style="stroke-width:0.04" d="M 0.21,-11.97 L 0.19,-11.99 L 0.17,-12.01 L 0.15,-12.04 L 0.14,-12.07 L 0.13,-12.10 L 0.12,-12.13 L 0.12,-12.16 L 0.12,-12.20 L 0.13,-12.24 L 0.14,-12.28 L 0.16,-12.32 L 0.18,-12.35 L 0.20,-12.38 L 0.23,-12.41 L 0.27,-12.43 L 0.31,-12.45 L 0.35,-12.47 L 0.39,-12.49 L 0.44,-12.50 L 0.48,-12.51 L 0.52,-12.51 L 0.57,-12.51 L 0.62,-12.51 L 0.71,-12.51 L 0.80,-12.50 L 0.89,-12.48 L 0.97,-12.45 L 1.01,-12.43 L 1.04,-12.41 L 1.07,-12.39 L 1.10,-12.36 L 1.12,-12.33 L 1.14,-12.30 L 1.16,-12.27 L 1.18,-12.23 L 1.20,-12.17 L 1.21,-12.10 L 1.62,-12.10 L 1.62,-12.16 L 1.61,-12.23 L 1.60,-12.29 L 1.58,-12.35 L 1.55,-12.42 L 1.52,-12.48 L 1.47,-12.54 L 1.42,-12.60 L 1.37,-12.65 L 1.31,-12.69 L 1.25,-12.73 L 1.18,-12.76 L 1.12,-12.79 L 1.05,-12.81 L 0.99,-12.83 L 0.92,-12.84 L 0.85,-12.86 L 0.78,-12.86 L 0.71,-12.87 L 0.64,-12.87 L 0.57,-12.87 L 0.50,-12.87 L 0.43,-12.86 L 0.36,-12.85 L 0.29,-12.83 L 0.22,-12.81 L 0.16,-12.79 L 0.09,-12.76 L 0.05,-12.74 L 0.01,-12.71 L -0.03,-12.69 L -0.07,-12.66 L -0.10,-12.63 L -0.13,-12.59 L -0.16,-12.55 L -0.19,-12.51 L -0.22,-12.47 L -0.24,-12.43 L -0.26,-12.39 L -0.27,-12.34 L -0.28,-12.29 L -0.29,-12.25 L -0.30,-12.20 L -0.30,-12.15 L -0.30,-12.08 L -0.29,-12.00 L -0.27,-11.94 L -0.25,-11.88 L -0.23,-11.82 L -0.19,-11.77 L -0.15,-11.72 L -0.11,-11.67 L -0.06,-11.63 L 0.00,-11.60 L 0.21,-11.97 Z" />
    <path class="fBLACK sBLACK" style="stroke-width:0.04" d="M 0.65,-10.23 L 0.76,-10.24 L 0.87,-10.25 L 0.97,-10.26 L 1.07,-10.28 L 1.16,-10.31 L 1.26,-10.35 L 1.31,-10.37 L 1.35,-10.40 L 1.40,-10.44 L 1.44,-10.47 L 1.48,-10.51 L 1.52,-10.55 L 1.55,-10.59 L 1.58,-10.64 L 1.61,-10.68 L 1.63,-10.73 L 1.65,-10.78 L 1.67,-10.84 L 1.68,-10.89 L 1.69,-10.94 L 1.69,-11.00 L 1.69,-11.05 L 1.68,-11.14 L 1.67,-11.23 L 1.66,-11.28 L 1.64,-11.33 L 1.62,-11.38 L 1.59,-11.42 L 1.56,-11.46 L 1.53,-11.50 L 1.49,-11.54 L 1.45,-11.57 L 1.38,-11.61 L 1.31,-11.65 L 1.24,-11.68 L 1.17,-11.70 L 0.92,-11.76 L 0.52,-11.86 L 0.44,-11.87 L 0.37,-11.89 L 0.31,-11.92 L 0.24,-11.95 L 0.21,-11.97 L 0.00,-11.60 L 0.10,-11.55 L 0.20,-11.51 L 0.30,-11.48 L 0.41,-11.45 L 0.88,-11.33 L 1.03,-11.30 L 1.07,-11.28 L 1.10,-11.27 L 1.14,-11.25 L 1.17,-11.22 L 1.19,-11.21 L 1.21,-11.18 L 1.23,-11.16 L 1.24,-11.14 L 1.25,-11.11 L 1.26,-11.08 L 1.26,-11.05 L 1.27,-11.02 L 1.26,-10.97 L 1.26,-10.93 L 1.25,-10.89 L 1.23,-10.85 L 1.21,-10.81 L 1.18,-10.77 L 1.15,-10.74 L 1.12,-10.71 L 1.08,-10.69 L 1.04,-10.67 L 0.95,-10.64 L 0.86,-10.62 L 0.77,-10.60 L 0.68,-10.60 L 0.65,-10.23 Z" />
    <path class="fBLACK sBLACK" style="stroke-width:0.04" d="M 0.68,-10.60 L 0.61,-10.60 L 0.55,-10.61 L 0.48,-10.62 L 0.42,-10.63 L 0.36,-10.65 L 0.31,-10.67 L 0.26,-10.70 L 0.21,-10.74 L 0.17,-10.78 L 0.13,-10.83 L 0.10,-10.88 L 0.08,-10.94 L 0.06,-11.02 L 0.04,-11.12 L -0.37,-11.12 L -0.37,-11.06 L -0.36,-11.01 L -0.36,-10.95 L -0.35,-10.90 L -0.33,-10.84 L -0.32,-10.79 L -0.30,-10.74 L -0.27,-10.69 L -0.23,-10.62 L -0.18,-10.55 L -0.13,-10.49 L -0.07,-10.43 L 0.00,-10.38 L 0.07,-10.34 L 0.15,-10.31 L 0.23,-10.28 L 0.33,-10.26 L 0.44,-10.24 L 0.55,-10.24 L 0.65,-10.23 L 0.68,-10.60 Z" />
    <path class="fBLACK sBLACK" style="stroke-width:0.04" d="M 2.18,-13.73 L 2.18,-13.25 L 2.60,-13.25 L 2.60,-13.73 L 2.18,-13.73 Z" />
    <path class="fBLACK sBLACK" style="stroke-width:0.04" d="M 2.18,-12.79 L 2.18,-10.31 L 2.60,-10.31 L 2.60,-12.79 L 2.18,-12.79 Z" />
    <path class="fBLACK sBLACK" style="stroke-width:0.04" d="M 5.25,-11.80 L 5.26,-11.92 L 5.25,-12.04 L 5.25,-12.16 L 5.24,-12.28 L 5.22,-12.34 L 5.21,-12.40 L 5.18,-12.46 L 5.15,-12.52 L 5.11,-12.57 L 5.07,-12.62 L 5.03,-12.66 L 4.98,-12.70 L 4.93,-12.73 L 4.88,-12.76 L 4.82,-12.78 L 4.77,-12.80 L 4.67,-12.83 L 4.58,-12.84 L 4.49,-12.85 L 4.39,-12.85 L 4.30,-12.85 L 4.21,-12.84 L 4.12,-12.82 L 4.04,-12.79 L 3.98,-12.76 L 3.92,-12.73 L 3.86,-12.69 L 3.81,-12.65 L 3.76,-12.60 L 3.71,-12.55 L 3.67,-12.50 L 3.63,-12.45 L 3.63,-12.79 L 3.23,-12.79 L 3.23,-10.31 L 3.65,-10.31 L 3.65,-11.72 L 3.65,-11.81 L 3.66,-11.90 L 3.67,-11.96 L 3.68,-12.03 L 3.70,-12.09 L 3.73,-12.15 L 3.77,-12.20 L 3.81,-12.26 L 3.85,-12.30 L 3.90,-12.35 L 3.95,-12.38 L 4.00,-12.41 L 4.06,-12.43 L 4.12,-12.45 L 4.18,-12.47 L 4.23,-12.48 L 4.30,-12.48 L 4.36,-12.49 L 4.40,-12.49 L 4.44,-12.48 L 4.48,-12.48 L 4.52,-12.47 L 4.56,-12.46 L 4.60,-12.44 L 4.63,-12.42 L 4.66,-12.40 L 4.69,-12.38 L 4.72,-12.35 L 4.74,-12.32 L 4.77,-12.29 L 4.80,-12.21 L 4.82,-12.14 L 4.83,-12.06 L 4.83,-11.98 L 4.83,-10.31 L 5.25,-10.31 L 5.25,-11.80 Z" />
    <path class="fBLACK sBLACK" style="stroke-width:0.04" d="M 7.91,-10.36 L 7.91,-12.79 L 7.50,-12.79 L 7.50,-12.51 L 7.43,-12.59 L 7.36,-12.66 L 7.29,-12.73 L 7.20,-12.78 L 7.15,-12.80 L 7.10,-12.83 L 7.04,-12.84 L 6.99,-12.86 L 6.93,-12.86 L 6.87,-12.87 L 6.81,-12.87 L 6.76,-12.87 L 6.69,-12.87 L 6.62,-12.86 L 6.55,-12.85 L 6.48,-12.83 L 6.41,-12.80 L 6.35,-12.78 L 6.29,-12.74 L 6.23,-12.70 L 6.16,-12.65 L 6.10,-12.59 L 6.04,-12.52 L 5.99,-12.45 L 5.94,-12.38 L 5.90,-12.30 L 5.86,-12.23 L 5.83,-12.14 L 5.81,-12.07 L 5.79,-12.00 L 5.78,-11.93 L 5.76,-11.85 L 5.75,-11.78 L 5.75,-11.71 L 5.74,-11.63 L 5.74,-11.56 L 5.74,-11.48 L 6.18,-11.51 L 6.18,-11.59 L 6.18,-11.66 L 6.19,-11.72 L 6.19,-11.79 L 6.20,-11.86 L 6.22,-11.92 L 6.24,-11.99 L 6.26,-12.06 L 6.28,-12.12 L 6.30,-12.17 L 6.33,-12.21 L 6.36,-12.25 L 6.39,-12.29 L 6.42,-12.33 L 6.46,-12.37 L 6.50,-12.40 L 6.55,-12.43 L 6.62,-12.46 L 6.69,-12.48 L 6.76,-12.49 L 6.84,-12.49 L 6.91,-12.49 L 6.99,-12.48 L 7.06,-12.46 L 7.13,-12.44 L 7.18,-12.41 L 7.22,-12.38 L 7.26,-12.34 L 7.30,-12.30 L 7.34,-12.26 L 7.37,-12.22 L 7.39,-12.17 L 7.42,-12.12 L 7.45,-12.04 L 7.47,-11.95 L 7.49,-11.87 L 7.50,-11.78 L 7.51,-11.66 L 7.51,-11.55 L 7.91,-10.36 Z" />
    <path class="fBLACK sBLACK" style="stroke-width:0.04" d="M 7.51,-11.45 L 7.50,-11.35 L 7.49,-11.24 L 7.47,-11.14 L 7.45,-11.06 L 7.42,-10.98 L 7.39,-10.90 L 7.34,-10.83 L 7.30,-10.77 L 7.25,-10.73 L 7.19,-10.69 L 7.13,-10.65 L 7.07,-10.63 L 7.00,-10.61 L 6.93,-10.60 L 6.87,-10.60 L 6.79,-10.60 L 6.71,-10.61 L 6.64,-10.63 L 6.57,-10.66 L 6.52,-10.69 L 6.47,-10.73 L 6.43,-10.76 L 6.39,-10.81 L 6.36,-10.85 L 6.33,-10.90 L 6.30,-10.95 L 6.28,-11.00 L 6.25,-11.07 L 6.23,-11.14 L 6.21,-11.21 L 6.20,-11.29 L 6.19,-11.36 L 6.18,-11.44 L 6.18,-11.51 L 5.74,-11.48 L 5.75,-11.41 L 5.75,-11.33 L 5.76,-11.25 L 5.78,-11.16 L 5.80,-11.06 L 5.83,-10.97 L 5.86,-10.88 L 5.91,-10.80 L 5.95,-10.71 L 6.01,-10.63 L 6.07,-10.55 L 6.10,-10.52 L 6.14,-10.48 L 6.17,-10.45 L 6.21,-10.41 L 6.26,-10.38 L 6.30,-10.36 L 6.34,-10.33 L 6.39,-10.31 L 6.49,-10.27 L 6.59,-10.25 L 6.69,-10.23 L 6.79,-10.23 L 6.84,-10.23 L 6.89,-10.23 L 6.94,-10.24 L 6.99,-10.25 L 7.04,-10.26 L 7.09,-10.28 L 7.14,-10.30 L 7.18,-10.32 L 7.23,-10.34 L 7.27,-10.37 L 7.32,-10.39 L 7.36,-10.43 L 7.39,-10.46 L 7.43,-10.50 L 7.47,-10.53 L 7.50,-10.57 L 7.50,-10.27 L 7.91,-10.36 L 7.51,-11.55 L 7.51,-11.45 Z" />
    <path class="fBLACK sBLACK" style="stroke-width:0.04" d="M 7.50,-10.27 L 7.50,-10.15 L 7.49,-10.08 L 7.48,-10.01 L 7.46,-9.94 L 7.43,-9.88 L 7.40,-9.84 L 7.37,-9.81 L 7.34,-9.78 L 7.31,-9.75 L 7.27,-9.72 L 7.23,-9.70 L 7.19,-9.68 L 7.15,-9.67 L 7.07,-9.65 L 6.99,-9.63 L 6.91,-9.63 L 6.83,-9.62 L 6.74,-9.63 L 6.65,-9.64 L 6.58,-9.65 L 6.52,-9.66 L 6.46,-9.69 L 6.40,-9.71 L 6.36,-9.74 L 6.33,-9.77 L 6.30,-9.80 L 6.28,-9.84 L 6.26,-9.88 L 6.25,-9.93 L 6.24,-9.97 L 6.24,-10.02 L 5.84,-10.02 L 5.84,-9.93 L 5.84,-9.88 L 5.85,-9.83 L 5.87,-9.78 L 5.88,-9.74 L 5.91,-9.69 L 5.93,-9.65 L 5.96,-9.61 L 5.99,-9.57 L 6.03,-9.52 L 6.08,-9.48 L 6.13,-9.44 L 6.18,-9.41 L 6.24,-9.38 L 6.30,-9.35 L 6.35,-9.33 L 6.41,-9.31 L 6.53,-9.29 L 6.65,-9.28 L 6.77,-9.27 L 6.88,-9.27 L 7.00,-9.28 L 7.12,-9.29 L 7.24,-9.32 L 7.36,-9.35 L 7.41,-9.37 L 7.46,-9.40 L 7.51,-9.42 L 7.55,-9.45 L 7.60,-9.49 L 7.64,-9.53 L 7.68,-9.56 L 7.71,-9.61 L 7.75,-9.65 L 7.78,-9.70 L 7.80,-9.75 L 7.83,-9.80 L 7.85,-9.85 L 7.87,-9.90 L 7.88,-9.95 L 7.89,-10.01 L 7.90,-10.19 L 7.91,-10.36 L 7.50,-10.27 Z" />
    <path class="fBLACK sBLACK" style="stroke-width:0.04" d="M -0.30,-5.09 L 0.00,-5.40 L 0.31,-5.09 L 0.31,-2.70 L 0.00,-2.40 L -0.30,-2.70 L -0.30,-5.09 Z" />
    <path class="f0 sBLACK" style="stroke-width:0.12" d="M -1.50,-3.89 L 0.00,-5.40 L 1.50,-3.89 L 0.00,-2.40 L -1.50,-3.89 " />
    <circle class="pivotPoint layout" fill="none" cx="0" cy="0" r="0.2" />
  </g>
</svg>