<?xml version="1.0" encoding="utf-8"?>
<?xml-stylesheet type='text/css' href='S401Style.css'?>
<svg version="1.2" baseProfile="tiny" style="shape-rendering:geometricPrecision; fill-rule:evenodd;" width="1.70mm" height="5.22mm" viewBox="-0.86 -5.23 1.72 5.24" xmlns="http://www.w3.org/2000/svg">
  <title>TOPMA117</title>
  <desc>buoy top mark, red-green sphere, upright</desc>
  <metadata>
    <iho:S100SVG xmlns:iho="http://www.iho.int/SVGMetadata">
      <iho:Description iho:publisher="IEHG" iho:creationDate="2015-07-29" iho:source="" iho:format="IENC signs, Europe, SVG" iho:version="0.1" />
    </iho:S100SVG>
  </metadata>
  <g>
    <circle cx="0.00" cy="-4.37" r="0.85" class="fMIDRD sMIDRD" style="stroke-width:0.04" />
    <path class="fLTGRN sLTGRN" style="stroke-width:0.04" d="M 0.85,-4.37 L -0.85,-4.37 L -0.85,-4.29 L -0.83,-4.21 L -0.81,-4.13 L -0.79,-4.05 L -0.75,-3.98 L -0.71,-3.91 L -0.66,-3.84 L -0.61,-3.78 L -0.55,-3.72 L -0.48,-3.67 L -0.41,-3.63 L -0.34,-3.59 L -0.26,-3.57 L -0.18,-3.54 L -0.10,-3.53 L -0.02,-3.52 L 0.07,-3.53 L 0.15,-3.54 L 0.23,-3.56 L 0.31,-3.58 L 0.38,-3.62 L 0.45,-3.66 L 0.52,-3.70 L 0.58,-3.76 L 0.64,-3.82 L 0.69,-3.88 L 0.74,-3.95 L 0.77,-4.02 L 0.80,-4.10 L 0.83,-4.18 L 0.84,-4.26 L 0.85,-4.34 L 0.85,-4.37 Z" />
    <circle cx="0.00" cy="-4.37" r="0.85" class="f0 sBLACK" style="stroke-width:0.12" />
    <path class="f0 sBLACK" style="stroke-width:0.12" d="M 0.00,-3.52 L 0.00,-3.29 " />
    <circle class="pivotPoint layout" fill="none" cx="0" cy="0" r="0.2" />
  </g>
</svg>