<?xml version="1.0" encoding="UTF-8"?>
<?xml-stylesheet type='text/css' href='S401Style.css'?>
<svg version="1.2" baseProfile="tiny" style="shape-rendering:geometricPrecision; fill-rule:evenodd;" width="17.96mm" height="14.54mm" viewBox="-8.87 -13.64 17.98 14.56" xmlns="http://www.w3.org/2000/svg">
  <title>TOPMA106F</title>
  <desc>beacon top mark, white-red square board, vertical - off position</desc>
  <metadata />
  <g>
    <path class="fWHITE sWHITE" style="stroke-width:0.04" d="M -1.22,-4.80 L 1.08,-4.80 L 1.08,-2.50 L -1.22,-2.50 L -1.22,-4.80 Z" />
    <path class="f0 sFFD700" style="stroke-width:0.08" d="M -1.72,-1.78 L -2.30,-2.61 " />
    <path class="f0 sBLACK" style="stroke-width:0.24" d="M -3.23,-3.70 L 0.00,-8.31 L 3.23,-3.70 L 0.00,0.91 L -3.23,-3.70 Z" />
    <path class="f0 sBLACK" style="stroke-width:0.24" d="M -2.98,-3.70 L 0.00,-7.96 L 2.98,-3.70 L 0.00,0.56 L -2.98,-3.70 Z" />
    <path class="fBLACK sBLACK" style="stroke-width:0.04" d="M -7.25,-10.43 L -7.34,-10.43 L -7.43,-10.44 L -7.52,-10.45 L -7.61,-10.48 L -7.69,-10.51 L -7.78,-10.55 L -7.86,-10.60 L -7.93,-10.65 L -7.98,-10.69 L -8.02,-10.73 L -8.06,-10.78 L -8.10,-10.82 L -8.14,-10.87 L -8.17,-10.92 L -8.20,-10.97 L -8.23,-11.02 L -8.26,-11.12 L -8.30,-11.22 L -8.33,-11.32 L -8.35,-11.42 L -8.37,-11.52 L -8.38,-11.62 L -8.38,-11.72 L -8.38,-11.83 L -8.38,-11.93 L -8.86,-11.94 L -8.86,-11.83 L -8.86,-11.72 L -8.86,-11.60 L -8.85,-11.49 L -8.83,-11.38 L -8.82,-11.30 L -8.80,-11.22 L -8.78,-11.13 L -8.75,-11.05 L -8.73,-10.97 L -8.69,-10.90 L -8.66,-10.82 L -8.62,-10.75 L -8.57,-10.68 L -8.52,-10.61 L -8.47,-10.55 L -8.41,-10.48 L -8.35,-10.42 L -8.29,-10.37 L -8.22,-10.32 L -8.15,-10.27 L -8.08,-10.23 L -8.01,-10.19 L -7.93,-10.15 L -7.86,-10.12 L -7.78,-10.10 L -7.71,-10.08 L -7.63,-10.06 L -7.55,-10.05 L -7.48,-10.04 L -7.40,-10.03 L -7.32,-10.03 L -7.25,-10.03 L -7.25,-10.43 Z" />
    <path class="fBLACK sBLACK" style="stroke-width:0.04" d="M -7.25,-10.03 L -7.16,-10.03 L -7.08,-10.03 L -6.99,-10.04 L -6.91,-10.05 L -6.80,-10.07 L -6.68,-10.10 L -6.58,-10.14 L -6.47,-10.19 L -6.37,-10.25 L -6.28,-10.31 L -6.19,-10.38 L -6.10,-10.46 L -6.02,-10.56 L -5.94,-10.66 L -5.87,-10.77 L -5.81,-10.89 L -5.76,-11.01 L -5.72,-11.13 L -5.69,-11.25 L -5.66,-11.38 L -5.65,-11.49 L -5.64,-11.60 L -5.63,-11.72 L -6.11,-11.72 L -6.12,-11.62 L -6.13,-11.52 L -6.15,-11.42 L -6.17,-11.32 L -6.20,-11.22 L -6.23,-11.12 L -6.27,-11.02 L -6.29,-10.97 L -6.32,-10.92 L -6.36,-10.87 L -6.39,-10.82 L -6.43,-10.78 L -6.47,-10.73 L -6.51,-10.69 L -6.56,-10.65 L -6.61,-10.62 L -6.66,-10.58 L -6.71,-10.56 L -6.76,-10.53 L -6.82,-10.50 L -6.87,-10.48 L -6.93,-10.47 L -6.99,-10.45 L -7.05,-10.44 L -7.12,-10.43 L -7.18,-10.43 L -7.25,-10.43 L -7.25,-10.03 Z" />
    <path class="fBLACK sBLACK" style="stroke-width:0.04" d="M -7.25,-13.23 L -7.15,-13.22 L -7.06,-13.22 L -6.97,-13.20 L -6.88,-13.17 L -6.80,-13.14 L -6.71,-13.10 L -6.63,-13.05 L -6.56,-13.00 L -6.51,-12.96 L -6.47,-12.92 L -6.43,-12.88 L -6.39,-12.83 L -6.36,-12.78 L -6.32,-12.73 L -6.29,-12.68 L -6.27,-12.63 L -6.23,-12.54 L -6.20,-12.44 L -6.17,-12.34 L -6.15,-12.24 L -6.13,-12.14 L -6.12,-12.03 L -6.11,-11.93 L -6.11,-11.83 L -6.11,-11.72 L -5.63,-11.72 L -5.63,-11.83 L -5.63,-11.94 L -5.64,-12.05 L -5.65,-12.16 L -5.66,-12.27 L -5.68,-12.36 L -5.70,-12.45 L -5.72,-12.53 L -5.74,-12.61 L -5.78,-12.69 L -5.81,-12.77 L -5.85,-12.85 L -5.89,-12.93 L -5.96,-13.03 L -6.04,-13.12 L -6.12,-13.21 L -6.21,-13.29 L -6.31,-13.37 L -6.42,-13.43 L -6.52,-13.49 L -6.64,-13.53 L -6.71,-13.56 L -6.79,-13.58 L -6.86,-13.60 L -6.94,-13.61 L -7.01,-13.62 L -7.09,-13.63 L -7.17,-13.63 L -7.25,-13.63 L -7.25,-13.23 Z" />
    <path class="fBLACK sBLACK" style="stroke-width:0.04" d="M -7.25,-13.63 L -7.33,-13.63 L -7.42,-13.62 L -7.50,-13.62 L -7.59,-13.61 L -7.70,-13.58 L -7.81,-13.55 L -7.92,-13.51 L -8.02,-13.46 L -8.12,-13.40 L -8.22,-13.34 L -8.31,-13.27 L -8.39,-13.19 L -8.48,-13.09 L -8.56,-12.99 L -8.63,-12.88 L -8.69,-12.77 L -8.74,-12.65 L -8.78,-12.53 L -8.81,-12.40 L -8.83,-12.27 L -8.85,-12.16 L -8.86,-12.05 L -8.86,-11.94 L -8.38,-11.93 L -8.38,-12.03 L -8.37,-12.14 L -8.35,-12.24 L -8.33,-12.34 L -8.30,-12.44 L -8.26,-12.54 L -8.23,-12.63 L -8.20,-12.68 L -8.17,-12.74 L -8.14,-12.79 L -8.10,-12.83 L -8.06,-12.88 L -8.02,-12.92 L -7.98,-12.96 L -7.93,-13.00 L -7.89,-13.04 L -7.84,-13.07 L -7.79,-13.10 L -7.73,-13.13 L -7.68,-13.15 L -7.62,-13.17 L -7.57,-13.19 L -7.51,-13.20 L -7.44,-13.21 L -7.38,-13.22 L -7.31,-13.22 L -7.25,-13.23 L -7.25,-13.63 Z" />
    <path class="fBLACK sBLACK" style="stroke-width:0.04" d="M -4.05,-13.56 L -4.15,-13.58 L -4.24,-13.59 L -4.33,-13.59 L -4.43,-13.59 L -4.50,-13.58 L -4.56,-13.57 L -4.63,-13.55 L -4.69,-13.52 L -4.75,-13.49 L -4.79,-13.45 L -4.84,-13.40 L -4.87,-13.35 L -4.89,-13.31 L -4.91,-13.26 L -4.93,-13.22 L -4.94,-13.17 L -4.95,-13.12 L -4.95,-13.07 L -4.96,-13.02 L -4.96,-12.97 L -4.96,-12.61 L -5.40,-12.61 L -5.40,-12.27 L -4.96,-12.27 L -4.96,-10.12 L -4.53,-10.12 L -4.53,-12.27 L -4.05,-12.27 L -4.05,-12.61 L -4.53,-12.61 L -4.53,-12.82 L -4.53,-12.87 L -4.53,-12.93 L -4.52,-12.99 L -4.51,-13.04 L -4.50,-13.07 L -4.48,-13.10 L -4.46,-13.12 L -4.44,-13.15 L -4.39,-13.17 L -4.34,-13.19 L -4.28,-13.21 L -4.23,-13.21 L -4.10,-13.20 L -4.05,-13.19 L -4.05,-13.56 Z" />
    <path class="fBLACK sBLACK" style="stroke-width:0.04" d="M -2.73,-13.56 L -2.82,-13.58 L -2.92,-13.59 L -3.01,-13.59 L -3.11,-13.59 L -3.18,-13.58 L -3.24,-13.57 L -3.31,-13.55 L -3.37,-13.52 L -3.43,-13.49 L -3.47,-13.45 L -3.52,-13.40 L -3.55,-13.35 L -3.57,-13.31 L -3.59,-13.26 L -3.61,-13.22 L -3.62,-13.17 L -3.63,-13.12 L -3.63,-13.07 L -3.64,-13.02 L -3.64,-12.97 L -3.64,-12.61 L -4.08,-12.61 L -4.08,-12.27 L -3.64,-12.27 L -3.64,-10.12 L -3.21,-10.12 L -3.21,-12.27 L -2.73,-12.27 L -2.73,-12.61 L -3.21,-12.61 L -3.21,-12.82 L -3.21,-12.87 L -3.21,-12.93 L -3.20,-12.99 L -3.19,-13.04 L -3.18,-13.07 L -3.16,-13.10 L -3.14,-13.12 L -3.12,-13.15 L -3.07,-13.17 L -3.02,-13.19 L -2.96,-13.21 L -2.91,-13.21 L -2.78,-13.20 L -2.73,-13.19 L -2.73,-13.56 Z" />
    <path class="fBLACK sBLACK" style="stroke-width:0.04" d="M 1.07,-12.55 L 1.06,-12.48 L 1.06,-12.41 L 1.04,-12.34 L 1.02,-12.28 L 1.00,-12.23 L 0.97,-12.19 L 0.94,-12.15 L 0.90,-12.12 L 0.87,-12.09 L 0.82,-12.06 L 0.78,-12.04 L 0.73,-12.02 L 0.67,-12.00 L 0.61,-11.99 L 0.55,-11.98 L 0.49,-11.98 L 0.28,-11.97 L -0.58,-11.97 L -0.58,-11.56 L 0.20,-11.56 L 0.33,-11.56 L 0.47,-11.56 L 0.61,-11.57 L 0.75,-11.59 L 0.81,-11.60 L 0.87,-11.61 L 0.93,-11.63 L 0.98,-11.65 L 1.04,-11.68 L 1.09,-11.70 L 1.14,-11.74 L 1.19,-11.77 L 1.24,-11.81 L 1.28,-11.85 L 1.32,-11.90 L 1.36,-11.95 L 1.39,-12.00 L 1.42,-12.05 L 1.45,-12.10 L 1.47,-12.16 L 1.50,-12.25 L 1.53,-12.35 L 1.54,-12.45 L 1.54,-12.56 L 1.07,-12.55 Z" />
    <path class="fBLACK sBLACK" style="stroke-width:0.04" d="M 1.54,-12.56 L 1.54,-12.66 L 1.52,-12.77 L 1.51,-12.85 L 1.49,-12.92 L 1.46,-12.99 L 1.43,-13.06 L 1.39,-13.12 L 1.35,-13.19 L 1.30,-13.24 L 1.25,-13.30 L 1.19,-13.34 L 1.13,-13.38 L 1.07,-13.42 L 1.00,-13.45 L 0.94,-13.48 L 0.87,-13.49 L 0.80,-13.51 L 0.73,-13.52 L 0.59,-13.53 L 0.44,-13.54 L 0.30,-13.54 L 0.16,-13.54 L -1.04,-13.54 L -1.04,-10.12 L -0.58,-10.12 L -0.58,-11.56 L -0.58,-11.97 L -0.58,-13.12 L 0.31,-13.12 L 0.45,-13.12 L 0.59,-13.11 L 0.66,-13.10 L 0.72,-13.08 L 0.78,-13.05 L 0.84,-13.02 L 0.88,-12.99 L 0.92,-12.96 L 0.95,-12.92 L 0.98,-12.89 L 1.00,-12.84 L 1.02,-12.80 L 1.04,-12.75 L 1.05,-12.71 L 1.06,-12.63 L 1.07,-12.55 L 1.54,-12.56 Z" />
    <path class="fBLACK sBLACK" style="stroke-width:0.04" d="M 3.77,-11.29 L 3.77,-11.22 L 3.76,-11.15 L 3.75,-11.08 L 3.74,-11.01 L 3.72,-10.94 L 3.70,-10.87 L 3.67,-10.80 L 3.65,-10.76 L 3.63,-10.72 L 3.60,-10.68 L 3.57,-10.64 L 3.54,-10.60 L 3.50,-10.57 L 3.47,-10.54 L 3.43,-10.51 L 3.38,-10.49 L 3.34,-10.47 L 3.30,-10.45 L 3.25,-10.44 L 3.20,-10.43 L 3.16,-10.42 L 3.11,-10.42 L 3.06,-10.42 L 3.01,-10.42 L 2.96,-10.42 L 2.92,-10.43 L 2.87,-10.44 L 2.82,-10.45 L 2.78,-10.47 L 2.73,-10.49 L 2.69,-10.51 L 2.65,-10.54 L 2.61,-10.57 L 2.58,-10.60 L 2.54,-10.64 L 2.52,-10.68 L 2.49,-10.72 L 2.46,-10.76 L 2.44,-10.81 L 2.42,-10.87 L 2.40,-10.94 L 2.38,-11.01 L 2.36,-11.08 L 2.35,-11.15 L 2.35,-11.22 L 1.92,-11.22 L 1.93,-11.07 L 1.95,-10.95 L 1.98,-10.84 L 2.02,-10.73 L 2.06,-10.62 L 2.11,-10.54 L 2.16,-10.46 L 2.22,-10.39 L 2.28,-10.33 L 2.35,-10.27 L 2.42,-10.21 L 2.50,-10.17 L 2.58,-10.13 L 2.64,-10.11 L 2.70,-10.09 L 2.76,-10.07 L 2.82,-10.06 L 2.88,-10.05 L 2.94,-10.05 L 3.00,-10.05 L 3.06,-10.05 L 3.12,-10.05 L 3.19,-10.05 L 3.26,-10.06 L 3.33,-10.07 L 3.38,-10.08 L 3.44,-10.10 L 3.49,-10.11 L 3.55,-10.13 L 3.60,-10.16 L 3.65,-10.19 L 3.69,-10.22 L 3.74,-10.25 L 3.81,-10.31 L 3.88,-10.37 L 3.94,-10.44 L 3.99,-10.52 L 4.04,-10.60 L 4.08,-10.68 L 4.11,-10.77 L 4.14,-10.85 L 4.16,-10.98 L 4.18,-11.11 L 4.19,-11.23 L 3.77,-11.29 Z" />
    <path class="fBLACK sBLACK" style="stroke-width:0.04" d="M 3.06,-12.68 L 3.00,-12.68 L 2.94,-12.68 L 2.88,-12.68 L 2.82,-12.67 L 2.76,-12.65 L 2.70,-12.64 L 2.64,-12.62 L 2.58,-12.60 L 2.53,-12.58 L 2.47,-12.55 L 2.42,-12.51 L 2.37,-12.48 L 2.32,-12.44 L 2.28,-12.40 L 2.23,-12.35 L 2.19,-12.31 L 2.16,-12.26 L 2.12,-12.21 L 2.09,-12.16 L 2.06,-12.10 L 2.03,-12.05 L 2.01,-11.99 L 1.99,-11.93 L 1.97,-11.88 L 1.95,-11.75 L 1.93,-11.62 L 1.92,-11.49 L 1.92,-11.37 L 1.92,-11.22 L 2.35,-11.22 L 2.34,-11.30 L 2.34,-11.37 L 2.34,-11.44 L 2.35,-11.51 L 2.35,-11.58 L 2.36,-11.65 L 2.38,-11.72 L 2.40,-11.79 L 2.42,-11.86 L 2.44,-11.93 L 2.46,-11.97 L 2.49,-12.01 L 2.52,-12.05 L 2.55,-12.09 L 2.58,-12.13 L 2.61,-12.16 L 2.65,-12.19 L 2.69,-12.22 L 2.73,-12.24 L 2.78,-12.26 L 2.82,-12.28 L 2.87,-12.29 L 2.92,-12.30 L 2.96,-12.31 L 3.01,-12.31 L 3.06,-12.31 L 3.06,-12.68 Z" />
    <path class="fBLACK sBLACK" style="stroke-width:0.04" d="M 3.06,-12.31 L 3.11,-12.31 L 3.16,-12.31 L 3.20,-12.30 L 3.25,-12.29 L 3.30,-12.28 L 3.34,-12.26 L 3.38,-12.24 L 3.43,-12.21 L 3.46,-12.19 L 3.50,-12.16 L 3.54,-12.12 L 3.57,-12.09 L 3.60,-12.05 L 3.63,-12.01 L 3.65,-11.97 L 3.67,-11.93 L 3.69,-11.86 L 3.72,-11.79 L 3.73,-11.72 L 3.75,-11.65 L 3.76,-11.58 L 3.77,-11.51 L 3.77,-11.44 L 3.77,-11.37 L 3.77,-11.29 L 4.19,-11.23 L 4.19,-11.36 L 4.19,-11.51 L 4.18,-11.66 L 4.16,-11.77 L 4.13,-11.89 L 4.09,-12.00 L 4.05,-12.11 L 4.00,-12.19 L 3.95,-12.26 L 3.90,-12.33 L 3.83,-12.40 L 3.76,-12.46 L 3.69,-12.52 L 3.61,-12.56 L 3.53,-12.60 L 3.48,-12.62 L 3.42,-12.64 L 3.36,-12.66 L 3.30,-12.67 L 3.24,-12.68 L 3.18,-12.68 L 3.12,-12.68 L 3.06,-12.68 L 3.06,-12.31 Z" />
    <path class="fBLACK sBLACK" style="stroke-width:0.04" d="M 5.11,-11.78 L 5.08,-11.80 L 5.06,-11.83 L 5.04,-11.85 L 5.03,-11.88 L 5.02,-11.91 L 5.02,-11.94 L 5.01,-11.98 L 5.02,-12.02 L 5.02,-12.06 L 5.03,-12.09 L 5.05,-12.13 L 5.07,-12.17 L 5.10,-12.20 L 5.13,-12.22 L 5.16,-12.25 L 5.20,-12.27 L 5.24,-12.28 L 5.29,-12.30 L 5.33,-12.31 L 5.37,-12.32 L 5.42,-12.33 L 5.46,-12.33 L 5.51,-12.33 L 5.60,-12.33 L 5.69,-12.31 L 5.78,-12.29 L 5.87,-12.26 L 5.90,-12.24 L 5.93,-12.22 L 5.96,-12.20 L 5.99,-12.17 L 6.02,-12.14 L 6.04,-12.11 L 6.06,-12.08 L 6.08,-12.05 L 6.09,-11.98 L 6.10,-11.91 L 6.51,-11.91 L 6.51,-11.98 L 6.50,-12.04 L 6.49,-12.10 L 6.47,-12.17 L 6.44,-12.23 L 6.41,-12.30 L 6.37,-12.36 L 6.32,-12.41 L 6.26,-12.46 L 6.20,-12.51 L 6.14,-12.54 L 6.08,-12.57 L 6.01,-12.60 L 5.95,-12.62 L 5.88,-12.64 L 5.81,-12.66 L 5.74,-12.67 L 5.68,-12.68 L 5.61,-12.68 L 5.54,-12.68 L 5.47,-12.68 L 5.40,-12.68 L 5.33,-12.67 L 5.26,-12.66 L 5.19,-12.65 L 5.12,-12.63 L 5.05,-12.60 L 4.99,-12.57 L 4.94,-12.55 L 4.90,-12.53 L 4.86,-12.50 L 4.83,-12.47 L 4.79,-12.44 L 4.76,-12.40 L 4.73,-12.37 L 4.70,-12.33 L 4.68,-12.29 L 4.66,-12.24 L 4.64,-12.20 L 4.62,-12.15 L 4.61,-12.11 L 4.60,-12.06 L 4.60,-12.01 L 4.60,-11.97 L 4.60,-11.89 L 4.61,-11.82 L 4.62,-11.75 L 4.64,-11.69 L 4.67,-11.64 L 4.70,-11.58 L 4.74,-11.53 L 4.79,-11.48 L 4.84,-11.44 L 4.89,-11.41 L 5.11,-11.78 Z" />
    <path class="fBLACK sBLACK" style="stroke-width:0.04" d="M 5.55,-10.05 L 5.66,-10.05 L 5.77,-10.06 L 5.87,-10.07 L 5.96,-10.10 L 6.06,-10.13 L 6.15,-10.16 L 6.20,-10.19 L 6.25,-10.22 L 6.29,-10.25 L 6.33,-10.28 L 6.37,-10.32 L 6.41,-10.36 L 6.44,-10.41 L 6.47,-10.45 L 6.50,-10.50 L 6.52,-10.55 L 6.54,-10.60 L 6.56,-10.65 L 6.57,-10.70 L 6.58,-10.76 L 6.58,-10.81 L 6.58,-10.87 L 6.58,-10.96 L 6.57,-11.04 L 6.55,-11.09 L 6.53,-11.14 L 6.51,-11.19 L 6.49,-11.23 L 6.45,-11.28 L 6.42,-11.31 L 6.38,-11.35 L 6.34,-11.38 L 6.28,-11.42 L 6.21,-11.46 L 6.13,-11.49 L 6.06,-11.51 L 5.82,-11.58 L 5.41,-11.67 L 5.34,-11.69 L 5.27,-11.71 L 5.20,-11.73 L 5.13,-11.77 L 5.11,-11.78 L 4.89,-11.41 L 4.99,-11.36 L 5.09,-11.33 L 5.20,-11.29 L 5.30,-11.27 L 5.78,-11.15 L 5.93,-11.11 L 5.96,-11.10 L 6.00,-11.08 L 6.03,-11.06 L 6.06,-11.04 L 6.08,-11.02 L 6.10,-11.00 L 6.12,-10.97 L 6.13,-10.95 L 6.15,-10.92 L 6.15,-10.89 L 6.16,-10.86 L 6.16,-10.83 L 6.16,-10.79 L 6.15,-10.74 L 6.14,-10.70 L 6.12,-10.66 L 6.10,-10.62 L 6.07,-10.59 L 6.04,-10.55 L 6.01,-10.53 L 5.97,-10.50 L 5.93,-10.48 L 5.85,-10.45 L 5.76,-10.43 L 5.66,-10.42 L 5.57,-10.42 L 5.55,-10.05 Z" />
    <path class="fBLACK sBLACK" style="stroke-width:0.04" d="M 5.57,-10.42 L 5.51,-10.42 L 5.44,-10.42 L 5.38,-10.43 L 5.31,-10.44 L 5.26,-10.46 L 5.20,-10.49 L 5.15,-10.52 L 5.11,-10.55 L 5.06,-10.60 L 5.03,-10.64 L 5.00,-10.69 L 4.97,-10.75 L 4.95,-10.84 L 4.93,-10.93 L 4.53,-10.93 L 4.53,-10.87 L 4.53,-10.82 L 4.54,-10.76 L 4.55,-10.71 L 4.56,-10.66 L 4.58,-10.60 L 4.60,-10.55 L 4.62,-10.50 L 4.66,-10.43 L 4.71,-10.36 L 4.77,-10.30 L 4.83,-10.24 L 4.90,-10.20 L 4.97,-10.16 L 5.04,-10.12 L 5.12,-10.10 L 5.23,-10.07 L 5.33,-10.06 L 5.44,-10.05 L 5.55,-10.05 L 5.57,-10.42 Z" />
    <path class="fBLACK sBLACK" style="stroke-width:0.04" d="M 9.09,-11.61 L 9.10,-11.73 L 9.09,-11.85 L 9.09,-11.97 L 9.07,-12.09 L 9.06,-12.15 L 9.04,-12.21 L 9.02,-12.27 L 8.99,-12.33 L 8.95,-12.38 L 8.91,-12.43 L 8.87,-12.47 L 8.82,-12.51 L 8.77,-12.54 L 8.72,-12.57 L 8.66,-12.60 L 8.60,-12.62 L 8.51,-12.64 L 8.42,-12.66 L 8.33,-12.66 L 8.23,-12.66 L 8.14,-12.66 L 8.05,-12.65 L 7.96,-12.63 L 7.88,-12.60 L 7.82,-12.57 L 7.76,-12.54 L 7.70,-12.50 L 7.65,-12.46 L 7.60,-12.42 L 7.55,-12.37 L 7.51,-12.32 L 7.47,-12.26 L 7.47,-12.61 L 7.07,-12.61 L 7.07,-10.12 L 7.49,-10.12 L 7.49,-11.54 L 7.49,-11.63 L 7.50,-11.71 L 7.51,-11.78 L 7.52,-11.84 L 7.54,-11.90 L 7.57,-11.96 L 7.61,-12.02 L 7.64,-12.07 L 7.69,-12.12 L 7.74,-12.16 L 7.79,-12.19 L 7.84,-12.22 L 7.90,-12.25 L 7.96,-12.27 L 8.01,-12.28 L 8.07,-12.29 L 8.13,-12.30 L 8.19,-12.30 L 8.24,-12.30 L 8.28,-12.29 L 8.32,-12.29 L 8.36,-12.28 L 8.40,-12.27 L 8.44,-12.25 L 8.47,-12.24 L 8.50,-12.21 L 8.53,-12.19 L 8.56,-12.16 L 8.58,-12.13 L 8.60,-12.10 L 8.63,-12.03 L 8.66,-11.95 L 8.67,-11.87 L 8.67,-11.79 L 8.67,-10.12 L 9.09,-10.12 L 9.09,-11.61 Z" />
    <path class="fMIDRD sMIDRD" style="stroke-width:0.04" d="M -1.22,-4.28 L 1.08,-4.28 L 1.08,-3.02 L -1.22,-3.02 L -1.22,-4.28 Z" />
    <path class="f0 sBLACK" style="stroke-width:0.12" d="M -1.22,-4.80 L -1.22,-2.50 L 1.08,-2.50 L 1.08,-4.80 L -1.22,-4.80 Z" />
    <circle class="pivotPoint layout" fill="none" cx="0" cy="0" r="0.2" />
  </g>
</svg>