<?xml version="1.0" encoding="UTF-8"?>
<?xml-stylesheet type='text/css' href='S401Style.css'?>
<svg version="1.2" baseProfile="tiny" style="shape-rendering:geometricPrecision; fill-rule:evenodd;" width="12.81mm" height="13.54mm" viewBox="-6.29 -12.64 12.83 13.56" xmlns="http://www.w3.org/2000/svg">
  <title>TOPMA110M</title>
  <desc>beacon top mark, yellow-black square board, vertical - missing</desc>
  <metadata />
  <g>
    <path class="fYLLOW sYLLOW" style="stroke-width:0.04" d="M -1.15,-4.80 L 1.15,-4.80 L 1.15,-2.50 L -1.15,-2.50 L -1.15,-4.80 Z" />
    <path class="f0 sBLACK" style="stroke-width:0.24" d="M 2.20,-5.17 L 3.23,-3.70 L 2.05,-2.02 " />
    <path class="f0 sBLACK" style="stroke-width:0.24" d="M 1.21,-0.83 L 0.00,0.90 L -1.16,-0.75 " />
    <path class="f0 sBLACK" style="stroke-width:0.24" d="M -1.26,-6.51 L 0.00,-8.31 L 1.25,-6.52 " />
    <path class="f0 sBLACK" style="stroke-width:0.24" d="M -2.12,-2.12 L -3.23,-3.70 L -2.16,-5.23 " />
    <path class="f0 sBLACK" style="stroke-width:0.24" d="M -1.10,-6.39 L 0.00,-7.96 L 1.09,-6.41 " />
    <path class="f0 sBLACK" style="stroke-width:0.24" d="M -1.95,-2.23 L -2.98,-3.70 L -2.00,-5.11 " />
    <path class="f0 sBLACK" style="stroke-width:0.24" d="M 2.04,-5.06 L 2.98,-3.70 L 1.89,-2.14 " />
    <path class="f0 sBLACK" style="stroke-width:0.24" d="M 1.05,-0.94 L 0.00,0.56 L -0.99,-0.86 " />
    <path class="fBLACK sBLACK" style="stroke-width:0.04" d="M -4.91,-11.76 L -4.95,-11.79 L -5.00,-11.82 L -5.04,-11.85 L -5.09,-11.87 L -5.16,-11.89 L -5.22,-11.90 L -5.29,-11.91 L -5.36,-11.91 L -5.41,-11.91 L -5.45,-11.90 L -5.49,-11.90 L -5.54,-11.89 L -5.58,-11.88 L -5.62,-11.86 L -5.66,-11.84 L -5.70,-11.82 L -5.73,-11.80 L -5.77,-11.78 L -5.80,-11.75 L -5.84,-11.72 L -5.87,-11.69 L -5.90,-11.65 L -5.92,-11.62 L -5.94,-11.58 L -5.94,-11.86 L -6.28,-11.86 L -6.28,-9.81 L -5.93,-9.81 L -5.93,-11.02 L -5.93,-11.07 L -5.93,-11.13 L -5.92,-11.17 L -5.91,-11.21 L -5.90,-11.25 L -5.89,-11.29 L -5.88,-11.32 L -5.86,-11.36 L -5.84,-11.40 L -5.82,-11.43 L -5.78,-11.47 L -5.74,-11.51 L -5.69,-11.54 L -5.64,-11.57 L -5.59,-11.59 L -5.54,-11.60 L -5.48,-11.61 L -5.43,-11.61 L -5.38,-11.61 L -5.34,-11.60 L -5.30,-11.59 L -5.26,-11.58 L -5.23,-11.56 L -5.19,-11.54 L -5.16,-11.51 L -4.91,-11.76 Z" />
    <path class="fBLACK sBLACK" style="stroke-width:0.04" d="M -5.16,-11.51 L -5.14,-11.48 L -5.12,-11.44 L -5.09,-11.38 L -5.08,-11.32 L -5.07,-11.26 L -5.07,-11.19 L -5.07,-9.81 L -4.72,-9.81 L -4.72,-11.02 L -4.71,-11.08 L -4.71,-11.13 L -4.70,-11.18 L -4.69,-11.23 L -4.68,-11.27 L -4.67,-11.31 L -4.66,-11.35 L -4.64,-11.38 L -4.62,-11.41 L -4.59,-11.45 L -4.57,-11.47 L -4.54,-11.50 L -4.50,-11.53 L -4.47,-11.55 L -4.43,-11.57 L -4.39,-11.58 L -4.34,-11.59 L -4.30,-11.60 L -4.26,-11.61 L -4.22,-11.61 L -4.16,-11.61 L -4.11,-11.59 L -4.05,-11.58 L -4.00,-11.55 L -3.98,-11.53 L -3.96,-11.51 L -3.94,-11.49 L -3.92,-11.47 L -3.90,-11.44 L -3.89,-11.41 L -3.88,-11.38 L -3.87,-11.35 L -3.86,-11.28 L -3.86,-11.21 L -3.85,-11.14 L -3.85,-11.07 L -3.85,-9.81 L -3.51,-9.81 L -3.51,-11.04 L -3.51,-11.14 L -3.51,-11.24 L -3.52,-11.34 L -3.52,-11.43 L -3.53,-11.47 L -3.54,-11.51 L -3.55,-11.54 L -3.56,-11.58 L -3.58,-11.61 L -3.60,-11.64 L -3.62,-11.68 L -3.64,-11.70 L -3.66,-11.73 L -3.69,-11.76 L -3.72,-11.78 L -3.75,-11.81 L -3.78,-11.82 L -3.81,-11.84 L -3.85,-11.86 L -3.88,-11.87 L -3.95,-11.89 L -4.02,-11.90 L -4.09,-11.91 L -4.16,-11.91 L -4.21,-11.91 L -4.25,-11.91 L -4.30,-11.90 L -4.34,-11.89 L -4.39,-11.88 L -4.43,-11.87 L -4.47,-11.85 L -4.52,-11.83 L -4.55,-11.81 L -4.59,-11.78 L -4.63,-11.76 L -4.66,-11.73 L -4.70,-11.70 L -4.73,-11.66 L -4.76,-11.63 L -4.79,-11.60 L -4.81,-11.64 L -4.84,-11.68 L -4.88,-11.72 L -4.91,-11.76 L -5.16,-11.51 Z" />
    <path class="fBLACK sBLACK" style="stroke-width:0.04" d="M -3.00,-12.63 L -3.00,-12.24 L -2.65,-12.24 L -2.65,-12.63 L -3.00,-12.63 Z" />
    <path class="fBLACK sBLACK" style="stroke-width:0.04" d="M -3.00,-11.86 L -3.00,-9.81 L -2.65,-9.81 L -2.65,-11.86 L -3.00,-11.86 Z" />
    <path class="fBLACK sBLACK" style="stroke-width:0.04" d="M -1.79,-11.18 L -1.81,-11.20 L -1.83,-11.22 L -1.84,-11.24 L -1.85,-11.26 L -1.86,-11.29 L -1.86,-11.31 L -1.86,-11.34 L -1.86,-11.37 L -1.86,-11.41 L -1.85,-11.44 L -1.83,-11.47 L -1.82,-11.50 L -1.80,-11.52 L -1.77,-11.55 L -1.74,-11.56 L -1.71,-11.58 L -1.67,-11.60 L -1.64,-11.61 L -1.60,-11.62 L -1.57,-11.62 L -1.53,-11.63 L -1.49,-11.63 L -1.46,-11.63 L -1.38,-11.63 L -1.31,-11.62 L -1.23,-11.60 L -1.16,-11.58 L -1.13,-11.56 L -1.11,-11.54 L -1.08,-11.53 L -1.06,-11.50 L -1.04,-11.48 L -1.02,-11.45 L -1.00,-11.43 L -0.99,-11.40 L -0.97,-11.34 L -0.97,-11.29 L -0.63,-11.29 L -0.63,-11.34 L -0.63,-11.39 L -0.64,-11.45 L -0.66,-11.50 L -0.68,-11.55 L -0.71,-11.61 L -0.75,-11.66 L -0.79,-11.70 L -0.83,-11.74 L -0.88,-11.78 L -0.93,-11.81 L -0.99,-11.84 L -1.04,-11.86 L -1.10,-11.88 L -1.15,-11.89 L -1.21,-11.90 L -1.26,-11.91 L -1.32,-11.92 L -1.37,-11.92 L -1.43,-11.93 L -1.49,-11.93 L -1.55,-11.92 L -1.61,-11.92 L -1.67,-11.91 L -1.72,-11.89 L -1.78,-11.88 L -1.83,-11.86 L -1.89,-11.84 L -1.92,-11.82 L -1.96,-11.80 L -1.99,-11.77 L -2.02,-11.75 L -2.05,-11.72 L -2.08,-11.69 L -2.10,-11.66 L -2.12,-11.63 L -2.14,-11.60 L -2.16,-11.56 L -2.18,-11.53 L -2.19,-11.49 L -2.20,-11.45 L -2.21,-11.41 L -2.21,-11.37 L -2.21,-11.33 L -2.21,-11.27 L -2.20,-11.21 L -2.19,-11.16 L -2.17,-11.11 L -2.15,-11.06 L -2.12,-11.01 L -2.09,-10.97 L -2.05,-10.93 L -2.01,-10.90 L -1.97,-10.87 L -1.79,-11.18 Z" />
    <path class="fBLACK sBLACK" style="stroke-width:0.04" d="M -1.42,-9.75 L -1.33,-9.75 L -1.24,-9.76 L -1.16,-9.77 L -1.08,-9.79 L -1.00,-9.81 L -0.93,-9.84 L -0.88,-9.86 L -0.85,-9.89 L -0.81,-9.91 L -0.78,-9.94 L -0.74,-9.97 L -0.71,-10.01 L -0.68,-10.04 L -0.66,-10.08 L -0.64,-10.12 L -0.62,-10.16 L -0.60,-10.20 L -0.59,-10.25 L -0.58,-10.29 L -0.57,-10.33 L -0.57,-10.38 L -0.57,-10.42 L -0.57,-10.50 L -0.58,-10.57 L -0.59,-10.61 L -0.61,-10.65 L -0.63,-10.69 L -0.65,-10.73 L -0.68,-10.76 L -0.70,-10.79 L -0.73,-10.82 L -0.77,-10.85 L -0.82,-10.88 L -0.88,-10.91 L -0.94,-10.94 L -1.00,-10.96 L -1.20,-11.01 L -1.54,-11.09 L -1.60,-11.10 L -1.66,-11.12 L -1.71,-11.14 L -1.77,-11.17 L -1.79,-11.18 L -1.97,-10.87 L -1.88,-10.84 L -1.80,-10.80 L -1.71,-10.78 L -1.62,-10.75 L -1.24,-10.66 L -1.11,-10.62 L -1.08,-10.61 L -1.05,-10.60 L -1.03,-10.58 L -1.00,-10.57 L -0.98,-10.55 L -0.97,-10.53 L -0.95,-10.51 L -0.94,-10.49 L -0.93,-10.47 L -0.92,-10.45 L -0.92,-10.42 L -0.92,-10.40 L -0.92,-10.36 L -0.93,-10.32 L -0.94,-10.29 L -0.95,-10.25 L -0.97,-10.22 L -0.99,-10.19 L -1.01,-10.16 L -1.04,-10.14 L -1.07,-10.12 L -1.11,-10.11 L -1.18,-10.08 L -1.25,-10.06 L -1.33,-10.05 L -1.40,-10.05 L -1.42,-9.75 Z" />
    <path class="fBLACK sBLACK" style="stroke-width:0.04" d="M -1.40,-10.05 L -1.46,-10.05 L -1.51,-10.06 L -1.56,-10.06 L -1.62,-10.07 L -1.66,-10.09 L -1.71,-10.11 L -1.75,-10.14 L -1.79,-10.17 L -1.82,-10.20 L -1.85,-10.24 L -1.88,-10.28 L -1.90,-10.33 L -1.92,-10.40 L -1.93,-10.48 L -2.27,-10.48 L -2.27,-10.43 L -2.26,-10.38 L -2.26,-10.34 L -2.25,-10.29 L -2.24,-10.25 L -2.23,-10.21 L -2.21,-10.16 L -2.19,-10.12 L -2.16,-10.06 L -2.12,-10.01 L -2.07,-9.96 L -2.02,-9.91 L -1.96,-9.87 L -1.90,-9.84 L -1.84,-9.81 L -1.77,-9.79 L -1.69,-9.77 L -1.60,-9.76 L -1.51,-9.75 L -1.42,-9.75 L -1.40,-10.05 Z" />
    <path class="fBLACK sBLACK" style="stroke-width:0.04" d="M 0.18,-11.18 L 0.16,-11.20 L 0.14,-11.22 L 0.12,-11.24 L 0.11,-11.26 L 0.10,-11.29 L 0.10,-11.31 L 0.10,-11.34 L 0.10,-11.37 L 0.11,-11.41 L 0.12,-11.44 L 0.13,-11.47 L 0.15,-11.50 L 0.17,-11.52 L 0.19,-11.55 L 0.22,-11.56 L 0.25,-11.58 L 0.29,-11.60 L 0.32,-11.61 L 0.36,-11.62 L 0.40,-11.62 L 0.43,-11.63 L 0.47,-11.63 L 0.51,-11.63 L 0.58,-11.63 L 0.66,-11.62 L 0.73,-11.60 L 0.80,-11.58 L 0.83,-11.56 L 0.86,-11.54 L 0.88,-11.53 L 0.91,-11.50 L 0.93,-11.48 L 0.95,-11.45 L 0.96,-11.43 L 0.98,-11.40 L 0.99,-11.34 L 1.00,-11.29 L 1.34,-11.29 L 1.34,-11.34 L 1.33,-11.39 L 1.32,-11.45 L 1.31,-11.50 L 1.28,-11.55 L 1.25,-11.61 L 1.22,-11.66 L 1.18,-11.70 L 1.13,-11.74 L 1.08,-11.78 L 1.03,-11.81 L 0.98,-11.84 L 0.92,-11.86 L 0.87,-11.88 L 0.81,-11.89 L 0.76,-11.90 L 0.70,-11.91 L 0.65,-11.92 L 0.59,-11.92 L 0.53,-11.93 L 0.47,-11.93 L 0.41,-11.92 L 0.36,-11.92 L 0.30,-11.91 L 0.24,-11.89 L 0.19,-11.88 L 0.13,-11.86 L 0.08,-11.84 L 0.04,-11.82 L 0.01,-11.80 L -0.03,-11.77 L -0.06,-11.75 L -0.08,-11.72 L -0.11,-11.69 L -0.14,-11.66 L -0.16,-11.63 L -0.18,-11.60 L -0.20,-11.56 L -0.21,-11.53 L -0.22,-11.49 L -0.23,-11.45 L -0.24,-11.41 L -0.24,-11.37 L -0.25,-11.33 L -0.24,-11.27 L -0.24,-11.21 L -0.23,-11.16 L -0.21,-11.11 L -0.19,-11.06 L -0.16,-11.01 L -0.13,-10.97 L -0.09,-10.93 L -0.05,-10.90 L 0.00,-10.87 L 0.18,-11.18 Z" />
    <path class="fBLACK sBLACK" style="stroke-width:0.04" d="M 0.54,-9.75 L 0.63,-9.75 L 0.72,-9.76 L 0.80,-9.77 L 0.88,-9.79 L 0.96,-9.81 L 1.04,-9.84 L 1.08,-9.86 L 1.12,-9.89 L 1.15,-9.91 L 1.19,-9.94 L 1.22,-9.97 L 1.25,-10.01 L 1.28,-10.04 L 1.31,-10.08 L 1.33,-10.12 L 1.35,-10.16 L 1.36,-10.20 L 1.38,-10.25 L 1.39,-10.29 L 1.39,-10.33 L 1.40,-10.38 L 1.40,-10.42 L 1.39,-10.50 L 1.38,-10.57 L 1.37,-10.61 L 1.36,-10.65 L 1.34,-10.69 L 1.32,-10.73 L 1.29,-10.76 L 1.26,-10.79 L 1.23,-10.82 L 1.20,-10.85 L 1.14,-10.88 L 1.08,-10.91 L 1.03,-10.94 L 0.96,-10.96 L 0.76,-11.01 L 0.43,-11.09 L 0.37,-11.10 L 0.31,-11.12 L 0.25,-11.14 L 0.20,-11.17 L 0.18,-11.18 L 0.00,-10.87 L 0.08,-10.84 L 0.17,-10.80 L 0.25,-10.78 L 0.34,-10.75 L 0.73,-10.66 L 0.85,-10.62 L 0.88,-10.61 L 0.91,-10.60 L 0.94,-10.58 L 0.96,-10.57 L 0.98,-10.55 L 1.00,-10.53 L 1.01,-10.51 L 1.03,-10.49 L 1.03,-10.47 L 1.04,-10.45 L 1.05,-10.42 L 1.05,-10.40 L 1.05,-10.36 L 1.04,-10.32 L 1.03,-10.29 L 1.01,-10.25 L 1.00,-10.22 L 0.98,-10.19 L 0.95,-10.16 L 0.92,-10.14 L 0.89,-10.12 L 0.86,-10.11 L 0.79,-10.08 L 0.71,-10.06 L 0.64,-10.05 L 0.56,-10.05 L 0.54,-9.75 Z" />
    <path class="fBLACK sBLACK" style="stroke-width:0.04" d="M 0.56,-10.05 L 0.51,-10.05 L 0.45,-10.06 L 0.40,-10.06 L 0.35,-10.07 L 0.30,-10.09 L 0.26,-10.11 L 0.21,-10.14 L 0.17,-10.17 L 0.14,-10.20 L 0.11,-10.24 L 0.08,-10.28 L 0.07,-10.33 L 0.05,-10.40 L 0.03,-10.48 L -0.30,-10.48 L -0.30,-10.43 L -0.30,-10.38 L -0.29,-10.34 L -0.29,-10.29 L -0.28,-10.25 L -0.26,-10.21 L -0.24,-10.16 L -0.23,-10.12 L -0.19,-10.06 L -0.15,-10.01 L -0.11,-9.96 L -0.05,-9.91 L 0.00,-9.87 L 0.06,-9.84 L 0.12,-9.81 L 0.19,-9.79 L 0.28,-9.77 L 0.36,-9.76 L 0.45,-9.75 L 0.54,-9.75 L 0.56,-10.05 Z" />
    <path class="fBLACK sBLACK" style="stroke-width:0.04" d="M 1.80,-12.63 L 1.80,-12.24 L 2.15,-12.24 L 2.15,-12.63 L 1.80,-12.63 Z" />
    <path class="fBLACK sBLACK" style="stroke-width:0.04" d="M 1.80,-11.86 L 1.80,-9.81 L 2.15,-9.81 L 2.15,-11.86 L 1.80,-11.86 Z" />
    <path class="fBLACK sBLACK" style="stroke-width:0.04" d="M 4.34,-11.04 L 4.34,-11.14 L 4.34,-11.24 L 4.34,-11.34 L 4.33,-11.43 L 4.32,-11.49 L 4.30,-11.54 L 4.28,-11.59 L 4.26,-11.63 L 4.23,-11.68 L 4.19,-11.72 L 4.16,-11.75 L 4.12,-11.78 L 4.08,-11.81 L 4.03,-11.83 L 3.99,-11.85 L 3.94,-11.87 L 3.86,-11.89 L 3.79,-11.90 L 3.71,-11.91 L 3.63,-11.91 L 3.56,-11.91 L 3.48,-11.90 L 3.41,-11.88 L 3.34,-11.86 L 3.29,-11.84 L 3.24,-11.81 L 3.19,-11.78 L 3.15,-11.74 L 3.10,-11.71 L 3.07,-11.66 L 3.03,-11.62 L 3.00,-11.58 L 3.00,-11.86 L 2.67,-11.86 L 2.67,-9.81 L 3.01,-9.81 L 3.01,-10.98 L 3.02,-11.05 L 3.02,-11.12 L 3.03,-11.18 L 3.04,-11.23 L 3.06,-11.28 L 3.08,-11.33 L 3.11,-11.38 L 3.14,-11.42 L 3.18,-11.46 L 3.22,-11.49 L 3.26,-11.52 L 3.31,-11.54 L 3.35,-11.56 L 3.40,-11.58 L 3.45,-11.59 L 3.50,-11.60 L 3.55,-11.61 L 3.60,-11.61 L 3.63,-11.61 L 3.67,-11.60 L 3.70,-11.60 L 3.74,-11.59 L 3.77,-11.58 L 3.80,-11.57 L 3.83,-11.56 L 3.85,-11.54 L 3.88,-11.52 L 3.90,-11.49 L 3.92,-11.47 L 3.94,-11.44 L 3.96,-11.38 L 3.98,-11.32 L 3.99,-11.26 L 3.99,-11.19 L 3.99,-9.81 L 4.34,-9.81 L 4.34,-11.04 Z" />
    <path class="fBLACK sBLACK" style="stroke-width:0.04" d="M 6.53,-9.85 L 6.53,-11.86 L 6.20,-11.86 L 6.20,-11.63 L 6.14,-11.70 L 6.09,-11.75 L 6.02,-11.81 L 5.95,-11.85 L 5.91,-11.87 L 5.87,-11.89 L 5.82,-11.90 L 5.77,-11.91 L 5.73,-11.92 L 5.68,-11.93 L 5.63,-11.93 L 5.58,-11.93 L 5.53,-11.92 L 5.47,-11.92 L 5.41,-11.91 L 5.36,-11.89 L 5.30,-11.87 L 5.25,-11.85 L 5.20,-11.82 L 5.15,-11.79 L 5.09,-11.74 L 5.04,-11.69 L 4.99,-11.64 L 4.95,-11.58 L 4.91,-11.52 L 4.87,-11.46 L 4.85,-11.39 L 4.82,-11.32 L 4.80,-11.27 L 4.79,-11.21 L 4.77,-11.15 L 4.76,-11.09 L 4.76,-11.03 L 4.75,-10.96 L 4.75,-10.90 L 4.75,-10.84 L 4.75,-10.78 L 5.11,-10.80 L 5.11,-10.86 L 5.11,-10.92 L 5.11,-10.98 L 5.12,-11.03 L 5.13,-11.09 L 5.14,-11.14 L 5.15,-11.20 L 5.17,-11.25 L 5.19,-11.30 L 5.21,-11.34 L 5.23,-11.38 L 5.25,-11.42 L 5.28,-11.45 L 5.31,-11.48 L 5.34,-11.51 L 5.37,-11.54 L 5.41,-11.56 L 5.47,-11.59 L 5.53,-11.60 L 5.59,-11.61 L 5.65,-11.62 L 5.71,-11.61 L 5.78,-11.61 L 5.84,-11.59 L 5.89,-11.57 L 5.93,-11.54 L 5.97,-11.52 L 6.00,-11.49 L 6.03,-11.46 L 6.06,-11.42 L 6.09,-11.38 L 6.11,-11.35 L 6.13,-11.30 L 6.16,-11.24 L 6.18,-11.17 L 6.19,-11.10 L 6.20,-11.03 L 6.21,-10.93 L 6.21,-10.83 L 6.53,-9.85 Z" />
    <path class="fBLACK sBLACK" style="stroke-width:0.04" d="M 6.21,-10.75 L 6.20,-10.67 L 6.19,-10.58 L 6.18,-10.50 L 6.16,-10.43 L 6.14,-10.36 L 6.10,-10.30 L 6.07,-10.24 L 6.03,-10.19 L 5.99,-10.15 L 5.94,-10.12 L 5.89,-10.09 L 5.84,-10.07 L 5.79,-10.06 L 5.73,-10.05 L 5.67,-10.05 L 5.61,-10.05 L 5.55,-10.06 L 5.49,-10.08 L 5.43,-10.10 L 5.39,-10.13 L 5.35,-10.15 L 5.32,-10.19 L 5.28,-10.22 L 5.25,-10.26 L 5.23,-10.29 L 5.21,-10.34 L 5.19,-10.38 L 5.17,-10.44 L 5.15,-10.50 L 5.13,-10.56 L 5.12,-10.62 L 5.11,-10.68 L 5.11,-10.74 L 5.11,-10.80 L 4.75,-10.78 L 4.75,-10.72 L 4.75,-10.65 L 4.76,-10.59 L 4.78,-10.51 L 4.79,-10.43 L 4.82,-10.36 L 4.85,-10.28 L 4.88,-10.21 L 4.92,-10.14 L 4.97,-10.08 L 5.01,-10.01 L 5.04,-9.98 L 5.07,-9.95 L 5.10,-9.92 L 5.14,-9.89 L 5.17,-9.87 L 5.21,-9.85 L 5.24,-9.83 L 5.28,-9.81 L 5.36,-9.78 L 5.44,-9.76 L 5.53,-9.75 L 5.61,-9.74 L 5.65,-9.74 L 5.70,-9.75 L 5.74,-9.75 L 5.78,-9.76 L 5.82,-9.77 L 5.86,-9.78 L 5.90,-9.80 L 5.94,-9.81 L 5.98,-9.83 L 6.01,-9.86 L 6.05,-9.88 L 6.08,-9.91 L 6.11,-9.93 L 6.14,-9.96 L 6.17,-9.99 L 6.20,-10.03 L 6.20,-9.78 L 6.53,-9.85 L 6.21,-10.83 L 6.21,-10.75 Z" />
    <path class="fBLACK sBLACK" style="stroke-width:0.04" d="M 6.20,-9.78 L 6.20,-9.68 L 6.19,-9.62 L 6.18,-9.56 L 6.16,-9.51 L 6.14,-9.45 L 6.12,-9.42 L 6.09,-9.40 L 6.07,-9.37 L 6.04,-9.34 L 6.01,-9.32 L 5.98,-9.31 L 5.94,-9.29 L 5.91,-9.28 L 5.84,-9.26 L 5.78,-9.25 L 5.71,-9.24 L 5.65,-9.24 L 5.57,-9.25 L 5.49,-9.25 L 5.44,-9.26 L 5.39,-9.28 L 5.34,-9.29 L 5.29,-9.32 L 5.26,-9.34 L 5.23,-9.36 L 5.21,-9.39 L 5.19,-9.42 L 5.18,-9.46 L 5.17,-9.49 L 5.16,-9.53 L 5.16,-9.57 L 4.83,-9.57 L 4.83,-9.49 L 4.83,-9.45 L 4.84,-9.41 L 4.85,-9.37 L 4.86,-9.33 L 4.88,-9.30 L 4.90,-9.26 L 4.93,-9.23 L 4.95,-9.20 L 4.99,-9.16 L 5.03,-9.12 L 5.07,-9.09 L 5.11,-9.07 L 5.16,-9.04 L 5.20,-9.02 L 5.25,-9.00 L 5.30,-8.99 L 5.40,-8.97 L 5.49,-8.96 L 5.59,-8.95 L 5.69,-8.95 L 5.79,-8.96 L 5.89,-8.97 L 5.98,-8.99 L 6.08,-9.02 L 6.12,-9.04 L 6.16,-9.06 L 6.20,-9.08 L 6.24,-9.10 L 6.28,-9.13 L 6.31,-9.16 L 6.34,-9.19 L 6.37,-9.23 L 6.40,-9.27 L 6.43,-9.30 L 6.45,-9.34 L 6.47,-9.38 L 6.49,-9.43 L 6.50,-9.47 L 6.51,-9.52 L 6.52,-9.56 L 6.53,-9.71 L 6.53,-9.85 L 6.20,-9.78 Z" />
    <path class="fBLACK sBLACK" style="stroke-width:0.04" d="M -0.31,-4.80 L 0.31,-4.80 L 0.31,-2.50 L -0.31,-2.50 L -0.31,-4.80 Z" />
    <path class="f0 sBLACK" style="stroke-width:0.12" d="M -1.15,-4.80 L 1.15,-4.80 L 1.15,-2.50 L -1.15,-2.50 L -1.15,-4.80 " />
    <circle class="pivotPoint layout" fill="none" cx="0" cy="0" r="0.2" />
  </g>
</svg>