<?xml version="1.0" encoding="UTF-8"?>
<?xml-stylesheet type='text/css' href='S401Style.css'?>
<svg version="1.2" baseProfile="tiny" style="shape-rendering:geometricPrecision; fill-rule:evenodd;" width="14.84mm" height="13.61mm" viewBox="-7.33 -12.72 14.86 13.63" xmlns="http://www.w3.org/2000/svg">
  <title>TOPMA110F</title>
  <desc>beacon top mark, yellow-black square board, vertical - off position</desc>
  <metadata />
  <g>
    <path class="f0 sFFD700" style="stroke-width:0.08" d="M -1.72,-1.78 L -2.30,-2.61 " />
    <path class="f0 sBLACK" style="stroke-width:0.24" d="M -3.23,-3.70 L 0.00,-8.31 L 3.23,-3.70 L 0.00,0.90 L -3.23,-3.70 Z" />
    <path class="f0 sBLACK" style="stroke-width:0.24" d="M -2.98,-3.70 L 0.00,-7.96 L 2.98,-3.70 L 0.00,0.56 L -2.98,-3.70 Z" />
    <path class="fBLACK sBLACK" style="stroke-width:0.04" d="M -5.99,-10.06 L -6.07,-10.06 L -6.14,-10.07 L -6.21,-10.08 L -6.29,-10.11 L -6.36,-10.13 L -6.43,-10.16 L -6.49,-10.20 L -6.55,-10.25 L -6.59,-10.28 L -6.63,-10.31 L -6.66,-10.35 L -6.69,-10.39 L -6.72,-10.43 L -6.75,-10.47 L -6.78,-10.51 L -6.80,-10.55 L -6.83,-10.63 L -6.86,-10.71 L -6.88,-10.80 L -6.90,-10.88 L -6.91,-10.96 L -6.92,-11.05 L -6.93,-11.13 L -6.93,-11.22 L -6.93,-11.30 L -7.32,-11.31 L -7.32,-11.22 L -7.32,-11.13 L -7.32,-11.03 L -7.31,-10.94 L -7.30,-10.85 L -7.29,-10.78 L -7.27,-10.71 L -7.26,-10.64 L -7.23,-10.58 L -7.21,-10.51 L -7.18,-10.45 L -7.15,-10.39 L -7.12,-10.33 L -7.08,-10.27 L -7.04,-10.21 L -7.00,-10.16 L -6.95,-10.11 L -6.90,-10.06 L -6.85,-10.01 L -6.80,-9.97 L -6.74,-9.93 L -6.68,-9.89 L -6.62,-9.86 L -6.56,-9.83 L -6.49,-9.81 L -6.43,-9.79 L -6.37,-9.77 L -6.31,-9.76 L -6.24,-9.75 L -6.18,-9.74 L -6.12,-9.73 L -6.05,-9.73 L -5.99,-9.73 L -5.99,-10.06 Z" />
    <path class="fBLACK sBLACK" style="stroke-width:0.04" d="M -5.99,-9.73 L -5.92,-9.73 L -5.85,-9.73 L -5.78,-9.74 L -5.71,-9.75 L -5.62,-9.77 L -5.52,-9.79 L -5.43,-9.83 L -5.35,-9.87 L -5.26,-9.91 L -5.19,-9.97 L -5.11,-10.03 L -5.04,-10.09 L -4.97,-10.17 L -4.91,-10.26 L -4.85,-10.35 L -4.80,-10.44 L -4.76,-10.54 L -4.72,-10.64 L -4.70,-10.74 L -4.68,-10.85 L -4.67,-10.94 L -4.66,-11.03 L -4.65,-11.13 L -5.05,-11.13 L -5.05,-11.05 L -5.06,-10.96 L -5.08,-10.88 L -5.10,-10.80 L -5.12,-10.71 L -5.15,-10.63 L -5.18,-10.55 L -5.20,-10.51 L -5.23,-10.47 L -5.25,-10.43 L -5.28,-10.39 L -5.31,-10.35 L -5.35,-10.31 L -5.38,-10.28 L -5.42,-10.25 L -5.46,-10.22 L -5.50,-10.19 L -5.55,-10.17 L -5.59,-10.14 L -5.63,-10.12 L -5.68,-10.11 L -5.73,-10.09 L -5.78,-10.08 L -5.83,-10.07 L -5.88,-10.07 L -5.94,-10.06 L -5.99,-10.06 L -5.99,-9.73 Z" />
    <path class="fBLACK sBLACK" style="stroke-width:0.04" d="M -5.99,-12.37 L -5.91,-12.37 L -5.84,-12.36 L -5.76,-12.35 L -5.69,-12.33 L -5.62,-12.30 L -5.55,-12.27 L -5.48,-12.23 L -5.42,-12.18 L -5.38,-12.15 L -5.35,-12.12 L -5.31,-12.08 L -5.28,-12.05 L -5.25,-12.01 L -5.23,-11.97 L -5.20,-11.93 L -5.18,-11.88 L -5.15,-11.80 L -5.12,-11.72 L -5.10,-11.64 L -5.08,-11.56 L -5.06,-11.47 L -5.05,-11.39 L -5.05,-11.30 L -5.05,-11.22 L -5.05,-11.13 L -4.65,-11.13 L -4.65,-11.22 L -4.65,-11.31 L -4.66,-11.40 L -4.67,-11.50 L -4.68,-11.59 L -4.69,-11.66 L -4.71,-11.73 L -4.73,-11.80 L -4.75,-11.87 L -4.77,-11.93 L -4.80,-12.00 L -4.83,-12.06 L -4.87,-12.13 L -4.93,-12.21 L -4.99,-12.29 L -5.06,-12.36 L -5.13,-12.43 L -5.22,-12.49 L -5.30,-12.54 L -5.39,-12.59 L -5.49,-12.63 L -5.55,-12.65 L -5.61,-12.66 L -5.67,-12.68 L -5.73,-12.69 L -5.80,-12.70 L -5.86,-12.70 L -5.92,-12.71 L -5.99,-12.71 L -5.99,-12.37 Z" />
    <path class="fBLACK sBLACK" style="stroke-width:0.04" d="M -5.99,-12.71 L -6.06,-12.71 L -6.13,-12.70 L -6.20,-12.70 L -6.27,-12.69 L -6.37,-12.67 L -6.46,-12.64 L -6.54,-12.61 L -6.63,-12.57 L -6.71,-12.52 L -6.79,-12.47 L -6.87,-12.41 L -6.94,-12.34 L -7.01,-12.26 L -7.07,-12.18 L -7.13,-12.09 L -7.18,-11.99 L -7.22,-11.90 L -7.26,-11.80 L -7.28,-11.69 L -7.30,-11.59 L -7.31,-11.50 L -7.32,-11.40 L -7.32,-11.31 L -6.93,-11.30 L -6.92,-11.39 L -6.91,-11.47 L -6.90,-11.56 L -6.88,-11.64 L -6.86,-11.72 L -6.83,-11.80 L -6.80,-11.88 L -6.78,-11.93 L -6.75,-11.97 L -6.72,-12.01 L -6.70,-12.05 L -6.66,-12.09 L -6.63,-12.12 L -6.60,-12.16 L -6.56,-12.19 L -6.52,-12.22 L -6.48,-12.24 L -6.43,-12.27 L -6.39,-12.29 L -6.35,-12.31 L -6.30,-12.33 L -6.25,-12.34 L -6.21,-12.35 L -6.15,-12.36 L -6.10,-12.37 L -6.04,-12.37 L -5.99,-12.37 L -5.99,-12.71 Z" />
    <path class="fBLACK sBLACK" style="stroke-width:0.04" d="M -3.35,-12.65 L -3.43,-12.66 L -3.50,-12.67 L -3.58,-12.68 L -3.66,-12.68 L -3.72,-12.67 L -3.77,-12.66 L -3.83,-12.64 L -3.88,-12.62 L -3.92,-12.59 L -3.96,-12.56 L -4.00,-12.52 L -4.03,-12.48 L -4.04,-12.44 L -4.06,-12.41 L -4.07,-12.37 L -4.08,-12.33 L -4.09,-12.29 L -4.09,-12.25 L -4.10,-12.21 L -4.10,-12.17 L -4.10,-11.86 L -4.46,-11.86 L -4.46,-11.59 L -4.10,-11.59 L -4.10,-9.81 L -3.75,-9.81 L -3.75,-11.59 L -3.35,-11.59 L -3.35,-11.86 L -3.75,-11.86 L -3.75,-12.04 L -3.75,-12.08 L -3.74,-12.13 L -3.74,-12.17 L -3.73,-12.22 L -3.72,-12.25 L -3.71,-12.27 L -3.69,-12.29 L -3.67,-12.31 L -3.63,-12.33 L -3.59,-12.35 L -3.54,-12.36 L -3.49,-12.36 L -3.39,-12.35 L -3.35,-12.34 L -3.35,-12.65 Z" />
    <path class="fBLACK sBLACK" style="stroke-width:0.04" d="M -2.26,-12.65 L -2.33,-12.66 L -2.41,-12.67 L -2.49,-12.68 L -2.57,-12.68 L -2.62,-12.67 L -2.68,-12.66 L -2.74,-12.64 L -2.79,-12.62 L -2.83,-12.59 L -2.87,-12.56 L -2.91,-12.52 L -2.93,-12.48 L -2.95,-12.44 L -2.97,-12.41 L -2.98,-12.37 L -2.99,-12.33 L -3.00,-12.29 L -3.00,-12.25 L -3.00,-12.21 L -3.00,-12.17 L -3.00,-11.86 L -3.37,-11.86 L -3.37,-11.59 L -3.00,-11.59 L -3.00,-9.81 L -2.65,-9.81 L -2.65,-11.59 L -2.26,-11.59 L -2.26,-11.86 L -2.65,-11.86 L -2.65,-12.04 L -2.66,-12.08 L -2.65,-12.13 L -2.65,-12.17 L -2.64,-12.22 L -2.63,-12.25 L -2.61,-12.27 L -2.60,-12.29 L -2.58,-12.31 L -2.54,-12.33 L -2.49,-12.35 L -2.45,-12.36 L -2.40,-12.36 L -2.30,-12.35 L -2.26,-12.34 L -2.26,-12.65 Z" />
    <path class="fBLACK sBLACK" style="stroke-width:0.04" d="M 0.88,-11.81 L 0.88,-11.76 L 0.87,-11.70 L 0.86,-11.64 L 0.84,-11.59 L 0.82,-11.55 L 0.80,-11.52 L 0.78,-11.49 L 0.75,-11.46 L 0.72,-11.43 L 0.68,-11.41 L 0.64,-11.39 L 0.61,-11.38 L 0.56,-11.36 L 0.51,-11.35 L 0.46,-11.34 L 0.41,-11.34 L 0.23,-11.34 L -0.48,-11.34 L -0.48,-11.00 L 0.16,-11.00 L 0.28,-11.00 L 0.39,-11.00 L 0.51,-11.01 L 0.62,-11.02 L 0.67,-11.03 L 0.72,-11.04 L 0.77,-11.05 L 0.81,-11.07 L 0.86,-11.09 L 0.90,-11.12 L 0.94,-11.14 L 0.98,-11.17 L 1.02,-11.20 L 1.06,-11.24 L 1.09,-11.28 L 1.12,-11.32 L 1.15,-11.36 L 1.18,-11.40 L 1.20,-11.44 L 1.22,-11.49 L 1.24,-11.57 L 1.26,-11.65 L 1.27,-11.73 L 1.27,-11.82 L 0.88,-11.81 Z" />
    <path class="fBLACK sBLACK" style="stroke-width:0.04" d="M 1.27,-11.82 L 1.27,-11.91 L 1.26,-12.00 L 1.25,-12.06 L 1.23,-12.12 L 1.21,-12.18 L 1.18,-12.24 L 1.15,-12.29 L 1.11,-12.34 L 1.07,-12.39 L 1.03,-12.43 L 0.98,-12.47 L 0.93,-12.50 L 0.88,-12.53 L 0.83,-12.56 L 0.77,-12.58 L 0.72,-12.60 L 0.66,-12.61 L 0.60,-12.62 L 0.49,-12.63 L 0.37,-12.63 L 0.25,-12.63 L 0.13,-12.63 L -0.86,-12.63 L -0.86,-9.81 L -0.48,-9.81 L -0.48,-11.00 L -0.48,-11.34 L -0.48,-12.29 L 0.26,-12.29 L 0.37,-12.28 L 0.49,-12.27 L 0.55,-12.27 L 0.60,-12.25 L 0.65,-12.23 L 0.70,-12.21 L 0.73,-12.18 L 0.76,-12.15 L 0.78,-12.12 L 0.81,-12.09 L 0.83,-12.06 L 0.85,-12.02 L 0.86,-11.98 L 0.87,-11.95 L 0.88,-11.88 L 0.88,-11.81 L 1.27,-11.82 Z" />
    <path class="fBLACK sBLACK" style="stroke-width:0.04" d="M 3.12,-10.78 L 3.11,-10.72 L 3.11,-10.66 L 3.10,-10.60 L 3.09,-10.54 L 3.07,-10.48 L 3.05,-10.43 L 3.03,-10.37 L 3.02,-10.33 L 3.00,-10.30 L 2.97,-10.27 L 2.95,-10.24 L 2.92,-10.21 L 2.89,-10.18 L 2.86,-10.15 L 2.83,-10.13 L 2.80,-10.11 L 2.76,-10.09 L 2.73,-10.08 L 2.69,-10.07 L 2.65,-10.06 L 2.61,-10.05 L 2.57,-10.05 L 2.53,-10.05 L 2.49,-10.05 L 2.45,-10.05 L 2.41,-10.06 L 2.37,-10.07 L 2.33,-10.08 L 2.30,-10.09 L 2.26,-10.11 L 2.22,-10.13 L 2.19,-10.15 L 2.16,-10.18 L 2.13,-10.21 L 2.10,-10.24 L 2.08,-10.27 L 2.06,-10.30 L 2.04,-10.34 L 2.02,-10.37 L 2.00,-10.43 L 1.98,-10.49 L 1.97,-10.54 L 1.95,-10.60 L 1.94,-10.66 L 1.94,-10.72 L 1.59,-10.71 L 1.59,-10.59 L 1.61,-10.49 L 1.63,-10.40 L 1.67,-10.31 L 1.71,-10.22 L 1.74,-10.15 L 1.78,-10.09 L 1.83,-10.03 L 1.88,-9.98 L 1.94,-9.93 L 2.00,-9.88 L 2.07,-9.85 L 2.13,-9.81 L 2.18,-9.80 L 2.23,-9.78 L 2.28,-9.77 L 2.33,-9.76 L 2.38,-9.75 L 2.43,-9.75 L 2.48,-9.75 L 2.53,-9.75 L 2.58,-9.75 L 2.64,-9.75 L 2.69,-9.76 L 2.75,-9.77 L 2.80,-9.77 L 2.84,-9.79 L 2.89,-9.80 L 2.93,-9.82 L 2.97,-9.84 L 3.01,-9.86 L 3.05,-9.89 L 3.09,-9.91 L 3.15,-9.96 L 3.20,-10.02 L 3.25,-10.07 L 3.30,-10.14 L 3.34,-10.20 L 3.37,-10.27 L 3.40,-10.34 L 3.42,-10.41 L 3.44,-10.52 L 3.46,-10.62 L 3.46,-10.73 L 3.12,-10.78 Z" />
    <path class="fBLACK sBLACK" style="stroke-width:0.04" d="M 2.53,-11.93 L 2.48,-11.93 L 2.43,-11.92 L 2.38,-11.92 L 2.33,-11.91 L 2.28,-11.90 L 2.23,-11.89 L 2.18,-11.88 L 2.13,-11.86 L 2.09,-11.84 L 2.04,-11.81 L 2.00,-11.78 L 1.96,-11.76 L 1.92,-11.72 L 1.88,-11.69 L 1.85,-11.65 L 1.81,-11.62 L 1.78,-11.58 L 1.75,-11.53 L 1.73,-11.49 L 1.70,-11.45 L 1.68,-11.40 L 1.66,-11.35 L 1.64,-11.31 L 1.63,-11.26 L 1.61,-11.15 L 1.59,-11.05 L 1.58,-10.94 L 1.58,-10.84 L 1.59,-10.71 L 1.94,-10.72 L 1.94,-10.78 L 1.94,-10.84 L 1.94,-10.90 L 1.94,-10.96 L 1.94,-11.01 L 1.95,-11.07 L 1.97,-11.13 L 1.98,-11.19 L 2.00,-11.24 L 2.02,-11.30 L 2.04,-11.34 L 2.06,-11.37 L 2.08,-11.40 L 2.10,-11.44 L 2.13,-11.47 L 2.16,-11.49 L 2.19,-11.52 L 2.22,-11.54 L 2.26,-11.56 L 2.30,-11.58 L 2.33,-11.59 L 2.37,-11.60 L 2.41,-11.61 L 2.45,-11.62 L 2.49,-11.62 L 2.53,-11.62 L 2.53,-11.93 Z" />
    <path class="fBLACK sBLACK" style="stroke-width:0.04" d="M 2.53,-11.62 L 2.57,-11.62 L 2.61,-11.62 L 2.65,-11.61 L 2.69,-11.60 L 2.72,-11.59 L 2.76,-11.58 L 2.80,-11.56 L 2.83,-11.54 L 2.86,-11.52 L 2.89,-11.49 L 2.92,-11.46 L 2.95,-11.43 L 2.97,-11.40 L 3.00,-11.37 L 3.02,-11.34 L 3.03,-11.30 L 3.05,-11.24 L 3.07,-11.19 L 3.09,-11.13 L 3.10,-11.07 L 3.11,-11.01 L 3.11,-10.96 L 3.12,-10.90 L 3.12,-10.84 L 3.12,-10.78 L 3.46,-10.73 L 3.47,-10.83 L 3.46,-10.96 L 3.45,-11.08 L 3.44,-11.17 L 3.41,-11.27 L 3.38,-11.36 L 3.34,-11.45 L 3.31,-11.52 L 3.27,-11.58 L 3.22,-11.64 L 3.17,-11.69 L 3.11,-11.74 L 3.05,-11.79 L 2.99,-11.83 L 2.92,-11.86 L 2.87,-11.88 L 2.82,-11.89 L 2.78,-11.90 L 2.73,-11.91 L 2.68,-11.92 L 2.63,-11.92 L 2.58,-11.93 L 2.53,-11.93 L 2.53,-11.62 Z" />
    <path class="fBLACK sBLACK" style="stroke-width:0.04" d="M 4.22,-11.18 L 4.20,-11.20 L 4.18,-11.22 L 4.17,-11.24 L 4.16,-11.26 L 4.15,-11.29 L 4.15,-11.31 L 4.14,-11.34 L 4.15,-11.37 L 4.15,-11.41 L 4.16,-11.44 L 4.17,-11.47 L 4.19,-11.50 L 4.21,-11.52 L 4.24,-11.55 L 4.27,-11.56 L 4.30,-11.58 L 4.33,-11.60 L 4.37,-11.61 L 4.40,-11.62 L 4.44,-11.62 L 4.48,-11.63 L 4.52,-11.63 L 4.55,-11.63 L 4.63,-11.63 L 4.70,-11.62 L 4.78,-11.60 L 4.85,-11.58 L 4.88,-11.56 L 4.90,-11.54 L 4.93,-11.53 L 4.95,-11.50 L 4.97,-11.48 L 4.99,-11.45 L 5.01,-11.43 L 5.02,-11.40 L 5.03,-11.34 L 5.04,-11.29 L 5.38,-11.29 L 5.38,-11.34 L 5.38,-11.39 L 5.37,-11.45 L 5.35,-11.50 L 5.33,-11.55 L 5.30,-11.61 L 5.26,-11.66 L 5.22,-11.70 L 5.18,-11.74 L 5.13,-11.78 L 5.08,-11.81 L 5.02,-11.84 L 4.97,-11.86 L 4.91,-11.88 L 4.86,-11.89 L 4.80,-11.90 L 4.75,-11.91 L 4.69,-11.92 L 4.63,-11.92 L 4.58,-11.93 L 4.52,-11.93 L 4.46,-11.92 L 4.40,-11.92 L 4.34,-11.91 L 4.29,-11.89 L 4.23,-11.88 L 4.17,-11.86 L 4.12,-11.84 L 4.09,-11.82 L 4.05,-11.80 L 4.02,-11.77 L 3.99,-11.75 L 3.96,-11.72 L 3.93,-11.69 L 3.91,-11.66 L 3.89,-11.63 L 3.87,-11.60 L 3.85,-11.56 L 3.83,-11.53 L 3.82,-11.49 L 3.81,-11.45 L 3.80,-11.41 L 3.80,-11.37 L 3.80,-11.33 L 3.80,-11.27 L 3.81,-11.21 L 3.82,-11.16 L 3.83,-11.11 L 3.86,-11.06 L 3.88,-11.01 L 3.92,-10.97 L 3.96,-10.93 L 4.00,-10.90 L 4.04,-10.87 L 4.22,-11.18 Z" />
    <path class="fBLACK sBLACK" style="stroke-width:0.04" d="M 4.58,-9.75 L 4.68,-9.75 L 4.77,-9.76 L 4.85,-9.77 L 4.93,-9.79 L 5.01,-9.81 L 5.08,-9.84 L 5.12,-9.86 L 5.16,-9.89 L 5.20,-9.91 L 5.23,-9.94 L 5.27,-9.97 L 5.30,-10.01 L 5.32,-10.04 L 5.35,-10.08 L 5.37,-10.12 L 5.39,-10.16 L 5.41,-10.20 L 5.42,-10.25 L 5.43,-10.29 L 5.44,-10.33 L 5.44,-10.38 L 5.44,-10.42 L 5.44,-10.50 L 5.43,-10.57 L 5.41,-10.61 L 5.40,-10.65 L 5.38,-10.69 L 5.36,-10.73 L 5.33,-10.76 L 5.31,-10.79 L 5.27,-10.82 L 5.24,-10.85 L 5.19,-10.88 L 5.13,-10.91 L 5.07,-10.94 L 5.01,-10.96 L 4.81,-11.01 L 4.47,-11.09 L 4.41,-11.10 L 4.35,-11.12 L 4.30,-11.14 L 4.24,-11.17 L 4.22,-11.18 L 4.04,-10.87 L 4.13,-10.84 L 4.21,-10.80 L 4.30,-10.78 L 4.38,-10.75 L 4.77,-10.66 L 4.90,-10.62 L 4.93,-10.61 L 4.96,-10.60 L 4.98,-10.58 L 5.01,-10.57 L 5.03,-10.55 L 5.04,-10.53 L 5.06,-10.51 L 5.07,-10.49 L 5.08,-10.47 L 5.09,-10.45 L 5.09,-10.42 L 5.09,-10.40 L 5.09,-10.36 L 5.08,-10.32 L 5.07,-10.29 L 5.06,-10.25 L 5.04,-10.22 L 5.02,-10.19 L 4.99,-10.16 L 4.97,-10.14 L 4.94,-10.12 L 4.90,-10.11 L 4.83,-10.08 L 4.76,-10.06 L 4.68,-10.05 L 4.60,-10.05 L 4.58,-9.75 Z" />
    <path class="fBLACK sBLACK" style="stroke-width:0.04" d="M 4.60,-10.05 L 4.55,-10.05 L 4.50,-10.06 L 4.44,-10.06 L 4.39,-10.07 L 4.35,-10.09 L 4.30,-10.11 L 4.26,-10.14 L 4.22,-10.17 L 4.19,-10.20 L 4.16,-10.24 L 4.13,-10.28 L 4.11,-10.33 L 4.09,-10.40 L 4.08,-10.48 L 3.74,-10.48 L 3.74,-10.43 L 3.74,-10.38 L 3.75,-10.34 L 3.76,-10.29 L 3.77,-10.25 L 3.78,-10.21 L 3.80,-10.16 L 3.82,-10.12 L 3.85,-10.06 L 3.89,-10.01 L 3.94,-9.96 L 3.99,-9.91 L 4.05,-9.87 L 4.11,-9.84 L 4.17,-9.81 L 4.23,-9.79 L 4.32,-9.77 L 4.41,-9.76 L 4.50,-9.75 L 4.58,-9.75 L 4.60,-10.05 Z" />
    <path class="fBLACK sBLACK" style="stroke-width:0.04" d="M 7.52,-11.04 L 7.52,-11.14 L 7.52,-11.24 L 7.51,-11.34 L 7.50,-11.43 L 7.49,-11.49 L 7.47,-11.54 L 7.45,-11.59 L 7.43,-11.63 L 7.40,-11.68 L 7.37,-11.72 L 7.33,-11.75 L 7.29,-11.78 L 7.25,-11.81 L 7.21,-11.83 L 7.16,-11.85 L 7.11,-11.87 L 7.04,-11.89 L 6.96,-11.90 L 6.88,-11.91 L 6.80,-11.91 L 6.73,-11.91 L 6.65,-11.90 L 6.58,-11.88 L 6.51,-11.86 L 6.46,-11.84 L 6.41,-11.81 L 6.36,-11.78 L 6.32,-11.74 L 6.28,-11.71 L 6.24,-11.66 L 6.20,-11.62 L 6.17,-11.58 L 6.17,-11.86 L 5.84,-11.86 L 5.84,-9.81 L 6.19,-9.81 L 6.19,-10.98 L 6.19,-11.05 L 6.20,-11.12 L 6.20,-11.18 L 6.22,-11.23 L 6.23,-11.28 L 6.26,-11.33 L 6.29,-11.38 L 6.32,-11.42 L 6.35,-11.46 L 6.40,-11.49 L 6.44,-11.52 L 6.48,-11.54 L 6.53,-11.56 L 6.58,-11.58 L 6.62,-11.59 L 6.67,-11.60 L 6.72,-11.61 L 6.77,-11.61 L 6.81,-11.61 L 6.84,-11.60 L 6.88,-11.60 L 6.91,-11.59 L 6.94,-11.58 L 6.97,-11.57 L 7.00,-11.56 L 7.03,-11.54 L 7.05,-11.52 L 7.07,-11.49 L 7.09,-11.47 L 7.11,-11.44 L 7.14,-11.38 L 7.15,-11.32 L 7.16,-11.26 L 7.17,-11.19 L 7.17,-9.81 L 7.52,-9.81 L 7.52,-11.04 Z" />
    <path class="fYLLOW sYLLOW" style="stroke-width:0.04" d="M -1.15,-4.80 L 1.15,-4.80 L 1.15,-2.50 L -1.15,-2.50 L -1.15,-4.80 Z" />
    <path class="f0 sBLACK" style="stroke-width:0.12" d="M -1.15,-4.80 L 1.15,-4.80 L 1.15,-2.50 L -1.15,-2.50 L -1.15,-4.80 " />
    <path class="fBLACK sBLACK" style="stroke-width:0.04" d="M -0.31,-4.80 L 0.31,-4.80 L 0.31,-2.50 L -0.31,-2.50 L -0.31,-4.80 Z" />
    <circle class="pivotPoint layout" fill="none" cx="0" cy="0" r="0.2" />
  </g>
</svg>