<?xml version="1.0" encoding="UTF-8"?>
<?xml-stylesheet type='text/css' href='S401Style.css'?>
<svg version="1.2" baseProfile="tiny" style="shape-rendering:geometricPrecision; fill-rule:evenodd;" width="17.96mm" height="14.54mm" viewBox="-8.87 -13.83 17.98 14.56" xmlns="http://www.w3.org/2000/svg">
  <title>TOPMA112F</title>
  <desc>beacon top mark, yellow-black square board, diagonal - off position</desc>
  <metadata />
  <g>
    <path class="f0 sBLACK" style="stroke-width:0.24" d="M -3.23,-3.89 L 0.00,-8.49 L 3.23,-3.89 L 0.00,0.72 L -3.23,-3.89 Z" />
    <path class="f0 sBLACK" style="stroke-width:0.24" d="M -2.98,-3.89 L 0.00,-8.14 L 2.98,-3.89 L 0.00,0.37 L -2.98,-3.89 Z" />
    <path class="fBLACK sBLACK" style="stroke-width:0.04" d="M -7.25,-10.61 L -7.34,-10.61 L -7.43,-10.62 L -7.52,-10.64 L -7.61,-10.67 L -7.69,-10.70 L -7.78,-10.74 L -7.86,-10.79 L -7.93,-10.84 L -7.98,-10.88 L -8.02,-10.92 L -8.06,-10.96 L -8.10,-11.01 L -8.14,-11.06 L -8.17,-11.11 L -8.20,-11.16 L -8.23,-11.21 L -8.26,-11.31 L -8.30,-11.40 L -8.33,-11.50 L -8.35,-11.60 L -8.37,-11.71 L -8.38,-11.81 L -8.38,-11.91 L -8.38,-12.01 L -8.38,-12.12 L -8.86,-12.13 L -8.86,-12.01 L -8.86,-11.90 L -8.86,-11.79 L -8.85,-11.68 L -8.83,-11.57 L -8.82,-11.48 L -8.80,-11.40 L -8.78,-11.32 L -8.75,-11.24 L -8.73,-11.16 L -8.69,-11.08 L -8.66,-11.01 L -8.62,-10.94 L -8.57,-10.86 L -8.52,-10.80 L -8.47,-10.73 L -8.41,-10.67 L -8.35,-10.61 L -8.29,-10.56 L -8.22,-10.50 L -8.15,-10.46 L -8.08,-10.41 L -8.01,-10.37 L -7.93,-10.34 L -7.86,-10.31 L -7.78,-10.29 L -7.71,-10.27 L -7.63,-10.25 L -7.55,-10.24 L -7.48,-10.23 L -7.40,-10.22 L -7.32,-10.21 L -7.25,-10.21 L -7.25,-10.61 Z" />
    <path class="fBLACK sBLACK" style="stroke-width:0.04" d="M -7.25,-10.21 L -7.16,-10.21 L -7.08,-10.22 L -6.99,-10.23 L -6.91,-10.24 L -6.80,-10.26 L -6.68,-10.29 L -6.58,-10.33 L -6.47,-10.38 L -6.37,-10.43 L -6.28,-10.50 L -6.19,-10.57 L -6.10,-10.65 L -6.02,-10.75 L -5.94,-10.85 L -5.87,-10.96 L -5.81,-11.07 L -5.76,-11.19 L -5.72,-11.32 L -5.69,-11.44 L -5.66,-11.57 L -5.65,-11.68 L -5.64,-11.79 L -5.63,-11.90 L -6.11,-11.91 L -6.12,-11.81 L -6.13,-11.71 L -6.15,-11.60 L -6.17,-11.50 L -6.20,-11.40 L -6.23,-11.31 L -6.27,-11.21 L -6.29,-11.16 L -6.32,-11.11 L -6.36,-11.06 L -6.39,-11.01 L -6.43,-10.96 L -6.47,-10.92 L -6.51,-10.88 L -6.56,-10.84 L -6.61,-10.80 L -6.66,-10.77 L -6.71,-10.74 L -6.76,-10.71 L -6.82,-10.69 L -6.87,-10.67 L -6.93,-10.65 L -6.99,-10.64 L -7.05,-10.63 L -7.12,-10.62 L -7.18,-10.61 L -7.25,-10.61 L -7.25,-10.21 Z" />
    <path class="fBLACK sBLACK" style="stroke-width:0.04" d="M -7.25,-13.41 L -7.15,-13.41 L -7.06,-13.40 L -6.97,-13.38 L -6.88,-13.36 L -6.80,-13.33 L -6.71,-13.29 L -6.63,-13.24 L -6.56,-13.18 L -6.51,-13.15 L -6.47,-13.11 L -6.43,-13.06 L -6.39,-13.02 L -6.36,-12.97 L -6.32,-12.92 L -6.29,-12.87 L -6.27,-12.82 L -6.23,-12.72 L -6.20,-12.62 L -6.17,-12.53 L -6.15,-12.42 L -6.13,-12.32 L -6.12,-12.22 L -6.11,-12.12 L -6.11,-12.01 L -6.11,-11.91 L -5.63,-11.90 L -5.63,-12.01 L -5.63,-12.13 L -5.64,-12.24 L -5.65,-12.35 L -5.66,-12.46 L -5.68,-12.55 L -5.70,-12.63 L -5.72,-12.72 L -5.74,-12.80 L -5.78,-12.88 L -5.81,-12.96 L -5.85,-13.04 L -5.89,-13.11 L -5.96,-13.21 L -6.04,-13.31 L -6.12,-13.40 L -6.21,-13.48 L -6.31,-13.55 L -6.42,-13.62 L -6.52,-13.67 L -6.64,-13.72 L -6.71,-13.74 L -6.79,-13.76 L -6.86,-13.78 L -6.94,-13.80 L -7.01,-13.81 L -7.09,-13.81 L -7.17,-13.82 L -7.25,-13.82 L -7.25,-13.41 Z" />
    <path class="fBLACK sBLACK" style="stroke-width:0.04" d="M -7.25,-13.82 L -7.33,-13.82 L -7.42,-13.81 L -7.50,-13.80 L -7.59,-13.79 L -7.70,-13.77 L -7.81,-13.74 L -7.92,-13.70 L -8.02,-13.65 L -8.12,-13.59 L -8.22,-13.53 L -8.31,-13.45 L -8.39,-13.37 L -8.48,-13.28 L -8.56,-13.17 L -8.63,-13.07 L -8.69,-12.95 L -8.74,-12.83 L -8.78,-12.71 L -8.81,-12.59 L -8.83,-12.46 L -8.85,-12.35 L -8.86,-12.24 L -8.86,-12.13 L -8.38,-12.12 L -8.38,-12.22 L -8.37,-12.32 L -8.35,-12.42 L -8.33,-12.53 L -8.30,-12.62 L -8.26,-12.72 L -8.23,-12.82 L -8.20,-12.87 L -8.17,-12.92 L -8.14,-12.97 L -8.10,-13.02 L -8.06,-13.07 L -8.02,-13.11 L -7.98,-13.15 L -7.93,-13.19 L -7.89,-13.22 L -7.84,-13.26 L -7.79,-13.29 L -7.73,-13.31 L -7.68,-13.34 L -7.62,-13.36 L -7.57,-13.37 L -7.51,-13.39 L -7.44,-13.40 L -7.38,-13.41 L -7.31,-13.41 L -7.25,-13.41 L -7.25,-13.82 Z" />
    <path class="fBLACK sBLACK" style="stroke-width:0.04" d="M -4.05,-13.75 L -4.15,-13.76 L -4.24,-13.77 L -4.33,-13.78 L -4.43,-13.78 L -4.50,-13.77 L -4.56,-13.76 L -4.63,-13.74 L -4.69,-13.71 L -4.75,-13.68 L -4.79,-13.64 L -4.84,-13.59 L -4.87,-13.54 L -4.89,-13.50 L -4.91,-13.45 L -4.93,-13.40 L -4.94,-13.36 L -4.95,-13.31 L -4.95,-13.26 L -4.96,-13.21 L -4.96,-13.16 L -4.96,-12.79 L -5.40,-12.79 L -5.40,-12.46 L -4.96,-12.46 L -4.96,-10.31 L -4.53,-10.31 L -4.53,-12.46 L -4.05,-12.46 L -4.05,-12.79 L -4.53,-12.79 L -4.53,-13.00 L -4.53,-13.06 L -4.53,-13.12 L -4.52,-13.17 L -4.51,-13.23 L -4.50,-13.26 L -4.48,-13.29 L -4.46,-13.31 L -4.44,-13.33 L -4.39,-13.36 L -4.34,-13.38 L -4.28,-13.39 L -4.23,-13.39 L -4.10,-13.38 L -4.05,-13.37 L -4.05,-13.75 Z" />
    <path class="fBLACK sBLACK" style="stroke-width:0.04" d="M -2.73,-13.75 L -2.82,-13.76 L -2.92,-13.77 L -3.01,-13.78 L -3.11,-13.78 L -3.18,-13.77 L -3.24,-13.76 L -3.31,-13.74 L -3.37,-13.71 L -3.43,-13.68 L -3.47,-13.64 L -3.52,-13.59 L -3.55,-13.54 L -3.57,-13.50 L -3.59,-13.45 L -3.61,-13.40 L -3.62,-13.36 L -3.63,-13.31 L -3.63,-13.26 L -3.64,-13.21 L -3.64,-13.16 L -3.64,-12.79 L -4.08,-12.79 L -4.08,-12.46 L -3.64,-12.46 L -3.64,-10.31 L -3.21,-10.31 L -3.21,-12.46 L -2.73,-12.46 L -2.73,-12.79 L -3.21,-12.79 L -3.21,-13.00 L -3.21,-13.06 L -3.21,-13.12 L -3.20,-13.17 L -3.19,-13.23 L -3.18,-13.26 L -3.16,-13.29 L -3.14,-13.31 L -3.12,-13.33 L -3.07,-13.36 L -3.02,-13.38 L -2.96,-13.39 L -2.91,-13.39 L -2.78,-13.38 L -2.73,-13.37 L -2.73,-13.75 Z" />
    <path class="fBLACK sBLACK" style="stroke-width:0.04" d="M 1.07,-12.73 L 1.06,-12.66 L 1.06,-12.60 L 1.04,-12.53 L 1.02,-12.47 L 1.00,-12.42 L 0.97,-12.38 L 0.94,-12.34 L 0.90,-12.30 L 0.87,-12.27 L 0.82,-12.25 L 0.78,-12.22 L 0.73,-12.20 L 0.67,-12.19 L 0.61,-12.17 L 0.55,-12.17 L 0.49,-12.16 L 0.28,-12.16 L -0.58,-12.16 L -0.58,-11.75 L 0.20,-11.75 L 0.33,-11.75 L 0.47,-11.75 L 0.61,-11.76 L 0.75,-11.77 L 0.81,-11.78 L 0.87,-11.80 L 0.93,-11.81 L 0.98,-11.84 L 1.04,-11.86 L 1.09,-11.89 L 1.14,-11.92 L 1.19,-11.96 L 1.24,-12.00 L 1.28,-12.04 L 1.32,-12.08 L 1.36,-12.13 L 1.39,-12.18 L 1.42,-12.23 L 1.45,-12.29 L 1.47,-12.34 L 1.50,-12.44 L 1.53,-12.54 L 1.54,-12.64 L 1.54,-12.74 L 1.07,-12.73 Z" />
    <path class="fBLACK sBLACK" style="stroke-width:0.04" d="M 1.54,-12.74 L 1.54,-12.85 L 1.52,-12.96 L 1.51,-13.03 L 1.49,-13.11 L 1.46,-13.18 L 1.43,-13.24 L 1.39,-13.31 L 1.35,-13.37 L 1.30,-13.43 L 1.25,-13.48 L 1.19,-13.53 L 1.13,-13.57 L 1.07,-13.60 L 1.00,-13.64 L 0.94,-13.66 L 0.87,-13.68 L 0.80,-13.70 L 0.73,-13.71 L 0.59,-13.72 L 0.44,-13.72 L 0.30,-13.73 L 0.16,-13.73 L -1.04,-13.73 L -1.04,-10.31 L -0.58,-10.31 L -0.58,-11.75 L -0.58,-12.16 L -0.58,-13.31 L 0.31,-13.31 L 0.45,-13.30 L 0.59,-13.29 L 0.66,-13.28 L 0.72,-13.26 L 0.78,-13.24 L 0.84,-13.21 L 0.88,-13.18 L 0.92,-13.15 L 0.95,-13.11 L 0.98,-13.07 L 1.00,-13.03 L 1.02,-12.99 L 1.04,-12.94 L 1.05,-12.89 L 1.06,-12.81 L 1.07,-12.73 L 1.54,-12.74 Z" />
    <path class="fBLACK sBLACK" style="stroke-width:0.04" d="M 3.77,-11.48 L 3.77,-11.41 L 3.76,-11.34 L 3.75,-11.27 L 3.74,-11.19 L 3.72,-11.12 L 3.70,-11.06 L 3.67,-10.99 L 3.65,-10.94 L 3.63,-10.90 L 3.60,-10.86 L 3.57,-10.83 L 3.54,-10.79 L 3.50,-10.76 L 3.47,-10.73 L 3.43,-10.70 L 3.38,-10.68 L 3.34,-10.66 L 3.30,-10.64 L 3.25,-10.62 L 3.20,-10.61 L 3.16,-10.61 L 3.11,-10.60 L 3.06,-10.60 L 3.01,-10.60 L 2.96,-10.60 L 2.92,-10.61 L 2.87,-10.62 L 2.82,-10.64 L 2.78,-10.65 L 2.73,-10.68 L 2.69,-10.70 L 2.65,-10.73 L 2.61,-10.76 L 2.58,-10.79 L 2.54,-10.83 L 2.52,-10.86 L 2.49,-10.91 L 2.46,-10.95 L 2.44,-10.99 L 2.42,-11.06 L 2.40,-11.13 L 2.38,-11.20 L 2.36,-11.27 L 2.35,-11.34 L 2.35,-11.41 L 1.92,-11.40 L 1.93,-11.25 L 1.95,-11.14 L 1.98,-11.02 L 2.02,-10.91 L 2.06,-10.81 L 2.11,-10.73 L 2.16,-10.65 L 2.22,-10.58 L 2.28,-10.51 L 2.35,-10.45 L 2.42,-10.40 L 2.50,-10.35 L 2.58,-10.31 L 2.64,-10.29 L 2.70,-10.28 L 2.76,-10.26 L 2.82,-10.25 L 2.88,-10.24 L 2.94,-10.24 L 3.00,-10.23 L 3.06,-10.23 L 3.12,-10.23 L 3.19,-10.24 L 3.26,-10.25 L 3.33,-10.26 L 3.38,-10.27 L 3.44,-10.28 L 3.49,-10.30 L 3.55,-10.32 L 3.60,-10.35 L 3.65,-10.37 L 3.69,-10.40 L 3.74,-10.44 L 3.81,-10.50 L 3.88,-10.56 L 3.94,-10.63 L 3.99,-10.70 L 4.04,-10.78 L 4.08,-10.87 L 4.11,-10.95 L 4.14,-11.04 L 4.16,-11.17 L 4.18,-11.29 L 4.19,-11.42 L 3.77,-11.48 Z" />
    <path class="fBLACK sBLACK" style="stroke-width:0.04" d="M 3.06,-12.87 L 3.00,-12.87 L 2.94,-12.87 L 2.88,-12.86 L 2.82,-12.85 L 2.76,-12.84 L 2.70,-12.83 L 2.64,-12.81 L 2.58,-12.79 L 2.53,-12.76 L 2.47,-12.73 L 2.42,-12.70 L 2.37,-12.66 L 2.32,-12.63 L 2.28,-12.58 L 2.23,-12.54 L 2.19,-12.49 L 2.16,-12.45 L 2.12,-12.40 L 2.09,-12.35 L 2.06,-12.29 L 2.03,-12.24 L 2.01,-12.18 L 1.99,-12.12 L 1.97,-12.06 L 1.95,-11.94 L 1.93,-11.81 L 1.92,-11.68 L 1.92,-11.55 L 1.92,-11.40 L 2.35,-11.41 L 2.34,-11.48 L 2.34,-11.55 L 2.34,-11.62 L 2.35,-11.70 L 2.35,-11.77 L 2.36,-11.84 L 2.38,-11.91 L 2.40,-11.98 L 2.42,-12.05 L 2.44,-12.11 L 2.46,-12.16 L 2.49,-12.20 L 2.52,-12.24 L 2.55,-12.28 L 2.58,-12.31 L 2.61,-12.35 L 2.65,-12.38 L 2.69,-12.40 L 2.73,-12.43 L 2.78,-12.45 L 2.82,-12.47 L 2.87,-12.48 L 2.92,-12.49 L 2.96,-12.50 L 3.01,-12.50 L 3.06,-12.50 L 3.06,-12.87 Z" />
    <path class="fBLACK sBLACK" style="stroke-width:0.04" d="M 3.06,-12.50 L 3.11,-12.50 L 3.16,-12.50 L 3.20,-12.49 L 3.25,-12.48 L 3.30,-12.46 L 3.34,-12.45 L 3.38,-12.42 L 3.43,-12.40 L 3.46,-12.37 L 3.50,-12.34 L 3.54,-12.31 L 3.57,-12.28 L 3.60,-12.24 L 3.63,-12.20 L 3.65,-12.16 L 3.67,-12.11 L 3.69,-12.05 L 3.72,-11.98 L 3.73,-11.91 L 3.75,-11.84 L 3.76,-11.77 L 3.77,-11.70 L 3.77,-11.62 L 3.77,-11.55 L 3.77,-11.48 L 4.19,-11.42 L 4.19,-11.55 L 4.19,-11.70 L 4.18,-11.84 L 4.16,-11.96 L 4.13,-12.07 L 4.09,-12.19 L 4.05,-12.29 L 4.00,-12.37 L 3.95,-12.45 L 3.90,-12.52 L 3.83,-12.59 L 3.76,-12.65 L 3.69,-12.70 L 3.61,-12.75 L 3.53,-12.79 L 3.48,-12.81 L 3.42,-12.83 L 3.36,-12.84 L 3.30,-12.85 L 3.24,-12.86 L 3.18,-12.87 L 3.12,-12.87 L 3.06,-12.87 L 3.06,-12.50 Z" />
    <path class="fBLACK sBLACK" style="stroke-width:0.04" d="M 5.11,-11.97 L 5.08,-11.99 L 5.06,-12.01 L 5.04,-12.04 L 5.03,-12.07 L 5.02,-12.10 L 5.02,-12.13 L 5.01,-12.16 L 5.02,-12.20 L 5.02,-12.24 L 5.03,-12.28 L 5.05,-12.32 L 5.07,-12.35 L 5.10,-12.38 L 5.13,-12.41 L 5.16,-12.43 L 5.20,-12.45 L 5.24,-12.47 L 5.29,-12.49 L 5.33,-12.50 L 5.37,-12.51 L 5.42,-12.51 L 5.46,-12.51 L 5.51,-12.51 L 5.60,-12.51 L 5.69,-12.50 L 5.78,-12.48 L 5.87,-12.45 L 5.90,-12.43 L 5.93,-12.41 L 5.96,-12.39 L 5.99,-12.36 L 6.02,-12.33 L 6.04,-12.30 L 6.06,-12.27 L 6.08,-12.23 L 6.09,-12.17 L 6.10,-12.10 L 6.51,-12.10 L 6.51,-12.16 L 6.50,-12.23 L 6.49,-12.29 L 6.47,-12.35 L 6.44,-12.42 L 6.41,-12.48 L 6.37,-12.54 L 6.32,-12.60 L 6.26,-12.65 L 6.20,-12.69 L 6.14,-12.73 L 6.08,-12.76 L 6.01,-12.79 L 5.95,-12.81 L 5.88,-12.83 L 5.81,-12.84 L 5.74,-12.86 L 5.68,-12.86 L 5.61,-12.87 L 5.54,-12.87 L 5.47,-12.87 L 5.40,-12.87 L 5.33,-12.86 L 5.26,-12.85 L 5.19,-12.83 L 5.12,-12.81 L 5.05,-12.79 L 4.99,-12.76 L 4.94,-12.74 L 4.90,-12.71 L 4.86,-12.69 L 4.83,-12.66 L 4.79,-12.63 L 4.76,-12.59 L 4.73,-12.55 L 4.70,-12.51 L 4.68,-12.47 L 4.66,-12.43 L 4.64,-12.39 L 4.62,-12.34 L 4.61,-12.29 L 4.60,-12.25 L 4.60,-12.20 L 4.60,-12.15 L 4.60,-12.08 L 4.61,-12.00 L 4.62,-11.94 L 4.64,-11.88 L 4.67,-11.82 L 4.70,-11.77 L 4.74,-11.72 L 4.79,-11.67 L 4.84,-11.63 L 4.89,-11.60 L 5.11,-11.97 Z" />
    <path class="fBLACK sBLACK" style="stroke-width:0.04" d="M 5.55,-10.23 L 5.66,-10.24 L 5.77,-10.25 L 5.87,-10.26 L 5.96,-10.28 L 6.06,-10.31 L 6.15,-10.35 L 6.20,-10.37 L 6.25,-10.40 L 6.29,-10.44 L 6.33,-10.47 L 6.37,-10.51 L 6.41,-10.55 L 6.44,-10.59 L 6.47,-10.64 L 6.50,-10.68 L 6.52,-10.73 L 6.54,-10.78 L 6.56,-10.84 L 6.57,-10.89 L 6.58,-10.94 L 6.58,-11.00 L 6.58,-11.05 L 6.58,-11.14 L 6.57,-11.23 L 6.55,-11.28 L 6.53,-11.33 L 6.51,-11.38 L 6.49,-11.42 L 6.45,-11.46 L 6.42,-11.50 L 6.38,-11.54 L 6.34,-11.57 L 6.28,-11.61 L 6.21,-11.65 L 6.13,-11.68 L 6.06,-11.70 L 5.82,-11.76 L 5.41,-11.86 L 5.34,-11.87 L 5.27,-11.89 L 5.20,-11.92 L 5.13,-11.95 L 5.11,-11.97 L 4.89,-11.60 L 4.99,-11.55 L 5.09,-11.51 L 5.20,-11.48 L 5.30,-11.45 L 5.78,-11.33 L 5.93,-11.30 L 5.96,-11.28 L 6.00,-11.27 L 6.03,-11.25 L 6.06,-11.22 L 6.08,-11.21 L 6.10,-11.18 L 6.12,-11.16 L 6.13,-11.14 L 6.15,-11.11 L 6.15,-11.08 L 6.16,-11.05 L 6.16,-11.02 L 6.16,-10.97 L 6.15,-10.93 L 6.14,-10.89 L 6.12,-10.85 L 6.10,-10.81 L 6.07,-10.77 L 6.04,-10.74 L 6.01,-10.71 L 5.97,-10.69 L 5.93,-10.67 L 5.85,-10.64 L 5.76,-10.62 L 5.66,-10.60 L 5.57,-10.60 L 5.55,-10.23 Z" />
    <path class="fBLACK sBLACK" style="stroke-width:0.04" d="M 5.57,-10.60 L 5.51,-10.60 L 5.44,-10.61 L 5.38,-10.62 L 5.31,-10.63 L 5.26,-10.65 L 5.20,-10.67 L 5.15,-10.70 L 5.11,-10.74 L 5.06,-10.78 L 5.03,-10.83 L 5.00,-10.88 L 4.97,-10.94 L 4.95,-11.02 L 4.93,-11.12 L 4.53,-11.12 L 4.53,-11.06 L 4.53,-11.01 L 4.54,-10.95 L 4.55,-10.90 L 4.56,-10.84 L 4.58,-10.79 L 4.60,-10.74 L 4.62,-10.69 L 4.66,-10.62 L 4.71,-10.55 L 4.77,-10.49 L 4.83,-10.43 L 4.90,-10.38 L 4.97,-10.34 L 5.04,-10.31 L 5.12,-10.28 L 5.23,-10.26 L 5.33,-10.24 L 5.44,-10.24 L 5.55,-10.23 L 5.57,-10.60 Z" />
    <path class="fBLACK sBLACK" style="stroke-width:0.04" d="M 9.09,-11.80 L 9.10,-11.92 L 9.09,-12.04 L 9.09,-12.16 L 9.07,-12.28 L 9.06,-12.34 L 9.04,-12.40 L 9.02,-12.46 L 8.99,-12.52 L 8.95,-12.57 L 8.91,-12.62 L 8.87,-12.66 L 8.82,-12.70 L 8.77,-12.73 L 8.72,-12.76 L 8.66,-12.78 L 8.60,-12.80 L 8.51,-12.83 L 8.42,-12.84 L 8.33,-12.85 L 8.23,-12.85 L 8.14,-12.85 L 8.05,-12.84 L 7.96,-12.82 L 7.88,-12.79 L 7.82,-12.76 L 7.76,-12.73 L 7.70,-12.69 L 7.65,-12.65 L 7.60,-12.60 L 7.55,-12.55 L 7.51,-12.50 L 7.47,-12.45 L 7.47,-12.79 L 7.07,-12.79 L 7.07,-10.31 L 7.49,-10.31 L 7.49,-11.72 L 7.49,-11.81 L 7.50,-11.90 L 7.51,-11.96 L 7.52,-12.03 L 7.54,-12.09 L 7.57,-12.15 L 7.61,-12.20 L 7.64,-12.26 L 7.69,-12.30 L 7.74,-12.35 L 7.79,-12.38 L 7.84,-12.41 L 7.90,-12.43 L 7.96,-12.45 L 8.01,-12.47 L 8.07,-12.48 L 8.13,-12.48 L 8.19,-12.49 L 8.24,-12.49 L 8.28,-12.48 L 8.32,-12.48 L 8.36,-12.47 L 8.40,-12.46 L 8.44,-12.44 L 8.47,-12.42 L 8.50,-12.40 L 8.53,-12.38 L 8.56,-12.35 L 8.58,-12.32 L 8.60,-12.29 L 8.63,-12.21 L 8.66,-12.14 L 8.67,-12.06 L 8.67,-11.98 L 8.67,-10.31 L 9.09,-10.31 L 9.09,-11.80 Z" />
    <path class="fYLLOW sYLLOW" style="stroke-width:0.04" d="M -1.50,-3.89 L 0.00,-5.40 L 1.50,-3.89 L 0.00,-2.40 L -1.50,-3.89 Z" />
    <path class="fBLACK sBLACK" style="stroke-width:0.04" d="M -0.30,-5.09 L 0.00,-5.40 L 0.31,-5.09 L 0.31,-2.70 L 0.00,-2.40 L -0.30,-2.70 L -0.30,-5.09 Z" />
    <path class="f0 sBLACK" style="stroke-width:0.12" d="M -1.50,-3.89 L 0.00,-5.40 L 1.50,-3.89 L 0.00,-2.40 L -1.50,-3.89 " />
    <circle class="pivotPoint layout" fill="none" cx="0" cy="0" r="0.2" />
  </g>
</svg>