<?xml version="1.0" encoding="UTF-8"?>
<?xml-stylesheet type='text/css' href='S401Style.css'?>
<svg version="1.2" baseProfile="tiny" style="shape-rendering:geometricPrecision; fill-rule:evenodd;" width="3.00mm" height="5.40mm" viewBox="-1.51 -5.41 3.02 5.42" xmlns="http://www.w3.org/2000/svg">
  <title>TOPMAB3L</title>
  <desc>BinSchStrO, Anl. 8, VII.B.3 left, catlam 24</desc>
  <metadata />
  <g>
    <path class="fWHITE sWHITE" style="stroke-width:0.04" d="M 0.00,-5.40 L 1.50,-3.90 L 0.00,-2.40 L -1.50,-3.90 L 0.00,-5.40 Z" />
    <path class="fBLACK sBLACK" style="stroke-width:0.04" d="M -0.41,-4.99 L 0.41,-4.99 L 0.65,-4.75 L -0.65,-4.75 L -0.41,-4.99 Z" />
    <path class="fBLACK sBLACK" style="stroke-width:0.04" d="M 0.90,-4.50 L 1.13,-4.27 L -1.13,-4.27 L -0.90,-4.50 L 0.90,-4.50 Z" />
    <path class="fBLACK sBLACK" style="stroke-width:0.04" d="M 1.38,-4.02 L 1.50,-3.90 L 1.38,-3.78 L -1.38,-3.78 L -1.50,-3.90 L -1.38,-4.02 L 1.38,-4.02 Z" />
    <path class="fBLACK sBLACK" style="stroke-width:0.04" d="M 1.14,-3.54 L 0.90,-3.30 L -0.90,-3.30 L -1.14,-3.54 L 1.14,-3.54 Z" />
    <path class="fBLACK sBLACK" style="stroke-width:0.04" d="M 0.65,-3.05 L 0.42,-2.81 L -0.41,-2.81 L -0.65,-3.05 L 0.65,-3.05 Z" />
    <path class="f0 sBLACK" style="stroke-width:0.12" d="M 0.00,-5.40 L 1.50,-3.90 L 0.00,-2.40 L -1.50,-3.90 L 0.00,-5.40 " />
    <circle class="pivotPoint layout" fill="none" cx="0" cy="0" r="0.2" />
  </g>
</svg>