<?xml version="1.0" encoding="utf-8"?>
<?xml-stylesheet type='text/css' href='S401Style.css'?>
<svg version="1.2" baseProfile="tiny" style="shape-rendering:geometricPrecision; fill-rule:evenodd;" width="3.30mm" height="4.69mm" viewBox="-1.66 -2.35 3.32 4.71" xmlns="http://www.w3.org/2000/svg">
  <title>VEHTRF01</title>
  <desc>vehicle transfer</desc>
  <metadata>
    <iho:S100SVG xmlns:iho="http://www.iho.int/SVGMetadata">
      <iho:Description iho:publisher="IEHG" iho:creationDate="2015-07-28" iho:source="" iho:format="IENC signs, Europe, SVG" iho:version="0.1" />
    </iho:S100SVG>
  </metadata>
  <g>
    <path class="f0 sBLACK" style="stroke-width:0.04" d="M -0.07,-2.23 L 1.34,-0.75 L 1.34,2.24 L 1.18,2.24 L 1.18,2.35 L 1.65,2.35 L 1.65,2.24 L 1.49,2.24 L 1.49,-1.63 L 0.37,-2.34 L -0.77,-2.34 L -0.77,-2.23 L -0.59,-2.23 L -0.59,-0.39 L -0.46,-0.26 L -0.46,-2.23 L -0.07,-2.23 " />
    <path class="fLITBL sBLACK" style="stroke-width:0.12" d="M -1.50,-0.09 L -1.50,0.54 L 0.43,0.54 L 0.43,-0.07 L 0.24,-0.26 L -1.26,-0.26 L -1.50,-0.09 Z" />
    <path class="fLITGY sBLACK" style="stroke-width:0.12" d="M 0.04,1.66 L 0.35,1.66 L 0.58,1.53 L 0.58,0.68 L 0.43,0.54 L -1.50,0.54 L -1.65,0.65 L -1.65,1.47 L -1.45,1.66 L -1.13,1.66 L 0.04,1.66 Z" />
    <path class="fBLACK sBLACK" style="stroke-width:0.04" d="M -0.07,-2.23 L 1.34,-0.75 L 1.34,2.24 L 1.18,2.24 L 1.18,2.35 L 1.65,2.35 L 1.65,2.24 L 1.49,2.24 L 1.49,-1.63 L 0.37,-2.34 L -0.77,-2.34 L -0.77,-2.23 L -0.59,-2.23 L -0.59,-0.26 L -0.46,-0.26 L -0.46,-2.23 L -0.07,-2.23 Z" />
    <path class="fBLACK sBLACK" style="stroke-width:0.04" d="M 0.35,1.66 L 0.04,1.66 L 0.04,2.05 L 0.35,2.05 L 0.35,1.66 Z" />
    <path class="fBLACK sBLACK" style="stroke-width:0.04" d="M -1.13,1.66 L -1.45,1.66 L -1.45,2.05 L -1.13,2.05 L -1.13,1.66 Z" />
    <path class="fBLACK sBLACK" style="stroke-width:0.04" d="M -0.94,1.06 L -0.94,1.02 L -0.95,0.99 L -0.97,0.95 L -1.00,0.93 L -1.03,0.90 L -1.06,0.89 L -1.09,0.88 L -1.13,0.88 L -1.16,0.89 L -1.20,0.91 L -1.22,0.93 L -1.25,0.96 L -1.26,0.99 L -1.27,1.03 L -1.27,1.07 L -1.27,1.10 L -1.26,1.14 L -1.24,1.17 L -1.21,1.20 L -1.18,1.22 L -1.15,1.23 L -1.11,1.24 L -1.08,1.23 L -1.04,1.22 L -1.01,1.21 L -0.99,1.18 L -0.96,1.15 L -0.95,1.12 L -0.94,1.08 L -0.94,1.06 " />
    <path class="fBLACK sBLACK" style="stroke-width:0.04" d="M 0.24,1.06 L 0.24,1.02 L 0.23,0.99 L 0.21,0.95 L 0.18,0.93 L 0.16,0.90 L 0.12,0.89 L 0.09,0.88 L 0.05,0.88 L 0.02,0.89 L -0.02,0.91 L -0.04,0.93 L -0.07,0.96 L -0.08,0.99 L -0.09,1.03 L -0.09,1.07 L -0.09,1.10 L -0.08,1.14 L -0.06,1.17 L -0.03,1.20 L 0.00,1.22 L 0.03,1.23 L 0.07,1.24 L 0.10,1.23 L 0.14,1.22 L 0.17,1.21 L 0.19,1.18 L 0.22,1.15 L 0.23,1.12 L 0.24,1.08 L 0.24,1.06 " />
    <path class="fWHITE sBLACK" style="stroke-width:0.04" d="M 0.09,-2.23 L 1.34,-0.92 L 1.34,-1.60 L 0.35,-2.23 L 0.09,-2.23 Z" />
    <path class="f0 sBLACK" style="stroke-width:0.04" d="M 0.00,0.00 L 0.00,0.00 " />
    <circle class="pivotPoint layout" fill="none" cx="0" cy="0" r="0.2" />
  </g>
</svg>